<svg id="Afghanistan" xmlns="http://www.w3.org/2000/svg" width="612" height="792" viewBox="0 0 612 792">
    <defs>
        <style>.cls-1{fill:#fff;fill-rule:evenodd;}</style>
    </defs>
    <polygon class="cls-1"
             points="261.857 420.696 262.097 420.456 262.817 420.696 263.057 421.656 263.297 421.656 263.537 422.136 263.777 422.376 264.017 422.856 264.257 422.856 265.937 423.576 267.377 423.336 267.617 423.576 267.857 423.816 268.097 424.056 268.577 424.536 268.577 425.016 269.297 425.976 269.297 426.456 269.537 427.176 269.777 426.936 270.017 426.696 270.257 426.456 270.497 426.216 270.737 426.216 271.217 425.976 271.457 426.216 271.457 426.456 271.697 426.696 272.417 426.936 273.137 426.696 274.097 426.216 274.577 425.976 274.817 425.736 275.057 425.736 275.537 425.496 276.017 425.496 276.258 425.496 276.497 425.496 276.738 425.256 276.978 424.536 276.738 424.296 276.978 423.576 277.218 423.336 277.698 423.096 277.698 422.136 277.458 421.416 277.458 421.176 278.178 421.416 278.418 421.416 278.658 421.416 278.898 421.656 279.138 421.656 279.378 421.656 280.818 421.416 281.058 421.176 281.538 420.936 281.778 420.936 282.018 420.936 282.498 420.936 282.978 420.936 283.458 420.936 284.178 420.696 284.418 420.696 284.898 420.696 286.098 419.976 286.578 419.736 288.258 419.256 288.978 419.256 289.218 419.256 289.698 419.016 289.698 418.776 290.418 418.056 290.658 417.816 290.658 417.576 290.898 417.336 290.898 417.096 291.138 416.616 290.898 416.136 290.898 415.896 291.138 415.416 291.138 415.176 291.378 414.936 291.618 414.696 291.858 414.216 292.099 413.976 292.579 413.496 292.819 413.016 293.059 412.776 293.059 412.536 293.059 411.816 293.059 411.337 293.299 410.857 293.539 410.617 293.779 410.617 295.699 409.897 295.939 409.897 298.099 410.137 298.339 410.377 298.819 410.377 299.059 410.377 299.539 410.377 299.779 410.377 300.739 409.657 300.739 409.177 300.739 408.697 300.739 408.457 300.979 408.217 301.219 407.977 301.459 407.737 301.939 407.737 303.859 408.937 304.579 409.417 305.059 410.137 305.779 410.617 306.019 410.617 306.259 410.617 306.979 410.617 306.979 410.857 307.219 410.857 307.459 410.617 307.699 410.617 307.94 410.617 308.18 410.617 308.66 410.617 309.38 410.857 310.34 410.857 310.58 410.857 311.06 410.857 311.54 410.857 311.78 410.857 312.26 411.337 313.22 412.536 313.22 412.776 313.22 413.016 313.46 413.256 313.7 413.256 313.94 413.016 314.66 413.016 315.14 412.776 315.86 412.776 316.82 413.016 317.3 413.256 317.54 413.496 317.78 413.496 317.78 413.736 317.54 414.456 317.78 414.696 319.22 416.616 319.7 416.616 320.9 415.896 321.62 415.896 322.1 415.176 322.82 415.176 324.741 414.456 324.741 414.216 324.981 413.976 326.421 413.496 326.901 413.496 327.621 413.736 327.861 413.976 328.101 414.456 328.821 415.416 328.821 415.656 329.301 416.136 329.781 416.376 330.021 416.136 330.261 416.136 330.981 415.656 331.221 415.416 331.221 414.456 330.981 413.976 330.981 413.736 330.981 413.496 330.981 413.016 331.221 412.776 332.421 411.577 332.901 411.577 333.621 411.816 334.581 411.816 335.061 411.577 335.301 411.577 335.541 411.577 335.781 411.816 336.021 412.056 336.501 412.296 336.501 412.536 336.741 412.536 336.981 412.536 337.221 412.536 337.461 412.536 338.421 411.816 338.901 411.097 338.901 410.617 338.661 410.377 338.421 409.657 338.181 409.657 338.181 409.417 337.941 409.177 337.941 408.457 338.421 408.697 338.661 408.457 339.141 408.217 339.141 407.977 339.382 407.977 339.622 407.737 341.062 406.537 341.542 405.577 342.022 405.097 342.502 404.617 342.982 404.137 343.462 403.897 345.142 403.657 345.382 403.657 346.582 404.857 346.582 405.097 347.062 405.337 347.302 405.577 347.782 405.817 348.022 406.297 348.022 406.777 348.022 407.257 347.782 407.497 347.542 407.977 347.062 408.937 346.822 409.417 347.542 409.897 348.022 409.897 348.262 409.657 348.982 409.417 349.222 409.657 349.462 409.897 349.702 410.377 349.462 410.617 349.462 410.857 349.462 411.097 348.982 411.816 348.742 413.016 348.502 413.496 348.262 414.936 348.262 415.416 348.262 416.136 348.262 416.376 348.022 416.616 348.022 416.856 347.782 417.096 347.782 417.576 347.542 418.536 347.542 419.736 347.782 419.976 348.262 421.656 348.502 422.136 348.742 422.376 349.222 422.616 349.222 422.856 349.942 422.856 350.422 422.616 350.662 422.616 351.382 422.136 352.342 421.416 354.022 420.456 354.502 420.216 354.742 419.976 354.982 419.976 355.463 419.976 355.703 419.976 356.423 419.976 357.623 419.736 358.103 419.256 358.103 419.016 358.343 418.776 358.583 418.296 358.823 418.056 358.823 417.816 359.303 417.816 359.783 417.576 360.743 417.096 361.463 416.616 361.943 416.136 362.903 415.896 363.143 415.656 364.343 415.656 364.583 415.656 364.823 415.656 365.063 415.896 365.303 416.136 365.783 416.136 366.263 416.136 366.503 416.136 366.743 416.136 366.983 416.376 366.983 417.096 366.503 417.576 366.023 417.576 365.783 418.056 366.503 418.536 367.223 418.536 367.463 418.296 367.703 418.056 369.143 417.576 370.103 417.576 370.823 416.856 371.064 416.856 371.544 416.856 372.024 416.856 372.504 417.096 373.464 417.336 374.184 417.336 374.424 417.096 375.624 417.816 375.624 418.056 376.344 418.776 375.384 419.016 375.144 418.536 375.144 418.296 374.904 418.056 374.424 418.536 373.704 418.536 373.224 418.776 372.024 419.256 372.024 419.496 372.984 420.696 373.224 420.936 373.464 420.936 373.224 421.416 372.984 421.416 372.744 421.176 372.504 420.936 372.024 421.176 370.343 421.896 369.623 422.616 368.903 422.856 368.183 422.616 367.943 422.136 367.223 421.896 365.783 421.656 365.543 421.656 364.823 421.896 364.343 421.656 363.383 421.656 360.743 421.656 359.783 421.656 359.543 421.896 359.303 421.896 359.063 421.896 358.583 421.896 358.343 421.896 358.103 421.656 357.383 421.656 356.663 421.896 356.423 421.896 355.943 422.376 355.703 422.376 355.223 422.376 354.742 422.376 353.782 422.616 353.302 422.616 353.302 422.856 353.062 423.336 351.622 424.296 349.462 425.496 349.222 425.256 348.742 424.776 348.502 425.016 348.262 425.496 348.022 425.976 347.062 426.696 345.142 427.896 344.662 428.616 344.422 428.856 344.902 429.096 345.622 429.815 346.102 430.295 346.582 430.775 347.302 432.695 347.062 432.935 347.302 433.895 347.542 434.375 347.782 435.575 347.542 435.815 347.062 436.055 346.822 436.535 346.822 436.775 347.302 437.495 346.822 438.695 346.582 438.935 346.102 439.895 346.102 440.135 345.862 440.375 345.382 440.615 344.182 441.335 343.222 442.295 342.502 442.775 342.502 443.015 342.502 443.495 342.262 443.975 341.542 443.975 341.302 444.215 341.302 444.455 341.542 444.935 342.022 445.655 342.262 445.895 342.742 446.135 342.262 448.054 341.782 449.254 339.862 449.974 339.141 449.974 337.221 449.734 336.501 449.734 335.301 449.494 334.101 449.014 333.621 448.774 332.901 448.534 332.421 448.294 332.181 448.294 331.941 448.294 331.701 448.294 331.221 449.254 331.701 450.214 332.181 451.414 333.141 451.654 333.381 451.654 333.861 452.614 333.861 453.094 333.621 453.334 333.381 453.574 333.381 453.814 333.621 454.294 333.861 454.534 334.341 455.014 334.581 455.494 334.581 455.974 333.621 456.694 332.901 457.174 331.941 457.654 330.741 457.894 330.501 457.894 328.341 457.894 327.861 457.654 327.621 457.894 327.141 458.134 327.141 458.614 327.141 459.094 327.141 459.334 327.141 459.814 326.661 460.294 326.181 460.534 325.941 460.774 326.181 461.254 326.181 461.494 326.421 461.974 325.941 462.454 325.941 462.694 325.701 462.934 325.461 462.934 325.221 462.934 324.981 463.174 324.741 463.174 324.501 463.414 324.501 463.654 324.261 464.134 324.261 464.374 324.501 464.613 324.501 464.853 324.501 465.333 324.501 465.573 324.501 466.293 324.261 466.533 324.261 466.773 324.261 467.253 324.261 468.213 324.501 469.173 324.261 469.413 323.3 469.893 323.3 470.133 322.82 470.853 322.58 471.093 322.34 471.333 321.38 471.813 319.7 472.053 319.46 472.053 318.98 471.093 318.98 470.853 318.5 470.133 317.78 469.653 317.54 469.653 317.3 469.653 317.06 469.653 316.58 469.893 317.3 470.133 317.54 470.373 317.54 470.613 317.3 470.613 315.14 469.893 314.66 469.413 314.42 469.173 314.18 469.173 313.94 469.413 313.7 469.653 312.98 470.373 312.26 470.853 312.02 470.853 311.54 470.853 311.3 470.853 311.06 471.093 310.82 471.333 310.1 471.813 309.86 471.813 309.62 471.813 309.38 471.573 308.66 471.573 308.9 472.533 309.38 473.013 309.62 473.013 309.86 473.013 310.1 473.013 310.34 473.013 310.58 473.253 310.34 473.733 308.66 474.213 306.739 474.453 305.779 474.453 305.539 474.213 305.299 474.453 303.859 473.973 303.619 473.733 303.859 473.253 303.619 473.013 303.379 473.013 303.139 473.013 302.419 473.253 302.179 473.253 300.739 473.733 300.499 474.693 300.259 474.933 299.299 475.893 299.059 475.893 298.819 475.893 298.339 476.133 298.099 475.893 297.859 476.133 297.619 476.133 296.179 479.733 296.419 480.453 296.419 480.693 296.659 481.173 295.939 483.332 295.699 483.812 295.459 484.052 294.979 484.772 295.219 485.252 295.459 485.492 295.939 486.212 295.459 486.692 294.979 487.172 293.779 487.172 293.299 487.412 291.378 487.652 290.178 487.652 288.738 487.892 285.618 488.372 283.698 488.612 282.258 488.132 281.298 487.892 281.058 487.652 280.578 487.652 280.338 487.652 279.618 487.412 279.378 487.412 278.898 487.412 277.938 487.412 276.738 487.652 276.258 487.892 276.017 487.892 275.777 488.132 274.817 488.372 274.337 488.132 271.697 487.172 270.737 486.692 270.497 486.692 267.617 486.452 267.377 486.452 261.377 485.972 260.897 485.972 260.657 485.972 260.176 485.732 259.696 485.492 259.696 485.252 258.736 485.012 257.536 484.292 256.816 483.812 254.896 482.852 248.896 479.493 248.416 479.013 247.456 478.533 247.696 478.053 249.136 477.093 250.576 475.893 251.056 475.413 251.776 474.933 252.736 474.213 256.816 470.613 258.016 468.453 258.016 466.773 257.776 466.293 257.776 465.813 257.776 465.333 257.776 464.853 257.536 464.613 255.376 463.654 253.216 462.934 252.496 462.694 250.336 461.974 250.336 460.054 250.576 459.094 250.816 457.174 250.816 456.694 251.056 456.454 251.296 455.734 251.536 454.774 251.776 454.534 251.776 454.054 251.776 453.334 251.296 450.214 251.296 448.054 251.056 445.895 251.056 445.655 251.056 445.415 251.056 445.175 251.296 444.455 251.776 443.975 252.736 443.255 252.976 442.775 253.456 442.535 254.176 441.575 254.416 441.575 254.896 441.575 254.896 441.335 254.896 441.095 254.656 441.095 254.416 440.855 253.696 440.615 253.216 440.615 252.736 440.375 252.256 440.135 252.016 439.895 251.776 439.655 251.776 439.415 251.776 439.175 251.776 438.935 251.776 438.455 252.256 437.975 252.256 437.735 252.496 436.295 252.496 435.575 252.496 435.095 252.496 434.855 252.496 434.615 252.736 434.375 252.736 434.135 252.976 433.895 254.416 432.935 254.896 432.935 255.136 432.935 255.616 433.175 256.096 433.175 256.096 432.935 255.616 431.495 255.376 431.255 255.136 430.775 255.376 430.535 255.616 430.535 256.096 430.535 256.336 430.535 257.536 430.055 258.496 428.616 258.736 427.896 259.456 426.456 259.696 425.736 259.696 425.256 259.696 425.016 259.696 424.776 259.696 424.296 259.936 423.816 260.657 423.336 261.857 421.656 261.857 421.416 261.857 420.696"/>
</svg>
