<svg xmlns="http://www.w3.org/2000/svg" width="612" height="792" viewBox="0 0 612 792">
    <defs>
        <style>.cls-1{fill:#fff;}.cls-2{fill:#e1e1e1;fill-rule:evenodd;}</style>
    </defs>
    <g id="bounds">
        <ellipse class="cls-1" cx="272.5564" cy="318.3534" rx="15.7714" ry="10.6424"
                 transform="translate(-143.2425 265.9396) rotate(-42.2471)"/>
    </g>
    <g id="Arai_Sea" data-name="Arai Sea">
        <polygon class="cls-2"
                 points="279.858 310.302 279.618 310.062 279.618 309.822 279.618 309.582 279.378 309.582 279.138 309.342 278.898 309.582 278.658 309.582 278.418 309.582 278.178 309.582 277.938 309.582 277.698 309.582 277.458 309.582 277.458 309.342 277.218 309.342 277.218 309.102 277.218 308.862 276.978 308.862 276.978 308.622 276.738 308.382 276.978 308.142 276.978 307.902 276.978 307.662 277.218 307.422 277.218 307.182 277.458 307.182 277.698 306.943 277.938 306.943 278.178 306.943 278.418 306.703 278.658 306.703 278.898 306.703 278.898 306.463 279.138 306.463 279.378 306.463 279.618 306.463 279.618 306.703 279.858 306.943 279.858 307.422 279.858 307.662 279.858 307.902 279.858 308.142 279.858 308.622 279.858 308.862 279.618 309.102 279.858 309.102 279.858 308.862 279.858 308.622 280.098 308.622 280.098 308.382 280.338 308.142 280.338 307.902 280.338 307.662 280.578 307.662 280.578 307.902 280.818 307.902 280.818 308.142 281.058 308.142 281.058 308.382 281.298 308.382 281.538 308.382 281.538 308.142 281.778 308.142 282.018 308.142 282.258 307.902 282.498 307.902 282.738 307.902 282.738 307.662 282.498 307.662 282.498 307.422 282.258 307.422 282.258 307.182 282.018 306.943 281.778 306.703 281.538 306.463 281.538 306.223 281.778 306.223 282.018 306.223 282.258 306.223 282.258 306.463 282.498 306.463 282.498 306.703 282.738 306.703 282.978 306.703 282.978 306.943 282.978 307.182 282.978 307.422 282.738 307.662 282.738 307.902 282.738 308.142 282.498 308.142 282.498 308.382 282.498 308.622 282.738 308.862 282.738 309.102 282.978 309.342 282.978 309.582 283.218 309.822 283.458 309.822 283.698 310.062 283.938 310.062 284.178 310.062 284.418 310.302 284.658 310.542 284.898 310.302 285.138 310.302 285.378 310.302 285.618 310.302 285.858 310.062 285.618 310.302 285.618 310.542 285.618 310.782 285.618 311.022 285.618 311.262 285.378 311.502 285.378 311.742 285.138 311.742 285.138 311.982 285.138 312.222 284.898 312.462 284.658 312.462 284.658 312.702 284.418 312.702 284.178 312.462 283.938 312.462 283.938 312.702 283.698 312.702 283.458 312.702 283.218 312.702 282.978 312.702 282.978 312.942 282.738 312.942 282.498 313.182 282.258 312.942 282.018 312.942 281.778 312.942 281.778 313.182 281.538 313.182 281.538 312.942 281.778 312.942 281.778 312.702 282.018 312.702 282.018 312.462 282.018 312.222 282.018 311.982 282.018 311.742 281.778 311.262 281.778 311.022 281.778 310.782 281.778 310.542 281.778 310.302 281.538 310.302 281.298 310.542 281.058 310.542 280.818 310.542 280.578 310.782 280.338 310.782 280.098 310.542 279.858 310.542 279.858 310.302"/>
        <polygon class="cls-2"
                 points="274.337 312.222 274.577 312.222 274.817 312.222 275.057 312.222 275.297 312.222 275.537 311.982 275.777 311.982 276.017 311.982 276.258 311.742 276.497 311.982 276.738 311.982 276.978 311.982 276.978 312.222 276.978 312.462 277.218 312.462 277.938 312.462 278.898 312.702 280.098 313.422 281.058 313.422 281.058 313.662 280.818 314.142 279.618 314.382 278.658 315.342 278.178 315.582 277.938 315.102 276.978 314.622 276.738 314.382 276.017 314.622 275.057 313.902 274.817 314.142 275.057 314.622 274.577 314.622 274.577 314.862 274.097 315.342 273.617 315.582 273.137 315.822 272.897 316.542 272.897 316.782 273.377 317.262 274.337 317.262 274.817 317.502 274.817 318.222 274.817 318.942 274.577 320.382 274.337 321.102 274.097 322.302 273.857 323.742 273.137 325.421 272.897 326.861 272.417 328.541 272.177 329.261 271.697 330.221 271.217 330.701 270.497 331.181 269.057 330.941 268.097 330.701 267.857 329.981 267.137 328.541 266.897 327.341 266.657 326.381 266.897 325.421 266.897 324.461 267.137 323.982 267.617 323.742 268.337 322.542 268.817 321.822 269.537 320.622 269.777 319.662 270.017 317.982 270.497 316.542 269.777 316.542 270.017 315.582 270.017 315.342 269.297 314.862 269.297 314.142 269.057 313.902 268.817 313.902 268.577 315.102 268.097 315.102 268.097 314.622 268.337 313.902 267.857 314.142 267.617 315.102 266.177 316.062 265.937 316.062 265.457 316.782 264.977 318.222 265.217 319.422 264.497 319.902 263.777 320.622 263.537 321.102 263.537 321.342 264.497 321.102 264.737 320.862 264.977 320.862 264.977 321.102 264.977 321.342 264.497 321.822 264.257 321.822 264.017 322.302 263.777 323.262 263.777 323.502 264.017 323.502 263.777 323.982 263.777 324.221 263.537 324.221 263.297 323.982 263.297 323.742 263.057 323.502 262.577 323.502 262.337 323.742 262.337 323.982 262.577 323.982 262.577 324.221 262.577 324.461 262.577 324.941 262.337 325.421 261.617 326.141 260.897 326.861 259.936 326.861 259.456 326.621 259.456 326.381 259.216 326.141 259.216 325.901 259.216 325.661 259.456 325.181 259.456 324.941 259.456 324.701 259.696 324.701 259.936 324.461 260.176 324.461 260.176 324.221 260.176 323.982 260.176 323.742 260.176 323.502 260.176 323.022 260.176 322.782 260.176 322.302 260.176 322.062 260.176 321.582 260.417 321.342 260.417 321.102 260.657 320.862 260.897 320.622 260.897 320.382 261.137 320.142 261.377 319.662 261.377 319.422 262.097 318.942 262.817 317.502 263.057 317.262 263.537 317.022 263.537 316.782 263.777 316.542 264.017 316.542 264.257 316.302 264.257 315.822 264.497 315.582 264.497 315.342 264.737 315.102 264.977 314.862 265.217 314.622 265.217 314.382 265.457 314.142 265.457 313.662 265.697 313.422 265.937 313.182 265.937 312.702 266.177 312.702 266.417 312.462 266.657 312.222 266.897 312.222 266.897 311.982 267.137 311.982 267.377 311.742 267.617 311.742 267.857 311.742 268.097 311.982 268.337 311.982 268.577 311.982 268.337 311.742 268.577 311.742 268.577 311.502 268.817 311.502 268.817 311.742 269.057 311.742 269.057 311.982 269.297 311.982 269.537 311.982 269.777 311.982 269.777 312.222 270.017 312.222 270.257 311.982 270.497 311.742 270.737 311.742 270.977 311.742 271.217 311.982 271.217 312.222 271.217 312.462 270.977 312.462 270.977 312.702 270.737 312.702 270.497 312.942 270.257 313.182 270.257 313.422 270.017 313.422 270.017 313.662 269.777 313.902 269.777 314.142 269.777 314.382 270.017 314.382 270.257 314.382 270.257 314.622 270.497 314.382 270.737 314.382 270.977 314.622 271.217 314.622 271.217 314.862 271.457 314.862 271.457 314.622 271.697 314.622 271.937 314.622 272.177 314.622 272.417 314.382 272.417 314.142 272.657 313.902 272.897 313.662 273.137 313.422 273.377 312.942 273.377 312.702 273.617 312.222 273.617 311.982 273.857 311.742 273.857 311.502 273.617 310.782 273.377 310.302 273.377 309.822 273.137 309.342 273.137 309.102 272.897 309.102 273.137 309.102 273.137 308.862 273.377 308.862 273.617 308.862 273.617 309.102 273.857 309.102 274.097 309.342 274.337 309.342 274.577 309.342 274.817 309.342 275.057 309.582 275.057 309.822 275.057 310.062 275.057 310.302 275.057 310.542 274.817 310.782 275.057 311.022 275.057 311.262 274.817 311.262 274.817 311.502 274.577 311.742 274.337 311.742 274.337 311.982 274.337 312.222"/>
    </g>
</svg>
