<svg id="Armenia" xmlns="http://www.w3.org/2000/svg" width="612" height="792" viewBox="0 0 612 792">
    <defs>
        <style>.cls-1{fill:#fff;fill-rule:evenodd;}</style>
    </defs>
    <path class="cls-1"
          d="M156.25,333.101v-.48h.48l.24.24-.24.24Zm-.48-4.56-.24-.24v.24Zm-1.2-1.2h.24v-.48h-.24l-.24.24v.24Zm2.16,25.9186v-.24l-.48-.24-.48-.48h-1.2l-.48.24-.24-.96v-3.36l.24-.24h.24v-.48l-.72-.96.24-1.2.24-.96v-.24l-.24-.24-.96-.24h-.72l-.24.24h-.48l-.72-.96-.24-.96-.72-2.16h-.72l-.24.24h-.24l-.24-.24h-.24l-.48-.24h-.24l-.24-.24-.24-1.2-.24-.24-.24-.72.24-.24-.24-.72-.48-.72-.24-.24-.48-.48-1.92-.48-.48-.24h-.24v-.24l-1.44-1.44v-.48h.48l.24-1.44v-.96l.24-.96.24-.48h.48l.96-.72.24-.24.48-.72v-.48l.24-1.68-.24-.96h-.24l-.48-.48v-.96h.96l.24.24.24.24.72.24v.24h.24l.48-.24h.48l.72.48.96.24h.96l.72.24.48.48.48.24.48.24,1.2.24.72.24.24.24.96-.24h.48v.72l.48.48.24.48v.24l-.24.24h-.24l-.24-.24h-.24l-.24.24v.24l1.68,1.44,1.2,2.16v.24l-.24.24-.48.24h-1.2l-.48.48v.72l.24,1.68.48.96v.24l1.2,1.68.24.24h.24l.24.48-.72,1.2-.72.72h-.24l-.24-.24h-.24l-.24-.24-.48-.24h-.24l-.24-.24h-.24l-.24.24v.24l.72.48.24.24h.24v1.44l.24.24v.24l.24.24.24.24h.24v.96l.48,1.2.24.24h.96l.24.24.96.96v.24l-.48.72h-.48l-.48-.24v.24l-.24.24v.24l.72,1.68.24.24v.24l-.72.24-.24-.24-.24-.24-.24-.24v.96h.24v.96l-.24.24-.24.24-.24.48Z"/>
</svg>
