<svg id="Azerbaijan" xmlns="http://www.w3.org/2000/svg" width="612" height="792" viewBox="0 0 612 792">
    <defs>
        <style>.cls-1{fill:#fff;fill-rule:evenodd;}</style>
    </defs>
    <polygon class="cls-1"
             points="147.369 340.541 147.369 340.301 147.369 339.821 147.369 339.581 147.609 339.581 148.089 339.821 148.329 339.821 148.569 340.061 148.809 340.061 149.049 339.821 149.289 339.821 149.529 339.821 149.769 339.821 150.49 341.98 150.73 342.94 151.45 343.9 151.69 343.9 151.93 343.9 152.17 343.66 152.65 343.66 152.89 343.66 153.85 343.9 154.09 344.14 154.09 344.38 153.85 345.34 153.61 346.54 154.33 347.5 154.33 347.98 154.09 347.98 153.85 348.22 153.85 348.46 153.85 351.34 153.85 351.58 154.09 352.54 153.37 351.82 152.65 351.34 151.93 350.86 150.25 349.66 150.01 349.18 149.769 349.18 149.529 348.94 149.289 348.46 149.529 347.98 149.289 346.78 149.049 346.3 148.809 346.3 148.569 346.06 148.089 345.58 148.089 345.34 148.329 344.86 148.329 344.62 148.089 343.9 147.849 343.18 147.609 342.94 147.609 342.46 147.609 341.741 147.609 341.501 147.849 341.021 147.609 340.781 147.369 340.541"/>
    <polygon class="cls-1"
             points="172.811 362.859 173.531 361.179 174.011 359.979 174.251 359.739 174.731 359.26 175.211 358.54 174.971 358.3 175.211 357.58 175.691 357.1 175.931 357.1 176.411 357.34 176.651 358.54 176.651 358.78 176.651 359.02 176.411 359.02 176.171 359.02 175.931 359.02 175.691 359.499 175.931 359.499 176.171 359.499 176.411 359.499 176.891 359.26 177.131 359.02 178.091 356.86 178.331 356.62 178.571 356.38 178.811 356.38 178.811 356.62 179.051 356.62 179.531 356.62 179.771 356.38 179.531 355.9 179.531 355.66 179.291 355.18 179.291 354.94 180.011 353.74 180.731 353.26 180.971 352.78 181.692 351.34 182.172 350.62 182.172 350.14 182.172 349.66 183.132 348.94 183.372 348.7 183.852 348.46 186.252 348.22 187.212 348.22 188.412 348.46 188.892 348.94 189.132 349.18 189.612 349.42 189.612 349.9 189.852 350.14 190.092 349.42 190.092 349.18 190.092 348.94 190.092 348.7 189.612 347.5 188.412 346.06 188.172 346.06 188.172 345.82 187.692 345.82 187.212 345.82 186.972 345.82 186.732 345.58 186.012 345.34 185.292 344.38 185.052 343.9 185.052 343.66 185.292 343.42 185.532 342.94 185.532 342.7 185.532 342.22 185.292 342.22 185.052 341.98 184.812 341.741 184.332 340.061 184.092 339.581 184.092 339.341 184.092 339.101 184.092 338.141 184.332 337.181 184.332 336.941 184.332 335.021 184.092 335.021 184.092 334.781 183.612 333.821 183.612 333.341 183.612 332.861 183.372 331.901 183.132 331.181 183.132 330.461 182.685 329.716 182.652 329.741 181.932 330.221 180.731 331.421 180.491 331.661 180.251 331.901 179.051 332.141 178.811 332.141 178.571 332.141 178.331 331.901 177.851 331.901 177.611 332.141 176.411 332.861 175.691 333.341 175.691 333.821 175.691 334.061 175.211 334.061 174.731 333.821 174.491 333.821 174.251 333.581 173.771 333.101 173.531 333.101 173.291 333.101 173.051 333.101 171.851 331.901 171.371 331.181 171.611 330.701 171.611 330.221 171.611 328.541 171.371 328.301 171.131 328.301 170.891 327.581 170.411 326.621 170.171 325.901 169.931 325.421 169.691 325.181 169.931 324.701 169.931 324.461 168.971 324.461 168.731 323.742 168.251 323.502 168.011 323.262 167.531 323.502 167.291 323.742 166.811 324.221 166.571 324.221 166.331 323.982 166.091 323.982 165.85 323.982 165.61 323.982 165.37 324.221 165.37 324.461 165.13 324.701 165.13 325.181 165.13 325.421 165.37 326.861 166.331 328.301 166.571 328.541 166.811 328.781 167.051 329.021 167.291 329.501 167.291 330.221 166.811 330.701 166.571 331.181 165.85 331.421 164.89 331.661 164.17 330.701 164.17 330.461 163.93 329.981 163.93 329.741 163.69 329.261 162.97 329.021 162.49 329.261 162.25 329.261 162.25 329.021 161.77 329.021 161.77 328.781 161.29 328.541 161.05 328.301 161.05 328.061 160.81 327.821 160.57 327.341 160.33 327.101 160.33 326.861 160.57 326.381 160.09 325.661 158.41 324.221 158.17 323.982 157.93 323.982 157.21 324.221 156.73 324.461 155.77 324.701 155.53 324.941 155.53 325.661 156.01 326.141 156.25 326.621 156.25 326.861 156.01 327.101 155.77 327.101 155.53 326.861 155.29 326.861 155.05 327.101 155.05 327.341 156.73 328.781 157.93 330.941 157.93 331.181 157.69 331.421 157.21 331.661 156.97 331.661 156.25 331.661 156.01 331.661 155.53 332.141 155.53 332.861 155.77 334.541 156.25 335.501 156.25 335.741 157.45 337.421 157.69 337.661 157.93 337.661 158.17 338.141 157.45 339.341 156.73 340.061 156.49 340.061 156.25 339.821 156.01 339.821 155.77 339.581 155.29 339.341 155.05 339.341 154.81 339.101 154.57 339.101 154.33 339.341 154.33 339.581 155.05 340.061 155.29 340.301 155.53 340.301 155.53 340.781 155.53 341.021 155.53 341.261 155.53 341.741 155.77 341.98 155.77 342.22 156.01 342.46 156.25 342.7 156.49 342.7 156.49 343.18 156.49 343.42 156.49 343.66 156.97 344.86 157.21 345.1 157.45 345.1 157.93 345.1 158.17 345.1 158.41 345.34 159.37 346.3 159.37 346.54 158.89 347.26 158.41 347.26 157.93 347.02 157.93 347.26 157.69 347.5 157.69 347.74 158.41 349.42 158.65 349.66 158.65 349.9 157.93 350.14 157.69 349.9 157.45 349.66 157.21 349.42 157.21 349.9 157.21 350.38 157.45 350.38 157.45 350.62 157.45 351.1 157.45 351.34 157.21 351.58 156.97 351.82 156.73 352.3 156.73 353.26 157.21 352.78 157.93 352.54 158.89 352.06 159.13 351.82 160.09 351.34 160.33 351.34 160.57 351.34 160.81 351.58 161.53 351.34 161.77 351.1 162.49 350.62 163.21 350.38 163.45 350.62 164.17 350.38 164.41 350.38 164.65 350.14 165.37 349.9 165.85 349.66 166.571 349.9 168.731 349.18 168.971 348.94 169.211 348.94 170.411 349.18 170.651 349.42 170.891 349.9 170.891 350.14 171.131 350.86 171.371 351.58 171.611 352.06 171.851 352.3 171.851 352.78 172.091 353.02 172.091 353.26 171.371 353.5 171.131 353.5 170.651 353.5 170.171 353.5 169.931 353.74 169.691 353.98 169.691 354.46 170.171 355.42 170.411 355.66 170.651 355.9 170.651 356.62 170.411 356.86 170.171 357.1 169.931 357.1 169.451 357.1 169.211 357.1 168.971 356.86 168.491 356.86 167.771 357.34 167.531 357.58 167.531 357.82 168.011 358.54 168.011 358.78 168.251 359.02 168.491 359.26 168.731 359.739 168.491 360.219 168.971 361.179 169.211 361.179 169.691 361.179 169.931 361.179 170.171 363.099 170.411 363.579 170.411 363.819 170.651 364.059 171.371 364.059 171.851 363.819 172.331 364.059 172.391 364.119 172.571 364.299 172.811 362.859"/>
</svg>
