<svg id="Bangladesh" xmlns="http://www.w3.org/2000/svg" width="612" height="792" viewBox="0 0 612 792">
    <defs>
        <style>.cls-1{fill:#fff;fill-rule:evenodd;}</style>
    </defs>
    <path class="cls-1"
          d="M520.1129,570.9274h-.24v-.96l.48-.48.24-.24h.24l-.24,1.2v.24l-.24.24Zm-.48-6.96-.24-.48-.24-.24h-.24v-1.2l.72-.24h.96l.24.24h.24v.48l-.24.24h-.96l-.24.24.24.24v.24Zm9.8406,2.4h-.24l-.24-.24-.24-.24-.24-.48-.24-.24v-1.68h.24l.24.24.72.96.24.48v.24h.24v.48l-.24.24Zm4.32,8.3995-.24-.24v-.24l-.24-1.68v-.72h.24l.48.24.24.48.24.24v.24l.24.24-.24.24v.72l-.48.48Zm-8.88-5.28.24-.96v-3.6l.24.24.48.96.24.72.24.48v.72l-.24.24v.24l-.24.24-.48.48-.24.24Zm-3.36,1.44h-.24l-.48-.48.24-.96v-.48l.24-.48v-.48h.24v-.72l-.24-.48v-.72l-.24-.48-.24-.48h-.24l-.24-.24-.24-.24-.24-.24v-.48l.24-.72v-.24h.24l.24-.24h.48v.48h.24v.72h.24l.72.96.48.48h.24v.24l.24.24v2.4l-.24.72v.24l-.48.72Zm-2.88-10.5594.24.72v.96l-.24,1.2h.24l.48.72.96,1.44.24.72v.24l.24.72v.96l-.48.72-.24.24-.24.24v.24l-.48.72-.48-.24v-1.68l-.24.48.24.48-.24.96-.24.48-.24.48v.24l-.24.72v.48l-.72.72h-.72l-.96-.48v-.96l.48-.96.24-.24.48-.48h.24l.24-.24v-.72l-.72.72-.48.72-.24.24v.48l-.24.24-.24-.24-.24-.24.48-1.2.24-.24-.24.24-.72,1.2.24.48h-.48l-.24-.48v-.72l-.24-.24v-.72l-.24-.24v-.24l-.24-.24.48-.96v-.24l.24-.24.24-.24v-.24l.24-.24h-.24l-.24.48-.48.48-.24.72-.24.48v.24l.24.48v.24l.24.24v.72l-.24.96.24.48v.24l.24.24-.48.72h-.24l-.96.48-.96.96h-.24l-.24-.24-.24-.72v-.24l.24-.48.24-2.16v-2.4l-.24.72-.24.48v.48l.24.24v.24l-.24,1.2h-.24v-.96l-.24-.48-.24-.48v-.72l-.24-.24v.72l.48.72v.24l.24.24v.24l-.24.48.24.72v.48l-.24,1.44-.48.48-.24.24-.24-.24v-.48l-.24-.24v-.48l.24-.24v-.24l-.24-.48v-.24l-.48,2.16v.96l-.48.24h-.24v-.72l-.48-.72h-.72l-.24-.96v-1.2l-.48-.48v-.48l.48-.24-.24-.48-.24-.24-.48-.48v-.24l-.24-.48-.24-.72-.72-4.8-.72-.96v-1.2l.24-.24.72-.96-1.68-.24v.24l-.96-.24v-.72l.24-.24.24-1.2v-.48l-.24.48-1.68-1.44-.24-.24v-1.2l.24-.96.24-.24.48-.24.48-.24v-1.44h-.24l-.24-.24v-.96l.24-.24v-.72l-.24-.24-.24-.24h-.24l-.24.24-1.44-.24h-.24l-.96-.72-.96-.24-.48-.24-.96-.24-.24-.24-.72-1.68.72-1.44.24-.24v-.48l-.24-.24.72-.24.48.24.24.24h.24l.24.24.48-.96.48-.72v-1.68l.24-.24h1.44l.48-.24,1.92.24h.48l.48-1.44h-.72l-.48-.24-.48-.24-.24-.48.24-.24v-.48l-.48-.24h-.24l-.48.24h-1.44l-1.2-.72v-.72l-1.68-1.44h-.48l-.24.24h-.48l-.48-.48-.24-.72.48-1.92.24-.48.96-.72.48-.24.24-.24-.24-.48.48-.48.72-.24.48-.24-.24-.24-.24-.72h-1.2v.24l-.24-.24.24-.96.48-.48v.72l1.44.72h.48l.72.24v.48l.24.48.24.48,1.2.24h1.44l.24-.48-.72-.48-.48-.24v-.72h.24l1.2.48.24.72.24,1.2.24.24,1.2.72.72.48h1.68l.48-.24.24-.48v-.24l-.24-.24v-.24l.24-.96h.24l.24.48.24.24h.48l.48.48.72.96.24.96-.24.24v.24l-.24.48.48,1.2.24.48v2.16l-.24.72.24.48.24.24h.24l.24-.24h.48l.72.48,1.44.24,1.92.48h.72l.24-.24.48-.24h3.12l.96-.24.24-.24h.48l.24-.24h.96l.72-.24h.48l1.68.24,2.16-.24.48-.24,1.68-.48h1.68l.72.24,1.44.48.72.48v.24l.24.24h.24l.24.48.24.48h-.24l-.24.24h-.48l-.48-.24-.48-.24-.48.24v.48l.24.24v.96l-.48,1.92-.24.24-.24.24v.24l.24.48v.24l-.24.24-1.2.96-.24-.24-.24.24v1.44l-.24.24-1.2.24-1.44.72-.24.24h-.96l-.48-.24-.24.24-.96,1.44-.24.72v.72l-.24.72v.24h-.48v.24l.24.96.48,1.2.48.48.48.72.24.72v.72l.24.24v.24l.24.72v.24h.24v.24h.24l.24-.24-.24-.48-.24-.48v-.48l.24-.48h.24l.24.24.24.24.24.48.72,1.68.48.48,1.2-.72.48-.48.24-.48-.24-.72v-.48l-.24-.24-.24-.24v-.24l.24-.24v-.48l.48-.72.24-.24.48-.24.24-.72v-.48l-.24-.24v-.48l-.24-.48.24-.48.24.24.48.48h.24l.48-.48.48-.48.48.24.48-.24h.24v.24l.24,1.2.24,1.2.48.72.24.24.24.72-.24.24-.24.24.24.48.48,2.4,1.2,1.92.24.24.24,1.44v.24l.72,1.92v.24l.48,1.68v.96l.24.96.24.48v2.88l.48,1.68v.72l.24.24v.24l.24.24v.48l-.48.48-.24-.24-.48-.96-1.68-.96-.24.24-.72.48-.48.72v1.44l.24.72.24.24.24.72v1.2l.24.24.24.24.24.48.24.48v.24h-.24l-.96-1.44-.24-.24-.96-1.2-.48-.48-.24-.48v-.96l-.24-.24-.24-.48-.24-.24-.24-.48-.24-.48h.24l.24-.48.24-1.44v-.24l-.24-.48v.48l-.48.24-.24-.24v-1.2l-.48.24v-.96l-.24-.48-.72-1.92h-.24v-.24l-.24-.48-.24-.48-.24-.24v-.96l-.24-.24v-.24l-.48-.72-.48-.48v-.24l-.96-.96-.24-.48-.96-.72-1.2.96-.72.72.24.24-.24.48-1.2.24h-.96l-.24.24h-.24l-.24-.24-1.2-.96-.24-.24-.24-.24-.24-.72-.24-.48-.24-.48-.24-.24-.24-.48-.48-.48v-1.44l-.24-1.44-.48-.48v-.96l.48-.24h.48l.24-.24-.24-.48h-.24l.24.48h-.48l-.48.24-.24-.48.24-.48h-.48l-.72.24v.24h.24l.72.24v.96l-.24.48h-1.44l-.24-.24h-.48v.24l1.2.72.48.24h.72l.48.48.24.24v.24l-.24.72v.24l-.24.24-.72.24h-.24Z"/>
</svg>
