<svg id="Bhutan" xmlns="http://www.w3.org/2000/svg" width="612" height="792" viewBox="0 0 612 792">
    <defs>
        <style>.cls-1{fill:#fff;fill-rule:evenodd;}</style>
    </defs>
    <polygon class="cls-1"
             points="530.194 519.57 529.954 519.81 529.714 519.81 529.234 519.81 527.793 520.05 527.073 520.53 526.833 520.77 525.153 520.77 524.913 520.53 524.913 520.29 523.953 520.29 523.953 520.53 523.713 520.77 523.713 521.01 523.473 521.25 523.233 521.49 522.993 521.49 522.753 521.25 522.273 521.25 521.313 521.25 520.833 521.49 519.873 521.73 519.633 521.73 519.393 521.73 517.953 521.97 517.713 522.21 517.473 522.21 516.993 521.97 516.273 521.97 515.793 521.73 515.313 521.49 514.833 521.25 514.593 521.01 514.353 521.25 512.912 521.73 512.912 521.97 512.672 522.21 512.672 522.69 512.432 522.93 512.192 522.93 511.952 523.17 509.792 523.65 509.312 523.65 509.072 523.65 507.872 523.65 507.632 523.65 507.872 523.41 507.872 523.17 507.152 522.93 506.912 522.93 506.672 522.93 506.192 522.93 505.232 522.45 504.992 522.45 504.512 522.69 504.272 522.93 503.792 523.17 503.552 523.17 503.072 523.17 502.832 523.17 502.832 522.93 502.592 522.69 502.592 522.45 502.112 522.21 501.152 521.73 500.672 521.73 500.432 520.77 500.192 520.53 499.952 520.29 499.712 520.05 499.232 520.05 499.232 519.81 499.712 518.85 499.952 518.85 500.432 518.61 500.672 518.37 500.672 518.13 500.672 517.89 500.672 517.65 500.912 517.41 500.912 516.931 500.912 516.691 501.152 516.451 501.392 516.211 501.632 515.971 501.872 515.731 502.112 515.731 502.352 515.491 502.352 515.011 502.592 514.291 502.592 514.051 502.832 513.571 503.072 513.331 503.072 512.851 503.312 512.611 504.272 512.131 504.512 511.651 504.512 511.411 504.992 510.691 504.992 510.451 505.232 510.211 505.952 509.251 506.432 509.011 506.912 508.771 507.152 508.771 507.392 508.771 507.872 508.531 508.112 507.811 508.352 507.571 509.552 506.851 509.792 506.851 511.232 507.091 511.712 507.091 511.952 507.091 512.192 507.091 512.672 507.331 512.912 507.331 513.153 507.331 513.393 507.811 513.153 508.051 513.153 508.291 513.153 508.531 513.153 509.011 513.393 509.011 514.113 509.011 514.593 509.011 514.833 509.011 515.553 508.771 515.793 508.771 516.753 508.771 517.473 509.011 517.713 508.771 518.193 508.771 518.673 509.011 518.913 509.251 519.153 509.491 519.873 509.491 520.113 509.491 520.353 509.251 520.353 509.011 520.593 508.771 521.073 508.291 521.793 508.051 522.033 508.291 522.273 508.531 522.753 508.771 523.233 508.771 523.473 508.771 523.713 508.771 524.673 509.011 524.913 509.011 525.153 509.011 525.393 509.251 525.393 509.491 525.153 509.971 525.153 510.211 525.153 510.691 525.393 510.931 525.393 511.171 525.393 511.411 525.153 511.651 525.153 511.891 524.913 512.131 524.913 512.611 525.153 513.091 525.393 513.331 525.633 513.811 526.593 514.291 527.313 514.051 528.273 513.811 528.753 513.571 529.474 514.531 529.714 514.771 529.954 515.251 529.474 516.451 529.234 516.691 529.234 517.41 529.714 517.65 529.954 517.89 529.954 518.13 530.194 518.37 530.434 518.85 530.194 519.33 530.194 519.57"/>
</svg>
