<svg id="Caspian_Sea" data-name="Caspian Sea" xmlns="http://www.w3.org/2000/svg" width="612" height="792"
     viewBox="0 0 612 792">
    <defs>
        <style>.cls-1{fill:#e1e1e1;fill-rule:evenodd;}</style>
    </defs>
    <polygon class="cls-1"
             points="176.891 359.26 177.131 359.02 178.091 356.86 178.331 356.62 178.571 356.38 178.811 356.38 178.811 356.62 179.051 356.62 179.531 356.62 179.771 356.38 179.531 355.9 179.531 355.66 179.291 355.18 179.291 354.94 180.011 353.74 180.731 353.26 180.971 352.78 181.692 351.34 182.172 350.62 182.172 350.14 182.172 349.66 183.132 348.94 183.372 348.7 183.852 348.46 186.252 348.22 187.212 348.22 188.412 348.46 188.892 348.94 189.132 349.18 189.612 349.42 189.612 349.9 189.852 350.14 190.092 349.42 190.092 349.18 190.092 348.94 190.092 348.7 189.612 347.5 188.412 346.06 188.172 346.06 188.172 345.82 187.692 345.82 187.212 345.82 186.972 345.82 186.732 345.58 186.012 345.34 185.292 344.38 185.052 343.9 185.052 343.66 185.292 343.42 185.532 342.94 185.532 342.7 185.532 342.22 185.292 342.22 185.052 341.98 184.812 341.741 184.332 340.061 184.092 339.581 184.092 339.341 184.092 339.101 184.092 338.141 184.332 337.181 184.332 336.941 184.332 335.021 184.092 335.021 184.092 334.781 183.612 333.821 183.612 333.341 183.612 332.861 183.372 331.901 183.132 331.181 183.132 330.461 182.412 329.261 182.172 329.021 181.932 328.781 181.692 328.781 181.692 328.541 181.451 328.061 181.451 327.101 181.451 326.861 181.692 326.381 181.211 323.742 180.971 323.262 180.731 323.022 180.731 322.782 180.491 321.822 180.491 321.582 180.491 321.102 180.491 320.862 180.491 320.622 180.491 320.382 180.251 320.142 180.011 319.902 179.771 319.662 179.771 319.422 179.771 318.702 180.011 318.462 180.011 318.222 180.251 317.742 180.251 317.262 180.011 316.782 180.011 316.542 179.531 315.822 179.291 315.102 179.531 314.382 180.251 313.182 180.491 313.182 180.731 312.942 181.211 312.702 181.211 312.462 181.211 312.222 180.971 312.222 180.731 311.982 180.971 311.022 181.211 310.782 181.932 309.822 181.932 309.582 182.412 309.102 182.652 308.862 182.892 308.382 183.132 308.142 183.612 307.662 183.852 307.662 184.092 307.422 183.852 306.943 183.852 306.703 183.612 306.943 183.132 306.943 183.132 307.182 182.892 307.422 182.892 307.662 182.652 307.902 181.692 309.102 181.451 309.582 181.211 310.062 180.971 310.302 180.731 310.062 180.971 309.102 180.971 308.862 181.211 309.102 181.932 308.622 182.412 307.902 182.652 307.422 182.412 304.783 182.412 303.583 182.172 302.623 181.932 302.623 181.692 301.903 181.692 301.423 181.692 301.183 181.692 300.943 181.451 300.703 181.451 300.463 180.491 299.743 180.251 299.743 180.011 299.743 179.771 299.263 179.771 299.023 180.011 298.303 180.491 297.583 181.211 296.863 181.932 296.623 182.892 296.383 183.132 296.143 183.612 296.143 183.612 296.623 184.332 295.903 184.812 295.423 186.012 294.463 187.452 293.023 188.412 292.063 188.892 291.583 190.092 290.383 190.092 290.143 190.332 289.663 189.852 289.423 189.612 288.944 189.612 288.224 190.332 288.704 190.332 288.944 190.332 289.663 190.332 290.143 190.332 290.623 190.572 290.623 190.812 290.143 191.052 289.184 190.812 288.944 190.812 288.704 190.812 288.464 191.052 288.464 191.292 288.704 192.252 290.143 192.492 289.663 193.452 289.903 194.652 290.143 194.892 290.383 195.132 290.383 195.372 290.143 196.332 289.903 196.572 289.423 197.292 289.184 198.253 289.184 198.493 289.423 198.493 289.903 198.733 290.863 199.213 290.623 199.453 289.423 199.453 288.944 199.453 288.464 199.213 288.224 199.453 287.984 199.933 287.984 200.173 288.464 201.133 288.464 202.333 287.984 203.293 287.504 203.533 287.744 204.253 288.224 204.013 287.744 204.013 287.504 204.013 287.024 204.013 286.784 204.493 286.304 204.733 286.304 204.973 286.784 205.213 287.024 205.693 286.064 205.453 285.104 205.933 285.584 206.173 286.064 206.893 286.064 207.613 285.824 208.573 286.304 208.813 286.544 209.773 286.304 210.733 285.824 211.453 285.584 211.933 285.344 212.173 285.584 212.893 285.344 213.374 284.864 214.094 284.624 214.574 285.104 215.294 284.864 215.534 284.864 216.014 284.864 216.014 285.104 216.494 285.104 216.974 284.624 217.214 284.624 218.174 284.384 218.414 284.384 219.854 284.384 220.094 284.384 220.094 284.624 220.334 284.624 220.814 285.104 221.774 285.584 222.494 286.064 222.494 286.784 222.494 287.024 222.494 287.264 222.974 287.744 223.454 288.224 224.654 289.423 225.134 289.663 225.374 289.663 225.614 289.903 227.294 288.704 227.534 288.464 228.254 288.704 228.254 288.944 228.734 289.184 229.455 289.663 230.175 289.663 230.655 290.143 231.375 290.863 231.375 291.343 231.135 291.583 231.135 292.063 231.375 292.543 231.615 292.783 231.615 293.023 231.375 293.503 230.415 294.223 229.935 294.223 229.935 293.983 229.695 294.223 229.455 294.703 229.695 294.703 229.935 294.943 229.935 295.903 230.175 296.143 230.175 296.383 229.935 296.623 229.935 297.103 228.734 298.783 228.494 299.503 227.054 300.943 226.814 301.183 226.574 301.423 226.334 301.423 224.894 302.383 224.654 303.103 224.414 303.343 224.414 303.583 225.374 304.543 226.574 305.983 226.814 305.983 227.054 306.223 227.054 306.463 226.094 306.703 224.654 305.743 223.934 305.503 223.214 304.783 222.734 304.303 222.494 304.303 222.254 304.063 219.614 303.583 218.654 303.343 218.414 303.343 217.694 302.623 217.214 302.383 216.974 302.623 216.014 302.863 215.774 302.863 215.534 302.623 215.294 302.623 215.054 302.383 214.814 302.143 213.854 302.863 213.133 303.583 212.893 304.303 212.413 304.543 210.973 304.783 210.493 304.783 210.253 305.023 210.013 305.983 210.253 306.463 210.253 306.703 210.493 306.943 210.733 307.182 210.973 307.422 211.213 307.902 211.453 307.902 211.453 308.142 211.453 309.102 211.453 309.342 211.453 309.582 211.933 309.582 212.173 309.582 212.413 309.582 212.893 310.542 213.133 310.782 212.893 311.022 211.933 310.542 211.693 310.302 210.013 310.302 210.013 310.062 209.533 309.822 209.293 309.582 209.053 309.342 208.813 308.622 208.813 308.382 208.573 308.142 208.093 307.902 207.373 307.662 206.413 307.182 205.453 306.703 204.973 306.463 204.253 306.943 203.773 307.662 203.533 308.862 203.293 309.102 203.533 309.582 204.253 310.062 204.493 310.302 204.973 310.542 205.453 310.782 205.933 311.262 206.413 311.502 206.893 312.222 206.893 312.462 206.893 312.702 206.653 314.382 206.653 316.542 206.653 316.782 206.893 318.222 207.133 318.702 207.373 318.942 207.613 319.662 207.613 320.862 207.373 321.342 207.133 321.822 207.133 322.302 206.653 322.782 206.413 323.022 206.173 323.502 206.173 323.742 206.413 323.742 207.373 323.982 209.053 324.221 209.053 324.461 209.293 326.381 209.293 326.621 209.293 326.861 209.293 327.581 209.533 328.301 210.013 328.541 210.253 328.301 210.973 328.301 211.693 328.541 211.933 328.781 212.653 329.501 212.893 329.501 213.374 329.741 213.614 329.741 213.854 329.981 214.094 330.221 214.334 330.221 214.334 330.701 215.054 331.661 215.054 332.141 214.574 332.861 213.374 334.301 212.893 335.021 212.413 335.261 211.453 336.221 211.213 336.221 210.733 336.941 210.493 337.901 210.733 338.141 210.733 338.381 210.733 338.621 210.733 339.101 210.493 339.341 210.253 339.581 209.773 340.301 209.773 340.541 210.013 340.781 210.493 341.501 210.493 341.98 210.253 342.46 210.013 342.7 210.013 343.18 210.013 343.42 210.253 343.66 210.733 344.14 210.733 344.38 210.973 345.1 210.973 346.06 210.973 346.78 210.733 347.98 210.733 348.22 210.733 348.46 211.213 347.98 211.213 346.78 211.213 346.54 211.213 346.06 211.453 344.86 211.693 344.62 211.933 344.38 212.173 343.9 212.653 343.18 213.133 342.46 212.893 341.98 212.413 341.98 212.893 341.021 214.334 339.341 215.534 338.861 216.014 338.621 216.254 338.861 216.494 339.101 216.974 339.341 217.214 339.341 218.414 339.341 219.614 339.341 219.854 339.341 220.574 339.821 220.814 340.061 221.054 340.301 221.294 340.781 221.294 341.021 221.294 341.501 221.054 342.7 221.054 342.94 221.294 343.66 221.294 344.62 221.054 345.1 220.814 345.58 220.814 346.06 220.814 346.54 220.814 347.02 222.014 348.94 222.254 349.18 222.494 349.18 222.734 349.42 222.734 349.66 222.974 349.9 223.214 350.14 223.454 350.38 224.654 352.3 224.414 353.74 224.174 353.98 223.694 354.46 222.734 354.7 222.494 354.7 221.774 354.7 222.014 353.98 221.054 353.02 220.814 353.02 220.334 353.5 220.334 354.7 220.814 355.18 221.054 355.42 220.334 355.66 219.854 355.66 219.614 355.18 219.614 354.94 219.374 354.7 218.654 354.7 218.654 354.94 218.414 355.18 217.934 355.18 216.734 354.94 215.774 354.94 215.534 354.7 215.534 353.02 215.774 352.78 215.774 352.3 215.774 352.06 215.534 351.82 215.054 352.3 215.054 352.54 214.814 353.02 214.574 353.02 214.334 353.02 214.094 353.02 213.614 352.78 213.614 352.54 213.133 352.3 212.653 352.3 211.693 352.06 211.693 351.82 211.453 351.1 211.453 350.62 211.453 350.14 211.453 348.7 211.213 348.22 210.973 348.7 210.973 348.94 210.493 350.14 209.773 351.1 209.533 351.58 209.293 351.82 209.533 352.06 209.293 352.3 209.053 352.78 208.813 353.02 208.573 353.02 208.093 353.74 207.613 354.22 206.893 355.9 207.133 356.62 206.653 358.3 206.653 358.54 206.893 358.78 206.893 359.02 207.373 360.219 207.373 360.459 207.613 361.659 207.853 361.899 207.853 361.659 207.853 361.419 207.613 360.699 207.613 360.459 207.613 359.979 207.613 359.499 207.853 359.26 208.093 359.499 208.813 359.739 210.253 360.699 210.973 360.459 211.213 360.219 211.453 360.219 212.653 360.939 211.933 361.659 211.693 361.659 210.733 362.619 210.493 363.579 210.493 364.059 211.213 364.059 211.933 364.779 212.413 365.979 210.973 365.979 210.493 365.739 210.253 365.739 210.253 365.259 210.253 365.019 210.013 365.019 209.773 364.779 209.533 364.779 209.053 364.779 208.573 364.779 208.333 364.539 208.813 364.059 209.293 363.579 209.533 363.339 209.293 363.339 208.813 363.819 208.573 364.059 207.613 365.259 207.133 366.219 207.133 367.659 207.133 367.899 207.133 368.139 207.373 367.659 207.373 366.939 207.613 366.219 208.093 366.219 208.573 366.699 208.813 366.699 209.293 367.179 209.533 367.179 210.253 367.179 210.733 367.419 210.493 368.619 210.493 369.579 210.733 370.299 211.213 370.779 211.453 370.779 211.933 371.019 212.413 372.219 212.413 372.459 211.693 373.899 210.973 374.619 210.733 374.859 210.493 375.579 210.253 375.819 210.013 376.299 210.013 376.779 210.013 377.258 210.013 377.498 210.013 377.738 209.533 379.178 209.293 379.418 209.053 380.138 208.813 380.378 208.573 380.858 208.573 381.098 208.093 382.058 208.093 382.298 208.093 382.538 207.853 383.498 207.853 384.458 207.613 385.898 207.373 388.058 207.133 389.498 207.133 391.418 207.133 392.378 206.893 393.098 206.893 393.578 206.653 393.578 205.933 393.578 205.453 393.578 204.013 392.858 203.773 392.618 203.533 392.138 204.013 392.138 204.013 392.378 204.973 392.378 205.453 392.618 206.173 392.618 206.893 392.378 205.693 392.378 205.453 392.378 204.733 392.138 203.053 391.898 202.573 391.658 202.333 391.658 200.653 391.418 198.973 391.418 198.733 391.418 198.253 391.418 197.052 391.418 196.812 391.418 195.372 391.418 194.412 391.178 194.172 391.178 193.932 391.178 192.732 391.178 192.492 391.178 192.012 391.178 191.772 391.178 191.292 391.178 191.052 391.178 190.812 391.178 190.332 391.178 190.092 391.178 190.092 390.938 189.372 390.698 187.452 389.498 186.492 389.018 186.252 388.778 185.772 388.538 185.052 388.058 184.812 387.818 184.572 387.818 184.332 387.578 183.612 387.338 183.132 386.858 183.132 386.618 182.892 386.618 182.892 386.378 182.412 385.898 182.412 385.658 180.971 383.738 180.731 383.498 180.491 383.498 180.011 382.538 179.291 381.338 179.051 381.098 179.051 380.618 178.811 379.418 178.811 379.178 178.811 378.938 179.051 378.458 178.811 378.218 177.131 377.018 176.651 376.779 174.731 375.819 173.771 375.339 173.531 375.339 173.291 375.099 172.571 374.379 172.331 374.139 171.611 373.179 171.371 372.699 171.371 372.219 171.131 371.979 171.131 371.259 171.131 371.019 171.131 369.819 171.371 368.139 171.851 365.499 172.091 365.019 172.811 362.859 173.531 361.179 174.011 359.979 174.251 359.739 174.731 359.26 175.211 358.54 174.971 358.3 175.211 357.58 175.691 357.1 175.931 357.1 176.411 357.34 176.651 358.54 176.651 358.78 176.651 359.02 176.411 359.02 176.171 359.02 175.931 359.02 175.691 359.499 175.931 359.499 176.171 359.499 176.411 359.499 176.891 359.26"/>
</svg>
