<?xml version="1.0" encoding="utf-8"?>
<!-- Generator: Adobe Illustrator 24.3.0, SVG Export Plug-In . SVG Version: 6.00 Build 0)  -->
<svg version="1.1" id="Caucasus_Mountains" xmlns="http://www.w3.org/2000/svg" x="0px"
	 y="0px" viewBox="0 0 612 792" style="enable-background:new 0 0 612 792;" xml:space="preserve">
<style type="text/css">
	.st0{fill-rule:evenodd;clip-rule:evenodd;fill:#FFFFFF;}
</style>
	<polygon class="st0" points="150.7,326.6 151.4,324 151.9,321.3 152.2,320.1 152.2,319.2 150.7,317.7 147.8,318.2 145.9,317.7
	145.2,317 144.7,316.3 144,315.6 143.5,315.6 143,315.3 142.1,314.9 141.4,314.6 141.4,314.9 141.4,315.8 142.1,316.3 143,316.5 
	143.3,316.8 143,317.7 142.8,318.9 142.6,318.7 142.3,318.7 142.1,318.7 141.6,318.7 141.1,318.9 140.9,319.2 141.1,319.4 
	141.1,319.7 141.4,319.7 141.6,319.9 141.8,320.1 141.8,320.4 141.8,320.6 141.8,320.9 141.8,321.1 141.6,321.1 141.6,321.3 
	141.6,321.6 141.8,321.8 141.8,322.1 141.8,322.3 141.6,322.8 141.4,323 141.1,323.3 140.9,323.3 140.6,323.5 140.4,323.5 
	140.2,323.7 139.7,324.2 139.4,324.5 139.4,324.7 139.2,324.9 138.7,325.2 138.5,325.4 138,325.4 138,325.7 137.8,325.7 
	137.8,325.9 137.8,326.1 138,326.4 138,326.6 138,326.9 138.2,327.1 138.7,327.1 138.7,326.9 139,326.6 139.2,326.4 139.7,325.7 
	139.9,325.7 140.4,325.7 140.9,325.7 141.1,325.7 141.4,325.7 141.6,325.9 141.6,326.1 142.1,326.9 142.1,327.1 142.1,327.3 
	141.8,327.6 141.6,327.6 141.1,327.6 140.9,327.8 140.6,328.1 140.6,328.3 140.6,328.5 140.6,328.8 140.4,329 140.2,329 139.9,329 
	139.7,329 139.2,329 138.7,329.5 138.5,329.5 138.2,329.5 137,329.5 136.8,329.5 136.3,329.3 136.1,329.3 135.6,329.3 135.1,329 
	134.9,328.8 134.9,328.5 134.9,328.1 134.6,327.8 134.4,327.1 134.4,326.9 134.2,326.6 133.9,326.6 133.7,326.9 133.4,326.9 
	133,326.9 133,326.4 133,326.1 133.4,325.7 133.4,325.4 133.4,325.2 133.4,324.9 133.2,324.7 133,324.9 132.7,324.9 132.5,324.9 
	132,324.9 131.5,324.9 131.3,324.9 131,325.4 130.8,325.4 130.6,325.4 130.3,325.4 130.1,325.4 129.8,325.2 130.1,324.9 
	130.3,324.9 130.8,324.7 130.8,324.5 131,324.5 131.3,324.5 131.5,324.2 131.5,324 131.3,324 131,324 130.8,324.2 130.6,324.5 
	130.3,324.5 130.1,324.7 129.6,324.7 129.4,324.7 129.1,324.5 128.9,324.5 128.6,324.2 128.4,324 128.4,323.7 128.4,323.5 
	128.2,323.3 127.9,323 127.7,322.8 127.4,322.8 127.2,322.8 127,322.8 126.7,322.8 126.7,323 126.5,323.3 126,323.5 125.8,323.5 
	125.8,323.7 125.5,323.7 125.3,323.7 125,323.7 124.6,323.7 124.1,323.7 123.8,324 122.9,324 122.9,323.7 123.1,323.5 123.4,323.5 
	123.6,323 123.8,322.5 124.1,322.3 124.1,322.1 124.1,321.8 124.1,321.6 123.8,321.6 123.6,321.6 123.4,321.6 123.6,321.3 
	123.6,321.1 124.1,321.1 124.1,320.9 123.8,320.6 123.6,320.6 123.6,320.4 123.8,320.1 124.3,320.1 124.8,320.1 125.5,319.9 
	126.2,319.7 126.7,319.7 127,319.7 127,319.2 126.5,318.9 126.7,318.5 126.7,318.2 126.5,318.2 126.5,318 126.7,317.7 127,317.7 
	127.2,318 127.4,318 127.7,318 127.9,317.7 127.9,317.5 127.9,317.3 128.4,317.3 128.4,317.5 128.6,317.5 128.9,317.5 129.1,317.3 
	129.4,317.3 129.6,317.5 129.8,317.5 130.3,317 130.6,316.8 130.8,316.8 130.8,317 131,317 131.3,317 131.8,316.5 132,316.5 
	132.2,316.3 132.2,316.1 132.5,315.8 132.5,315.3 132.2,315.1 132,314.9 131.8,314.4 131.5,314.1 131.5,313.9 131.3,313.9 
	131.3,313.7 131.3,313.4 131.5,313.2 131.8,313.2 132,313.2 132,313.4 132.2,313.4 132.5,313.4 132.7,313.4 133,313.4 133.2,313.4 
	133.4,313.4 133.7,313.4 134.2,313.2 134.4,312.9 134.4,312.5 134.4,312.2 134.6,312 134.6,311.7 134.9,311.5 135.1,311.3 
	135.4,311 135.6,310.8 135.8,310.8 136.1,310.5 136.3,310.5 136.6,310.1 136.8,309.1 137.5,308.9 138.2,308.6 139.2,308.6 
	140.4,308.9 141.4,309.3 142.6,310.1 143.5,310.8 144.7,311.5 145.4,311.5 145.7,310.8 145.2,309.6 144.2,308.6 143.5,307.9 
	142.3,306.7 141.6,305.3 140.6,303.8 139.2,301.4 138.2,299.7 137.5,298.8 135.8,296.1 135.8,295.9 135.8,295.7 135.6,295.7 
	135.4,295.7 135.1,295.7 135.1,295.4 135.1,295.2 135.1,294.9 135.1,294.7 135.1,294.5 135.1,294.2 134.9,294.2 134.6,294 
	134.4,293.7 134.2,293.7 133.9,293.5 133.7,293.5 133.4,293.5 133.4,293.3 133.4,293 133.2,292.8 133.2,292.5 133,292.5 
	132.7,292.5 132.7,292.3 132.7,292.1 132.5,291.8 132.2,291.8 132.2,292.1 132,292.1 132,291.8 132.2,291.8 132.2,291.6 132,291.3 
	132,291.1 132,290.9 132.2,290.9 132.2,290.6 132.2,290.4 132.2,290.1 132.2,289.9 132,289.7 131.8,289.7 131.8,289.4 131.8,289.2 
	131.5,289.2 131.5,288.9 131.3,288.9 131.3,288.7 131,288.7 130.8,288.2 130.8,288 130.8,287.7 130.8,287.5 130.8,287.3 130.8,287 
	130.8,286.8 130.6,286.8 130.6,286.5 130.3,286.3 130.3,286.1 130.1,285.8 130.1,285.6 130.3,285.6 130.3,285.3 130.1,285.3 
	130.1,285.1 129.8,284.9 129.8,284.6 129.8,284.4 129.8,284.1 129.8,283.9 129.6,283.7 129.6,283.4 129.6,283.2 129.4,282.9 
	129.4,282.7 129.4,282.5 129.4,282.2 129.4,282 129.4,281.7 129.4,281.5 129.4,281.3 129.1,281.3 129.1,281 129.1,280.8 
	128.9,280.5 128.9,280.3 128.9,280.1 128.6,279.8 128.6,279.6 129.1,279.1 129.4,278.9 129.6,278.4 129.8,278.4 130.1,278.4 
	130.3,278.1 130.6,278.1 130.8,278.1 130.8,278.4 130.8,278.6 130.8,278.9 130.6,279.3 130.6,279.6 130.6,279.8 130.8,280.1 
	131,280.1 131.3,280.1 131,279.8 131,279.3 131,279.1 131.3,279.1 131.3,279.3 131.8,279.8 132,280.1 132.5,280.8 133,281.3 
	133.4,281.3 133.7,281.3 134.2,281 134.4,280.5 134.6,280.5 134.9,280.8 134.9,281 134.6,281.3 134.6,281.5 134.4,281.7 
	134.6,281.7 135.4,281.7 135.8,282.2 136.6,282.7 137.8,283.4 138,283.2 138.7,283.2 139,283.2 139,283.4 138.7,283.9 138.7,284.4 
	138.7,284.6 139,284.9 139.4,285.3 139.7,286.1 139.9,286.5 140.4,287 140.6,287 141.4,287.5 142.1,288 142.6,288.5 142.6,288.9 
	142.8,289.9 143.3,290.1 144,289.9 144.5,289.9 144.5,290.4 145.2,290.9 145.7,290.9 146.4,289.9 146.9,288.9 147.4,288.7 
	148.1,288.9 148.6,289.2 149,289.9 149,290.9 149,291.6 149.3,292.1 149.5,292.5 150.3,293 150.7,293.3 151.4,293.5 152.2,294 
	152.6,294.5 153.6,295.7 154.1,297.1 154.6,298.1 154.6,299 155.3,300 156,300.9 156.7,301.7 157,302.4 157,303.1 157,303.8 
	157.2,304.5 157.4,304.5 158.2,304.5 158.6,303.8 159.1,303.6 159.9,303.6 160.1,303.8 160.6,304.3 160.8,305.7 160.8,306.2 
	161.3,306.5 162,306.7 162.7,306.2 163.4,306.2 163.7,306.7 164.2,307.9 164.6,308.4 165.1,309.1 166.1,309.6 166.6,309.8 
	167.3,310.1 167.8,309.6 168,309.3 168.5,309.1 168.7,309.1 169,308.9 169.2,308.6 169.5,308.6 169.7,308.4 169.9,308.4 
	170.4,308.1 170.7,308.1 171.1,307.9 171.4,308.1 171.6,308.1 172.1,308.4 172.3,308.6 172.6,308.6 172.8,308.9 173.1,308.9 
	173.3,309.1 173.5,309.3 173.8,309.6 174,309.6 174.3,309.8 174.5,310.1 174.7,310.3 175,310.5 175.2,310.8 175.5,310.8 175.7,311 
	175.7,311.5 175.7,312 175.7,312.2 175.7,312.5 175.7,312.9 175.7,313.2 175.5,313.4 175.2,313.7 175,313.9 174.7,314.1 
	174.5,314.4 174.3,314.4 174,314.6 173.5,314.6 173.3,314.6 172.8,314.9 172.6,314.9 172.3,314.9 171.9,314.9 171.6,314.6 
	171.4,314.6 171.1,314.4 170.7,314.4 170.4,314.4 170.2,314.4 169.7,314.4 169.5,314.4 169.2,314.6 169,314.9 169,315.1 
	169.2,315.3 169.5,315.6 169.7,315.6 169.9,315.8 170.2,315.8 170.7,315.8 170.9,316.1 171.1,316.1 171.4,316.1 171.9,315.8 
	172.1,315.8 172.3,315.6 172.6,315.6 173.1,315.6 173.1,315.8 173.3,316.1 173.3,316.3 173.3,316.8 173.1,317 172.8,317 
	172.6,317.3 172.3,317.3 172.3,317.7 172.3,318 172.3,318.5 172.1,318.7 171.9,318.9 171.6,318.9 171.6,319.2 171.6,319.7 
	171.6,319.9 171.9,320.1 172.1,320.4 172.3,320.6 172.6,320.9 172.6,321.1 173.1,321.6 173.3,321.6 173.8,321.6 174,321.6 
	174.3,321.3 174.5,320.9 174.7,320.6 175,320.6 175.2,320.6 175.5,320.6 175.7,320.9 175.9,321.1 176.2,321.3 176.2,321.1 
	176.4,320.9 176.4,320.6 176.7,320.6 176.9,320.4 177.1,320.1 177.4,320.1 177.6,320.1 177.9,320.4 177.9,320.9 178.1,321.1 
	178.1,321.3 178.1,321.6 178.1,322.1 178.1,322.3 178.1,322.5 178.1,323 178.1,323.3 178.1,323.5 178.1,324 178.1,324.2 
	178.1,324.5 178.1,324.9 178.1,325.2 178.1,325.4 178.1,325.9 178.3,326.1 178.3,326.4 178.3,326.6 178.6,327.1 178.6,327.3 
	178.6,327.6 178.8,327.8 179.1,328.1 179.3,328.1 179.8,328.3 180,328.3 180.3,328.1 180.5,328.1 180.7,327.8 181,327.6 
	181.2,327.3 181.5,327.1 181.7,327.8 181.7,328.1 182.9,330 183.4,331.4 183.1,331.9 183.1,332.1 182.9,332.4 182.9,332.6 
	182.7,333.1 182.7,333.3 182.4,333.6 182.4,333.8 182.4,334.3 182.2,334.5 182.2,334.8 182.2,335 182.2,335.5 182.2,336 
	182.2,336.5 182.2,336.7 181.7,336.7 181.5,336.5 181.2,336.2 181,336 180.7,336.9 180.7,337.4 180.7,338.1 180.5,338.9 
	179.8,338.9 179.3,338.9 179.1,339.3 178.8,339.3 178.6,339.3 178.1,339.3 177.9,339.1 177.6,339.1 177.4,338.9 176.9,338.9 
	176.7,338.9 176.7,339.1 176.4,339.6 176.4,339.8 175.9,339.8 175.7,339.8 175.2,339.8 175,339.8 174.7,339.6 174.5,339.6 
	174.3,339.3 173.8,339.1 173.5,339.1 173.3,338.9 173.1,338.6 172.8,338.4 172.6,338.1 172.6,337.9 172.3,337.7 172.1,337.4 
	172.3,337.2 172.6,336.9 173.1,336.9 173.3,337.2 173.8,337.2 173.8,336.9 173.8,336.7 173.8,336.2 173.8,336 173.5,335.7 
	173.3,335.5 173.1,335.3 172.8,335 172.6,334.8 172.3,334.8 172.1,334.5 171.9,334.3 171.6,334.3 171.4,334.1 171.1,333.8 
	170.9,333.6 170.7,333.3 170.4,333.1 170.2,332.9 169.9,332.6 169.9,332.4 169.7,332.1 169.5,331.9 169.5,331.7 169.2,331.4 
	169,331.2 169,330.9 168.7,330.7 168.5,330.2 168.5,330 168.3,329.7 168,329.5 168,329.3 167.8,329 167.5,328.8 167.3,328.5 
	167.1,328.5 166.8,328.3 166.6,328.1 166.3,327.8 165.9,327.8 165.6,327.6 165.4,327.3 165.1,327.1 165.1,326.9 164.9,326.9 
	164.6,326.6 164.4,326.4 164.2,326.1 164.2,325.7 163.9,325.4 163.7,325.2 163.7,324.9 163.4,324.7 163.2,324.5 163.2,324.2 
	163,323.7 162.7,323.5 162.5,323.3 162.3,323.3 162,323 162,322.8 161.8,322.5 161.5,322.3 161.3,322.1 161.1,321.8 160.8,321.8 
	160.6,321.6 160.3,321.3 160.1,321.1 159.9,320.9 159.6,320.9 159.4,320.6 159.1,320.4 158.9,320.1 158.4,320.1 158.2,319.9 
	157.9,319.7 157.7,319.7 157.4,319.7 157,319.4 156.7,319.4 156.5,319.4 156.3,319.7 155.8,319.7 155.5,319.7 155.3,319.9 
	155.1,320.1 154.8,320.4 154.6,320.6 154.3,320.9 154.1,321.1 154.1,321.3 154.1,321.8 153.9,322.3 153.9,322.5 154.1,322.8 
	154.1,323.3 154.3,323.5 154.3,323.7 154.6,324 154.8,324.2 155.1,324.5 155.3,324.7 155.5,324.9 155.8,325.2 155.8,325.4 
	156,325.7 156.3,325.9 156.3,326.1 156.5,326.4 156.7,326.6 156.7,326.9 157,327.3 157,327.6 157.2,327.8 157.4,328.1 157.7,328.3 
	157.9,328.5 158.2,328.5 158.4,328.8 158.6,329 158.9,329.3 158.9,329.5 159.1,329.7 159.4,330 159.4,330.2 159.6,330.7 
	159.6,330.9 159.9,331.2 159.9,331.4 160.1,331.7 160.3,331.9 160.3,332.4 160.6,332.6 160.6,332.9 160.6,333.1 160.8,333.6 
	160.8,334.1 160.6,334.3 160.6,334.8 160.6,335 160.3,335.3 160.8,335.5 161.1,335.7 161.5,335.7 161.8,336 162,336.2 162.3,336.5 
	162.5,336.7 162.5,336.9 162.7,337.2 163,337.4 163.2,337.7 163.4,337.7 163.7,337.9 163.9,338.4 163.9,338.6 163.9,338.9 
	163.9,339.3 163.9,339.6 163.9,339.8 163.9,340.3 163.9,340.5 163.9,340.8 164.2,341.3 164.2,341.5 164.2,341.7 164.4,342 
	164.4,342.2 164.6,342.7 164.6,342.9 164.6,343.2 164.6,343.7 164.4,343.9 164.4,344.1 164.4,344.4 164.2,344.9 164.2,345.1 
	163.9,345.3 163.9,345.6 163.7,346.1 163.7,346.3 163.4,346.5 163.4,346.8 163.2,347 163.2,347.5 163.2,347.7 163.2,348 
	163.2,348.5 163,348.5 162.7,348.2 162.3,348.2 162,348.2 161.5,348.2 161.3,348 161.3,347.7 161.1,347.5 160.8,347.3 160.3,347.3 
	160.1,347.5 159.9,347.7 159.6,348 159.6,348.2 159.6,348.5 159.6,348.9 159.6,349.2 159.6,349.4 159.6,349.7 159.6,350.1 
	159.9,350.6 159.9,351.1 159.4,351.3 158.2,352.1 157.4,352.5 157,352.5 156.7,352.5 156.3,352.3 156,352.1 154.1,351.6 
	154.3,351.1 154.3,350.9 154.1,350.6 154.1,350.4 153.9,350.1 153.6,349.7 153.6,349.4 153.6,348.9 153.6,348.7 153.6,348.5 
	153.6,348 153.6,347.7 153.6,347.5 153.6,347 153.6,346.8 153.6,346.5 153.4,346.1 153.4,345.6 153.4,345.3 153.4,344.6 
	153.6,344.1 153.6,343.9 153.6,343.4 153.4,343.2 153.4,342.9 153.1,342.7 152.9,342.5 152.6,342.5 152.2,342.2 151.9,342.2 
	151.7,342 151.4,341.7 151.2,341.5 151,341.3 151.2,341 151.4,340.8 151.7,340.5 151.9,340.5 152.2,340.5 152.4,340.5 152.9,340.5 
	153.1,340.8 153.6,340.8 153.9,340.8 154.1,340.5 154.6,340.5 154.6,340.1 154.6,339.6 154.6,339.3 154.3,339.1 154.1,338.9 
	153.9,338.6 153.6,338.4 153.4,338.4 153.1,338.1 152.9,338.1 152.4,337.9 152.2,337.7 151.9,337.7 151.4,337.2 151,336.7 
	150.7,336.5 150.5,336 150.3,335.7 150,335.5 150,335 150,334.8 150,334.5 150.3,334.1 150.3,333.8 150.3,333.1 150.5,332.9 
	150.7,332.9 151,332.9 151.2,332.9 151.4,332.9 151.4,333.1 151.7,333.3 151.7,333.6 151.7,334.3 151.9,334.8 151.9,335.5 
	152.2,336 152.9,336.5 153.1,336.5 153.4,336.7 153.6,336.7 153.9,336.9 154.1,337.2 154.3,337.2 154.6,337.4 154.8,337.7 
	155.3,337.7 155.5,337.9 155.8,337.9 156,337.9 156.3,337.7 156.5,337.4 156.5,337.2 156.5,336.7 156.3,336.5 156.3,336.2 156,336 
	155.8,335.7 155.8,335.5 155.5,335.3 155.3,335 155.1,334.5 155.1,334.3 154.8,334.1 154.6,333.8 154.6,333.6 154.3,333.3 
	154.3,332.9 154.1,332.6 154.1,332.4 153.9,332.1 153.6,331.9 153.4,331.7 153.1,331.4 152.9,331.4 152.6,331.2 "/>
</svg>
