<svg id="Chechnya" xmlns="http://www.w3.org/2000/svg" width="612" height="792" viewBox="0 0 612 792">
    <defs>
        <style>.cls-1{fill:#fff;fill-rule:evenodd;}</style>
    </defs>
    <polygon class="cls-1"
             points="171.371 300.943 171.611 301.183 171.611 300.943 171.851 300.943 172.091 300.943 172.331 301.183 172.571 301.663 173.291 302.143 173.291 302.383 173.051 302.383 173.051 302.623 172.811 302.623 172.811 303.103 173.051 303.343 173.051 303.103 173.291 303.103 173.291 302.863 173.531 303.103 174.011 303.343 174.251 303.343 174.491 303.103 174.491 302.863 174.731 302.623 175.211 302.623 175.451 302.623 175.451 302.383 175.691 302.383 176.171 302.623 176.171 302.863 176.171 303.103 175.931 303.583 175.931 303.823 176.171 304.063 176.411 304.063 176.651 304.063 176.651 304.303 176.891 304.543 176.651 304.783 176.891 305.023 177.131 305.023 177.131 305.263 176.891 305.263 176.651 305.263 176.411 305.263 176.171 305.263 175.691 305.743 175.451 305.743 175.211 305.743 175.211 305.983 174.731 306.463 174.491 306.703 174.491 306.943 174.491 307.182 174.011 307.422 173.771 307.422 173.771 307.662 173.291 307.662 173.291 307.902 173.051 307.902 173.051 308.142 173.291 308.142 173.291 308.382 173.291 308.622 173.051 308.622 173.291 308.862 173.291 309.102 173.291 309.342 173.291 309.582 172.811 310.062 173.051 310.302 173.051 310.542 173.051 310.782 172.811 310.782 172.571 311.022 172.331 311.022 172.331 311.262 172.571 311.502 172.571 311.742 173.051 311.742 173.291 311.742 173.291 311.982 173.051 311.982 173.051 312.222 172.811 312.222 172.571 312.222 172.571 312.462 172.571 312.702 172.571 312.942 172.811 312.942 172.811 313.182 172.571 313.182 172.331 313.182 172.091 313.182 171.851 313.422 171.611 313.422 171.371 313.422 171.131 313.182 171.131 312.942 170.891 312.942 170.891 313.182 170.651 313.182 170.411 313.182 170.411 312.942 170.411 312.702 170.171 312.462 170.171 312.702 169.931 312.702 169.691 312.942 169.451 312.942 169.451 313.182 169.451 313.422 169.451 313.662 169.451 313.902 169.451 314.142 169.211 314.142 169.211 314.382 168.971 314.382 168.731 314.142 168.491 314.142 168.251 314.142 168.251 314.382 168.011 314.622 167.771 314.862 167.771 315.102 167.531 315.102 167.531 314.862 167.531 314.622 167.291 314.622 167.291 314.862 167.291 315.102 167.051 315.102 166.331 315.342 166.091 315.582 165.85 315.582 165.61 315.582 165.37 315.582 165.13 315.102 164.65 314.622 164.17 314.142 163.69 314.142 163.21 313.902 162.97 313.902 162.73 313.662 162.73 313.422 162.73 313.182 162.73 312.942 162.25 311.982 162.25 311.502 162.01 311.502 162.01 311.262 161.77 311.502 161.77 311.262 162.73 310.782 162.73 310.542 162.97 310.542 162.97 310.302 162.73 310.062 162.97 309.822 162.97 309.582 163.21 309.102 163.45 309.102 163.45 308.862 163.21 308.862 163.21 308.622 163.45 308.622 163.45 308.382 163.45 308.142 163.69 307.902 163.93 307.662 163.93 307.422 164.17 307.422 164.17 307.182 164.17 306.943 164.17 306.703 164.17 306.463 164.17 306.223 164.41 305.263 164.41 305.023 164.41 304.783 164.65 304.543 164.65 304.063 164.89 304.063 164.89 303.823 164.89 303.583 164.41 302.623 164.17 302.383 163.93 302.383 163.93 302.143 163.93 301.903 164.17 301.183 164.41 301.423 164.89 301.423 165.13 301.423 165.37 301.183 165.61 301.183 165.61 300.703 165.85 300.703 166.091 300.703 166.091 300.943 166.091 300.703 166.331 300.703 166.571 299.983 166.571 299.743 166.571 299.503 166.811 299.263 167.051 299.023 167.771 299.503 167.771 299.743 167.531 299.983 167.531 300.223 167.771 300.223 168.971 300.943 169.211 300.943 169.211 300.703 169.451 299.983 169.691 299.983 169.691 299.743 170.171 299.743 170.411 299.983 170.411 300.223 171.131 300.463 171.131 300.703 171.131 300.943 171.371 300.943"/>
</svg>
