<svg id="Cyprus" xmlns="http://www.w3.org/2000/svg" width="612" height="792" viewBox="0 0 612 792">
    <defs>
        <style>.cls-1{fill:#fff;fill-rule:evenodd;}</style>
    </defs>
    <polygon class="cls-1"
             points="43.443 345.34 42.963 345.34 42.723 344.86 42.483 344.86 42.243 344.86 42.003 344.86 41.523 344.86 40.323 344.14 40.083 343.9 39.603 343.66 39.362 343.66 39.122 343.66 38.882 343.18 37.922 342.22 37.922 341.98 37.682 341.261 37.682 339.821 37.922 339.341 38.162 337.901 38.402 337.661 38.402 337.421 38.642 337.421 38.642 337.661 38.642 337.901 38.642 338.141 38.882 338.141 38.882 338.381 39.122 338.621 39.362 338.621 39.603 338.621 40.083 338.381 40.323 338.141 40.563 338.141 40.803 337.901 41.283 338.141 41.523 338.141 42.003 338.621 42.243 338.861 42.483 339.341 42.723 339.341 42.963 339.341 43.203 339.341 43.443 339.341 43.923 338.621 44.163 338.141 44.883 338.141 46.563 339.341 47.043 339.821 47.283 340.061 47.523 340.301 48.003 340.301 49.203 340.781 49.203 341.021 49.923 340.781 50.163 341.021 50.403 341.021 50.643 341.021 50.883 341.261 51.123 341.261 51.843 341.501 54.723 341.501 54.963 341.501 55.203 341.501 55.444 341.501 55.684 341.501 57.124 341.501 57.364 341.501 57.124 341.98 55.203 342.22 54.243 342.46 54.003 342.46 53.763 342.46 52.803 342.46 51.123 342.7 50.883 342.7 50.643 342.94 50.403 343.18 50.163 343.42 50.163 343.66 50.163 344.86 50.403 345.58 50.403 345.82 50.403 346.06 50.403 346.3 50.403 346.54 50.163 346.3 50.163 346.06 49.683 345.82 49.443 345.82 49.203 345.58 49.203 345.82 48.963 345.82 48.723 345.82 48.723 345.58 48.723 345.34 48.483 345.34 48.483 345.1 48.243 345.1 47.763 344.86 47.523 344.62 47.283 344.86 47.043 345.1 46.803 345.34 46.803 345.58 46.323 345.82 45.603 345.82 44.163 345.58 43.923 345.58 43.443 345.34"/>
</svg>
