<svg id="Deccan_Plateau" data-name="Deccan Plateau" xmlns="http://www.w3.org/2000/svg" width="612" height="792"
     viewBox="0 0 612 792">
    <defs>
        <style>.cls-1{fill:#fff;fill-rule:evenodd;}</style>
    </defs>
    <polygon class="cls-1"
             points="380.424 671.722 380.424 671.482 380.424 671.242 380.664 671.002 380.904 670.282 380.904 670.042 380.904 669.802 380.904 668.362 380.664 668.122 380.664 667.882 380.424 667.402 380.184 667.162 379.944 666.922 379.464 666.442 379.224 666.442 378.984 666.202 378.744 666.202 378.504 666.202 378.264 666.202 378.024 666.202 377.784 666.202 377.544 666.202 377.304 666.202 377.064 666.202 376.824 665.962 376.824 665.722 376.824 665.482 377.064 665.002 377.064 664.762 377.304 664.522 377.304 664.282 377.304 664.042 377.304 663.802 377.304 663.562 377.304 663.322 377.064 663.082 376.584 662.602 376.344 662.362 376.344 662.122 376.344 661.642 376.344 661.402 376.104 661.162 376.104 660.922 375.384 660.442 375.384 660.202 375.144 659.962 374.664 659.722 373.944 659.242 373.944 659.002 374.184 658.762 374.184 658.522 374.424 657.802 374.424 657.562 374.424 657.083 374.664 656.363 374.664 656.123 374.424 655.883 374.424 655.403 374.184 654.923 373.944 654.683 373.944 654.443 373.944 653.963 373.944 653.723 373.944 653.483 374.184 653.003 374.184 652.763 374.424 652.523 374.664 652.523 374.904 652.283 375.144 652.523 375.384 652.523 376.104 653.003 376.344 653.243 376.344 653.483 376.584 653.963 376.824 654.203 376.824 654.443 376.824 654.683 377.064 655.163 377.304 655.643 377.544 656.123 377.544 656.363 378.024 657.083 378.024 657.802 378.264 658.042 378.264 658.522 378.504 658.762 378.504 659.002 378.984 659.482 378.984 659.722 379.224 659.962 379.464 660.202 379.704 660.442 379.944 661.162 380.184 661.402 380.424 661.882 380.424 662.122 380.664 662.602 381.144 663.562 381.144 663.802 381.384 664.282 381.384 664.762 381.384 665.002 381.384 665.242 381.624 665.722 381.624 665.962 382.104 666.442 382.104 666.922 382.104 667.162 382.104 667.402 382.344 667.402 382.584 667.642 382.824 667.402 383.064 667.162 383.304 666.922 383.544 666.922 383.784 666.682 383.784 666.442 384.024 666.202 384.264 666.202 384.744 665.962 384.984 665.722 385.224 665.722 385.704 665.482 385.944 665.482 386.184 665.242 386.424 665.002 387.145 664.762 387.385 664.762 387.625 664.762 387.865 664.762 388.345 665.002 388.585 665.242 389.305 665.482 389.545 665.722 389.785 665.962 390.025 665.962 390.265 665.962 390.505 665.962 391.225 666.202 391.705 666.442 391.945 666.202 392.425 666.202 392.665 665.962 392.905 665.962 393.145 665.962 393.865 665.962 394.105 665.962 394.345 665.962 394.585 665.962 395.065 665.722 396.025 665.242 396.745 665.482 396.985 665.482 397.225 665.722 397.945 666.442 398.425 666.682 398.665 666.922 398.665 667.162 399.385 668.122 399.625 668.362 399.865 668.602 400.105 668.602 400.105 668.842 400.345 669.082 400.585 669.562 400.585 669.802 400.825 670.042 400.825 670.282 401.305 670.522 401.545 670.762 402.746 671.002 403.226 671.242 403.466 671.242 403.706 671.002 403.706 670.762 403.706 670.522 403.946 670.042 403.946 669.802 404.186 669.562 404.426 669.562 404.906 668.842 405.386 668.602 405.626 668.602 405.866 668.602 406.346 668.362 406.586 668.362 407.066 668.122 407.786 668.122 408.506 667.882 408.746 667.642 408.986 667.642 409.226 667.402 409.706 667.402 410.186 667.402 410.426 667.402 410.666 667.642 410.906 667.882 410.906 668.122 410.906 668.602 411.146 668.842 411.146 669.082 411.386 669.322 411.386 669.562 411.386 669.802 411.386 670.042 411.386 670.282 411.386 670.522 411.386 671.002 411.386 671.242 411.146 671.722 410.666 672.442 410.426 673.162 409.946 674.122 409.946 674.602 409.706 675.081 409.466 675.321 409.466 675.561 409.226 675.801 408.986 676.041 408.986 676.281 408.746 676.521 408.506 677.001 408.506 677.241 408.266 677.481 408.026 677.961 407.546 678.681 407.546 678.921 407.546 679.161 407.306 679.401 407.306 679.641 407.066 679.881 406.826 680.361 406.586 680.601 406.586 680.841 406.346 680.841 405.866 681.561 405.386 681.801 404.906 682.041 404.666 682.521 404.666 682.761 405.146 683.961 405.386 684.441 405.146 684.681 404.906 684.921 404.426 684.921 403.466 685.161 402.746 685.401 402.746 685.881 402.986 686.121 402.746 686.601 402.986 686.841 402.986 687.081 403.226 687.321 403.226 687.561 403.466 687.801 403.466 688.041 403.466 688.281 403.466 688.521 403.226 689.241 402.746 689.961 402.505 690.441 402.265 690.921 402.025 691.401 401.785 692.121 401.785 692.36 401.785 692.6 401.785 692.84 401.785 693.32 401.785 693.56 401.545 694.04 401.305 694.52 400.825 695 400.825 695.24 400.585 696.2 400.345 696.68 400.105 697.16 399.865 697.4 399.865 697.64 399.625 697.64 399.385 697.88 399.385 698.12 399.145 698.12 398.665 698.6 398.425 698.6 398.185 698.6 397.945 698.84 397.705 699.08 397.465 699.56 397.225 699.56 396.985 699.8 396.985 700.04 396.745 700.52 396.745 700.76 396.745 701 396.745 703.4 396.745 703.64 396.505 703.88 396.745 704.36 396.745 704.84 396.505 705.32 396.265 706.04 396.265 706.28 396.265 706.76 396.025 707.24 396.025 707.96 396.025 708.2 396.025 708.44 395.785 709.16 395.785 709.4 395.545 709.64 395.305 709.88 395.065 710.359 394.825 710.359 394.585 710.599 394.345 710.839 393.865 710.839 393.625 710.839 393.145 711.079 392.905 711.319 392.905 711.079 392.665 710.839 391.945 710.359 391.705 710.119 391.465 709.88 391.225 709.4 390.745 708.92 390.745 708.44 390.745 708.2 390.505 707.96 390.505 707.72 390.505 707.48 390.505 707 390.505 706.76 390.505 706.52 390.745 706.28 390.745 705.56 390.985 705.32 390.985 705.08 390.985 704.84 390.985 704.6 390.985 704.12 391.225 703.64 391.465 703.16 391.945 702.2 392.185 701.72 392.185 701.48 392.185 701 392.185 700.52 392.425 700.28 392.425 700.04 392.665 699.32 392.905 698.6 392.905 698.36 392.905 698.12 392.905 697.88 392.905 697.4 393.145 696.92 392.905 695.96 392.905 695.72 392.905 695.48 392.905 695.24 392.425 694.28 392.425 694.04 392.185 693.56 391.945 693.32 391.945 693.08 391.705 693.08 391.465 693.08 391.465 692.84 391.225 692.84 390.505 692.6 390.265 692.36 390.025 692.121 389.305 691.881 389.065 691.881 388.825 691.641 388.585 691.401 388.345 690.921 387.865 690.681 387.385 689.481 387.145 689.241 387.145 689.001 387.145 688.521 387.145 688.281 387.145 687.321 387.385 686.361 387.625 685.401 387.625 685.161 387.865 684.681 388.105 684.201 388.345 683.961 388.585 683.481 389.305 683.001 389.545 682.761 390.505 682.041 390.505 681.801 390.985 681.081 390.985 680.841 390.985 680.361 391.225 680.121 391.225 679.881 391.225 679.401 391.225 679.161 391.225 678.921 390.985 678.921 390.985 678.681 390.745 678.441 390.505 678.441 390.265 678.201 389.785 678.201 388.825 677.721 388.105 677.481 387.865 677.481 387.625 677.481 387.385 677.721 386.905 677.721 386.424 677.961 386.184 677.961 385.944 677.961 385.704 678.201 385.224 678.201 384.984 678.441 384.744 678.441 384.264 678.681 384.024 678.921 383.784 678.921 383.544 678.681 383.304 678.681 383.304 678.441 382.824 677.721 382.344 677.721 381.624 677.241 381.624 677.001 381.384 676.521 381.144 676.521 380.904 676.521 380.904 676.281 380.664 676.041 380.664 675.801 380.424 675.321 380.424 675.081 380.184 675.081 380.184 674.841 379.944 674.602 380.184 674.122 380.184 673.882 380.424 673.642 380.664 673.402 380.664 673.162 380.904 672.922 380.664 672.682 380.664 672.442 380.424 671.962 380.424 671.722"/>
    <polygon class="cls-1"
             points="418.346 655.163 418.106 655.403 418.106 655.643 418.106 655.883 418.346 656.363 418.346 656.603 418.346 656.843 418.587 657.083 418.827 657.322 418.827 657.802 419.067 658.042 419.067 658.282 419.067 658.522 419.307 658.522 419.547 658.762 419.547 659.002 419.547 659.242 419.547 659.482 419.307 659.722 419.307 659.962 419.307 660.202 419.307 660.682 419.547 660.922 419.547 661.162 420.267 661.882 420.267 662.122 420.507 662.362 420.507 663.082 420.507 663.322 420.507 663.562 420.747 663.802 420.747 664.042 420.507 664.762 420.507 665.002 420.747 665.962 420.747 666.202 420.987 666.202 421.227 666.442 421.227 666.682 421.227 666.922 420.987 666.922 420.987 667.162 420.987 667.642 420.987 667.882 420.987 668.362 420.747 668.362 420.747 668.602 420.747 668.842 420.747 669.082 420.987 669.322 420.747 669.562 420.507 670.282 420.267 670.762 420.267 671.002 420.267 671.242 420.267 671.482 420.027 671.482 420.267 671.482 420.027 671.722 420.027 671.962 420.027 672.202 419.787 672.442 419.787 672.682 419.547 672.682 419.787 672.922 419.547 672.922 419.547 673.162 419.307 673.162 419.067 673.642 418.827 673.882 418.587 674.122 418.587 674.362 418.346 674.602 418.106 674.602 418.106 674.841 417.866 674.841 418.106 674.841 418.346 674.602 418.346 674.841 417.626 675.561 417.626 675.801 417.386 675.801 417.386 676.041 417.146 676.521 416.906 676.761 416.906 677.001 416.666 677.481 416.666 677.721 416.426 677.961 416.426 678.201 416.426 678.441 416.426 678.681 416.186 678.681 416.186 678.921 416.186 679.161 416.186 679.401 415.946 679.401 416.186 679.401 416.186 679.641 415.946 679.641 416.186 679.641 415.946 679.881 415.946 680.121 415.706 680.361 415.946 680.121 415.946 680.361 415.946 680.601 415.706 680.841 415.706 681.081 415.706 681.561 415.706 681.801 415.946 682.281 415.946 682.521 415.946 682.761 416.186 682.761 416.186 682.521 416.426 682.761 416.426 683.001 416.426 683.241 416.426 683.481 416.186 683.481 415.946 683.481 415.946 683.241 415.706 683.241 415.706 683.481 415.466 683.481 415.226 683.481 415.226 683.721 414.986 683.961 414.746 683.961 414.746 684.201 414.986 684.201 415.466 683.721 415.706 683.721 415.706 683.481 415.946 683.481 416.426 683.721 416.666 683.721 416.426 683.721 416.666 683.961 416.666 684.201 416.666 684.441 416.666 684.681 416.426 684.681 416.666 684.921 416.666 685.161 416.666 685.401 416.666 685.641 416.666 686.121 416.666 686.361 416.666 687.081 416.666 687.321 416.666 687.561 416.666 688.281 416.666 688.521 416.666 689.001 416.666 689.241 416.666 689.481 416.666 689.721 416.666 689.961 416.666 690.201 416.666 690.441 416.666 690.681 416.666 690.921 416.666 691.161 416.666 691.401 416.666 691.881 416.906 691.881 416.906 692.121 416.906 692.36 416.906 693.08 416.906 693.56 416.906 693.8 416.426 694.04 415.466 694.04 415.226 694.04 414.746 693.8 414.506 693.8 414.266 693.8 413.786 693.56 413.306 693.32 413.066 693.32 412.826 693.56 412.346 693.8 411.866 693.8 411.866 694.04 411.626 694.04 411.386 694.28 411.146 694.28 410.906 694.52 410.666 694.52 410.666 694.76 410.426 694.76 410.666 694.76 410.666 695 410.426 695.24 410.186 695.24 410.186 695.48 410.186 695.72 410.186 695.96 410.186 696.2 410.186 696.44 410.426 696.44 410.426 696.68 410.426 696.92 410.186 697.16 409.706 697.64 409.466 697.64 409.226 697.88 408.986 698.12 408.986 698.36 408.986 698.6 408.746 698.6 408.506 698.84 408.506 699.08 408.506 699.32 408.266 699.32 408.026 699.32 408.026 699.56 407.546 700.04 407.546 700.28 407.306 700.28 407.546 700.52 407.306 700.52 407.306 700.76 407.066 701 406.826 701.24 406.826 701.48 406.826 701.72 406.346 701.72 406.106 701.72 405.866 701.72 405.626 701.72 405.386 701.24 405.386 701 405.386 700.52 405.626 699.08 405.626 698.84 405.626 698.6 405.626 698.36 405.626 698.12 405.866 697.4 405.866 697.16 406.106 696.68 406.106 696.44 406.346 696.44 406.346 696.2 406.346 695.72 406.586 695.24 406.586 695 406.586 694.52 406.826 694.28 407.066 694.28 407.306 694.04 407.546 694.04 407.786 694.04 408.266 693.8 408.266 693.56 408.506 693.56 408.746 693.32 408.746 693.08 408.746 692.84 408.986 692.36 409.226 691.641 409.706 690.441 409.706 690.201 409.946 689.721 410.186 689.481 410.666 688.761 410.906 688.281 410.906 688.041 410.906 687.321 410.906 687.081 410.666 686.601 410.666 686.361 410.666 686.121 410.666 685.881 410.906 685.401 411.386 684.681 411.386 684.441 411.626 683.961 411.866 683.481 412.346 683.001 412.826 682.041 413.066 681.561 413.306 681.321 413.306 680.841 413.546 680.601 413.546 680.361 413.546 680.121 413.786 679.401 414.026 678.921 414.266 676.761 414.266 676.521 414.266 676.281 414.266 675.321 414.266 674.841 414.266 674.602 414.266 674.362 414.266 673.882 414.266 673.642 414.506 673.162 414.506 672.922 414.506 672.442 414.506 671.722 414.506 671.242 414.506 671.002 414.506 670.522 414.506 670.282 414.266 669.802 414.266 669.562 414.026 669.082 413.786 668.362 413.546 667.642 413.306 667.162 413.306 666.922 413.306 666.682 413.546 665.722 413.546 665.242 413.786 664.762 413.786 664.522 414.026 664.042 414.266 663.562 414.506 663.562 414.506 663.322 414.986 661.882 414.986 661.402 414.986 661.162 415.226 660.682 415.226 660.202 415.226 659.482 415.466 659.242 415.466 658.762 415.706 658.522 415.706 658.042 415.706 657.802 415.946 657.322 415.946 657.083 415.946 656.843 416.666 656.123 416.666 655.883 416.906 655.643 417.386 655.163 417.626 654.923 417.866 654.923 418.106 654.923 418.346 655.163"/>
    <path class="cls-1"
          d="M371.0635,584.6066h.72l.48.24h.48l.96-.24.24.24.96.24h.24l.96-.24.24.24h.72l.48.24h.48l.24.24.24.24v.96l-.24.24v.24l-.24.24h-.24l-.72.72-.24.24h-.48l-.24.24-.96.24h-.24l-.24.24-.48.24h-.72l-.72-.24h-2.16l-.48-.24h-.48l-.24.24h-1.2l-.48-.24h-1.2l-.72.24h-.24l-.24.24-.24.48-.24.72-.24.24-.24.24v.48l-.24.48-.24.24v1.68l.24.24.24.24.48.24.48.24h.24l.24.24h.24l.24.24h.72v.24h.72l.48.24.72.24.72.24.72.24.24.24h.96l1.44.24h.24l.48.48.48.24.24.24,1.2.24.48.24h.24l.72.24h1.44l.72.24h.24l.48.24.24.24h.24l.24.24.24.24h.24l.48.48.48.24.48.24,1.2.72.24.24.24.24.24.48.24.24.24.24.24.24v.24l.24.48.24.48v.72l.24.72.24.24v1.2l.24.24.24.24.24,1.2.24.48v.24l.48.48v.24h.24l.48.48.24.24.48.48v.24l.24.24.48.48.48.24v.24l.48.72v.24l.24.24.24.24v.72l-.24.96v2.4l.24.24v.24l-.24.24v.96l-.24.48-.24.24v2.16l.24.24v.48l.24.48.24.24v.96l.24.48v1.92h.24v.96l.24.24.24.24.72.72.24.24.24.48.24.24.48.24.48.48.48.48h.24v.24h.48l1.92.24,1.68.48.48.24v1.2l-.24.48h-.24v.24l-.24.24-.24.24-1.2.48-.72.72-.24.24h-.24l-.24.24v.24l-.48.72v.48l-.24.24v2.64l.24.72v.48l.24.24v.48l.24.24-.24.24v.48h-.24l-.24.24v.24l-.24.24-.24.48v.24l.24.24.48.24.72.48h.24l.24.24h.72l.24.24h.24l.72.24.72.24h.48l.48.24h.72l.48.24.24.24h.24l.24.24h.24l.24.48.24.24v.24l.48.24.48.24.48.48.24.24.24.24.48.24h.24l.48.24.24.24.48.24.24.24h.24l.24.24h1.2l.24-.24h1.44l.24-.24h.24l.24-.24.24-.24.24-.24v-.48l-.24-.24v-.24l-.24-.48-.48-.48v-.24l-.24-.24h-.24v-.24l-.48-.96v-.24l-.48-.48v-.24l-.24-.24v-.48l.24-.96v-.48l.24-.72.24-.48v-.24l.24-.48.24-.24h.24l.24-.48v-.24l.48-.24h.24l.24-.24v-.24l-.24-.24v-.48l-.24-.24-.48-.24v-.24l-.24-.24v-.24l-.24-.24v-.72l.24-.24.24-.48.24-.48v-.48l.24-.24h.24l.24-.48.24-.24.24-.24,1.44-.96.48-.24.24-.24.24-.24.24-.24h.24l.24-.24v-.48l.24-.24.24-.24.24-.24.24-.24.24-.48v-.24l.48-.48.48-.24.24-.48.24-.24.24-.24.24-.24.24-.72.24-.24.24-.24h.24l.24.24.24.24v1.68l.24.24.24.24.24.24.24.24.72.24h.24l.48.24h.96l.48.24.72.48.48.24v.24l.24.24.24.48.72.72.24.24.96.72,2.4,1.44h-.72l-.48.24-.72.48-.24.24-.24.48-.24.24-.24.24h-.24l-.24-.24-.24-.24-.24-.24h-1.2v-.24l-.24-.48h-.48l-.24.24-.24.24h-.24l-.72.48h-.24l-.24.24-.24.24h-.24l-.24.24-.24.24h-.48l-.24-.24h-.24l-.24.24-.24.24v.96l-.24.48v.48l-.24.48v.24l-.24.24.24.24h.24l.24.48h-.24l-.24.48v.24l-.24.24v.48l.24.24v.24h-.24v.48l-.24.24v.96l.24.96v1.2h.24l-.24.24h.24v.96l-.48.48v.24l-.24.48v.24l.24.48v.48l-.24.48v.48l-.24.48v1.2l-.24-.24h-.48l-.24.24-.48.48-.24.24v.24l-.72.72v.48l-.24.48v.72l-.24.24v.48l-.24.24v1.2l-.24.48v.72l-.48,1.44v.24h-.24l-.24.48-.24.48v.24l-.24.48v.48l-.24.96v.48l.24.48.24.72.24.72.24.48v.24l.24.48v2.88l-.24.48v3.12l-.24,2.16-.24.48-.24.72v.48l-.24.24v.48l-.24.24-.24.48-.48.96-.48.48-.24.48-.24.48v.24l-.48.72-.24.48v.72l.24.48v1.2l-.24.48-.48.72-.24.24-.24.48v.24l-.48,1.2-.24.72-.24.48v.48l-.24.24h-.24v.24l-.48.24h-.48l-.24.24h-.24l-.24.24v.72l-.24.48v.72h-.24v.24l-.24.48v.24l-.24.72v.96l-.24,1.44v.72l.24.48h1.2v.48h-.24v.24h.24v.48l.48.24.24.24.24.24h.24l.24.24.24.24h1.92l.24-.24h.48v.72h.24l.24.24v.24h.48l.24.48v-.24h-.24l-.24-.24h-.24l-.24-.24-.24-.24h-.48l-.48-.24-.24.24v-.24l-.24-.24-.48.24h-2.4v.24h-.24l-.24-.24-.24.24h-.72v.24h-.72v.24h-.72v.24l-.24.24h-1.44l-.48.24h-.48l-.24.24h-.24l-.24.24-.24.24-.24.24h-.24V707h-.24l-.24.24-.24.24-.24.24v.96l-.24.24v.48l.24-.24.24.24v0h-.48v.24l-.24.24v.24l-.24.24v.48h.24v.96l-.24.24v.24h-.24l-.24.48v.24l-.48.24h-.24l-.24.24h-.24v.24h-.48v.24h-.24l-.24.24h-.48l-.24.24-.24.24-.24-.24h-.24l-.24-.24-.24-.24-.24-.24v-.24l-.24-.48v-.48l-.24-.72v-.48l.24-.24.48-.24h.72l.24-.24.24-.24h.24l.24-.48.24-.24.24-.24v-.24l.24-.72v-1.2l.24-.48v-.72l.24-.72.24-.48v-.48l-.24-.48.24-.24v-3.12l.24-.48v-.24l.24-.24h.24l.24-.48.24-.24.24-.24h.48l.48-.48h.24v-.24l.24-.24h.24v-.24l.24-.24.24-.48.24-.48.24-.96V695l.48-.48.24-.48.24-.48v-1.44l.24-.72.24-.48.24-.48.24-.48.48-.72.24-.72v-.72l-.24-.24v-.24l-.24-.24v-.24l-.24-.24.24-.48-.24-.24v-.48l.72-.24.96-.24h.48l.24-.24.24-.24-.24-.48-.48-1.2v-.24l.24-.48.48-.24.48-.24.48-.72h.24v-.24l.24-.24.24-.48.24-.24v-.24l.24-.24v-.48l.48-.72.24-.48.24-.24v-.24l.24-.48.24-.24v-.24l.24-.24.24-.24v-.24l.24-.24.24-.48v-.48l.48-.96.24-.72.48-.72.24-.48v-1.92l-.24-.24v-.24l-.24-.24v-.72l-.24-.24-.24-.24h-1.2l-.24.24h-.24l-.24.24-.72.24h-.72l-.48.24h-.24l-.48.24h-.48l-.48.24-.48.72h-.24l-.24.24v.24l-.24.48v.48l-.24.24h-.24l-.48-.24-1.2-.24-.24-.24-.48-.24v-.24l-.24-.24v-.24l-.24-.48-.24-.24v-.24h-.24l-.24-.24-.24-.24-.72-.96v-.24l-.24-.24-.48-.24-.72-.72-.24-.24h-.24l-.72-.24-.96.48-.48.24h-1.92l-.24.24h-.48l-.24.24-.48-.24-.72-.24h-.72l-.24-.24-.24-.24-.72-.24-.24-.24-.48-.24h-.72l-.72.24-.24.24-.24.24h-.24l-.48.24h-.24l-.24.24-.48.24h-.24l-.24.24v.24l-.24.24h-.24l-.24.24-.24.24-.24.24-.24-.24h-.24v-.96l-.48-.48v-.24l-.24-.48v-.96l-.24-.48v-.24l-.48-.96-.24-.48v-.24l-.24-.48-.24-.24-.24-.72-.24-.24-.24-.24-.24-.24v-.24l-.48-.48v-.24l-.24-.24v-.48l-.24-.24v-.72l-.48-.72v-.24l-.24-.48-.24-.48-.24-.48v-.48l-.24-.24-.24-.48v-.24l-.24-.24-.72-.48h-.24l-.24-.24-.24.24h-.24l-.24.24v.24l-.24-.24v-.24h-.24l-.48-.24-.24-.24h-.24l-.24-.24-.48-.24h-.24l-.24-.24-.24-.24h-.24v-1.44l-.24-.48-.24-.24v-.24l-.24-.24-.24-.24-.24-.48-.24-.48v-.96l-.24-.24-.24-.48-.24-.48-.24-.24v-.24h-.48l-.48-.24h-.24l-.24-.24v-.72l-.24-.48v-.24l-.24-.24-.24-.24-.24-.24h-.24l-.24-.24h-.48l-.48-.72-.48-.48-.72-.72-.24-.24-.24-.48-.24-.24-.24-.24-.24-.24h-.48l-.24-.24h-.24l-.48-.48-.24-.24.48-.72.48-1.2v-1.44l-.24-1.92v-1.68l-.24-1.92v-.24l-.24-.24v-.48l-.24-.24-.24-.24-.24-.48v-.48l.24-.24v-1.68l-.24-.72-.24-.24-.24-.96-.24-.72-.24-.24v-.48l-.24-.72-.24-.96v-.24l-.24-.48-.24-.72-.24-.24-.24-1.2v-1.44l.24-.24.24-.24v-.24h.24v-.48h-.24v-.48l-.24-.24v-.24l.24-.24v-.72l-.24-.24-.24-.24-.24-.48v-.24l-.24-.24.24-.24v-.48l.24-.24v-.24l.48-.48.24-.24v-.24l-.24-.24v-.24l-.24-.24-.24-.24v-.24l-.24-.24.24-.24v-.24l-.24-.24v-1.2l.24-.24v-.72l-.48-.24-.24-.24-.48-.48v-.96l.24-.48v-.24l-.48-.24-.24-.24v-.72l-.24-.24v-.24h.72v-.24l-.24-.24v-.24h-.24l-.24-.24v-.24l.24-.24.24-.72.24-.24.24-.24.24-.48.24-.72.24-.24v-1.44l.24-.48.24-.24.24-.48v-.72l-.24-.24-.24-.24v-.72l.24-.24h.24l1.44-.72.48-.24.24-.24v-.48l-.24-.48v-.48l.24-.72v-.48l-.24-.72-.48-.24v-.48h.48l.48-.24h.24l.24-.24v-.72l-.24-.24v-.24l-.48-.24h-.24l-.24-.24-.24-.24v-1.2h.24l.24-.24,1.2-.96h.24l.48-.24.24-.24h.24l.24-.24h.24l.24-.24h.24l.48-.24h.24l.24-.48.24-.24v-.48l.24-.24v-.24l-.24-.24v-.24h-.24v-1.2l.24-.24.24-.24h.48l.24-.24h.24l.24.24h.24v.24l.24.24v2.4l.24.48v.24l-.24.24v.24l.24.48v.48l.24.48.24.24v.24l.24.48.48.48.24.24.24.24.24.48.24.48h.24v.24l.24.24h.24l.48.24h.72ZM420.9867,698.84v.24l.24.24v.24l.24.24.24.24.24.24.48.48.24.24.72.48h.24l.24.24.24.24h.24l.24.24.24.24.24.24h-.24l-.24.24h-1.2v-.48h-.72v.24l-.24.24h-1.2l-.24-.24-.48.24-.48.48v1.92l-.24.48v.48l-.24.72-.48.48-.24.48-.48.24-.48.48h-.24v.24h-.24v-.48l.24-.24h-.24l.24-.24h-.24v-.24h-.24v-.24h.24v0h.48l.24-.24V707h.48v-.24l.24-.24v.24l.24-.24v-.96h.24v-.48h.24v-.72h-.24l.24-.24v-.24h-.48l-.24-.24v-.48h.24v-.24h.24l.24-.24h.48v-.24h.24v-.24l-.24-.24-.24-.24-.48-.48h-.24l-.24-.24.48.24.24-.24-.24-.24h-.24l-.24-.24h-.48l-.24-.24-.24-.24-.24.24v-.24l-.24-.24v-.48h.24v-.24h.72l.24-.24.48.24h.24l.24-.24h1.44Zm-3.84.48v.72h0v.48h.24v-.24h0l.24.24h-.24l.24.24h.48v-.24l.24.24V701h-.24v0h-.24l-.24-.24h-.24l-.24.24-.24-.24v-.24h-.24v-.48h0v-.48h.24Zm-1.2,1.2h-.24l.24-.24Zm.48.48h.48l-.24.24v.24h-.24l-.24-.24v-.48Zm-.48.24h-.24v-.48h.24v.48Zm-.96.48h.24v.24l.24.24h-.48l-.24-.24h-.24v-.48h.24Zm2.16,4.8v.24h-.24v0l.24.24.24.24-.24.24-.24-.24-.24-.24-.24-.24-.48-.24-.48-.24h-.48v-.24h1.44v.24h.48Z"/>
    <polygon class="cls-1"
             points="378.504 585.807 383.304 585.087 387.625 583.887 390.265 583.647 393.625 582.927 396.745 582.687 398.185 582.687 399.145 582.207 399.385 582.447 399.865 582.447 400.345 582.927 400.585 582.927 401.545 582.927 402.025 582.687 402.265 582.687 402.986 582.207 403.226 581.967 403.466 581.967 404.186 581.487 404.426 581.247 404.666 581.247 405.386 581.487 405.866 581.487 406.106 581.487 406.586 581.487 407.066 581.247 407.546 580.767 408.266 580.527 408.746 580.047 408.986 580.047 409.466 580.047 409.706 580.047 409.946 579.807 410.666 579.567 410.906 579.567 411.386 579.327 412.106 579.327 412.826 579.327 413.066 579.327 413.306 579.327 413.546 579.567 413.786 580.047 413.786 580.287 413.786 580.527 414.026 580.767 414.506 580.767 414.746 580.767 414.986 580.767 415.466 580.767 415.706 580.527 415.946 580.287 416.186 580.047 416.426 580.047 416.906 580.047 417.146 580.047 417.386 580.287 417.866 580.287 418.346 580.287 418.827 580.287 419.067 580.527 419.307 580.767 419.547 580.767 420.747 581.007 420.987 581.007 421.467 581.247 422.667 581.247 423.387 581.247 424.107 581.007 424.347 581.007 424.827 581.007 425.067 580.767 425.547 580.767 425.787 580.767 426.027 581.007 426.267 581.247 426.267 581.487 426.507 581.727 426.987 581.727 427.227 581.967 427.227 582.207 427.227 582.687 427.227 583.167 427.227 583.647 427.467 584.127 427.467 584.847 427.707 585.567 427.947 585.807 428.187 586.527 428.187 586.767 428.427 587.247 428.427 587.486 428.427 588.206 428.427 588.446 428.187 588.686 428.187 589.166 428.187 589.646 428.187 590.126 427.947 590.366 427.947 590.606 427.707 590.846 427.227 591.806 427.227 592.046 426.987 592.526 426.987 592.766 426.987 593.726 426.747 593.966 426.747 594.446 426.507 594.686 426.507 594.926 426.027 595.406 426.027 595.886 425.547 596.366 425.547 596.606 425.307 597.326 425.067 597.566 425.067 598.286 424.827 599.006 424.587 599.246 424.347 599.246 423.867 599.486 423.627 599.726 423.147 599.966 422.667 600.206 422.187 600.686 421.947 600.686 421.707 600.686 421.227 600.686 420.747 600.446 420.267 600.206 420.027 600.206 419.307 600.206 419.067 600.446 418.587 600.446 418.346 600.686 418.106 600.926 417.866 601.166 417.626 601.406 417.386 601.406 417.146 601.406 416.906 601.166 416.666 600.686 416.666 600.446 416.426 600.446 415.946 600.446 415.706 600.446 415.226 600.926 414.746 601.166 414.506 601.406 414.266 601.406 413.786 601.406 413.546 601.166 413.546 600.926 413.306 600.686 413.306 600.206 413.546 599.486 413.546 599.246 413.306 599.006 413.066 598.766 412.346 598.526 412.106 598.526 411.866 598.286 411.626 598.046 411.626 597.566 411.626 597.326 411.626 597.086 411.626 596.606 411.386 596.606 411.146 596.606 410.906 596.606 410.426 596.846 410.186 597.326 409.946 597.566 409.706 597.806 409.466 598.046 409.466 598.286 409.226 598.526 408.746 598.766 408.026 599.006 407.786 599.006 407.546 599.006 407.066 599.006 406.586 599.006 406.106 599.006 405.866 599.006 405.386 599.006 405.146 599.006 404.426 599.246 403.946 599.246 402.986 599.486 402.746 599.486 402.265 599.726 402.025 599.726 401.785 599.966 401.305 600.446 401.305 600.926 401.545 601.406 401.545 601.886 401.305 602.366 401.065 602.606 400.825 602.606 400.585 602.846 400.585 603.086 400.825 603.566 400.825 603.806 401.065 604.046 401.305 604.286 401.305 604.766 401.545 605.245 401.545 605.725 401.785 605.965 402.025 606.445 402.505 606.925 403.226 607.165 403.466 607.165 403.706 607.405 403.946 607.645 404.186 607.885 404.426 608.125 404.906 608.365 405.626 608.365 405.866 608.605 406.106 608.605 406.586 608.365 407.546 608.125 407.786 607.885 408.266 608.125 408.746 607.885 408.986 607.885 409.226 607.885 409.706 608.125 409.946 608.125 410.426 608.365 410.666 608.365 410.906 608.365 411.626 608.605 411.866 608.605 412.346 608.605 413.066 608.845 413.306 609.085 413.546 610.045 413.786 610.525 414.026 610.765 414.266 611.005 414.506 611.485 414.506 611.725 414.506 611.965 414.506 612.445 414.506 612.685 414.746 612.925 414.746 613.405 414.746 613.645 414.986 613.885 415.706 614.845 415.946 615.085 416.186 615.565 416.186 615.805 416.186 616.045 416.186 616.525 415.706 616.525 415.226 616.765 414.746 617.005 414.506 617.005 414.506 617.725 414.506 618.205 414.746 618.685 414.746 619.165 414.986 619.405 414.986 619.645 415.226 620.365 415.226 620.605 415.466 620.845 415.706 621.085 415.946 621.325 416.186 621.565 416.906 622.524 417.146 622.764 417.386 623.004 417.866 623.484 418.106 623.724 418.346 623.964 418.587 624.204 419.067 624.204 419.547 624.684 419.787 624.684 420.987 624.924 421.227 624.924 421.707 624.924 421.947 625.164 422.187 625.164 422.907 625.404 423.867 625.884 424.107 626.124 424.587 626.124 425.067 626.364 425.547 626.364 425.787 626.364 426.027 626.604 426.267 626.844 426.987 627.084 427.467 627.324 427.947 627.324 428.667 627.324 428.907 627.324 429.387 627.324 429.627 627.324 430.347 627.324 430.587 627.564 431.307 627.804 431.787 628.284 432.027 628.524 432.267 629.004 432.267 629.244 432.507 629.484 432.507 629.964 432.267 630.204 432.267 630.924 432.267 631.164 431.787 631.644 431.787 631.884 431.307 632.364 431.067 632.604 431.067 632.844 430.827 633.084 430.587 633.324 430.587 633.564 430.827 633.804 431.067 634.044 431.067 634.284 430.827 634.284 431.067 634.284 430.827 634.524 430.587 634.764 430.587 635.004 430.347 635.244 430.347 635.484 430.587 635.484 430.347 635.484 430.347 635.724 430.347 635.964 430.347 636.204 430.107 636.444 430.107 636.684 429.867 636.684 429.867 636.924 427.467 635.484 426.507 634.764 426.267 634.524 425.547 633.804 425.307 633.324 425.067 633.084 425.067 632.844 424.587 632.604 423.867 632.124 423.387 631.884 422.667 631.884 422.427 631.884 421.947 631.644 421.707 631.644 420.987 631.404 420.747 631.164 420.507 630.924 420.267 630.684 420.027 630.444 420.027 630.204 420.027 629.484 420.027 629.004 420.027 628.764 419.787 628.524 419.547 628.284 419.307 628.284 419.067 628.524 418.827 628.764 418.587 629.484 418.346 629.724 418.106 629.964 417.866 630.204 417.626 630.684 417.146 630.924 416.666 631.404 416.666 631.644 416.426 632.124 416.186 632.364 415.946 632.604 415.706 632.844 415.466 633.084 415.466 633.564 415.226 633.804 414.986 633.804 414.746 634.044 414.506 634.284 414.266 634.524 413.786 634.764 412.346 635.724 412.106 635.964 411.866 636.204 411.626 636.684 411.386 636.684 411.146 636.924 411.146 637.404 410.906 637.884 410.666 638.364 410.426 638.604 410.426 638.844 410.426 639.084 410.426 639.324 410.666 639.564 410.666 639.803 410.906 640.043 410.906 640.283 411.386 640.523 411.626 640.763 411.626 641.243 411.866 641.483 411.866 641.723 411.626 641.963 411.386 641.963 410.906 642.203 410.906 642.443 410.666 642.923 410.426 642.923 410.186 643.163 409.946 643.643 409.946 643.883 409.706 644.363 409.466 645.083 409.466 645.323 409.466 645.563 409.226 646.523 409.226 646.763 409.226 647.003 409.466 647.243 409.466 647.483 409.946 647.963 409.946 648.203 410.426 649.163 410.426 649.403 410.666 649.403 410.906 649.643 410.906 649.883 411.386 650.363 411.626 650.843 411.626 651.083 411.866 651.323 411.866 651.563 411.866 651.803 411.626 652.043 411.386 652.283 411.146 652.523 410.906 652.523 410.666 652.763 410.426 652.763 410.186 652.763 409.946 652.763 409.226 652.763 408.986 653.003 408.506 653.003 408.026 653.003 407.786 653.003 407.546 652.763 407.306 652.763 407.066 652.523 406.586 652.283 406.346 652.043 405.866 651.803 405.626 651.803 405.146 651.563 404.906 651.323 404.666 651.083 404.186 650.603 403.706 650.363 403.226 650.123 403.226 649.883 402.986 649.643 402.746 649.163 402.505 649.163 402.265 648.923 402.025 648.923 401.785 648.683 401.305 648.443 401.065 648.443 400.585 648.443 400.105 648.203 399.625 648.203 398.905 647.963 398.185 647.723 397.945 647.723 397.705 647.483 396.985 647.483 396.745 647.243 396.505 647.243 395.785 646.763 395.305 646.523 395.065 646.283 395.065 646.043 395.305 645.563 395.545 645.323 395.545 645.083 395.785 644.843 396.025 644.843 396.025 644.603 396.025 644.363 396.265 644.123 396.025 643.883 396.025 643.403 395.785 643.163 395.785 642.923 395.785 642.683 395.545 641.963 395.545 641.003 395.545 639.324 395.785 639.084 395.785 638.604 396.265 637.884 396.265 637.644 396.505 637.404 396.745 637.404 396.985 637.164 397.705 636.444 398.905 635.964 399.145 635.724 399.385 635.484 399.385 635.244 399.625 635.244 399.865 634.764 399.865 634.524 399.865 634.284 399.865 633.804 399.865 633.564 399.385 633.324 397.705 632.844 395.785 632.604 395.545 632.604 395.305 632.604 395.305 632.364 395.065 632.364 394.585 631.884 394.105 631.404 393.625 631.164 393.385 630.924 393.145 630.444 392.905 630.204 392.185 629.484 391.945 629.244 391.705 629.004 391.705 628.524 391.705 628.044 391.465 628.044 391.465 627.564 391.465 626.844 391.465 626.364 391.465 626.124 391.225 625.644 391.225 625.164 391.225 624.924 391.225 624.684 390.985 624.444 390.745 623.964 390.745 623.724 390.745 623.484 390.505 623.244 390.505 623.004 390.505 622.764 390.505 622.524 390.505 622.285 390.505 622.045 390.505 621.085 390.745 620.845 390.985 620.365 390.985 620.125 390.985 619.405 391.225 619.165 391.225 618.925 390.985 618.685 390.985 618.205 390.985 617.725 390.985 617.245 390.985 617.005 390.985 616.285 391.225 615.325 391.225 615.085 391.225 614.845 391.225 614.605 390.985 614.365 390.745 614.125 390.745 613.885 390.265 613.165 390.265 612.925 389.785 612.685 389.305 612.205 389.065 611.965 389.065 611.725 388.585 611.245 388.345 611.005 387.865 610.525 387.625 610.525 387.625 610.285 387.145 609.805 387.145 609.565 386.905 609.085 386.664 607.885 386.424 607.645 386.184 607.405 386.184 606.925 386.184 606.685 386.184 606.445 386.184 606.205 385.944 605.965 385.704 605.245 385.704 605.005 385.704 604.526 385.464 604.046 385.224 603.566 385.224 603.326 384.984 603.086 384.744 602.846 384.504 602.606 384.264 602.126 384.024 601.886 383.784 601.646 382.584 600.926 382.104 600.686 381.624 600.446 381.144 599.966 380.904 599.966 380.664 599.726 380.424 599.486 380.184 599.486 379.944 599.246 379.464 599.006 379.224 599.006 378.504 598.766 378.024 598.766 377.544 598.766 377.064 598.766 376.344 598.526 376.104 598.526 375.624 598.286 374.424 598.046 374.184 597.806 373.704 597.566 373.224 597.086 372.984 597.086 371.544 596.846 370.823 596.846 370.583 596.846 370.343 596.606 369.623 596.366 368.903 596.126 368.183 595.886 367.703 595.646 366.983 595.646 366.983 595.406 366.743 595.406 366.263 595.406 366.023 595.166 365.783 595.166 365.543 594.926 365.303 594.926 364.823 594.686 364.343 594.446 364.103 594.206 363.863 593.966 363.863 593.726 363.863 593.486 363.863 593.006 363.863 592.286 364.103 592.046 364.343 591.566 364.343 591.086 364.583 590.846 364.823 590.606 365.063 589.886 365.303 589.406 365.543 589.166 365.783 589.166 366.503 588.926 366.743 588.926 367.223 588.926 367.703 588.926 368.183 589.166 368.423 589.166 368.663 589.166 368.903 589.166 369.143 589.166 369.383 589.166 369.623 588.926 369.863 588.926 370.103 588.926 370.583 589.166 371.064 589.166 371.784 589.166 372.264 589.166 372.504 589.166 372.744 589.166 373.464 589.406 374.184 589.406 374.664 589.166 374.904 588.926 375.144 588.926 376.104 588.686 376.344 588.446 376.584 588.446 376.824 588.446 377.064 588.206 377.784 587.486 378.024 587.486 378.264 587.247 378.264 587.007 378.504 586.767 378.504 586.527 378.504 585.807"/>
</svg>
