<svg id="Georgia" xmlns="http://www.w3.org/2000/svg" width="612" height="792" viewBox="0 0 612 792">
    <defs>
        <style>.cls-1{fill:#fff;fill-rule:evenodd;}</style>
    </defs>
    <polygon class="cls-1"
             points="139.929 314.382 139.449 315.102 138.729 315.582 138.489 315.582 138.489 315.342 138.009 314.862 137.769 314.622 137.529 314.382 136.809 313.902 136.329 313.662 135.609 312.942 135.369 312.942 134.889 313.182 134.649 313.422 134.169 313.422 133.928 312.702 133.688 312.462 132.728 311.742 132.488 311.502 133.688 310.782 133.928 310.782 134.169 310.542 134.889 310.302 135.609 309.582 135.609 309.342 135.849 308.862 136.089 308.142 136.089 306.223 136.329 305.983 136.329 305.743 136.569 305.263 136.569 304.543 136.809 303.823 136.809 303.103 136.809 302.623 137.049 302.143 137.049 301.903 137.289 301.663 137.289 300.703 137.529 300.223 137.529 299.983 137.529 299.743 137.529 299.503 137.289 299.503 137.049 299.023 136.329 298.303 136.089 298.063 135.849 298.063 135.849 297.343 135.849 296.863 135.849 296.623 135.849 295.903 135.849 295.663 135.369 295.663 135.129 295.183 135.129 294.703 135.129 294.463 134.889 294.223 134.409 293.743 133.928 293.503 132.488 291.823 132.248 290.863 132.248 290.383 132.248 289.903 131.768 289.184 131.288 288.944 131.048 288.704 131.288 288.224 131.528 287.984 132.488 287.264 132.728 287.264 132.968 287.264 133.208 287.264 133.448 287.264 133.688 287.504 133.928 287.744 134.169 287.744 134.169 287.984 134.889 288.944 135.129 288.944 135.129 289.184 135.369 289.184 135.849 289.184 136.089 289.184 136.329 289.184 136.329 289.423 136.329 289.663 136.569 289.903 136.809 290.383 137.049 290.383 137.049 290.623 137.289 290.623 137.529 291.343 137.769 291.823 137.769 292.063 138.009 292.303 138.489 292.303 138.729 292.303 138.969 292.543 139.929 294.223 140.649 295.183 140.649 295.423 143.529 297.103 144.009 297.343 144.489 297.103 144.729 297.103 145.209 297.343 145.929 297.823 146.169 297.823 146.409 298.063 146.649 298.303 146.649 298.783 147.129 299.503 147.369 299.503 147.609 299.503 147.849 299.263 148.329 299.503 148.809 299.743 149.289 300.703 149.289 301.423 149.769 302.863 150.01 303.103 150.01 303.343 151.21 304.063 151.21 304.303 151.45 304.543 151.93 305.023 152.17 305.023 152.41 305.263 152.41 305.503 152.41 305.743 152.65 306.223 152.89 306.223 153.13 306.463 153.37 306.943 153.37 307.182 153.13 307.422 152.65 307.662 152.41 307.662 152.41 308.382 153.37 308.862 155.53 309.342 155.77 309.342 155.77 309.102 156.97 309.102 157.93 309.102 158.17 309.102 158.41 309.102 158.65 309.342 158.89 309.342 158.89 309.582 159.13 309.582 159.37 309.822 159.37 310.302 159.37 310.542 159.85 310.782 160.33 310.302 160.81 310.062 161.05 310.302 161.05 310.542 161.29 311.022 161.53 311.262 161.77 311.262 162.01 311.262 162.25 311.502 162.49 311.982 162.73 312.222 162.97 313.182 162.97 313.422 162.97 313.662 162.97 313.902 163.45 313.902 163.93 313.902 164.17 314.142 164.41 314.142 164.41 314.382 165.13 314.862 165.37 315.102 165.37 315.342 165.37 315.582 164.65 316.542 164.41 316.782 163.69 317.262 163.45 317.742 163.69 317.982 165.13 320.622 165.61 320.862 166.811 321.582 167.771 322.542 167.771 322.782 167.771 323.022 168.011 323.262 167.531 323.502 167.291 323.742 166.811 324.221 166.571 324.221 166.331 323.982 166.091 323.982 165.85 323.982 165.61 323.982 165.37 324.221 165.37 324.461 165.13 324.701 165.13 325.181 165.13 325.421 165.37 326.861 166.331 328.301 166.571 328.541 166.811 328.781 167.051 329.021 167.291 329.501 167.291 330.221 166.811 330.701 166.571 331.181 165.85 331.421 164.89 331.661 164.17 330.701 164.17 330.461 163.93 329.981 163.93 329.741 163.69 329.261 162.97 329.021 162.49 329.261 162.25 329.261 162.25 329.021 161.77 329.021 161.77 328.781 161.29 328.541 161.05 328.301 161.05 328.061 160.81 327.821 160.57 327.341 160.33 327.101 160.33 326.861 160.57 326.381 160.09 325.661 158.41 324.221 158.17 323.982 157.93 323.982 157.21 324.221 156.73 324.461 155.77 324.701 155.53 324.941 155.05 324.941 154.09 325.181 153.85 324.941 153.13 324.701 151.93 324.461 151.45 324.221 150.97 323.982 150.49 323.502 149.769 323.262 149.289 323.262 149.049 323.262 148.809 323.262 147.849 323.022 147.129 322.542 146.889 322.542 146.649 322.542 146.169 322.782 145.929 322.782 145.929 322.542 145.209 322.302 144.969 322.062 144.729 321.822 144.009 321.822 144.249 321.582 144.249 321.102 144.009 321.102 143.769 320.622 143.529 320.622 142.809 320.382 142.569 318.702 142.089 317.982 142.089 317.742 141.849 316.062 141.609 315.102 140.649 314.622 140.409 314.622 140.169 314.382 139.929 314.382"/>
</svg>
