<svg id="Hindu_Kush" data-name="Hindu Kush" xmlns="http://www.w3.org/2000/svg" width="612" height="792"
     viewBox="0 0 612 792">
    <defs>
        <style>.cls-1{fill:#fff;fill-rule:evenodd;}</style>
    </defs>
    <path class="cls-1"
          d="M342.9817,406.5368h.24l.24-.24v.24l.24.24.24-.24v-.24l.24-.24.24-.24h.48l.24.24v.96h.72l.24-.24.24.24v-.24l.24-.24.24.24v.24l-.24.24v.24l-.24.48-.24.24-.24.48h-.24l-.48.48h-.24v.48l-.24.24v.24l.24.24v.24h.24v.24h.24v-.24l.24-.24.24.24h.48l.24-.24h.24l.24-.24v-.24l.24-.24v.24h.72l.24.24.24.24v.96l-.24.24v.48l-.24.24v.72l-.24.24-.24.72v.24l-.24.24v.24h-.24v.24l.24.24-.24.24v.48h.24l-.24.24-.24.24h.24v.24l-.24.24v.48l-.24.24v.72h.24v.72l.24.72v.24l.24.24v.24l.24.24v1.44h-.24v.24l-.24.24-.48-.24v-.24l-.24-.24v-1.2l-.24-.72v-.48l-.24-.48-.48-.48-.24-.24v-.72h-.24v-.24l-.24-.24v-.72h-.24v-.24h-.24l-.24-.24h-.24l-.24.24v.24l-.24.24h-.24l-.24.24v.72l-.24.48h-.24l-.24-.24h-.48v-.24l-.48-.24-.24-.24v-.24l-.24-.24-.24-.24-.24-.24v-.48l.24-.24h.24l.24.24.24.24.24.24h.48l.24.24.24-.48.24-.24v-.96l-.24-.24-.24-.24v-1.92l-.24-.24-.24-.24-.24-.24h-.48l-.24-.24-.24-.24v-.24h-.24v-.96h.48l.24.24.48.48h.24l.24-.24v-.72l-.24-.72v-.48l.24-.24v-.72l.24-.24v-.48l.96-1.68.24.24v.48l-.24.24Zm-4.32,15.8391v.72l-.24.24-.24.24v.24l-.24.48v.48l.24.24.24.24v.48h.24v.24l-.24.24v.24h-.48l-.24.24v.24l-.24.48v.48l.24.24.72-.24.24-.24.24-.24.48.24.24.24v.96h.24v.72h.24l.24.48h.24v-.24l.24-.24h-.24v-.24l-.24-.24v-.24l.24-.24h.48l.24-.48v-.72l-.24-.48v-1.44l.24-.24.24-.24v-3.12l.24-.24.24-.24h.24l.24.24.24.24-.24.72v.24l.24.24v.48l.96.48v.96l.24.24.24.48.24.48.24.24.24.24.24.48v.24l-.24.24v.24l-.24.24v.48l-.24.24h.24v.24l.24.96v2.4l-.24.48v.72l-.24.24h-.24v2.64l-.24.24v.24h-.48l-.24.24h-.24l-.24.24-.24.24-.24.48h-.24l-.24.24v.24l-.24.24-.24.24h-.48v-.72l-.24-.24-.24-.24v-.24l.24-.24.24-.24h.24v-.24h.24l.24-.24h.24v-.24l.24-.24.24-.24-.24-.24h-.24l-.24.24h-.24v.24l-.48.24h-.96v-.24l.24-.24h.24l.24-.24v-.24l.24-.24v-.48h.24l.24-.24.24-.48v-.48h.24v-.24l.24-.24v-.48h-.48l-.24.24-.24.24h-.24v.24l-.24.24h-.96v1.2h-.24l-.48.72v.24l-.24.48-.24.24-.24.24-.24-.24v-.72l-.24-.24-.48-.24-.24-.24h-1.44l-.24-.24v-.24l.24-.24v-.48l.24-.24v-.48l-.24-.24-.24.24v.48h-.24l-.24.24-.24-.24h-.24v.96l-.24.24v.96l.24.24v1.92h.24v.96l-.24.24h-.24v-.72l-.24-.24-.24-.24h-.48l-.24-.24-.24-.24-.24-.24h-.24v.72l.48.24h.24v.24l-.24.24-.48.24-.48.48v.24l-.24-.24.24-.48v-.48l-.24-.24v-.24h-.24v-.24l.24-.24v-.96h-1.2l-.24.24h-.48l-.24-.24-.24-.24-.24-.24v-.72h.24l.48-.24h.72l.24.24h.96v-.24l-.24-.24-.24-.24h-.24v-.48l.48-.48h.24l.48-.24.24-.24.24-.24.24-.24.24-.24.24-.48v-.48h-.48l-.24.24-.24.24h-.24l-.48.24-.24.24-.24.24h-.48l-.24.24h-.24l-.48.24-.24.24h-.24l-.48-.48v-.96l.24-.24h.48l.48-.72-.24-.24-.24-.48.24-.48-.24-.48v-.48l.24-.24.48-.24.24.24h.48v-1.2l-.24-.24-.24-.72.24-.24.72-.48h.72l.24-.24.24-.24v-.48l-.24-.24.24-.48.48.24.24-.24v-.48h.48l.48-.24.24-.48-.24-.24.24-.24v-.24l.24-.24.24.24h.24v-.24h.48l.24.24.24.24.24-.24h.24l.24-.48v-.48h.24v-.24h.48l.24-.24.24-.24v-.24l.24-.24v-.24h.24l.24.24v.24l.24.24v.24l-.24.48v.24l-.24.48v.24Zm.24,18.479-.24.24h-.24v-.24l-.24.24h-.48v.24h-.24v.24h-.72v-.24h-.24v-.48l.24-.24v-.48l.24-.24v-.24h.24v-.96l.24-.24v-.96l.24-.24h.24l.24.24v1.44l-.24.48.24.24v.24h.48v.24h.48v.72Z"/>
</svg>
