<svg id="India" xmlns="http://www.w3.org/2000/svg" width="612" height="792" viewBox="0 0 612 792">
    <defs>
        <style>.cls-1{fill:#fff;fill-rule:evenodd;}</style>
    </defs>
    <path class="cls-1"
          d="M497.3115,574.5272l.24.24v.96l-.24,1.2h-.72v-.96l.24-.96v-.24l.24-.24v-.24h.24ZM305.7794,551.4885v-.72l.24-.24.72-.72h.96l2.4.24h.96v-.72l.24-2.64.24-.24h.48l1.2.24v.24h.24v.48h.48l.48-.24,1.68.24,1.2.24h1.68l.48.24.24.48.48.48.24.24,2.64.24h.24l.48-.24.24-.24.24-.72h.72l.72-.24.72-.24.72-.24,1.44-.24h.24l.24.24-.24.24v1.2l.48.24,1.2.24h.24l.72-.24v-.24l.72-.48v-.24h.24l.24.24h.24l.96-.48-.24-.24-.48-.24-.24-.24-.24-.96v-.48l.24-.24.72-.24v-.48l-.48-1.44-.24-.24v-.24l-.24-.48v-.24l-.24-.72v-.48l-.24-.48v-.48l-.24-.24-.24-.24-.24-.24-.24-.48-.72-1.44v-1.44l.24-.24v-.96l-.24-.24v-.24h-.72l-.24.24h-1.68l-.24-.24h-.24l-.24-.24-1.44-2.16-.24-.96.24-.96v-.24l.24-.24.24-.24.24-.24v-.48h.24v-1.44l.24-.24v-1.2l-.24-.48-.24-.24h-.24v-.24h-2.4l-.48-.24v-.24l-.24-.24-.24-.24-.24-.24-.72-.24-.24-.24h-.24l-.24-.24-.24-.24v-.24h-.24v-.48l.48-1.68.72-1.68,1.2-.96.24-.24h.48l.96-.96,1.68-1.68.24-.24v-.24l.24-.48v-.24l.24-.24.24-.48.24-.48.72-.48.24-.24,1.44-.96.96-.24.24.24h.48l.24.24.48.72.24.24v.24l-.24.24.24.48.24.96.24.24h.24l.24.24h1.2l.24-.24h.48l.48-.24.24-.24h.24l.48-.24h.48l.24-.24h4.32l1.92-.48v-.48l.24-1.2.72-.96.96-.72.48-.24.72-.72v-.24l.48-1.2.48-1.2.96-1.2,1.44-.72h.48l.48-.24.72-.48.96-.24,1.2-.48.48-.96.48-.72.24-.24,1.92-3.12v-.24l.72-1.68.72-1.92.24-.24,1.44-.48.96-.24h.48l.48-.24,1.44-.48.24-.72v-.96l-.24-.24-.24-.24-.48-.24.24-.24,1.2-1.2.48-.96.48-.48.72-.48.72-.48.48-.96.72-.48,1.68-.96.96-.24.24-.24.24-.48h-.24l-.48-.24-.24.24-.24.24h-.24l-.24-.48v-.48l.24-1.92.24-.24.24-.24v-.24h.24l.24-.24-.48-1.44-.24-.72-.24-.24-.24-.24v-.24l.96-1.44.72-.48.72-.24.96-.48.48-.48.24-.24.24.24.24.24h.48l1.44-.48h.48l.48-.48.72-.72v-.48l-.24-.24-.24-.24v-.48h-.24l-.48-.48-1.68-.96h-2.64l-.24-.24-.24-.24-.24-.72.24-1.44-.24-.72-.24.24h-.72l-1.44-.24-.24-.24v-.24l.24-.48v-1.2l-.24-.24-.24-.24h-.48l-.24-.24h-.24l-1.2-1.44-.24-.24v-.48l.24-.24.24-.24h.24l.24-.48.24-.24.48-1.2v-.72l-.24-.24-.24-.24h-.24l-.24-.24-.48-.24-.24-.48v-.24l.24-.48v-.24l.24-.24.24-.24h.72l.48-.24h.24l.24-.24.24-.24v-.24l.24-.48v-.24l-.24-.24-1.44-.24-.24.24h-.72l-.24-.24-.24-.48v-.48l.24-.24h.24l.24-.24.24-.24-.24-.96-.48-.24h-.48l-.24-.24h-.24v-.72l.72-1.2.24-.24.24-.96.24-.24.24-.24h1.44l.48-.48h.48l.24-.24h1.44l.24.24.24.24h.24l.72.48h.48l3.12.72.48.24h1.2l.72.72h.48l1.92.72h1.68l.24-.48.24-.24.48-.24h.48l.24-.24h.24l.24.24.24.24h.48l.72-.24v-.24l.48-.48,1.2-.72h.72l1.2.24h.48l.24.24.24.24v.24l.48.24h.72l.24-1.2.24-.72.72-1.44.24-.24v-.24l-.24-.48v-.24l1.68-.96.72-.48.72-.24,1.44-.72,1.68-1.2.48-.24v.24l.24.24.24.24h.24l.24-.24.48-.24.48-.24h.24v.72l-.48.72v.96l.24.48.24.72.24.48.48,1.44v.48l.24.24v.24l.24.24.24,1.44.24.48v.24l.24.48h.24l.48.24h.72l.72.24h.48l.24.24.48.24,1.92,1.44.24.24.24.48v.96l-.24.24-.24.24-.48.24-.24.24h-.72l-.24.24-.24.24v.24l.24.48v.48l.48,1.2v3.36l.24.24v.24l.48.48.24.24.24.24.24.48.96.72.48.24h.24v.24h.24l.24.24h.24l.96.96v.48l-.24.96.24.24.24.24.48.24.48,1.44v.72l-.24.24v.24h-.24v.24l-1.44,1.2-.48-.24h-.24l-.48.24h-.24v.24l-.48.96-.96.24-.48-.24-.96-.96h-.24v-1.68l-.24-.24-.48.24v.24l-.24.24h-1.44l-.96.24v.24l.24.24.48.72v1.92l.48.48.24.24.24.24v.24l.48.72.24.48.48.24.24.24v.48l-.24.24v.24l-.48.96.24.72.48.48.72.72-.72.48-.48.24v.24l.48,1.92.48.24h.48l1.2-1.2h.24l.48-.24.72.48.48.72v.96l.72.96.24.24.48.24.24.48,1.2.96.48.24.24-.24.24-.24.72-.24.96.24.24.24.24.24.24.48h.24l2.16.96.48.48-.24,1.44-.24.24h.72l.24.24.96.24.96.48h.48l.24.24,1.44.72v.24l.24.24.24.24.72.24.48.24h.48l.24.48v.24l-.72.24-.72.48-1.2,1.2-.48.48h-.48l-.24.24-.24.48-.24.48-.48.48h-.48l-.24.24-.24.48v.72l.24.24v.48l-.48.72-.48.24-.24.24-.24.48.24,1.2h.24v.48l-.24.72-.24.48-.48.24-1.2,1.92v1.2l.72.24.96.48.72.72.48.72.96.24.24-.24v-.48l.24-.24.48.24.96.72,2.16,1.44.96.48h.48l.48.24h.48l.24.48.72,1.68h.72l.96.72,1.2.72,1.2.72.48.24.96.72.48-.48.24-.24h.96l.72.48,1.2.96h.24l.96.72.24.24h.48l.72-.24h.48l.48-.24h.24l.24.24.24.48v.96l.24.48,1.92.24.48.24h1.44l.72.48v.24l.24.24h.48l.24-.24h.24v-.48l.24-.72h1.68l.24.24,1.2.48h.24l.24.24h.24l.24.24.24-.48v-.48h1.2l.24-.24.96-.48,1.44,1.2h.96l.96.24h.96l.24.24.24.24.24.72v1.44l-.24.24v.24l.48.24h1.44l1.2.72,1.92,1.2.24.24.24.24h.96l1.2-.48.48-.24.24-.24.24-.24.48-.24.96.48v1.2l.24.24.24.24.96.72.72-.48.24-.24.48-.24h.48l.24.24v.24h.72l.24.24,1.2-.24,1.44.48,1.68.72.72.48.96-.24.48-.48v-.24l.48-.48h.48l.96.48.72.72.96.24.96-.48h.24l.48-.24h.72l.24.24h.96l.24-.24.96-.48.96-.24.24.24v.24l.24.24.72.24.72-.72v-.96l.24-.48.24-.96v-.24l.24-.48v-.24l-.24-1.2-.72-1.2-.48-.48h-.24l-.48-.72v-1.2l.24-.48v-2.64l.24-.48.24-.24.24-.72.24-1.2v-.72h-.48v-.24l-.24-.24.24-.48,1.68-.48h.48l1.2-.72.24-.24.72-.72.96.48.48.24.48.24.48,1.2v.24l.24.24-.24,1.2-.24.72v.24l-.24.24-.24.72.24,1.2.24.24.24.24.72.48h.24v.24l-.24.24-.48.24h-.24l-.48.96v.24h.48l.24.24.24.24.24.24.24.96h.48l.96.48.48.24v.24l.24.24v.24h.96l.48-.24.24-.24.48-.24h.24l.96.48h.96l.72.24v.24l-.24.24h2.16l2.16-.48.24-.24h.24l.24-.24v-.48l.24-.24v-.24l1.44-.48.24-.24.24.24.48.24.48.24.48.24h.72l.48.24h.24l.24-.24,1.44-.24h.48l.96-.24.48-.24h1.44l.24.24h.24l.24-.24.24-.24v-.24l.24-.24v-.24h.96v.24l.24.24h1.68l.24-.24.72-.48,1.44-.24h.72l.24-.24v-.24l.24-.48-.24-.48-.24-.24v-.24l-.24-.24-.48-.24v-.72l.24-.24.48-1.2-.24-.48-.24-.24-.72-.96-.48.24-.96.24-.72.24-.96-.48-.24-.48-.24-.24-.24-.48v-.48l.24-.24v-.24l.24-.24v-.48l1.44-.24.48.24h1.2l.24-.24.24-.48.48-.24.24-.24h.96v-.48l.48.72h.24v-.24l.96-.24.96-.48.72-.72.48-.48.24-.24v-.72l-.48-.24v-.48l.24-.24.24-.48.72-.48.24.24h.24l.24-.48.96-.96.72-.24h.96l.24-.24-.24-.48-.24-.48.48-.72.48-.48v-.96l.48-.24.48-.24.48-.24h1.2l.48-.24h.24l1.2-.48h.24l.72.24.24-.72v-1.2l.72-.72.48-.24.24-.72v-.24l.24-.72.48-.72.96-.96.48-.24h.48l.48-.24v-.48l.48-.48.48-.24.96.72.72.72.96.24h1.44l2.16.48h.24l.48-.24h.24l.48-.96v-.72l.72-.72,1.2-1.2,1.2-.72h.24l.48-.48.24-.24.24-.24.72.72.48.24v.48l.24.24.24.24h.48l.48-.24.24-.24.24.24-.24.72-.24.24h-.24l-.24.24-.48.24-.48.96.24,1.2.24.48.48-.48.24-.24v-.24h.24v-.24l.24-.24.24-.24.96-.48.24.24v.72l.72.48.72.72v.24l.24.48-1.44,1.92-.24.24-.48.48.24,1.44.48.24.48-.72,1.2-.72h.72l.72.24v.24l.24.24h2.16l.48-.24.24-.24.24-.24h.24l.96.72.72.48h.24v1.44l.48.48.24.48v.48l-1.92,1.92-.72.72-.24.24-.48.72-.48.48v.24l.48,1.44.72.72.24.48.48.24,1.44,1.44-.24.48h-.72l-.48-.24h-.48l-.48-.24h-.24l-.24-.24-.24-.48-.24-.72-.48-.24h-.48l-.96.24-1.2.72-.48.24-1.68.48-.48.24-.24.24-.48.24-.48.48-.24.24-.24.48v.48l-.24.48-.24.24-.24.24h-.48l-.24.24-.96,1.2-.48.72-.72.24h-.24v.24l-.24.48-.24.48-.24.24-.24.24-.96.48-.24-.24h-.24l-.72.72-.48,1.44.24,1.68.24.96.48.96.72.48-.24.24-.24.48v.24l-.24.24-.24.24-.24,1.2v.96l-.96,1.92-.72.96h-.48l-.48.48h-.24v.24l-.24.48-.24,1.2v.72l.24.24.24.24h.96l.24.24v.96l-.24,1.68-.48,1.2v.48l-.96,1.2-.24.24-.72,2.4-.24.96-.24,1.2-.24.96v.72l-.72,1.68v.24l-.48-.48-.48-.24-1.2-.24-.48.24h-.72v-.24l-.24-.24h-1.44v.24l-.24.24-.48.24h-.72l-.48-.72-.24-.24-.24-.24-.24.24-.24.48.24.48.24.24.24,1.2.48,1.44.24.24v2.64l-.24.48.48,1.44-.24,1.68-.48.48-.24.24h-.48l-.24-.48h-.24l-.24.24-.24.24.24.72-.24.72v1.68l.24.48.24,1.44.24.48.48.24.24.72v1.2l-.24.72h-.96l-.24.96-.24.72-.24.24-.24.24h-.48v-.24l-.24-.24-.72-.48-.96-.24v1.44l-.72.48-.24-.96v-.96l-.48-1.68v-.24l-.72-1.92v-.24l-.24-1.44-.24-.24-1.2-1.92-.48-2.4-.24-.48.24-.24.24-.24-.24-.72-.24-.24-.48-.72-.24-1.2-.24-1.2v-.24h-.24l-.48.24-.48-.24-.48.48-.48.48h-.24l-.48-.48-.24-.24-.24.48.24.48v.48l.24.24v.48l-.24.72-.48.24-.24.24-.48.72v.48l-.24.24v.24l.24.24.24.24v.48l.24.72-.24.48-.48.48-1.2.72-.48-.48-.72-1.68-.24-.48-.24-.24-.24-.24h-.24l-.24.48v.48l.24.48.24.48-.24.24h-.24v-.24h-.24v-.24l-.24-.72v-.24l-.24-.24v-.72l-.24-.72-.48-.72-.48-.48-.48-1.2-.24-.96v-.24h.48v-.24l.24-.72v-.72l.24-.72.96-1.44.24-.24.48.24h.96l.24-.24,1.44-.72,1.2-.24.24-.24v-1.44l.24-.24.24.24,1.2-.96.24-.24v-.24l-.24-.48v-.24l.24-.24.24-.24.48-1.92v-.96l-.24-.24v-.48l.48-.24.48.24.48.24h.48l.24-.24h.24l-.24-.48-.24-.48h-.24l-.24-.24v-.24l-.72-.48-1.44-.48-.72-.24h-1.68l-1.68.48-.48.24-2.16.24-1.68-.24h-.48l-.72.24h-.96l-.24.24h-.48l-.24.24-.96.24h-3.12l-.48.24-.24.24h-.72l-1.92-.48-1.44-.24-.72-.48h-.48l-.24.24h-.24l-.24-.24-.24-.48.24-.72v-2.16l-.24-.48-.48-1.2.24-.48v-.24l.24-.24-.24-.96-.72-.96-.48-.48h-.48l-.24-.24-.24-.48h-.24l-.24.96v.24l.24.24v.24l-.24.48-.48.24h-1.68l-.72-.48-1.2-.72-.24-.24-.24-1.2-.24-.72-1.2-.48h-.24v.72l.48.24.72.48-.24.48h-1.44l-1.2-.24-.24-.48-.24-.48v-.48l-.72-.24h-.48l-1.44-.72v-.72l-.48.48-.24.96.24.24v-.24h1.2l.24.72.24.24-.48.24-.72.24-.48.48.24.48-.24.24-.48.24-.96.72-.24.48-.48,1.92.24.72.48.48h.48l.24-.24h.48l1.68,1.44v.72l1.2.72h1.44l.48-.24h.24l.48.24v.48l-.24.24.24.48.48.24.48.24h.72l-.48,1.44h-.48l-1.92-.24-.48.24h-1.44l-.24.24v1.68l-.48.72-.48.96-.24-.24h-.24l-.24-.24-.48-.24-.72.24.24.24v.48l-.24.24-.72,1.44.72,1.68.24.24.96.24.48.24.96.24.96.72h.24l1.44.24.24-.24h.24l.24.24.24.24v.72l-.24.24v.96l.24.24h.24v1.44l-.48.24-.48.24-.24.24-.24.96v1.2l.24.24,1.68,1.44.24-.48v.48l-.24,1.2-.24.24v.72l.96.24v-.24l1.68.24-.72.96-.24.24v1.2l.72.96.72,4.8.24.72.24.48v.24l.48.48.24.24.24.48-.48.24v-.24l-.24.48.24.24v.24l.24.24v.96l-.48.24v.48l.96,1.92v.24l-.24.24-.48.24-.96-.24h-.72l-.48.96h-.72l-.48-1.44v-1.44l.24-.96v-.48h.24l.24-.24-.24-.48-.48-.24.24.48-.24.96h-.48l-.24-.24.24-.72v-.24l-.24-.48v-.24l.24-.24.24-.24v-.24l-.48.24-.24.72.24.24v.48l-.24.48v.96l-.24.24v.96h.48l.24.24v.24l-.24,1.2-.24.48-.24.48h-.48v-.48l.24-.24v-2.4l-.24-.96-.24-.24-.24.72v.96l.24,1.2v.24l-.24.24-.48.48-.96-.24v-1.44l-.24-.24-.24-.24v.24l.24.48v.48l.24,1.2-.24.24-.72-.72-.24-.72.24-.24v-.72l-.24-.48-.24-.24-.24-.24v-.72l.24-.72.24-.24v-.48l-.24-.72-.24-.24h-.24l-.48-.24h-.48l-.24-.24h-.24l-.24-.48-.24-.72-.24-.48h-.24l.48,1.44.48.48v.24h1.44l.24.48.24.24-.24.24-.48.48-.24.24-.48.72-.24.96-.24.48-.96.72-.24.48-.48.24-.96.48-1.44.48h-.48l-.24.24-1.2.48-1.2.24-.96.48-.24.24-.24.24-.48.48-.24.48-.96.96-.24.72v1.2l.48,1.2.72,1.2.24.48v.24l-.72.24.48.72h.96l-.24.24-1.44.96-.48.48-.24.24-.24.24-.24.48v.72l.48-.24.24-.48v.48l-.24.72-.48.48-.72.48-.48.24-.48.24-.48.24v.24l-.72,1.68-.24.24-.72-.48-.24-.48h-.96l.48.48.48.24.72.24-.72.72-1.2.48-1.44.48h-.48l-.24.24-.72.24-1.2.48-.96.24-1.44.72h-.48l-.24-.24.48-.24h.24l.24-.24h.24l.24-.24-.24-.48.24-.24-.48-.48-.72-.24-.24.24-.72.48-.24.48-.96.48-.24.72-.24.48-.24.24-.24.72v.48h.48l.24-.48v-.24l.24-.48.24-.48.24.24.24-.24h.48l.24-.24h.24l-.24.72h-.72v.24h.24l-.24.24-.24.24-.96.72h-.24l-.48.72-2.16,1.92-.48.48-.24.72h-.72l.24.48.24-.24v.24l-.48.72-.48.48v.24h-.24l-.24.48-1.2,1.44-1.44,1.92-.48.48-1.44,1.92-.24.24-.48.48-.96.48-.96.24-.96.72-1.92,1.2-.72.96-1.2,1.68-.48.48-.96,1.2-.24.24-.48.24-1.44.72-1.44.96-.72.24h-.24l-1.68.96-.72.48-.24.24-.24.24-1.2.96-.48.72-.24.24-.48.96v.24l.24.24.96.24v.48l-.24.96-.24,1.2-1.2.72-.24.24-.72.48-.96.48-.48.24-1.92.48-.24.24h-.24l-.72-.24h-.72l-.72-.24h-.72l-.24-.24h-.72l-.24.24-.48.24-.24.24-.72,2.4-.24,1.2-.48.24-.48.48-.48.48v.24l.24.24-1.2-.72v-1.44h-.24v.48l.24.48-.24.24-.48,1.44-.24-.24v-.72l-.48-.24-.48-.24h-.24l-1.44.24-1.68.72-.24.24-.24.24-.24.24-.48.24v.24l-.48.72-.24.72-.72,1.44-.24.48v.24l-.48,2.16v.48l.24,2.16.24.72.48.96.24.72.24.48-.24,2.16-.48.72v.72l.24.96v.72l.24.72.48.96.24.48v.72l-.24.48v.24l.48,1.2.24.24.24.72v.24l-.24-.72-.48-.72v-.24l-.96-1.2-.72.24-.24.72v.24l.24.48.24.48h.24l.96.24.48.24.48.24.24.24.24.72-.48,1.68v.24l-.24.96-.24.96v1.68l-.48,1.2-.72,1.92v.48l-.48.48-.72.96-.48.72-.48.48v.24l-.72.72v.24l-.24.48v.48l-.24.48v.48l-.24.24v.24l-.24.24v.24l-.24.96v.96l.24,1.2.48.96.24,1.92v5.76l.24,1.68v.24l-.24.96h-.72l-.48-.24h-.48l.72.24v.24h-.48l-1.68-.48h-.72l-.96-.24-.72.48-.48.48-.48.48v.96l.24.48v.24l-.48.24-.24.24-.24.24-.24.24-.24.48-.96,1.2-.48.72-.48.72-.48,1.2.24.24.24.48.24.48.48.24.72.24h.24l.24.24h.96l1.2.24,1.2.96h-.24l-.48-.24-.24-.24-.24-.24h-.48l-.72-.24h-.48l-1.92-.24h-.24l-.96.24-.24.24h-.48l-1.44.48-2.16.72h-.72l-.24.24-1.68,1.2v.24l-.24.24-.24.48-.48,2.4v1.44l-.72.96-.48.24h-.24l-.48.48-1.92.96-1.44.48h-.48l-.24.24-.24.24-.24.24h-.48l-.48-.24-1.44-.48-.72-.48-.72-.48-.72-.72h-.24l-.24-.24-.48-.48-.48-.24v-.24h-.24l-.96-1.44-.48-.24-1.44-1.92-.96-.96V707l.48-.24h.48v-.24h-.96l-.48.24-.72-1.92-.48-.96-.24-.24-.48-1.2v-.24l-.24-.48v-.96l-.24-.24v-.96l-.24-1.44v-1.44l.24.48-.24.24v.24l.24.48.48.48h.24l.24,1.44-.24.48V701l.48.24.72.24.24-.24-.24-.24-.48-.48v-.96l-.24-1.44v-.24l-.48-.48-.24-.48-.48-.24-.24-1.44-.48-.24v.48l.24.24v.72l-.24-.48v-.24l-.24-.24-.24-.96-.72-2.16-.72-1.44-.96-2.16v-.48l-.24-.48-.24-1.44-1.44-3.84-.48-.72-.24-.24h-.24l-.48-.96-.24-.24v-.48l-.24-.72-1.44-1.68-1.2-1.44h-.24l-.48-.24-.24-.48-.48-1.44-.96-2.16-.96-1.92-.48-1.2-.24-.24v-.96l-.24-.24-.48-1.92-.48-2.16-.48-2.4v-1.2l-.48-2.16v-.24l-.48-.72-.48-1.2-.24-.96-.24-.96-.24-.48-.24-.72-.24-.96h.24l.24-.24-.48-.72-.24-.24-.24.48h-.24l-.24-.96v-.72l-.24-.48h-.24l-.48-.24-.72-.48v-.72l-.24-.48-1.2-1.68v-.96l-.48-1.44-.24-.48-.72-.24v-.24h1.2l.24.24.24.24-.24-.48-.24-.24-.72-.24h-.48l-.24-.48-.72-2.16v-.24h-.24l-.24-.24v-.72l-.24-.48-.24-.48-.48-.24v-.24l-.48-.24v-.24l-.48-.72-.24-1.68-.48-2.16-.24-.48.24-.24h.24l-.48-.96-.48-2.64v-1.44l.24-.24v-1.2l-.24-.24-.48-2.16v-.96l-.48-1.44v-.24l-.24-.48.24-.24v-.72l-.24-.24-.24-.96-.48-.96-.24-1.92v-1.2l-.48-.72v-.24l-.24-.48v-.48l.24-.48-.48-1.44v-1.44h.72l.48.24.24.72v-.72l-.48-.72-.24-.72.72-.24.72-.48-.72-.72h-.48l-.48.72-.72.72-.48-.24.24-.48.24-.48v-1.2h-.24v-1.44l.72-.24,1.44.96.24.48.24-.24v-.24l-.48-.48-.24-.24-.96-.24h-.72l-.48-.48-.24-2.4v-1.68l-.24-.24v-1.2l.24-.72.48-1.2v-.48l.24-.72v-.72l.48-.48.24-.24.24-.72.24-.24.24-.48.72-2.4v-.72l-.48.24-.24-.48-.24-.72.24-1.2v-.24l-.24-.72h-.48l-.48.48-.96-.24v-.48l.72-.24.24-.48-.72-.48h-.24l-.24-.24-.24-.96.24-.24h.24l.72-.24.72-.48h-.48l-.48.24-.48.24.24-.48v-.24l.48-.24,1.44-1.2h.24l.48.24.24-.24,2.16-.72v-.24l-.72.24-.24.24h-.48l-.48.24h-1.44l-.48-.24h-1.92v-.24l.24-.48v-.72l.24-.24.48-.72.24-.24h.72v-.48l-.96.24-.24.24-.24.24h-.24l-.48-.72.24-1.2.24-.48.24-.48h.96l.24.24.72.24.24-.24.24-.24.24-.24h.24l.24.24h.48v-.48l-.96-.24-.48.24-.96-.24-.96-.24h-.24l-.48.48h-.24l-.72-.24-.24-.48h-2.16l.24.24.72.48h.48l.24.48v.24l-.24.96-.48.48h-.24l-.72.24h-.48l-.72.24.72.24h.24v.96h-.72l-.48-.24h-.24l-.24.48.24.24h1.44l.48.48v.48h.48l.24.96-.48,1.2-.24.24-.24.48h-.24l-.72.96-.24.48v.48l-.48.48-.48.24-2.16.72-2.16.48-.96.72-.48.24-.48.24-1.68.48h-.24l-.48.24-1.68.48-1.44-.24-.96-.48-1.44-.48-.48-.48-1.92-1.2-.48-.48-.72-.72-1.2-1.44-.24-.24-1.2-1.68-.24-.48-.24-.48-.48-.48-1.2-1.68-.24-.24h-.48v-.24l-1.2-1.44-.96-.96-.72-.96-.48-.48-.72-.72-.72-1.44-.24-.24-.24-.24v-.24l-.24-.48v-.24l.48-.72.24-.24v-.24l.72-.24.72.72.24.48v.48l.24.48h.72l1.68-.24,2.4-.48,1.68-.48.72-.48.48-.24h.96l.48.24.24-.24h.24l.24-.48,1.2-1.92.48-.72.24-.24.72-.48h.48l.24-.48v-.72l-.24-.48-.72.48h-.24v1.44h-.72l-.24-.24-.72-.24-3.84.72-.24.24-.72.24-.24.48h-.24l-2.64-.96-1.44-.24-.48-.24-.72-.48-.24-.24-.48-.48-.72-.48h-.24l-.48-.24-1.2-.96-.96-.72-.96-1.44-.96-1.68v-1.92l2.16-1.2.96-.48.24-.48-1.2.24-1.68.72-.48.48-.24.24-.24.48-.24.24-.72-.24h-.72l-.24-.24.48-.48Z"/>
</svg>
