<svg id="Iran" xmlns="http://www.w3.org/2000/svg" width="612" height="792" viewBox="0 0 612 792">
    <defs>
        <style>.cls-1{fill:#fff;fill-rule:evenodd;}</style>
    </defs>
    <polygon class="cls-1"
             points="195.612 498.692 195.132 498.932 194.892 498.932 194.892 498.692 194.892 498.212 195.132 497.972 195.612 497.492 195.852 497.732 195.852 497.972 195.852 498.452 195.852 498.932 195.612 498.932 195.612 498.692"/>
    <polygon class="cls-1"
             points="201.133 498.692 200.653 498.692 199.693 499.172 199.453 499.411 199.213 499.651 198.493 499.891 197.773 500.131 197.052 500.131 196.332 499.891 195.132 499.891 194.892 499.891 193.692 500.371 191.532 500.371 191.292 500.371 191.292 500.131 191.292 499.411 191.532 499.172 191.532 499.411 191.772 499.411 192.012 499.651 193.692 499.411 194.412 499.172 194.892 499.172 195.132 498.932 195.612 498.932 195.852 499.172 196.092 498.932 196.332 498.692 196.332 498.212 196.332 497.972 196.092 497.972 196.092 497.732 196.092 497.492 196.332 497.492 196.572 497.492 197.052 497.972 198.013 497.972 198.493 497.972 199.453 497.972 199.933 497.732 200.413 497.972 200.653 497.972 200.893 498.452 201.133 498.452 201.133 498.692"/>
    <polygon class="cls-1"
             points="172.391 364.119 172.331 364.059 171.851 363.819 171.371 364.059 170.651 364.059 170.411 363.819 170.411 363.579 170.171 363.099 169.931 361.179 169.691 361.179 169.211 361.179 168.971 361.179 168.491 360.219 168.731 359.739 168.491 359.26 168.251 359.02 168.011 358.78 168.011 358.54 167.531 357.82 167.531 357.58 167.771 357.34 168.491 356.86 168.971 356.86 169.211 357.1 169.451 357.1 169.931 357.1 170.171 357.1 170.411 356.86 170.651 356.62 170.651 355.9 170.411 355.66 170.171 355.42 169.691 354.46 169.691 353.98 169.931 353.74 170.171 353.5 170.651 353.5 171.131 353.5 171.371 353.5 172.091 353.26 172.091 353.02 171.851 352.78 171.851 352.3 171.611 352.06 171.371 351.58 171.131 350.86 170.891 350.14 170.891 349.9 170.651 349.42 170.411 349.18 169.211 348.94 168.971 348.94 168.731 349.18 166.571 349.9 165.85 349.66 165.37 349.9 164.65 350.14 164.41 350.38 164.17 350.38 163.45 350.62 163.21 350.38 162.49 350.62 161.77 351.1 161.53 351.34 160.81 351.58 160.57 351.34 160.33 351.34 160.09 351.34 159.13 351.82 158.89 352.06 157.93 352.54 157.21 352.78 156.73 353.26 156.73 353.02 156.25 352.78 155.77 352.3 155.53 352.3 155.05 352.3 154.81 352.3 154.57 352.3 154.09 352.54 153.37 351.82 152.65 351.34 151.93 350.86 150.25 349.66 150.01 349.18 149.769 349.18 149.529 348.94 149.289 348.46 149.529 347.98 149.289 346.78 149.049 346.3 148.809 346.3 148.569 346.06 148.089 345.58 148.089 345.34 148.329 344.86 148.329 344.62 148.089 343.9 147.849 343.18 147.609 342.94 147.609 342.46 147.609 341.741 147.609 341.501 147.849 341.021 147.609 340.781 147.369 340.541 147.129 339.581 146.409 338.381 145.209 338.861 144.969 339.341 143.769 341.261 143.529 341.261 143.049 341.261 142.809 341.261 142.329 340.781 142.089 340.541 141.129 340.301 140.889 340.541 140.649 340.541 140.889 340.781 140.889 341.021 141.129 343.42 140.649 344.14 140.169 344.62 140.169 344.86 139.929 345.82 140.169 346.3 140.409 346.3 140.409 346.54 140.409 347.02 139.689 347.74 139.689 348.46 139.689 348.94 139.209 349.9 138.969 350.38 138.729 350.86 138.729 351.1 139.689 351.34 139.689 352.06 139.689 352.3 138.729 353.02 137.769 353.98 136.569 354.94 136.089 355.66 136.569 356.14 138.249 358.06 138.249 358.54 138.009 358.78 137.769 359.499 137.049 361.179 137.049 361.419 137.289 361.659 138.009 363.099 138.249 363.339 138.009 363.819 137.529 364.539 137.289 364.779 137.049 365.019 137.049 365.499 137.289 365.739 137.529 365.979 137.769 366.219 137.289 367.419 137.289 367.659 137.049 367.899 136.569 368.139 136.569 368.379 136.569 368.619 136.809 368.619 137.049 368.859 137.529 369.579 137.529 370.299 137.529 370.779 137.049 370.779 136.809 371.259 136.809 371.499 136.809 371.979 136.809 372.459 136.809 372.699 137.049 372.939 137.049 373.179 137.289 373.179 137.529 373.179 137.769 373.179 138.009 373.419 138.009 373.899 137.769 375.339 137.529 376.539 137.529 377.258 137.769 378.218 138.249 378.218 138.489 378.218 139.209 379.178 139.449 379.418 139.449 379.658 139.449 380.138 139.449 380.618 139.449 380.858 139.689 380.858 140.409 381.338 140.649 381.338 142.329 381.578 142.569 381.818 142.569 382.058 142.809 382.298 142.809 382.538 143.289 382.538 143.769 382.538 144.009 382.538 144.009 382.778 143.769 383.258 143.049 383.498 142.809 383.498 142.089 383.498 141.849 383.258 141.609 383.258 141.129 383.018 140.409 383.978 140.169 384.938 140.409 386.138 140.649 387.338 140.409 387.578 140.649 388.058 140.649 388.298 140.169 389.258 138.969 389.258 138.729 389.018 138.489 388.778 137.769 389.018 137.529 389.498 137.529 389.738 137.049 390.458 136.569 389.978 136.089 390.698 135.849 390.698 135.609 390.698 135.369 390.698 134.889 391.418 134.889 391.658 134.889 391.898 134.889 392.378 134.889 393.098 134.649 393.338 134.169 392.858 133.688 392.618 132.248 393.338 132.008 394.298 132.248 394.777 132.488 394.777 132.728 394.777 132.728 395.257 132.728 395.497 132.008 396.937 131.768 396.937 131.048 397.177 130.088 398.137 130.328 398.377 130.328 398.617 130.568 398.617 130.808 398.617 131.048 399.337 131.288 401.017 131.288 401.257 131.288 401.977 131.768 402.457 131.528 402.937 131.768 402.937 132.008 402.937 132.728 403.177 132.968 403.897 132.248 404.137 132.248 404.377 132.488 404.617 132.728 404.857 133.208 404.857 133.208 405.097 133.208 405.577 133.208 405.817 133.208 406.057 133.448 407.017 133.688 407.497 133.688 408.457 133.448 408.457 132.968 408.697 132.488 409.177 132.248 409.897 132.008 410.377 132.488 410.617 132.728 410.617 133.208 410.857 133.448 410.857 133.688 411.097 134.169 411.337 134.409 411.577 134.649 411.816 134.889 412.296 135.369 412.776 135.849 413.736 136.089 413.976 136.329 414.216 136.569 414.456 137.049 415.416 137.049 415.656 137.049 415.896 137.289 416.136 137.529 416.616 137.529 416.856 138.009 417.816 138.249 418.056 138.489 418.536 138.729 418.536 138.969 418.776 139.449 418.776 139.689 418.776 140.409 419.256 140.649 420.216 140.409 420.456 140.889 422.376 141.129 423.576 141.129 424.056 141.609 425.736 141.849 426.216 142.329 427.176 142.329 427.416 141.849 428.136 141.369 428.616 140.409 429.815 139.929 430.295 139.689 430.775 139.209 431.735 139.209 432.455 138.969 432.695 138.969 432.935 138.729 433.655 138.249 434.855 139.449 435.335 140.169 435.575 141.129 436.055 140.889 436.535 139.929 439.415 139.689 439.895 139.449 440.855 139.689 441.335 139.929 441.575 140.169 441.815 140.409 442.055 141.129 443.255 141.609 444.935 141.609 445.415 141.369 445.895 141.369 447.094 141.609 447.334 142.089 447.814 142.569 448.054 142.809 448.054 143.049 447.814 143.769 447.574 144.249 447.814 144.969 448.294 145.449 448.054 145.689 447.814 145.929 446.855 146.169 446.615 146.169 445.895 145.929 445.655 145.689 445.175 145.929 444.695 147.129 443.735 147.369 443.495 147.849 443.735 148.329 443.975 149.049 444.455 149.289 444.695 149.529 445.175 149.049 445.655 148.569 445.655 148.089 445.175 147.849 444.935 146.649 444.695 146.889 445.895 148.569 447.574 149.049 448.054 149.529 448.054 150.01 448.294 150.25 448.534 150.49 448.774 150.49 449.014 150.49 449.254 150.25 449.494 150.73 450.454 150.97 450.454 152.41 449.974 153.37 449.494 153.85 449.494 154.09 449.494 154.33 449.494 155.05 449.494 155.29 449.494 155.29 449.734 155.53 449.734 155.53 450.214 155.53 450.454 155.77 450.694 155.77 451.414 155.53 451.894 155.53 452.134 155.29 452.614 155.29 452.854 155.53 453.094 155.53 453.334 155.77 453.334 156.01 453.814 156.25 454.534 156.73 456.214 156.73 456.454 156.97 456.694 157.21 456.694 158.17 458.614 158.17 458.854 158.17 459.334 158.17 459.574 157.69 461.014 157.45 461.734 157.21 462.214 157.69 462.454 157.93 462.454 158.89 462.694 159.37 463.174 159.61 463.654 159.37 464.134 159.37 464.374 158.89 464.853 158.65 464.374 158.41 464.134 158.17 464.374 158.17 464.613 158.41 465.573 158.41 465.813 158.65 466.053 158.89 466.053 159.13 466.293 159.61 466.533 159.61 466.773 159.61 467.253 159.85 467.733 159.61 467.973 159.61 468.693 159.37 469.173 159.37 469.893 159.61 470.853 160.09 472.533 159.85 473.733 160.09 474.933 160.81 476.373 161.77 477.813 162.01 477.813 162.97 478.293 163.45 478.293 163.69 478.293 163.93 478.293 165.37 479.013 165.61 479.253 165.85 479.253 166.331 480.213 166.571 480.453 166.571 480.693 166.811 480.933 167.051 481.173 167.291 481.173 168.011 481.893 168.731 482.133 169.211 482.612 169.451 483.092 169.931 484.532 169.691 485.012 169.211 485.012 169.451 485.492 169.931 485.972 170.171 485.972 170.651 486.452 171.131 487.172 171.371 487.652 172.331 488.852 173.291 489.572 173.771 489.812 174.251 490.292 174.731 490.772 175.451 491.012 175.931 491.492 175.931 491.732 175.931 491.972 175.931 492.212 175.931 492.692 177.131 494.132 177.371 494.612 177.851 494.852 178.811 495.332 179.531 495.332 180.731 495.572 180.971 495.812 181.211 495.812 181.451 496.052 181.692 496.052 181.932 496.292 182.172 496.292 182.652 496.052 182.892 496.292 183.132 496.532 183.132 497.012 184.092 497.972 185.772 499.411 186.732 499.651 187.212 499.651 190.572 498.452 191.292 497.972 191.532 497.972 192.252 498.212 192.492 498.452 192.732 498.692 192.972 498.692 193.452 498.692 194.652 498.452 194.652 498.212 194.652 497.972 194.652 497.492 194.892 497.012 195.372 496.772 195.612 496.772 195.852 496.772 196.812 497.012 197.292 497.012 198.253 497.012 198.493 496.772 199.933 496.292 200.173 496.052 201.853 496.292 202.093 496.292 203.533 497.012 204.493 497.252 204.733 497.492 204.973 497.492 205.933 497.972 206.413 498.692 206.413 498.932 206.173 499.172 206.173 499.411 207.373 501.091 207.373 501.331 207.373 501.571 207.373 501.811 207.373 502.531 207.373 502.771 207.613 503.731 207.373 504.211 207.373 504.691 207.133 505.171 206.893 505.411 206.893 505.891 207.133 509.251 207.133 509.491 207.133 510.211 207.133 510.451 207.373 510.451 207.613 511.171 207.853 511.891 207.853 512.371 207.613 512.611 207.853 512.851 209.533 513.571 210.493 514.051 210.973 513.811 211.453 514.051 211.693 514.051 211.933 514.531 211.693 515.011 212.173 515.011 212.653 515.011 213.374 515.011 213.614 515.251 213.614 515.731 213.854 515.971 213.854 516.211 214.094 516.451 214.094 516.691 214.574 516.931 215.054 517.171 216.494 516.931 216.734 516.931 216.974 516.931 217.214 516.931 218.174 517.41 220.094 518.13 220.574 518.13 220.814 518.13 221.054 518.13 221.774 518.85 222.014 519.09 222.014 519.33 222.494 520.05 222.494 520.29 222.734 520.29 223.454 520.53 223.694 520.53 224.654 520.53 225.854 520.29 226.334 520.29 226.574 520.29 227.054 520.53 227.294 520.77 227.534 521.25 227.774 521.49 228.014 521.49 228.254 521.49 228.494 521.49 228.975 521.73 229.455 521.73 229.935 521.73 231.135 522.45 232.335 522.69 233.295 522.93 234.015 523.41 234.255 523.65 235.455 524.37 235.455 523.89 235.215 523.65 234.975 523.41 235.215 522.93 235.455 522.93 235.695 522.69 235.935 522.69 236.415 522.69 236.655 522.93 236.895 522.93 236.895 523.17 237.135 523.41 236.895 523.65 236.895 523.89 236.895 524.13 236.895 524.85 237.135 524.85 237.855 525.09 238.335 525.33 240.015 525.81 240.255 526.05 241.935 526.77 242.175 527.01 242.175 527.25 243.855 527.97 244.095 528.21 244.816 527.97 245.056 527.49 245.776 527.25 246.016 527.25 246.496 526.29 246.496 525.81 246.736 525.33 246.976 524.13 246.976 523.41 247.696 521.25 247.936 521.25 248.416 521.25 248.656 521.01 248.656 520.77 248.896 519.81 249.376 518.37 249.616 517.65 249.856 517.41 249.856 517.171 250.096 517.171 251.776 516.691 252.016 516.691 252.256 516.691 252.736 516.211 252.976 516.451 253.456 516.451 253.936 516.691 254.176 516.451 253.936 515.971 254.416 515.251 255.616 514.771 256.336 514.771 256.816 515.011 257.296 515.011 258.256 515.011 258.736 514.771 258.976 514.531 259.456 514.531 260.657 514.771 261.137 515.011 261.617 515.251 262.337 515.491 262.577 515.251 263.297 513.091 263.777 512.371 264.017 511.171 264.017 510.931 264.257 510.451 264.737 510.691 264.737 510.451 264.497 509.491 263.777 509.011 262.337 509.011 261.857 509.011 261.377 509.011 260.176 508.531 259.936 508.291 260.417 507.091 260.657 506.611 260.897 506.371 261.137 503.491 261.137 503.251 261.137 503.011 261.137 502.531 260.897 501.331 260.897 501.091 260.897 500.851 261.137 499.891 261.377 499.172 261.617 498.692 261.617 498.212 260.657 498.212 260.176 498.212 259.696 498.212 259.456 497.492 258.976 496.772 258.496 495.812 257.776 495.572 256.816 495.092 254.416 493.892 254.176 493.652 253.696 492.692 252.256 490.772 252.256 490.532 252.016 489.572 251.776 488.612 251.536 487.652 251.056 486.692 250.576 485.492 250.576 485.252 250.336 484.052 250.336 483.572 248.656 480.693 247.456 478.533 247.696 478.053 249.136 477.093 250.576 475.893 251.056 475.413 251.776 474.933 252.736 474.213 256.816 470.613 258.016 468.453 258.016 466.773 257.776 466.293 257.776 465.813 257.776 465.333 257.776 464.853 257.536 464.613 255.376 463.654 253.216 462.934 252.496 462.694 250.336 461.974 250.336 460.054 250.576 459.094 250.816 457.174 250.816 456.694 251.056 456.454 251.296 455.734 251.536 454.774 251.776 454.534 251.776 454.054 251.776 453.334 251.296 450.214 251.296 448.054 251.056 445.895 251.056 445.655 251.056 445.415 251.056 445.175 251.296 444.455 251.776 443.975 252.736 443.255 252.976 442.775 253.456 442.535 254.176 441.575 254.416 441.575 254.896 441.575 254.896 441.335 254.896 441.095 254.656 441.095 254.416 440.855 253.696 440.615 253.216 440.615 252.736 440.375 252.256 440.135 252.016 439.895 251.776 439.655 251.776 439.415 251.776 439.175 251.776 438.935 251.776 438.455 252.256 437.975 252.256 437.735 252.496 436.295 252.496 435.575 252.496 435.095 252.496 434.855 252.496 434.615 252.736 434.375 252.736 434.135 252.976 433.895 254.416 432.935 254.896 432.935 255.136 432.935 255.616 433.175 256.096 433.175 256.096 432.935 255.616 431.495 255.376 431.255 255.136 430.775 255.376 430.535 255.616 430.535 256.096 430.535 256.336 430.535 257.536 430.055 258.496 428.616 258.736 427.896 259.456 426.456 259.696 425.736 259.696 425.256 259.696 425.016 259.696 424.776 259.696 424.296 259.936 423.816 260.657 423.336 261.857 421.656 261.857 421.416 261.857 420.696 261.857 420.456 261.617 420.216 261.617 419.736 262.337 418.536 262.097 417.816 262.097 417.576 262.097 417.336 262.337 415.896 262.337 415.656 262.577 415.176 262.577 414.936 262.577 413.736 262.577 412.296 263.057 410.857 263.057 410.137 263.057 409.897 262.337 409.897 261.377 409.657 260.176 409.417 259.216 409.177 258.976 409.177 257.776 408.937 256.576 408.697 256.336 408.457 255.616 405.817 255.376 405.577 255.136 405.097 255.136 404.857 255.136 404.617 255.136 404.377 254.656 403.897 253.216 402.697 252.496 402.217 251.296 401.257 250.816 401.017 250.336 399.817 250.336 399.097 250.336 398.857 250.576 398.377 250.576 398.137 250.576 397.657 250.336 397.657 250.096 397.657 249.856 397.657 249.616 397.657 249.376 397.417 248.896 396.937 248.656 396.457 248.416 396.217 247.936 395.737 247.456 395.497 246.496 395.257 245.776 395.257 245.536 395.257 245.296 395.017 244.095 395.017 243.855 395.017 243.375 394.777 242.175 394.058 241.935 393.818 242.175 393.578 241.935 392.858 238.575 390.458 237.855 390.458 237.135 390.218 236.655 389.978 236.175 389.498 235.935 389.258 236.175 388.298 236.415 388.298 235.695 386.138 235.455 385.898 235.215 385.898 234.975 386.138 234.255 386.618 233.295 386.138 232.815 385.898 232.575 385.658 232.335 385.418 232.095 385.178 232.095 384.938 231.615 384.938 230.415 384.938 230.415 384.698 229.695 384.698 229.455 384.458 229.215 384.698 228.975 384.698 228.734 384.698 228.494 385.178 228.254 385.178 228.494 385.658 228.254 386.138 227.294 385.898 227.054 385.658 226.574 385.658 226.094 385.658 225.854 385.658 225.374 385.418 224.654 384.938 224.414 384.698 224.174 384.698 223.934 384.458 223.694 384.458 223.214 384.458 222.254 384.218 221.534 384.218 221.294 384.218 221.054 384.218 220.814 384.458 220.574 384.458 219.374 384.698 218.894 384.698 218.654 384.698 217.934 385.178 217.694 385.178 217.454 385.418 216.734 385.898 216.494 386.138 216.254 386.138 216.014 386.138 215.534 386.138 215.294 386.618 215.054 387.098 215.054 387.338 215.054 387.818 214.574 388.538 214.334 388.538 213.614 389.018 213.133 388.778 212.893 388.538 212.653 388.538 212.173 388.538 211.933 388.778 211.453 389.018 211.213 389.018 210.733 389.018 209.533 389.018 207.373 388.058 207.133 389.498 207.133 391.418 207.133 392.378 206.893 393.098 206.893 393.578 206.653 393.578 205.933 393.578 205.453 393.578 204.013 392.858 203.773 392.618 203.533 392.138 204.013 392.138 204.013 392.378 204.973 392.378 205.453 392.618 206.173 392.618 206.893 392.378 205.693 392.378 205.453 392.378 204.733 392.138 203.053 391.898 202.573 391.658 202.333 391.658 200.653 391.418 198.973 391.418 198.733 391.418 198.253 391.418 197.052 391.418 196.812 391.418 195.372 391.418 194.412 391.178 194.172 391.178 193.932 391.178 192.732 391.178 192.492 391.178 192.012 391.178 191.772 391.178 191.292 391.178 191.052 391.178 190.812 391.178 190.332 391.178 190.092 391.178 190.092 390.938 189.372 390.698 187.452 389.498 186.492 389.018 186.252 388.778 185.772 388.538 185.052 388.058 184.812 387.818 184.572 387.818 184.332 387.578 183.612 387.338 183.132 386.858 183.132 386.618 182.892 386.618 182.892 386.378 182.412 385.898 182.412 385.658 180.971 383.738 180.731 383.498 180.491 383.498 180.011 382.538 179.291 381.338 179.051 381.098 179.051 380.618 178.811 379.418 178.811 379.178 178.811 378.938 179.051 378.458 178.811 378.218 177.131 377.018 176.651 376.779 174.731 375.819 173.771 375.339 173.531 375.339 173.291 375.099 172.571 374.379 172.331 374.139 171.611 373.179 171.371 372.699 171.371 372.219 171.131 371.979 171.131 371.259 171.131 371.019 171.131 369.819 171.371 368.139 171.851 365.499 172.091 365.019 172.391 364.119"/>
</svg>
