<svg id="Iraq" xmlns="http://www.w3.org/2000/svg" width="612" height="792" viewBox="0 0 612 792">
    <defs>
        <style>.cls-1{fill:#fff;fill-rule:evenodd;}</style>
    </defs>
    <polygon class="cls-1"
             points="75.365 394.298 76.325 393.818 76.565 392.378 74.645 392.138 75.125 390.218 75.845 390.458 77.285 380.618 77.525 380.618 78.965 380.618 83.045 380.138 84.725 380.138 86.885 379.898 88.806 379.658 90.246 379.658 90.726 379.418 95.046 379.178 98.166 378.698 98.646 378.218 99.846 377.258 101.526 376.059 102.006 374.619 102.486 373.179 102.727 372.699 102.967 371.979 102.967 371.739 103.207 371.499 103.447 371.259 103.687 371.019 103.927 370.539 104.167 370.299 104.167 370.059 104.407 369.579 104.647 369.339 104.647 369.099 105.367 368.859 106.087 368.139 106.807 366.219 106.807 365.739 106.807 364.059 106.807 363.579 108.487 360.939 109.447 359.979 109.927 359.499 113.527 360.459 119.288 357.82 119.288 357.58 119.288 357.1 119.528 357.1 120.728 357.34 121.208 357.58 121.208 357.34 123.128 356.14 123.368 355.9 123.608 355.9 123.848 356.14 124.088 356.86 124.328 356.86 124.568 357.1 125.048 357.1 126.248 357.34 128.168 359.499 129.128 360.219 130.568 360.939 131.288 361.179 131.528 360.939 131.768 360.699 132.248 360.699 132.488 360.699 132.728 360.939 132.968 360.939 133.688 361.659 133.688 362.139 133.688 362.619 133.448 362.859 133.208 362.859 132.728 363.339 132.728 364.779 133.208 365.019 133.448 364.779 133.688 364.539 134.409 364.539 134.649 364.539 134.889 364.299 135.609 364.299 135.609 364.059 135.849 364.059 136.329 363.819 137.049 364.299 137.289 364.539 137.289 364.779 137.049 365.019 137.049 365.499 137.289 365.739 137.529 365.979 137.769 366.219 137.289 367.419 137.289 367.659 137.049 367.899 136.569 368.139 136.569 368.379 136.569 368.619 136.809 368.619 137.049 368.859 137.529 369.579 137.529 370.299 137.529 370.779 137.049 370.779 136.809 371.259 136.809 371.499 136.809 371.979 136.809 372.459 136.809 372.699 137.049 372.939 137.049 373.179 137.289 373.179 137.529 373.179 137.769 373.179 138.009 373.419 138.009 373.899 137.769 375.339 137.529 376.539 137.529 377.258 137.769 378.218 138.249 378.218 138.489 378.218 139.209 379.178 139.449 379.418 139.449 379.658 139.449 380.138 139.449 380.618 139.449 380.858 139.689 380.858 140.409 381.338 140.649 381.338 142.329 381.578 142.569 381.818 142.569 382.058 142.809 382.298 142.809 382.538 143.289 382.538 143.769 382.538 144.009 382.538 144.009 382.778 143.769 383.258 143.049 383.498 142.809 383.498 142.089 383.498 141.849 383.258 141.609 383.258 141.129 383.018 140.409 383.978 140.169 384.938 140.409 386.138 140.649 387.338 140.409 387.578 140.649 388.058 140.649 388.298 140.169 389.258 138.969 389.258 138.729 389.018 138.489 388.778 137.769 389.018 137.529 389.498 137.529 389.738 137.049 390.458 136.569 389.978 136.089 390.698 135.849 390.698 135.609 390.698 135.369 390.698 134.889 391.418 134.889 391.658 134.889 391.898 134.889 392.378 134.889 393.098 134.649 393.338 134.169 392.858 133.688 392.618 132.248 393.338 132.008 394.298 132.248 394.777 132.488 394.777 132.728 394.777 132.728 395.257 132.728 395.497 132.008 396.937 131.768 396.937 131.048 397.177 130.088 398.137 130.328 398.377 130.328 398.617 130.568 398.617 130.808 398.617 131.048 399.337 131.288 401.017 131.288 401.257 131.288 401.977 131.768 402.457 131.528 402.937 131.768 402.937 132.008 402.937 132.728 403.177 132.968 403.897 132.248 404.137 132.248 404.377 132.488 404.617 132.728 404.857 133.208 404.857 133.208 405.097 133.208 405.577 133.208 405.817 133.208 406.057 133.448 407.017 133.688 407.497 133.688 408.457 133.448 408.457 132.968 408.697 132.488 409.177 132.248 409.897 132.008 410.377 132.488 410.617 132.728 410.617 133.208 410.857 133.448 410.857 133.688 411.097 134.169 411.337 134.409 411.577 134.649 411.816 134.889 412.296 135.369 412.776 135.849 413.736 136.089 413.976 136.329 414.216 136.569 414.456 137.049 415.416 137.049 415.656 137.049 415.896 137.289 416.136 137.529 416.616 137.529 416.856 138.009 417.816 138.249 418.056 138.489 418.536 138.729 418.536 138.969 418.776 139.449 418.776 139.689 418.776 140.409 419.256 140.649 420.216 140.409 420.456 140.889 422.376 141.129 423.576 141.129 424.056 141.609 425.736 141.849 426.216 142.329 427.176 142.329 427.416 141.849 428.136 141.369 428.616 140.409 429.815 139.929 430.295 139.689 430.775 139.209 431.735 139.209 432.455 138.969 432.695 138.969 432.935 138.729 433.655 138.249 434.855 139.449 435.335 140.169 435.575 141.129 436.055 140.889 436.535 139.929 439.415 139.689 439.895 139.449 440.855 139.689 441.335 139.929 441.575 140.169 441.815 140.409 442.055 141.129 443.255 141.609 444.935 141.609 445.415 141.369 445.895 141.369 447.094 141.609 447.334 142.089 447.814 142.089 448.054 141.849 448.054 141.129 447.814 140.649 447.574 140.409 447.334 140.169 447.094 139.929 446.855 139.689 446.615 139.689 446.375 139.449 446.135 139.209 445.895 138.489 445.655 137.529 445.415 137.289 445.415 135.609 444.215 133.208 443.255 132.968 443.015 132.488 443.015 131.288 443.015 130.808 443.015 130.568 443.255 130.328 443.255 130.088 443.495 129.848 443.975 129.128 444.935 128.168 446.135 127.688 446.615 127.448 446.855 126.488 447.574 126.248 447.814 125.528 448.294 124.808 449.014 124.328 449.494 123.848 449.734 123.368 449.734 123.128 449.974 122.888 449.974 122.888 450.214 121.688 450.214 119.288 449.014 108.007 443.255 102.967 433.415 98.886 425.496 98.166 424.056 93.606 415.176 89.526 410.137 83.765 400.777 81.365 398.857 77.285 395.737 75.365 394.298"/>
</svg>
