<svg id="Israel" xmlns="http://www.w3.org/2000/svg" width="612" height="792" viewBox="0 0 612 792">
    <defs>
        <style>.cls-1{fill:#fff;fill-rule:evenodd;}</style>
    </defs>
    <path class="cls-1"
          d="M44.1628,381.8182v.24h-.24v-.24l.24-.24Zm-3.12,8.88-.48.24-.72.96v.24l-.72.48-.48.48-.24.24-.96,1.2-.24.24-.48.96-.48,1.68-.24.24-.24.24h-.24l-.24.24-.72.72-.24.48v.24l-.24.24-1.44,1.92-.48.48v.24h-.48l-.48.24v-.48l.24-.72.24-.24v-.24l.24-.96.48-2.88v-.96l.48-3.12-.24-.72v-.48l.48-.24.24-2.4.24-1.92.48-3.6v-.48l.72-.24.48-.24.24-.48.24-.24,1.2-.48h.48l.24-.24-.24-.72.24-.24.72-.48.48-.24,1.2-.96.72-.72.24-.24.24-.24.72-.96.48-.24v-.24l.72-.72.72-.96.24-.24.48-.72,1.2-1.68.48-.48.24-.72.24.24.24.24.48-.24.24-.24.24-.72.24-.24.24-.24.24-.48.24-.24,1.2.72.24.24.24.48.48.24h.72v-.24h.24l.48-.48.72-.72v.48h.48v.24l-.24.24-.48.72-.24.48-.24.24-.24.48-.24.72-.24.24h-.24v1.2l-.24.24-.24.24v.24l-.24.24h-.72l-1.2,2.4-.48-.48v-1.2l-.48-.48h-.48v-.24l-.48-.48h-.24l-.96.24-.24.24h-.24v.24l-.24.24-.72,1.2-.72.72v.24l-.24.72-.24.24-.24.48-.72.96-.24.48h.24l.24.24.72.24.24.48.24.48-.24.24h-.96l-.96.24h-.24l-.24.24h-.24v.24l-.24.72h-.24l-.48.24-.24.24v.96l1.68.72h.96l1.44-.24h.24l.24.24h.24l-.24.48-.24.48-.24.48-.96.96v1.2l-.24.24-1.2,1.2Z"/>
</svg>
