<svg id="Jordan" xmlns="http://www.w3.org/2000/svg" width="612" height="792" viewBox="0 0 612 792">
    <defs>
        <style>.cls-1{fill:#fff;fill-rule:evenodd;}</style>
    </defs>
    <polygon class="cls-1"
             points="44.403 385.658 44.643 385.418 44.643 385.178 44.883 384.698 45.123 384.458 45.603 383.738 45.843 383.738 46.083 383.498 46.323 382.778 46.803 381.818 47.043 381.098 47.043 380.618 48.243 379.178 48.963 377.498 48.963 377.258 50.163 374.859 50.643 374.859 50.883 374.859 51.363 374.859 52.083 374.859 52.323 374.859 53.283 375.819 53.523 376.539 53.523 377.018 53.523 377.978 53.763 378.458 54.003 378.698 54.483 378.698 54.963 379.898 54.963 380.138 55.203 380.858 55.924 381.338 55.924 381.578 56.884 382.298 57.364 382.778 58.084 383.258 58.564 383.258 61.444 382.778 64.804 382.298 66.004 382.058 69.124 381.818 72.725 381.338 74.885 381.098 76.325 380.858 77.285 380.618 75.845 390.458 75.125 390.218 74.645 392.138 76.565 392.378 76.325 393.818 75.365 394.298 73.925 394.537 73.205 395.017 68.644 394.058 64.324 393.338 61.924 392.858 60.004 392.618 57.604 392.138 55.924 391.898 56.884 395.977 57.604 398.617 57.844 399.577 59.284 405.577 56.164 406.057 53.283 408.457 52.563 408.457 49.443 407.497 47.043 406.777 43.443 409.417 41.043 410.137 38.882 410.617 35.282 407.497 32.642 405.577 31.202 404.137 31.442 403.417 31.682 403.177 32.162 402.697 32.162 402.457 32.162 402.217 32.642 401.737 34.082 399.817 34.322 399.577 34.322 399.337 34.562 398.857 35.282 398.137 35.522 397.897 35.762 397.897 36.002 397.657 36.242 397.417 36.722 395.737 37.202 394.777 37.442 394.537 38.402 393.338 38.642 393.098 39.122 392.618 39.843 392.138 39.843 391.898 40.563 390.938 41.043 390.698 41.283 390.698 42.483 389.498 42.723 389.258 42.723 389.018 42.723 388.298 42.723 388.058 43.683 387.098 43.923 386.618 44.163 386.138 44.403 385.658"/>
</svg>
