<svg id="Kazakhstan" xmlns="http://www.w3.org/2000/svg" width="612" height="792" viewBox="0 0 612 792">
    <defs>
        <style>.cls-1{fill:#fff;fill-rule:evenodd;}</style>
    </defs>
    <polygon class="cls-1"
             points="209.773 340.541 210.253 340.301 213.374 338.621 214.334 338.141 214.814 338.141 215.054 337.901 217.694 337.661 217.934 337.661 218.414 337.661 218.654 337.661 219.374 337.661 219.854 337.901 220.094 337.901 220.334 337.901 221.294 337.901 222.014 338.141 222.254 338.141 222.494 338.141 222.974 338.141 223.214 338.141 223.454 338.141 224.174 338.621 224.414 338.621 224.414 338.861 224.654 339.101 224.894 339.581 226.574 341.261 227.534 342.46 227.534 342.7 228.494 344.38 228.494 344.62 228.494 345.1 228.254 345.58 228.494 345.82 228.494 346.06 228.734 346.54 228.975 347.5 229.215 347.98 229.215 348.7 229.215 348.94 229.455 349.18 229.455 349.42 229.695 350.14 229.695 350.38 229.935 350.62 230.175 350.86 230.415 351.1 230.415 351.58 230.415 351.82 230.895 352.3 231.855 352.54 233.055 352.78 233.295 352.54 233.535 352.54 233.775 352.54 234.015 352.54 234.495 352.78 234.735 352.54 235.215 350.14 236.175 347.02 236.895 344.62 237.135 343.66 237.855 341.021 238.575 338.381 239.295 335.741 239.535 335.021 240.255 332.381 241.215 329.501 241.935 327.101 242.175 326.381 243.855 320.622 244.335 318.462 245.296 315.822 247.216 315.582 248.176 315.582 250.096 315.582 250.576 315.582 250.816 315.582 251.056 315.582 253.216 315.342 255.856 315.342 257.296 315.342 258.736 315.102 260.417 315.102 262.577 315.102 264.737 314.862 270.737 322.542 279.618 333.101 280.338 334.541 282.018 337.661 283.218 339.581 283.938 341.021 284.178 341.741 284.418 341.741 287.058 341.741 287.778 341.98 288.738 341.98 290.418 341.98 293.299 341.98 294.739 342.46 295.699 342.7 297.379 343.18 298.819 343.66 299.059 343.9 302.179 344.62 303.379 344.14 305.299 343.66 306.019 343.42 306.739 344.38 307.699 346.3 307.94 346.78 309.38 347.98 309.62 348.22 310.34 350.14 310.82 352.06 311.06 353.26 313.7 352.3 313.22 354.46 312.98 355.66 312.74 356.38 312.26 358.06 312.02 358.06 311.78 359.02 311.78 359.739 311.3 361.899 311.3 362.379 314.9 363.099 314.9 364.059 314.9 364.779 314.9 365.739 314.9 365.979 314.9 368.619 315.14 371.739 315.38 371.979 315.62 371.979 316.34 372.219 317.78 372.459 318.5 372.459 319.94 372.699 320.66 372.699 321.14 372.699 321.38 372.699 322.34 372.699 323.06 372.699 324.501 372.939 324.981 373.659 325.701 374.379 325.941 374.619 325.941 375.339 325.461 376.059 325.461 376.299 325.221 376.539 324.981 376.539 324.981 377.018 325.941 378.218 326.181 378.218 326.421 378.458 326.661 378.698 327.861 379.418 327.861 379.658 328.821 379.658 329.301 379.658 329.301 378.938 329.301 378.458 329.061 378.218 329.061 377.018 329.301 376.299 329.541 376.299 329.781 376.059 330.261 375.819 330.501 375.579 330.741 375.339 330.741 375.099 330.981 374.859 331.701 374.619 332.901 373.899 333.381 373.659 333.381 373.179 333.621 372.219 333.381 372.219 334.821 371.499 335.061 371.259 335.781 371.259 336.981 370.539 338.181 369.579 339.141 369.339 339.382 369.339 339.862 369.339 340.582 369.579 341.542 368.859 342.262 368.379 342.502 368.379 342.742 367.899 343.222 367.179 343.942 366.459 344.182 366.219 344.422 366.219 345.142 365.979 345.382 365.979 345.622 366.219 345.622 366.699 346.342 366.939 346.342 366.699 346.582 366.459 346.582 366.219 347.302 365.259 347.782 365.259 348.022 365.259 348.502 365.259 348.502 365.019 348.982 364.779 349.222 364.779 348.982 364.779 348.742 364.539 348.502 364.059 348.982 363.579 349.222 363.339 349.222 362.859 349.942 361.419 350.182 361.419 351.142 360.939 351.142 360.459 351.862 359.739 353.062 359.499 353.542 359.499 353.782 359.739 354.262 359.979 354.502 359.979 354.742 359.739 354.982 359.739 355.463 359.499 355.703 359.499 356.183 359.499 356.663 359.499 357.143 359.739 357.383 359.739 358.823 360.219 359.543 360.459 359.783 360.459 360.023 360.699 360.983 361.179 362.183 361.419 363.143 361.899 363.383 362.139 363.383 362.379 363.623 362.859 363.863 362.859 363.863 363.099 364.103 363.099 364.583 363.099 365.063 363.099 366.023 363.099 367.463 363.819 367.223 364.299 367.463 364.539 368.663 364.779 368.903 364.779 368.663 364.539 368.663 364.299 368.423 363.819 368.183 363.579 368.183 363.339 368.183 363.099 368.183 362.619 368.423 361.659 368.663 361.419 369.143 360.939 369.143 360.459 369.143 359.499 369.623 358.3 370.103 358.06 370.583 358.06 371.303 357.82 372.264 357.82 372.504 357.58 373.464 357.1 374.664 357.1 375.144 356.86 375.624 357.1 375.864 357.34 377.304 358.06 377.544 358.54 377.784 359.02 378.504 359.499 378.744 359.499 378.984 359.499 379.224 359.499 379.464 359.739 380.904 360.459 381.624 360.939 382.104 361.179 382.584 361.179 384.504 361.419 384.744 361.419 384.984 361.659 385.224 361.899 385.944 361.419 386.184 360.939 386.184 360.699 386.184 360.459 386.424 360.459 386.664 360.459 387.145 360.459 388.825 360.459 389.785 360.699 390.265 360.699 390.745 360.939 390.985 361.179 392.665 361.179 393.385 360.939 394.105 360.699 394.345 360.459 395.305 360.219 396.505 360.699 396.745 360.699 396.985 361.179 397.465 361.179 398.665 361.179 399.625 361.179 400.585 361.179 400.825 361.179 402.746 361.419 402.746 361.659 402.986 361.659 403.706 361.899 403.946 361.899 404.186 361.899 404.426 361.899 406.586 361.659 407.066 361.659 408.026 362.379 410.906 363.099 411.146 363.099 411.386 362.859 411.626 362.619 411.866 362.619 412.106 362.859 412.106 363.099 412.106 363.339 412.106 363.579 412.346 363.819 412.346 364.059 412.586 364.299 412.826 364.539 413.066 364.539 413.306 364.779 413.546 365.019 413.786 365.499 413.786 365.739 414.026 365.979 414.266 366.219 414.506 366.219 414.746 366.219 414.986 366.219 415.226 366.219 415.706 365.979 415.946 365.979 417.626 366.459 417.866 366.459 419.067 367.899 419.547 368.379 419.547 368.619 419.787 368.859 420.027 368.859 420.507 368.619 420.507 368.379 420.267 367.659 420.267 367.419 420.027 367.179 419.547 364.299 419.547 364.059 420.027 362.859 420.267 362.619 420.267 362.379 420.507 362.379 420.747 362.379 420.987 362.379 422.667 361.659 422.667 361.419 422.427 361.419 422.187 361.179 421.947 361.179 421.707 360.939 421.227 360.699 421.227 360.219 422.907 359.26 423.147 359.02 423.387 359.02 423.627 359.26 423.867 359.499 424.107 359.499 424.347 359.26 424.347 359.02 424.347 358.78 424.107 357.82 423.867 355.66 423.387 354.94 422.907 353.74 422.667 353.02 422.427 352.3 422.187 352.06 422.187 351.82 422.187 351.58 421.947 351.34 421.947 351.1 421.467 349.9 420.987 349.18 420.987 348.7 421.227 348.22 421.227 347.98 421.227 347.5 420.987 346.54 420.987 345.82 420.747 345.58 420.987 343.66 421.947 342.94 421.947 342.7 421.467 342.46 420.267 341.741 420.027 341.741 419.307 341.98 418.587 341.98 418.346 341.98 417.386 341.261 417.386 341.021 418.827 339.821 419.067 339.581 419.307 339.581 419.547 339.581 420.267 339.581 421.227 339.341 421.467 339.341 422.187 338.861 423.627 338.381 423.867 338.381 424.827 338.381 425.547 338.141 426.747 337.661 427.227 337.421 428.427 337.181 428.907 336.941 429.147 336.941 429.387 336.941 429.627 336.701 429.867 336.701 429.867 336.461 430.347 336.221 430.587 336.221 430.827 336.221 431.067 336.221 431.307 336.461 431.307 336.701 431.547 336.941 431.547 337.661 431.547 337.901 432.507 338.141 432.747 338.141 432.987 338.141 433.227 338.141 433.467 337.901 433.707 337.661 434.187 337.661 434.428 337.421 434.908 337.421 434.908 337.181 435.148 337.421 435.388 337.421 436.348 338.381 436.588 338.381 436.828 338.381 437.068 338.381 437.068 338.141 437.308 337.901 437.548 337.181 437.548 336.941 437.548 336.461 437.548 335.981 437.548 335.741 437.548 335.501 437.548 335.261 437.308 335.021 437.068 334.781 436.828 334.781 436.588 334.781 436.348 334.781 435.868 334.781 435.388 334.541 435.148 334.541 435.148 334.301 435.148 334.061 435.148 333.821 435.628 332.381 435.628 331.901 435.868 331.421 436.108 331.181 436.108 330.941 436.348 330.701 436.348 330.461 436.348 329.981 436.588 329.501 436.588 328.541 436.588 328.301 436.588 328.061 436.828 327.581 437.068 327.101 437.068 326.621 437.308 326.381 437.308 326.141 437.548 325.901 437.548 325.661 438.028 324.461 438.268 323.262 438.268 322.782 438.508 322.062 438.748 321.342 438.748 321.102 438.988 320.622 439.228 320.382 439.228 320.142 439.468 319.662 439.468 319.422 439.708 319.182 439.708 317.982 439.708 317.262 439.708 316.782 439.948 316.782 440.188 316.542 440.428 316.542 440.668 316.782 441.148 317.022 441.628 317.022 441.628 317.262 441.868 317.262 442.348 317.502 442.588 317.502 442.588 317.742 443.308 318.222 443.788 318.222 444.268 318.462 444.748 318.462 444.988 318.462 445.228 318.702 445.468 318.702 445.948 318.942 446.188 318.942 447.148 318.942 447.388 318.942 447.628 318.942 447.868 318.702 448.108 318.462 448.588 318.462 448.828 318.462 450.749 318.462 451.229 318.462 451.469 318.462 451.709 318.702 452.189 318.942 452.189 319.182 452.189 319.422 451.949 319.662 451.949 320.142 452.429 320.142 453.389 319.662 453.629 319.662 453.629 319.422 453.869 319.182 454.109 319.182 454.349 318.942 454.349 318.702 454.829 318.462 455.069 318.222 455.069 317.982 455.069 317.742 455.549 317.742 455.789 317.742 456.269 317.502 457.229 317.502 457.469 316.542 458.429 315.822 458.429 315.342 458.429 314.142 458.189 313.902 457.709 313.422 457.709 313.182 457.469 312.942 457.469 312.702 457.469 312.222 457.709 311.982 457.469 311.742 457.229 310.302 456.989 309.102 456.749 308.862 456.749 308.382 456.749 308.142 456.989 307.902 456.989 307.662 456.989 306.943 457.229 306.703 456.989 306.463 457.229 305.983 457.949 304.063 457.949 303.583 458.189 303.583 458.189 303.343 458.429 303.343 458.669 303.343 458.909 303.103 459.869 303.103 460.349 303.103 460.589 303.103 460.829 303.103 461.309 303.103 461.549 302.623 461.789 302.383 462.269 302.143 462.509 302.143 462.749 302.143 463.709 301.663 463.709 301.423 463.709 300.943 463.949 300.703 464.189 300.223 464.669 299.983 464.669 299.743 464.669 298.783 464.429 298.063 464.189 297.823 464.189 297.583 464.189 297.103 464.429 296.623 464.909 295.663 466.59 295.423 467.07 295.183 467.07 295.423 468.03 295.663 468.27 295.663 468.03 295.423 468.03 295.183 467.79 294.943 467.79 294.463 467.55 294.223 467.31 294.223 467.07 293.983 466.83 293.983 466.35 294.223 465.87 293.983 465.149 293.263 464.429 292.063 464.429 291.823 464.429 291.583 463.709 291.103 463.469 291.343 463.229 291.343 462.989 291.103 462.749 290.863 462.749 290.623 462.989 290.383 463.229 289.903 463.709 289.903 463.949 289.663 463.709 288.704 462.989 288.704 462.749 288.704 462.029 289.423 462.029 289.903 461.549 290.383 461.309 290.623 461.069 290.623 460.829 290.863 460.589 291.103 460.589 291.343 460.349 291.823 460.349 292.063 460.109 292.303 458.429 291.823 457.469 291.583 456.989 291.343 456.269 291.103 455.549 291.343 455.309 291.343 455.069 291.343 454.829 291.103 454.349 291.343 454.109 291.343 453.869 291.583 453.629 291.583 453.389 290.863 453.389 290.383 453.149 290.143 452.189 288.704 452.189 288.464 451.709 288.464 451.469 288.224 451.469 287.504 451.709 287.504 451.949 287.264 451.709 286.544 451.469 286.544 450.269 286.064 449.548 285.824 448.348 285.344 447.388 285.584 446.668 284.864 445.948 283.184 446.188 282.944 446.188 282.464 445.708 281.504 445.468 281.264 445.228 281.024 444.988 280.784 444.508 280.544 444.268 280.304 444.508 279.824 444.508 279.584 443.548 278.864 443.308 278.624 440.908 277.664 439.468 277.664 438.748 277.664 438.508 278.144 438.508 278.384 438.268 278.624 438.028 278.864 437.548 278.864 437.068 278.864 436.828 278.864 436.588 278.624 436.348 278.624 436.108 278.864 436.108 279.344 436.108 279.824 435.868 280.064 434.908 280.544 434.908 280.784 434.668 280.784 434.668 280.544 434.428 280.304 433.707 280.304 433.227 280.544 432.987 280.784 432.747 280.784 432.747 281.024 432.507 281.024 432.267 280.784 432.027 280.784 431.787 280.784 431.547 280.304 430.827 280.064 430.107 280.304 429.627 280.544 429.387 280.784 429.147 280.784 428.667 280.784 428.427 280.784 427.947 280.784 427.707 280.304 427.947 279.824 427.707 279.344 427.467 278.384 426.987 278.384 426.747 278.384 426.507 278.384 426.267 278.624 426.027 278.624 425.307 278.624 425.307 278.144 425.307 277.904 425.547 277.664 425.787 277.184 425.787 276.944 425.787 276.704 426.027 276.464 426.027 275.984 425.547 275.984 425.307 276.224 425.067 276.224 424.347 275.744 423.867 275.504 423.627 275.264 423.147 275.024 422.907 275.024 422.667 274.784 422.427 275.024 422.427 275.504 422.427 275.744 422.187 275.984 421.947 275.984 421.467 275.984 421.227 275.984 420.987 276.944 421.467 277.184 421.467 277.664 421.467 277.904 421.467 278.144 421.227 278.384 420.987 278.624 420.987 278.864 420.747 278.864 420.507 278.864 420.027 278.864 418.827 279.584 418.587 280.064 418.827 280.304 418.827 280.544 418.587 280.544 418.587 280.304 418.346 280.304 418.106 280.064 418.106 279.824 417.866 279.344 416.666 276.704 416.426 276.464 416.186 275.744 415.226 273.584 414.986 272.864 414.026 271.424 414.026 271.185 413.306 269.985 411.386 265.905 410.186 263.985 409.466 262.545 408.506 260.625 408.266 260.145 407.546 258.945 406.106 256.545 406.106 256.065 405.626 255.345 405.386 254.865 405.146 254.625 405.146 254.385 404.906 254.146 404.426 253.906 404.186 253.426 402.986 252.226 402.746 252.226 402.025 251.506 401.305 250.786 399.865 249.586 399.145 249.106 398.425 248.386 396.985 247.186 396.985 246.946 396.745 246.466 396.505 245.986 396.505 245.746 396.265 245.506 396.265 245.266 396.505 245.026 396.745 245.026 396.985 245.026 397.225 245.266 397.465 245.506 397.705 245.506 397.945 245.506 398.185 245.266 398.665 244.786 398.665 244.546 399.145 243.826 399.145 243.346 398.905 242.386 398.185 242.386 397.945 242.626 397.945 242.866 397.945 243.106 396.745 243.586 396.025 243.346 395.305 243.106 395.065 243.826 395.065 244.066 393.145 244.786 391.945 245.506 391.465 245.506 391.225 245.506 390.745 245.266 390.025 245.746 390.265 246.466 389.785 246.706 388.585 247.666 387.625 248.386 387.145 247.906 386.184 247.906 385.464 248.626 385.224 249.346 384.984 249.346 384.024 249.346 383.784 250.066 384.024 250.306 383.544 251.506 383.304 251.506 382.824 251.026 382.824 250.546 382.584 250.066 381.624 249.826 380.664 249.346 379.704 249.826 379.224 249.826 378.504 250.306 378.504 250.786 377.544 251.506 377.064 251.026 377.304 250.546 377.304 250.306 376.584 250.066 376.344 249.826 376.344 249.346 376.584 248.866 377.064 248.866 377.304 247.906 377.784 246.946 378.264 246.946 379.224 247.186 379.464 247.186 379.704 246.226 379.944 245.266 379.464 245.026 379.224 245.026 378.744 245.506 378.504 245.986 378.504 246.226 378.264 246.226 377.544 246.226 377.064 245.986 375.624 245.746 375.384 244.786 375.384 244.306 375.384 244.066 374.664 244.066 373.704 244.066 372.984 243.826 372.744 244.066 372.744 244.306 372.504 244.546 372.744 244.786 372.984 244.546 373.224 244.546 373.464 245.026 373.464 245.266 373.704 245.746 373.464 245.746 372.504 245.746 372.264 245.986 372.024 245.986 371.784 245.986 371.544 245.986 371.544 245.506 371.784 244.786 372.264 244.066 372.504 243.826 371.544 243.346 371.303 243.106 371.544 242.866 371.544 242.626 371.544 242.386 370.823 241.186 370.583 241.186 369.863 241.186 370.103 242.386 370.343 242.866 370.583 243.106 370.583 243.346 370.583 243.586 370.103 243.586 369.623 242.626 369.143 242.386 368.903 242.146 368.183 242.146 367.943 242.626 367.943 243.106 367.703 243.346 367.223 243.586 366.263 243.586 366.263 243.346 366.263 242.626 365.303 242.386 365.063 242.866 364.823 243.106 364.343 243.346 364.103 242.626 363.863 242.386 363.863 242.146 363.863 241.666 363.383 241.426 363.383 240.946 363.863 240.946 364.103 240.946 364.343 241.186 364.823 241.186 365.063 240.226 364.823 239.506 364.823 239.266 364.823 238.306 365.063 238.066 365.303 238.066 365.543 238.066 365.543 237.826 365.543 237.346 365.303 236.867 364.583 236.867 364.103 236.147 364.103 235.187 364.103 234.227 364.343 233.987 364.343 233.747 364.343 233.507 364.583 233.267 364.343 233.027 363.623 231.587 363.623 231.347 363.863 230.867 363.623 230.627 362.903 230.627 362.663 230.867 362.423 230.867 362.183 231.107 362.183 230.867 361.943 230.867 361.703 230.627 361.223 231.107 360.503 231.587 360.263 231.827 360.023 232.067 359.543 231.827 359.063 231.347 358.343 231.347 358.103 230.627 357.863 230.387 356.903 229.667 355.703 229.187 355.223 228.947 354.262 229.427 354.022 229.187 354.022 228.707 353.542 228.467 352.822 228.227 352.822 228.947 353.062 229.187 353.062 229.427 353.062 229.667 352.822 229.667 352.582 229.667 352.342 229.427 352.342 229.187 352.102 228.947 351.622 228.707 351.382 228.707 350.662 230.147 350.662 230.387 349.942 230.387 349.702 230.387 348.742 229.907 348.502 229.907 348.262 230.147 348.022 230.147 348.022 230.627 348.262 230.867 348.502 231.107 348.742 231.107 348.502 231.347 347.782 232.307 346.822 232.307 346.582 232.307 346.102 232.067 345.862 232.067 345.622 232.067 345.382 232.307 345.142 232.547 344.902 232.787 344.422 232.787 343.942 233.027 343.702 233.027 342.742 232.787 342.502 232.547 342.262 232.547 342.022 232.787 341.782 233.027 340.342 233.267 339.862 233.267 339.622 233.027 339.141 233.027 338.901 233.267 338.661 233.267 338.421 233.507 337.941 233.267 337.701 233.267 337.221 233.267 336.981 233.267 336.741 233.267 336.501 233.267 336.021 233.507 335.781 233.507 335.301 233.507 334.821 233.747 334.581 233.747 333.861 233.747 334.101 233.267 334.101 232.787 333.141 233.027 332.901 233.267 332.901 233.507 332.661 233.747 332.421 233.747 332.181 233.507 331.941 233.507 331.461 233.267 331.221 233.027 330.981 233.027 330.021 233.747 329.301 233.987 329.061 234.467 328.821 235.187 329.061 235.427 328.821 235.667 328.821 235.907 328.101 235.907 327.861 235.667 327.861 235.187 327.621 235.187 327.621 234.947 327.381 234.947 327.141 234.707 326.901 234.947 326.421 234.947 326.181 235.187 325.941 235.187 324.741 234.707 324.021 234.947 323.781 234.947 323.54 234.707 323.3 234.707 323.06 234.707 322.1 234.707 321.38 234.707 321.38 234.947 321.38 235.187 321.38 235.427 321.14 235.667 320.66 235.667 320.42 235.427 320.18 235.187 319.94 234.947 319.7 234.947 319.46 234.947 318.5 235.187 317.54 235.427 317.3 235.427 317.06 235.187 316.58 234.947 316.34 234.947 316.1 234.947 316.1 235.187 316.1 235.427 315.86 235.667 315.62 235.907 314.42 235.667 313.46 235.427 312.98 235.427 312.74 235.427 312.5 235.667 312.02 236.627 312.02 237.106 311.78 237.346 311.3 236.627 311.06 236.387 311.06 235.667 309.38 235.187 309.14 235.187 308.9 235.427 308.9 235.907 307.94 235.667 307.699 234.947 306.739 234.947 306.499 234.947 305.779 234.467 305.779 233.987 305.539 233.987 305.059 233.747 304.339 233.987 303.379 234.467 302.899 234.467 302.899 234.707 302.659 234.707 302.659 235.187 302.899 235.187 303.139 235.187 303.379 235.427 303.859 236.147 303.619 236.147 302.179 237.586 301.939 237.586 301.939 237.346 301.699 237.346 301.459 237.346 301.459 237.586 301.699 237.826 302.179 237.826 302.419 237.826 302.419 238.066 302.899 238.546 303.139 238.786 303.379 238.786 303.619 239.026 304.099 238.786 304.099 238.546 304.339 238.546 304.579 238.786 305.059 238.786 305.059 239.506 304.099 240.226 303.859 240.226 303.859 239.986 303.619 239.746 303.379 239.506 303.379 239.266 303.139 239.266 302.179 240.466 302.179 240.946 302.179 241.186 302.419 241.426 302.419 241.666 302.659 241.666 302.899 241.666 303.139 241.666 303.379 241.906 303.619 242.146 303.619 242.386 303.859 242.386 303.859 242.626 304.099 242.626 304.339 242.626 304.579 242.626 305.299 243.106 305.539 243.346 305.779 243.586 306.739 244.066 306.979 244.066 307.219 244.306 307.459 244.786 307.219 245.266 306.979 245.746 306.019 245.986 305.779 245.746 305.539 245.506 304.339 245.266 303.379 244.546 303.139 244.546 303.139 244.306 302.899 244.546 302.659 244.546 302.419 244.546 302.179 244.546 301.939 244.306 301.699 244.306 301.459 244.066 300.739 244.306 300.499 244.786 300.019 245.266 299.059 245.746 298.099 246.226 297.859 246.466 297.619 246.466 297.619 246.946 297.859 247.426 298.339 247.426 298.339 247.906 298.099 248.386 298.819 249.106 298.579 249.826 298.819 250.546 298.819 250.786 297.859 251.266 297.619 251.506 297.379 251.506 297.139 251.506 296.899 251.506 296.659 251.986 296.419 251.986 296.179 252.226 295.939 251.986 295.699 251.986 295.219 251.746 294.979 251.746 294.739 251.746 294.259 252.226 292.819 252.946 291.618 252.706 291.378 252.946 291.378 253.186 291.378 253.906 291.618 254.146 291.858 254.146 292.579 254.146 293.779 255.105 294.019 255.345 293.539 256.065 293.299 256.065 293.059 256.305 293.779 257.265 295.699 257.745 296.179 257.745 296.419 257.985 296.179 257.985 296.179 258.465 296.179 259.185 296.419 259.425 297.139 259.665 297.379 259.665 297.619 259.665 298.579 260.145 299.299 260.625 299.539 261.825 299.539 262.065 299.779 262.305 300.019 262.545 299.779 262.545 299.539 262.545 299.299 262.545 299.059 262.785 299.059 263.025 298.339 264.705 297.859 265.905 297.619 266.145 297.379 266.865 297.139 266.865 296.899 266.865 296.659 266.865 296.419 266.865 296.179 266.865 295.699 266.865 295.459 266.865 294.979 266.865 294.739 267.105 293.779 267.105 292.819 267.345 292.579 267.105 292.339 267.105 290.178 266.385 289.938 266.145 289.698 265.905 289.458 265.905 289.218 265.185 289.218 264.945 289.458 264.465 289.218 264.225 288.738 264.225 288.498 264.225 288.258 264.225 288.018 264.465 287.778 264.705 287.778 265.185 287.538 265.425 287.058 266.145 286.338 266.865 285.858 266.865 285.618 266.865 285.378 266.865 285.138 266.865 284.898 266.865 284.418 267.105 284.178 266.625 284.418 266.385 284.658 266.385 284.898 266.385 285.138 266.145 284.658 265.665 284.418 265.425 283.698 265.425 282.978 264.705 282.738 264.705 282.258 264.465 281.298 264.225 281.058 263.985 279.858 262.545 279.618 261.825 279.618 261.105 279.858 260.865 280.098 260.385 280.098 260.145 280.098 259.905 280.098 259.665 278.898 258.705 278.898 258.465 278.658 258.465 277.938 258.705 277.458 259.185 277.218 259.185 275.537 258.225 275.297 257.985 275.057 258.225 274.817 258.465 274.817 258.705 274.577 259.185 274.577 259.425 274.577 259.665 274.337 259.905 274.097 259.905 273.857 259.665 273.617 259.425 273.377 259.425 273.137 259.425 272.897 259.665 272.897 259.905 272.417 259.905 272.177 259.665 271.937 259.425 271.937 259.185 271.697 257.985 271.457 257.505 270.977 257.025 270.737 257.025 270.497 257.025 269.297 256.785 269.057 256.785 269.057 256.545 268.817 256.305 268.337 256.545 268.337 256.785 268.337 257.025 268.337 257.265 267.617 257.025 267.377 256.785 267.377 256.545 267.377 256.305 267.377 256.065 267.137 256.065 266.897 256.065 266.657 256.305 266.657 256.545 266.417 257.025 265.697 257.505 265.457 257.505 264.977 257.265 264.737 257.025 264.497 257.025 264.497 257.265 264.017 257.985 263.777 258.465 263.777 258.705 263.057 258.945 262.817 259.185 262.097 259.425 261.857 259.425 261.617 259.425 261.137 259.425 260.897 259.665 260.417 259.905 260.176 259.905 260.176 259.665 259.696 258.945 259.696 258.705 259.696 258.465 259.456 258.225 259.216 258.225 258.976 258.225 258.736 258.225 258.496 257.745 257.536 256.065 257.536 255.825 257.296 254.865 256.576 253.906 255.856 253.186 255.616 252.946 254.896 252.946 254.656 253.906 255.136 254.146 255.136 254.625 254.896 255.345 254.656 256.065 254.416 256.305 254.656 256.785 254.416 257.265 254.416 257.505 253.696 257.745 252.976 257.745 252.736 257.265 252.736 257.025 252.736 256.785 252.736 256.545 253.456 255.105 253.696 255.105 253.936 254.625 254.176 254.385 253.696 253.906 253.456 253.906 252.976 253.666 252.496 252.706 252.496 252.466 252.736 251.506 252.736 251.266 251.776 250.066 251.536 249.826 250.816 249.346 250.336 249.106 250.096 248.386 250.336 247.906 250.576 247.426 249.616 245.986 249.376 245.746 249.136 245.746 248.896 245.746 248.416 245.506 248.176 245.266 247.456 245.266 246.976 245.266 246.256 245.266 246.256 245.026 245.776 244.546 245.296 244.786 245.056 244.786 244.575 244.786 244.335 244.546 244.335 244.306 244.335 244.066 244.095 243.826 244.335 243.586 244.335 243.106 244.335 241.186 244.335 240.946 244.095 240.946 242.895 241.186 242.655 241.426 242.415 241.666 241.935 241.426 241.695 241.186 241.455 240.946 241.215 240.946 240.975 240.946 240.255 241.426 240.255 241.666 240.015 242.146 240.015 242.626 239.295 242.866 239.055 242.626 239.055 242.386 238.335 242.146 237.615 242.146 236.895 241.666 236.895 240.946 237.135 240.946 237.855 240.946 238.095 240.466 238.095 240.226 237.615 239.746 237.135 239.506 236.895 239.506 235.695 238.786 235.455 238.786 235.455 238.306 235.455 238.066 235.215 237.826 234.975 237.586 234.735 237.826 234.735 238.066 234.735 238.546 234.735 238.786 234.735 239.026 234.495 239.266 234.495 239.506 234.255 239.506 233.775 239.506 233.535 239.506 233.775 239.266 234.015 239.026 233.535 238.546 233.295 238.546 232.815 239.026 232.575 239.506 232.575 239.986 232.335 239.986 231.855 240.226 231.135 240.226 230.895 240.706 230.655 241.186 229.935 241.426 229.455 241.426 229.215 241.186 228.734 241.186 228.254 241.186 228.014 241.186 227.774 241.186 227.054 241.666 226.814 241.906 226.574 241.906 225.134 241.426 224.894 241.426 224.654 240.946 224.174 241.426 223.214 242.146 223.454 242.626 223.454 242.866 223.454 243.106 223.454 243.346 223.214 243.586 222.974 243.586 222.494 243.586 222.254 243.586 221.774 243.586 221.534 243.586 221.294 243.586 221.054 243.586 220.814 243.826 220.094 244.306 219.854 244.306 218.894 244.546 218.654 244.546 218.174 244.306 217.694 244.306 217.454 245.266 217.214 245.986 216.974 246.706 216.974 246.946 216.734 247.666 216.734 248.866 216.734 249.586 216.734 250.306 216.254 250.786 216.014 250.786 215.534 251.026 215.294 251.026 214.814 251.026 214.574 251.026 214.334 251.026 213.374 251.026 213.133 251.266 212.653 251.026 212.173 250.306 211.933 249.106 211.933 248.626 212.173 248.386 212.173 247.906 212.173 247.666 211.933 246.466 211.693 245.746 211.213 244.066 210.733 243.106 210.733 242.866 210.493 242.866 210.253 242.866 210.013 242.866 209.773 243.106 209.293 243.346 209.293 243.586 209.053 243.826 208.573 243.826 208.333 243.826 207.613 244.786 207.613 245.026 207.613 245.266 207.613 245.506 207.613 245.746 207.613 245.986 207.133 246.226 206.653 246.466 205.933 246.946 205.693 246.946 205.453 246.946 205.213 246.946 204.973 246.946 204.733 246.946 204.493 246.946 204.253 246.946 204.013 246.946 202.573 249.346 201.133 251.506 201.133 251.746 201.133 251.986 201.373 251.986 201.613 252.226 201.613 252.466 201.613 252.706 201.853 253.186 202.093 253.426 202.093 253.666 201.853 254.146 201.613 254.385 201.613 254.625 201.133 254.865 200.893 255.105 200.653 255.345 200.413 255.345 200.173 255.345 199.933 255.345 199.693 255.345 199.453 255.585 199.213 255.585 197.052 257.745 196.812 258.225 196.092 258.945 195.612 259.425 195.132 259.905 196.092 260.625 196.812 261.345 197.773 262.065 198.493 262.785 198.493 263.265 198.253 263.265 197.773 264.465 197.052 266.145 196.572 267.345 196.812 267.825 197.052 268.305 197.773 269.265 198.253 268.545 198.253 268.065 198.493 267.825 198.733 267.825 198.973 268.065 198.973 268.305 199.453 268.785 199.693 269.025 199.693 269.265 199.933 269.265 200.173 269.265 200.653 269.505 201.373 269.745 202.093 269.985 202.333 270.225 202.573 270.225 202.573 270.705 202.813 271.185 203.053 271.424 203.053 271.664 203.053 271.904 203.053 272.864 203.053 273.584 203.293 274.544 203.773 275.504 203.773 276.464 203.773 278.384 204.253 281.744 204.493 282.464 203.533 282.944 202.333 282.464 202.333 281.984 202.333 281.744 202.333 281.504 202.093 281.504 201.853 281.264 201.613 281.264 201.133 281.264 200.893 281.504 200.653 281.984 200.653 283.424 200.893 283.424 201.373 283.424 201.613 283.664 201.613 283.904 201.853 284.144 201.853 284.384 202.093 284.864 202.333 284.864 202.573 284.864 203.773 286.784 204.013 287.024 204.013 286.784 204.493 286.304 204.733 286.304 204.973 286.784 205.213 287.024 205.693 286.064 205.453 285.104 205.933 285.584 206.173 286.064 206.893 286.064 207.613 285.824 208.573 286.304 208.813 286.544 209.773 286.304 210.733 285.824 211.453 285.584 211.933 285.344 212.173 285.584 212.893 285.344 213.374 284.864 214.094 284.624 214.574 285.104 215.294 284.864 215.534 284.864 216.014 284.864 216.014 285.104 216.494 285.104 216.974 284.624 217.214 284.624 218.174 284.384 218.414 284.384 219.854 284.384 220.094 284.384 220.094 284.624 220.334 284.624 220.814 285.104 221.774 285.584 222.494 286.064 222.494 286.784 222.494 287.024 222.494 287.264 222.974 287.744 223.454 288.224 224.654 289.423 225.134 289.663 225.374 289.663 225.614 289.903 227.294 288.704 227.534 288.464 228.254 288.704 228.254 288.944 228.734 289.184 229.455 289.663 230.175 289.663 230.655 290.143 231.375 290.863 231.375 291.343 231.135 291.583 231.135 292.063 231.375 292.543 231.615 292.783 231.615 293.023 231.375 293.503 230.415 294.223 229.935 294.223 229.935 293.983 229.695 294.223 229.455 294.703 229.695 294.703 229.935 294.943 229.935 295.903 230.175 296.143 230.175 296.383 229.935 296.623 229.935 297.103 228.734 298.783 228.494 299.503 227.054 300.943 226.814 301.183 226.574 301.423 226.334 301.423 224.894 302.383 224.654 303.103 224.414 303.343 224.414 303.583 225.374 304.543 226.574 305.983 226.814 305.983 227.054 306.223 227.054 306.463 226.094 306.703 224.654 305.743 223.934 305.503 223.214 304.783 222.734 304.303 222.494 304.303 222.254 304.063 219.614 303.583 218.654 303.343 218.414 303.343 217.694 302.623 217.214 302.383 216.974 302.623 216.014 302.863 215.774 302.863 215.534 302.623 215.294 302.623 215.054 302.383 214.814 302.143 213.854 302.863 213.133 303.583 212.893 304.303 212.413 304.543 210.973 304.783 210.493 304.783 210.253 305.023 210.013 305.983 210.253 306.463 210.253 306.703 210.493 306.943 210.733 307.182 210.973 307.422 211.213 307.902 211.453 307.902 211.453 308.142 211.453 309.102 211.453 309.342 211.453 309.582 211.933 309.582 212.173 309.582 212.413 309.582 212.893 310.542 213.133 310.782 212.893 311.022 211.933 310.542 211.693 310.302 210.013 310.302 210.013 310.062 209.533 309.822 209.293 309.582 209.053 309.342 208.813 308.622 208.813 308.382 208.573 308.142 208.093 307.902 207.373 307.662 206.413 307.182 205.453 306.703 204.973 306.463 204.253 306.943 203.773 307.662 203.533 308.862 203.293 309.102 203.533 309.582 204.253 310.062 204.493 310.302 204.973 310.542 205.453 310.782 205.933 311.262 206.413 311.502 206.893 312.222 206.893 312.462 206.893 312.702 206.653 314.382 206.653 316.542 206.653 316.782 206.893 318.222 207.133 318.702 207.373 318.942 207.613 319.662 207.613 320.862 207.373 321.342 207.133 321.822 207.133 322.302 206.653 322.782 206.413 323.022 206.173 323.502 206.173 323.742 206.413 323.742 207.373 323.982 209.053 324.221 209.053 324.461 209.293 326.381 209.293 326.621 209.293 326.861 209.293 327.581 209.533 328.301 210.013 328.541 210.253 328.301 210.973 328.301 211.693 328.541 211.933 328.781 212.653 329.501 212.893 329.501 213.374 329.741 213.614 329.741 213.854 329.981 214.094 330.221 214.334 330.221 214.334 330.701 215.054 331.661 215.054 332.141 214.574 332.861 213.374 334.301 212.893 335.021 212.413 335.261 211.453 336.221 211.213 336.221 210.733 336.941 210.493 337.901 210.733 338.141 210.733 338.381 210.733 338.621 210.733 339.101 210.493 339.341 210.253 339.581 209.773 340.301 209.773 340.541"/>
</svg>
