<svg id="Kuwait" xmlns="http://www.w3.org/2000/svg" width="612" height="792" viewBox="0 0 612 792">
    <defs>
        <style>.cls-1{fill:#fff;fill-rule:evenodd;}</style>
    </defs>
    <path class="cls-1"
          d="M139.2088,446.6145v.24l.48,1.2.24.72v.72l-.24.24-.24.24-.24.24-.48.24h-.72v-.24h-.24v-1.92l.96-1.44-.24-.48h.72Zm-9.1206,7.68v-.24l-3.6-1.92-1.68-.72-1.68-.96-.24-.24v-.24h.24l.24-.24h.48l.48-.24.48-.48.72-.72.72-.48.24-.24.96-.72.24-.24.48-.48.96-1.2.72-.96.24-.48.24-.24h.24l.24-.24h2.16l.24.24,2.4.96,1.68,1.2v.48l-.24,1.2v.72l.24.24v.72l.24.24.24.96v.72h-.24l-.48-.24v-.24l-.48-.72h-.48l-2.64,1.44-.24.24.96.72.24.24h.24l.48-.24h.24l.24-.24v.24l.24.24v.24l.24,1.2v.48l-.24,1.2v.72l.24.48v.24l.48,1.68.24,1.2.24.24-.24.24v1.68l-.96-.48-5.28-1.92-.24-.96-.24-.24v-.72l.24-.24v-2.16Z"/>
</svg>
