<svg id="Kyrgyzstan" xmlns="http://www.w3.org/2000/svg" width="612" height="792" viewBox="0 0 612 792">
    <defs>
        <style>.cls-1{fill:#fff;fill-rule:evenodd;}</style>
    </defs>
    <polygon class="cls-1"
             points="377.544 385.178 377.544 385.658 377.544 386.138 377.544 386.378 377.784 386.618 378.024 386.858 377.784 387.098 377.544 387.098 377.304 386.858 376.824 386.858 376.584 386.858 375.624 387.578 375.144 388.058 374.904 388.298 374.184 388.778 373.944 389.018 373.704 389.018 373.464 389.258 373.224 389.258 372.984 389.258 372.744 389.018 372.504 388.778 372.264 389.018 370.823 389.258 370.583 389.498 369.383 391.658 369.143 392.378 369.383 392.618 369.623 392.618 369.863 393.098 370.103 394.058 369.143 395.257 368.903 395.257 368.663 395.257 367.463 395.497 367.463 395.257 366.503 395.017 366.263 395.257 365.303 395.497 365.063 395.737 363.623 396.217 361.223 395.977 360.743 395.737 360.503 395.737 359.783 395.497 359.543 395.257 359.303 395.497 359.063 395.737 358.103 395.737 357.863 395.737 357.623 395.737 356.903 395.737 356.903 395.977 356.663 396.217 356.663 396.697 356.183 397.177 355.223 396.217 354.982 395.497 354.982 395.257 354.022 395.497 353.782 395.497 353.302 395.737 353.062 395.977 352.342 395.977 352.102 395.737 352.102 395.497 352.102 395.017 352.582 394.777 352.582 394.537 352.342 394.058 352.102 394.058 351.862 394.058 351.622 394.058 351.142 394.058 350.902 394.058 350.662 393.818 350.422 393.578 350.662 393.338 350.902 393.098 350.902 392.858 350.662 392.378 350.422 392.378 349.702 392.378 348.982 392.618 348.022 392.858 347.302 393.098 347.062 393.338 346.822 393.578 346.822 393.818 346.582 394.058 346.342 394.058 345.142 393.818 344.182 393.578 343.942 393.098 343.942 392.858 343.942 392.618 343.702 392.378 343.702 391.898 342.742 391.658 342.502 391.658 341.302 391.658 341.062 391.898 340.582 391.658 340.102 391.658 338.181 391.658 337.221 391.658 336.981 391.418 336.741 391.178 336.261 391.178 336.021 391.178 335.541 391.178 335.301 391.178 335.061 391.418 334.821 391.418 333.141 391.418 333.141 391.178 333.141 390.938 333.141 390.698 333.141 390.218 333.381 389.978 333.381 389.738 333.141 389.498 332.901 389.258 332.901 389.018 332.901 388.538 333.141 388.058 333.381 387.578 333.861 386.618 334.341 387.338 334.341 387.578 335.061 387.578 335.301 387.338 335.061 387.098 335.061 386.378 335.301 385.898 335.541 385.418 335.781 385.658 336.021 385.658 336.261 385.658 336.741 385.418 337.941 385.178 339.382 384.938 339.622 384.938 341.542 386.138 341.782 386.378 342.022 386.618 342.502 386.858 343.222 387.098 343.462 387.098 343.462 387.338 343.462 387.578 343.222 387.578 342.982 387.818 342.742 388.298 342.982 388.538 343.702 388.058 343.942 388.058 344.182 387.818 344.182 387.578 344.422 387.338 344.422 386.618 346.342 386.138 346.582 386.138 346.822 386.138 347.062 385.898 347.062 385.658 347.062 385.418 347.302 385.178 347.782 385.178 348.022 385.178 348.262 385.178 349.222 385.178 349.702 384.938 350.422 385.178 350.902 385.658 350.902 385.898 351.142 386.138 351.382 386.138 352.822 387.098 353.302 386.858 353.542 386.618 354.262 386.138 355.463 385.898 355.223 385.178 356.183 384.458 356.663 383.978 356.903 383.978 357.143 384.218 357.383 384.218 357.863 384.698 358.343 384.938 358.583 384.938 358.823 384.458 358.823 384.218 358.823 383.978 358.343 383.738 358.343 383.498 358.343 382.778 358.583 382.778 360.023 383.738 360.263 383.978 360.503 383.738 360.743 383.738 360.983 383.258 361.703 382.298 362.183 382.298 362.423 382.058 362.903 382.058 364.103 381.578 364.583 381.338 364.823 380.858 364.583 380.858 363.863 380.378 362.663 380.378 361.223 380.378 361.223 380.138 360.743 380.138 360.503 379.898 360.503 379.658 360.263 379.418 359.783 378.698 358.823 378.218 358.343 378.218 357.383 378.458 357.623 377.978 357.383 376.539 357.143 376.539 356.903 376.539 355.223 376.539 354.982 376.299 355.223 375.819 355.223 375.579 355.223 375.339 355.223 374.859 354.982 374.619 353.782 372.459 353.542 372.459 353.302 372.939 353.302 373.179 353.542 373.419 353.542 373.659 353.542 374.139 353.062 374.619 353.062 374.859 352.822 375.099 352.582 375.099 352.342 374.859 351.862 374.379 351.622 374.619 351.622 375.339 351.622 375.579 351.622 376.059 351.622 376.539 351.382 376.779 351.142 376.779 350.182 375.819 349.702 375.819 349.462 376.059 348.022 375.579 346.822 374.859 346.822 374.139 346.822 373.899 346.582 373.419 346.342 372.699 345.862 372.459 345.622 372.699 345.382 372.699 344.902 372.939 344.422 372.939 344.182 372.459 343.942 372.219 343.702 371.979 343.462 371.979 343.222 371.979 343.222 371.739 342.982 371.739 342.502 371.739 342.262 371.499 342.262 371.019 342.502 370.779 342.982 370.779 343.222 370.779 343.462 370.539 344.662 369.819 344.902 369.819 344.902 369.579 345.142 369.099 346.582 368.139 347.062 368.139 347.302 368.139 347.782 367.899 348.022 367.659 348.022 366.939 348.262 366.939 348.502 366.939 348.742 366.939 348.982 366.939 350.902 366.219 351.382 365.739 351.382 365.499 351.142 365.259 350.662 365.019 350.422 364.539 349.942 364.299 349.702 364.299 349.222 364.779 348.982 364.779 348.742 364.539 348.502 364.059 348.982 363.579 349.222 363.339 349.222 362.859 349.942 361.419 350.182 361.419 351.142 360.939 351.142 360.459 351.862 359.739 353.062 359.499 353.542 359.499 353.782 359.739 354.262 359.979 354.502 359.979 354.742 359.739 354.982 359.739 355.463 359.499 355.703 359.499 356.183 359.499 356.663 359.499 357.143 359.739 357.383 359.739 358.823 360.219 359.543 360.459 359.783 360.459 360.023 360.699 360.983 361.179 362.183 361.419 363.143 361.899 363.383 362.139 363.383 362.379 363.623 362.859 363.863 362.859 363.863 363.099 364.103 363.099 364.583 363.099 365.063 363.099 366.023 363.099 367.463 363.819 367.223 364.299 367.463 364.539 368.663 364.779 368.903 364.779 368.663 364.539 368.663 364.299 368.423 363.819 368.183 363.579 368.183 363.339 368.183 363.099 368.183 362.619 368.423 361.659 368.663 361.419 369.143 360.939 369.143 360.459 369.143 359.499 369.623 358.3 370.103 358.06 370.583 358.06 371.303 357.82 372.264 357.82 372.504 357.58 373.464 357.1 374.664 357.1 375.144 356.86 375.624 357.1 375.864 357.34 377.304 358.06 377.544 358.54 377.784 359.02 378.504 359.499 378.744 359.499 378.984 359.499 379.224 359.499 379.464 359.739 380.904 360.459 381.624 360.939 382.104 361.179 382.584 361.179 384.504 361.419 384.744 361.419 384.984 361.659 385.224 361.899 385.944 361.419 386.184 360.939 386.184 360.699 386.184 360.459 386.424 360.459 386.664 360.459 387.145 360.459 388.825 360.459 389.785 360.699 390.265 360.699 390.745 360.939 390.985 361.179 392.665 361.179 393.385 360.939 394.105 360.699 394.345 360.459 395.305 360.219 396.505 360.699 396.745 360.699 396.985 361.179 397.465 361.179 398.665 361.179 399.625 361.179 400.585 361.179 400.825 361.179 402.746 361.419 402.746 361.659 402.986 361.659 403.706 361.899 403.946 361.899 404.186 361.899 404.426 361.899 406.586 361.659 407.066 361.659 408.026 362.379 410.906 363.099 411.146 363.099 411.386 362.859 411.626 362.619 411.866 362.619 412.106 362.859 412.106 363.099 412.106 363.339 412.106 363.579 412.346 363.819 412.346 364.059 412.586 364.299 412.826 364.539 413.066 364.539 413.306 364.779 413.546 365.019 413.786 365.499 413.786 365.739 414.026 365.979 414.266 366.219 414.506 366.219 414.746 366.219 414.986 366.219 415.226 366.219 415.706 365.979 415.946 365.979 417.626 366.459 417.866 366.459 419.067 367.899 419.547 368.379 419.547 368.619 419.787 368.859 420.027 368.859 420.027 369.099 420.507 370.059 420.267 370.299 420.027 370.539 419.787 370.539 419.547 370.539 419.307 370.539 418.827 370.539 418.346 370.539 418.106 370.539 417.626 370.779 417.386 370.779 417.146 370.779 417.146 371.019 416.906 371.259 416.906 371.739 416.666 371.979 416.426 372.219 416.186 372.219 415.946 372.219 415.706 372.219 414.506 372.699 413.066 372.939 411.626 373.899 410.906 374.139 410.186 374.619 408.506 375.339 408.266 375.339 408.026 375.579 406.826 376.299 405.866 377.018 405.626 377.258 405.626 377.498 405.626 377.738 405.626 377.978 405.626 378.218 405.146 378.458 405.146 378.698 404.906 378.698 404.666 379.178 404.666 379.418 404.426 379.658 404.186 379.898 404.186 380.138 403.706 380.378 403.226 380.618 402.986 380.618 402.746 380.378 402.505 380.378 401.545 380.378 401.305 380.378 400.825 380.618 400.105 381.098 398.905 381.098 398.665 381.098 398.425 381.098 398.185 380.858 397.705 380.618 397.465 380.618 396.985 380.858 395.785 380.618 395.545 380.618 395.305 380.378 395.065 380.378 394.105 380.618 393.865 380.618 393.145 381.338 391.945 383.498 391.945 383.738 391.945 384.698 391.705 384.938 391.465 385.178 391.225 385.178 390.985 385.418 390.985 385.658 390.985 385.898 390.745 386.378 390.505 386.618 390.265 386.858 389.305 387.338 389.065 387.098 388.345 386.858 387.385 386.858 387.145 386.858 386.424 387.098 386.424 387.338 386.184 387.578 385.944 387.818 384.264 387.578 384.024 387.338 384.024 386.858 383.784 385.178 383.784 384.938 383.784 384.698 383.784 384.218 383.544 383.978 383.064 384.218 382.824 384.458 381.624 385.178 381.144 385.658 380.664 385.898 379.464 385.898 378.984 385.658 378.744 385.658 378.504 385.658 378.264 385.418 378.264 385.178 378.024 384.938 377.784 385.178 377.544 385.178"/>
</svg>
