<svg xmlns="http://www.w3.org/2000/svg" width="612" height="792" viewBox="0 0 612 792">
    <defs>
        <style>.cls-1{fill:#fff;}.cls-1,.cls-2{fill-rule:evenodd;}.cls-2{fill:#e1e1e1;}</style>
    </defs>
    <g id="bounds">
        <path class="cls-1"
              d="M590.1438,197.2105c5.7707,1.1159,7.6248,16.5346,2.75,31.2789S578.3666,250.504,572.49,250.604c-12.4047.2111-1.1281-8.221,3.4038-19.5189,1.04-2.5928,3.1617-9.0675,4.149-11.6808C582.9362,211.7447,582.234,195.6809,590.1438,197.2105Z"/>
    </g>
    <g id="Lake_Baikal" data-name="Lake Baikal">
        <polygon class="cls-2"
                 points="575.076 245.746 575.316 245.746 575.556 245.506 575.796 245.506 576.757 244.786 577.237 244.546 577.237 244.306 577.237 244.066 577.237 243.826 577.477 243.586 577.477 243.346 577.717 243.106 577.957 242.866 578.437 241.906 578.677 241.906 578.677 241.666 578.917 240.946 578.917 240.466 579.397 238.546 579.397 237.826 579.637 237.586 579.637 237.346 579.877 236.867 580.357 236.387 581.077 235.667 581.557 235.187 581.797 235.187 581.797 234.947 582.277 233.987 582.277 233.747 582.277 233.507 582.277 233.027 582.517 232.787 582.757 232.547 582.997 232.307 582.997 232.067 583.237 230.867 582.517 230.627 582.277 230.627 582.277 230.867 582.277 230.627 582.757 229.187 583.237 228.227 583.237 227.987 583.717 227.267 583.957 226.787 584.437 226.307 584.677 225.827 585.157 225.107 585.397 224.627 585.157 224.627 585.157 224.387 585.157 224.147 585.157 222.947 585.157 222.707 585.637 221.987 586.117 221.267 586.357 220.547 586.837 220.067 587.077 219.107 587.317 218.867 587.077 217.428 587.077 217.188 587.077 216.948 587.077 215.988 587.317 215.988 587.317 215.508 587.317 214.548 587.317 213.828 587.317 213.588 587.077 213.348 587.077 212.628 587.077 212.388 587.317 212.148 587.317 211.908 587.557 211.188 587.557 210.948 587.557 209.988 587.557 209.748 587.317 209.748 587.317 209.028 587.077 207.108 587.317 206.628 587.797 206.148 587.557 204.948 587.557 204.708 587.557 204.468 587.077 202.548 586.837 202.308 586.597 202.308 586.357 201.828 586.117 201.109 586.117 200.869 586.357 200.629 586.597 200.389 586.597 200.149 586.837 199.429 587.077 199.189 587.077 198.949 587.077 198.709 587.077 198.469 587.317 198.229 587.557 198.229 587.557 197.989 588.037 197.989 588.517 197.989 588.757 197.989 588.517 197.749 588.037 197.989 587.557 197.989 587.317 197.989 587.557 197.989 588.037 197.749 588.517 197.509 588.997 197.749 589.717 198.229 589.717 198.469 589.717 199.189 589.477 199.669 589.717 199.909 589.957 200.149 590.197 200.869 590.437 201.589 590.677 203.268 590.677 203.748 590.917 204.228 591.157 204.468 591.397 204.708 591.637 205.908 591.637 206.868 591.637 207.348 591.637 207.588 591.878 207.828 592.117 208.308 592.117 208.548 591.878 208.788 591.878 209.028 591.878 209.268 591.878 209.508 591.878 209.748 592.117 209.988 592.117 210.228 592.357 211.188 592.598 211.908 592.838 212.628 593.078 213.108 593.318 213.108 593.558 213.348 593.798 213.828 594.038 213.828 594.038 215.028 594.038 215.508 593.798 215.748 593.558 216.228 593.318 216.948 593.318 217.188 593.318 218.148 593.318 218.388 593.558 218.628 593.798 219.107 593.798 219.347 593.798 219.827 593.318 220.067 592.838 220.067 592.838 219.827 592.838 219.587 592.838 219.347 592.598 218.148 592.117 217.668 591.637 217.908 591.637 218.148 591.397 218.148 591.397 218.388 591.157 218.867 591.157 219.107 591.157 219.347 590.917 221.987 591.157 221.507 591.397 221.507 592.117 220.787 592.357 220.547 592.598 220.787 593.078 221.027 593.078 221.267 593.318 221.507 593.558 221.747 593.798 222.227 593.798 222.467 593.798 222.707 593.798 222.947 593.558 223.187 593.318 223.907 592.838 224.147 592.598 224.147 592.357 223.907 592.117 224.147 591.878 224.387 591.878 224.627 591.397 225.347 591.157 226.307 591.157 227.027 591.397 227.027 591.397 227.267 591.397 227.507 591.397 227.987 591.157 228.707 590.917 228.707 590.677 229.187 590.437 229.427 590.197 229.907 590.197 230.627 589.717 231.347 589.477 231.587 588.997 231.827 588.757 231.827 588.277 232.067 588.037 232.307 587.797 232.547 587.317 233.027 586.597 233.987 586.117 234.467 585.877 234.707 585.397 235.667 585.157 235.907 585.157 236.147 585.397 236.627 585.397 236.867 585.397 237.106 585.157 237.346 585.157 237.586 584.917 237.586 584.437 237.586 584.437 237.346 584.197 237.346 583.957 237.106 583.957 237.346 583.477 237.346 583.237 237.346 582.997 237.586 582.277 238.066 582.277 238.306 582.037 239.026 582.037 239.266 582.277 239.746 582.277 239.986 582.517 239.986 582.757 239.986 582.757 240.226 582.757 240.466 582.757 240.706 582.757 240.946 582.517 241.426 582.757 242.146 582.517 243.346 582.517 243.586 582.037 244.786 582.037 245.026 581.797 245.026 581.557 245.266 581.077 245.746 579.877 246.466 579.637 246.706 579.637 246.946 579.397 246.946 579.157 247.426 578.917 247.426 578.677 247.666 577.957 247.906 577.717 248.146 576.757 248.866 576.276 249.346 576.036 249.826 575.796 249.826 575.556 249.826 575.316 249.826 575.076 249.826 574.836 250.066 574.596 250.066 574.356 250.306 573.156 250.306 572.676 250.306 572.436 250.306 571.956 250.306 569.796 250.066 568.836 249.826 568.836 249.586 568.596 249.586 568.596 249.346 568.596 249.106 568.836 249.106 570.036 248.626 571.476 247.666 572.676 247.186 573.636 246.946 573.876 246.946 574.116 246.946 574.356 246.466 574.356 246.226 574.356 245.986 574.596 245.986 574.836 245.746 575.076 245.746"/>
    </g>
</svg>
