<svg id="Lebanon" xmlns="http://www.w3.org/2000/svg" width="612" height="792" viewBox="0 0 612 792">
    <defs>
        <style>.cls-1{fill:#fff;fill-rule:evenodd;}</style>
    </defs>
    <polygon class="cls-1"
             points="62.404 357.34 62.644 357.58 63.124 357.82 63.364 357.82 64.564 358.54 65.284 359.02 65.764 359.499 65.524 359.739 65.044 359.979 64.564 359.979 64.324 360.219 65.044 360.459 65.044 360.699 65.284 361.659 65.044 362.619 64.804 363.819 65.044 364.059 63.844 364.779 62.644 365.019 62.164 365.019 61.924 365.259 61.204 365.739 61.444 366.219 61.684 366.219 61.684 366.699 61.444 366.699 61.204 366.699 60.724 365.979 59.284 365.499 58.564 365.979 58.084 366.219 57.364 366.939 57.604 366.939 58.084 367.419 58.084 367.899 57.844 368.139 56.644 368.619 56.164 368.619 55.924 368.619 55.444 368.619 55.203 368.859 54.963 369.099 54.723 369.099 53.523 369.099 53.283 369.339 53.283 368.859 52.563 369.579 52.083 370.059 51.843 370.059 51.843 370.299 51.123 370.299 50.643 370.059 50.403 369.579 50.163 369.339 48.963 368.619 49.203 368.379 49.923 368.139 50.163 367.899 50.403 367.659 50.643 367.179 51.603 366.219 51.843 365.979 52.083 365.739 52.323 365.739 52.803 365.499 53.283 365.019 53.523 364.779 54.003 364.299 54.243 363.819 54.723 363.579 54.963 363.339 54.963 363.099 55.203 362.859 55.203 362.379 55.684 362.619 55.924 362.619 56.164 362.619 56.884 361.899 57.364 361.179 57.604 360.699 57.844 360.219 58.084 359.979 58.324 359.499 58.564 359.26 60.244 358.78 60.964 358.78 61.924 358.54 62.164 358.3 62.164 357.58 62.404 357.34"/>
</svg>
