<svg id="Nepal" xmlns="http://www.w3.org/2000/svg" width="612" height="792" viewBox="0 0 612 792">
    <defs>
        <style>.cls-1{fill:#fff;fill-rule:evenodd;}</style>
    </defs>
    <polygon class="cls-1"
             points="443.068 517.65 442.828 517.65 442.348 517.89 442.108 517.89 441.868 517.89 441.148 518.13 440.908 518.13 440.668 518.13 440.428 517.89 439.468 517.171 439.228 517.171 438.028 516.211 437.308 515.731 437.068 515.731 436.588 515.731 436.348 515.731 436.108 515.971 435.628 516.451 434.668 515.731 434.187 515.491 432.987 514.771 431.787 514.051 430.827 513.331 430.107 513.331 429.387 511.651 429.147 511.171 428.907 511.171 428.667 511.171 428.187 510.931 427.707 510.931 426.747 510.451 424.587 509.011 423.627 508.291 423.147 508.051 422.907 508.291 422.907 508.771 422.667 509.011 421.707 508.771 421.227 508.051 420.507 507.331 419.547 506.851 418.827 506.611 418.827 505.891 418.827 505.651 418.827 505.411 420.027 503.491 420.507 503.251 420.747 502.771 420.987 502.051 420.987 501.571 420.747 501.571 420.507 500.371 420.747 499.891 420.987 499.651 421.467 499.411 421.947 498.692 421.947 498.212 421.707 497.972 421.707 497.732 421.707 497.252 421.947 496.772 422.187 496.532 422.667 496.532 423.147 496.052 423.387 495.572 423.627 495.092 423.867 494.852 424.107 494.852 424.347 494.852 424.827 494.372 426.027 493.172 426.747 492.692 427.467 492.452 427.707 492.692 427.947 493.172 428.187 493.652 428.427 494.372 428.667 494.132 429.147 494.372 429.387 494.372 429.627 494.132 429.387 493.892 429.627 493.892 429.867 493.652 430.587 492.692 430.827 491.732 430.827 491.252 430.827 490.532 431.067 490.532 431.307 490.532 431.307 490.772 431.547 491.012 432.027 491.012 432.027 490.772 432.267 490.532 432.747 490.052 432.987 490.052 433.707 490.292 434.428 490.772 434.908 490.532 435.628 490.532 437.068 491.012 437.548 493.172 437.788 493.652 438.268 493.652 439.948 494.132 441.628 495.332 442.108 495.812 443.308 497.012 444.268 497.492 444.508 497.252 445.228 497.492 445.468 497.732 445.948 497.972 446.428 497.972 446.908 497.732 447.148 497.972 447.628 498.452 448.588 499.172 448.828 499.411 448.828 499.891 449.068 500.611 450.509 502.291 450.989 502.531 451.229 502.531 451.469 502.531 451.709 502.291 451.709 502.051 451.949 501.811 452.189 501.571 453.629 501.091 454.349 501.091 455.549 501.331 456.269 501.811 456.269 502.051 456.029 502.291 456.029 502.771 456.749 503.491 456.749 504.211 456.749 504.691 456.749 504.931 457.709 505.171 458.189 505.411 458.429 505.411 458.669 505.891 458.909 506.371 459.149 506.611 459.869 506.851 460.589 506.851 461.309 507.331 461.069 507.811 462.269 508.291 462.509 508.291 463.469 508.291 464.189 507.571 464.429 507.331 464.909 507.331 465.629 507.811 465.629 508.291 465.149 509.011 464.909 509.731 464.909 510.691 465.149 510.691 465.389 510.691 466.11 510.931 466.59 510.931 467.55 510.931 467.79 510.931 467.79 510.691 468.03 510.691 468.27 510.451 469.47 510.691 470.67 510.691 470.91 510.931 471.15 511.411 471.63 511.651 471.87 511.651 472.11 511.651 472.11 511.891 472.83 513.331 473.07 514.291 473.55 514.531 474.03 514.531 474.27 514.291 474.51 513.811 474.51 513.571 474.27 513.091 474.27 512.371 474.99 511.651 475.23 512.131 474.99 512.371 475.47 513.091 476.67 513.811 477.63 514.051 478.11 513.571 478.35 513.331 478.35 512.851 478.59 511.891 479.55 511.891 480.03 511.891 480.27 512.131 480.27 512.371 480.27 512.611 481.711 513.091 481.951 513.331 482.911 513.091 483.391 513.331 483.391 513.811 483.871 514.291 484.351 514.291 485.311 514.291 485.551 514.291 486.271 514.051 487.471 514.051 487.951 514.291 488.431 514.291 488.671 514.051 489.151 514.291 489.631 514.051 489.871 514.051 489.871 513.811 490.111 513.571 490.351 513.091 490.591 512.851 491.551 513.091 491.791 513.091 492.031 513.091 492.271 513.091 492.511 513.091 492.991 513.331 493.231 513.331 493.471 513.331 493.471 514.051 493.231 515.251 492.991 515.971 492.751 516.211 492.511 516.691 492.511 517.171 492.511 519.33 492.271 519.81 492.271 520.29 492.271 520.77 492.271 521.01 492.751 521.73 492.991 521.73 493.471 522.21 494.191 523.41 494.431 524.61 494.431 524.85 494.191 525.33 494.191 525.57 493.951 526.53 493.711 527.01 493.711 527.25 493.711 527.97 492.991 528.69 492.271 528.45 492.031 528.21 492.031 527.97 491.791 527.73 490.831 527.97 489.871 528.45 489.631 528.69 488.671 528.69 488.431 528.45 487.951 528.45 487.711 528.45 487.231 528.69 486.991 528.69 486.031 529.17 485.071 528.93 484.351 528.21 483.391 527.73 483.151 527.73 482.911 527.73 482.431 528.21 482.431 528.45 481.951 528.93 480.99 529.17 480.27 528.69 478.59 527.97 477.15 527.49 475.95 527.73 475.71 527.49 475.47 527.49 474.99 527.49 474.99 527.25 474.75 527.01 474.27 527.01 473.79 527.25 473.55 527.49 472.83 527.97 471.87 527.25 471.63 527.01 471.39 526.77 471.39 526.53 471.39 525.81 471.39 525.57 470.43 525.09 469.95 525.33 469.71 525.57 469.47 525.81 468.99 526.05 467.79 526.53 467.55 526.53 466.83 526.53 466.59 526.29 466.35 526.05 464.429 524.85 463.229 524.13 462.749 524.13 462.509 524.13 462.269 524.13 461.789 524.13 461.309 523.89 461.309 523.65 461.549 523.41 461.549 522.93 461.549 522.21 461.549 521.97 461.309 521.25 461.069 521.01 460.829 520.77 459.869 520.77 458.909 520.53 458.189 520.53 457.949 520.53 456.509 519.33 455.549 519.81 455.309 520.05 454.589 520.05 454.109 520.05 454.109 520.53 453.869 521.01 453.629 520.77 453.389 520.77 453.149 520.53 452.909 520.53 451.709 520.05 451.469 519.81 450.989 519.81 449.788 519.81 449.548 520.53 449.548 521.01 449.308 521.01 449.068 521.25 448.828 521.25 448.588 521.25 448.348 521.01 448.348 520.77 447.628 520.29 447.148 520.29 446.428 520.29 446.188 520.29 445.708 520.05 443.788 519.81 443.548 519.33 443.548 519.09 443.548 518.37 443.308 517.89 443.068 517.65"/>
</svg>
