<svg xmlns="http://www.w3.org/2000/svg" width="612" height="792" viewBox="0 0 612 792">
    <defs>
        <style>
            .cls-1{fill:#fff;}.cls-2{fill:none;stroke:#b2b2b2;stroke-linecap:round;stroke-linejoin:round;stroke-width:0.9601px;}
        </style>
    </defs>
    <g id="bounds">
        <path class="cls-1"
              d="M457.2285,295.3433a3.9983,3.9983,0,0,1-1.789-.4224l-.48-.24a4,4,0,0,1-1.2207-.9429l-1.6807-1.92a10.8545,10.8545,0,0,1-1.45-4.4732l.24-2.4A4.0011,4.0011,0,0,1,452,282.5161l.72-.72a3.995,3.995,0,0,1,3.5449-1.1079l.9.1636a3.9943,3.9943,0,0,1-.9882-1.4087l-.7266-1.7442a3.997,3.997,0,0,1-.9375-1.3383l-1.21-2.8233-.8261-.9917a5.9235,5.9235,0,0,1-.88-6.2275,3.99,3.99,0,0,1-.9951.2134l-2.5577.2128-1.0283.2574-.6885.4131a4,4,0,0,1-2.9257.475l-2.16-.48a3.9979,3.9979,0,0,1-2.9267-2.6387l-.4805-1.44a3.988,3.988,0,0,1-.2061-1.2662v-2.2314l-.2744-.8247a3.9976,3.9976,0,0,1-.2051-1.2637v-.96c0-.03,0-.0606.001-.0909l-2.04.2266a3.9883,3.9883,0,0,1-2.4258-.5024l-1.6807-.96a3.3387,3.3387,0,0,0-2.7949-1.9932l-.1142.0254a4.001,4.001,0,0,1-2.6592-.3286l-.4795-.24a6.4874,6.4874,0,0,1-2.6885-4.5362v-1.2a3.9991,3.9991,0,0,1,.4229-1.7905l.24-.48a4.0029,4.0029,0,0,1,1.73-1.7578,3.95,3.95,0,0,1,.3681-.2734,3.995,3.995,0,0,1,.8135-1.17l.7139-.7139a4,4,0,0,1,1.042-.752l.48-.24a4.0035,4.0035,0,0,1,.9239-.3276c.0556-.0342.1132-.0669.1718-.0982l.4658-.4658.2608-.3911a4.01,4.01,0,0,1,1.61-1.3926,3.9972,3.9972,0,0,1-.332-2.1631l.1592-1.2754-.1123-.5625a3.9985,3.9985,0,0,1,1.7021-4.1128l.72-.48a4.0392,4.0392,0,0,1,2.3925-.6685,4.0128,4.0128,0,0,1,.2764-.5239l.5918-.9473v-1.2524a3.9981,3.9981,0,0,1,.57-2.0576l.1524-.2549c.0039-.1094.0127-.2188.0263-.3272a3.98,3.98,0,0,1,.0908-1.4512l.1309-.5258a3.9885,3.9885,0,0,1,.2754-1.1875l.48-1.2a3.9826,3.9826,0,0,1,.6465-1.0826c.0254-.0493.0517-.0981.08-.1464q-.0279-.1663-.0411-.335a6.6768,6.6768,0,0,1-2.8632-4.1587c-.084-.0967-.1641-.1968-.2383-.3a4.0028,4.0028,0,0,1-2.2471-1.9819l-1.166-2.3306a3.9816,3.9816,0,0,1-.9619-.7085l-.24-.24c-.0918-.0908-.1777-.1861-.26-.2847a12.1694,12.1694,0,0,0-2.6748-1.9863l-.96-.72c-.0244-.0175-.0478-.0356-.0713-.0542a3.9939,3.9939,0,0,1-2.0205-1.28l-.8984-.4488a4,4,0,0,1-2.1621-2.9531,7.0832,7.0832,0,0,1-4.2666-2.2744,4.0093,4.0093,0,0,1-2.252-1.5645l-.1758-.0249a49.4127,49.4127,0,0,0-2.2539-.7822,4,4,0,0,1-2.5742-1.9131l-.96-1.68a4.0057,4.0057,0,0,1-.5078-1.5879,3.9936,3.9936,0,0,1-.6191-1.3457l-.2119-.8471L407.6,186.18a4.0519,4.0519,0,0,1-.3525-.4019,4.0058,4.0058,0,0,1-.77-.291l-.96-.48a3.9913,3.9913,0,0,1-1.4111-1.1782l-.0713-.0942A7.0972,7.0972,0,0,0,401.9,182.16a3.9887,3.9887,0,0,1-1.3145-.65l-1.2148-.9107a3.9923,3.9923,0,0,1-2.3311-1.1377l-.3-.3a4.0528,4.0528,0,0,1-.4756.0283h-.2392a4,4,0,0,1-2.8252-1.1684l-.2783-.2778a4.0006,4.0006,0,0,1-1.7393-.5079q-.16-.0212-.3164-.0546a4.0164,4.0164,0,0,1-.8418.0888h-.2392a4.0027,4.0027,0,0,1-1.3653-.24,3.95,3.95,0,0,1-1.5176-.2686c-.04-.0049-.0791-.01-.1191-.0161a4.0011,4.0011,0,0,1-2.9727-.7353c-.03-.0054-.0615-.0113-.0927-.0176l-.8135-.1631c-.0264,0-.0537.001-.08.001h-.72a4.0144,4.0144,0,0,0-.96,0h-.48a3.9972,3.9972,0,0,1-1.9141-.4878c-.082.0054-.1641.0078-.2461.0078h-.4805a4.0006,4.0006,0,0,1-1.5048-.2939,3.957,3.957,0,0,1-.6543.0542h-.5567a4.0051,4.0051,0,0,1-1.3642.24h-.2393a3.9973,3.9973,0,0,1-2.6826-1.0332L371,174.3125l-.8965-.1621c-.0234,0-.0478,0-.0713,0a4.0031,4.0031,0,0,1-1.3691.24h-.4795a3.994,3.994,0,0,1-.9688-.1191l-.96-.24a2.268,2.268,0,0,0-2.3916.1191h-.1113a4.0008,4.0008,0,0,1-2.2891.72h-.24a3.9934,3.9934,0,0,1-.9688-.1191l-.5264-.1314a4,4,0,0,1-3.23-2.0971l-.5009-.5005a4.0012,4.0012,0,0,1-1.003-3.9932l-.1211-.06a3.9889,3.9889,0,0,1-1.0449-.7549l-.2392-.24a3.9987,3.9987,0,0,1-1.166-2.8227v-.7944c-.0118-.0328-.0235-.0655-.0342-.0987l-.24-.72a3.9864,3.9864,0,0,1-.205-1.2c-.0645-.0278-.128-.0576-.19-.0889l-.96-.48a4,4,0,0,1-1.791-1.793l-.17-.34a6.7625,6.7625,0,0,1-2.9472-2.7735l-.24-.48a4.163,4.163,0,0,1-.2187-.5293l-.2324-.6152a4.01,4.01,0,0,1-.5118-.7812l-.2392-.48a3.9907,3.9907,0,0,1-.3584-1.0884,6.0916,6.0916,0,0,1-1.0225-2.8564v-.24a4.0036,4.0036,0,0,1,.8428-2.4565l.084-.25a3.9491,3.9491,0,0,1,.2168-.524l.24-.48a4.0012,4.0012,0,0,1,1.1777-1.41l.7647-.5825.0283-.0279.19-.38a4.0076,4.0076,0,0,1,1.3672-1.544,3.8961,3.8961,0,0,1,.1308-.4321,3.98,3.98,0,0,1,.2539-1.4776l.72-1.92a4.0059,4.0059,0,0,1,.71-1.2016c.0049-.08.0108-.16.02-.24l-.3213-.6411a3.9914,3.9914,0,0,1-.4228-1.8647,3.9981,3.9981,0,0,1-.2412-1.3672v-.24a4.0007,4.0007,0,0,1,.2675-1.4384,3.9294,3.9294,0,0,1-.1669-.545,4.0009,4.0009,0,0,1,.082-3.4067l.7207-1.44a4.0733,4.0733,0,0,1,.4531-.708l.96-1.2a4.0244,4.0244,0,0,1,.5381-.5528l.1562-.3125.6729-1.5713a3.9779,3.9779,0,0,1,.5537-.9238l.16-.2c.02-.1011.044-.2017.0713-.3008a4.0276,4.0276,0,0,1-.1484-1.08v-.24a4,4,0,0,1,2.2129-3.5786l.8213-.41.7793-.521.538-.5371q.0675-.1751.1514-.3432l.24-.48a4,4,0,0,1,3.5772-2.21h.4805a4.001,4.001,0,0,1,1.792.4238l.2773.1392a4.0033,4.0033,0,0,1,.81-.083h.48a4.0023,4.0023,0,0,1,2.5108.8857,3.9993,3.9993,0,0,1,3.01-1.3657h1.2a4,4,0,0,1,.7715,7.9258l-.3457.3447a4.0064,4.0064,0,0,1-1.0371.7471l-.96.48a4.001,4.001,0,0,1-.8183.3027l-.96.24a4.0037,4.0037,0,0,1-3.19-.5527l-.6455-.4082a4.0024,4.0024,0,0,1-2.0508-.0268l-.6572.6572a4.0556,4.0556,0,0,1-.5606.4658,3.9969,3.9969,0,0,1-.3691,1.1348l-.0645.1289a4.0018,4.0018,0,0,1-.87,2.2592l-.62.7754-.5059,1.1807q-.0468.1092-.1.2153l-.1132.2256-.15.45a4.0065,4.0065,0,0,1-.7217,1.2954,4.007,4.007,0,0,1,.208,1.2779v.48a4.002,4.002,0,0,1-.6543,2.1929,4,4,0,0,1,.1738,1.167v.48a4.0012,4.0012,0,0,1-.0654.72,3.8773,3.8773,0,0,1,.0615.5439l.166.8306a4.0069,4.0069,0,0,1,.0332,1.3853,4.0781,4.0781,0,0,1,.045.6v.96a3.9932,3.9932,0,0,1-1.44,3.0743v.5258a3.9869,3.9869,0,0,1-1.11,2.7657,3.9825,3.9825,0,0,1-.2725.7045l-.24.48a4.0016,4.0016,0,0,1-1.7158,1.75,3.9971,3.9971,0,0,1-1.3994,1.5181,3.9577,3.9577,0,0,1,.1718.95c.0215.04.043.08.0635.1206l.4805.96q.063.1266.1172.2563c.0859.0361.1709.0747.2548.1167l.4795.24a3.9949,3.9949,0,0,1,1.0391.749l.4775.4775a4.002,4.002,0,0,1,.752,1.04l.0449.0909c.03.0141.06.0283.09.0434l.9541.4771a4.0016,4.0016,0,0,1,1.541,1.3594l.48.72a3.978,3.978,0,0,1,.4688.958l.2607.6709a3.9985,3.9985,0,0,1,.4229,1.79v.4946L360,160.68a4.0021,4.0021,0,0,1,.3682,1.1338,3.9981,3.9981,0,0,1,.5625.4677l.48.4805a3.9322,3.9322,0,0,1,.295.33l.96,1.2a3.9975,3.9975,0,0,1,.6875,1.2827,3.9987,3.9987,0,0,1,1.71-.3838h.2392a27.3674,27.3674,0,0,1,2.88.85,4.0021,4.0021,0,0,1,3.5947.1172q.1231-.0074.2461-.0073h.4805a4,4,0,0,1,2.22.6724l.03.02a4.1272,4.1272,0,0,1,.4609.19,4.0014,4.0014,0,0,1,1.129-.1626h.96a19.0258,19.0258,0,0,0,3.1826-.0351l.7207.24a3.9843,3.9843,0,0,1,1.03.5176c.1172.0039.2334.0132.3486.0268a54.8332,54.8332,0,0,0,4.0323.4615,3.9966,3.9966,0,0,1,2.2.4775c.082-.0054.164-.0078.2461-.0078h.24q.12,0,.24.0073c.0791-.0049.16-.0073.24-.0073h.4794a12.3421,12.3421,0,0,1,3.4542.9351c.0244.0078.0478.0161.0712.0249h.0752a34.542,34.542,0,0,0,4.8467,1.4863l1.1992.48a3.9944,3.9944,0,0,1,.9131.5127l.2217.1665a4.0006,4.0006,0,0,1,3.3564,2.2036l.0059.0127a3.9893,3.9893,0,0,1,1.1973.4179h.02a4,4,0,0,1,2.8281,1.1714l.72.72a4.0081,4.0081,0,0,1,.64.8349,4.904,4.904,0,0,1,4.0586,3.6221l.6084.6089a3.9941,3.9941,0,0,1,1.6826,1.7319l.24.48a4.0086,4.0086,0,0,1,.3955,1.3183,4.002,4.002,0,0,1,.9678,2.2393c.0283.02.0566.04.085.061a8.6322,8.6322,0,0,1,6.6875,3.2915h.288a4,4,0,0,1,3.2676,1.6929,3.948,3.948,0,0,1,.5176.436l.24.24a3.9614,3.9614,0,0,1,.5039.6133l.4795.72a7.4182,7.4182,0,0,0,.9346,1.564c.0625.0527.124.1074.1826.164a3.9994,3.9994,0,0,1,1.7422,1.021l.24.24a2.149,2.149,0,0,0,1.0108.8276l.5351.4014a3.9975,3.9975,0,0,1,2.7715,1.1684l.24.24a3.9979,3.9979,0,0,1,.92,1.4257c.0967.08.19.1646.2793.254l.24.24a3.9992,3.9992,0,0,1,1.1553,2.4336,4,4,0,0,1,3.86,3.9976v.24a3.9962,3.9962,0,0,1-.0253.4463l.083.166.0322.0654a4.0026,4.0026,0,0,1,3.03,3.8819v.3173a3.995,3.995,0,0,1,.2392,1.3628v.3145a4.0044,4.0044,0,0,1,.24,1.3652v1.68a4,4,0,0,1-1.1749,2.8315l-.0214.021a3.98,3.98,0,0,1-.544.7759,3.9891,3.9891,0,0,1-.18,2.0562v.0752a3.9974,3.9974,0,0,1-.57,2.0576l-.1494.25v1.292a3.9986,3.9986,0,0,1-.6084,2.12l-.3633.581a3.9957,3.9957,0,0,1-.6611,1.9195l-.4805.72a4,4,0,0,1-1.1084,1.1074l-1.6611,1.107a4,4,0,0,1,.4424,3.0161l-.12.4819a4.0025,4.0025,0,0,1-2.4454,3.6733l-.0107.0079-.1338.2021a4.0091,4.0091,0,0,1-1.5439,1.3623l-.416.2075q-.1056.1252-.2227.2417l-1.2,1.2a4.0112,4.0112,0,0,1-.9355.6953l-.0254.0259-.0059.0054a4.0519,4.0519,0,0,1,.5029.3677l1.68,1.44c.0723.062.1426.1265.21.1934a4.0007,4.0007,0,0,1,4.4453-.0054l.2021.1352.4434-.0556a4.0007,4.0007,0,0,1,2.7119.6391l.7207.4795a3.9984,3.9984,0,0,1,1.6641,4.3013l-.0108.0439.2754,1.2383a3.9987,3.9987,0,0,1-.6933,3.2505,4.0733,4.0733,0,0,1,.0674.6533l.7919-.1982a4.02,4.02,0,0,1,.6368-.1055l2.2334-.186,1.0839-.4644a4.0038,4.0038,0,0,1,2.545-.2041l2.8808.72a3.9991,3.9991,0,0,1,2.7442,2.396l1.4394,3.6a3.9941,3.9941,0,0,1,.0459,2.85c.003.12-.001.24-.0088.36a4.0188,4.0188,0,0,1-.1992.9917l.001.002a4.0175,4.0175,0,0,1,.6045.9848l.96,2.2408a3.9936,3.9936,0,0,1,.9756,1.3969l.5664,1.36q.13.109.25.2295l.96.96a4.0018,4.0018,0,0,1,1.1719,2.8287v.5322l.5918.9473a3.9676,3.9676,0,0,1,.4033.8564l.4795,1.44a3.9978,3.9978,0,0,1-.3653,3.3213l-.3261.5449a6.5272,6.5272,0,0,1-1.2364,6.2271l-.7128.7129a4,4,0,0,1-2.14,1.1167l-4.081.7192A3.965,3.965,0,0,1,457.2285,295.3433ZM426.2666,247.186h0Zm10.0811-8.8794h0Z"/>
    </g>
    <g id="Ob_River" data-name="Ob River">
        <path class="cls-2"
              d="M440.4279,211.6679v.48l.24.24.24.72h.24l.96.24.24-.24.24.24h.48v1.2l.24.48v1.44l.24.24v1.68l-.24.24-.24.24-.24.24v.24l-.48.48-.48,1.2v.24l-.24.96.24.48-.24.48v.96l-.72,1.2v2.4l-1.2,1.92.24.48-.48.72-2.16,1.44-1.44-.24-.72.48.24,1.2-.24,1.92,1.44,1.68-.24.96v.48h-.24l-1.2.96-.48.72-.48.24-.72.24-.48.72-1.2,1.2-.48.24-.48.48h-.72l-.48.24-.24.24-.24.24-.24.24v.48l-.24.48-.24.24-.48.24-.48.24-.24.24-.48.24-.24.48v1.2h.24l.24.96.48.24,2.16-.48.48.72h1.44l1.68,1.44v.72l1.68.96,2.16-.24,1.2-.96,1.44.96,1.92-.24.72.48-.24.96.48,2.16h-.48l-.72.72v.96l.48,1.44v2.88l.48,1.44,2.16.48,1.2-.72,1.92-.48,2.88-.24,1.68-.72,2.88.72,1.44,3.6-.72.96.48.48-.96.72.48.24-.24.72.24.48v.24l1.2,1.44,1.44,3.36.48.24,1.2,2.88h.48l.96.96v1.68l1.2,1.92.48,1.44-.72,1.2-3.6.48-.48-.48-2.64-.48-.72.72-.24,2.4.48.24v1.2l1.68,1.92.48.24,4.08-.72.24-.24.48-.48v-.48l.72-.72m-90.7257-174.95h-1.2l-.48.72-.72.72-.96.48-.96.24-.72-.48-.96-.48-.48-.48-.24-.24h-.48l-.24.24-.72.48-.72-.24-.72-.72-.48-.24h-.48l-.24.48-.24.72-.48.48-.72.72-.48.48-1.2.72-.96.48v.24l.24.48.24.24v.48l-.48.96v.72l-.96,1.2-.72,1.68-.24.48-.24.72-.24.24-.48.24-.96,1.2-.72,1.44.24.48v.24h1.44v.48l-.24.24-.48.48-.72,1.68v.24l.72.48.24.24v.48l-.48.24h-.24l.24.48.24.48.24.24v.24l.24,1.2-.24.24v.72l.24.24v.96h-.24l-.48.24-.48.24-.72,1.92.24.24.24.48v.48h-.48l-.24.24v.24l-.24,1.2-.24.48-.72.24-.48.24-.24.48v.24l-.24.48-.48.24-.24.24-.96.72-.24.48-.24.72-.24.48-.24.24v.24l.24.24v.24h.24l.24.24.24.48v.96l.24.48.24.24.48.96.24.72.24.48.48.48v.24h.48l.72.24.48.24.24.24.24.24.24.48v.48l.24.48.96.48h.48l.48.24.48.24.48.72.24.72.24.48v1.2l.24.72.24.48v1.68l.24.24.48.24.48.24.48.24.48.48.96,1.2v.72l-.24.48-.24.48v.24l-.24.48.24.24.48.48.24.24.24.48h.24l.96.24h.24l.24-.24v-.24l.24-.24.24-.24h.24l.72-.24.24.24.24.24h.24l.72-.48.24-.24.24-.24h.24v.24l.24.24h.96l.48.24.24.24.96.24h.48v-.24h.24l.96-.48.24.24v.24h.48l1.2.24.24-.24h.48l.72.48h.24v.48l.24.24h.24l.48-.24h1.44l.48-.24h.96l.24.24.48.24h.48l.24-.24.24-.24.24-.24.72.24.24.24.24.48.24.24h.48l.24-.24h.72v.24h.72l.24-.24v.24h.24l1.2.24h.24l.48-.24.24.24h.24l.24.48.24.24v-.24l.48-.24h.24v-.24l.48.48v.24h.48l.48.24.24-.24h.24l.24-.24h.24l.24.24v.24l.24.24h.24v-.48l-.24-.24h.48l.24.24.24.24.24-.24h.48v.24l.24.24h.72l.48.24.24.24h.48v-.24h.24l.24.24.24.24h.96v.48l.48.48.24.24h.24l.24-.24.24-.24h.48l1.2.48.96.72v.24l.24.24.24.24.48-.24.24-.24h.24l.24.48v.24l.96.72.96.72h.72l.24.24.24.24.24.24.24.24.24-.24.24-.24h.48l.72.72v.96h.24l.72.96.96.48.24-.24.48-.24.24.24h.48v.24h.24v.24l.24.72.24.48.72.72.96.96.48.24.24.48-.24.24v.24l.24.96.24.24.72.48v.48l-.24.24v.48l.96,1.68h.24l.48.24.24-.24.96.72,1.68.24.48-.24v.24l.48.24v.24l-.24.24.48.48v.24h.24l.24-.24.24-.24h.24l.24-.24.24.24h.24v.24l.24.96.24.48v.24l.48-.24.48.48h.24v.24l.24.24h.48l.24-.24.24-.24h.96l.24.48.24.24.24.24h.24l.24.24.48.72v.48l-.24.24h.24l.48.24.24.24v.24l-.24.24h-.48v.24l.96.48v-.24l.72.24.48.72v.24h1.2l.24.24v.48l.96.72h.48l.96.72v.24l.24.24v.24h.72l.72-.24h.24l.24.24-.24.24v.24l-.24.24.24.24v.24l.24.24.72.24h.48l.24.24v.72l.96,1.92.48.96,1.44.48v-.24l.48-.24h.48v.24l-.24.48-.24.48v.24l.48.24.48.96v.48"/>
    </g>
</svg>
