<svg id="Oman" xmlns="http://www.w3.org/2000/svg" width="612" height="792" viewBox="0 0 612 792">
    <defs>
        <style>.cls-1{fill:#fff;fill-rule:evenodd;}</style>
    </defs>
    <path class="cls-1"
          d="M210.0133,572.3674h-.24v-.96l.24-.72.24-.24.48-.48h.72l.24-.24.48-.96.72-.96.24-.24.24.24v1.68l-.24.24-.24.24h-.72l-.24.24-.24.48-.24.48v.48l-.72.48Zm-9.1206-67.6762-.24.96.48.48v.24l-.24.96-.72-.72v-.24l-.48.24v.72l.24.24.48.48-.24.96-.48.48v.24l-.48.48-.48.48-.24.24-.24.24-.24.48v.24h-.24l-.48-.48h-.24v-.72l.24-1.2.48-.48.24-1.2v-.72h-.72v-.24l.48-.24.72-.96.24-.24.24.48.48.48h.24l.48-.24.24.24v-.24l-.48-.24v.24h-.24l.24-.48.24-.48Zm-19.6812,49.4372,3.84-6.96-2.88-8.16.24-.96.24-.24v-.96l.24-.96.48-.96.24-.48.48-.24.24-.48.24-.24.48-.48.72-1.68.96-1.2.96-.96.24-1.2-.24-.24v-.72l1.2-.24h.48l.96.48h2.16v-.24l-.24-1.68h-.96l-.72-.48.48-.72.24-.96v-1.68l.48-.24.24-.48v-.72l.24-1.44v-.24l.48-.24.24-.24h.24l.24-.24h.24l.24.24h.24l.24.24v.96l-.24-.24h-.24l.48,1.68h.24l.48.24.24-.48.24-.48h.96v-.24h.48l.24-.24v-.48h.24l.24,1.2.48,1.92v.72l.24.48.24.96v.24l.24.48.24.24.24.24.72,1.2v.72l.24.72.48.48.48.96.48.72.48.48.48.48,3.12,1.92,2.64,1.68.24.24h.24l.24.24h.96l.48.24h.24l.48.24h.24l.24.24.24.48.24.24.24.24h.24l.72.24h.72l.24-.24.72.24.24.24,1.44,1.92.48,1.44.48.48.48,1.44v.48l.24.24.24.96.24.24.48.48.24.24.24.24.24,1.44v.24l.24.24.72,1.2.24.48.48.48.24.24.48.24.72.24,1.2.48.24.72v.48l-.24,1.2v.24l-.48.72-.24.48-.72.48-.96,1.68-.72.24-.48.72-.24.24h-.24v.24l-.24.72-.24.48-1.44,1.68h-.72l-.72.24-.48.24-.72.48-1.92,1.2-.72.72h-.24l-.48.48-.96,1.2v.96l-.24.24-.72.24-.48.24-.24.48-.24.48-.72,1.44-.72.48-.48-.24-1.2-.48h0l-.48-.24-.24-.24.24-.48.24-.24.48-.72v-.24l-.24-.24h-1.2l-.24.24-.24.48-.24.24-1.2.72-1.2.96-.24.48v1.2l-.48,1.2-.72,1.2-.48.24-.48.72v2.64l.24.72v.48l-.24.24-.24.48v.48l.24,1.44.24.96-.48.48h-1.44l-.48-.24-.72-.24h-.24l-1.68-.24h-1.92l-.96.24h-1.2l-.24.24-.96.24-.24.24-.72.48h-.24l-.48.48-.24.24-.24.24v.96l-.48,1.2-.48.48-.24.48-.24.24v.72h-.72l-.24.24-.72.48-.48.48h-.48l-.48-.24h-.24l-.48-.24-1.68-.24h-2.16l-1.44-.24h-2.16l-.24.24-.24.24-.24.48-.24.24-.24.24h-.24l-.72.24-.24.72-.24.48v.24l.48.24v.96l-.72.96-.48.48-1.44,1.2-.48.24h-.96l-.48.24h-.96l-.72-.48-.24-.24-.24-.24-.24-.24-.24-.24h-.24l-.96-.24-.72-.24-.24-.24-2.88-.48-.96.24-.96.48h-1.92l-.48.24-.24.24-.72.24h-.24l-.24-.24-.96-.24h-3.36l-.24.24-1.44-7.2-.24-.72-4.08-18.7189,30.4819-2.16Z"/>
</svg>
