<svg id="Pakistan" xmlns="http://www.w3.org/2000/svg" width="612" height="792" viewBox="0 0 612 792">
    <defs>
        <style>.cls-1{fill:#fff;fill-rule:evenodd;}</style>
    </defs>
    <polygon class="cls-1"
             points="267.617 486.452 270.497 486.692 270.737 486.692 271.697 487.172 274.337 488.132 274.817 488.372 275.777 488.132 276.017 487.892 276.258 487.892 276.738 487.652 277.938 487.412 278.898 487.412 279.378 487.412 279.618 487.412 280.338 487.652 280.578 487.652 281.058 487.652 281.298 487.892 282.258 488.132 283.698 488.612 285.618 488.372 288.738 487.892 290.178 487.652 291.378 487.652 293.299 487.412 293.779 487.172 294.979 487.172 295.459 486.692 295.939 486.212 295.459 485.492 295.219 485.252 294.979 484.772 295.459 484.052 295.699 483.812 295.939 483.332 296.659 481.173 296.419 480.693 296.419 480.453 296.179 479.733 297.619 476.133 297.859 476.133 298.099 475.893 298.339 476.133 298.819 475.893 299.059 475.893 299.299 475.893 300.259 474.933 300.499 474.693 300.739 473.733 302.179 473.253 302.419 473.253 303.139 473.013 303.379 473.013 303.619 473.013 303.859 473.253 303.619 473.733 303.859 473.973 305.299 474.453 305.539 474.213 305.779 474.453 306.739 474.453 308.66 474.213 310.34 473.733 310.58 473.253 310.34 473.013 310.1 473.013 309.86 473.013 309.62 473.013 309.38 473.013 308.9 472.533 308.66 471.573 309.38 471.573 309.62 471.813 309.86 471.813 310.1 471.813 310.82 471.333 311.06 471.093 311.3 470.853 311.54 470.853 312.02 470.853 312.26 470.853 312.98 470.373 313.7 469.653 313.94 469.413 314.18 469.173 314.42 469.173 314.66 469.413 315.14 469.893 317.3 470.613 317.54 470.613 317.54 470.373 317.3 470.133 316.58 469.893 317.06 469.653 317.3 469.653 317.54 469.653 317.78 469.653 318.5 470.133 318.98 470.853 318.98 471.093 319.46 472.053 319.7 472.053 321.38 471.813 322.34 471.333 322.58 471.093 322.82 470.853 323.3 470.133 323.3 469.893 324.261 469.413 324.501 469.173 324.261 468.213 324.261 467.253 324.261 466.773 324.261 466.533 324.501 466.293 324.501 465.573 324.501 465.333 324.501 464.853 324.501 464.613 324.261 464.374 324.261 464.134 324.501 463.654 324.501 463.414 324.741 463.174 324.981 463.174 325.221 462.934 325.461 462.934 325.701 462.934 325.941 462.694 325.941 462.454 326.421 461.974 326.181 461.494 326.181 461.254 325.941 460.774 326.181 460.534 326.661 460.294 327.141 459.814 327.141 459.334 327.141 459.094 327.141 458.614 327.141 458.134 327.621 457.894 327.861 457.654 328.341 457.894 330.501 457.894 330.741 457.894 331.941 457.654 332.901 457.174 333.621 456.694 334.581 455.974 334.581 455.494 334.341 455.014 333.861 454.534 333.621 454.294 333.381 453.814 333.381 453.574 333.621 453.334 333.861 453.094 333.861 452.614 333.381 451.654 333.141 451.654 332.181 451.414 331.701 450.214 331.221 449.254 331.701 448.294 331.941 448.294 332.181 448.294 332.421 448.294 332.901 448.534 333.621 448.774 334.101 449.014 335.301 449.494 336.501 449.734 337.221 449.734 339.141 449.974 339.862 449.974 341.782 449.254 342.262 448.054 342.742 446.135 342.262 445.895 342.022 445.655 341.542 444.935 341.302 444.455 341.302 444.215 341.542 443.975 342.262 443.975 342.502 443.495 342.502 443.015 342.502 442.775 343.222 442.295 344.182 441.335 345.382 440.615 345.862 440.375 346.102 440.135 346.102 439.895 346.582 438.935 346.822 438.695 347.302 437.495 346.822 436.775 346.822 436.535 347.062 436.055 347.542 435.815 347.782 435.575 347.542 434.375 347.302 433.895 347.062 432.935 347.302 432.695 346.582 430.775 346.102 430.295 345.622 429.815 344.902 429.096 344.422 428.856 344.662 428.616 345.142 427.896 347.062 426.696 348.022 425.976 348.262 425.496 348.502 425.016 348.742 424.776 349.222 425.256 349.462 425.496 351.622 424.296 353.062 423.336 353.302 422.856 353.302 422.616 353.782 422.616 354.742 422.376 355.223 422.376 355.703 422.376 355.943 422.376 356.423 421.896 356.663 421.896 357.383 421.656 358.103 421.656 358.343 421.896 358.583 421.896 359.063 421.896 359.303 421.896 359.543 421.896 359.783 421.656 360.743 421.656 363.383 421.656 364.343 421.656 364.823 421.896 365.543 421.656 365.783 421.656 367.223 421.896 367.943 422.136 368.183 422.616 368.903 422.856 369.623 422.616 370.343 421.896 372.024 421.176 372.504 420.936 372.744 421.176 372.984 421.416 373.224 421.416 373.464 420.936 373.224 420.936 374.184 420.696 374.424 420.696 375.384 421.176 376.824 421.416 377.064 421.416 378.024 421.416 378.264 421.656 378.504 421.896 378.744 421.896 379.224 422.136 379.464 422.136 379.944 422.376 380.184 422.376 380.424 423.096 380.184 423.336 380.184 423.576 380.184 424.056 380.424 424.296 380.664 424.296 381.144 424.296 381.384 424.056 382.104 424.056 382.344 424.056 382.584 424.296 383.064 424.536 383.304 424.776 383.544 425.016 383.784 425.256 384.264 425.736 384.984 427.416 384.984 427.656 385.224 429.576 384.744 430.535 384.264 430.775 384.024 431.015 384.024 431.255 384.264 431.735 384.504 431.975 384.744 431.975 384.984 431.975 385.224 431.975 385.464 432.215 385.704 432.215 385.704 432.455 385.944 433.175 385.944 433.415 385.944 433.895 386.184 434.135 386.664 434.135 387.145 434.135 387.865 433.895 388.345 433.655 389.305 433.175 389.305 434.135 389.305 434.375 389.545 434.855 389.785 434.855 390.505 435.095 390.745 435.335 390.745 435.575 390.985 435.815 392.185 436.295 393.865 437.015 395.065 437.255 396.265 437.975 396.505 437.975 396.745 437.975 396.985 437.975 397.225 437.975 397.465 437.975 397.705 437.975 398.185 437.975 398.665 438.215 398.905 438.215 399.385 437.975 399.625 437.735 399.865 437.735 399.385 437.975 397.705 439.175 396.265 439.895 395.545 440.135 394.825 440.615 393.145 441.575 393.145 441.815 393.385 442.295 393.385 442.535 393.145 442.775 392.425 444.215 392.185 444.935 391.945 446.135 391.465 446.135 391.225 446.135 390.745 445.895 390.745 445.655 390.505 445.415 390.265 445.175 389.785 445.175 388.585 444.935 388.345 444.935 388.105 444.935 387.865 444.935 386.664 445.655 386.184 446.135 386.184 446.375 385.464 446.615 385.224 446.615 384.984 446.615 384.744 446.375 384.504 446.135 384.264 446.135 384.024 446.375 383.544 446.375 383.064 446.615 382.824 446.855 382.584 447.334 382.344 447.334 381.144 447.334 380.904 447.334 378.984 446.615 378.504 446.615 377.784 445.895 377.304 445.895 376.824 445.895 376.584 445.895 376.104 445.655 372.984 444.935 372.744 444.935 372.504 444.935 371.784 444.455 371.544 444.455 371.303 444.215 371.064 443.975 370.343 443.975 370.103 443.975 369.623 443.975 369.383 444.215 368.903 444.215 368.423 444.695 368.183 444.695 367.703 444.695 366.983 444.695 366.743 444.935 366.503 445.175 366.263 446.135 366.023 446.375 365.303 447.574 365.303 448.054 365.303 448.294 365.543 448.294 365.783 448.534 366.023 448.534 366.263 448.534 366.743 448.774 366.983 449.734 366.743 449.974 366.503 450.214 366.263 450.214 366.023 450.454 366.023 450.694 366.023 450.934 366.263 451.414 366.503 451.654 366.983 451.654 367.223 451.654 367.463 451.414 368.903 451.654 369.143 451.894 369.143 452.134 368.903 452.614 368.903 452.854 368.663 453.094 368.423 453.334 368.183 453.334 367.703 453.574 367.463 453.574 367.223 453.574 366.983 453.574 366.743 453.814 366.503 454.054 366.503 454.294 366.263 454.774 366.263 455.014 366.503 455.494 366.983 455.734 367.223 455.974 367.463 455.974 367.703 456.214 367.943 456.454 367.943 456.694 367.943 456.934 367.943 457.174 367.463 458.374 367.223 458.614 366.983 459.094 366.743 459.094 366.503 459.334 366.263 459.574 366.263 459.814 366.263 460.054 366.503 460.294 367.703 461.734 367.943 461.734 368.183 461.974 368.423 461.974 368.663 461.974 368.903 462.214 369.143 462.454 369.143 463.654 368.903 464.134 368.903 464.374 369.143 464.613 370.583 464.853 371.303 464.853 371.544 464.613 371.784 465.333 371.544 466.773 371.784 467.493 372.024 467.733 372.264 467.973 373.704 467.973 374.664 467.973 374.904 467.973 376.584 468.933 377.064 469.413 377.304 469.413 377.304 469.893 377.544 470.133 377.784 470.373 377.784 470.613 377.784 470.853 377.064 471.573 376.584 472.053 376.104 472.053 374.664 472.533 374.184 472.533 373.944 472.293 373.704 472.053 373.464 472.293 372.984 472.773 372.024 473.253 371.303 473.493 370.583 473.973 369.623 475.413 369.623 475.653 369.863 475.893 370.103 476.133 370.343 476.853 370.823 478.293 370.583 478.533 370.343 478.533 370.343 478.773 370.103 479.013 369.863 479.253 369.623 481.173 369.623 481.653 369.863 482.133 370.103 482.133 370.343 481.893 370.583 481.653 371.064 481.893 371.303 481.893 371.064 482.372 370.823 482.612 369.863 482.852 368.183 483.812 367.463 484.292 366.983 485.252 366.263 485.732 365.543 486.212 365.063 486.692 364.583 487.652 363.383 488.852 363.143 489.092 363.623 489.332 363.863 489.572 364.103 489.812 364.103 490.292 364.103 490.772 363.863 491.492 362.423 491.972 361.943 492.212 361.463 492.212 360.503 492.452 359.063 492.932 358.823 493.172 358.103 495.092 357.383 496.772 357.383 497.012 355.463 500.131 355.223 500.371 354.742 501.091 354.262 502.051 353.062 502.531 352.102 502.771 351.382 503.251 350.902 503.491 350.422 503.491 348.982 504.211 348.022 505.411 347.542 506.611 347.062 507.811 347.062 508.051 346.342 508.771 345.862 509.011 344.902 509.731 344.182 510.691 343.942 511.891 343.942 512.371 342.022 512.851 341.542 512.851 341.302 512.851 340.822 512.851 340.342 512.851 339.862 512.851 339.622 512.851 339.141 512.851 338.901 512.851 337.941 512.851 337.701 512.851 337.461 513.091 336.981 513.091 336.501 513.331 336.261 513.331 336.021 513.571 335.541 513.811 335.061 513.811 334.821 514.051 334.581 514.051 334.101 514.051 333.861 514.051 333.621 514.051 333.381 513.811 333.141 513.811 332.901 513.571 332.661 512.611 332.421 512.131 332.661 511.891 332.661 511.651 332.421 511.411 331.941 510.691 331.701 510.451 331.221 510.451 330.981 510.211 330.021 510.451 328.581 511.411 328.341 511.651 327.621 512.131 327.381 512.611 327.141 513.091 326.901 513.331 326.901 513.571 326.661 514.051 326.661 514.291 326.421 514.531 324.741 516.211 323.781 517.171 323.3 517.171 323.06 517.41 321.86 518.37 321.14 520.05 320.66 521.73 320.66 522.21 320.9 522.21 320.9 522.45 321.14 522.69 321.38 522.93 321.62 522.93 321.86 523.17 322.58 523.41 322.82 523.65 323.06 523.89 323.3 524.13 323.3 524.37 323.781 524.61 324.261 524.61 324.741 524.61 325.701 524.61 325.941 524.61 326.181 524.61 326.181 524.85 326.421 524.85 326.661 525.09 326.901 525.57 326.901 526.77 326.661 527.01 326.661 528.45 326.421 528.45 326.421 528.93 326.181 529.17 325.941 529.41 325.701 529.65 325.701 529.89 325.461 530.85 325.701 531.81 327.141 533.97 327.381 534.21 327.621 534.21 327.861 534.45 329.301 534.45 329.541 534.45 329.781 534.21 330.261 534.21 330.501 534.21 330.501 534.45 330.741 534.69 330.741 534.929 330.741 535.169 330.741 535.649 330.501 535.889 330.501 537.089 330.501 537.329 331.221 538.769 331.461 539.249 331.701 539.489 331.941 539.729 332.181 539.969 332.181 540.209 332.181 540.449 332.421 540.929 332.421 541.169 332.421 541.409 332.661 542.129 332.661 542.369 332.901 542.849 332.901 543.089 333.141 543.329 333.621 544.769 333.621 545.249 332.901 545.489 332.661 545.729 332.661 546.209 332.901 547.169 333.141 547.409 333.621 547.649 333.861 547.889 332.901 548.369 332.661 548.369 332.421 548.129 332.181 548.129 332.181 548.369 331.461 548.849 331.461 549.089 330.741 549.329 330.501 549.329 329.301 549.089 328.821 548.849 328.821 548.369 328.821 547.649 329.061 547.409 328.821 547.169 328.581 547.169 327.141 547.409 326.421 547.649 325.701 547.889 324.981 548.129 324.741 548.129 324.261 548.129 324.021 548.849 323.781 549.089 323.3 549.329 323.06 549.329 320.42 549.089 320.18 548.849 319.7 548.369 319.46 547.889 318.98 547.649 317.3 547.649 316.1 547.409 314.42 547.169 313.94 547.409 313.46 547.409 313.46 546.929 313.22 546.929 313.22 546.689 312.02 546.449 311.78 546.449 311.54 546.449 311.3 546.689 311.06 549.329 311.06 549.809 311.06 550.049 310.58 550.049 310.1 550.049 307.699 549.809 306.739 549.809 306.019 550.529 305.779 550.769 305.779 551.489 305.299 551.729 305.539 551.009 305.539 550.769 305.539 550.289 305.059 551.729 305.059 552.208 304.579 552.208 304.339 551.729 304.339 551.489 304.579 551.009 304.339 549.809 304.099 549.569 304.339 550.049 304.339 550.769 304.099 551.249 303.379 550.769 303.139 550.529 303.139 550.289 302.659 549.809 302.419 550.049 302.419 550.289 302.419 550.529 300.979 550.769 300.739 550.769 300.259 550.529 300.259 550.049 299.779 549.809 299.299 549.569 299.299 549.329 299.539 549.089 299.299 548.609 299.299 547.889 299.059 547.649 298.579 547.649 298.099 547.409 297.859 547.409 297.619 546.209 297.619 545.969 297.619 545.249 297.619 544.769 297.619 543.809 297.379 543.329 297.139 542.849 296.659 541.649 296.659 541.169 297.379 540.689 297.619 540.689 297.859 540.449 297.619 540.209 296.659 539.729 295.219 539.249 294.259 538.769 293.059 538.769 292.819 538.769 292.579 539.009 292.339 538.769 292.579 538.529 292.819 538.289 292.579 538.049 292.579 537.809 293.059 536.609 293.299 535.649 293.539 535.409 293.539 535.169 293.299 534.929 293.299 534.69 292.819 534.21 292.339 533.73 292.099 533.25 292.099 532.29 292.099 531.81 291.138 530.85 290.418 530.37 289.458 530.37 289.218 530.37 288.978 530.61 288.738 530.61 288.258 531.33 288.978 531.33 288.978 531.09 289.458 531.09 290.178 531.09 291.378 531.81 291.618 532.77 290.178 532.53 290.178 532.29 289.458 532.05 288.978 532.05 288.258 532.05 286.338 531.81 284.898 532.05 283.698 532.29 282.978 532.05 282.498 531.81 281.778 531.57 280.818 531.33 279.858 531.33 279.378 531.57 279.378 531.81 279.138 532.05 278.658 532.05 278.418 532.05 277.938 531.81 276.978 531.33 275.537 531.09 275.297 531.09 274.817 531.33 274.577 531.33 274.337 531.81 274.337 532.05 274.337 532.29 274.577 532.53 274.097 532.53 273.857 532.53 273.857 532.05 273.857 531.81 273.617 531.57 273.137 531.33 272.897 531.33 271.697 531.09 269.057 530.13 269.057 529.17 269.297 529.17 269.537 529.17 269.777 528.93 269.537 528.93 268.817 528.93 268.577 528.93 268.097 528.93 268.337 529.41 268.577 529.17 268.817 529.17 269.057 529.65 268.817 529.89 268.337 529.89 267.617 529.89 267.377 529.65 266.897 529.41 266.417 529.17 265.937 528.93 265.697 528.93 265.217 528.93 264.737 528.93 264.257 528.93 264.017 528.93 263.777 529.17 263.297 529.65 263.297 529.89 262.817 530.13 261.617 529.89 261.377 529.89 261.137 529.65 260.897 529.65 260.657 529.41 260.417 529.41 259.936 529.41 259.696 529.41 258.976 529.41 258.736 529.41 258.496 529.41 257.776 529.17 257.296 528.93 257.056 528.69 256.576 528.69 255.136 528.45 254.896 528.21 254.416 528.21 253.936 528.21 252.976 528.69 252.496 528.69 252.256 528.45 252.016 528.21 251.776 528.21 251.536 528.21 251.056 527.97 250.816 527.97 250.576 527.97 250.336 528.21 250.096 528.45 249.616 528.93 248.896 528.69 248.656 528.69 248.176 528.69 248.176 528.93 247.936 529.41 246.976 529.17 246.736 528.93 246.976 528.69 247.216 528.45 247.456 527.73 246.736 527.49 246.256 527.25 246.016 527.25 246.496 526.29 246.496 525.81 246.736 525.33 246.976 524.13 246.976 523.41 247.696 521.25 247.936 521.25 248.416 521.25 248.656 521.01 248.656 520.77 248.896 519.81 249.376 518.37 249.616 517.65 249.856 517.41 249.856 517.171 250.096 517.171 251.776 516.691 252.016 516.691 252.256 516.691 252.736 516.211 252.976 516.451 253.456 516.451 253.936 516.691 254.176 516.451 253.936 515.971 254.416 515.251 255.616 514.771 256.336 514.771 256.816 515.011 257.296 515.011 258.256 515.011 258.736 514.771 258.976 514.531 259.456 514.531 260.657 514.771 261.137 515.011 261.617 515.251 262.337 515.491 262.577 515.251 263.297 513.091 263.777 512.371 264.017 511.171 264.017 510.931 264.257 510.451 264.737 510.691 264.737 510.451 264.497 509.491 263.777 509.011 262.337 509.011 261.857 509.011 261.377 509.011 260.176 508.531 259.936 508.291 260.417 507.091 260.657 506.611 260.897 506.371 261.137 503.491 261.137 503.251 261.137 503.011 261.137 502.531 260.897 501.331 260.897 501.091 260.897 500.851 261.137 499.891 261.377 499.172 261.617 498.692 261.617 498.212 260.657 498.212 260.176 498.212 259.696 498.212 259.456 497.492 258.976 496.772 258.496 495.812 257.776 495.572 256.816 495.092 254.416 493.892 254.176 493.652 253.696 492.692 252.256 490.772 252.256 490.532 252.016 489.572 251.776 488.612 251.536 487.652 251.056 486.692 250.576 485.492 250.576 485.252 250.336 484.052 250.336 483.572 248.656 480.693 247.456 478.533 248.416 479.013 248.896 479.493 254.896 482.852 256.816 483.812 257.536 484.292 258.736 485.012 259.696 485.252 259.696 485.492 260.176 485.732 260.657 485.972 260.897 485.972 261.377 485.972 267.377 486.452 267.617 486.452"/>
</svg>
