<svg xmlns="http://www.w3.org/2000/svg" width="612" height="792" viewBox="0 0 612 792">
    <defs>
        <style>.cls-1,.cls-2{fill:#fff;}.cls-2{fill-rule:evenodd;}</style>
    </defs>
    <g id="bounds">
        <ellipse class="cls-1" cx="151.6659" cy="503.0393" rx="10.7234" ry="6.5843"
                 transform="translate(-373.5786 516.0537) rotate(-74.6414)"/>
    </g>
    <g id="Qatar">
        <polygon class="cls-2"
                 points="152.89 508.531 152.41 509.491 151.69 509.971 151.21 509.971 151.45 509.731 151.45 509.491 151.45 509.251 150.97 509.011 150.25 509.011 150.25 509.251 150.01 509.491 149.289 509.491 148.089 509.011 147.369 507.571 147.129 506.851 147.369 506.851 147.609 506.611 147.849 505.651 147.849 505.171 147.849 503.491 147.609 502.771 147.609 502.291 147.849 501.571 148.329 499.651 148.569 499.172 148.809 498.932 148.809 499.411 149.049 499.651 149.289 499.411 149.289 498.692 149.289 498.452 150.01 498.692 150.49 498.692 150.73 498.212 150.49 498.212 150.25 498.212 150.01 497.732 150.25 497.252 150.49 496.772 150.73 496.532 150.97 496.772 151.21 496.532 151.21 496.292 150.97 496.292 151.21 496.052 151.93 495.092 152.41 494.372 153.85 493.892 154.57 493.892 155.05 494.372 155.29 494.612 155.29 494.852 155.05 495.332 155.29 496.292 155.53 496.292 156.01 496.532 156.25 496.532 156.73 497.252 156.49 498.692 156.25 499.411 155.77 500.131 155.53 500.131 155.29 500.131 155.05 500.131 155.05 500.611 154.81 500.851 154.81 501.331 155.05 501.571 155.05 501.811 154.81 502.291 154.81 502.771 154.57 503.251 154.81 503.491 155.29 503.491 155.29 503.731 155.29 504.211 155.29 504.451 155.29 504.691 154.81 506.371 154.33 507.091 153.85 507.571 153.37 507.571 153.13 508.291 152.89 508.531"/>
    </g>
</svg>
