<svg id="Saudi_Arabia" data-name="Saudi Arabia" xmlns="http://www.w3.org/2000/svg" width="612" height="792"
     viewBox="0 0 612 792">
    <defs>
        <style>.cls-1{fill:#fff;fill-rule:evenodd;}</style>
    </defs>
    <path class="cls-1"
          d="M45.6029,554.8483l.24.24.24.24-.24,2.4-.48-.48-.24-.48-.24-.24v-.96l.24.24h.24l.48-.24v-.48l-.48-.24v-.24h.24Zm1.44,5.52-.24-.24-.24-.24-.24-.48h.24l.24-.24-.24-.24-.24-.24h-.96l-.24-.24-.24-.48-.48-.48-.48-.96.24-.72v-.24h.24l.24.48.24.24v.96l.24.24v.24l.24.24h.24l.96.48v-.24h-.24v-.24h-.24v-.24l.48-.48h.24v.24l.48,1.2v1.44h-.24Zm127.9281,5.52-30.4819,2.16-7.6805-.96-4.32-.48-15.841-3.12-9.8406,1.44-4.32,3.36-2.88,2.16-1.92,2.88h-.48l-2.64.72-1.68-.72-1.68-4.08-3.6-.72-2.4-1.2-6.24-3.12-1.44-1.68-5.28-1.92h-.96l-.72-.72-.96-.24-1.68-.48-1.2.24h-1.44l-1.44-1.2-.24-.24-.48-.72v-.24l-.24-.48-.96-.96-.48-.24h-.72l-.48.24h-.24l-.72.24-.72.48-.96,1.92-.72,1.92v2.88l-.72-.24-.24-.24-.48.72v.48h-.24l-1.68.72h-1.2l.24-.96-.48-.72v-.48l.24-.24v-.24l.24-.48-.24-1.44-.24-.24-.24-.24-.24-.24-.24-.72.24-.48v-1.2l-.72-1.2h-.48l-.24.72v-.48l.24-1.2v-.72l.24-.72v-1.2l-.72-1.44-.48-1.44-1.68-2.4h-.24l-.48-.48-.24-.72v-.24l-.24-.72-.48-1.68.24-.48-.48-.72v-.48l-.24-.72v-1.2l.24-.72-.24-.48-.24-.96-.24-.24-.48-.48-.24-1.2.24-.48.48-.48-.24-.72h-.24l-.24-.96.24-.48.48-.72v-.24l-.24-.24-.24-.24-.24-.24v-3.6l-.72-1.2-.48-.96.24-.24.24-.24v-1.2l-.24-.48-.48-.24h-.24l-.72-2.4-.48-.72-.72-.96-.24-.48-.96-1.44v-.48l-.24-.48-.24-.24-.96-.48-.48-.24-.24-.24-.48-.72-.96-1.44v-.48l-.24-.72v-.48l-.24-.72v-1.2l-.48-.48v-.48h.48v-.24l-.24-.24-.24-.24-.24-.24-.48-1.2-.24-1.92v-2.16l.72-.72.24-.24v-.24l.24-.24v-.72l-.24-1.2v-2.16l-.24-.48,1.2-2.64.48-.96,1.2-1.2.24-2.16v-2.16l-.24-.24-.24-.96v-.96l.24.24v.72l.24.24.24-.24v-.48l-.24-.72-.24-.24-.24-2.4-.24-.96.24-.48v-.48l.24-.48v-.48l-.24-.48-.24-.72-.24-.24v-3.12l-.96-2.4-.72-1.2-.24-.48-.48-.48-.96-1.44-.72-1.44-.48-.72-.48.24h-.24l-.48-.48-.24-.72-.24-.72.48-.24v-.48l-.24-1.2v-1.2l-.24-.24-.24-.48v-.24l-.24-1.68h.24v.24h.48l.24-.24.48-.96.48-1.44v-.96l-.24-.48-.24-.72v-1.2l.24-.48-.48-2.64-.48-1.44-.24-.24v.48l-.48-.72-.24-.48v-.96l.48-.24.24-.48.24-.24v-.72l-.24-.24-.24-.24h-.24l-.24-.48-.24-.24v-.48l.24-.48-.24-3.84-.24-1.92-.24-.96v-.24l-.24-.24v-2.16l-.24-.72-.24-.48-.24-1.2v-.72l.24-.24v-.24l-.24-1.2-.48-.96v-.48l-.24-.72v-1.2l.24-.24v-2.4l-.24-1.2v-.48l-.24-.96-.24-.24v-.96l-.72-.96-.24-.24h-.96l-.48-.24-.72-1.44h-.24l-.48.24-.24.24v.24l-.24.24v-.96l.24-.24.48-.24.96-.96.72-.72.24-.24.48-.48.24-.24.24-.24.24-.96.24-.24,1.2-1.68v-.24l1.44-2.16v-.24l.48-.48.24-.24.72-.96.24-.24,1.44,1.44,2.64,1.92,3.6,3.12,2.16-.48,2.4-.72,3.6-2.64,2.4.72,3.12.96h.72l2.88-2.4,3.12-.48-1.44-6-.24-.96-.72-2.64-.96-4.08,1.68.24,2.4.48,1.92.24,2.4.48,4.32.72,4.56.96.72-.48,1.44-.24,1.92,1.44,4.08,3.12,2.4,1.92,5.76,9.3595,4.08,5.04,4.56,8.8795.72,1.44,4.08,7.92,5.04,9.8394,11.2808,5.76,2.4,1.2h1.2l.24.24,1.68.96,1.68.72,3.6,1.92v.24l.24.72v2.16l-.24.24v.72l.24.24.24.96,5.28,1.92.96.48.48.72v.72l-.24.96v2.4l.24.96,1.2,2.4v.24l-.24.72-.24.24.24-.72-.24-.24h-.24l-.24.72v1.2l.72.48h.48l.24.48.24.48.24.24.96.24.48.24.24.72v.48l-.72-.48-.48-.24h-.24l.72,1.44.72,2.4v.24h.72l.24-.24.24.24.48,1.44v.96l.48.24.48.72.24.24.24.48h.48l.24.24,1.2,2.16.24.48-.24.24-.48-.72-.48-.96-.24.48-.24.24v1.2l.24,1.2v.24h.24l.48.48.24.48v.96l-.24.72-.24.24-.72.72h-.24l-.24-.96-.24-.24-.72.48-.24,1.2.72,1.2v1.2l.24.72.24.24.24.96v.24l-.24-.24v-.24l-.48-.72h-.24l.24.24.72,2.16.24.72.24.24.72.24.24.48v1.44l-.24.72v1.68l.24.24.24.48.48,1.44-.24.96v.24l.24.48h.48l.24.72.72,1.44,1.2.48h.72l.24-.24.48.24.24.24v.24l-.24.48h.48l.72-.48v-.24h.48l.24.72-.96.48-.72.48h-.24l-.24.24-.24.48-.24.48.24.24h1.44l.24.24.24.24v.48h.48l-.24,1.44,6.24,14.6392,22.8014,9.5994.72-.48,2.88,8.16-3.84,6.96Z"/>
</svg>
