<svg id="Sri_Lanka" data-name="Sri Lanka" xmlns="http://www.w3.org/2000/svg" width="612" height="792"
     viewBox="0 0 612 792">
    <defs>
        <style>.cls-1{fill:#fff;fill-rule:evenodd;}</style>
    </defs>
    <path class="cls-1"
          d="M415.7063,706.04h.72v.24h.24l.48.48h.24l-.24.48-.48-.24-1.68-.72v-.24h.72Zm21.6014,23.7587v.72l-.24.24-.48.72v.24l-.24.24-.24.24-.48.24-2.16,1.68-.96.48h-.24l-2.64.96h-.72l-1.2.48-.48.24-.48.24h-.24l-.24.24-.48.24-1.2.48-1.44-.24-1.92-.48-.48-.24-.24-.24h-.24l-.72-.72-.48-.48-.24-.72-.24-.96-.48-.96-.24-.96-.24-.48-.24-.72-.24-.72-.24-.24-.24-.48v-.48l-.24-.96.24-.24v-1.68l-.24-.72v-.96l-.24-.96v-.24l-.24-1.92v-.24l.24-.24-.24-.96-.24-1.2-.24-.48v-.24h-.24v-.72l-.24-.48v-1.2l.24-.24v-.24l.24-.24-.24,1.44.24.96v.48h.96v-.48h-.24v-2.16l.72-2.88.24-.24h.24l.24-.72v-.96l-.24-.96v-.96l.48-.48h.24l.48-.48h.24v-.48l.48-.96v-.24l.24-.48v-.48l-.24-.24v-.96l.48-.24.48-.24v-.24l-.24-.24-.24-.24h-.24l-.48-.24-.24-.24V701l.24.24,1.68.48.48.24,1.92.24h.24l.48.24h.24l.24.24h.24l-.24-.24-.48-.24-.72-.48h-.96l-.48-.24-.24-.24-.96-.48-.24-.24h-.24v.24l.24.24v.24l-.72-.24-.96-.48-.96-.48-.24-.48v-.24l.48-.48h.72l.96.24v.24h.48l.24.24h.48l.24.24.24.24.24.48.48.24.24.24h.24l.48.24-1.68-1.44-.72-.48h-.72v-.24l.24-.24h.96v.24l.24.24.72.96.48.48,1.92,1.44h.24l.24.24h.24l.24.24.48.48.48.48.48.48.24.24.24.24v.24l.96,1.68v.72h-.24v.24l.24.24.24-.24.72.24,1.44,1.68.72.96.24.96v.24h-.24v-.24l-.24-.24-.72.48v.48l.96.24h.48l.24-.24v-.24l.24-.24.48.48.24.96.48,1.68-.24.24-.24.48.48.48.96.96.96,1.68.96.48v.24l.24.24-.24.24v.48h.24l.24.24.24.24v1.44h.24l.24.24v-.48h.24l.24.72.24.48v1.92l.24,1.44v.24l-.24.24-.24,1.44-.24.48-.24.72v.24Z"/>
</svg>
