<svg id="Syria" xmlns="http://www.w3.org/2000/svg" width="612" height="792" viewBox="0 0 612 792">
    <defs>
        <style>.cls-1{fill:#fff;fill-rule:evenodd;}</style>
    </defs>
    <polygon class="cls-1"
             points="53.523 369.819 53.763 369.579 53.763 369.339 53.523 369.339 53.283 369.339 53.523 369.099 54.723 369.099 54.963 369.099 55.203 368.859 55.444 368.619 55.924 368.619 56.164 368.619 56.644 368.619 57.844 368.139 58.084 367.899 58.084 367.419 57.604 366.939 57.364 366.939 58.084 366.219 58.564 365.979 59.284 365.499 60.724 365.979 61.204 366.699 61.444 366.699 61.684 366.699 61.684 366.219 61.444 366.219 61.204 365.739 61.924 365.259 62.164 365.019 62.644 365.019 63.844 364.779 65.044 364.059 64.804 363.819 65.044 362.619 65.284 361.659 65.044 360.699 65.044 360.459 64.324 360.219 64.564 359.979 65.044 359.979 65.524 359.739 65.764 359.499 65.284 359.02 64.564 358.54 63.364 357.82 63.124 357.82 62.644 357.58 62.404 357.34 62.404 356.62 62.404 356.14 62.644 354.7 62.884 354.22 63.124 353.74 63.604 352.78 63.844 352.54 64.324 352.3 64.804 351.82 64.804 351.58 64.804 351.34 64.804 351.1 65.524 349.66 65.284 348.94 64.804 348.22 65.044 347.26 65.524 347.02 66.244 346.54 66.484 346.3 67.444 345.1 67.924 344.86 68.404 345.34 68.884 346.06 69.124 346.3 69.124 346.54 69.124 346.78 69.364 346.54 69.604 346.3 69.844 346.06 70.324 345.58 70.804 345.82 71.525 345.82 71.765 345.58 72.005 344.86 72.245 344.14 72.725 343.9 73.445 344.14 73.685 344.14 73.925 344.38 74.165 344.62 74.885 344.86 75.125 344.38 74.885 344.14 74.885 342.94 74.885 342.7 75.125 341.98 75.845 340.781 77.285 339.101 77.525 339.101 77.765 339.101 78.965 340.541 79.445 341.021 79.445 341.501 79.925 342.46 80.885 342.94 81.605 343.42 82.805 343.9 83.285 343.9 84.005 343.9 84.485 343.9 84.965 344.14 85.925 344.38 86.165 344.38 86.405 344.14 86.645 344.14 86.885 344.38 87.366 344.14 87.606 344.14 88.566 344.14 89.046 344.38 89.766 345.1 90.246 345.34 90.486 345.82 90.726 346.06 90.966 347.26 91.206 347.74 91.446 348.22 91.686 348.46 92.646 348.94 93.126 349.18 93.366 349.18 93.606 349.18 93.846 349.42 94.086 349.66 94.326 349.9 94.326 350.14 94.806 350.38 95.046 350.38 95.526 350.62 96.486 350.86 97.686 351.1 99.366 351.58 100.326 351.82 100.566 351.82 101.046 351.82 102.967 351.82 103.447 351.58 104.887 351.34 105.127 351.34 105.367 351.58 105.607 351.58 106.807 351.58 107.047 351.58 107.287 351.58 107.767 351.58 108.247 351.58 108.967 351.82 108.967 352.06 110.407 353.02 110.887 353.5 112.087 353.98 112.567 354.46 112.807 354.46 113.287 354.7 115.687 355.18 116.887 355.42 117.607 355.42 117.847 355.18 118.327 354.94 118.808 354.7 119.048 354.94 119.528 355.42 119.768 355.9 119.528 356.86 119.288 357.1 119.288 357.58 119.288 357.82 113.527 360.459 109.927 359.499 109.447 359.979 108.487 360.939 106.807 363.579 106.807 364.059 106.807 365.739 106.807 366.219 106.087 368.139 105.367 368.859 104.647 369.099 104.647 369.339 104.407 369.579 104.167 370.059 104.167 370.299 103.927 370.539 103.687 371.019 103.447 371.259 103.207 371.499 102.967 371.739 102.967 371.979 102.727 372.699 102.486 373.179 102.006 374.619 101.526 376.059 99.846 377.258 98.646 378.218 98.166 378.698 95.046 379.178 90.726 379.418 90.246 379.658 88.806 379.658 86.885 379.898 84.725 380.138 83.045 380.138 78.965 380.618 77.525 380.618 77.285 380.618 76.325 380.858 74.885 381.098 72.725 381.338 69.124 381.818 66.004 382.058 64.804 382.298 61.444 382.778 58.564 383.258 58.084 383.258 57.364 382.778 56.884 382.298 55.924 381.578 55.924 381.338 55.203 380.858 54.963 380.138 54.963 379.898 54.483 378.698 54.003 378.698 53.763 378.458 53.523 377.978 53.523 377.018 53.523 376.539 53.283 375.819 52.323 374.859 52.083 374.859 51.363 374.859 50.883 374.859 51.123 374.619 51.123 374.379 51.363 374.139 51.603 373.899 51.603 373.659 51.603 373.179 51.603 372.699 51.843 372.699 52.083 372.459 52.323 371.739 52.563 371.259 52.803 371.019 53.043 370.539 53.523 369.819"/>
</svg>
