<svg id="Tajikistan" xmlns="http://www.w3.org/2000/svg" width="612" height="792" viewBox="0 0 612 792">
    <defs>
        <style>.cls-1{fill:#fff;fill-rule:evenodd;}</style>
    </defs>
    <polygon class="cls-1"
             points="376.344 418.776 375.624 418.056 375.624 417.816 374.424 417.096 374.184 417.336 373.464 417.336 372.504 417.096 372.024 416.856 371.544 416.856 371.064 416.856 370.823 416.856 370.103 417.576 369.143 417.576 367.703 418.056 367.463 418.296 367.223 418.536 366.503 418.536 365.783 418.056 366.023 417.576 366.503 417.576 366.983 417.096 366.983 416.376 366.743 416.136 366.503 416.136 366.263 416.136 365.783 416.136 365.303 416.136 365.063 415.896 364.823 415.656 364.583 415.656 364.343 415.656 363.143 415.656 362.903 415.896 361.943 416.136 361.463 416.616 360.743 417.096 359.783 417.576 359.303 417.816 358.823 417.816 358.823 418.056 358.583 418.296 358.343 418.776 358.103 419.016 358.103 419.256 357.623 419.736 356.423 419.976 355.703 419.976 355.463 419.976 354.982 419.976 354.742 419.976 354.502 420.216 354.022 420.456 352.342 421.416 351.382 422.136 350.662 422.616 350.422 422.616 349.942 422.856 349.222 422.856 349.222 422.616 348.742 422.376 348.502 422.136 348.262 421.656 347.782 419.976 347.542 419.736 347.542 418.536 347.782 417.576 347.782 417.096 348.022 416.856 348.022 416.616 348.262 416.376 348.262 416.136 348.262 415.416 348.262 414.936 348.502 413.496 348.742 413.016 348.982 411.816 349.462 411.097 349.462 410.857 349.462 410.617 349.702 410.377 349.462 409.897 349.222 409.657 348.982 409.417 348.262 409.657 348.022 409.897 347.542 409.897 346.822 409.417 347.062 408.937 347.542 407.977 347.782 407.497 348.022 407.257 348.022 406.777 348.022 406.297 347.782 405.817 347.302 405.577 347.062 405.337 346.582 405.097 346.582 404.857 345.382 403.657 345.142 403.657 343.462 403.897 342.982 404.137 342.502 404.617 342.022 405.097 341.542 405.577 341.062 406.537 339.622 407.737 339.382 407.977 339.141 407.977 339.141 408.217 338.661 408.457 338.421 408.697 337.941 408.457 337.941 409.177 338.181 409.417 338.181 409.657 338.421 409.657 338.661 410.377 338.901 410.617 338.901 411.097 338.421 411.816 337.461 412.536 337.221 412.536 336.981 412.536 336.741 412.536 336.501 412.536 336.501 412.296 336.021 412.056 335.781 411.816 335.541 411.577 335.301 411.577 335.061 411.577 334.581 411.816 333.621 411.816 332.901 411.577 332.421 411.577 331.221 412.776 330.981 413.016 330.981 413.496 330.981 413.736 330.981 413.976 331.221 414.456 331.221 415.416 330.981 415.656 330.261 416.136 330.021 416.136 329.781 416.376 329.301 416.136 328.821 415.656 328.821 415.416 328.101 414.456 327.861 413.976 327.621 413.736 326.901 413.496 326.421 413.496 324.981 413.976 324.741 414.216 324.741 414.456 322.82 415.176 322.1 415.176 321.62 415.896 320.9 415.896 319.7 416.616 319.22 416.616 317.78 414.696 317.54 414.456 317.78 413.736 318.02 413.496 318.26 413.016 318.5 413.016 318.5 412.536 318.5 412.056 318.5 411.816 318.26 411.577 318.5 411.097 318.5 410.857 318.74 410.617 318.98 410.137 319.22 409.657 319.46 409.657 319.7 409.417 319.94 408.937 320.18 408.937 320.66 408.457 320.9 408.217 321.14 407.737 321.38 407.257 321.62 407.017 321.62 406.777 321.86 406.537 322.58 406.537 322.82 406.537 323.54 405.577 323.54 405.097 324.021 404.377 324.021 404.137 323.781 403.657 323.781 403.417 323.3 402.937 322.82 402.457 322.1 401.497 321.86 400.297 322.1 398.857 322.58 397.657 322.82 397.657 323.06 397.417 323.3 397.177 323.3 396.697 323.06 396.217 323.06 395.737 322.82 395.497 321.86 395.257 321.38 395.497 320.9 395.497 319.94 395.257 319.7 395.257 319.7 395.017 319.7 393.818 319.22 393.338 318.98 393.338 318.74 393.098 318.5 393.098 317.3 392.618 317.3 391.898 317.78 391.658 318.02 390.938 318.26 390.458 318.26 389.978 318.74 389.498 320.42 388.778 320.66 388.778 320.9 388.778 321.62 389.018 321.86 389.018 322.1 389.258 323.54 389.738 324.021 389.978 325.461 390.218 325.701 390.458 326.421 390.458 326.901 390.458 326.901 390.218 327.621 389.498 327.861 389.498 328.101 388.298 328.101 387.578 328.341 387.338 328.821 387.338 329.061 387.578 329.061 387.818 330.261 387.098 330.021 386.618 329.781 386.378 329.781 385.898 329.541 385.178 330.021 385.178 330.741 385.418 331.221 385.418 331.461 385.178 331.221 384.698 330.501 384.458 329.781 384.698 329.541 384.698 329.061 384.698 328.821 384.698 328.581 384.458 328.341 384.218 328.581 383.978 329.061 383.978 329.301 383.738 329.781 383.738 331.701 383.738 331.941 383.738 332.181 383.978 332.421 384.218 332.901 384.458 333.141 384.458 333.381 384.458 333.861 384.458 334.101 384.458 334.341 383.018 334.341 382.778 333.861 381.338 334.101 380.378 334.821 378.698 335.061 378.458 335.301 378.458 335.781 378.218 336.501 378.698 336.501 378.938 336.741 379.418 337.221 380.138 337.461 380.138 337.701 380.378 337.941 380.138 338.181 379.898 338.421 379.658 338.661 379.658 339.141 379.418 339.382 379.418 339.622 379.418 339.862 379.418 340.342 379.178 342.022 378.458 342.742 378.218 342.982 377.738 343.222 377.498 343.222 377.018 343.222 376.779 343.462 376.779 343.702 376.779 343.942 376.779 343.942 377.018 344.422 377.498 345.142 378.698 345.142 379.178 345.622 379.898 345.862 379.898 346.102 380.138 346.102 380.378 345.862 380.618 345.622 380.858 343.942 381.818 342.982 382.538 342.502 382.538 342.262 382.778 342.502 383.498 342.982 383.978 343.942 384.938 344.182 385.178 344.182 385.418 344.422 385.658 344.902 385.658 345.142 385.658 345.622 385.658 345.862 385.418 346.102 385.418 346.822 385.418 347.062 385.418 347.062 385.658 347.062 385.898 346.822 386.138 346.582 386.138 346.342 386.138 344.422 386.618 344.422 387.338 344.182 387.578 344.182 387.818 343.942 388.058 343.702 388.058 342.982 388.538 342.742 388.298 342.982 387.818 343.222 387.578 343.462 387.578 343.462 387.338 343.462 387.098 343.222 387.098 342.502 386.858 342.022 386.618 341.782 386.378 341.542 386.138 339.622 384.938 339.382 384.938 337.941 385.178 336.741 385.418 336.261 385.658 336.021 385.658 335.781 385.658 335.541 385.418 335.301 385.898 335.061 386.378 335.061 387.098 335.301 387.338 335.061 387.578 334.341 387.578 334.341 387.338 333.861 386.618 333.381 387.578 333.141 388.058 332.901 388.538 332.901 389.018 332.901 389.258 333.141 389.498 333.381 389.738 333.381 389.978 333.141 390.218 333.141 390.698 333.141 390.938 333.141 391.178 333.141 391.418 334.821 391.418 335.061 391.418 335.301 391.178 335.541 391.178 336.021 391.178 336.261 391.178 336.741 391.178 336.981 391.418 337.221 391.658 338.181 391.658 340.102 391.658 340.582 391.658 341.062 391.898 341.302 391.658 342.502 391.658 342.742 391.658 343.702 391.898 343.702 392.378 343.942 392.618 343.942 392.858 343.942 393.098 344.182 393.578 345.142 393.818 346.342 394.058 346.582 394.058 346.822 393.818 346.822 393.578 347.062 393.338 347.302 393.098 348.022 392.858 348.982 392.618 349.702 392.378 350.422 392.378 350.662 392.378 350.902 392.858 350.902 393.098 350.662 393.338 350.422 393.578 350.662 393.818 350.902 394.058 351.142 394.058 351.622 394.058 351.862 394.058 352.102 394.058 352.342 394.058 352.582 394.537 352.582 394.777 352.102 395.017 352.102 395.497 352.102 395.737 352.342 395.977 353.062 395.977 353.302 395.737 353.782 395.497 354.022 395.497 354.982 395.257 354.982 395.497 355.223 396.217 356.183 397.177 356.663 396.697 356.663 396.217 356.903 395.977 356.903 395.737 357.623 395.737 357.863 395.737 358.103 395.737 359.063 395.737 359.303 395.497 359.543 395.257 359.783 395.497 360.503 395.737 360.743 395.737 361.223 395.977 363.623 396.217 365.063 395.737 365.303 395.497 366.263 395.257 366.503 395.017 367.463 395.257 367.463 395.497 367.463 396.217 367.463 396.457 367.223 397.177 367.223 397.417 366.983 397.657 367.943 399.337 368.183 399.577 368.663 400.297 368.663 400.537 368.663 400.777 368.423 400.777 368.183 400.777 367.943 400.777 367.703 401.017 367.463 401.257 367.463 401.497 367.703 401.737 367.943 402.697 368.183 403.657 368.183 403.897 368.183 404.137 368.423 404.377 369.143 405.097 369.383 405.097 370.343 405.097 370.343 404.857 370.103 404.377 370.823 403.657 372.504 403.897 372.984 403.897 375.144 405.097 376.104 405.577 376.584 406.057 376.584 406.777 376.584 407.017 376.344 407.257 376.104 407.497 376.104 407.737 375.864 407.977 375.864 408.937 376.104 410.137 376.104 410.377 376.344 410.617 376.584 410.857 376.824 410.857 376.584 411.816 376.584 412.776 376.824 412.776 377.064 413.016 377.304 413.256 376.824 414.216 376.584 414.456 376.344 414.696 376.584 415.176 376.584 415.416 376.824 415.656 377.544 415.896 377.784 416.136 378.744 417.336 377.784 418.056 377.784 418.296 376.584 418.776 376.344 418.776"/>
</svg>
