<svg xmlns="http://www.w3.org/2000/svg" width="612" height="792" viewBox="0 0 612 792">
    <defs>
        <style>
            .cls-1{fill:#fff;}.cls-2{fill:none;stroke:#b2b2b2;stroke-linecap:round;stroke-linejoin:round;stroke-width:0.9601px;}
        </style>
    </defs>
    <g id="bounds">
        <path class="cls-1"
              d="M136.09,435.8955a1.9874,1.9874,0,0,1-.4868-.06l-5.5215-1.3808h-1.6738a2.0023,2.0023,0,0,1-1.5615-.75l-.96-1.1992a2.0558,2.0558,0,0,1-.2275-.3555l-.3086-.6182-.0679-.0166a2.0022,2.0022,0,0,1-1.3037-1.0459l-.249-.499-3.4151-2.3467a1.9991,1.9991,0,0,1-.8574-1.4511l-.71-.4737-.8111-.1621a1.997,1.997,0,0,1-1.2964-.8877l-1.6294-2.56-1.622-2.084a2.0041,2.0041,0,0,1-.3824-.836l-.24-1.2a1.9993,1.9993,0,0,1,.542-1.8018l.1392-1.1143v-3.4765a2,2,0,0,1,.0175-.2647l.48-3.6a2.0017,2.0017,0,0,1,.2866-.7959l.896-1.4326v-1.54l-2.6381-4.667-2.0289-1.42a1.989,1.989,0,0,1-.5175-.5293l-.2432-.3652a1.9912,1.9912,0,0,1-1.1323-.7441l-.72-.96a1.9877,1.9877,0,0,1-.2979-.5679l-.48-1.44a2.01,2.01,0,0,1-.0825-.35l-.19-1.33a2.0571,2.0571,0,0,1-.2041-.1787l-.48-.48a72.8926,72.8926,0,0,1-.749-3.8828l.2636-.9238-.1953-.0977a2.0023,2.0023,0,0,1-1.0351-1.2627l-.49-1.7983-.0922-.0918a2.0407,2.0407,0,0,1-1.0225-.207l-.0581-.0293a2.1756,2.1756,0,0,1-.4917-.06l-.96-.24a1.9964,1.9964,0,0,1-.957-.5542,2,2,0,0,1-1.3516.0313l-.72-.24a2.0026,2.0026,0,0,1-1.1562-1.003l-.4239-.8486-.4111-.6157a2.0006,2.0006,0,0,1-.2334-1.7422l.1724-.5161a2,2,0,0,1-.1719-.3784l-.24-.72-.5059-1.7636a1.9886,1.9886,0,0,1-.0732-.4248l-.24-3.84a1.9742,1.9742,0,0,1,.0176-.416l-.3032-.3789a1.9781,1.9781,0,0,1-.3037-.5274,1.9985,1.9985,0,0,1-.5992-1.1938l-.1879-1.5015-.5025-.8379a1.999,1.999,0,0,1-.2851-1.0288v-1.4985l-4.3824-3.876a2.0029,2.0029,0,0,1-2.0674-.2632l-1.0351-.8276-.77-.3852a1.9889,1.9889,0,0,1-.5195-.375l-.48-.48a1.9955,1.9955,0,0,1-.5508-1.0415l-.4092-.6382a2.0019,2.0019,0,0,1-.584-1.3233l-.1391-.4174a1.993,1.993,0,0,1-.1031-.6333v-.48a3.1074,3.1074,0,0,1,1.5176-2.3452l.2671-.2676a1.9952,1.9952,0,0,1,.751-.4736,1.9927,1.9927,0,0,1,.3232-.3521l.8052-.69-.1436-.1914a2.0006,2.0006,0,0,1-.38-1.4825l.24-1.68c.0054-.0367.0117-.0733.0191-.1094l.23-1.1538a2.001,2.001,0,0,1-.2983-2.2281l1.2-2.4a2.0018,2.0018,0,0,1,.76-.8212l1.2-.72a2.0049,2.0049,0,0,1,1.0288-.2846h.72a2,2,0,0,1,1.5639.7529c.023.0044.0464.0093.0694.0146l1.5576.3457.6264-.25A2.003,2.003,0,0,1,95,337.1484l.6958.1543.0967-.0962a37.7141,37.7141,0,0,0,1.37-.914l.042-.0166a1.9953,1.9953,0,0,1,.8106-.5127l.8056-.2686a1.3523,1.3523,0,0,0-.3911-1.5215l-.2178-.6538-.2192-.1093a1.9984,1.9984,0,0,1-.61-.4722l-1.68-1.92a1.999,1.999,0,0,1-.4351-1.8023l.24-.96a1.9994,1.9994,0,0,1,.9478-1.251l1.68-.96a2.0025,2.0025,0,0,1,1.8872-.0522l.082.041a1.9748,1.9748,0,0,1,.708.0474l.1016.0254a2,2,0,0,1,2.2036,3.3383l-.72.4805a1.9978,1.9978,0,0,1-1.5957.2769l-.1211-.0308c-.0474.0151-.0952.0278-.1436.0391l.2041.1015a2.0023,2.0023,0,0,1,1.003,1.1568l.1865.56.3388.1358a2,2,0,0,1,1.2574,1.8569v.48a37.8848,37.8848,0,0,0-.1983,2.6894l-.96,1.2a1.9988,1.9988,0,0,1-.9292.648l-1.5088.5029-.1.1494-.01.0156a2,2,0,0,1-1.53,1.3213,1.9993,1.9993,0,0,1-1.9971.7051l-1.5576-.3457-.6265.25a1.974,1.974,0,0,1-1.1763.0952l-1.48-.3286a1.9975,1.9975,0,0,1-2.0156-.3335l-.0757.1514a1.9985,1.9985,0,0,1,.2056,1.3506l-.5835,3.15.2227.2974a1.999,1.999,0,0,1,.4,1.2v1.2a2,2,0,0,1-.6988,1.5186l-1.2592,1.0791-.0645.1938a1.9992,1.9992,0,0,1-1.5513,1.3379l.6485,1.0811c.0346.0581.0664.1172.0947.1777l.5249.2622a1.9981,1.9981,0,0,1,.3545.2271l.0166.0131a2,2,0,0,1,2.22.2911l6.2407,5.5195a1.9991,1.9991,0,0,1,.6749,1.498v1.8462l.4345.7246a1.9883,1.9883,0,0,1,.27.78l.1269,1.0127a2,2,0,0,1,.8394,1.4385l.0024.0268.2886.3609a1.9992,1.9992,0,0,1,.3359,1.8813l-.1167.3516.2017,3.2358.5488,1.8511.333.5a2.0012,2.0012,0,0,1,.2334,1.7417l-.0063.0186a1.9964,1.9964,0,0,1,1.2861.6626l.4663.0664a7.7347,7.7347,0,0,0,1.5713.6709l.22.11a2,2,0,0,1,1.98.5044l.51.51a2.0006,2.0006,0,0,1,1.2055,1.3379l.2525.9262a2.0019,2.0019,0,0,1,1.3916.585l.48.48a2,2,0,0,1,.375,2.31l-.24.48c-.0093.0186-.019.0371-.0288.0552a1.9837,1.9837,0,0,1-.0771.5591l-.0582.2036a1.9932,1.9932,0,0,1,.3155.6816l.24.96c.0083.0327.0161.0659.0225.0991l.4116.4121a2,2,0,0,1,.5859,1.4141v.48a1.9978,1.9978,0,0,1-.3354,1.1088l.05.35.228.685a1.9964,1.9964,0,0,1,1.1616.8267l.7515,1.1269,2.0913,1.4639a1.9976,1.9976,0,0,1,.5947.6543l3.12,5.5195a2.0061,2.0061,0,0,1,.2587.9844v2.64a2.002,2.002,0,0,1-.3042,1.0606l-.9707,1.5527-.4052,3.0391v3.4678a1.9921,1.9921,0,0,1-.0157.248l-.24,1.92a2.0017,2.0017,0,0,1-.2383.7276l1.2725,1.6347q.0577.0747.1089.1553l1.2216,1.92.3619.0723a1.9813,1.9813,0,0,1,.7182.2969l2.16,1.44a1.9982,1.9982,0,0,1,.8833,1.4912l2.7407,1.8838a2.0068,2.0068,0,0,1,.6562.7539l.0684.1377.0679.0166a2.0022,2.0022,0,0,1,1.3037,1.0459l.625,1.251.227.2832h.959a2.0355,2.0355,0,0,1,.4854.0595l5.7607,1.4405a2,2,0,0,1-.4839,3.94Z"/>
        <path class="cls-1"
              d="M136.0894,435.8965a2.0026,2.0026,0,0,1-1.898-2.6338l1.0068-3.0195-1.0366-3.7325a1.3335,1.3335,0,0,0-.582-1.32l-.24-.48a2.0084,2.0084,0,0,1-.1836-.5664l-.2315-1.3868a1.9931,1.9931,0,0,1-.4975-1.0722l-.0464-.0928a1.9962,1.9962,0,0,1-.2119-.8955v-.7207a1.999,1.999,0,0,1,.2119-.8955l.1411-.2822.1865-.7461a2.1075,2.1075,0,0,1,.0859-.2657,1.9268,1.9268,0,0,1-.2959-.13h-.01a1.9994,1.9994,0,0,1-1.7241-.9854l-.1045-.07c-.0357-.0235-.0708-.0488-.105-.0742l-.1069.1777a2,2,0,0,1-.0108,1.7666l-.7529,1.5049.0332.0654a2.0027,2.0027,0,0,1,.1806,1.2422l-.6582,3.7275.3755,2.0645.6314,1.4727a2,2,0,0,1-.2388,1.9882l-.0825.11a1.9928,1.9928,0,0,1-.3325.9971l-.48.7207a2.2824,2.2824,0,0,1-3.0244-3.2686l.0259-.0352-.2647-.6171a2.011,2.011,0,0,1-.1294-.4307l-.48-2.64a2.0021,2.0021,0,0,1-.0019-.705l.6055-3.43-.1846-.3682a2.0018,2.0018,0,0,1,0-1.789l.7529-1.5049-.0332-.0655a2.0006,2.0006,0,0,1,.0742-1.9238l.0943-.1572c-.0127-.0332-.0249-.0664-.0362-.1006l-.1049-.3145a2,2,0,0,1-1.5186-.7978l-.6348-.8467-.38-.3808a2.0142,2.0142,0,0,1-.374-.5186l-.48-.96a2.01,2.01,0,0,1-.1752-.5195l-.586-.3906a2.0081,2.0081,0,0,1-.6055-.6358l-.72-1.2a1.9947,1.9947,0,0,1-.2641-.7431l-.0894-.06a2.0587,2.0587,0,0,1-.3071-.2519l-.24-.24a2.0073,2.0073,0,0,1-.4492-.6894l-.0293-.0293-.24-.24a1.9981,1.9981,0,0,1-.4834-.7822l-.24-.72a1.9978,1.9978,0,0,1-.1025-.6318v-.7139l-.18-.7207a1.9977,1.9977,0,0,1-.043-.2246c-.0161-.0283-.0312-.0567-.0458-.086l-.24-.48a2.0012,2.0012,0,0,1-.2109-.8946v-1.92a2,2,0,0,1,.2119-.8955l.24-.4795a2.005,2.005,0,0,1,.1241-.2139l.48-.72a3.0974,3.0974,0,0,0,1.2085-1.7436l.1206-.1211a1.9621,1.9621,0,0,1-.2944-.1621l-.72-.48a1.9977,1.9977,0,0,1-.3047-.25l-.24-.24a1.8712,1.8712,0,0,1-.1475-.1645l-.96-1.2a1.9992,1.9992,0,0,1-.4326-1.4028l.4678-6.08-.2266-2.72a2.0026,2.0026,0,0,1,.5381-1.5386l-.4018-1.0049a1.9965,1.9965,0,0,1,.0976-1.6938l-.1811-.7237a2.0019,2.0019,0,0,1,.0249-1.06l.72-2.4a2.0025,2.0025,0,0,1,.8056-1.0893l.0772-.0513.0527-.21a2,2,0,0,1,.83-1.1788l.0767-.0507.435-1.7393-.2846-1.85a1.9993,1.9993,0,0,1-.8179-1.1709l-.0391-.1557-.49-.294a2,2,0,0,1-.3848-3.1294l.208-.2075c-.0161-.0571-.03-.1152-.04-.1738l-.0024-.002a1.9977,1.9977,0,0,1-.7334-1.2978l-.48-3.6a1.9939,1.9939,0,0,1-.0176-.2642v-.48a1.9967,1.9967,0,0,1,.2925-1.041,1.97,1.97,0,0,1-.2691-.3667l-.5366-.939-.1323-.0332a2,2,0,0,1-1.5147-1.94v-.72a2.0007,2.0007,0,0,1,.4-1.2l.2637-.3516-1.9585-.979a1.981,1.981,0,0,1-.4228-.2842l-1.92-1.68c-.0337-.0288-.0659-.059-.0971-.0908l-.2906-.2905-4.8081-2.7471a2,2,0,0,1-.7964-2.6313l.5782-1.1558a1.9988,1.9988,0,0,1-.01-2.1216l-.0781-.4287-1.1939-.5307a1.9994,1.9994,0,0,1-1.188-1.8277v-.2l-.4028-1.4106a2,2,0,1,1,3.8457-1.0987l.38,1.3306,1.1489.5107a2.0011,2.0011,0,0,1,1.1558,1.47l.48,2.64a5.9112,5.9112,0,0,0,.0323,1.0776v.72a1.9987,1.9987,0,0,1-.2115.895l-.1132.2265,3.3969,1.9415a1.9726,1.9726,0,0,1,.4219.3222l.4331.4326,1.6768,1.4673,3.13,1.565a2,2,0,0,1,1.0035,2.4209l-.1372.4126V351.1a.6711.6711,0,0,0-.024.9277l.5782,1.0108a2,2,0,0,1,.6748.7676l.24.48a1.991,1.991,0,0,1,.1929.625l.0469.0938a1.9985,1.9985,0,0,1,.1513,1.38l-.24.96a2.0164,2.0164,0,0,1-.1411.3892l.3178,2.3847.5728.458a5.6927,5.6927,0,0,1,1.231,2.2823v.72a2,2,0,0,1-.5059,1.33l.0185.0752.0767.0513a1.998,1.998,0,0,1,.8672,1.36l.48,3.12a2.001,2.001,0,0,1-.0362.79l-.72,2.88a2.001,2.001,0,0,1-.8305,1.1787l-.0772.0513-.0527.21a2,2,0,0,1-.83,1.1787l-.1211.0806-.355,1.1836.3467,1.3867a2.0015,2.0015,0,0,1-.0742,1.2046l.4707,1.1772a2,2,0,0,1-.6567,2.3423l-.0752.0567.1479,1.7778a1.9906,1.9906,0,0,1,.001.3193l-.4194,5.4527.4194.519.333.2217.4663.1558a1.9961,1.9961,0,0,1,.9663.6967l.72.96a2,2,0,0,1,.2974.5669l.24.72a1.9929,1.9929,0,0,1,.103.6333v.48a7.3524,7.3524,0,0,0-1.2958,2.7881l-.48.7207a1.9946,1.9946,0,0,1-1.1045.8115v.62a2.0008,2.0008,0,0,1,.48,1.3v.2334l.18.7207a1.9755,1.9755,0,0,1,.06.4854v.2109a2.002,2.002,0,0,1,.94,1.4248l.0884.0586a1.9878,1.9878,0,0,1,.3057.251l.24.24a2,2,0,0,1,.5859,1.4141v.166l.2037.34.2285.1523a2,2,0,0,1,1.728,1.9815v.4882l.124.2471.251.252a2.0376,2.0376,0,0,1,.1851.2128l.12.16a1.9981,1.9981,0,0,1,1.374.5859l.0273.0274a1.9915,1.9915,0,0,1,.7188-.1338h1.44a1.9985,1.9985,0,0,1,1.4151.5869l.48.48a1.996,1.996,0,0,1,.5625,1.1152,6.1143,6.1143,0,0,1,1.4316.6563l1.2.96a1.9988,1.9988,0,0,1,.749,1.4717l.1392.418a1.995,1.995,0,0,1,.1025.6318v.72a2,2,0,0,0,0,2.88v.24a1.0937,1.0937,0,0,0,.9893,1.5048l.24.4805a2.0038,2.0038,0,0,1,.1084,1.5273l-.2871.86,1.0366,3.7314a2,2,0,0,1-.03,1.168l-1.2,3.6A2.0013,2.0013,0,0,1,136.0894,435.8965Zm-14.6416-39.1992h0Z"/>
        <path class="cls-1"
              d="M142.0889,449.8145a1.9922,1.9922,0,0,1-1.4151-.587l-.7173-.7168a2.0022,2.0022,0,0,1-.5874-1.416v-1.2a1.9934,1.9934,0,0,1,.19-.8515l-.2813-.9854-.5249-.83-.1709-.1709a1.9692,1.9692,0,0,1-.5088-.1738l-.48-.24a1.9968,1.9968,0,0,1-.5186-.3731l-.48-.4795a5.8614,5.8614,0,0,1-1.0664-2.375v-.72a1.1073,1.1073,0,0,0-.41-1.1543l-.6679-2.4482L134.3,434.79a2,2,0,1,1,3.5781-1.789l.24.48a2.037,2.037,0,0,1,.1406.3681l.523,1.918.0976.0654a1.9988,1.9988,0,0,1,.8511,2.0547l-.14.7012a1.9638,1.9638,0,0,1,.1617.5654l.0107.02a1.9681,1.9681,0,0,1,.3418.1337l.48.24a1.9737,1.9737,0,0,1,.52.375l.72.72a1.9745,1.9745,0,0,1,.2993.3838l.72,1.2a1.9924,1.9924,0,0,1,.208.48l.48,1.68a1.9947,1.9947,0,0,1,.0772.55v.48a2.0071,2.0071,0,0,1-.2061.8848l.1011.1016a2,2,0,0,1-1.415,3.4131Zm-4.56-11.1192h0Z"/>
    </g>
    <g id="Tigris-Euphrates_River" data-name="Tigris-Euphrates River">
        <polyline class="cls-2"
                  points="102.006 327.581 101.286 328.061 100.326 327.821 100.086 328.061 99.126 327.581 97.446 328.541 97.206 329.501 98.886 331.421 99.846 331.901 100.326 333.341 101.526 333.821 101.526 334.301 100.806 335.261 101.526 335.501 101.766 335.741 100.806 336.941 98.646 337.661 98.166 338.381 97.926 338.141 97.926 338.861 97.206 338.621 96.726 339.101 96.726 339.581 94.566 339.101 93.366 339.581 91.206 339.101 90.726 339.341 90.006 338.381 89.286 338.381 88.086 339.101 86.885 341.501 87.606 341.98 87.126 344.38 86.885 346.06 87.606 347.02 87.606 348.22 85.925 349.66 85.685 350.38 85.445 350.38 85.205 350.38 84.965 350.38 84.725 350.62 84.245 351.1 84.005 351.1 84.005 351.34 83.765 351.58 83.765 351.82 83.765 352.06 84.005 352.78 84.005 353.02 84.245 353.26 84.965 354.46 84.965 354.7 85.445 355.18 86.405 355.66 87.606 356.62 88.566 355.9 94.806 361.419 94.806 363.819 95.526 365.019 95.766 366.939 96.486 367.419 96.246 367.659 97.206 368.859 96.966 369.579 97.206 373.419 97.686 375.099 97.926 375.819 98.406 376.539 97.926 377.978 98.406 378.698 98.886 379.658 99.606 379.898 99.606 379.418 100.086 379.178 100.086 379.658 101.766 379.898 101.766 380.378 102.727 380.618 102.727 380.378 103.687 380.858 104.407 380.618 105.367 381.578 105.607 381.578 106.327 384.218 107.287 384.698 107.767 383.978 108.247 384.458 108.007 384.938 107.287 384.938 107.767 385.898 107.287 387.578 107.527 387.818 108.007 387.818 108.247 388.778 107.527 389.498 108.007 389.978 108.487 389.498 109.207 390.218 109.207 390.698 108.727 390.938 108.967 392.618 109.447 394.058 110.167 395.017 110.647 394.777 111.607 396.217 114.007 397.897 117.127 403.417 117.127 406.057 115.927 407.977 115.447 411.577 115.447 415.176 115.207 417.096 114.727 417.576 114.967 418.776 116.647 420.936 118.327 423.576 119.528 423.816 121.688 425.256 121.448 425.976 125.288 428.616 125.768 429.576 126.728 429.815 127.448 431.255 128.408 432.455 130.328 432.455 136.089 433.895"/>
        <path class="cls-2"
              d="M128.1681,413.9764h.96l.48-.48h1.44l.48.48v.48l.24.48.72.48v.24h.72l.24.24h.24l1.2.96v.24l.24.72v.72h-.48l-.24.96-.24.48v.72l.24.48v.24h.72v.24l-.24.72.24,1.44.24.48.96-.24.24.48-.48,1.44,1.2,4.32-1.2,3.6M105.1267,333.581l.48,1.68v.48l2.16.96.48,2.64-.48.24.48.48v.72l-.96,1.92,5.04,2.88.48.48,1.92,1.68,3.36,1.68-.24.72v.96l-.72.96v.72l.96.24.96,1.68h.24l.24.48v.24l.24.48-.24.96-.24.24v.48l.48,3.6,1.2.96-.48.24.96.48v.72l-.48-.24-1.2,1.2,1.2.72.24.96.72.48.48,3.12-.72,2.88-.72.48-.24.96-.72.48-.72,2.4.48,1.92-.48.24.96,2.4-.96.72.24,2.88-.48,6.24.96,1.2.24.24.72.48.72.24.72.96.24.72v.48h-.24l-.72.72-.24.24v.48h.24v.24l-.48.72h-.72l-.48.72-.24.48v1.92l.24.48.24.24v.48l.24.96v.96l.24.72.24.24h.48v.72l.24.24.72.48.24.24v.72l.72,1.2.72.48.48.24h.24v.96l.48.96.48.48.72.96h.96l.72.72v.24l.24.72.48.72-.72,1.2.48.96-1.2,2.4.48.96-.72,4.08.48,2.64.72,1.68-.72.96.24.24-.48.72"/>
        <polyline class="cls-2"
                  points="136.089 433.895 136.329 434.375 137.049 437.015 137.769 437.495 137.529 438.695 137.529 439.175 137.529 439.415 137.769 439.415 137.769 439.895 138.009 440.135 138.009 440.375 138.489 440.855 138.969 441.095 139.209 441.095 139.689 441.335 139.929 441.575 140.169 441.815 140.409 442.055 141.129 443.255 141.609 444.935 141.609 445.415 141.369 445.895 141.369 447.094 141.609 447.334 142.089 447.814"/>
    </g>
</svg>
