<svg id="Turkmenistan" xmlns="http://www.w3.org/2000/svg" width="612" height="792" viewBox="0 0 612 792">
    <defs>
        <style>.cls-1{fill:#fff;fill-rule:evenodd;}</style>
    </defs>
    <polygon class="cls-1"
             points="207.373 388.058 207.613 385.898 207.853 384.458 207.853 383.498 208.093 382.538 208.093 382.298 208.093 382.058 208.573 381.098 208.573 380.858 208.813 380.378 209.053 380.138 209.293 379.418 209.533 379.178 210.013 377.738 210.013 377.498 210.013 377.258 210.013 376.779 210.013 376.299 210.253 375.819 210.493 375.579 210.733 374.859 210.973 374.619 211.693 373.899 212.413 372.459 212.413 372.219 211.933 371.019 211.453 370.779 211.213 370.779 210.733 370.299 210.493 369.579 210.493 368.619 210.733 367.419 210.253 367.179 209.533 367.179 209.293 367.179 208.813 366.699 208.573 366.699 208.093 366.219 207.613 366.219 207.373 366.939 207.373 367.659 207.133 368.139 207.133 367.899 207.133 367.659 207.133 366.219 207.613 365.259 208.573 364.059 208.813 363.819 209.293 363.339 209.533 363.339 209.293 363.579 208.813 364.059 208.333 364.539 208.573 364.779 209.053 364.779 209.533 364.779 209.773 364.779 210.013 365.019 210.253 365.019 210.253 365.259 210.253 365.739 210.493 365.739 210.973 365.979 212.413 365.979 211.933 364.779 211.213 364.059 210.493 364.059 210.493 363.579 210.733 362.619 211.693 361.659 211.933 361.659 212.653 360.939 211.453 360.219 211.213 360.219 210.973 360.459 210.253 360.699 208.813 359.739 208.093 359.499 207.853 359.26 207.613 359.499 207.613 359.979 207.613 360.459 207.613 360.699 207.853 361.419 207.853 361.659 207.853 361.899 207.613 361.659 207.373 360.459 207.373 360.219 206.893 359.02 206.893 358.78 206.653 358.54 206.653 358.3 207.133 356.62 206.893 355.9 207.613 354.22 208.093 353.74 208.573 353.02 208.813 353.02 209.053 352.78 209.293 352.3 209.533 352.06 209.293 351.82 209.533 351.58 209.773 351.1 210.493 350.14 210.973 348.94 210.973 348.7 211.213 348.22 211.453 348.7 211.453 350.14 211.453 350.62 211.453 351.1 211.693 351.82 211.693 352.06 212.653 352.3 213.133 352.3 213.614 352.54 213.614 352.78 214.094 353.02 214.334 353.02 214.574 353.02 214.814 353.02 215.054 352.54 215.054 352.3 215.534 351.82 215.774 352.06 215.774 352.3 215.774 352.78 215.534 353.02 215.534 354.7 215.774 354.94 216.734 354.94 217.934 355.18 218.414 355.18 218.654 354.94 218.654 354.7 219.374 354.7 219.614 354.94 219.614 355.18 219.854 355.66 220.334 355.66 221.054 355.42 220.814 355.18 220.334 354.7 220.334 353.5 220.814 353.02 221.054 353.02 222.014 353.98 221.774 354.7 222.494 354.7 222.734 354.7 223.694 354.46 224.174 353.98 224.414 353.74 224.654 352.3 223.454 350.38 223.214 350.14 222.974 349.9 222.734 349.66 222.734 349.42 222.494 349.18 222.254 349.18 222.014 348.94 220.814 347.02 220.814 346.54 220.814 346.06 220.814 345.58 221.054 345.1 221.294 344.62 221.294 343.66 221.054 342.94 221.054 342.7 221.294 341.501 221.294 341.021 221.294 340.781 221.054 340.301 220.814 340.061 220.574 339.821 219.854 339.341 219.614 339.341 218.414 339.341 217.214 339.341 216.974 339.341 216.494 339.101 216.254 338.861 216.014 338.621 215.534 338.861 214.334 339.341 212.893 341.021 212.413 341.98 212.893 341.98 213.133 342.46 212.653 343.18 212.173 343.9 211.933 344.38 211.693 344.62 211.453 344.86 211.213 346.06 211.213 346.54 211.213 346.78 211.213 347.98 210.733 348.46 210.733 348.22 210.733 347.98 210.973 346.78 210.973 346.06 210.973 345.1 210.733 344.38 210.733 344.14 210.253 343.66 210.013 343.42 210.013 343.18 210.013 342.7 210.253 342.46 210.493 341.98 210.493 341.501 210.013 340.781 209.773 340.541 210.253 340.301 213.374 338.621 214.334 338.141 214.814 338.141 215.054 337.901 217.694 337.661 217.934 337.661 218.414 337.661 218.654 337.661 219.374 337.661 219.854 337.901 220.094 337.901 220.334 337.901 221.294 337.901 222.014 338.141 222.254 338.141 222.494 338.141 222.974 338.141 223.214 338.141 223.454 338.141 224.174 338.621 224.414 338.621 224.414 338.861 224.654 339.101 224.894 339.581 226.574 341.261 227.534 342.46 227.534 342.7 228.494 344.38 228.494 344.62 228.494 345.1 228.254 345.58 228.494 345.82 228.494 346.06 228.734 346.54 228.975 347.5 229.215 347.98 229.215 348.7 229.215 348.94 229.455 349.18 229.455 349.42 229.695 350.14 229.695 350.38 229.935 350.62 230.175 350.86 230.415 351.1 230.415 351.58 230.415 351.82 230.895 352.3 231.855 352.54 233.055 352.78 233.295 352.54 233.535 352.54 233.775 352.54 234.015 352.54 234.495 352.78 234.735 352.78 236.175 353.26 237.135 353.74 238.335 353.98 238.575 354.22 239.295 354.46 239.535 354.46 240.015 354.7 240.495 354.7 240.735 354.7 240.975 354.94 241.215 355.18 241.455 355.18 242.175 355.42 242.895 354.94 242.895 354.22 242.655 353.74 242.655 353.26 242.655 351.1 243.135 349.42 243.375 348.94 243.615 348.94 243.855 348.94 244.095 348.94 244.335 348.94 244.575 348.7 244.816 348.7 245.056 348.46 245.296 347.98 245.536 347.74 245.776 347.5 246.016 347.26 246.256 347.26 246.496 347.26 246.736 347.26 246.976 347.02 247.216 347.02 247.456 347.02 247.696 347.02 247.936 347.26 248.176 347.26 248.416 347.5 248.656 347.74 249.136 347.74 250.576 347.74 250.816 347.5 251.056 347.02 251.776 346.3 251.776 346.06 251.776 345.82 252.016 345.34 252.736 344.86 252.976 344.86 253.216 345.1 254.176 345.58 254.416 345.82 254.656 346.06 254.896 346.3 255.136 346.54 255.136 347.02 254.896 347.5 255.136 347.74 255.616 347.74 255.136 345.34 254.896 344.86 254.656 344.86 254.416 344.62 254.176 344.38 253.936 344.14 253.936 343.66 254.896 343.42 255.136 343.42 255.376 343.66 255.616 343.9 255.856 343.9 256.336 344.14 256.576 344.14 257.056 344.38 257.056 344.14 257.296 343.9 257.296 343.66 257.536 343.42 257.536 343.18 257.776 342.94 258.256 344.14 258.496 344.62 258.736 344.86 258.976 345.34 259.456 346.3 259.696 346.3 259.936 346.54 260.176 346.54 260.417 346.54 260.657 346.54 260.897 346.54 261.377 347.02 261.617 347.5 261.617 347.74 261.617 347.98 261.377 348.22 261.377 348.46 261.377 348.7 262.337 349.42 262.577 349.66 262.817 349.66 263.297 349.66 263.537 349.66 264.017 349.66 264.737 349.9 265.697 350.14 265.937 350.38 266.657 351.34 266.657 352.06 266.177 353.26 266.657 354.7 266.897 354.94 266.897 355.18 267.377 355.66 267.617 356.14 267.377 356.38 267.137 356.14 266.897 355.9 266.657 355.66 266.417 355.66 266.177 355.9 265.937 356.14 265.937 356.38 266.177 357.34 266.177 357.58 266.417 358.06 266.177 358.06 265.937 358.3 265.697 358.54 265.217 359.26 265.217 359.739 265.457 359.979 265.697 360.219 265.937 360.459 266.177 360.459 266.417 360.699 266.897 361.179 267.137 361.419 267.377 361.659 267.377 361.899 267.617 362.139 267.857 362.379 268.097 362.379 268.577 362.379 269.057 362.379 269.297 362.379 269.537 362.379 270.257 362.379 271.217 362.859 271.457 362.859 271.457 363.099 271.697 363.339 271.937 363.099 272.417 363.099 272.657 363.339 272.897 363.579 273.377 364.059 273.617 364.299 274.097 364.299 274.337 364.059 274.577 363.819 274.817 363.339 275.057 363.099 275.297 363.099 276.497 363.579 276.497 363.819 277.218 364.539 278.178 365.499 278.178 365.739 278.418 366.459 278.658 366.939 278.658 367.179 278.658 367.659 278.418 367.899 278.418 368.139 278.418 368.619 278.418 370.059 278.898 371.259 278.898 371.739 279.138 372.459 279.378 372.699 279.618 372.699 280.098 373.179 280.338 373.419 280.338 375.099 280.338 375.579 280.098 376.539 280.098 376.779 280.098 377.018 280.098 377.498 280.818 378.698 281.058 378.938 282.018 380.138 282.258 380.378 282.498 380.618 282.978 381.098 283.218 381.338 283.458 381.818 283.698 382.058 283.938 382.538 284.418 382.778 284.658 383.018 285.138 383.498 285.618 383.978 286.098 384.458 287.058 385.418 287.298 385.658 287.538 386.138 287.778 386.378 288.018 387.098 288.018 387.338 288.258 387.818 288.498 387.818 289.218 388.538 289.698 389.018 290.418 389.738 290.658 390.218 290.898 390.458 291.378 390.938 291.618 391.178 291.858 391.178 292.099 391.178 292.339 391.178 292.579 390.938 293.059 390.938 293.059 391.178 293.299 391.418 293.299 391.658 293.539 391.898 293.539 392.138 293.779 392.378 294.979 393.818 295.219 394.058 295.699 394.537 296.179 394.777 296.659 395.017 296.899 395.257 297.139 395.257 297.379 395.497 297.619 395.737 298.339 396.697 298.579 396.937 298.819 397.417 299.299 397.897 299.539 398.137 299.779 398.617 301.459 400.057 301.699 400.297 301.939 400.297 302.179 400.537 302.419 400.537 302.659 400.777 302.899 400.777 303.139 400.777 303.379 400.537 303.619 400.297 304.099 400.297 305.299 401.017 305.539 401.017 306.979 402.217 306.979 402.457 307.219 402.697 307.219 402.937 307.94 403.417 308.18 403.417 308.66 403.657 308.9 403.657 309.14 403.657 309.38 403.897 309.62 403.897 309.86 404.137 309.86 404.377 309.86 404.617 309.62 404.857 309.62 405.097 309.38 405.337 308.66 405.817 308.66 406.297 307.94 408.697 307.699 410.137 307.94 410.617 307.699 410.617 307.459 410.617 307.219 410.857 306.979 410.857 306.979 410.617 306.259 410.617 306.019 410.617 305.779 410.617 305.059 410.137 304.579 409.417 303.859 408.937 301.939 407.737 301.459 407.737 301.219 407.977 300.979 408.217 300.739 408.457 300.739 408.697 300.739 409.177 300.739 409.657 299.779 410.377 299.539 410.377 299.059 410.377 298.819 410.377 298.339 410.377 298.099 410.137 295.939 409.897 295.699 409.897 293.779 410.617 293.539 410.617 293.299 410.857 293.059 411.337 293.059 411.816 293.059 412.536 293.059 412.776 292.819 413.016 292.579 413.496 292.099 413.976 291.858 414.216 291.618 414.696 291.378 414.936 291.138 415.176 291.138 415.416 290.898 415.896 290.898 416.136 291.138 416.616 290.898 417.096 290.898 417.336 290.658 417.576 290.658 417.816 290.418 418.056 289.698 418.776 289.698 419.016 289.218 419.256 288.978 419.256 288.258 419.256 286.578 419.736 286.098 419.976 284.898 420.696 284.418 420.696 284.178 420.696 283.458 420.936 282.978 420.936 282.498 420.936 282.018 420.936 281.778 420.936 281.538 420.936 281.058 421.176 280.818 421.416 279.378 421.656 279.138 421.656 278.898 421.656 278.658 421.416 278.418 421.416 278.178 421.416 277.458 421.176 277.458 421.416 277.698 422.136 277.698 423.096 277.218 423.336 276.978 423.576 276.738 424.296 276.978 424.536 276.738 425.256 276.497 425.496 276.258 425.496 276.017 425.496 275.537 425.496 275.057 425.736 274.817 425.736 274.577 425.976 274.097 426.216 273.137 426.696 272.417 426.936 271.697 426.696 271.457 426.456 271.457 426.216 271.217 425.976 270.737 426.216 270.497 426.216 270.257 426.456 270.017 426.696 269.777 426.936 269.537 427.176 269.297 426.456 269.297 425.976 268.577 425.016 268.577 424.536 268.097 424.056 267.857 423.816 267.617 423.576 267.377 423.336 265.937 423.576 264.257 422.856 264.017 422.856 263.777 422.376 263.537 422.136 263.297 421.656 263.057 421.656 262.817 420.696 262.097 420.456 261.857 420.696 261.857 420.456 261.617 420.216 261.617 419.736 262.337 418.536 262.097 417.816 262.097 417.576 262.097 417.336 262.337 415.896 262.337 415.656 262.577 415.176 262.577 414.936 262.577 413.736 262.577 412.296 263.057 410.857 263.057 410.137 263.057 409.897 262.337 409.897 261.377 409.657 260.176 409.417 259.216 409.177 258.976 409.177 257.776 408.937 256.576 408.697 256.336 408.457 255.616 405.817 255.376 405.577 255.136 405.097 255.136 404.857 255.136 404.617 255.136 404.377 254.656 403.897 253.216 402.697 252.496 402.217 251.296 401.257 250.816 401.017 250.336 399.817 250.336 399.097 250.336 398.857 250.576 398.377 250.576 398.137 250.576 397.657 250.336 397.657 250.096 397.657 249.856 397.657 249.616 397.657 249.376 397.417 248.896 396.937 248.656 396.457 248.416 396.217 247.936 395.737 247.456 395.497 246.496 395.257 245.776 395.257 245.536 395.257 245.296 395.017 244.095 395.017 243.855 395.017 243.375 394.777 242.175 394.058 241.935 393.818 242.175 393.578 241.935 392.858 238.575 390.458 237.855 390.458 237.135 390.218 236.655 389.978 236.175 389.498 235.935 389.258 236.175 388.298 236.415 388.298 235.695 386.138 235.455 385.898 235.215 385.898 234.975 386.138 234.255 386.618 233.295 386.138 232.815 385.898 232.575 385.658 232.335 385.418 232.095 385.178 232.095 384.938 231.615 384.938 230.415 384.938 230.415 384.698 229.695 384.698 229.455 384.458 229.215 384.698 228.975 384.698 228.734 384.698 228.494 385.178 228.254 385.178 228.494 385.658 228.254 386.138 227.294 385.898 227.054 385.658 226.574 385.658 226.094 385.658 225.854 385.658 225.374 385.418 224.654 384.938 224.414 384.698 224.174 384.698 223.934 384.458 223.694 384.458 223.214 384.458 222.254 384.218 221.534 384.218 221.294 384.218 221.054 384.218 220.814 384.458 220.574 384.458 219.374 384.698 218.894 384.698 218.654 384.698 217.934 385.178 217.694 385.178 217.454 385.418 216.734 385.898 216.494 386.138 216.254 386.138 216.014 386.138 215.534 386.138 215.294 386.618 215.054 387.098 215.054 387.338 215.054 387.818 214.574 388.538 214.334 388.538 213.614 389.018 213.133 388.778 212.893 388.538 212.653 388.538 212.173 388.538 211.933 388.778 211.453 389.018 211.213 389.018 210.733 389.018 209.533 389.018 207.373 388.058"/>
</svg>
