<svg id="Turkey" xmlns="http://www.w3.org/2000/svg" width="612" height="792" viewBox="0 0 612 792">
    <defs>
        <style>.cls-1{fill:#fff;fill-rule:evenodd;}</style>
    </defs>
    <path class="cls-1"
          d="M38.6424,265.6649l-.24-.24v-.24l.24-.48h.24l.24.24h.24v.24h.24l.24.24v.48h-.24l-.72-.24Zm-13.9208-4.32-.24-.48.24-.24h.96l1.2.48-.24,1.2h-.48l-.96-.48Zm13.6808-11.5194v-.48l.24-.24.48-.24.48.24v.24l.48.24.24-.24h.24l.24-.24v-.24l.72-.24,1.92,1.2h.24l.96-.24h.24l.96.48.24.48v.24l.24.48v.24l-.24.24v.24l.24.24.24,1.2h1.2l.96.48h.24v.24l.48.48.24.24-.24.48-.24.24h-.72v.48l-.48,2.16v1.92h.24v.48l.24.24.24.96,1.44,2.64v.24l.48.72.48.48h.24l.24.24v.48l-.48.24h-.48v.48l-.24.24-.24.24h-1.92l-1.2-.96v-.48l.24-.24v-.48l-.24.24-.24.24h-.24v-.72l-.24-.24-.24-.48-.48-.72-.24-.24h-.48v-.24h-.48l-.72-.24-.24.24-.48.24-.24-.24-.24-.24v-.24l-.24-.48-.24-.24-.24-.24-1.2-.48h-.24l-.48.48h-.24l-.24.48-1.68.72h-1.44l-.96-.48-.48.24-.72-.24-1.2-.24h-.48v.24l-.96.48h-.72l-.96.24-1.2.48h-1.2l-.48-.24,1.2-.72h.24l.24-.24.24-.24v-.96h3.12l.48.24h.24l.24.24h1.2l.24-.72v-.24l-.72-.24-.24-.24h-.48l-.96-.72-.48-.24h-.24l-.24-.24-.72-.48-.24-.24v-.72l.48-.96v.24h.48l.72-.24.72-.48.24.24h.24l.72-.24.48-.48.24-.96.96-1.2h.24l.24.24,1.68.24h.24v-.24l.48-.48.48-1.2.24-.72v-.48l-.48-1.2ZM26.8817,270.7046l-.48-.24-.48-.24-2.4-.96-.48-.24v-.48l.72-.72.24-.24h.48v-.24l.24-.24.72-1.2.48-.96.48-.24.24-.24h.24l.24.24.24.24h.48l.72-.48.24-.24.72-.48.48.24.96-.24.96-.24.24-.24.72.48.48.24.24.48.48.24.48-.24h.24l.24.24.96.48-.24.72v.24l.24.72.24.24v.48l.24.24.24.24h.24l.48.48.48.24h1.2l-.24-.48h-.24v-1.44l.48-.24.24.24.48.48.72.96v.24l-.24.24-.72-.24-.24.24v.48l.72.24h.24l.24.24h.24l.24.24h.24l.24.24,1.44.96v.24l.96.96.72.24h.24v.24l.48.48v.24l.24.24.72.24.72-.24v-.72l-.24-.24h-.48l-.48-.24v-.24l-.48-.96.48-.24h.24l.48.24.48-.24h.24l.24.24.96.48.72.24.96.48.24.24.48-.24.24.24v.48l.96.48,1.2.72.24.24.24-.24v-.24l-1.2-.96-.72-.72h-.24l-.24-.24-.72-.48-.24-.48v-.96l-.48-.96-.24-.96.24-.72h.24l.72-.48v-.48h.24l.48-.24h.24l.48.24.24.48.96.96.48.72.24.24.96.72.48.48.72.72.96.72h.24l.72-.24h.24l.24.24v.24l.24.24.24.24.24.48v.24l.48.48.72.96.72.72.24.24h.24l.24.24.48.24.96.72h.96v-.24h.48l.48-.24.48-.48,1.2-.24h3.84l1.2.24.24-.24,1.2-.48,2.16.24.48.24.48.24h.72l.24.24.72.24h1.2l1.2.24.96.24.48.24.72.72h.24v.24l.24.24.72.48h.24l.24.48.48.24.48.24.72.48.72.48v.48l.48.24h.24l1.2.72.48.48.48.24h.24l.48.24h.48l.24-.24h.48l.48-.48.24.24.24.24v.24l.48.72h-.48l-.24.24-.24.48v2.64l.96,1.2v.24l.24.24.24.24.24.24h.24l1.2.24h1.44l.24.72.24.24v.72l-.24.24-.24.48-.24.24v1.92l.48,1.2v.48l.24.24.24.24h.24l.24-.24h.48l.48-.24h.72l.24.24.48.24.24.48.24.48.24.48.24.48-.24.24-.24.24v.24l.48.72h.24l.48.24.24.48.72.96.24.48.24.48h.48l.24-.24.48-.24h.24l.48.24v.48l-.24.24v.48l.48.72h.24l.24.24.72.72.24.24.96.96.24.24h.24l.24.24.72.24,1.2.24h1.92l.48.24.48.24h.96l.24.24v.24l.24.24h1.2l.48.24.24.72.72.96h.24l.96,1.2.96.96h.24v.24h2.16l.24-.24h.48l.24.24.72.24.48-.24.96-.24h1.2l.24.24h2.16l.24-.24h1.92l.96-.72.24-.24.24.24.96.72.24.24.24.72h.48l.24-.24.48-.24h.24l.72.72.48.24.72.48.24.24.24.24.48.48v.24h.24l.72-.48.48-.72h.24l.24.24h.24l.96.48.24.96.24,1.68v.24l.48.72.24,1.68.72.24h.24l.24.48h.24v.48l-.24.24h-.24v.96l.48.48h.24l.24.96-.24,1.68v.48l-.48.72-.24.24-.96.72h-.48l-.24.48-.24.96v.96l-.24,1.44h-.48v.48l1.44,1.44v.24h.24l.48.24,1.92.48.48.48.24.24.48.72.24.72-.24.24.24.72.24.24.24,1.2.24.24v.96l-.24-.96-.72-1.2-1.2.48-.24.48-1.2,1.92h-.96l-.48-.48-.24-.24-.96-.24-.24.24h-.24l.24.24v.24l.24,2.4-.48.72-.48.48v.24l-.24.96.24.48h.24v.72l-.72.72v1.2l-.48.96-.24.48-.24.48v.24l.96.24v.96l-.96.72-.96.96-1.2.96-.48.72.48.48,1.68,1.92v.48l-.24.24-.24.72-.72,1.68v.24l.24.24.72,1.44.24.24-.24.48-.48.72-.24.24v-.24l-.24-.24-.72-.48-.48.24h-.24v.24h-.72l-.24.24h-.96l-.24.24-.24.24-.48-.24v-1.44l.48-.48h.24l.24-.24v-.96l-.72-.72h-.24l-.24-.24h-.72l-.24.24-.24.24-.72-.24-1.44-.72-.96-.72-1.92-2.16-1.2-.24h-.48l-.24-.24h-.24l-.24-.72-.24-.24h-.24l-.24.24-1.92,1.2v.24l-.48-.24-1.2-.24h-.24l.24-.24.24-.96-.24-.48-.48-.48-.24-.24-.48.24-.48.24-.24.24h-.72l-1.2-.24-2.4-.48-.48-.24h-.24l-.48-.48-1.2-.48-.48-.48-1.44-.96v-.24l-.72-.24h-2.88l-.24-.24h-.24l-1.44.24-.48.24h-2.64l-.96-.24-1.68-.48-1.2-.24-.96-.24-.48-.24h-.24l-.48-.24v-.24l-.24-.24-.24-.24-.24-.24h-.48l-.48-.24-.96-.48-.24-.24-.24-.48-.24-.48-.24-1.2-.24-.24-.24-.48-.48-.24-.72-.72-.48-.24h-1.2l-.48.24-.24-.24h-.24l-.24.24h-.24l-.96-.24-.48-.24h-1.68l-1.2-.48-.72-.48-.96-.48-.48-.96v-.48l-.48-.48-1.2-1.44h-.48l-1.44,1.68-.72,1.2-.24.72v1.44l.24.24-.24.48-.72-.24-.24-.24-.24-.24h-.24l-.72-.24-.48.24-.24.72-.24.72-.24.24h-.72l-.48-.24-.48.48-.24.24-.24.24-.24.24v-.48l-.24-.24-.48-.72-.48-.48.72-.48.24-.72v-1.92l-.24-.96.24-.24.48-.24,1.2-.48,1.2-.48h1.2l.48-.48.48-.96v-1.2l-.24-.72-.24-.48-.72.24h-.24l-.24.24-.96.24h-.24l-.72-.24-.24-.24h-.48l-.48.24.24.24.24.24-.24.24-.24.24-.24.24h-.24l-.24-.24-.24-.48h-1.2l-.96-1.44-.48-1.2-.24-.48-.24-.24h-.48l.24-.24v-.24l-.24-.48-.24-.48-.24-.24h-.24l-.48-.24-.24.24-.48-.24-.96.24-1.2.24h-.72l-.24.24h-.24l-.24.24-.72.24h-.24l-.72.24v.48l-.72.24-.48.24-.24-.48-.48-.48-.48.24-.72.24-.48.24-.24-.48h-.96l-1.44-.72h-.48l-1.92-.72-.72-.72h-.48l-.48.24-.48-.24-.48-.48-.48-.72v-.24l-.24-.24h-.24l-.48-1.44-.24-1.2v-3.36l-.24-.48-.96-1.2-.48-.72-.72-1.44-.72-1.68-.24-.24-.24-.48-1.44-1.2-.48-.48-.72-.24-.48-.24-.24-.24-.24-.24v-.48h-.96l-.48.24-.24.72-.72.96-.72.96-.72.48-.24.24-.24.24.24.24-.24.24-.96.72h-.24v-.72l-.48-.72v-.24l-.48-.24h-.48v.24h-.48l-.96-.24-1.68-.48-.24-.24h-.48v-.48l-.24-.72-.48-.24-.96-.96v-.24l-.24-.48v-.24l-.24-.72-.24-.24v-.48l.48-.96.48-.48v-.24l-.24-.24h-.48l.24-.48.24-.24.48.24v-.72l-.24-1.2-.72.24-.48.24-.24-.48-.72-.96.24-.72v-.24l-.48-1.44-.48-.24-.24.24.24.24-.48.24-.24-.72v-.24l-.24-.24-.24.24h-.24v.96h-.48l-1.68.24h-.72v-.48h.24l.24.24.24.24.24-.24.24-.48-.24-.24h-.24l-.24-.24h.72l.24.24h.24l.48-.72h-.96l-.24-.24-.48-.24-.48-.48-.48-.48h-.24l-.24.24-.24.24-1.2-.72h-.48l-.24-.72v-.24l.96.24,1.68.96,1.44.72.72.24.96-.96.96.24h1.2l-.24-.24-.48-.24-1.2-.72-1.2-.72-1.2-.72-.96-.72-.48-.72-.72-.24-.24.24h-.48v-.24l.24-.96h.24l.96-.48.48.24v.72l.96.24.72-.72.24-.48h-.48l-.24-.24-.24-.72v-.48l.72-.48h-.48l-.48.24-.48-.48-.24-.24.48-.48.24-.48.72-1.2v-.24l.72-.72.48-.24.24-.48.48-.72h.24l.24-.24v-.72l-1.2-2.16-.24-.24v-1.92l-.72-.48-.72.24-.24.48-.24-.24v-.48l-.24-.48v-.72l-.48-.48v-.24l-.24-.48.24-.24.48-.48v-.24l.24.24-.24.24.24.48h.96l.24-.24h.24v-.48l-.24-.48h-.24l.48-1.2.24-.48.24-.24h.24l.24.24.48.24v.96l-.24.96-.24.72-.24-.24-.24,1.44v.24l.96.24h.24l.48.24,1.44.72.48-.24-.48-.48-.48-.24h-.24v-.96l-.24-1.68v-.24l.48-.96.72.24.96-.24.96.24h.24l.24-.48-.48-.48-.24-.24h-.48v-.96l.24-.48h.96v-.96l-.24-.48.24-.48-.48-.96.48-.24h1.44l.96-.48.24.24.48-.72.24-.24-.48-.24-.48-.24h-.24l-.48-.48Z"/>
</svg>
