<svg id="United_Arab_Emirates" data-name="United Arab Emirates" xmlns="http://www.w3.org/2000/svg" width="612"
     height="792" viewBox="0 0 612 792">
    <defs>
        <style>.cls-1{fill:#fff;fill-rule:evenodd;}</style>
    </defs>
    <path class="cls-1"
          d="M179.0513,519.81l-1.2-.72.72-.48Zm-6.72,1.2-.96-.48h-.48v-.24l.24-.24h.72l1.44-.24.72.96v.24l-.24.24h-.48l-.72-.24Zm26.1617-6.72v.96l-.24.72-.48,1.44v.24l-.24.24v.96h-.24v.48l-.24.24h-.48v.24h-.96l-.24.48-.24.48-.48-.24h-.24l-.48-1.68h.24l.24.24v-.96l-.24-.24h-.24l-.24-.24h-.24l-.24.24h-.24l-.24.24-.48.24v.24l-.24,1.44v.72l-.24.48-.48.24v1.68l-.24.96-.48.72.72.48h.96l.24,1.68v.24h-2.16l-.96-.48h-.48l-1.2.24v.72l.24.24-.24,1.2-.96.96-.96,1.2-.72,1.68-.48.48-.24.24-.24.48-.48.24-.24.48-.48.96-.24.96v.96l-.24.24-.24.96-.72.48L158.65,529.89l-6.24-14.6392.24-1.44.48.24.96.24.24.96-.24.24v1.68l.48.24.72.24,1.2.72,1.2.24h1.2l.96-.24.96-.48.72-.72.48.24.24.24v.48l.96.24,1.44.48.96.48h.96l.72.24.72.48.96.24.24.24.72.24.24.24v.24l.24.24,2.64.48,2.4-.24.48-.24.72-.24h1.44l.48-.24.24-.24.24-.48.24-.24.24-.24h.72l1.2-1.92v-.96l.72-.24,2.4-.96.72-.24h.48v-.24l.72-.48.72-.48.24-.24h.24v-.24l.48-.24.48-.48h.24v-.24l.48-.24.48-.24h.48l.24-.48.24-.24.24-.24v-.24l.24-.24.24-.24v.24l-.24.24v.24h.72l.24-.24v-.24l.48-.24.72-.24.96-.48,1.92-1.2.24-.24.48-.96.24-.48h.72v.72l-.24,1.2-.48.48-.24,1.2v.72h.24l.48.48h.24l.48.48.24.24v.72l-.24.48Z"/>
</svg>
