<svg id="Ural_Mountains" data-name="Ural Mountains" xmlns="http://www.w3.org/2000/svg" width="612" height="792"
     viewBox="0 0 612 792">
    <defs>
        <style>.cls-1{fill:#fff;fill-rule:evenodd;}</style>
    </defs>
    <polygon class="cls-1"
             points="329.781 117.833 329.301 118.073 329.061 118.073 328.821 118.313 328.341 118.313 328.101 118.553 327.861 118.553 327.621 118.793 327.381 119.033 327.141 119.273 326.901 119.513 326.661 119.753 326.661 119.993 326.421 120.233 326.181 120.473 326.181 120.713 325.941 120.953 325.701 121.193 325.461 121.433 325.221 121.673 324.981 121.913 324.741 122.153 324.501 122.393 324.261 122.633 324.021 122.633 323.781 122.873 323.781 123.113 323.54 123.353 323.54 123.833 323.54 124.073 323.54 124.313 323.54 124.553 323.54 125.033 323.54 125.273 323.54 125.513 323.54 125.753 323.54 126.233 323.54 126.473 323.54 126.713 323.54 126.953 323.3 127.193 323.3 127.673 323.06 127.913 322.82 128.153 322.58 128.393 322.58 128.633 322.34 128.873 322.1 129.113 321.86 129.353 321.86 129.593 321.62 129.833 321.62 130.313 321.62 130.553 321.86 130.793 321.86 131.033 322.34 131.033 322.58 131.033 322.82 131.033 323.06 130.553 323.3 130.313 323.3 130.073 323.3 129.833 323.54 129.593 323.781 129.353 324.021 129.113 324.261 128.873 324.501 128.873 324.741 128.633 325.221 128.633 325.461 128.393 325.701 128.153 325.941 127.913 325.941 127.673 326.181 127.433 326.181 127.193 326.181 126.713 326.181 126.473 326.181 126.233 326.181 125.993 326.181 125.513 326.181 125.273 326.421 125.033 326.661 124.793 326.901 124.553 327.141 124.553 327.381 124.313 327.621 124.073 327.861 124.073 328.341 123.833 328.581 123.833 328.821 123.593 329.061 123.593 329.541 123.593 329.541 123.833 329.781 124.313 329.781 124.553 330.021 124.793 330.261 124.793 330.501 124.793 330.741 124.793 331.221 124.793 331.461 124.793 331.701 124.793 331.941 124.793 332.421 125.033 332.661 125.033 332.901 125.273 333.141 125.273 333.621 125.273 333.861 125.273 334.101 125.273 334.581 125.273 334.821 125.273 335.061 125.033 335.301 125.033 335.541 124.793 335.781 124.553 336.021 124.313 336.021 124.073 336.021 123.833 336.261 123.353 336.261 123.113 336.261 122.873 336.261 122.633 336.501 122.153 336.501 121.913 336.741 121.673 336.741 121.433 336.981 121.193 337.221 120.953 337.461 120.713 337.701 120.473 337.941 120.473 338.181 120.233 338.661 120.233 338.901 119.993 339.141 119.993 339.382 119.993 339.862 119.753 340.102 119.753 340.342 119.753 340.582 119.513 341.062 119.513 341.302 119.513 341.782 119.273 341.782 119.513 341.782 119.993 341.782 120.233 341.302 120.473 340.582 120.713 339.862 120.953 339.141 121.673 338.661 122.873 337.941 124.073 337.461 124.793 337.221 125.273 336.501 126.233 335.781 126.713 335.061 127.193 334.101 127.433 333.381 127.433 332.181 127.433 331.221 127.433 330.501 127.673 329.541 128.153 329.061 128.873 328.581 129.113 328.341 129.593 328.581 132.472 328.581 132.952 328.101 133.672 327.381 134.632 326.661 134.872 325.701 135.592 324.741 136.312 323.781 136.792 323.3 137.032 323.06 137.512 322.58 138.232 322.34 138.712 322.58 139.432 322.34 140.392 322.34 141.352 321.86 142.312 321.62 143.272 321.38 144.472 321.38 145.192 320.9 146.632 320.42 147.592 320.18 148.072 319.94 148.552 319.7 149.031 319.46 149.751 318.98 150.471 318.74 151.431 318.74 152.391 318.98 153.591 319.22 154.551 319.46 155.031 319.46 155.271 319.22 155.511 319.22 155.751 318.98 155.991 318.98 156.231 318.74 156.711 318.5 156.951 318.26 157.191 318.26 157.431 318.02 157.671 317.78 157.911 317.54 158.151 317.54 158.391 317.3 158.631 317.06 158.871 317.06 159.351 316.82 159.591 316.82 159.831 316.58 160.071 316.58 160.311 316.34 160.791 316.34 161.031 316.1 161.271 316.1 161.511 316.1 161.991 316.1 162.231 316.1 162.471 316.1 162.711 316.1 163.191 316.1 163.431 315.86 163.671 315.86 163.911 315.62 164.151 315.62 164.391 315.38 164.871 315.14 165.111 314.9 165.111 314.66 165.351 314.42 165.591 314.18 165.831 313.7 165.831 313.46 166.071 313.22 166.31 312.98 166.31 312.74 166.55 312.5 166.79 312.26 167.03 312.26 167.27 312.02 167.75 312.02 167.99 311.78 168.23 311.54 168.47 311.54 168.95 311.54 169.43 311.54 169.67 311.54 169.91 311.3 170.15 311.3 170.63 311.3 170.87 311.3 171.11 311.3 171.35 311.3 171.83 311.06 172.07 311.06 172.31 311.06 172.55 310.82 173.03 310.82 173.27 310.58 173.51 310.58 173.75 310.34 173.99 310.34 174.47 310.34 174.71 310.1 174.95 310.1 175.19 309.86 175.43 309.86 175.91 309.86 176.15 309.86 176.39 309.86 176.63 309.86 176.87 309.86 177.35 309.86 177.59 309.86 177.83 309.86 178.31 309.86 178.55 309.62 178.79 309.62 179.03 309.62 179.27 309.38 179.75 309.38 179.99 309.38 180.23 309.38 180.71 309.62 181.19 309.62 181.67 309.62 182.63 309.62 183.11 309.86 184.07 309.86 184.549 309.86 185.029 309.62 185.989 309.62 186.709 309.38 187.669 309.14 187.909 309.14 188.629 309.14 189.349 309.14 190.309 308.9 191.029 308.66 191.749 308.66 192.709 308.66 193.429 308.42 194.149 308.42 195.109 308.18 195.589 308.18 196.069 308.18 196.309 308.18 196.789 307.94 197.029 307.94 197.269 307.94 197.509 307.699 197.989 307.699 198.229 307.459 198.469 307.459 198.709 307.459 198.949 307.219 199.429 307.219 199.669 307.219 199.909 306.979 200.149 306.979 200.629 306.979 200.869 306.739 201.109 306.739 201.589 306.499 202.068 306.499 202.308 306.499 202.548 306.259 202.788 306.259 203.268 306.259 203.508 306.019 203.748 306.019 203.988 306.259 204.468 306.259 204.708 306.259 204.948 306.259 205.428 306.499 206.148 306.499 206.628 306.259 207.108 306.019 208.068 305.779 209.028 305.539 209.748 305.059 211.188 304.579 212.388 304.099 213.348 303.619 214.308 303.139 215.028 302.899 215.988 302.659 216.468 302.419 217.188 302.179 217.668 302.179 217.908 301.939 218.148 301.939 218.388 301.699 218.628 301.459 218.867 301.219 219.107 300.979 219.347 300.739 219.347 300.259 219.587 300.019 219.587 299.779 219.827 299.539 220.067 299.299 220.307 299.059 220.547 298.819 220.787 298.579 220.787 298.339 221.027 298.099 221.267 298.099 221.507 297.859 221.747 297.619 221.987 297.379 222.227 297.139 222.467 296.899 222.707 296.659 222.947 296.419 223.187 296.179 223.427 295.939 223.667 295.699 223.907 295.459 224.147 295.219 224.147 294.979 224.387 294.739 224.627 294.739 224.867 294.499 225.107 294.259 225.347 293.779 225.347 293.539 225.587 293.299 225.827 293.299 226.067 293.059 226.307 292.819 226.547 292.579 226.787 292.339 227.027 292.099 227.267 291.858 227.507 291.618 227.747 291.618 227.987 291.378 228.227 291.138 228.227 290.898 228.467 290.658 228.707 290.418 228.947 290.178 229.187 289.938 229.427 289.698 229.667 289.458 229.907 289.218 230.147 288.978 230.147 288.738 230.387 288.498 230.627 288.258 230.867 288.018 231.107 287.778 231.347 287.538 231.587 287.298 231.827 287.298 232.067 287.058 232.307 286.818 232.547 286.578 232.547 286.338 232.787 286.098 233.027 285.858 233.267 285.618 233.507 285.378 233.747 285.378 233.987 285.138 234.227 285.138 234.707 284.898 234.947 284.658 235.187 284.418 235.427 284.418 235.667 284.178 235.907 284.178 236.147 284.178 236.627 283.938 236.867 283.938 237.106 283.938 237.346 283.938 237.826 283.698 238.066 283.698 238.306 283.458 238.546 283.458 239.026 283.218 239.266 283.218 239.506 282.978 239.746 282.978 239.986 282.738 240.226 282.738 240.706 282.498 240.946 282.258 241.186 282.258 241.426 282.018 241.666 282.018 241.906 281.778 242.146 281.538 242.626 281.538 242.866 281.298 243.106 281.298 243.346 281.058 243.586 281.058 244.066 280.818 244.306 280.818 244.546 280.818 244.786 280.578 245.026 280.578 245.506 280.338 245.746 280.338 245.986 280.098 246.226 280.098 246.466 279.858 246.946 279.858 247.186 279.858 247.426 279.618 247.666 279.618 248.146 279.378 248.386 279.378 248.626 279.138 248.866 279.138 249.106 278.898 249.346 278.658 249.586 278.418 249.826 278.418 250.066 278.178 250.066 277.458 250.306 277.218 250.066 276.738 249.826 276.738 248.626 276.497 247.426 276.017 246.466 276.017 245.746 276.017 244.786 276.497 244.546 277.218 244.306 277.458 244.306 277.458 243.826 277.458 243.346 276.978 242.386 276.738 241.666 276.738 240.946 276.978 239.986 279.138 238.066 280.098 237.106 280.818 235.907 280.818 235.427 280.818 234.467 280.098 233.747 278.898 232.787 278.418 232.067 278.178 231.587 278.418 231.107 278.898 229.907 279.618 229.427 280.098 228.947 281.058 228.947 282.258 229.187 283.218 229.187 283.938 228.947 285.378 228.227 284.658 227.747 284.178 226.787 283.458 226.067 282.738 226.067 282.258 226.067 282.258 225.587 282.978 224.387 284.418 221.267 284.898 219.827 284.898 218.867 284.658 217.668 283.698 215.988 283.218 215.748 283.218 215.268 282.978 215.028 282.978 214.788 282.978 214.548 282.978 214.068 282.978 213.828 283.218 213.588 283.218 213.348 283.218 212.868 283.458 212.628 283.458 212.388 283.698 212.148 283.938 211.908 283.938 211.668 284.178 211.428 284.418 211.188 284.658 210.948 284.898 210.708 285.138 210.468 285.378 210.228 285.618 209.988 285.858 209.748 286.098 209.748 286.338 209.508 286.818 209.508 287.058 209.508 287.298 209.508 287.778 209.508 288.018 209.508 288.258 209.508 288.738 209.508 288.978 209.508 289.218 209.268 289.698 209.268 289.938 209.268 290.178 209.028 290.658 209.028 290.418 209.508 290.178 210.228 290.178 210.468 289.938 210.708 289.938 211.188 289.698 211.428 289.698 211.668 289.458 212.148 289.458 212.628 289.218 212.868 289.218 213.108 289.218 213.348 288.978 213.828 288.978 214.068 288.978 214.308 288.978 214.548 288.978 215.028 288.978 215.268 288.978 215.508 288.978 215.748 288.978 216.228 289.218 216.468 289.218 216.708 289.218 216.948 289.218 217.428 289.218 217.668 289.218 217.908 288.978 218.148 288.738 218.628 288.498 219.107 288.498 219.347 288.498 219.587 288.498 219.827 288.738 220.307 288.978 220.307 289.218 220.307 289.458 220.307 289.938 220.307 290.178 220.067 290.418 220.067 290.658 219.827 291.138 219.827 291.378 219.587 291.618 219.587 291.858 219.587 292.339 219.347 292.579 219.347 292.819 219.107 293.059 219.107 293.299 218.867 293.779 218.628 294.019 218.628 294.259 218.148 294.259 217.908 294.259 217.668 294.259 217.428 294.019 216.948 294.019 216.708 293.779 216.468 293.539 216.468 293.299 216.228 293.059 215.988 292.819 215.748 292.579 215.508 292.579 215.028 292.579 214.788 292.579 214.548 292.819 214.308 293.059 214.068 293.299 213.828 293.539 213.828 293.779 214.068 294.259 214.068 294.259 214.308 294.499 214.308 294.499 214.548 294.739 214.788 294.979 215.028 295.219 215.268 295.699 215.268 295.939 215.508 296.179 215.268 296.419 215.028 296.419 214.788 296.419 214.548 296.179 214.068 296.179 213.588 295.939 213.588 295.699 213.348 295.459 213.108 295.459 212.868 295.219 212.388 294.979 212.148 294.739 211.908 294.739 211.668 294.499 211.428 294.499 211.188 294.739 210.948 294.979 210.708 295.219 210.468 295.459 210.228 295.699 209.988 295.939 210.228 296.419 210.228 296.659 210.228 296.659 209.748 296.659 209.508 296.659 209.268 296.659 208.788 296.659 208.548 296.659 208.308 296.659 207.588 296.659 207.348 296.899 207.348 297.139 207.348 297.379 207.108 297.619 206.868 297.859 206.628 297.859 206.388 297.859 205.908 297.859 205.668 297.859 205.428 297.859 205.188 297.619 204.708 297.619 204.468 297.379 204.228 297.139 203.988 296.899 203.748 296.659 203.508 296.419 203.268 296.179 203.028 295.939 202.548 295.699 202.308 295.699 202.068 295.459 201.828 295.219 201.589 295.219 201.349 294.979 201.109 294.979 200.869 294.979 200.389 294.979 200.149 294.979 199.909 294.979 199.669 295.219 199.429 295.219 198.949 295.459 198.709 295.699 198.469 295.699 198.229 295.699 197.989 295.939 197.509 295.699 197.269 295.699 197.029 295.699 196.789 295.699 196.309 295.459 196.069 295.459 195.829 295.699 195.589 295.699 195.109 295.699 194.869 295.939 194.629 295.939 194.389 295.939 193.909 295.939 193.669 295.939 193.429 295.699 193.189 295.699 192.709 295.699 192.469 295.459 192.229 295.459 191.989 295.699 191.749 295.699 191.269 295.939 190.789 296.179 190.789 296.419 190.789 296.659 190.549 296.899 190.549 297.139 190.309 297.379 190.069 297.619 189.589 297.619 189.349 297.859 189.109 297.859 188.869 297.619 188.389 297.619 188.149 297.379 187.909 297.139 187.669 296.899 187.429 296.659 187.429 296.419 187.189 296.179 186.949 295.939 186.709 295.699 186.709 295.459 186.469 295.219 186.229 295.219 185.989 294.979 185.749 294.979 185.269 294.979 185.029 294.979 184.789 294.979 184.31 294.979 184.07 294.979 183.83 294.739 183.59 294.739 183.11 294.739 182.87 294.499 182.63 294.499 182.39 294.499 182.15 294.259 181.67 294.499 181.43 294.499 181.19 295.219 181.19 295.459 180.95 295.699 180.71 295.939 180.47 296.179 180.23 296.419 180.23 296.659 179.99 296.899 179.75 297.139 179.75 297.379 179.51 297.859 179.27 298.099 179.03 298.339 179.03 298.579 178.79 298.819 178.55 299.059 178.31 299.299 178.07 299.539 178.07 299.779 177.59 299.539 177.35 299.059 177.35 299.059 177.11 298.819 176.87 298.819 176.39 299.059 176.15 299.299 175.91 299.539 175.67 299.539 175.43 299.779 175.19 299.779 174.95 299.779 174.47 299.779 174.23 299.539 173.99 299.299 173.99 298.819 174.23 298.579 174.23 298.339 174.23 297.859 174.23 297.619 174.23 297.379 173.99 297.379 173.75 297.619 173.27 297.859 173.03 297.139 172.79 296.899 172.79 296.659 172.79 296.419 172.55 296.179 172.31 295.939 172.07 295.939 171.83 296.179 171.35 296.179 171.11 296.419 170.87 296.419 170.63 296.659 170.39 296.899 170.15 297.139 169.91 297.139 169.67 297.379 169.19 297.619 168.95 297.859 168.95 298.099 168.71 298.339 168.47 298.579 168.23 298.819 167.99 299.059 167.75 299.299 167.51 299.539 167.27 299.779 167.03 300.019 167.03 300.259 166.79 300.739 166.79 300.979 166.55 301.219 166.31 301.219 166.071 301.219 165.831 301.219 165.591 301.219 165.111 300.979 164.871 300.979 164.631 300.739 164.391 300.739 164.151 300.739 163.911 300.499 163.431 300.259 163.191 300.259 162.951 300.019 162.711 300.019 162.471 299.779 162.231 299.779 161.991 299.299 161.511 299.059 161.271 298.579 161.271 298.339 161.031 298.099 161.031 297.859 160.791 297.619 160.791 297.139 160.791 296.899 160.791 296.659 161.031 296.659 161.271 296.659 161.511 296.899 161.751 297.139 161.991 297.379 162.231 297.619 162.231 297.859 162.471 297.859 162.711 298.099 162.951 298.099 163.431 297.859 163.671 297.859 163.911 297.619 164.151 297.379 164.391 297.139 164.631 296.899 164.631 296.419 164.631 296.179 164.631 295.939 164.631 295.699 164.391 295.219 164.391 295.219 164.151 294.979 163.911 294.739 163.671 294.739 163.191 294.739 162.951 294.739 162.711 294.739 162.471 294.739 162.231 294.979 161.751 295.219 161.511 294.979 161.271 294.979 161.031 294.499 160.791 294.739 160.551 294.739 160.071 294.739 159.831 294.739 159.591 294.499 159.351 294.259 159.111 294.019 159.111 293.779 159.111 293.299 159.111 293.059 159.351 293.059 159.591 292.819 159.831 292.819 160.311 292.819 160.551 292.339 160.551 292.099 160.311 291.858 160.311 291.378 160.311 291.138 160.071 290.898 160.071 290.658 159.831 290.418 159.831 290.178 159.591 289.698 159.351 289.458 159.351 289.218 159.111 288.978 159.111 288.738 158.871 288.498 158.871 288.738 158.631 288.978 158.391 289.218 158.151 289.218 157.911 289.218 157.431 289.218 157.191 288.978 156.951 288.738 156.711 288.498 156.471 288.258 156.471 288.018 156.231 287.778 155.991 287.538 155.751 287.298 155.511 287.538 155.271 287.778 155.031 288.018 155.031 288.258 154.791 288.498 154.551 288.978 154.311 289.218 154.311 289.458 154.071 289.698 153.831 289.938 153.831 290.418 153.831 290.658 153.591 290.898 153.591 291.138 153.831 291.618 153.831 291.858 154.071 292.099 154.071 292.339 154.311 292.579 154.551 292.819 154.791 293.059 155.031 293.299 155.271 293.059 155.271 292.819 155.511 292.579 155.751 292.579 156.231 292.579 156.471 292.579 156.711 292.819 156.951 293.059 157.191 293.299 157.431 293.539 157.671 293.779 157.911 294.019 157.671 294.259 157.671 294.499 157.431 294.739 157.191 294.739 156.711 294.979 156.471 294.739 156.231 294.739 155.991 294.739 155.511 294.739 155.271 294.739 154.791 294.739 154.551 294.739 154.311 294.739 153.831 294.739 153.591 294.739 153.351 294.739 153.111 294.739 152.871 294.979 152.631 295.459 152.391 295.699 152.391 295.939 152.391 296.179 152.631 296.659 152.631 296.899 152.631 297.139 152.871 297.379 152.871 297.859 152.871 298.099 153.111 298.339 153.111 298.819 153.111 299.059 153.351 299.299 153.351 299.539 153.591 299.779 153.591 300.259 153.831 300.499 153.831 300.739 153.831 300.979 154.071 301.459 154.311 301.459 154.551 301.939 154.551 302.179 154.551 302.419 154.311 302.659 154.071 302.899 153.831 303.139 153.591 303.619 153.351 303.859 153.111 304.099 153.111 304.579 153.111 304.819 153.111 305.059 152.871 305.299 152.871 305.779 152.871 306.019 152.631 306.259 152.631 306.739 152.391 306.979 152.391 307.219 152.151 307.459 152.151 307.699 151.911 307.94 151.671 308.18 151.671 308.66 151.431 309.14 151.191 309.14 150.951 309.38 150.471 309.62 150.231 309.86 149.991 309.86 149.751 310.1 149.511 309.86 149.511 309.62 149.271 309.62 148.792 309.62 148.552 309.62 148.312 309.62 148.072 309.86 147.592 309.86 147.352 310.1 147.112 310.34 146.872 310.34 146.632 310.58 146.392 310.58 146.152 310.82 145.672 310.82 145.432 310.82 145.192 310.82 144.952 311.06 144.712 311.06 144.232 311.3 143.992 311.54 143.512 311.06 143.272 310.58 143.032 310.58 142.792 310.58 142.552 310.58 142.072 310.58 141.832 310.58 141.592 310.82 141.352 310.82 141.112 310.82 140.632 311.06 140.392 311.3 140.152 311.78 140.152 312.02 140.152 312.26 140.392 312.5 140.392 312.74 140.152 312.74 139.912 312.98 139.432 313.22 138.952 313.22 138.712 313.46 138.472 313.46 138.232 313.7 137.752 313.7 137.512 313.7 137.272 313.7 137.032 313.94 136.552 313.94 136.312 313.94 136.072 313.94 135.832 313.94 135.352 313.94 135.112 313.94 134.872 313.94 134.632 314.18 134.392 314.42 134.152 314.66 133.912 314.9 133.672 314.9 133.432 315.14 133.192 315.14 132.712 315.38 132.472 315.38 132.232 315.38 131.992 315.62 131.753 315.86 131.513 316.1 131.273 316.34 131.273 316.58 131.273 317.06 131.033 317.3 131.033 317.54 130.793 318.02 130.793 318.26 130.793 318.5 130.793 318.74 130.793 319.22 130.553 319.46 130.553 319.7 130.313 319.94 130.073 320.18 129.833 320.42 129.593 320.42 129.353 320.42 129.113 320.66 128.873 320.66 128.393 320.9 128.153 320.9 127.913 321.14 127.673 321.38 127.433 321.38 127.193 321.38 126.713 321.62 126.473 321.62 126.233 321.38 125.993 321.14 125.753 320.9 125.753 320.66 125.513 320.66 125.273 320.9 124.793 321.14 124.553 321.14 124.073 321.38 123.833 321.38 123.593 321.62 123.353 321.86 123.113 321.86 122.873 322.1 122.393 322.1 122.153 322.34 121.913 322.58 121.673 322.58 121.433 322.82 121.193 323.06 120.953 323.3 120.713 323.54 120.473 323.781 120.233 324.021 119.993 324.261 119.753 324.501 119.753 324.741 119.513 324.981 119.273 325.221 119.033 325.461 118.793 325.701 118.793 325.941 118.553 326.181 118.313 326.421 118.073 326.661 118.073 326.901 117.833 327.141 117.593 327.381 117.593 327.861 117.353 328.101 117.113 328.341 117.113 328.581 116.873 328.821 116.633 329.061 116.633 329.541 116.393 329.781 116.393 329.781 116.633 329.781 117.113 329.781 117.353 330.021 117.593 329.781 117.833"/>
</svg>
