<svg id="Uzbekistan" xmlns="http://www.w3.org/2000/svg" width="612" height="792" viewBox="0 0 612 792">
    <defs>
        <style>.cls-1{fill:#fff;fill-rule:evenodd;}</style>
    </defs>
    <polygon class="cls-1"
             points="328.341 387.338 328.101 387.578 328.101 388.298 327.861 389.498 327.621 389.498 326.901 390.218 326.901 390.458 326.421 390.458 325.701 390.458 325.461 390.218 324.021 389.978 323.54 389.738 322.1 389.258 321.86 389.018 321.62 389.018 320.9 388.778 320.66 388.778 320.42 388.778 318.74 389.498 318.26 389.978 318.26 390.458 318.02 390.938 317.78 391.658 317.3 391.898 317.3 392.618 318.5 393.098 318.74 393.098 318.98 393.338 319.22 393.338 319.7 393.818 319.7 395.017 319.7 395.257 319.94 395.257 320.9 395.497 321.38 395.497 321.86 395.257 322.82 395.497 323.06 395.737 323.06 396.217 323.3 396.697 323.3 397.177 323.06 397.417 322.82 397.657 322.58 397.657 322.1 398.857 321.86 400.297 322.1 401.497 322.82 402.457 323.3 402.937 323.781 403.417 323.781 403.657 324.021 404.137 324.021 404.377 323.54 405.097 323.54 405.577 322.82 406.537 322.58 406.537 321.86 406.537 321.62 406.777 321.62 407.017 321.38 407.257 321.14 407.737 320.9 408.217 320.66 408.457 320.18 408.937 319.94 408.937 319.7 409.417 319.46 409.657 319.22 409.657 318.98 410.137 318.74 410.617 318.5 410.857 318.5 411.097 318.26 411.577 318.5 411.816 318.5 412.056 318.5 412.536 318.5 413.016 318.26 413.016 318.02 413.496 317.78 413.736 317.78 413.496 317.54 413.496 317.3 413.256 316.82 413.016 315.86 412.776 315.14 412.776 314.66 413.016 313.94 413.016 313.7 413.256 313.46 413.256 313.22 413.016 313.22 412.776 313.22 412.536 312.26 411.337 311.78 410.857 311.54 410.857 311.06 410.857 310.58 410.857 310.34 410.857 309.38 410.857 308.66 410.617 308.18 410.617 307.94 410.617 307.699 410.137 307.94 408.697 308.66 406.297 308.66 405.817 309.38 405.337 309.62 405.097 309.62 404.857 309.86 404.617 309.86 404.377 309.86 404.137 309.62 403.897 309.38 403.897 309.14 403.657 308.9 403.657 308.66 403.657 308.18 403.417 307.94 403.417 307.219 402.937 307.219 402.697 306.979 402.457 306.979 402.217 305.539 401.017 305.299 401.017 304.099 400.297 303.619 400.297 303.379 400.537 303.139 400.777 302.899 400.777 302.659 400.777 302.419 400.537 302.179 400.537 301.939 400.297 301.699 400.297 301.459 400.057 299.779 398.617 299.539 398.137 299.299 397.897 298.819 397.417 298.579 396.937 298.339 396.697 297.619 395.737 297.379 395.497 297.139 395.257 296.899 395.257 296.659 395.017 296.179 394.777 295.699 394.537 295.219 394.058 294.979 393.818 293.779 392.378 293.539 392.138 293.539 391.898 293.299 391.658 293.299 391.418 293.059 391.178 293.059 390.938 292.579 390.938 292.339 391.178 292.099 391.178 291.858 391.178 291.618 391.178 291.378 390.938 290.898 390.458 290.658 390.218 290.418 389.738 289.698 389.018 289.218 388.538 288.498 387.818 288.258 387.818 288.018 387.338 288.018 387.098 287.778 386.378 287.538 386.138 287.298 385.658 287.058 385.418 286.098 384.458 285.618 383.978 285.138 383.498 284.658 383.018 284.418 382.778 283.938 382.538 283.698 382.058 283.458 381.818 283.218 381.338 282.978 381.098 282.498 380.618 282.258 380.378 282.018 380.138 281.058 378.938 280.818 378.698 280.098 377.498 280.098 377.018 280.098 376.779 280.098 376.539 280.338 375.579 280.338 375.099 280.338 373.419 280.098 373.179 279.618 372.699 279.378 372.699 279.138 372.459 278.898 371.739 278.898 371.259 278.418 370.059 278.418 368.619 278.418 368.139 278.418 367.899 278.658 367.659 278.658 367.179 278.658 366.939 278.418 366.459 278.178 365.739 278.178 365.499 277.218 364.539 276.497 363.819 276.497 363.579 275.297 363.099 275.057 363.099 274.817 363.339 274.577 363.819 274.337 364.059 274.097 364.299 273.617 364.299 273.377 364.059 272.897 363.579 272.657 363.339 272.417 363.099 271.937 363.099 271.697 363.339 271.457 363.099 271.457 362.859 271.217 362.859 270.257 362.379 269.537 362.379 269.297 362.379 269.057 362.379 268.577 362.379 268.097 362.379 267.857 362.379 267.617 362.139 267.377 361.899 267.377 361.659 267.137 361.419 266.897 361.179 266.417 360.699 266.177 360.459 265.937 360.459 265.697 360.219 265.457 359.979 265.217 359.739 265.217 359.26 265.697 358.54 265.937 358.3 266.177 358.06 266.417 358.06 266.177 357.58 266.177 357.34 265.937 356.38 265.937 356.14 266.177 355.9 266.417 355.66 266.657 355.66 266.897 355.9 267.137 356.14 267.377 356.38 267.617 356.14 267.377 355.66 266.897 355.18 266.897 354.94 266.657 354.7 266.177 353.26 266.657 352.06 266.657 351.34 265.937 350.38 265.697 350.14 264.737 349.9 264.017 349.66 263.537 349.66 263.297 349.66 262.817 349.66 262.577 349.66 262.337 349.42 261.377 348.7 261.377 348.46 261.377 348.22 261.617 347.98 261.617 347.74 261.617 347.5 261.377 347.02 260.897 346.54 260.657 346.54 260.417 346.54 260.176 346.54 259.936 346.54 259.696 346.3 259.456 346.3 258.976 345.34 258.736 344.86 258.496 344.62 258.256 344.14 257.776 342.94 257.536 343.18 257.536 343.42 257.296 343.66 257.296 343.9 257.056 344.14 257.056 344.38 256.576 344.14 256.336 344.14 255.856 343.9 255.616 343.9 255.376 343.66 255.136 343.42 254.896 343.42 253.936 343.66 253.936 344.14 254.176 344.38 254.416 344.62 254.656 344.86 254.896 344.86 255.136 345.34 255.616 347.74 255.136 347.74 254.896 347.5 255.136 347.02 255.136 346.54 254.896 346.3 254.656 346.06 254.416 345.82 254.176 345.58 253.216 345.1 252.976 344.86 252.736 344.86 252.016 345.34 251.776 345.82 251.776 346.06 251.776 346.3 251.056 347.02 250.816 347.5 250.576 347.74 249.136 347.74 248.656 347.74 248.416 347.5 248.176 347.26 247.936 347.26 247.696 347.02 247.456 347.02 247.216 347.02 246.976 347.02 246.736 347.26 246.496 347.26 246.256 347.26 246.016 347.26 245.776 347.5 245.536 347.74 245.296 347.98 245.056 348.46 244.816 348.7 244.575 348.7 244.335 348.94 244.095 348.94 243.855 348.94 243.615 348.94 243.375 348.94 243.135 349.42 242.655 351.1 242.655 353.26 242.655 353.74 242.895 354.22 242.895 354.94 242.175 355.42 241.455 355.18 241.215 355.18 240.975 354.94 240.735 354.7 240.495 354.7 240.015 354.7 239.535 354.46 239.295 354.46 238.575 354.22 238.335 353.98 237.135 353.74 236.175 353.26 234.735 352.78 234.495 352.78 234.735 352.54 235.215 350.14 236.175 347.02 236.895 344.62 237.135 343.66 237.855 341.021 238.575 338.381 239.295 335.741 239.535 335.021 240.255 332.381 241.215 329.501 241.935 327.101 242.175 326.381 243.855 320.622 244.335 318.462 245.296 315.822 247.216 315.582 248.176 315.582 250.096 315.582 250.576 315.582 250.816 315.582 251.056 315.582 253.216 315.342 255.856 315.342 257.296 315.342 258.736 315.102 260.417 315.102 262.577 315.102 264.737 314.862 270.737 322.542 279.618 333.101 280.338 334.541 282.018 337.661 283.218 339.581 283.938 341.021 284.178 341.741 284.418 341.741 287.058 341.741 287.778 341.98 288.738 341.98 290.418 341.98 293.299 341.98 294.739 342.46 295.699 342.7 297.379 343.18 298.819 343.66 299.059 343.9 302.179 344.62 303.379 344.14 305.299 343.66 306.019 343.42 306.739 344.38 307.699 346.3 307.94 346.78 309.38 347.98 309.62 348.22 310.34 350.14 310.82 352.06 311.06 353.26 313.7 352.3 313.22 354.46 312.98 355.66 312.74 356.38 312.26 358.06 312.02 358.06 311.78 359.02 311.78 359.739 311.3 361.899 311.3 362.379 314.9 363.099 314.9 364.059 314.9 364.779 314.9 365.739 314.9 365.979 314.9 368.619 315.14 371.739 315.38 371.979 315.62 371.979 316.34 372.219 317.78 372.459 318.5 372.459 319.94 372.699 320.66 372.699 321.14 372.699 321.38 372.699 322.34 372.699 323.06 372.699 324.501 372.939 324.981 373.659 325.701 374.379 325.941 374.619 325.941 375.339 325.461 376.059 325.461 376.299 325.221 376.539 324.981 376.539 324.981 377.018 325.941 378.218 326.181 378.218 326.421 378.458 326.661 378.698 327.861 379.418 327.861 379.658 328.821 379.658 329.301 379.658 329.301 378.938 329.301 378.458 329.061 378.218 329.061 377.018 329.301 376.299 329.541 376.299 329.781 376.059 330.261 375.819 330.501 375.579 330.741 375.339 330.741 375.099 330.981 374.859 331.701 374.619 332.901 373.899 333.381 373.659 333.381 373.179 333.621 372.219 333.381 372.219 334.821 371.499 335.061 371.259 335.781 371.259 336.981 370.539 338.181 369.579 339.141 369.339 339.382 369.339 339.862 369.339 340.582 369.579 341.542 368.859 342.262 368.379 342.502 368.379 342.742 367.899 343.222 367.179 343.942 366.459 344.182 366.219 344.422 366.219 345.142 365.979 345.382 365.979 345.622 366.219 345.622 366.699 346.342 366.939 346.342 366.699 346.582 366.459 346.582 366.219 347.302 365.259 347.782 365.259 348.022 365.259 348.502 365.259 348.502 365.019 348.982 364.779 349.222 364.779 349.702 364.299 349.942 364.299 350.422 364.539 350.662 365.019 351.142 365.259 351.382 365.499 351.382 365.739 350.902 366.219 348.982 366.939 348.742 366.939 348.502 366.939 348.262 366.939 348.022 366.939 348.022 367.659 347.782 367.899 347.302 368.139 347.062 368.139 346.582 368.139 345.142 369.099 344.902 369.579 344.902 369.819 344.662 369.819 343.462 370.539 343.222 370.779 342.982 370.779 342.502 370.779 342.262 371.019 342.262 371.499 342.502 371.739 342.982 371.739 343.222 371.739 343.222 371.979 343.462 371.979 343.702 371.979 343.942 372.219 344.182 372.459 344.422 372.939 344.902 372.939 345.382 372.699 345.622 372.699 345.862 372.459 346.342 372.699 346.582 373.419 346.822 373.899 346.822 374.139 346.822 374.859 348.022 375.579 349.462 376.059 349.702 375.819 350.182 375.819 351.142 376.779 351.382 376.779 351.622 376.539 351.622 376.059 351.622 375.579 351.622 375.339 351.622 374.619 351.862 374.379 352.342 374.859 352.582 375.099 352.822 375.099 353.062 374.859 353.062 374.619 353.542 374.139 353.542 373.659 353.542 373.419 353.302 373.179 353.302 372.939 353.542 372.459 353.782 372.459 354.982 374.619 355.223 374.859 355.223 375.339 355.223 375.579 355.223 375.819 354.982 376.299 355.223 376.539 356.903 376.539 357.143 376.539 357.383 376.539 357.623 377.978 357.383 378.458 358.343 378.218 358.823 378.218 359.783 378.698 360.263 379.418 360.503 379.658 360.503 379.898 360.743 380.138 361.223 380.138 361.223 380.378 362.663 380.378 363.863 380.378 364.583 380.858 364.823 380.858 364.583 381.338 364.103 381.578 362.903 382.058 362.423 382.058 362.183 382.298 361.703 382.298 360.983 383.258 360.743 383.738 360.503 383.738 360.263 383.978 360.023 383.738 358.583 382.778 358.343 382.778 358.343 383.498 358.343 383.738 358.823 383.978 358.823 384.218 358.823 384.458 358.583 384.938 358.343 384.938 357.863 384.698 357.383 384.218 357.143 384.218 356.903 383.978 356.663 383.978 356.183 384.458 355.223 385.178 355.463 385.898 354.262 386.138 353.542 386.618 353.302 386.858 352.822 387.098 351.382 386.138 351.142 386.138 350.902 385.898 350.902 385.658 350.422 385.178 349.702 384.938 349.222 385.178 348.262 385.178 348.022 385.178 347.782 385.178 347.302 385.178 347.062 385.418 346.822 385.418 346.102 385.418 345.862 385.418 345.622 385.658 345.142 385.658 344.902 385.658 344.422 385.658 344.182 385.418 344.182 385.178 343.942 384.938 342.982 383.978 342.502 383.498 342.262 382.778 342.502 382.538 342.982 382.538 343.942 381.818 345.622 380.858 345.862 380.618 346.102 380.378 346.102 380.138 345.862 379.898 345.622 379.898 345.142 379.178 345.142 378.698 344.422 377.498 343.942 377.018 343.942 376.779 343.702 376.779 343.462 376.779 343.222 376.779 343.222 377.018 343.222 377.498 342.982 377.738 342.742 378.218 342.022 378.458 340.342 379.178 339.862 379.418 339.622 379.418 339.382 379.418 339.141 379.418 338.661 379.658 338.421 379.658 338.181 379.898 337.941 380.138 337.701 380.378 337.461 380.138 337.221 380.138 336.741 379.418 336.501 378.938 336.501 378.698 335.781 378.218 335.301 378.458 335.061 378.458 334.821 378.698 334.101 380.378 333.861 381.338 334.341 382.778 334.341 383.018 334.101 384.458 333.861 384.458 333.381 384.458 333.141 384.458 332.901 384.458 332.421 384.218 332.181 383.978 331.941 383.738 331.701 383.738 329.781 383.738 329.301 383.738 329.061 383.978 328.581 383.978 328.341 384.218 328.581 384.458 328.821 384.698 329.061 384.698 329.541 384.698 329.781 384.698 330.501 384.458 331.221 384.698 331.461 385.178 331.221 385.418 330.741 385.418 330.021 385.178 329.541 385.178 329.781 385.898 329.781 386.378 330.021 386.618 330.261 387.098 329.061 387.818 329.061 387.578 328.821 387.338 328.341 387.338"/>
</svg>
