<svg id="Yemen" xmlns="http://www.w3.org/2000/svg" width="612" height="792" viewBox="0 0 612 792">
    <defs>
        <style>.cls-1{fill:#fff;fill-rule:evenodd;}</style>
    </defs>
    <path class="cls-1"
          d="M45.8429,589.1664l-.24-.24-.24-.96-.24-.24.72-.24h.24l.24.24v.48Zm1.68-14.3992-.24-.24v-.24l.24-.72.24-.24.48-.24h.24l.24.24-.24.48-.48.48-.24.24Zm87.1255,62.8764-.72-.24-.96-.48-.48-.24v-.24h-.24v-.48l.48.24h.24l.24.24v.24h.24l.24.24h.48l.72.24.24.24v.48Zm19.4413,0,.48.24,1.68.96.24.48-.72.48-1.92.24-.48.24-.48.24h-.24l-.96-.24-2.4-.48h-.24l-1.2-.48-.48-.24h-.24l-1.68-2.16-.24-.48h.48v-.24l.24-.24v-.48l1.2-.48,1.44.72.48.48.48.48.48.48,1.92-.24h.72l.48-.24.24.24.48.48ZM87.6056,607.6453h-.72l-1.68-.24h-1.2l-.48.24h-1.68l-2.16-.48-1.2-.48-.48-.24-1.2-.24-1.2-.48-.96-.24-1.2-.24-1.68-.24-.24.24-.72.24-.24.24-.72.24-.24.24-.24.24-.48.48h-1.44l-.24-.24h-.72l-.48.24-.24.24h-.24l-.48.72-.48.96v-.96l-.72-.24h-.72v.48l.24.24-.24.24-.48-.24-.96-.72-.48-.72-.48-.24h-.96l-.72.24-.48.24-.24.24h-1.2l-.96-.24-2.4-.72-.24-.24v-.24l-.72-.72-1.2-.96-.72-.48h-.48l-.48.24h-.48v-.24l.24-.72v-.24l.24-.24-.48-1.92-.24-.96-.48-1.44-.24-.48v-.72l.24-.24.24-.24.72-2.16v-.48l.24-.48v-.24l.24-.48-.24-1.68-.24-.24-.24-.48-.24-.48-.24-.48.24-.72.24-.96v-3.12l.24-.96v-.96l-.24-.72v-.96l.24-.24.24-.48v-1.2l-.24-1.92-.24-.24-.24-.48-.48-.24-.24-.48h-.24v-.24l.24-.24.24-.24.48.96h.24v-.24l.24-.96.24-1.2-.24-.72-.24-.72v-.48l.24-.72v-.24h.24l.24-.24.24-.72h.48l.48-.24.24-.72.48-.96v-.24l.24-2.4v-.72h1.2l1.68-.72h.24v-.48l.48-.72.24.24.72.24v-2.88l.72-1.92.96-1.92.72-.48.72-.24h.24l.48-.24h.72l.48.24.96.96.24.48v.24l.48.72.24.24,1.44,1.2h1.44l1.2-.24,1.68.48.96.24.72.72h.96l5.28,1.92,1.44,1.68,6.24,3.12,2.4,1.2,3.6.72,1.68,4.08,1.68.72,2.64-.72h.48l1.92-2.88,2.88-2.16,4.32-3.36,9.8406-1.44,15.841,3.12,4.32.48,7.6805.96,4.08,18.7189.24.72,1.44,7.2h-1.92l-.24.24h-3.36l-.72.24-.48.24h-.24l-1.68.96-.72.72-.96,1.68v3.36l-.48.48h-1.44l-.96.24-2.64.24-.48.24v.24l-.96.24h-.96l-2.4.24h-2.64l-1.44-.24h-1.44l-1.68-.24h-.96l-.48.24-2.4.72-1.44-.24v-.24l-.72-.24h-4.32l-1.44.24-1.68.24-1.44.24h-.48l-.48.48-.48.72v.48l-1.92,1.2-1.44.48-.24.24-.72-.48h-.72l-1.2-.24h-1.2l-.24-.24h-.48l-.48-.24-.24-.48-.72-.48h-.24l-.24-.24h-.96l-.24.24h-.24l-.48.24h-1.2l-.72.24h-.24l-.24.24h-.24l-1.68.96h-.48l-.24.24-.72-.24h-.72Z"/>
</svg>
