<svg id="Zagros_Mountains" data-name="Zagros Mountains" xmlns="http://www.w3.org/2000/svg" width="612" height="792"
     viewBox="0 0 612 792">
    <defs>
        <style>.cls-1{fill:#fff;fill-rule:evenodd;}</style>
    </defs>
    <path class="cls-1"
          d="M138.4888,360.9394l.72.72.24.24-.24.96-.24.72-.24.96-.48.72-.24.72v.48l-.48.96h1.44l1.2.96v1.68l-.24.48v.24l.24,1.44h.24l.48.96h1.68l.72.48.72.96.96.24.72.24.96,1.44v1.92l.24,1.68.24,1.2.96-1.2.72-1.68.72-3.12.72-2.4.96-1.68.48.24-.48,1.92-.24,1.44.96.48.24,1.2.48.24h.72v.96l.96-1.2.72-.48.72.24-.24.72.24.96.72.96.72.96.48-.96,1.2-1.68,1.2.24.72,1.2,1.2,1.68.72.96.48.48.96.96.96-.24.72-1.2-1.2-.96-.96-.96-.48-1.2-.24-1.44v-1.2l.48-.96.72-.72h.72v.24l.24,1.92.48,1.2.72,1.44.72.72.72,1.2.96,1.2v2.4l.96.48.72.48.72.96.24.24v.96l.48.72v.24h-1.68l-1.92-1.2-.72-1.44-1.44-.96v1.44l.24.96.72,1.2-.24,1.2-1.68.24-.48.96.24.96,1.68.96h2.4l1.2.48.72.48,2.4.48.96,1.2,1.2.72.24.72-.96.48.48.96,1.2.24,2.16.96.72.24h.72l.48.24h1.68l1.2.48-.24.48h-.48l-.24.48-.24.72-.24-.48-.72.48.48.48v.72l-1.2-.48-.96-.72-1.2-.48-.96-.24-1.44-.48-1.92-.72h-1.68l-1.2-.24-.72-.24v.96l.72.72-.24.72.72.96.48.72v.48l-.72-.24-.48-.48-.72.24.48.48.24.72-.48.24-.72-.48-1.68.24-2.4.72-.72,1.2-.48-.48-.48.24-.96.72-1.92,1.44-.72.96-.48,1.2-.72,2.16.48.72.72-.48,1.2-.72,1.44-.48.96-.24,3.84-1.44,1.68-.72.72-.24.48-.24,1.44-.48h.24l.24.48-.96.72-.72,1.2-.24.72-.48,1.2-.24,1.44-.48,1.44-.48.96-.24.96.72.72.96,1.2.96,1.2.24.48.72.96.48.72-.24-1.2v-1.2h.72l.24.48.72,1.44.72.96.24.48,1.44,1.68.96,1.2.48,1.2.24,1.2v1.2l-.24,4.56-.24.96v.72l-.48.24-.24.72.24.72,1.44-.24.72.72h.48l.24.48v.96l-1.2-.48h-.48l-.48.24-.24.72-.72.24h-1.92l-.72.24-.24.48v.72l-.24.96-.24.72-.48,1.92-.24,1.2-.48.96v1.92l.24,1.44.48.72.96.72.48.48.24-.72.24-1.44.48-1.2.72-.72.72-.48.24-1.2-.24-1.2.96-.24.48.96.72.48.72.48.24.72.24,1.2-.72.48-.72.48-.48.48.96.96,1.44.96.72.72,1.68.96.48,2.16.48.72,1.2,1.2.24.72-.48.24-.48.24.24.24,1.44,1.68.96.72.48.96v2.88l.48-.72.96-.72.24.48-.24.24-.24,1.92-.24.48.24.72.96-.24v-.48l.96.48h.96l.24-.24.96.24.72.24.48.48.24.48.96,1.92,1.2,1.68.24.48.96,1.2.24.72.48.48v-.48l-.24-.72.72-.72.24.24v.72l.48.96v.48l.24.72.24.72,1.44.72.24-.48.48-.48h.72l.96.24.72-.48h.24l.24-1.2.48-.24.72.48-.48-1.68.24-.24.96,2.16,1.2,1.44.96.72h-.24l1.2,1.2,1.92.96,1.68,1.44,1.2.48v1.2l-.48.72-.96.24-.96.72-.72,1.44-.96.48h-.72l-1.68.24-1.2.48-1.44-.24-.48-.72-2.16.24.24-.72,1.68-.24,1.44-.72.24-.96.24-.72-1.2-.24-.96-.96-1.44-.72-.96-.48-.72.24.24,1.2.48,1.2h-3.12l.24-1.2-.96-.96-.48.48-2.16.96-.96-.48-1.44-.72-.96-.48-2.4-.24-.48-.72-.96-1.2-.48-.96-.24-.96-.24-.24-1.68.48-.72.48-.72.48-1.2-.24-1.44-1.92-.72-1.68-.72-.96-.24-.72-.24.48-1.2,1.68-.72-.72-.72-.24.24-.72-.24-.48-.96-.72-1.44.24-.48.48v.48l-1.44.24-.72-.48-.96-.72v-.96l-.72-.96-.72.24-.48.24-.72.24-.48-.48-.24-.72-.72-.96-.72-2.4-.48-.24-.48-.24-1.44-.96-1.2-1.68-.72-2.4-1.2-2.16.24-4.32v-3.12l-.48-.24-1.68-2.4-1.68-2.64-2.16-3.12-2.16-3.36-.24-.72-.96-2.16-.48-1.2-.24-.48v-.48l-.48-1.68v-1.2l-.24-1.2-.72-1.92-.48-1.68-3.12-4.56-2.4-.72-.72-.96-.96-1.2-.72-1.92-4.32-3.36-.96-1.2-2.16-2.64-.48-.96-.96-2.64-.96-2.16-.72-4.08v-.24l1.92-4.56,1.68-3.6v-3.6l-2.16-6.24.48-5.52.72-1.44v-.96l-1.68-1.2-.24-.48-.96-.24-1.2-.24-.48-.72v-1.44l.48-2.16-.24-1.2-.24-.48-1.2-.72-.72-.72-1.2-.48-.24-.24-1.2-.96-1.2-.72-1.44-1.92-.48-.72v-.96l-.48-.72-.24-.96.48-.24.24-.96.24-.96-.24-.24-.72-.48-.24-.24v-.24l-.48-.72-.24-.48v-.48l-.48-.72h-.48l-.24-.24-.24-.24-.24-.48-.24-.48.24-.24v-.24l.24-.24v-.48h.24v-.72l.24-.48h.24l.24-.24.48-.24.24-.24.24-.24v-.24l-.48-.48v-.24h-.24v-.48l-.24-.24-.48-.24-.48-.24-.24-.48-.24-.24-.48-.72-.48-.24h-.24v-.24l.24-.24.24.24.96.24.72.24,1.2.48h.24l.24.24h.72l.24.24.48.48.24.24.48.24v.24l.24.48.24.48.48.48.24.48.24.24.24.24.24.24.24.24.48.24.24.24h.72l.24.48.24.48h.24l.24.24,1.2,1.92,1.92,1.44,1.2,1.2,1.44,1.92,1.68,1.44h.96v-2.4l.24-1.2v-.48l.24-1.2.48-.72.24-.48.96-.96.72-.48.24.24v1.2l.72.48.24.72v1.44l-.48,1.2-.24,1.44-.24,1.44ZM204.973,491.492l-.96.24-1.2-.24-.96-.72-.24.48-1.44.48-1.2-.72-.72-.72.96-.24,1.68-.48-.72-1.2.48-.48.24.24.72.48.96.72.24.24.72.24,1.44.72Z"/>
</svg>
