<svg id="Albania" xmlns="http://www.w3.org/2000/svg" width="612" height="792" viewBox="0 0 612 792">
    <defs>
        <style>.cls-1{fill:#fff;fill-rule:evenodd;}</style>
    </defs>
    <polygon class="cls-1"
             points="391.465 547.649 391.705 547.409 391.705 545.969 391.705 545.729 390.745 545.249 390.025 545.009 389.545 545.009 389.305 545.009 388.825 545.249 388.345 544.289 388.345 543.569 388.345 541.889 388.585 541.169 388.345 540.929 387.865 540.689 387.145 540.209 389.305 535.649 390.265 533.97 390.025 533.73 390.265 533.01 390.505 532.77 391.225 532.05 391.705 532.29 391.945 533.01 391.705 533.73 392.185 534.45 392.425 534.69 392.905 534.929 393.865 533.97 395.305 533.01 395.545 533.01 395.785 533.49 396.745 533.73 397.465 534.929 397.945 535.889 398.185 536.369 399.385 536.369 399.625 536.609 400.585 536.849 401.305 537.569 401.545 537.809 402.746 540.209 403.226 541.649 402.986 541.889 402.986 542.129 402.986 542.849 402.746 542.849 402.746 544.529 402.505 545.009 402.986 546.689 402.265 548.129 402.265 548.609 402.505 549.089 402.986 549.569 403.706 550.289 403.706 550.769 403.466 551.249 403.226 551.489 403.466 551.969 403.706 552.928 404.666 554.128 404.906 555.088 405.866 555.088 407.066 557.728 408.026 557.728 408.266 557.248 409.466 557.248 409.706 557.248 409.946 557.488 410.186 558.208 410.186 559.168 410.906 560.368 411.386 560.848 411.626 561.808 411.626 562.528 410.666 564.208 410.426 564.448 409.226 564.688 408.746 565.168 408.986 565.648 408.746 567.088 408.506 567.328 408.266 567.808 408.506 568.528 408.026 570.687 407.546 570.927 407.546 571.167 407.066 571.167 406.826 571.407 405.866 571.407 405.626 571.407 405.386 571.647 404.186 572.847 404.426 574.047 404.906 574.527 405.626 575.007 405.626 575.487 405.626 575.727 405.386 575.967 404.426 575.727 404.186 575.967 404.426 576.447 404.666 576.927 403.706 578.607 403.466 578.607 402.986 578.607 402.746 578.607 402.265 578.367 401.305 578.127 401.065 578.127 400.825 578.127 400.585 577.167 400.345 575.487 399.625 574.527 398.425 572.847 398.185 572.847 397.945 572.847 397.225 572.367 396.745 572.127 395.305 571.647 393.865 571.167 393.145 570.687 392.425 569.967 390.745 567.808 391.225 567.568 391.465 567.568 392.185 568.288 392.185 568.528 392.425 568.768 392.665 569.008 393.145 569.008 393.145 568.528 393.145 567.328 392.425 565.408 391.945 565.168 391.705 565.168 390.985 564.688 390.505 564.208 390.985 563.488 391.465 561.328 391.465 560.608 391.705 560.368 391.945 560.368 392.665 559.888 392.425 559.408 392.185 558.928 391.705 558.448 391.225 558.208 391.465 557.488 391.705 554.368 391.705 554.128 391.465 553.888 391.225 553.648 390.985 553.648 390.505 552.208 391.225 549.329 391.705 549.089 391.945 548.849 391.705 548.369 391.465 547.649"/>
</svg>
