<svg id="Alps" xmlns="http://www.w3.org/2000/svg" width="612" height="792" viewBox="0 0 612 792">
    <defs>
        <style>.cls-1{fill:#fff;fill-rule:evenodd;}</style>
    </defs>
    <polygon class="cls-1"
             points="324.021 455.974 324.261 455.974 324.261 456.214 324.501 456.214 324.501 456.454 324.741 456.454 324.741 456.694 324.981 456.694 325.221 456.694 325.221 456.934 325.461 456.934 325.461 457.174 325.701 457.174 325.941 457.174 326.181 457.174 326.421 457.174 326.661 457.174 326.901 457.414 327.141 457.414 327.381 457.174 327.621 457.174 327.861 457.174 328.101 457.174 328.341 456.934 328.341 456.694 328.581 456.454 328.821 456.214 329.061 456.214 329.061 455.974 329.061 455.734 329.061 455.494 329.301 455.494 329.301 455.254 329.061 455.254 329.061 455.014 328.821 455.014 328.821 454.774 329.061 454.774 329.301 454.774 329.541 454.774 329.541 454.534 329.781 454.534 330.021 454.534 330.261 454.534 330.501 454.534 330.741 454.294 330.981 454.294 331.221 454.294 331.461 454.294 331.701 454.054 331.941 454.054 331.941 454.294 331.941 454.534 331.941 454.774 332.181 454.774 332.421 454.774 332.421 454.534 332.421 454.294 332.661 454.294 332.661 454.054 332.661 453.814 332.901 453.574 332.901 453.334 332.901 453.094 333.141 453.094 333.141 452.854 333.381 452.854 333.621 452.854 333.861 452.854 334.101 452.854 334.341 452.854 334.581 452.854 334.821 452.854 334.821 453.094 334.581 453.334 334.341 453.574 334.101 453.814 335.061 453.814 335.061 453.574 335.301 453.574 335.301 453.334 335.541 453.334 335.541 453.094 335.541 452.854 335.781 452.854 335.781 452.614 336.021 452.614 336.261 452.854 336.501 453.094 336.261 453.334 336.261 453.574 336.021 453.814 336.021 454.054 335.781 454.054 336.021 454.294 336.261 454.294 336.501 454.294 336.501 454.054 336.741 454.054 336.741 453.814 336.981 453.814 336.981 453.574 337.221 453.574 337.221 453.334 337.461 453.334 337.701 453.334 337.941 453.334 338.181 453.334 338.421 453.334 338.661 453.334 338.901 453.334 339.141 453.334 339.141 453.094 339.141 452.854 339.382 452.614 339.382 452.374 339.382 452.134 339.622 452.134 339.622 451.894 339.862 451.894 340.102 451.894 340.102 451.654 340.342 451.654 340.582 451.414 340.822 451.414 340.822 451.174 341.062 451.174 341.062 450.934 341.302 450.934 341.542 450.934 341.782 451.174 342.022 451.414 342.022 451.654 342.262 451.894 342.742 451.894 342.982 451.894 342.982 452.134 343.222 452.134 343.222 452.374 343.222 452.614 343.222 452.854 343.222 453.094 343.222 453.334 343.222 453.574 343.222 453.814 342.982 453.814 342.982 454.054 342.982 454.294 342.982 454.534 342.742 454.534 342.742 454.774 342.742 455.014 342.742 455.254 342.742 455.494 342.742 455.734 342.742 455.494 342.502 455.494 342.262 455.734 342.262 455.974 342.022 455.974 341.782 455.974 341.542 455.974 341.542 456.214 341.302 456.214 341.542 457.654 341.302 457.894 341.062 457.894 340.822 457.894 340.582 458.134 340.342 458.134 340.102 458.134 340.102 458.374 339.862 458.374 339.862 458.614 340.102 458.614 340.342 458.854 340.582 458.854 340.342 458.854 340.102 459.094 339.862 459.094 339.862 459.334 340.102 459.574 340.342 459.814 340.582 459.814 340.582 460.054 340.822 460.054 341.062 460.054 341.062 460.294 341.062 460.534 341.302 460.534 341.542 460.534 341.542 460.774 341.782 460.534 342.022 460.534 342.262 460.534 342.502 460.774 342.502 461.014 342.742 461.014 342.742 461.254 342.982 461.254 343.222 461.254 343.222 461.494 343.462 461.494 343.702 461.494 343.942 461.494 344.182 461.494 344.422 461.494 344.662 461.734 344.662 461.974 344.662 462.214 344.662 462.454 344.422 462.454 344.422 462.694 344.182 462.694 343.942 462.694 343.702 462.694 343.702 462.454 343.462 462.454 343.222 462.454 342.982 462.454 342.742 462.214 342.502 462.214 342.502 462.454 342.502 462.694 342.502 462.934 342.262 462.934 342.022 462.934 342.022 462.694 341.782 462.694 341.542 462.694 341.542 462.934 341.542 463.174 341.542 463.414 341.542 463.654 341.542 463.894 341.542 464.134 341.302 464.374 341.302 464.613 341.302 464.853 341.062 464.853 341.062 464.613 340.822 464.613 340.582 464.613 340.582 464.853 340.582 465.093 340.582 465.333 340.582 465.573 340.342 465.573 340.342 465.813 340.102 465.813 340.102 466.053 339.862 466.053 339.622 466.053 339.622 465.813 339.622 465.573 339.622 465.333 339.382 465.093 339.141 464.853 338.901 464.853 338.661 464.853 338.421 464.853 338.421 465.093 338.181 465.093 337.941 465.093 337.701 465.093 337.461 465.333 337.221 465.333 337.221 465.573 336.981 465.573 336.981 465.813 336.981 467.253 336.741 467.493 336.501 467.493 336.261 467.253 336.021 467.253 335.781 467.253 335.541 467.253 335.541 467.013 335.301 467.013 335.061 467.253 334.821 467.253 334.581 467.493 334.341 467.733 334.101 467.973 333.861 467.973 333.621 467.973 333.381 467.973 333.141 467.973 332.901 468.213 332.901 468.453 332.901 468.693 332.901 468.933 333.141 468.933 333.141 469.173 333.381 469.173 333.381 469.413 333.621 469.413 333.861 469.653 334.101 469.893 334.341 470.133 334.341 470.373 334.341 470.613 334.581 470.613 334.581 470.853 334.581 471.093 334.341 471.093 334.341 471.333 334.341 471.573 334.341 471.813 334.101 471.813 334.101 472.053 334.101 472.293 333.861 472.293 333.861 472.533 333.861 472.773 334.101 472.773 334.101 473.013 334.101 473.253 334.101 473.493 334.101 473.733 334.101 473.973 334.341 474.213 334.341 474.453 334.581 474.453 334.581 474.693 334.821 474.693 335.061 474.933 335.301 474.933 335.541 474.933 335.781 474.933 336.021 474.933 336.261 474.933 336.501 474.933 336.741 474.693 336.981 474.693 336.981 474.933 337.221 474.933 337.461 474.933 337.701 475.173 337.701 475.413 337.461 475.413 337.461 475.653 337.221 475.653 337.701 476.133 338.181 477.093 338.661 477.573 338.181 478.293 337.941 478.773 337.701 479.253 337.461 480.213 337.221 480.693 336.981 481.173 336.501 481.653 336.021 481.653 334.821 481.893 333.621 481.653 332.421 481.653 331.461 482.133 330.021 482.372 328.341 481.893 324.741 480.933 322.82 480.213 322.82 479.973 320.66 479.493 318.26 479.253 316.34 479.493 314.42 480.213 313.7 480.693 313.46 480.693 312.26 480.453 310.58 480.213 309.38 480.453 309.14 480.933 309.86 481.653 310.34 482.133 309.86 482.852 309.14 483.332 307.94 483.572 306.499 484.052 305.539 484.532 305.299 485.732 305.059 486.452 304.819 486.932 304.819 487.172 304.819 487.412 304.819 487.652 304.579 487.652 304.579 487.892 304.339 487.892 304.099 487.892 303.859 488.132 303.619 488.372 303.379 488.612 303.139 488.852 302.899 489.092 302.659 489.332 302.659 489.572 302.899 489.572 302.899 489.812 303.139 489.812 303.379 489.812 303.379 490.052 303.619 490.052 303.859 490.052 304.099 490.292 304.339 490.292 304.099 490.292 303.859 490.532 303.619 490.532 303.379 490.532 303.139 490.292 302.899 490.292 302.899 490.052 302.659 490.052 302.659 489.812 302.419 489.812 302.179 489.812 301.939 490.052 301.699 490.052 301.699 490.292 301.459 490.292 301.219 490.292 301.219 490.532 300.979 490.532 300.739 490.532 300.499 490.532 300.259 490.532 300.019 490.292 299.779 490.292 299.539 490.292 299.299 490.292 299.059 490.292 299.059 490.532 298.819 490.532 298.579 490.532 298.339 490.532 298.099 490.532 297.859 490.532 297.619 490.532 297.379 490.532 297.379 490.772 297.139 490.052 296.899 489.572 296.659 489.572 296.659 489.812 296.659 490.052 296.659 490.292 296.659 490.532 296.659 490.772 296.659 491.012 296.419 491.252 296.179 491.252 296.179 491.492 295.939 491.492 295.699 491.492 295.459 491.492 295.219 491.492 294.979 491.492 294.739 491.492 294.739 491.252 294.499 491.252 294.259 491.252 294.019 491.252 293.779 491.252 293.779 491.492 293.539 491.492 293.539 491.732 293.539 491.972 293.539 492.212 293.779 492.212 293.779 492.452 294.019 492.452 294.019 492.692 294.259 492.932 294.259 493.172 294.499 493.412 294.499 493.652 294.499 493.892 294.259 494.132 294.019 494.372 293.779 494.372 293.779 494.612 293.539 494.612 293.299 494.612 293.299 494.852 293.059 495.092 293.059 495.332 292.819 495.572 292.819 495.812 292.579 495.812 292.579 496.052 292.339 496.052 292.099 496.292 291.858 496.292 291.618 496.292 291.378 496.292 291.378 496.052 291.138 496.052 290.898 496.052 290.658 496.052 290.178 495.812 289.938 495.812 289.698 495.812 289.698 495.572 287.538 495.572 287.538 495.812 287.778 495.812 287.538 496.052 287.538 496.292 287.298 496.292 287.298 496.532 287.298 496.772 287.058 496.772 287.058 497.012 286.818 497.012 286.818 497.252 286.578 497.252 286.338 497.252 286.338 497.012 285.618 497.012 285.618 497.252 285.378 497.252 285.138 497.252 284.898 497.012 284.658 497.012 284.418 497.012 284.418 496.772 284.178 496.772 283.938 496.532 283.938 496.292 283.698 496.292 283.698 496.052 283.458 496.052 283.458 495.812 283.218 495.572 283.218 495.332 283.218 495.092 282.978 494.852 282.978 494.612 282.738 494.612 282.498 494.612 282.258 494.612 282.018 494.612 281.778 494.852 281.538 494.852 281.298 494.852 281.058 494.852 280.818 494.612 280.578 494.372 280.578 494.132 280.338 494.132 280.338 493.892 280.098 493.892 279.858 493.892 279.858 493.652 279.618 493.652 279.378 493.652 279.138 493.652 278.898 493.652 278.658 493.652 278.658 493.892 278.418 493.892 278.178 493.892 278.178 493.652 277.938 493.652 277.698 493.652 277.458 493.412 277.218 493.412 277.218 493.172 276.978 493.172 276.738 493.172 276.258 493.172 275.537 493.172 275.537 492.932 275.537 492.692 275.537 492.452 275.297 492.452 275.057 492.452 275.057 492.692 275.057 492.932 274.817 492.932 274.817 493.172 274.577 493.172 274.337 493.172 274.097 493.412 273.857 493.412 273.617 493.412 273.377 493.412 273.137 493.172 273.137 492.932 272.897 492.692 272.897 492.452 272.657 492.452 272.657 492.212 272.657 491.972 272.417 491.972 272.177 492.212 272.177 492.452 272.417 492.452 272.417 492.692 272.417 492.932 272.657 493.172 272.417 493.172 272.177 493.172 271.937 493.172 271.697 493.172 271.457 493.172 271.217 493.172 270.977 493.172 270.977 492.932 270.737 492.932 270.497 492.692 270.257 492.932 270.017 492.932 269.777 493.172 269.537 493.172 269.297 493.172 269.057 493.172 268.817 493.172 268.577 493.172 268.337 493.172 268.097 493.172 268.097 493.412 267.857 493.412 267.617 493.412 267.617 493.652 267.377 493.652 267.137 493.412 266.897 493.412 266.657 493.172 266.417 493.172 266.177 493.172 265.937 493.172 265.937 493.412 265.697 493.652 265.697 493.892 265.457 493.892 265.217 494.132 264.977 494.132 264.977 493.892 264.737 493.892 264.497 493.892 264.497 493.652 264.497 493.412 264.257 493.412 264.257 493.172 264.257 492.932 264.257 492.692 264.017 492.692 264.017 492.452 264.017 492.212 264.017 491.972 263.777 491.972 263.777 491.732 263.777 491.492 263.537 491.492 263.537 491.252 263.297 491.252 263.057 491.252 262.817 491.012 262.817 490.772 262.817 490.532 262.577 490.532 262.817 490.292 263.057 490.292 263.057 490.052 263.297 489.812 263.297 489.572 263.297 489.332 263.057 489.092 263.057 488.852 263.297 488.612 263.297 488.372 263.537 488.372 263.777 487.892 264.257 487.412 264.497 487.412 264.497 487.172 264.737 486.932 264.737 486.692 264.497 486.452 264.497 486.212 264.497 485.972 264.497 485.732 264.497 485.492 264.737 485.252 264.977 485.252 265.217 485.012 265.697 485.012 265.937 484.772 265.697 484.532 265.697 484.292 265.697 484.532 265.457 484.532 265.217 484.772 264.977 484.772 264.737 484.772 264.497 485.012 264.257 485.492 264.257 485.732 264.497 486.452 264.257 486.692 264.017 486.692 263.777 486.932 263.777 487.412 263.537 487.652 263.537 487.892 263.297 487.892 263.297 488.132 263.057 488.132 262.817 488.372 262.817 488.612 262.577 488.372 262.337 488.132 262.097 488.132 261.857 488.132 261.857 488.372 262.097 488.612 262.097 488.852 262.577 489.092 262.817 489.332 262.817 489.812 262.577 489.812 262.577 490.052 262.337 490.292 262.337 490.532 262.577 491.252 262.817 491.492 263.057 491.492 263.057 491.732 263.297 491.972 263.297 492.212 263.297 492.452 263.537 492.452 263.537 492.692 263.537 492.932 263.537 493.172 263.537 493.412 263.777 493.412 263.777 493.652 263.537 493.652 263.297 493.412 263.057 493.412 262.817 493.412 262.817 493.652 262.577 493.652 262.337 493.652 262.097 493.892 261.857 493.892 261.617 493.892 261.377 493.892 261.137 493.892 260.897 493.892 260.897 493.652 260.657 493.412 260.657 493.172 260.417 493.172 260.176 493.412 260.176 493.652 260.176 493.892 260.176 494.132 260.176 494.372 259.936 494.372 259.936 494.612 259.696 494.612 259.456 494.612 259.216 494.372 258.976 494.372 258.736 494.372 258.496 494.612 258.256 494.612 258.016 494.612 257.776 494.612 257.536 494.612 257.536 494.372 257.296 494.372 257.056 494.372 256.816 494.372 256.816 494.612 256.576 494.612 256.576 494.852 256.576 495.092 256.576 495.332 256.816 495.332 256.816 495.572 257.056 495.812 257.056 496.052 256.816 496.052 256.576 496.052 256.336 496.052 256.336 496.532 256.096 496.532 255.856 496.532 255.616 496.532 255.376 496.532 255.376 496.292 255.136 496.292 254.896 496.292 254.656 496.292 254.416 496.292 254.176 496.292 253.936 496.292 253.696 496.532 253.456 496.532 253.456 496.772 253.216 496.772 253.216 497.012 252.976 497.012 252.976 497.252 252.976 497.492 252.736 497.492 252.736 497.732 252.736 497.972 252.736 498.212 252.736 498.452 252.736 498.692 252.736 498.932 252.736 499.172 252.496 499.411 252.496 499.651 252.256 499.891 252.016 500.131 252.016 500.371 251.776 500.371 251.776 500.611 251.536 500.611 251.296 500.851 251.296 501.091 251.296 501.331 251.296 501.571 251.296 501.811 251.056 501.811 251.056 502.051 250.816 502.291 250.816 502.531 250.576 502.531 249.856 502.531 249.616 502.531 249.616 502.771 249.376 502.771 249.376 503.011 249.376 503.251 249.376 503.491 249.376 503.731 249.376 503.971 249.136 503.971 249.136 504.211 249.136 504.451 249.136 504.691 248.896 504.691 248.896 504.931 248.896 505.171 248.656 505.171 248.656 505.411 248.656 505.651 248.416 505.651 248.416 505.891 248.416 506.131 248.416 506.371 248.656 506.611 248.656 506.851 248.896 506.851 248.896 507.091 249.136 507.331 249.376 507.571 249.616 507.811 249.856 508.051 249.856 508.291 249.856 508.531 249.856 508.771 249.856 509.011 249.856 509.251 249.856 509.491 249.856 509.731 249.856 509.971 249.856 510.211 249.616 510.211 249.616 510.451 249.616 510.691 249.616 510.931 249.616 511.171 249.616 511.411 249.616 511.651 249.616 511.891 249.616 512.131 249.616 512.371 249.616 512.611 249.616 512.851 249.616 513.091 249.856 513.331 250.096 513.331 250.336 513.331 250.576 513.331 250.816 513.331 251.056 513.331 251.296 513.331 251.536 513.331 251.776 513.091 252.256 512.611 252.736 512.611 252.976 512.371 253.216 512.131 253.456 511.891 253.696 511.891 253.696 511.651 253.936 511.651 254.176 511.651 254.416 511.651 254.656 511.651 254.896 511.651 255.136 511.651 255.376 511.651 255.616 511.651 255.856 511.651 256.096 511.651 256.336 511.651 256.576 511.651 256.816 511.651 256.816 511.411 257.056 511.411 257.296 511.411 257.536 511.411 257.536 511.171 257.776 511.171 258.016 511.171 258.256 511.411 258.496 511.411 258.496 511.651 258.736 511.651 258.736 511.891 258.736 512.131 258.976 512.131 258.976 512.371 258.976 512.611 258.976 512.851 258.736 513.331 258.496 513.571 258.496 513.811 258.256 513.811 258.256 514.051 258.016 514.051 257.776 514.051 257.536 514.051 257.536 514.291 257.296 514.291 257.296 514.531 257.056 514.531 257.056 514.291 257.056 514.051 257.056 513.811 257.056 513.571 256.816 513.331 256.816 513.571 256.576 513.571 256.576 513.811 256.336 513.811 256.336 514.051 256.336 514.291 256.336 514.531 256.096 514.771 256.096 515.011 255.856 515.251 255.616 515.491 255.376 515.731 255.136 515.971 254.896 515.971 254.656 515.971 254.416 515.971 254.416 515.731 254.176 515.731 253.936 515.731 253.696 515.731 253.456 515.731 253.216 515.731 252.976 515.731 252.976 515.971 252.736 515.971 252.496 516.211 252.496 516.451 252.736 516.691 252.736 516.931 252.976 516.931 252.976 517.171 253.216 517.171 253.216 517.41 253.456 517.41 253.216 517.41 253.216 517.65 252.976 517.65 252.976 517.41 252.736 517.41 252.496 517.41 252.256 517.41 252.016 517.65 251.776 517.65 251.776 517.41 251.776 517.171 252.016 517.171 252.016 516.931 252.016 516.691 251.776 516.691 251.776 516.451 251.536 516.451 251.536 516.211 251.536 515.971 251.536 515.731 251.296 515.731 251.056 515.731 250.816 515.731 250.816 515.971 250.576 515.971 250.336 516.211 250.096 516.211 250.096 516.451 250.096 517.41 249.856 517.41 249.616 517.41 249.376 517.41 249.136 517.41 248.896 517.41 248.656 517.41 248.656 517.171 248.416 517.171 248.176 517.171 247.936 517.171 247.696 517.171 247.456 516.931 247.696 516.931 247.696 516.691 247.696 516.451 247.696 516.211 247.456 516.211 247.216 516.211 246.976 516.211 246.736 516.211 246.496 516.211 246.256 516.211 246.256 515.971 246.256 515.731 246.256 515.491 246.256 515.251 246.016 515.251 246.016 515.011 245.776 515.011 245.536 515.011 245.536 515.251 245.296 515.251 245.056 515.251 245.056 515.011 244.816 515.011 244.816 514.771 244.575 514.771 244.575 514.531 244.335 514.291 244.335 514.051 244.095 514.051 244.095 513.811 243.855 513.811 243.855 513.571 243.615 513.571 243.375 513.571 243.135 513.571 243.135 513.811 243.135 514.051 243.375 514.051 243.375 514.291 243.615 514.291 243.615 514.531 243.855 514.771 244.095 515.011 244.095 515.251 244.335 515.251 244.575 515.491 244.575 515.731 244.816 515.731 244.816 515.971 245.056 515.971 245.056 516.211 245.056 516.451 245.296 516.691 245.056 516.931 244.816 516.931 244.575 516.931 244.575 516.691 244.575 516.451 244.335 516.451 244.095 516.451 244.095 516.691 243.855 516.931 243.615 516.931 243.615 517.171 243.615 516.931 243.615 516.691 243.615 516.451 243.615 516.211 243.615 515.971 243.375 515.731 243.375 515.491 243.135 515.491 242.895 515.491 242.655 515.491 242.415 515.491 242.175 515.491 242.175 515.251 241.935 515.251 241.935 515.011 241.935 514.771 241.935 514.531 241.695 514.531 241.455 514.771 241.455 515.011 241.455 515.251 241.455 515.491 241.455 515.731 241.695 515.731 241.695 515.971 241.695 516.211 241.695 516.451 241.935 516.451 241.935 516.691 241.695 516.691 241.455 516.691 241.215 516.691 241.215 516.931 240.975 516.931 240.735 516.931 240.495 516.931 240.495 516.691 240.255 516.691 240.255 516.451 240.255 516.211 240.255 515.971 240.255 515.731 240.255 515.491 240.495 515.491 240.495 515.251 240.735 515.011 240.975 514.771 240.975 514.531 240.975 514.291 240.975 514.051 240.975 513.811 240.735 513.811 240.735 513.571 240.495 513.571 240.255 513.571 240.255 513.811 240.255 514.051 240.255 514.291 240.255 514.531 240.255 514.771 240.255 515.011 240.015 515.011 240.015 515.251 239.775 515.491 239.535 515.731 239.295 515.491 239.055 515.491 238.815 515.731 238.575 515.731 238.335 515.731 238.095 515.971 237.855 515.971 237.855 515.731 238.095 515.491 238.335 515.251 238.575 515.011 238.815 515.011 238.815 514.771 239.055 514.531 239.055 514.291 239.055 514.051 239.055 513.811 238.815 513.571 238.815 513.331 238.575 513.331 238.575 513.091 238.335 513.091 238.335 512.851 238.095 512.611 238.095 512.371 238.095 511.891 237.855 511.411 237.855 511.171 238.095 510.931 238.095 510.691 237.855 510.691 237.615 510.451 237.375 510.211 237.375 509.971 237.615 509.971 237.855 509.971 237.855 510.211 238.095 510.211 238.335 510.211 238.575 510.211 238.815 510.211 238.815 509.971 238.575 509.731 239.055 509.731 239.055 509.251 239.295 509.251 239.295 509.011 239.535 509.011 239.535 508.771 239.535 508.531 239.775 508.291 239.775 508.051 239.775 507.811 240.015 507.811 240.015 507.571 240.255 507.571 240.255 507.331 240.495 507.331 240.495 507.091 240.735 507.091 240.735 506.851 240.495 506.851 240.255 506.851 240.015 507.091 239.775 507.331 239.775 507.571 239.535 507.571 239.535 507.811 239.295 507.811 239.295 508.051 239.055 508.051 239.055 508.291 238.815 508.291 238.815 508.531 238.575 508.531 238.335 508.771 238.095 508.771 237.855 508.771 237.615 508.771 237.375 508.771 237.135 508.771 236.655 508.531 236.175 508.291 235.935 508.051 235.695 508.051 235.455 508.051 235.215 507.811 234.975 507.811 234.735 507.811 234.495 507.811 234.255 507.811 234.015 508.051 233.775 508.051 233.535 508.051 233.535 507.331 233.295 507.331 233.295 507.571 233.055 507.571 233.055 507.811 232.815 507.811 232.575 507.571 232.335 507.571 232.335 507.331 232.335 507.091 232.335 506.851 232.575 506.611 232.815 506.851 233.055 507.091 233.055 506.851 233.295 506.851 233.295 506.611 233.055 506.371 233.055 506.131 233.055 505.891 232.815 505.891 232.815 505.651 232.815 505.411 232.575 505.651 232.335 505.651 232.095 505.411 231.855 505.651 231.855 505.891 231.615 506.131 231.855 506.371 231.855 506.611 231.855 506.851 231.615 507.091 231.855 507.091 231.855 507.331 231.855 507.571 232.095 507.811 232.095 508.051 231.855 508.051 231.855 508.291 231.615 508.291 231.615 508.531 231.375 508.531 231.135 508.531 231.135 508.291 230.895 508.291 230.895 508.051 230.655 507.811 230.655 507.571 230.415 507.571 230.415 507.331 230.175 507.331 229.695 507.331 228.734 507.571 228.494 507.331 228.254 507.331 228.014 507.331 227.774 507.331 227.774 507.091 227.774 506.851 227.774 506.611 227.774 506.371 228.014 506.371 228.254 506.131 228.254 505.891 228.014 505.891 227.774 505.891 227.534 505.891 227.534 505.651 227.294 505.651 227.294 505.411 227.054 505.171 227.054 504.931 227.294 504.691 227.294 504.451 227.294 504.211 227.054 503.971 226.814 504.211 226.574 504.211 226.334 504.211 226.094 504.211 226.094 503.971 226.094 503.731 226.094 503.491 226.094 503.251 225.854 503.251 225.614 503.251 225.374 503.251 225.374 503.491 225.134 503.731 225.134 503.971 224.894 503.971 224.654 504.211 224.414 504.211 224.414 504.451 224.174 504.451 223.934 504.451 223.694 504.691 223.454 504.691 223.214 504.691 222.974 504.691 222.974 504.451 222.974 504.211 223.214 504.211 223.214 503.971 223.214 503.731 223.454 503.491 223.454 503.251 223.454 503.011 223.454 502.771 223.694 502.531 223.934 502.531 223.934 502.291 224.174 502.291 224.414 502.291 224.414 502.051 224.654 501.811 224.654 501.571 224.894 501.571 224.894 501.331 224.894 501.091 225.134 501.091 225.134 500.851 225.374 500.851 225.374 501.091 226.574 501.331 226.574 501.091 226.814 500.851 227.054 500.611 227.294 500.611 227.294 500.371 227.054 499.891 227.054 499.651 227.054 499.172 227.294 498.932 228.254 498.452 228.494 498.212 228.734 497.492 228.975 497.012 229.215 497.012 229.455 497.012 229.695 497.012 230.175 497.252 230.415 497.492 230.415 497.972 230.415 498.452 230.415 499.411 230.415 500.131 230.415 500.371 230.655 500.371 230.895 500.371 230.895 500.131 230.895 499.651 231.135 499.651 230.895 499.651 231.135 499.411 231.135 499.172 231.375 499.172 231.375 498.932 231.615 498.932 231.855 498.692 232.095 498.692 232.335 498.452 232.575 498.452 232.575 498.212 232.815 498.212 232.815 497.972 233.055 497.972 233.055 497.732 233.295 497.732 233.295 497.492 233.535 497.252 233.775 497.012 233.775 496.772 233.775 496.532 234.015 496.532 234.015 496.292 234.255 496.052 234.255 495.812 234.495 495.572 234.495 495.332 234.495 495.092 234.735 495.092 234.735 494.852 234.735 494.612 234.975 494.612 234.975 494.372 235.215 494.372 235.215 494.132 235.455 494.132 235.455 493.892 235.695 493.892 235.695 493.652 235.935 493.652 236.175 493.412 236.415 493.412 236.655 493.412 236.895 493.412 237.135 493.412 237.375 493.412 237.375 493.652 237.375 493.892 237.375 494.132 237.375 494.372 237.375 494.612 237.135 494.852 237.135 495.092 237.375 495.092 237.615 494.852 237.615 494.612 237.855 494.612 237.855 494.372 237.855 494.132 237.855 493.892 237.855 493.652 237.855 493.412 237.855 493.172 237.615 492.932 237.855 492.692 237.855 492.452 237.855 492.212 238.095 492.212 238.095 491.972 238.335 491.972 238.575 491.732 238.815 491.732 238.815 491.972 239.055 492.212 239.055 492.452 239.055 492.692 239.055 492.932 239.055 493.172 239.055 493.412 239.295 493.652 239.295 493.892 239.535 494.132 239.775 494.132 239.775 493.892 239.535 493.652 239.535 493.412 239.295 493.172 239.295 492.932 239.295 491.732 239.055 491.252 238.815 491.252 238.335 491.252 237.855 491.732 236.895 492.452 236.655 492.692 235.935 492.692 235.455 493.172 234.975 493.412 234.735 492.932 234.495 492.452 234.255 492.212 234.015 492.212 233.775 491.252 234.255 490.532 234.735 490.292 235.215 490.292 235.455 490.532 235.935 491.012 236.175 491.252 236.175 491.012 235.935 490.532 235.695 489.812 235.455 489.572 235.455 489.092 235.455 488.372 235.455 488.132 235.695 487.892 235.935 487.892 236.175 488.372 236.415 488.612 236.655 489.092 237.135 489.572 237.615 489.812 237.855 490.052 238.575 490.052 238.815 490.052 238.815 489.812 238.335 489.572 237.615 489.572 237.375 489.332 237.135 489.092 237.135 488.852 237.135 488.372 237.135 487.892 236.895 486.932 236.895 486.692 237.135 486.452 237.375 485.972 237.615 485.732 237.375 485.732 237.135 485.732 236.895 485.732 236.895 485.492 236.895 485.252 236.415 485.492 236.175 485.492 235.935 485.252 235.695 485.012 235.455 485.012 234.975 485.012 235.215 484.772 235.455 484.772 235.695 484.772 236.175 484.532 236.415 484.292 236.655 484.052 236.895 483.812 237.135 483.812 237.375 484.052 237.375 484.292 237.375 484.532 237.375 484.772 237.855 485.012 238.335 485.252 238.815 485.492 239.295 485.732 239.775 485.732 240.495 485.732 240.735 485.732 240.975 485.972 241.215 485.732 241.215 485.492 240.735 485.012 240.015 484.292 239.775 483.812 239.295 483.812 238.815 483.572 238.335 483.332 238.095 483.092 238.095 482.612 238.575 482.372 239.295 481.893 240.015 481.413 240.495 481.173 240.975 480.693 241.455 480.453 242.655 480.213 243.135 480.213 243.615 480.213 244.095 480.453 244.335 481.173 244.816 481.893 245.056 482.372 245.536 482.133 245.536 481.893 245.056 481.413 244.816 480.453 244.816 480.213 244.575 479.493 244.335 479.013 245.056 477.813 245.296 477.813 245.296 477.573 245.776 477.093 246.016 476.613 246.976 476.133 247.216 476.133 247.696 476.373 247.936 476.133 248.176 475.893 248.416 475.653 248.896 475.653 249.136 475.653 249.376 475.893 249.616 475.893 249.856 475.893 250.096 475.653 250.096 475.173 250.336 474.933 250.576 474.693 251.056 474.693 251.296 474.933 251.536 475.413 251.776 475.653 252.496 475.653 253.216 475.413 253.216 475.173 253.456 475.413 253.696 475.413 253.696 475.173 253.936 474.693 254.416 474.453 255.376 474.213 255.616 474.213 255.856 473.973 256.336 473.253 256.576 472.773 257.056 473.013 257.296 473.253 257.536 472.533 257.776 472.053 258.016 472.053 258.256 471.573 258.496 471.573 258.736 471.333 259.216 471.333 259.456 471.333 259.696 471.333 259.936 471.333 260.176 471.333 260.417 471.333 260.417 471.093 260.417 471.333 260.657 471.093 260.657 470.853 260.417 470.613 260.657 470.613 260.897 470.853 261.377 470.373 261.617 470.373 261.377 470.613 261.377 470.853 261.617 470.853 261.857 470.853 262.817 470.373 262.817 470.133 263.777 469.893 264.017 469.653 264.497 469.413 264.977 469.173 265.217 469.173 265.697 469.173 266.177 469.173 266.657 469.173 267.377 469.413 267.857 469.653 268.097 469.413 268.337 469.173 268.337 468.933 268.577 468.693 268.337 468.453 268.097 468.213 268.337 467.973 268.817 467.973 269.297 468.453 269.777 468.693 270.257 468.933 270.977 468.933 271.697 468.933 271.457 468.453 270.977 468.693 270.737 468.693 270.497 468.693 270.257 468.453 270.257 468.213 270.257 467.733 270.497 467.493 270.737 467.253 271.217 467.013 271.697 466.773 272.177 466.773 272.177 466.533 272.177 466.293 272.897 466.293 273.137 466.053 273.377 466.053 273.617 465.813 273.617 465.573 273.857 465.573 273.857 465.093 274.337 465.333 274.097 465.813 273.857 466.293 273.617 466.533 273.137 467.253 272.897 467.493 272.897 467.973 272.657 468.213 272.897 468.693 272.897 469.413 272.897 469.893 272.657 470.613 272.657 471.093 272.897 471.333 273.137 471.333 273.137 471.093 273.137 470.853 273.377 470.853 273.377 470.613 273.377 470.373 273.377 470.133 273.377 469.893 273.137 469.653 273.137 469.413 273.377 469.173 273.377 468.933 273.377 468.693 273.377 468.453 273.377 468.213 273.377 467.973 273.617 467.733 273.617 467.973 273.857 467.973 273.857 468.213 274.097 468.213 274.337 468.213 274.337 467.973 274.337 467.733 274.337 467.493 274.337 467.253 274.577 467.013 274.577 466.773 274.577 466.533 274.817 466.533 274.817 466.293 275.057 466.053 275.057 465.813 275.297 465.813 275.297 465.573 275.297 465.333 275.537 465.333 275.537 465.093 275.777 465.093 275.777 464.853 276.017 464.853 276.258 464.613 276.497 464.613 276.497 464.853 276.738 464.853 276.978 465.093 276.978 465.333 277.218 465.573 277.218 465.813 277.458 466.053 277.698 465.813 277.698 465.573 277.938 465.573 277.938 465.333 277.938 465.093 277.938 464.853 277.938 464.613 277.938 464.374 277.938 464.134 277.938 463.894 278.178 463.894 278.418 463.894 280.578 463.894 280.578 463.654 280.818 463.654 280.818 463.414 281.058 463.414 281.058 463.174 281.298 463.174 281.538 463.174 281.778 463.174 282.018 463.174 282.018 463.414 282.258 463.414 282.498 463.414 282.738 463.414 282.978 463.414 283.218 463.174 283.458 463.174 283.698 463.174 283.698 462.934 283.938 462.694 284.178 462.694 284.418 462.694 284.898 462.934 285.138 463.174 285.378 463.414 285.618 463.654 286.098 463.654 286.098 463.414 285.858 463.414 285.858 463.174 285.858 462.934 286.338 462.454 286.578 462.694 286.818 462.694 287.058 462.694 287.298 462.694 287.538 462.694 287.778 462.694 288.018 462.454 288.258 462.454 288.498 462.454 288.738 462.454 288.978 462.454 289.218 462.454 289.218 462.694 289.458 462.694 289.698 462.694 289.938 462.934 290.178 462.694 290.418 462.694 290.898 462.454 291.138 462.214 291.378 462.214 291.858 461.974 292.099 461.734 292.339 461.734 292.579 461.494 292.819 461.254 293.059 461.254 293.299 461.254 293.299 461.014 293.299 460.774 293.299 460.534 293.539 460.534 294.259 460.294 294.259 459.574 294.019 458.854 294.019 458.614 293.779 458.374 293.779 458.134 293.539 458.134 293.539 457.894 293.539 457.654 293.299 457.654 293.299 457.414 293.299 457.174 293.299 456.934 293.299 456.694 293.299 456.454 293.539 456.454 293.539 456.214 293.779 456.454 293.779 456.694 293.779 456.934 293.779 457.174 293.779 457.414 293.779 457.654 294.019 457.654 294.019 457.894 294.259 457.894 294.259 458.134 294.499 458.134 294.499 458.374 294.739 459.094 294.739 459.574 294.979 460.294 295.219 460.054 295.459 460.054 295.699 460.054 295.699 459.814 295.939 459.814 296.179 459.814 296.419 459.814 296.659 459.814 296.659 459.574 296.899 459.574 297.139 459.574 297.379 459.574 297.619 459.574 297.859 459.574 298.099 459.574 298.339 459.574 298.579 459.574 298.819 459.574 299.059 459.574 299.299 459.574 299.539 459.574 300.019 459.814 300.259 460.294 300.499 460.294 300.739 460.294 300.739 460.054 300.979 460.054 300.979 459.814 300.979 459.574 300.979 459.334 301.219 459.334 301.219 459.094 301.459 459.094 301.699 459.094 301.939 459.094 302.179 459.094 302.419 459.094 302.659 459.094 302.899 459.094 303.859 459.574 304.099 459.574 304.339 459.574 304.579 459.574 304.579 459.334 304.579 459.094 304.819 459.094 304.819 458.854 305.059 458.614 305.779 458.854 306.019 458.854 306.979 459.094 307.94 459.094 308.9 458.854 309.14 458.614 309.38 458.614 309.38 458.854 309.62 458.854 309.62 459.094 309.86 459.094 309.86 459.334 309.86 459.574 310.1 459.574 310.34 459.574 310.58 459.574 310.82 459.574 310.82 459.334 310.82 459.094 310.82 458.854 310.82 458.614 310.82 458.374 311.06 458.134 311.3 458.134 311.3 458.374 311.54 458.374 311.78 458.134 312.02 458.134 312.26 458.134 312.26 457.894 312.5 457.894 312.74 457.894 312.98 457.894 313.22 457.894 313.46 457.894 313.46 458.134 313.7 458.374 313.94 458.374 314.18 458.374 314.18 458.134 314.18 458.374 314.42 458.374 314.18 458.134 314.42 458.134 314.66 458.134 314.9 458.134 315.14 458.374 315.38 458.374 315.38 458.134 315.62 458.134 315.62 457.894 315.62 457.654 315.62 457.414 315.86 457.414 316.1 457.414 316.34 457.414 316.58 457.414 316.82 457.414 317.06 457.414 317.3 457.414 317.54 457.414 317.78 457.414 318.02 457.414 318.02 457.654 318.02 457.894 318.26 457.894 318.26 457.654 318.26 457.414 318.26 456.934 318.5 456.934 318.5 456.694 318.74 456.694 318.98 456.694 319.22 456.694 319.46 456.694 319.7 456.694 319.94 456.694 320.18 456.694 320.42 456.454 320.42 456.694 320.66 456.694 320.9 456.694 321.14 456.934 321.38 456.934 321.38 457.174 321.38 457.414 321.62 457.414 321.62 457.654 321.86 457.894 322.1 457.894 322.1 457.654 322.1 457.414 322.1 457.174 322.34 457.174 322.34 456.934 322.58 456.934 322.58 456.694 322.82 456.694 322.82 456.454 322.82 456.214 323.06 456.214 323.3 456.214 323.3 455.974 323.54 455.974 323.781 455.974 324.021 455.974"/>
</svg>
