<svg id="Apennines" xmlns="http://www.w3.org/2000/svg" width="612" height="792" viewBox="0 0 612 792">
    <defs>
        <style>.cls-1{fill:#fff;fill-rule:evenodd;}</style>
    </defs>
    <path class="cls-1"
          d="M350.4222,566.8477l.96,1.44.72.48,1.2.96.48,1.2-.24,1.2-.48.48-.48,1.68.24.48.72,2.16.24.48h.24l.24.24h.48l1.2.24.48.72v.48l-.24.72-1.2.72-.96.72-.48,1.2v1.68l.24,1.68-.48.72v-.24l-.96-1.2-.96-1.92-.72-2.16-.48-2.16-.96-.72-1.2-1.2-.72-1.2-.48-1.2.48-.96-.72-1.68-.48-.96-.24-.96v-.96l-.24-.72-.96-.24h-1.92l-.48-.72-.24-.72.72-1.2,1.44-.24.48-.24,1.2-.96h.72l.96.48,1.68,1.2Zm-9.3606.96-.24.72h-.48l-.72-.48h-1.2l-.72-.48-.24-.48-.24-.72.96-.48h.96l1.2.96Zm3.84,7.2h-.24l-1.2-.72v-1.2l-.96-1.92.48-.24h.48l.96.96.96,1.44v.96Zm16.8011,19.1989-1.68.24-1.2-.48-1.44-1.2-.48-2.88-.24-1.44.24-1.44.96-.96,1.2-.24,1.2.24,1.2,1.44,1.44,2.4.24,2.16-.48,1.2Zm-7.9205,15.8391h-.96l-.48-.24-.24-.48-.24-.48v-.48l.24-.48.24-.24.24-.48.72-.72.48-.72.48-.24.24-.48.24-.24.24-.48.24-.48.24-.24.24-.48v-.48l.24-.48.24-.48.24-.24.24-.72.24-.72.24-.48v-.24l.24-.48.24-.48.24-.24.48-.24.24.24h.24l.24.48.24.48v1.44l-.24.48-.24.48-.24.48-.24.48-.24.48-.48.48-.24.24-.24.48-.48.24-.24.48-.24.72-.24.48-.24.48-.24.24v.48l-.24.48v.48l-.24.48-.24.48-.24.24-.24.48Zm-6.96.72-.24.48-.24.24-.24.48-.24.48-.72.24h-.96l-.48.24-.24.48v.48l-.24.48.24.48v.48l-.24.48-.24.48-.48.24-.24.24-.48-.24-.48-.24-.48-.24-.48-.24-.24-.24-.48-.24h-.48l-.48-.24h-.48l-.48.24h-.48l-.48.48-.24.24-.48.24-.24.24-.48.48-.24.48-.24.24-.24.48v1.44l.24.48v.96l-.48.24-.48-.24-.24-.24-.24-.48-.24-.48v-1.92l-.24-.48-.24-.48h-.48l-.48-.24-.48.24h-.48l-.48.48h-1.2l-.48-.24h-.96l-.48-.24h-.48l-.48-.24-.24-.48.24-.48.48-.24.48-.24h.48l.48-.24.72-.24.24-.96.24-.24.48-.24h1.44l.48.24h2.88l.48-.48h1.44l.48-.24h.48l.24-.24.48-.48.48-.24.24-.24.48-.24.48-.24h1.92l.48.24.48-.24.48-.24.48-.24h.24l.48-.24.48-.24.48-.24h.48l.48-.24.48-.24h.48l-.24.72Z"/>
    <path class="cls-1"
          d="M271.6972,507.0911h.96l.48-.24h.48l.48.24.48.24.48.24.48.24.24.24.48.24.24.24.48.48.24.24v.48l-.24.48.24.48.48.24h1.92l.48.24h.48l.24.48.48.24.48.24.24.24.48.24.48.24.48.24.24.24.48.24h.48l.48.24h.48l.48.24.48.24.24.24.48.48v.24l.24.72-.24.24v.48l-.48.48h-1.68l-.48-.24-.48-.24-.24-.48-.48-.24-.24-.24-.48-.24-.48-.24-.48-.24-.24-.24-.48-.24-.48-.24-.24-.24-.48-.24-.48-.48-.24-.24-.48-.24-.48-.24h-.96l-.24.24v1.44h-.48l-.48-.24-.24-.24-.48-.48-.48-.24-.24-.24-.48-.24h-.48l-.48-.24-.48-.24-.48-.24h-.48l-.24-.24-.48-.24-.48-.24-.24-.24-.48-.48-.24-.24-.24-.48-.48-.24v-.48l-.24-.48v-.96l.48-.48.24-.24h1.92ZM296.1788,517.41l.24.24.48.24.48.24.24.24.48.24.48.48.24.24.48.24.48.24.24.24.24.24.24.48.24.48v.96l.24.48.24.48v.48l.24.24-.24.72h-.48l-.48-.24-.48-.24-.24-.24-.24-.48-.48-.24-.24-.48-.24-.24-.48-.48-.24-.24-.24-.48-.24-.24-.48-.48-.24-.24-.24-.48-.48-.24-.24-.48-.48-.24-.24-.24-.48-.48-.24-.24h-.48l-.48-.24h-2.4l-.48.24h-.48l-.48-.24-.24-.48.24-.48v-.48l.48-.48.24-.24.48-.24h1.92l.48.24.24.24.48.24.48.24.48.24.24.24.48.24.48.24ZM308.9,527.25h-1.2l-.48-.24-.48-.24h-.48l-.48-.24-.72-.48-.24-.48-.24-.48v-.48l.24-.48h1.44l.96.72.48.24.48.24.24.24.48.24.48.24v.72Zm2.88,5.28h-.48l-.72-.24-.48-.24-.24-.48v-1.44l.24-.48.48-.24h.48l.48.24.24.24.48.48v.24l.24.48-.24.48-.24.48Zm8.88,5.52v.48l-.48.48-.24.24v.48l.24.48.24.24.48.48.24.24.48.24.48.24.24.48.24.24.48.48v.48l.24.48-.24.24-.24.48h-1.44l-.48-.48-.24-.24-.48-.24-.48-.24h-.48l-.24.48v.48l.24.24.24.24.48.48.24.24.48.24.24.48.48.24.24.24.48.48.24.24.48.24.48.24.24.24h.48l.24-.24-.24-.48v-.48l.24-.48.24-.24.48-.24.48.24h.48l.48-.24.48-.24h.96l.24.24.48.48.24.48.72.24.48.24.48.24.48.24.24.24.24.48.24.48v.96l-.24.48-.24.24-.48.48-.24.48v.48l.24.48.24.24.24.48v1.44l.24.48.24.24.24.48.48.24.24.24.48.48.24.24.24.48.24.24.24.48.24.48-.24.48-.24.48h-.48l-.48-.24-.48-.24-.24-.48-.24-.24-.48-.24-.48-.24h-.48l-.48-.24-.48-.24-.24-.24-.24-.24v-1.44l-.24-.48-.48-.24h-.48l-.48.24-.24.48-.48.24-.24.24h-1.44l-.48-.24-.24-.48.24-.72-.24-.48-.48-.24-.24-.48-.48-.24-.24-.48-.48-.24H320.9l-.24.24-.48.24-.48.24h-.48l-.48-.24-.48-.24-.24-.24-.48-.24-.48-.24-.48-.48-.24-.24-.48-.24-.24-.24-.48-.24-.24-.48-.24-.24-.24-.48v-.96l.24-.48.24-.24.48-.48.24-.24.24-.48.24-.48-.24-.48-.24-.24-.24-.48-.24-.48-.24-.24v-.96l.24-.48.24-.48.24-.48v-.48l.24-.24.48-.48v-.48l.24-.24.24-.48-.24-.48-.24-.48-.24-.24h-.72l-.24.24-.48.48-.24.24-.24.48-.24.48-.24.24-.24.48-.24.48-.48.24h-.48l-.48-.24-.24-.24-.24-.48v-1.92l.24-.48.24-.24.24-.48.24-.24.48-.48.24-.24.24-.48.24-.48.24-.24.48-.96.24-.48.24-.24.48-.24.48.24.24.24.48.24.24.48.24.48v.48l.24.24.24.48.48.24.48.24.48.24h.96l.24.24.48.24Zm-9.6006-.72-.24.24-.72-.48-.24-.24-.24-.48v-1.2l.24-.48.48-.48.48.24.48.24.24.24v1.44l-.24.48Z"/>
</svg>
