<svg id="Austria" xmlns="http://www.w3.org/2000/svg" width="612" height="792" viewBox="0 0 612 792">
    <defs>
        <style>.cls-1{fill:#fff;fill-rule:evenodd;}</style>
    </defs>
    <polygon class="cls-1"
             points="283.458 473.493 283.698 472.533 282.978 471.813 282.498 471.573 282.018 471.813 281.778 472.293 281.778 472.533 280.818 473.493 280.098 473.733 279.858 473.973 279.618 473.973 278.898 473.733 277.698 473.013 276.978 472.533 276.978 472.053 277.218 471.573 276.978 471.093 275.297 470.853 274.337 470.613 274.097 470.613 274.097 470.373 274.337 470.133 274.337 469.413 274.337 469.173 273.617 467.733 273.377 467.253 273.377 467.013 274.337 465.813 274.577 465.813 274.817 465.333 274.577 464.374 274.097 464.134 273.617 463.654 273.857 463.174 274.097 463.174 274.577 463.174 275.057 463.174 275.537 463.174 275.777 462.694 276.017 462.214 276.258 462.214 277.938 463.174 278.898 463.894 280.818 465.813 280.578 466.533 280.098 467.253 280.818 467.253 281.298 467.013 282.018 466.773 282.978 465.333 283.458 464.613 283.218 463.894 282.978 463.174 282.978 462.454 283.458 462.454 284.418 463.174 285.618 462.934 288.018 463.414 288.738 465.333 288.978 465.333 289.218 465.333 290.178 465.333 292.099 464.853 293.779 463.414 294.259 463.414 294.739 463.414 294.979 463.174 296.179 462.214 298.579 461.734 299.539 461.494 300.019 461.494 300.739 461.734 300.979 461.734 301.699 461.734 301.699 461.254 301.699 461.014 304.339 460.774 304.819 461.254 305.539 461.014 305.779 460.534 306.499 460.294 307.219 460.294 308.18 461.254 307.94 461.494 307.94 461.974 307.94 462.214 309.62 463.414 310.34 463.654 310.58 463.174 311.06 460.774 310.82 460.054 310.58 459.814 310.1 459.574 309.86 459.814 309.14 459.574 309.38 458.614 309.62 458.374 309.86 457.654 309.38 456.694 308.9 455.974 308.42 455.494 308.18 455.254 308.18 454.774 307.699 454.534 307.219 454.054 307.219 453.574 308.42 452.134 309.86 451.174 311.3 450.694 312.26 450.454 312.5 450.454 312.74 450.214 312.98 449.974 313.7 449.494 313.94 449.014 313.94 448.294 314.18 447.094 313.94 446.375 314.66 445.895 315.62 446.135 316.1 446.375 316.34 446.615 317.06 446.855 317.78 445.895 318.02 444.935 317.78 443.495 317.78 442.775 318.02 442.775 318.5 443.015 319.7 443.735 320.18 444.215 321.62 445.415 322.58 445.415 323.781 445.415 324.261 444.935 324.981 444.695 325.941 444.695 326.421 444.935 326.901 445.175 327.141 445.175 327.141 444.935 327.141 444.215 327.141 443.495 328.101 442.055 328.341 442.055 328.581 442.055 329.541 441.815 329.541 439.415 329.541 438.935 329.541 438.455 330.021 438.215 330.261 438.215 331.221 438.455 332.661 438.455 333.381 438.455 333.621 438.695 334.341 438.935 335.061 439.415 335.301 439.415 335.541 439.655 335.781 439.655 336.741 440.135 337.461 440.135 338.421 440.135 339.862 440.855 340.342 441.095 340.822 441.335 341.062 441.575 341.302 441.575 343.702 441.575 344.182 441.575 344.422 441.335 344.662 440.855 344.902 440.375 345.622 440.135 346.822 440.615 347.542 441.095 348.262 441.335 348.742 441.335 349.222 441.335 349.462 441.095 349.702 441.575 350.182 442.775 350.182 443.495 350.182 444.215 349.942 444.695 349.462 445.175 349.462 445.655 349.462 446.855 350.422 448.054 350.662 448.054 350.662 448.534 351.142 449.494 351.382 449.734 351.622 449.974 352.102 450.214 352.342 450.934 352.822 451.654 353.302 451.894 353.062 452.134 352.822 452.614 352.342 454.294 352.342 454.774 352.582 455.494 352.582 455.974 352.822 456.454 352.582 456.934 351.622 457.174 351.142 457.174 350.182 457.414 349.702 457.414 349.222 457.174 349.222 456.934 348.262 456.454 348.022 456.454 347.302 456.694 346.342 457.654 346.102 458.134 346.822 458.374 348.022 458.614 348.262 458.374 348.742 458.614 349.222 459.814 349.222 460.054 348.742 461.254 348.262 461.734 346.822 461.974 346.822 462.694 347.302 464.134 347.062 464.374 346.822 464.613 346.582 465.333 347.062 466.053 347.782 466.533 347.782 468.213 347.302 468.453 346.822 468.453 346.102 468.453 345.622 468.453 345.382 468.933 345.142 469.413 344.182 470.613 343.942 470.853 342.742 471.333 342.502 471.573 342.742 472.773 341.302 473.253 341.062 473.253 340.822 473.493 338.661 474.213 336.501 474.933 333.621 474.933 333.381 474.933 332.901 475.173 332.661 475.173 330.741 475.893 330.501 476.613 330.501 477.093 330.261 477.573 327.621 479.253 326.901 479.253 323.3 479.013 323.06 478.773 322.82 478.533 322.34 478.293 320.9 478.053 319.94 478.053 319.22 478.053 318.5 478.053 317.3 477.573 316.82 477.573 315.38 477.573 313.46 477.573 308.9 476.853 308.18 476.613 307.94 476.373 307.94 476.613 307.459 476.373 306.259 476.373 305.779 476.373 305.059 476.133 304.579 475.893 304.339 475.653 304.099 475.413 303.139 473.733 302.179 473.013 301.699 472.533 301.459 472.293 301.219 471.813 301.219 471.093 301.699 470.613 302.179 470.133 302.179 469.893 301.699 469.653 301.219 469.893 300.499 470.373 297.139 471.573 296.899 471.573 296.659 471.333 295.699 471.093 294.259 471.093 290.898 472.053 290.418 472.533 290.178 472.773 290.178 473.253 289.938 474.213 289.218 474.933 287.778 475.173 287.298 474.933 286.818 474.693 286.578 474.213 285.618 473.493 285.378 473.493 284.898 473.733 284.418 473.973 283.698 473.733 283.458 473.733 283.458 473.493"/>
</svg>
