<svg id="Belarus" xmlns="http://www.w3.org/2000/svg" width="612" height="792" viewBox="0 0 612 792">
    <defs>
        <style>.cls-1{fill:#fff;fill-rule:evenodd;}</style>
    </defs>
    <polygon class="cls-1"
             points="426.987 378.698 425.787 378.938 425.067 378.938 424.587 378.938 424.107 378.698 423.867 378.698 423.387 378.938 422.667 379.178 422.187 379.418 421.707 379.898 420.747 380.378 419.307 380.858 419.067 380.858 416.186 381.578 415.706 382.538 415.466 383.018 415.706 383.498 415.466 383.978 413.786 386.138 413.786 386.378 413.306 386.858 413.066 386.858 412.826 386.858 412.586 386.378 412.346 386.378 410.666 386.378 409.946 386.618 409.706 387.338 409.706 387.578 410.186 388.538 409.706 388.538 409.466 388.298 408.986 387.578 408.746 386.618 408.986 386.378 408.746 386.138 408.746 385.178 408.746 382.538 408.746 382.058 408.986 381.098 408.506 379.898 408.026 379.658 405.386 378.458 404.906 378.458 403.946 378.458 403.706 378.458 403.466 377.738 403.946 376.059 404.666 374.139 404.906 373.659 405.146 373.659 405.866 372.699 406.586 372.219 406.826 371.979 407.066 371.739 407.306 371.739 407.546 371.739 407.786 371.499 408.986 370.299 409.226 370.059 409.226 369.579 409.226 369.099 409.226 368.859 408.986 367.419 408.506 366.219 408.506 365.259 407.306 362.619 406.106 360.939 404.906 358.78 404.666 358.3 404.186 357.34 403.706 356.62 403.706 356.14 403.226 355.42 402.986 354.7 402.265 353.26 402.025 352.3 401.785 352.06 401.785 351.82 401.785 351.58 402.025 351.58 402.265 351.58 402.505 351.82 403.706 351.58 404.426 351.34 405.386 351.1 406.106 350.86 406.346 350.86 407.066 350.86 407.306 350.38 407.546 350.14 407.786 350.14 408.026 350.14 408.506 350.38 408.506 350.62 408.746 350.86 409.946 350.86 410.426 350.38 410.906 349.9 411.626 348.94 412.346 348.7 412.586 349.18 413.546 348.7 413.546 348.22 413.546 347.74 413.306 347.5 412.826 347.02 413.306 346.3 414.266 345.82 414.746 346.06 414.986 346.06 415.226 345.82 415.466 345.82 415.946 345.1 415.946 344.86 416.186 344.38 417.386 343.66 417.626 343.66 417.866 343.42 417.866 343.18 418.106 342.94 418.346 342.7 418.587 342.46 419.307 343.42 419.307 344.14 419.067 344.38 419.307 344.86 420.507 344.86 421.467 344.38 421.467 344.14 421.467 342.7 420.267 341.741 419.787 341.98 419.547 342.22 419.067 342.22 418.827 341.98 418.827 341.501 419.067 338.861 419.787 338.381 419.787 338.141 420.027 337.901 419.787 337.181 419.307 336.701 419.307 336.461 419.067 334.781 419.307 333.341 419.787 332.141 420.027 331.901 420.267 331.661 421.467 331.421 422.187 330.941 422.427 330.221 422.427 329.261 422.427 328.541 422.427 328.301 424.347 327.581 424.587 327.581 425.547 326.861 426.507 325.421 426.747 325.181 426.747 324.941 426.267 324.701 425.067 324.701 424.827 324.701 424.347 325.181 424.107 325.181 423.867 324.941 423.387 324.941 423.627 323.022 423.867 320.622 423.627 319.902 423.627 319.422 423.627 319.182 423.627 318.942 423.867 318.942 424.107 318.942 424.587 318.942 424.827 318.942 425.547 318.462 425.547 317.982 425.547 317.262 426.267 316.302 427.467 315.822 428.187 316.062 428.907 316.062 431.067 315.822 431.307 315.822 431.547 315.582 431.547 315.102 431.547 314.862 431.547 313.662 431.787 312.942 432.507 311.982 432.987 310.782 432.987 310.302 434.428 308.862 434.668 308.862 434.908 309.102 435.148 309.102 436.588 310.302 436.828 310.062 437.068 309.342 438.268 308.862 438.988 308.862 439.228 308.862 439.948 309.582 440.188 310.062 440.428 310.542 440.668 310.782 441.388 310.542 441.628 310.062 442.588 309.102 442.828 308.862 443.068 308.862 443.788 308.862 444.028 308.862 446.188 309.102 446.668 309.582 446.428 310.062 446.428 311.742 446.908 312.222 447.868 312.942 448.348 312.942 449.068 311.502 450.989 309.582 451.229 309.342 451.469 309.342 453.629 308.622 455.789 308.862 456.029 308.862 457.469 309.822 457.949 310.542 459.149 311.262 459.389 311.262 459.869 310.782 460.109 310.542 460.349 310.542 460.589 310.782 460.829 311.022 461.069 312.222 461.549 313.662 461.549 314.142 461.309 314.142 461.069 314.622 461.069 315.102 461.069 315.582 462.269 316.782 462.509 316.782 462.989 317.262 463.949 318.702 463.469 320.142 463.229 320.382 462.989 320.622 462.989 321.102 462.749 322.542 462.989 323.022 463.469 323.262 463.949 323.262 464.429 323.502 465.389 323.982 466.35 324.701 467.07 325.421 466.83 325.901 466.83 326.621 467.07 326.861 467.31 327.101 468.03 327.101 468.27 327.101 469.71 328.541 469.71 329.261 470.19 329.981 472.35 330.941 472.59 330.941 473.79 331.181 474.27 330.941 474.51 330.941 475.47 331.181 475.95 332.141 475.95 332.621 476.19 333.821 476.19 334.541 475.95 334.781 475.95 335.261 477.15 335.261 477.63 335.021 477.87 334.781 478.11 334.781 479.07 334.061 481.23 334.301 482.431 334.541 482.911 334.781 483.151 335.021 482.431 335.741 482.911 336.461 483.151 336.941 483.391 337.181 485.071 337.421 485.311 337.421 486.271 337.661 486.271 338.141 486.511 339.101 485.791 340.301 484.831 342.22 484.591 342.46 483.871 343.9 483.391 344.38 482.671 344.86 482.431 345.1 480.99 345.34 480.75 345.34 479.55 345.34 479.31 344.62 479.07 344.38 477.39 344.38 475.71 345.1 475.71 345.58 475.71 346.06 475.71 346.54 475.95 346.78 475.47 347.74 475.23 348.22 476.91 349.66 477.15 349.9 477.39 349.9 477.87 350.14 478.11 350.14 478.35 350.14 479.07 350.62 479.07 351.1 479.55 351.58 479.31 352.3 478.83 352.78 480.03 353.74 480.75 355.18 481.47 357.1 481.47 357.58 481.47 358.06 482.911 359.02 483.631 359.499 483.871 359.739 484.111 360.219 484.111 360.459 483.631 360.699 482.671 360.939 481.711 361.179 481.47 361.179 480.75 361.419 480.27 361.419 480.03 361.659 479.79 361.899 479.79 362.139 478.11 362.619 477.87 362.619 476.67 363.339 476.43 363.579 476.67 364.059 476.91 364.299 476.43 365.019 475.95 365.499 475.47 366.459 474.99 367.899 475.23 368.139 475.23 369.819 474.99 370.779 475.23 372.459 475.71 373.179 476.91 374.619 477.15 375.339 476.91 375.579 476.43 376.059 476.43 376.779 475.47 376.299 474.27 375.579 474.03 375.099 472.35 374.139 472.11 374.139 471.63 374.139 470.67 374.619 470.43 374.619 470.19 374.859 469.47 375.099 469.47 375.339 468.99 375.819 468.27 376.059 468.03 375.819 467.79 375.339 467.31 375.339 466.83 375.579 465.149 377.498 464.669 377.978 464.669 378.218 464.429 377.978 463.229 376.539 462.989 375.819 462.029 374.859 461.549 374.859 461.069 374.859 460.829 375.099 459.149 376.779 458.909 377.018 458.909 377.498 458.909 377.978 458.909 378.458 458.909 378.938 457.949 378.698 457.709 378.458 457.469 377.978 457.229 377.258 457.229 377.018 455.789 377.258 455.549 377.258 455.309 377.498 454.109 377.498 453.389 376.539 452.909 376.779 452.669 377.018 452.669 377.498 452.429 377.978 452.189 378.218 451.949 378.458 451.229 378.698 450.749 378.458 450.509 378.458 450.029 378.218 449.788 377.978 449.548 378.458 449.308 378.698 449.548 378.938 449.788 379.418 449.308 380.618 448.588 380.378 448.588 379.418 448.588 378.938 448.108 378.698 447.388 378.698 446.428 378.698 445.948 379.418 445.708 379.418 444.508 379.898 443.308 378.938 443.308 378.218 443.068 377.738 442.828 377.498 441.868 377.738 441.388 377.738 440.908 378.218 440.668 378.218 440.428 378.218 440.188 378.218 439.468 378.218 438.988 378.218 438.268 377.978 437.788 377.978 437.548 377.978 437.308 377.978 436.828 377.978 436.588 378.218 436.348 378.218 435.868 378.458 435.628 378.218 435.388 377.738 434.908 377.978 434.668 377.978 434.187 378.218 433.227 378.218 432.987 378.218 432.747 377.978 431.547 377.738 429.387 377.978 428.907 377.978 428.667 378.218 428.187 378.458 427.467 378.698 426.987 378.698"/>
</svg>
