<svg id="Belgium" xmlns="http://www.w3.org/2000/svg" width="612" height="792" viewBox="0 0 612 792">
    <defs>
        <style>.cls-1{fill:#fff;fill-rule:evenodd;}</style>
    </defs>
    <polygon class="cls-1"
             points="219.614 422.616 219.614 422.136 220.094 420.216 220.334 418.776 220.094 418.056 218.894 416.616 218.414 416.856 217.454 416.856 216.254 416.616 215.534 415.896 215.534 415.176 215.294 414.936 215.054 414.216 214.094 413.736 213.374 413.736 212.653 413.976 211.933 413.496 211.693 413.256 211.453 411.337 211.213 410.137 211.213 409.897 210.973 409.657 210.973 409.417 210.493 409.177 209.773 409.177 209.533 409.417 208.813 409.657 208.093 410.377 207.853 410.137 207.133 409.417 205.933 408.217 205.693 406.537 205.693 405.577 205.213 403.897 205.453 403.897 208.573 402.457 209.533 401.977 210.253 401.497 211.213 401.017 211.453 401.017 211.933 400.777 213.854 400.297 213.854 401.257 213.854 401.977 214.334 402.457 214.574 402.457 215.054 402.217 215.054 401.977 216.014 401.737 216.494 401.977 217.694 402.457 217.694 402.937 218.654 403.417 219.374 403.417 220.334 402.937 221.054 402.457 221.534 402.217 222.014 401.737 222.254 401.497 222.254 401.737 222.494 401.977 222.494 402.217 222.734 402.457 222.734 402.697 222.734 402.937 222.974 402.457 222.734 401.977 222.494 401.497 222.494 401.017 222.734 401.017 223.454 401.497 223.694 401.497 223.934 401.497 224.174 401.257 223.934 400.777 223.934 400.537 223.934 400.057 224.654 399.577 225.374 399.577 225.374 400.057 225.134 400.537 226.334 400.537 226.574 400.537 226.814 400.057 227.534 399.577 227.774 399.577 228.014 399.577 228.254 400.057 228.014 400.777 228.254 401.017 229.215 401.257 229.695 400.777 229.935 400.057 230.175 399.817 230.415 400.297 230.655 400.777 230.415 401.257 230.895 402.697 231.135 402.697 231.375 402.697 231.855 402.697 231.855 403.657 232.815 403.657 233.535 403.657 234.255 403.417 234.495 403.177 234.975 403.657 234.975 404.377 235.695 404.617 236.895 405.097 237.615 405.577 237.375 406.297 236.895 407.497 236.655 407.977 236.655 408.457 235.455 409.897 235.455 410.137 235.455 410.617 235.695 410.857 235.935 410.857 235.935 411.337 235.695 411.577 235.935 411.577 236.175 411.577 236.895 411.577 237.615 411.816 237.855 411.816 238.095 411.816 239.055 411.816 239.295 412.296 240.495 413.496 241.455 414.216 241.215 414.696 241.215 416.136 241.695 416.136 241.935 416.136 242.175 416.856 242.415 418.776 241.935 419.016 241.215 419.256 240.015 420.216 239.775 421.416 239.535 421.656 238.575 421.176 238.575 420.936 238.575 420.696 238.095 420.936 237.135 422.136 237.135 422.376 236.415 423.816 235.935 424.056 235.455 425.016 235.455 425.976 235.455 426.696 235.935 426.936 236.655 427.896 236.655 428.136 236.895 428.856 236.895 429.096 236.415 430.295 236.175 430.535 235.935 430.535 235.695 430.535 234.735 430.535 234.015 430.535 233.535 430.775 232.815 431.015 232.335 431.015 232.575 430.535 232.095 429.576 231.855 429.336 231.615 429.096 231.135 428.616 227.774 425.976 227.534 425.976 227.294 426.216 227.054 426.216 226.574 425.976 226.334 423.096 226.574 421.896 226.814 421.416 227.054 420.936 226.574 420.216 225.854 420.696 225.134 421.416 225.134 421.896 224.894 422.856 223.214 423.576 222.734 423.576 222.494 423.336 222.254 423.336 221.294 422.856 220.574 423.096 220.334 423.096 219.854 422.616 219.614 422.616"/>
</svg>
