<svg id="Bosnia-Herzegovina" xmlns="http://www.w3.org/2000/svg" width="612" height="792" viewBox="0 0 612 792">
    <defs>
        <style>.cls-1{fill:#fff;fill-rule:evenodd;}</style>
    </defs>
    <polygon class="cls-1"
             points="366.983 531.33 366.023 530.61 366.983 530.13 366.983 529.17 366.743 528.93 366.503 528.45 365.783 528.21 365.543 527.97 363.863 527.01 362.183 525.81 361.943 525.33 361.943 524.85 361.463 523.41 361.703 523.17 361.463 522.93 360.983 522.69 360.263 522.45 359.543 522.21 359.303 521.97 359.063 521.97 358.103 521.25 357.863 521.01 357.623 520.77 356.183 519.33 354.742 517.65 354.502 517.41 353.782 516.451 352.342 515.011 352.102 515.011 351.622 514.771 351.142 514.771 350.182 514.051 349.942 513.571 349.702 513.091 349.222 512.611 348.982 512.371 348.502 512.371 348.022 512.611 347.782 512.611 348.022 510.691 348.262 509.971 347.302 507.811 347.062 507.571 346.582 507.331 346.102 506.851 345.622 506.131 345.142 504.931 344.902 504.691 343.942 504.691 342.742 503.731 342.502 503.251 342.502 501.571 342.502 499.411 342.262 499.172 342.502 497.732 342.742 497.252 342.982 497.012 343.462 496.772 343.942 496.532 345.142 496.772 346.102 497.972 347.302 499.172 347.542 499.411 348.022 499.651 348.262 499.891 348.982 499.651 348.982 499.172 349.462 497.732 350.182 496.772 350.422 496.292 350.662 496.052 351.382 495.812 351.862 496.052 352.102 496.292 352.342 496.292 353.782 496.292 354.262 496.292 354.742 495.092 356.423 495.812 356.663 496.052 357.863 496.532 358.583 496.532 359.063 496.052 361.463 496.772 361.703 496.772 362.663 496.772 363.623 496.292 364.343 496.772 365.303 497.252 365.543 497.252 366.263 497.012 366.263 496.772 367.943 496.292 368.423 496.532 368.903 496.532 369.383 496.292 369.383 496.052 369.383 495.812 369.863 495.572 371.784 495.812 374.184 495.812 376.104 497.012 376.104 497.732 375.864 497.732 375.864 498.212 376.104 498.452 376.824 498.932 378.264 498.932 378.984 498.692 379.944 497.972 380.424 497.492 381.864 497.492 382.584 497.732 382.824 498.212 382.584 499.651 382.584 500.131 382.344 500.851 381.384 503.251 380.664 503.971 380.664 506.131 380.664 506.611 381.144 507.091 381.384 507.571 382.344 507.811 383.784 508.531 385.464 509.731 386.905 510.451 387.145 510.451 387.145 510.931 386.184 512.131 385.704 512.131 385.224 512.131 384.504 512.131 383.784 511.891 382.824 511.651 383.064 512.371 384.744 513.811 385.704 514.771 386.184 515.011 386.184 515.251 386.424 515.491 386.664 515.971 386.664 516.451 386.664 517.89 386.664 518.13 385.704 518.13 384.504 518.85 383.784 519.57 383.784 519.33 381.144 519.09 380.664 520.05 380.904 520.77 381.144 520.77 381.384 520.77 381.624 521.01 382.584 522.93 382.584 523.65 382.344 524.13 381.864 524.13 381.144 523.41 381.144 522.93 380.664 522.45 380.184 522.45 379.704 522.69 378.264 524.13 377.784 526.05 378.024 526.29 378.024 527.01 378.024 527.73 377.304 527.97 377.064 528.21 376.824 528.21 376.584 528.69 376.344 529.17 376.344 531.33 376.824 532.29 377.304 532.77 377.784 533.01 378.024 533.73 378.024 533.97 377.784 534.45 376.824 535.409 376.104 534.69 375.624 534.69 375.384 534.45 374.904 534.69 374.664 534.929 373.944 534.45 373.224 533.73 371.064 533.01 370.583 532.77 369.623 532.05 369.143 531.57 368.663 530.85 367.943 530.85 367.463 530.61 367.223 530.85 366.983 531.33"/>
</svg>
