<svg id="Bulgaria" xmlns="http://www.w3.org/2000/svg" width="612" height="792" viewBox="0 0 612 792">
    <defs>
        <style>.cls-1{fill:#fff;fill-rule:evenodd;}</style>
    </defs>
    <polygon class="cls-1"
             points="432.027 546.689 432.027 546.449 432.267 546.209 431.787 544.529 431.307 542.609 431.307 542.129 431.547 541.649 431.787 540.929 432.027 540.449 431.547 539.969 431.067 539.969 430.587 539.489 429.867 538.289 429.627 537.569 428.667 536.369 426.987 535.889 426.027 535.409 424.827 534.929 423.147 533.25 422.667 532.53 423.147 532.29 423.627 531.81 424.107 531.09 424.347 530.61 424.347 529.65 424.107 529.17 423.867 528.93 423.147 528.69 422.667 528.21 422.187 524.61 422.907 523.65 423.627 523.17 423.867 523.17 424.347 523.41 425.307 522.93 427.227 519.33 427.467 518.61 427.467 517.89 426.747 517.65 426.267 517.41 425.307 516.691 425.067 515.971 424.107 515.251 423.627 515.251 423.147 515.011 422.427 514.771 421.467 514.291 419.307 510.931 418.587 509.251 418.587 506.371 419.787 505.171 420.507 504.211 420.507 503.491 420.747 502.771 420.987 502.531 423.867 503.731 424.347 503.731 424.827 503.731 425.067 503.731 425.307 503.971 425.307 504.451 425.067 505.171 424.587 505.171 424.107 505.411 423.867 505.651 423.627 507.331 423.867 507.811 424.107 508.051 424.347 508.051 425.307 508.291 426.507 508.291 427.227 508.051 427.467 507.811 427.947 507.571 428.187 507.331 428.427 507.091 428.667 507.091 430.347 506.611 430.587 506.611 431.307 506.851 431.547 506.851 432.027 507.091 432.507 507.091 432.747 507.091 434.428 506.851 436.828 507.091 437.788 507.331 438.508 507.571 438.988 507.571 439.468 507.571 439.708 507.571 440.188 507.331 440.428 507.091 440.668 507.091 440.908 507.091 441.148 507.091 441.628 506.611 442.108 506.371 442.108 506.131 442.588 505.651 442.828 505.651 443.308 505.651 443.788 505.651 444.748 505.891 445.228 505.891 445.948 505.891 446.908 505.651 448.588 505.411 450.989 505.171 451.469 505.171 451.949 505.411 452.429 505.651 452.909 505.891 453.389 505.651 453.869 505.411 454.589 505.171 455.309 504.691 456.029 503.971 456.509 503.731 456.989 503.491 457.229 503.491 457.949 502.051 458.429 500.851 459.629 498.932 459.869 498.692 460.109 498.452 461.789 497.252 462.509 496.772 462.989 496.772 463.229 496.772 463.709 496.532 465.629 495.572 466.83 494.852 467.31 494.612 467.79 494.132 468.03 494.132 469.47 493.652 470.19 493.412 470.91 493.412 471.15 493.412 471.63 493.412 471.87 493.412 472.11 493.172 472.35 493.652 472.59 493.892 474.03 494.372 474.75 494.372 476.43 493.652 476.67 493.412 476.91 493.652 477.39 494.132 477.63 494.372 477.87 494.372 478.59 494.132 478.83 494.132 479.07 493.892 479.79 493.412 480.03 493.652 480.27 494.132 480.99 495.332 481.711 495.572 482.911 495.812 483.391 495.812 484.111 496.052 484.351 496.052 486.031 495.812 486.991 495.572 487.951 495.332 487.951 495.572 488.191 496.292 488.671 497.732 488.911 498.212 489.151 498.452 489.151 498.932 488.911 499.891 488.671 500.131 488.671 500.371 488.191 501.091 487.951 501.331 487.711 501.331 487.471 501.091 487.231 501.091 486.511 501.091 486.271 501.091 484.591 501.811 484.351 502.051 484.111 502.771 484.111 503.251 483.871 503.971 483.871 504.931 483.151 505.891 483.151 508.051 483.151 508.531 483.631 509.731 483.871 510.451 483.871 510.931 483.631 511.171 484.111 511.891 484.351 513.331 483.391 513.331 482.911 513.331 482.671 513.571 481.711 515.011 480.75 516.691 480.51 516.931 480.27 518.13 480.51 518.37 481.23 518.37 481.47 518.13 482.191 517.89 483.151 518.13 483.391 518.61 483.631 518.85 484.591 520.53 485.071 520.77 486.031 521.49 486.751 521.97 487.231 522.21 487.711 522.69 488.191 523.17 488.671 523.65 488.671 523.89 488.191 524.13 487.231 524.13 486.751 523.89 486.511 524.13 485.071 524.85 484.351 525.33 484.111 525.81 483.871 526.29 482.191 525.57 481.711 525.57 481.47 525.33 480.99 524.85 480.75 524.61 480.03 524.37 479.79 524.13 479.31 524.13 477.39 524.85 477.15 525.09 476.43 526.53 476.19 526.53 472.59 527.97 472.11 528.69 472.35 529.17 472.35 529.65 472.35 530.13 472.35 530.37 471.63 530.61 471.15 530.85 470.43 530.85 470.19 531.57 470.19 532.29 470.43 532.53 470.67 532.77 469.95 533.01 469.71 533.01 468.99 532.53 468.27 532.77 468.03 532.77 467.31 533.49 467.31 533.73 467.55 534.21 468.03 534.69 468.27 534.69 469.23 535.889 469.71 537.329 469.23 538.769 467.55 539.729 466.83 540.209 466.59 540.209 465.629 539.969 463.709 540.689 462.749 540.929 462.269 541.409 460.349 542.609 459.629 542.849 459.149 542.609 458.429 542.129 458.189 541.889 456.749 541.409 456.509 541.409 454.829 541.169 453.869 541.409 453.869 541.889 453.869 542.129 453.389 542.129 451.229 541.409 450.509 540.689 449.308 539.969 447.388 540.449 446.668 540.209 446.188 540.449 446.188 540.689 445.708 540.929 444.748 540.929 444.508 541.409 444.748 541.889 443.788 542.849 442.828 542.849 441.628 543.329 441.148 543.809 439.948 544.529 439.468 544.529 438.988 544.529 437.548 544.529 435.868 545.009 435.388 545.489 435.388 545.969 435.148 546.209 434.908 546.449 434.187 546.689 433.947 546.689 432.507 546.689 432.027 546.689"/>
</svg>
