<svg id="Carpathian_Mountains" data-name="Carpathian Mountains" xmlns="http://www.w3.org/2000/svg" width="612"
     height="792" viewBox="0 0 612 792">
    <defs>
        <style>.cls-1{fill:#fff;fill-rule:evenodd;}</style>
    </defs>
    <path class="cls-1"
          d="M396.0251,413.4964h.48l.24-.24h1.44v.48h-.24v.72l-.24.24v.48l-.24.24v.24h-.72l-.24.24v.24l-.24.24v.24l-.24.24h-.24v.24h-.48v.24h-.24v.48h-.24v.24h.24v.48l.24.24.24.24v.24h.24v.24h.24l.24.24h.24v-.72h-.24v-.24h-.24v-.24h-.24l-.24-.24v-.48h.24v-.24h.24l.24-.24h.48l.24-.24.24-.24v-.48h.24v-.24h.24v-.24h.24v-.24h.24v-.48h.24v-.72h.24v-.24l.24-.24v-.24h.48v-.24h.48v-.24h.48v.24l.24.24h1.44v.24h.96l.24.24h.48v.24h.24l.24.24h.24v.24h.24v.24h.24v.24h.24v.48h.24v.24h.24v.24h-.24l-.24.24h-1.44l-.24.24h-2.16v.24h-.24v.24h-.24v1.44h.24v.48h.24v.24h.24v.48l-.24.24-.24.24v.48l.24.24v.24h.24v.24h.24v.24h.24v.24h.24v.24h.48v.24h.24l.24.24v-.24h.24l.24-.24v-.24l-.24-.24-.24-.24h-.24v-.24h-.48l-.24-.24v-.96h.24v-.48l-.24-.24-.24-.24-.24-.24v-1.2l.24-.24h.48l.24.24h.24v-.24h2.16l.24-.24h.48v-.24h.48v-.24h.72v-.24h.72v-.24h.24v-.24h.24v-.24l.24-.24v-.24l.24-.24v-.48h.48v-.24l.24.24h.24v.24h.24v.24h.24v.24h.72v.24h.96l.24.24h.48l.24.24h.96v-.24h.24v-.96h-.24v-.72h.24v-.24h.72v.24h.24v.24h.24v.48l.24.24.24.24.24.24v.24l.24.24v.48l-.24.24h.24v.48h.96l.24-.24v.24h.24v.24h.24v.72h.48v.24h.48v.24h1.2v.24h.24l.24.48,1.2.72,1.2.72,1.44.96.72.48,1.92.72.24.24h.72v.24h.72l.24.24h.24l.24.24h.24l.24.24.24.24v.24h.72l.72.24h.24v.96l.24.24h.24v-.24l.24-.24.24-.24v-.24h.24v1.2h.24v-.24l.24-.48h.24l.24.24v.24l-.24.24h-.24v.48l.24.24.24-.48.48-.24v-.24l.24-.24h.24l.24-.24h.24v.24h.24l.24.24.48.24.72.24.48.24v.72h.24v.24l.24.48h.48l.24.24h.48l.24.24.48,1.2.96.48,2.4,1.2,3.12,1.44h.24l.24-.24.24.24h.24v.24h-.24v.48h-.24v.24l-.24.24-.24.24v.24h-.24v.24l-.24.24-.24.24-.24.24v.24h-.24l-.24.24-.24.24-.24.24-.24.24h-.48v.24h-.72v.48h-.24v.48h-.24v.24l.24.24v.48h.24v.24h.24v.24h.48l.24.24h.24v.24h.48v.24h.24v.24h.24v.24h.24l.72,3.36-.24-.24h-.72v.24h-.24v.24l.24.24h.24l.24.24h.48l.24.24h.48l.24.24h.48l.24.24h.48v.24l.24.24v.24h.24v.24h.24l.24.24h.24v.24h.24l.24.24v.24h.24v1.2h.24v.24h.24v.24h.24v.24h.24v.48h.24v1.68l.24.24h-.48v.48h-.24v.72l.24.24h.96v.24h.24l.24.24h.24v.24h.24v.24h.24v.24h.24v.24l.24.24v.24h.24v.24h.24v.24l.24,1.44h.24l.24.24.24.24v1.44h-.24v.24h-.24v.24h-.72v.24h-.24v.24h-.24v.48h.24v.24h.24l.24.24.24.24v.48h.48v-.24h.24v.24h.24l.24.24.24.24h.48v.24h.48l.24.24v.24l.24.24v.24l.24.24.24.24v.24l.24.24.24.24h.48v.24h.48v.48h.24v.72h-.24v.48h-.24v.24l-.24.24h-.24l-.24.24-.24-.24v-.24l-.24-.24-.24-.24h-.48l-.24.24v.72l.24.24.24.24h.24l.24.24v.48l.24.24h.72v.72h.96v-.48l.24-.24h.24v-.24h.24v-.24h.24v-.24h.48l.24.24v.48h-.24v.48h-.24v.24l-.24.24v.24h.48v.48l.24.24v.96h-.24v.48l-.24.24-.24.24v.24h-.24v.24h-.24l-.24.24v.24h-.24v.72h-.24l.24.24v.24h-.24l-.24.24-.24.24v.72h-.24v.24h-.24v.48h.24v.24l-.24.24v.24h-.72v-.72h-.24v-.24h-.48l-.24.24-.24.24h-.24v.24h-.24l-.24.24-.24.24h-.48l-.24.24h-1.2v.24h-.24v2.16h-.24v.24h-.48l-.24.24h-.48v-.24h-.24v-.24h-.48v.24h-.24v.48h-.24v.48h-.24v.48h-.48v.24h-.48l-.24.24h-.48l-.24.24h-.48v-.72h-.24v.48l-.24.24v.24h-.48l-.24.24h-.24v-.24h-.72v-.24h-.24v-.24h-.48v.24l-.24.24-.24.24-.24-.24v-.24l-.24-.24v-.48l-.24-.24-.24-.24h-.24v-.24h-.24l-.24.24-.24.24h-.24l-.24.24h-.24v.24h-.48v.24h-.48v.24h-.48l-.24.24h-2.16v.24h-.24v.48h-.24v.24h-.24l-.24-.24v-.72h-.24v-.24h-.24v.24h-.96v-.24h-.24v-.96l-.24-.24v-.24h-.24v-.24h-.48v.24l-.24.24v.48h.24v.72l.24.24v.24l.24.24h.24v.24l.24.24v.72h-.24v.24l-.24.24h-.24v.24h-.72v.24h-1.68v.24h-.72v.24h-.72v.24h-.72l-.24-.24h-.48v-.24h-.72v-.24h-.48v.24h-.72v.24h-.48l-.24.24h-.48v-.24h-.24l-.24-.24h-.24l-.24.24h-.24v.24h-.48v.24h-.24v.24h-.24l-.24.24-.24.24h-1.2l-.24.24h-.24l-.24.24h-.48l-.24-.24h-.24v.24h-.72l-.24-.24v-.24l-.24-.24h-.48l-.24.24h-.24v.24h-.24l-.24.24-.24.24-.24.24h-.48v.24h-.72l-.24.24h-.48v-.24h-.48l-.24-.24-.24-.24.24-.24v-.24h.24v-.24h.24v-.48h-.24v-.24h-.24v-.48h-.24v-.24l-.24-.24v-.96l.24-.24v-.48h.24v-.24h.24v-.24h0v-.24h-.24l-.24-.24v-.24h.24v-.48l.24-.24v-.48h-1.2l-.24.24v.24l.24.24h-.24v.24h-.96l-.24-.24v-1.2l.24-.24v-.24l.24-.24v-.48h-.24v-.48h.24v-.24h.24l.24-.24h.24v-.24h1.2v.24h.72v-.24h.24v-.96h.24v-.24h.24v-.24h.24v-.24h.24v.24h.24l.24.24v.24h.24v.48h.24v.24l.24.24v.96h-.24v.24l-.24.24h-.24v.24h-.24v.48l.24.24v-.24h.48v-.24h.48l.24.24h-.24v.24h-.24v.96h.24v.24h.24v.24h.72v-.24h.72l.24-.24h1.44l.24-.24h.24v-.72h-.24l-.24-.24h-.24l-.24-.24v-.24l.24-.24v-.24h.24v-.24l.24-.24v-.24h.24v-.24h.24v-.48h.24v-.24h.24v-.24l.24-.24h.24v-.24h.24v-.24l.24-.24.24-.24v-.24h.24v-.24h.24v-.24l.24-.24.24-.24h.72v-.24h.48l.24-.24h.72l.24.24h.96v.24h.48l.24.24h.72v.24h1.92l.24-.24h.72l.24-.24h.24v-.24l.24-.48h.24v-.24h.24v-.48h.24v-.24l.24-.24v-.24l.24-.24v-1.2h.24v-.24l.24-.24.24-.24.24-.24h.24v-.24h.24v-.24h.24l.24-.24h.24v-.24h.24l.24-.24h.24v-.24h.48l.24-.24h.96v-.24h.96l.24.24h2.4v-.24h.24v-.96l-.24-.24v-.96h.24v-.24h.24v-.24h.24v-.24h.24v-.72h.24v-.24l.24.24h.24v.24h.24v.48h-.24v.48l-.24.24v.48l-.24.24v.24l-.24.24v.24h-.24v1.2l.24.24v.72l-.24.24v.24l-.24.24-.24.24v.24h-.24v.24l-.24.24-.24.24h-.24v.24h-.48v.24h-.72l-.24.24h-.24l-.24.24h-.48l-.24.24h-.48v.24h-.72v.24h-.48v.24h-.48l-.24.24h-.48v.24h-.24l-.24.24h-.24v.48h-.72l-.24.24v.48h.72l.24-.24h.24l.24-.24h.24l.24-.24h.48v-.24h.72v-.24h.48l.24-.24h.48v-.24h.24l.24-.24h.48l.24-.24h.48l.24-.24h1.44v.24h.24l.24.24v.24h-.24l.24.24.24.24h.24v.24h.72v.24l.24.24h.24v.24h.72l.24.24v.24h.48v-.24h.24v-.24h.24v-.24h.24v-.48l.24-.24v-.24h.24v-.24h.24v-.24h.48l.24-.24.24.24h.24l.24-.24v.24h.96v-.24h.48v-.48h.24v-.24l.24-.24v-.48h.24l.24-.24h.24v-.24h.72l.24-.24.24.24h.72v-.24h.24l.24-.24v-1.44h.24v-1.44h.24v-.48l.24-.24v-1.68h-.72v-.24l-.24.24v.24h-.24v.24l-.24.24h-.48v-.96h-.24v-.24h-.24v2.88l-.24.24v.24h-.24l-.24.24-.24.24v.48h-.24l-.24.24h-.24l-.24.24-.24.24h-.24v-.72l.24-.24v-1.44h-.24v-.24h-.48v.24h-.24v.48l.24.24v.48h-.24v.96h-.48v-.24l.24-.24v-1.92l-.48.24v.72h-.24v.48h-.24v.24h-.24v-2.16l.24-.24h-.24v-.24l-.24-.24h-.24v-.24l-.24-.24h-.48l-.24.24h-.24l-.24-.24h-.24l-.24-.24-.24-.24v-1.2l-.24-.24h-.48l-.24-.24v-.24h-.24v-.24h-.24v-.72h-.24v-.24l-.24-.24h-.48v1.2h-.24v.72h-.24v.48h-.24l-.24-.24h-.24v-.48l.24-.24h.24v-.48h.24l-.24-.24-.24-.24h-.24l-.24.24h-.48v-.48l-.24-.24h-.72v-.24h-.48v-.24h-.24v-.48h-.24v-.24h-.48v-.24h-.24v-.24h-.24v-.24h-.24v-.48l.24-.24v-1.2h-.24v-.48h-.24l-.24-.24-.24-.24-.24-.24v-1.2l-.24-.24v-.48h-.24v-.24h-.24v-.24h-1.2l-.24-.24h-.24v-.24h-.24v-.72h-.24l.24-.24v-.48l.24-.24v-.24h.24v-.24l.24-.24v-.24h.24v-.72h-.72l-.24.24h-.48v-.72h.24v-.24l.24-.24v-.24h.24v-.24h-.24v-.24l-.24-.24-.24-.24h-.24l-.24-.24-.24.48-.48.48v.24l-.24.24v.48l-.24.24v.24h-.48l-.24.24h-.48l-.72.24-.24-.24h-.72l-.24.48h-1.44l-.24.24v.24h-.24v.24h-.72l-.24.24h-.48v-.24h-.24v-.24h-.24l-.24-.24-.24-.24h-.24l-.24-.24h-.48l-.24-.24h-.48v-.24h.24v-.24h.48v-.24h.24v-.48l-.24-.24h-1.2l-.24.24h-.24v.24h-.96v-.24l.24-.24h.24v-.24h.48v-.24h.72l.24-.24v-1.2h-.24v-.72h-.72v-.48h-.24v-.24h-.24v-.24h-.72l-.24.24h-.72l-.24.24h-.24v-.24h-.48v-.24h-.24v-.48l-.24-.24v-.24h.72v-.24l-.48-1.92v-.24h-2.4v-.24h-.24l-.24-.24v-.96h.48v-.24l.24.24h.48v.24h.48v.24h.72l.24-.24.24-.24.24-.24h.24v-.24l.24-.24v-.96h-.24v-.48h-.24v-.24l-.24-.24v-.24l-.24-.24h-.48v-.24h-.24l-.24.24h-.24v-.24h-.24v-.24l-.24-.24v-.24h-.24l-.24-.24-.24.24h-.48v-.24h-.24v-.24h-.24v-.24h-.24v-.24h-.24v-.24h-.24l-.24-.24h-.96v-.24h-.72v-.24h-.24l-.24-.24v-.24l-.24-.24h-.24v-.24h-.24l-.24-.24h-.24v-.24h-.72v-.24h-2.88l-.24-.24h-.24v-.24h-.24v-.24h-.24v-.24h-.24v-.24h-.72v.24h-.24l-.24.24h-.72v-.24h-.24v-1.2h.24v-.48h.24v-.24l.24-.24.24-.24h.24v-.24h.24v-.24l.24-.24-.24-.24v-.24h-2.4v.24h-.48l-.24.24h-.48v-.24h-.48l-.24.24-.24.24-.24.24-.24-.24v-1.44h-.24v-.24h-.24v-.48l-.24-.24v-.24h-.24v-.72h-.24v-.24l-.24-.24h-.48l-.24.24v.24h-.24v2.64h-.24v.24l-.24-.24h-.24v-.24l-.24-.24v-.72l-.24-.24h.24l-.24-.24v-.48l-.24-.24v-.24l-.24-.24v-.24l-.24-.24v-.24h-.72v.24h-.24v.48h.24l.24.24h.24v.24h.24v.96h-.24v.24h-.24l-.24-.24-.24-.24v-.48h-.24v-.72h-.24v-.24h-.24v-.24h-1.2v.48l.24.24v.24h.24v.24h.24v.48h.24v.72h-.24v.24h-.24v-.24h-.24v-.24l-.24-.24v-.48h-.24v-.48h-.24v-.24h-.24v.24h-.24v.72h.24v1.92h-.72v.24h-.24v-.24h-.24v-.24l-.24-.24-.24-.24-.24-.24h-.72l-.24-.24h-.96v.24l-.24.24h.24v.48h.24l.24.24v-.24h.48v.24h.24l.24.24v.72h-.24v.24h-.24v.24h-.24v.48h-.24v.24h.24v.48h-.48v.72h1.2l.48.24h.24v.24h-.24v.24l.24.24v.24h.72l.24-.24v-.24h.24v-.24h.24v-.24h.24v.24h.24v.24l-.24.24v.24h-.24v.72h-.24v.24l-.24.24h-.24v.24h-.24v.24h-.24v.24h-.48l-.24.24h-.48v.24h-.24v.24h.24l.24.24v.48l-.24.24h-.24l-.24.24h-.72l-.24-.24h-.48l-.24-.24h-.48v-.24h-.24l-.24-.24h-.24v-.24h-.24l-.24-.24h-.72l-.24.24v.24h-.48l-.24.24v-.24h-.48v.24h-.24v.24l-.24.24-.24.24h-.48v.24h-.24v.48h-.24v.24h-.48v.24h-.24l-.24.24-.24-.24h-.48v.24h-2.16v.24h-.96l-.24-.24h-.48l-.24.24h-.72v-.96l-.24-.24h-.24l-.24-.24v-.24h-.48l-.24.24h-.24v.24h-.24v-.24h-.24v-.24h.24l.24-.24h.24v-.48h.24v-.24h-.72l-.24.24h-.24l-.24.24h-.48l-.24.24h-.24v.24h-.24v.48l.24.24v.48h-.24l-.24.24h-.48v-1.44h-.24l-.24.24-.24.24h-.24v-.24h-.96v.72h.24v.48l-.24.24h-.72v.24h-.24v.48h-.24v.24h-.24v.24h-.72l-.24-.24v-.24h-.24l.24-.24v-.48h.24v-.48h.24v-.48h.48v.24h.48v-.48h-.24v-.48h-.24v-.24h-.24v-.48h-.24v-.72l-.24-.24h-.24v-1.68h-.72v.24h-.24v.24h-.48v.24h-.24v.24h-.24v.24h-.48v.24h-.24l-.24.24h-.24v.24h-.24v.24h-.24v.24h-.48l-.24.24v-.24h-.24v-.48h.24v-.24l.24-.24v-.24h.24v-.48h.24v-.24l.24-.24.24-.24v-.24h.24v-.24h.24l.24-.24h.24v-.48h.24v-.24h-.24l-.24-.24v-.24l.24-.24v-.48h.24v-.48h.24v-.24h-.72l-.24-.24h-.24l-.24-.24v.24h-.24l-.24.24v.72h-.48l-.24-.24h-.72v2.16l-.24.24-.24.24v.24h-.24v-.24h.24v-.72l.24-.24h-.24v-.72l.24-.24v-.72h-.24l-.24-.24h-.24v-.48l.24-.24.24-.24h.24v-.24h.24l-.24-.24-.24.24h-.48l-.24.24h-.24l-.24-.24h-.48l-.24.24h-.24l-.24.24h-1.68l-.24.24h-.24l-.24.24-.24-.24h-.24v-.24l.24-.24v-.24l.24-.24v-.24h.24l.24-.24.24-.24h.48l.24-.24h.72l.24.24h-.24v.48l.24.24v-.24h.24v-.24h.24v-.48h.24v-.24h.48v-.24h.96v-.24l-.24-.24h-.24v.24h-.96v-.48h.24v-.24h.96l.24-.24h.48l.24-.24h.24v-.24h.24v-.48h.24v-.24h.24l.24.24v.48h.24v-.48l.24-.24v-.48h.96v-.24h-.24v-.24l-.48-.24h-.24v-.24l.24-.24h.24l.24-.24h.24l.24.24h.48v-.24h.24v-1.92h.24v-.24h.96l.24.24v-.24h.24v-.48l.24-.24v-.24h.24v-.24h.24v-.24h.96l.24.24h.24v-.24h.24v-.24l.24-.24.24-.24.24.24.24.24v.48h.24v.48h.48v-.96h.24v-.24l.24-.24.24-.24h.24v-.24h1.2v.24l.24.24v.24l.24.24v.24h.24v.24h.24v.24h.24v.24h.72v-.24l-.48-.48-.24-.24-.24-.24v-.24h-.24v-.48l-.24-.24v-.24h-.24v-.24h.72l.24.24h.72v-.24h.72v.24l.24.24.24-.24h.48v-.24l.24-.24h.24v-.24h2.64l.24-.24h.48l.24-.24h.24l.24-.24.24-.24h.24l.24-.24h.48v-.24h.24v-.24l.24-.24h.24v-.24h1.44l.24.24h.48l.24.24h.24l.24.24h.48v.24h.24v.24h.24l.24-.24.24-.24v-.24h.48v-.24h.48v.24h1.44v.24h.96v-.24h.24v-.24h.24l.24-.24.24-.24v-.24l.24-.24.24-.48v-.24l.24-.24v-.24l.24-.24v-.48h.24v-1.2h.48v.24h1.2l.24.24h.24l.24.24v.24Zm18.2411,45.3574h1.44v-.24h.48v1.2h.24v.72h.24v.48h.24v.24h.24v.24l.24.24h.24v.24h.48v.24h1.92v.24h.72l.24.24.24.24h.24v.24l.24.24v.48h.24v.24l.24.24v.24h.24v.48h.24v.24l.24.24v.24h.24v.48h.24v.24h.24v.24l.24.24.24.24v.24h.24v.24h.24v.48l.24.24v.48h-.24v.72l-.24.24v.24l-.24.24v1.68h-1.92l-.24-.24h-.72l-.24-.24h-.96l-.24-.24h-.96v-.24h-1.2v-.24h-.72v-.24h-.24v-.24h-.24v-.24h-.96l-.24-.24h-.24v-.24l-.24-.24v-.48h-.24v-.48l-.24-.24v-1.2l-.24-.24v-.96h-.24l-.24-.24-.24-.24v-.48h-.24v-.96h-.24v-.48h-.24v-.48h-.24v-.24h-.24v-.24h-.24v-.24l-.24-.96h.72l.24.24h.72l.24-.24.24-.24v-.96h.24v-.48l-.24-.24h-1.2v-.24l-.24-.24v-.24h1.44v.24h.48Z"/>
</svg>
