<svg id="Corsica" xmlns="http://www.w3.org/2000/svg" width="612" height="792" viewBox="0 0 612 792">
    <defs>
        <style>.cls-1{fill:#fff;fill-rule:evenodd;}</style>
    </defs>
    <path class="cls-1"
          d="M262.5766,549.8086l.96-.48-.72-.96-.48-.24-.24-.24-.24-.72-.24-.72.48-.48h.48l.24-.24-.48-.96-.24-.24h-.24l-.24-.72,1.2-1.92.48-.96,2.16-.72,1.92-.96.24-.48.48-.24h.48l1.2.24.24.24v.48l.24-.24.48-.72v-.96l-.48-.48.48-2.88h.96l.48.24.24,2.88-.24.72-.24.72v1.2l.24.96.48.24-.24-.48-.24-.24v-.48l.24.48v.24l.24.48.24.24.24,4.32v2.4l-1.2,1.92-.48.48v.48l-.24,1.2v2.64l-.24.72-.72.72-.48,1.44-.48.96.24.48-.48.96h-.48l-.48-.48-.24-.48-1.68-.96h-.48l-.24-.24-1.44-.96v-.96l.24-.24.72-.24.48-.48-.48-.24h-.24l-.72-.24-.72-.24-.24-.48.48-.96.48-.72.24-.72-.24-.24-.48-.24-.48.48h-.96l-.48-.96h.72l.24-.24Z"/>
</svg>
