<svg id="Croatia" xmlns="http://www.w3.org/2000/svg" width="612" height="792" viewBox="0 0 612 792">
    <defs>
        <style>.cls-1{fill:#fff;fill-rule:evenodd;}</style>
    </defs>
    <path class="cls-1"
          d="M329.0609,509.4909l-1.68-1.68-.24-.96-.24-.72h.48l.24.24v.96l.24.24v.24h.24l.48.72.24.24.24.24.24.24v.24ZM348.7421,531.09l-.24.24-.24-.96.24-.24h.72l.48-.24h.48l.24.24-.24.72ZM337.4614,518.61l-.24-.24-.24-.24h-.24l-.24-.24-.24-.24-.24-.48-.24-.24-.24-.24v-.24h-.24l-.48-.72v-.24l-.72-.48-.48-.24-.24-.24v-.24l-.24-.24,1.68,1.2.72.96v.24l.48.24.72.48.96.72v.24ZM368.1833,534.45v-.24h-.48l-.72-.24h-.96l-2.16-.24h-.24l-.24-.24v-.24l.24-.24h.48l3.12.72.96.24v.24l.24.24Zm-10.3206-2.4h-1.68l-.72-.24-.48-.72h.24l.48-.24h.24l.24.24h.48l.48.24h.72l.24-.24h.24l.24-.24h2.16l.72.72h-.72l-2.16.24Zm1.92-3.36h-2.16l-2.4.24h-.24l-1.44-.24-.72-.24h-.48l-.48-.48.72-.24h.24l1.2-.24h.48l.48.24,1.92.24,1.68.24h1.68v.24ZM331.461,505.8911l1.44,1.2h.48l.24.24.48.24.96.72.24.72-.72-.48h-.24l.24.48.48.24v-.24l.48.24.48.48,1.44,1.2v.24l-.24.48-.48.24-.48-.24-.24-.24h-.24l-.96-1.44v-.24l-1.2-.96-2.16-2.64Zm-2.88,1.68-.24-.24-.96-1.2-.72-2.4v-.96h.72v-.72l-.72-1.44-.24-.24h-.24l-.24-.48-.24-.24.48-.96.48.24.24.24h-.24v.72l.24.72.48.72.24.24.48,2.4.24,1.44.48.96.24.72v.24l-.24.24Zm26.6417,18.959-.72.24-.48-.24h-1.2l-.72-.48-.24-.24.24-.96h3.12l.72.24h.48l.96.48v.24l-.24.48h-.24l-.48.24h-1.2ZM330.981,502.0514h-.24l-.72-.24-1.92-.96-.24-.24-.24-.24v-.24l.96-2.64h.48l.96,1.68.72.96.96.72.24.24v.48l-.48.48ZM366.9832,531.33l.24-.48.24-.24.48.24h.72l.48.72.48.48.96.72.48.24,2.16.72.72.72.72.48.24-.24.48-.24.24.24h.48l.72.72v1.2l.24.24.48.24.24.24v.48l-1.92-1.2-1.92-1.2-1.92-.96-2.4-1.44-1.44-.24-2.4-.48-1.2-.48-.96-.48-1.92-.96-.24.24h-1.44l-.72-.24v-.72l3.12.24h.24l1.68.72.96.48,1.68.48Zm-.96-.72h-.72l-.48-.48-.24-.24v-.24l-.24-.24-1.44-1.2-.96-.48h-.48l-.48-.24-.48-.24-.96-.72-.24-.48-1.2-1.2-.96-.72h-1.68l-.96-.24h-.24l-1.44-.72-.48-.48-.48-.24h-.96l-.48.24-1.2.48-.24.48-.72.24h-.72l-.72-.24-.72-.96v-.96l.48-.24-.48-.72-1.92-.96-.96-.24-1.2-.96-.72-.48-.24-.24-.24-.24-.48-.24-.72-.48-1.44-1.68-.72-.72-.96-1.2-.48-.96.48-.24.48.24h1.2l-.24-.72h.48l.24.24.48.24h1.44l-.24-.24h-.48l-2.16-1.2-.96-1.2-.72-.48-.48-.48-.96-.72-.24-.24-.24-.24-.48-.96-.48-.48v-.48l-.24-1.44v-1.2l.24-.24v-.96l-1.2-2.4h-.24l-.72-.24h-.24l-.48-.48-1.2-1.2-1.2-.72-.24-.24-1.44-.24-.48.48-.24,1.44v.96l-.24.24v.48l-.72.72v.48l.24.96-.24.24-.72.24-.96,1.2v.96h.24v.24l-.96.48-1.2-1.2.24-.24-.96-1.68-.96-.96-.96-1.68v-1.44l-.24-.72-.72-1.68-.24-1.44h.48l.48.24.48.48h.72l2.16-.24h.48l.48-.24,1.68-.24,2.64-.24.24-.24.96-.72.24-1.2.48-.96h.48v.96l1.2,1.2,1.2.96.48-.24.48-.24.72-.24,1.44.24.72.72h.24l.96-.72.24-1.2-.24-.72.24-.72.48-.24v-.96l-.96.24.24-.48v-.48l.24-.24,1.68-1.2,1.2-.24.24.24.24.24.48-.48.24-1.44-.24-1.92h-.48l-.48-.24-.24-.48-.24-.48.24-.48.48-.72.24-.24,1.2-.24,2.16-1.2.72-.48v-.72l.48-.48,1.44-.24-.24-1.2v-.48l.48-.24h.24l.72-.24.72.24.48.24.24.24.48.24h.24l.24-.24h.24l.24.24,1.68.96.48.24.48.48v.48l.24.48.24.24.24.24.48.24.72.24,1.2.24.48.48.72.96.24.48v.48l.72.72.48.24.48.24h.24l.48-.24h1.2l.72.48.24.24v.48l.24.24,2.4.72,1.44-.24,1.44-.24h.96l.24.24h1.92l1.2-.96.48-.48.24-.48.96-.96.72.24.24-.24v-.24l.24.72.72.48.48.24.48.48.24,1.92-.24.48-.24.24v.72l.24.24.24.24h.24l.48-.48.96.48v.48h-.72l-.24.24v1.68l1.68.96.24.24.72.24.72.24h1.68l.24.24v.48l-.72.24h-1.2l-.48-.24-.24-.24-.24.24-.48,1.92.24.96-.48,1.68-.48.24.24.48.24.24-.72.24h-1.44l-.72-.48-.24-.24v-.48h.24v-.72l-1.92-1.2h-2.4l-1.92-.24-.48.24v.48l-.48.24h-.48l-.48-.24-1.68.48v.24l-.72.24h-.24l-.96-.48-.72-.48-.96.48h-1.2l-2.4-.72-.48.48h-.72l-1.2-.48-.24-.24-1.68-.72-.48,1.2h-2.16l-.24-.24-.48-.24-.72.24-.24.24-.24.48-.72.96-.48,1.44v.48l-.72.24-.24-.24-.48-.24-.24-.24-1.2-1.2-.96-1.2-1.2-.24-.48.24-.48.24-.24.24-.24.48-.24,1.44.24.24v3.84l.24.48,1.2.96h.96l.24.24.48,1.2.48.72.48.48.48.24.24.24.96,2.16-.24.72-.24,1.92h.24l.48-.24h.48l.24.24.48.48.24.48.24.48.96.72h.48l.48.24h.24l1.44,1.44.72.96.24.24,1.44,1.68,1.44,1.44.24.24.24.24.96.72h.24l.24.24.72.24.72.24.48.24.24.24-.24.24.48,1.44v.48l.24.48,1.68,1.2,1.68.96.24.24.72.24.24.48.24.24v.96Z"/>
</svg>
