<svg id="Czech_Republic" data-name="Czech Republic" xmlns="http://www.w3.org/2000/svg" width="612" height="792"
     viewBox="0 0 612 792">
    <defs>
        <style>.cls-1{fill:#fff;fill-rule:evenodd;}</style>
    </defs>
    <polygon class="cls-1"
             points="361.463 433.415 361.703 433.655 361.463 434.375 360.983 435.095 359.303 436.055 358.823 437.015 358.103 437.975 357.623 438.215 357.143 438.455 356.903 438.455 355.463 438.935 354.502 439.175 354.262 439.175 353.782 438.935 352.822 438.695 352.102 438.695 351.382 439.415 350.902 440.375 350.662 440.855 350.422 441.815 350.182 442.775 349.702 441.575 349.462 441.095 349.222 441.335 348.742 441.335 348.262 441.335 347.542 441.095 346.822 440.615 345.622 440.135 344.902 440.375 344.662 440.855 344.422 441.335 344.182 441.575 343.702 441.575 341.302 441.575 341.062 441.575 340.822 441.335 340.342 441.095 339.862 440.855 338.421 440.135 337.461 440.135 336.741 440.135 335.781 439.655 335.541 439.655 335.301 439.415 335.061 439.415 334.341 438.935 333.621 438.695 333.381 438.455 332.661 438.455 331.221 438.455 330.261 438.215 330.021 438.215 329.541 438.455 329.541 438.935 329.541 439.415 329.541 441.815 328.581 442.055 328.341 442.055 328.101 442.055 327.141 443.495 327.141 444.215 327.141 444.935 327.141 445.175 326.901 445.175 326.421 444.935 325.941 444.695 324.981 444.695 324.261 444.935 323.781 445.415 322.58 445.415 321.62 445.415 320.18 444.215 319.7 443.735 318.5 443.015 318.02 442.775 317.78 442.775 317.54 442.295 317.3 441.815 317.06 441.815 316.82 441.335 316.58 441.095 316.34 441.335 316.1 441.095 315.86 440.855 315.62 440.135 315.38 440.135 314.9 439.895 314.42 439.895 313.22 439.415 313.22 438.695 312.26 437.975 310.82 437.015 309.38 435.095 308.42 434.375 307.699 434.375 306.739 434.375 305.539 433.175 304.819 431.735 304.579 431.015 304.339 430.295 303.859 429.336 303.379 429.096 303.139 429.096 303.379 427.656 303.859 425.736 303.379 424.776 303.139 424.536 302.659 424.536 301.459 423.576 300.979 423.336 300.499 422.856 300.259 422.376 300.499 421.896 299.539 419.736 299.299 419.496 300.019 419.496 301.219 420.936 301.699 421.176 301.699 420.696 302.179 419.496 303.139 418.536 303.379 418.296 304.339 417.816 305.059 417.816 305.539 417.576 306.019 417.336 306.499 417.096 306.739 417.336 307.219 417.576 307.459 417.576 307.699 417.816 308.18 417.576 308.42 417.336 308.9 416.376 310.1 416.136 310.1 415.896 310.34 415.416 310.58 414.936 311.78 414.216 312.26 414.456 312.5 414.456 312.74 414.456 313.22 413.976 313.22 413.736 313.46 413.256 313.7 412.776 314.18 412.536 314.66 412.536 315.38 412.296 316.82 411.816 316.82 411.337 317.78 410.857 319.22 410.377 320.9 409.657 321.38 408.937 320.9 408.697 320.18 407.977 320.42 407.257 320.66 407.017 322.34 407.257 323.3 407.737 323.54 407.977 323.781 408.937 324.021 409.657 323.781 409.897 324.261 410.137 324.981 410.377 325.461 410.377 325.701 410.377 325.941 409.897 325.941 409.657 327.381 409.657 327.621 409.417 327.621 408.217 327.621 407.737 329.301 407.017 329.781 407.497 330.261 407.737 330.261 407.977 330.261 408.457 330.261 408.937 330.741 409.417 331.221 409.657 331.461 410.617 332.421 410.377 333.621 410.617 335.541 410.857 337.221 411.577 337.941 412.536 338.421 412.296 338.901 411.816 339.141 411.816 340.102 411.577 341.062 411.577 341.302 411.816 342.022 412.536 342.262 412.776 342.022 413.736 341.542 414.216 341.062 414.216 340.102 415.176 340.102 415.656 340.582 415.896 341.062 416.136 341.782 416.376 342.502 416.856 342.742 417.096 343.702 418.296 343.942 418.536 343.942 419.016 344.182 419.496 344.662 419.736 344.902 419.976 345.622 419.976 346.342 419.256 346.342 418.776 346.822 418.296 347.302 418.056 348.022 417.816 348.262 418.056 347.782 416.616 347.542 416.136 346.582 415.176 346.822 414.696 347.062 414.696 347.302 414.696 348.502 414.936 349.222 415.176 349.942 415.416 350.182 415.656 350.902 416.136 351.862 416.616 352.582 416.616 354.502 416.616 354.742 416.376 354.982 415.896 354.982 415.656 355.223 415.656 355.703 415.896 355.703 416.856 355.943 417.336 355.223 417.816 354.742 418.056 354.262 418.296 354.982 419.016 356.903 420.696 357.383 420.696 357.863 420.696 358.583 420.216 359.063 419.256 359.543 419.496 361.223 420.696 362.183 420.936 364.103 420.936 364.583 420.936 364.583 422.376 365.303 423.576 366.983 424.296 367.223 424.296 367.703 425.496 367.943 426.216 367.943 426.696 367.463 426.936 366.023 427.176 365.063 427.416 365.063 427.896 363.623 430.055 362.903 430.775 362.663 430.775 361.943 431.015 361.703 431.735 361.703 432.215 361.703 432.935 361.463 433.415"/>
</svg>
