<svg xmlns="http://www.w3.org/2000/svg" width="612" height="792" viewBox="0 0 612 792">
    <defs>
        <style>
            .cls-1{fill:#fff;}.cls-2{fill:none;stroke:#b2b2b2;stroke-linecap:round;stroke-linejoin:round;stroke-width:0.9601px;}
        </style>
    </defs>
    <g id="bounds">
        <path class="cls-1"
              d="M426.5068,510.291h-1.2a2.0241,2.0241,0,0,1-.4853-.06l-.7207-.1806a1.9986,1.9986,0,0,1-1.4111-.5889l-.2393-.24a1.9979,1.9979,0,0,1-.3711-.5156l-.24-.4795a1.9981,1.9981,0,0,1-.1914-1.1787l.24-1.68a1.926,1.926,0,0,1,.0576-.2705l-1.7285-.72a2.286,2.286,0,0,0-1.5615-1.2568l-.4805-.2393a1.9666,1.9666,0,0,1-.5225-.3759l-.24-.24a1.9907,1.9907,0,0,1-.3223-.4218l-.7216-1.2627a1.992,1.992,0,0,1-.7266.6181l-.4795.24a1.9978,1.9978,0,0,1-1.79.0009l-.4805-.24a2.0089,2.0089,0,0,1-.5195-.375l-.96-.96a2.0274,2.0274,0,0,1-.39-.5488l-.6856.1357a1.9391,1.9391,0,0,1-.3906.0391h-.4746l-.7207.1807a2.0023,2.0023,0,0,1-1.8994-.5264l-.24-.24a2.0065,2.0065,0,0,1-.3759-.5215l-.0577-.1162a2.0776,2.0776,0,0,1-.3125.0244h-.48a2.0043,2.0043,0,0,1-.7607-.15l-4.1465,2.7051a2.0028,2.0028,0,0,1-1.0928.3252h-.9609a2.0008,2.0008,0,0,1-1.3018-.4815l-1.68-1.44a1.9728,1.9728,0,0,1-.2969-.3174l-.0762.0195A2.0026,2.0026,0,0,1,393.69,498.8l-.96-.4805a1.9905,1.9905,0,0,1-.8408-.7959l-.96-1.68a1.9977,1.9977,0,0,1-.2344-1.334l-.4433-.4444-1.2061.1338a1.994,1.994,0,0,1-1.33-.3232l-.5781-.3858-2.1543.8282a2.0053,2.0053,0,0,1-1.5547-.05l-.1006.04a1.9965,1.9965,0,0,1-.7431.1435h-1.92a2.02,2.02,0,0,1-.6328-.1025l-1.44-.4805a2.0062,2.0062,0,0,1-.7812-.4834l-.05-.05-1.4483-.8271a1.9994,1.9994,0,0,1-1.0078-1.7363v-.8643c-.0459-.0381-.0908-.0791-.1338-.1221l-.4775-.4765a1.9982,1.9982,0,0,1-.5889-1.417v-.7207a1.9984,1.9984,0,0,1,.4043-1.2051l-.0478-.3809a2,2,0,0,1-.1866-.11l-.72-.4805a1.9977,1.9977,0,0,1-.7871-1.03l-.06-.18-1.0039-.837a1.9987,1.9987,0,0,1-.72-1.5361v-.48a2.0027,2.0027,0,0,1,.4521-1.2666l1.5616-1.9082-.294-1.4736a1.9561,1.9561,0,0,1-.039-.3916v-1.5352l-.8164-2.041a1.9993,1.9993,0,0,1,.6064-2.3047l.0811-.0644-.2559-.3848a2.0038,2.0038,0,0,1-.3359-1.1094v-2.5322l-.1348-.1348a1.9915,1.9915,0,0,1-.4414-.6689l-.4805-1.1992a1.9884,1.9884,0,0,1-.1308-.9649l.24-2.16a1.9774,1.9774,0,0,1,.1416-.5489l1.0459-2.5107v-2.1611a1.9841,1.9841,0,0,1-.8154-.21l-.15-.0752-.417.418a1.9985,1.9985,0,0,1-1.417.5888h-1.58a2.0011,2.0011,0,0,1-.4082.2706l-.48.2392a2.0082,2.0082,0,0,1-.8926.21h-3.5156l-.4121.1377a2.0349,2.0349,0,0,1-.24.0634l-1.2.24a1.99,1.99,0,0,1-.878-.0205l-.96-.24a1.9914,1.9914,0,0,1-.543-.2255l-2.4-1.44a1.9522,1.9522,0,0,1-.3857-.3008l-1.1328-1.1328a2.01,2.01,0,0,1-.8135-.3613l-.96-.72a1.9881,1.9881,0,0,1-.5146-.5722l-.11-.1826-2.67.4111a1.9844,1.9844,0,0,1-.5039.0137l-2.4-.24a2.0011,2.0011,0,0,1-1.2148-.5761l-2.1035-2.1036-1.0879.2422a1.9939,1.9939,0,0,1-.7178.0274l-4.7344-.6768-.083.0147-.76,1.67a2,2,0,0,1-1.6211,1.1621l-4.0908.4092-.2148.2148a1.9968,1.9968,0,0,1-1.085.5586l-1.44.24a1.9886,1.9886,0,0,1-1.7432-.5586l-.374-.3741H324.74a2.003,2.003,0,0,1-1.2812-.4638l-.7842-.6543-1.3135.1455a1.9753,1.9753,0,0,1-.706-.0469l-.96-.24a15.93,15.93,0,0,0-1.8877-1.4854l-.581-.58-.8448-.5634a2.02,2.02,0,0,1-.456-.1621l-.4805-.24a1.1537,1.1537,0,0,0-1.3838-.3008l-2.6406-.48a2.0054,2.0054,0,0,1-1.1162-.6162l-2.2891-2.4981-4.5488-1.5156a1.9918,1.9918,0,0,1-.2627-.1094l-.3525-.1758-1.3042-.4345a2.0007,2.0007,0,0,1-.6587-.3692,1.9987,1.9987,0,0,1-1.5464,1.1709l-.7954.1143-.4639.6953a1.9946,1.9946,0,0,1-.9214.7471l-3.6006,1.44a1.9893,1.9893,0,0,1-.6557.1416l-5.03.2187-3.5376,2.0479-.2232.5576a1.9975,1.9975,0,0,1-1.3422,1.19l-3.0806.82-1.78,1.78a1.9958,1.9958,0,0,1-.9292.5264l-1.8882.4717-.1.25a1.9955,1.9955,0,0,1-.5551.7763l-1.68,1.44a2.0294,2.0294,0,0,1-1.4829.4736l-2.0738-.19-2.371,1.1856a1.9948,1.9948,0,0,1-.4439.1592l-2.89.6679-.2686.1338a2,2,0,0,1-2.5561-.6806l-.2456-.3682-2.2842-1.4531a3.0926,3.0926,0,0,1,2.2739-4.4072h.96a2,2,0,0,1,1.789,1.1054l.7354,1.4717,1.3545-.3135,2.6675-1.333a2.0332,2.0332,0,0,1,1.0751-.2031l1.7989.1641.6655-.57.2979-.7441a2.0006,2.0006,0,0,1,1.372-1.1982l2.3428-.585,1.7686-1.7686a2.0006,2.0006,0,0,1,.8994-.5185l2.63-.7012.1075-.2676a2.0028,2.0028,0,0,1,.8549-.9892l4.5606-2.6387a1.99,1.99,0,0,1,.915-.2676l5.18-.2256,2.708-1.083.6152-.9228a1.9981,1.9981,0,0,1,1.3809-.87l.231-.0332a2.0029,2.0029,0,0,1,2.1377-1.66l2.88.2393a1.9966,1.9966,0,0,1,1.5283.93l.378.1259a1.97,1.97,0,0,1,.2632.1094l.3525.1758,4.9048,1.6348a2.0018,2.0018,0,0,1,.8428.5459l2.1845,2.3837,1.166.2129a1.9935,1.9935,0,0,1,1.1807-.0654l.96.24a2.0348,2.0348,0,0,1,.41.1524l.4795.24a2.02,2.02,0,0,1,.4453.3037,1.999,1.999,0,0,1,.7295.3l1.44.96a2.0137,2.0137,0,0,1,.1943.1475,2,2,0,0,1,1.7529,1.2529l.0479.12,1.4756-.1641a1.9842,1.9842,0,0,1,1.5019.4512l.8828.7363h.4756a2,2,0,0,1,1.4141.586l.1465.1455.1455-.1455a2.0009,2.0009,0,0,1,1.2148-.5762l3.6553-.3652.7246-1.5928a1.9987,1.9987,0,0,1,1.4912-1.1445l1.44-.24a1.9493,1.9493,0,0,1,.6123-.0068l4.68.6689,1.8037-.4013a1.9963,1.9963,0,0,1,1.8486.5381l2.375,2.375,1.4375.1435,2.8692-.4414a1.9932,1.9932,0,0,1,.3046-.0234h.96a1.9992,1.9992,0,0,1,1.7148.9716l.5186.8633.126.0948a2.0018,2.0018,0,0,1,1.2158.5771l1.5049,1.5049,1.9336,1.16.2353.0586.6367-.1269.6016-.2012a2.02,2.02,0,0,1,.6328-.1025h3.2617a2.01,2.01,0,0,1,.4043-.2686l.4805-.24a2.0009,2.0009,0,0,1,.8945-.211h1.3311l.6113-.6113a1.9985,1.9985,0,0,1,1.417-.5888h.7207a2.0192,2.0192,0,0,1,.6006.0917c.0381-.0117.0771-.0224.1162-.0322l.96-.2392a1.9953,1.9953,0,0,1,1.5927.2763l.7188.4795a1.9965,1.9965,0,0,1,.8916,1.6641v4.8a2.0037,2.0037,0,0,1-.1543.7695l-1.09,2.6153-.1534,1.3779.1416.3525.4307.4317a1.9971,1.9971,0,0,1,.585,1.4131v2.7539l.624.9365a2.0046,2.0046,0,0,1,.3359,1.1094v.72a2.002,2.002,0,0,1-.75,1.5615l-.041.0332.4082,1.0215a1.9971,1.9971,0,0,1,.1436.7432v1.7216l.44,2.2071a2,2,0,0,1-.4131,1.6582l-1.1377,1.3906.15.126a2.0046,2.0046,0,0,1,.6172.9033l.0693.1006.3682.1836a2.0066,2.0066,0,0,1,.5195.375l.4795.48a1.9963,1.9963,0,0,1,.57,1.166l.24,1.92c.0039.0293.0068.06.01.0889l.5791.29a2.0006,2.0006,0,0,1,1.1065,1.7891v.48a1.9927,1.9927,0,0,1-.3389,1.1143l.0518.0293a1.9928,1.9928,0,0,1,.3164.2236l.6963.2324h1.2089l.8428-.3369a1.9972,1.9972,0,0,1,1.6.0489l2.0264-.7784a1.9975,1.9975,0,0,1,1.8271.2022l.833.5557,1.4366-.1592a1.98,1.98,0,0,1,1.6338.5722l2.1621,2.1612a2.0034,2.0034,0,0,1,.455,2.125l1.0049-.252a2,2,0,0,1,2.4463,1.5479l.1055.5234.4316.3711,4.81-3.1367a2,2,0,0,1,2.3936.1553h.8593a2.0012,2.0012,0,0,1,.8946.2109l.48.24a1.9994,1.9994,0,0,1,.9385.9883h.37l1.0069-.2a1.9547,1.9547,0,0,1,.7822,0l1.1992.2393a.6693.6693,0,0,0,1.3125-.17l1.4424-1.4434a2.0036,2.0036,0,0,1,1.4141-.585h.24a2.0043,2.0043,0,0,1,.8916.21l.4805.2393a1.9889,1.9889,0,0,1,.5253.3789l.0088.0087.1885.0938c.0449.0225.0889.0469.1318.0723a2,2,0,0,1,1.3047.167l.4805.2392a2.01,2.01,0,0,1,.5234.377l.72.7207a1.999,1.999,0,0,1-.001,2.8271l-.2393.2393a1.9921,1.9921,0,0,1-.5195.375l-.4805.24c-.0371.0186-.0742.0352-.1123.0518a2,2,0,0,1,1.8994,1.6093l1.3985.55h.7207a1.9986,1.9986,0,0,1,1.417.5889l.2392.24a2,2,0,0,1,.583,1.4112v.4795a1.9749,1.9749,0,0,1-.1025.6308l-.2.6035.0059-.0058a2.0008,2.0008,0,0,1,1.3759-.5889l1.4131-.4023a1.97,1.97,0,0,1,.5489-.0772h.2392a1.9912,1.9912,0,0,1,.6328.1026l.419.14a1.9917,1.9917,0,0,1,.8.208l.167.0293,1.54-.22a2.1435,2.1435,0,0,1,.48-.01l2.4.2393a2.0419,2.0419,0,0,1,.2871.05l.96.24c.05.0127.1.0274.1475.043l.7061.1377a2,2,0,0,1,1.1982-.4775c.0478-.0411.0977-.08.1494-.1163a2,2,0,0,1,.22-.2607l.48-.4795a2,2,0,0,1,1.4141-.5859h1.2a2.029,2.029,0,0,1,.4853.0595l.7207.1807h.708l.7208-.1807a1.9753,1.9753,0,0,1,.2021-.039l1.6807-.24,2.4834-.2509a1.9252,1.9252,0,0,1,.1992-.01h.4805a1.9913,1.9913,0,0,1,.8955.2119l.5449.2725.0654-.0332a2.102,2.102,0,0,1,.2617-.1084l.4658-.1553.3331-.2217.581-.58a1.9938,1.9938,0,0,1,.5176-.373l.6846-.3428.3046-.6094.4483-1.122a2.0673,2.0673,0,0,1,.1611-.3184l1.2-1.92a2.0142,2.0142,0,0,1,.2822-.3535l.48-.4805a2.0262,2.0262,0,0,1,.252-.2139l2.4531-1.7158a2.0021,2.0021,0,0,1,1.1094-.3359l.3037-.0283,1.8535-.9268,1.1328-.68c.044-.0263.0889-.0508.1348-.0742l.1914-.0957.251-.251a2,2,0,0,1,1.3212-.582l1.86-.6192a1.9778,1.9778,0,0,1,.6309-.1025h.9677l6.253-3.666.2431-.7266a2,2,0,0,1-1.0635-1.7675v-.6094l-1.27-.8457a1.9526,1.9526,0,0,1-.3076-.253l-.9561-.956a1.9972,1.9972,0,0,1-.5742-1.6358l.2178-1.9638-.4619-5.3223a1.97,1.97,0,0,1,.0117-.4551l.2393-1.68a2.0024,2.0024,0,0,1,.8183-1.3458l1.669-1.2265a2.0016,2.0016,0,0,1,2.0468-.4834l.72.24a2.002,2.002,0,0,1,1.33,1.5117l.1192.12,1.8574.1855h.5654l.0147-.0723a2,2,0,0,1,1.2178-1.4638l.7685-.3076,1.8486-2.0538a1.9965,1.9965,0,0,1,.7432-.5185l1.2-.4805a1.9894,1.9894,0,0,1,.2578-.084l.96-.24a1.9881,1.9881,0,0,1,.8779-.0205l1.0059.2012h.5215a2,2,0,0,1,1.414.5859l.0117.0107.19.0957a2.0026,2.0026,0,0,1,.5156.3711l.7236.7227a1.997,1.997,0,0,1,.586,1.4092l.18.7217a1.9951,1.9951,0,0,1,.0019.9628,2.0554,2.0554,0,0,1,.0576.4805,2.001,2.001,0,0,1-1.4726,1.93l.876.1992a2,2,0,0,1-.8868,3.9l-5.2-1.1807a2.0165,2.0165,0,0,1-.9062-.0458l-3.2285-.9219-1.502-.2012h-1.44a1.9252,1.9252,0,0,1-.1992-.01l-2.6807-.23a2.0019,2.0019,0,0,1-1.7793-1.086l-.0478.3418.4589,5.291a1.9615,1.9615,0,0,1-.0048.3936l-.1338,1.2041.1416.1426,1.9941,1.3281a1.9991,1.9991,0,0,1,.8906,1.6641v.1425a2.0227,2.0227,0,0,1,.3213.337l.72.96a2.0029,2.0029,0,0,1,.2968,1.833l-.96,2.88a2.002,2.002,0,0,1-.8858,1.0928l-6.7978,4.0088a2,2,0,0,1-1.4141.5859h-1.3574l-1.79.6152a2.0138,2.0138,0,0,1-.5186.3731l-.4121.206-1.1328.68c-.044.0264-.0889.0508-.1348.0743L464.125,498.56a1.9941,1.9941,0,0,1-.8955.2119h-.1143l-.2168.1445-1.6943,1.2686L460.22,501.76l-.4131,1.0341c-.0205.0518-.0439.1036-.0693.1534l-.7207,1.4394a1.9986,1.9986,0,0,1-1.5186,1.086l-.2841.1425-.4922.4912a1.921,1.921,0,0,1-.3047.2491l-.7188.4795a2.0205,2.0205,0,0,1-.4765.2334l-.585.1953-.834.417a1.9982,1.9982,0,0,1-1.79-.001l-1.002-.501-2.2226.2227-1.4942.2148-.86.2158a2.0243,2.0243,0,0,1-.4854.06h-1.2a2.0241,2.0241,0,0,1-.4853-.06l-.6357-.1591a2.0049,2.0049,0,0,1-.6241.4873l-.19.0947-.25.25a2,2,0,0,1-1.4141.5859h-.0107c-.0176.01-.0361.02-.0547.0283l-.48.24a1.991,1.991,0,0,1-.8955.2119h-1.2a2.0229,2.0229,0,0,1-.6328-.1025l-.6475-.2159-.7431-.1865-2.0147-.2012-1.44.2061a2.0973,2.0973,0,0,1-.2822.0195h-.72a1.9925,1.9925,0,0,1-.8916-.21l-.0957-.0469a1.9759,1.9759,0,0,1-.3652-.085l-.2441-.082-1.0694.3184a1.9661,1.9661,0,0,1-.5224.3759l-.1983.1035a1.9919,1.9919,0,0,1-.7812.4834l-.72.24A2.02,2.02,0,0,1,426.5068,510.291Zm62.6192-40.6338-.168.1866,1.5508-.4717-.3486-.0694-.3916.0977Z"/>
    </g>
    <g id="Danube_River" data-name="Danube River">
        <path class="cls-2"
              d="M485.3107,472.773l3.36.96.24-.72.48.24v.48l5.28,1.2m-9.3606-2.16.96-.48.72.24,5.52-1.68h1.2m-10.0807,1.68.72-.48.24-1.2,1.2-.48,2.16-2.4,1.2-.48.96-.24,1.2.24h.72l.24.24.48.24.24.24.48.48v.24l.24.96M262.8167,456.6939l3.12-.72,2.88-1.44,2.64.24,1.68-1.44.48-1.2,2.88-.72,2.16-2.16,3.6-.96.48-1.2,4.56-2.64,5.52-.24,3.6-1.44.96-1.44,1.68-.24.24-1.44,2.88.24v.48l1.44.48.48.24,5.04,1.68,2.64,2.88,2.64.48.24-.24.96.24.48.24.24.24.48.24h.24l1.44.96.72.72.48-.24.48,1.2.96.24,2.16-.24,1.44,1.2h1.2l.96.96,1.44-.24.72-.72,4.8-.48,1.2-2.64,1.44-.24,5.04.72,2.16-.48,2.88,2.88,2.4.24,3.12-.48h.96l.72,1.2.96.72h.48l.72.72.48.48.24.24.24.24,2.4,1.44.96.24,1.2-.24.72-.24h3.84l.48-.24.24-.24.48-.24h2.16l.24-.24.48-.48.24-.24.24-.24h.72l.96.48.24-.48.96-.24.72.48v4.8l-1.2,2.88-.24,2.16.48,1.2.72.72v3.36l.96,1.44v.72l-1.2.96.96,2.4v1.92l.48,2.4-2.16,2.64v.48l1.44,1.2.24.72.72.48.48.24.48.48.24,1.92-.24.48-.24.24v.72l.24.24.24.24h.24l.48-.48.96.48v.48h-.72l-.24.24v1.68l1.68.96.24.24.72.24.72.24h1.92l1.2-.48.48.48,3.12-1.2,1.44.96,2.16-.24.96.96,1.2,1.2-.48.72.96,1.68.96.48,1.92-.48.24,1.2,1.68,1.44h.96l5.52-3.6.48.72h.48l.24-.24h.96l.48.24.24.72.24.48.24.24.96-.24h.72l1.2-.24,1.2.24.48.48v.48l.96.96.48.24.48-.24.48-1.68.24-.24v-.72l.24-.24,1.2-1.2h.24l.48.24.24.24.48.24.24.24.48.24h.48l.24-.24.48.24.72.72-.24.24-.48.24h-.24l-.48-.24h-.24l-.24.24-1.2,1.2v.24l.96,1.68.24.24.48.24h.48l.24.24h.72v.96l2.88,1.2h1.2l.24.24v.48l-.24.72h-.48l-.48.24-.24.24-.24,1.68.24.48.24.24h.24l.96.24h1.2l.72-.24.24-.24.48-.24.24-.24.24-.24h.24l1.68-.48h.24l.72.24h.24l.48.24h.72l1.68-.24,2.4.24.96.24.72.24h1.2l.48-.24.24-.24h.72l.48-.48.48-.24v-.24l.48-.48h1.2l.96.24h1.2l.96-.24,1.68-.24,2.4-.24h.48l.48.24.48.24.48.24.48-.24.48-.24.72-.24.72-.48.72-.72.48-.24.48-.24h.24l.72-1.44.48-1.2,1.2-1.92.24-.24.24-.24,1.68-1.2.72-.48h.72l.48-.24,1.92-.96,1.2-.72.48-.24.48-.48h.24l1.44-.48.72-.24h1.68l.24-.24,6.96-4.08.96-2.88-.72-.96h-.72v-1.68l-2.16-1.44-.24-.24-.72-.72.24-2.16-.48-5.52.24-1.68,1.68-1.2.24-.24.72.24v.48l.48.48.24.24.24.48h.48l2.4.24h1.68l1.68.24M259.2164,454.5341l2.64,1.68.48.72.48-.24-1.44-2.88h-.96"/>
    </g>
</svg>
