<svg id="Denmark" xmlns="http://www.w3.org/2000/svg" width="612" height="792" viewBox="0 0 612 792">
    <defs>
        <style>.cls-1{fill:#fff;fill-rule:evenodd;}</style>
    </defs>
    <path class="cls-1"
          d="M283.4579,347.74h-.24l-.24-.72-.24-.24,1.2-.72.48.96v.24l-.48.24Zm-1.44,1.92-1.44-1.44-.48-.72v-.24l.72.48.24.24,1.2.96v.48Zm4.56-37.4379v-.24l-.24-.24h-.72v-.24l.48-.72.96-.24.96-.24.48.24v.24l-.96.96h-.24l-.24.24h-.24Zm-2.4,20.6388v.48l-.48,1.68h-.48l-.24-.24-.24-.48.24-2.64v-.24h.24v.48l.48,1.44h.48v-.48ZM297.8589,348.46h-.24l-.24-.48v-.72l.48-.48,1.2-.72h1.2l.48.24h.24l.24.72v.24h-.72l-.48-.24h-.48l-.24.24h-.24l-.48.48ZM284.898,351.1h-.24v-.24l-.24-.24-.24-.72v-.48l.24-1.2.24-.24.24-.48.24-.24.48-.24.24-.96.48-.96.24-.48v-.24h.24v.96l-.24.24v.72l-.24.48v.24h-.24v.24l-.24.48-.48,1.44-.24,1.2Zm-6.48-4.08v.24l.24.48.24.72v.48h-.72v.24h-.24l-.24-.24h-.24l-.96-.48v-.24l-.24-.24v-.72h.24l.24.48h.24v-.48l-.48-.72-.48.24h-.48v-.24l-.48-.48v-.24h.24l.48-.24h.72l1.68,1.2Zm-11.5207-26.3985-.24-.24-.24-.48-.48-.24h-.48l.48-.96.48-.48.48-.96h.72l.72-.24v-.48l.24-.24h.48v.48l-.24,1.92-.48.96-.48.72h-.48ZM294.9787,347.26v.24l1.2.72h1.2v.24l.24.24.24.48-.48.48-.24.24-.24.24-.72.96v.48l-.24.24.24.24v1.44l-.24-.24h-.24l-.48-1.2v-.48l.24-.24v-.24l-.48-.96-.48-.96v-.24h-.48l-.24-1.2v-.24l.24-.24h.96Zm28.5618-1.92-.96-.24-.48-.24-1.2-.48h-.24l-.48-.48v-1.68l.48-1.44.48.24v.24h.24v.24l.48.24.96.72.72.24.24.24h.48v.96l-.24.96-.24.48Zm-36.2423,4.8.24-.48v-1.44l.24-.24v-.24h.24l.48-.24h1.2l.24.24.48.24v.48h.24l.24.24.24.24.72.48h.48l.72-.72v-.48h.24l.48.48.24.24.96,1.44.24.24v.96l-.24.24-.48.48h-.48v-.24h-1.44l-.48.24-.48.24-.72-.24-.24-.24-.48-.24-.24-.48h-.24l-.72-.24-.24-.24h-.48l-.72-.24v-.24Zm-8.8806-11.7593.48-.24.48-.24h.48l.48-.48.72-.24.96.48.72.96-.24.24-.24.48-.24.24v.48h.48l1.2-.72v-1.92l.48.24.72,1.44.48,2.16.48.96-.24,1.44-.24,1.2-.48.96h-.96l-.24.24-.72.24h-.24l-3.12-.72v-.72l-.24-.96h-.96l-.96-1.44v-.96l-.72-1.44-.48-.48-.24-.24-.48-.24.48-.72h.72l.24.48h.72Zm-13.6808-17.759h1.2l.24-.24.24.96-.24.24-.24.48-.72-.72-.24-.24-.48-.48h-.24l-.96-.48v-1.68l.24-.24.24-.48.24-.72.48-.72.72-.96.96-1.44.48-.24h.24l.48.24h1.2l.48-.24.96-.48.48.24h1.68l.96-.24.72-.24.24-.24.48-.48.24-.24.48-1.2.48-.96.24-.24.48-.72v-.48l1.44-1.92h1.68l.24-.24h.24l.48-.24h.24l.96-.96.48-.24.48-.48.24-.24h.72l-.24.24-.24.24-.48.48-.24.24v.24l-.24.24-.24.48v1.2l.72,1.68v3.12l-.48.48-.24.48-.72,2.64h-.96l-.24-.24-.48-.24-.24-.24-.72-.72-.24-.24-4.32.72-1.92.72h-.48l-.24-.24-.24-.24-.24-.24h-.24v.24l-.72.24-1.2.24-.48.48-.48.24h-.72l-.72,1.2v.24l-.24.72h-.48l-.24.24v.24l-.24,1.2Zm34.3221,16.799-.72.48-.24.24-.24.48v1.2h.24l.72.48h.72v.24l.48.24v.24l.24.24v.72l-.24.24v.24h-.24l-.72.48h-.96l-.24.24-1.44.72v.24l.24.48h.48l.24-.24.24.24h.24v1.92l-.24.24-.72.24h-.72l-.24-.48h-.48v.48l-.48-.48-.24-.24-.96-.48.48-1.2.24-.48-.72-.48v-.24h-.48l-.24.24h-1.2l-.48-.24h-.48l-.48.24h-.24l-.24.24-.24-.24h-.24l-.48-2.16.24-.96-.24-.72-.48-1.92v-.24l-.48-1.2-.24-.24-.72-.24-.96-.72h.72l1.44.24.24.24h.24v.24h.24l1.2-.96,1.2-1.44.24-.24v-.96l-.24-.24h-.24l-.72-.24h-.24l-.72-.48v-.24l.48.24.72.24,1.68.48.48-.24h.48l.24-.24h.24l.24.24-.48.48-.48.48v1.2l.48.24.24.24v.24l.48,1.2v.48l.24-.48v-1.2l.48-2.64h.48v.24l.24.24h.24l.24,1.44v.24l.24.72v.24l-.24.24h-.48l-.24.48v.48h.96l.48-.72v-.24l-.24-.24v-.48l-.48-2.64-.24-.48h-.24l-.48.24-.24.24h-.24l-.24-.24v-.24h.24l.48-.48,2.16-1.92h.24l.48-.24h.48l1.68.48h.24l.72.72-.24.48v.24h-.24l-.24.72v.48l.24.72.24.24v.24l.24.72v.72l-.24.24.24.48-.24.48-.24.24v.24l-.24.24-.24.48-.24-.24h-.72l-.24.24Zm-24.2415,3.36v.24l.72,1.44.24.24v.48l-.24.72-.48.24-.24-.24h-.24l-.72.48-.24.48.24,1.2.48.24.72.24.72.48.24.72.24.72-.24.96-.96-.24-.24-.72.24-.24v-.24h-.24l-.96.96-.48.48v.24l-.24-.24h-.48l-.24.48-.72-.24-.24-.24v-.24l-.48-.24-2.16-.72h-1.44l-.24.24h-.48l-.24-.24-.24-1.2.24-2.16-.96.48-.48.48-.24-.24-.24-.96.24-.72.24-.24h.48l.24.24-.24.24.24.48h.96v-.48l-.24-.48v-1.92l-.24-1.2v-.48l-.24-.24h-.48l-.72-.24h-.24l-1.2-1.44-.48.96-1.44-1.2.48-.48v-.48l.48-1.44v-2.16l-.24-.72v-.96l-.24-.48.24.24.24.48v1.68l.24.48.72-.48.24-.24.72-.48v-.48l-.72-1.44v-.72l-.24-.48-.48-.24-.72-.24v.72l-.24,1.2v-1.92l.24-3.6v-3.12l.48-1.68v-.24l.24-.24.24-.24.24.24-.24.48-.24.24.48.48.72.48h.72l.48.24.24.24.72.72.48.48.72-.24.24-.96v-.24l-.24-.24-.48-.48,1.44-1.68.24-.48.96-.72h.96l.24.24.24,1.44-.72.96-.24.48.24.48h.24l.24-.48.48-.48h.72l.24.24-.24.48.24.48.24.48.48-.48-.24-.24-.24-1.68v-.48l-.48.24-.72.24v-3.6l1.2-1.44.48-.24h1.44l.24.24,1.2-.48.72-.24h.72l.72-.24h.24l1.2.72.24.24.24.24h1.2l-.24.48-.24.72.24,1.44v.24l.24.96-.72.48-.72-.24-2.4,1.2.24.24h.24l.72-.48.48-.24.96-.24h1.44l.24.24v.48l-.24.48-.24.24h-.24l-.24.48-.48.48-.24,1.2.48-.24v-.96l.72-.48h.24l.24.24.48.48.72.24h.72l.48-.24h.96l.24-.24.48.24.24.24.72.96-.24,1.68v.24l-1.44,2.64-.48-.48v-.48l-.48-.24-.24.24-.24.24-.24.72.24.48-.24.48h-.24l-1.2-.96-.24-.72.72-.24h.24l.24-.72-.48-.48h-.48l-1.44,1.92v.96l.24.48.24.96-.24,1.68-.72,1.2h-.24l-.24-.48-.24-.24h-.72l-.24.24-.96.24.24.24h.24l.24.24h.72v1.2l-.48.72-1.2.48h-.24l-.72-.24-.48-.48h-.24l-.96.24h.96l.48.72.96.72-.96,1.2-.96,1.68v.48Z"/>
</svg>
