<svg id="Estonia" xmlns="http://www.w3.org/2000/svg" width="612" height="792" viewBox="0 0 612 792">
    <defs>
        <style>.cls-1{fill:#fff;fill-rule:evenodd;}</style>
    </defs>
    <path class="cls-1"
          d="M384.5044,273.8244h1.44l.24.48v.24l-.24.24-.48.24h-.24l-.72.24-.24-.24-.48-.72v-.24h.24l.24-.24Zm1.44,5.76h.24l.24.24h.24l.72,1.2v.48h-.24l-.96.24h-.24l-.96-.48-.24-.24-.24-.24v-.24l.48-.72h.24v-.24h.72Zm-5.52.72h-.72l-.24-.24v-.72l-.48-1.2-.24-.24-.24-.24v-.24h-.48l-.48.24-.24.24h-.24l-.24-.24h-.24l-.96-.24v-.48l.96-.24,1.68-.24.24-.24.24-.24.24-.24.24-.48.24-.96.96.24.24.48v.24h.72l.24-.24h.24l.72.24.24.24.96,1.68v.48l-.24-.24-.48-.24v.24l-.48.24-.24.24h.24v.48l-.24.24h-.48v-.48l.24-.24h-.48l-.24.24v.96l-.24.24v.48l-.24.24-.24.24Zm-2.16,12.7193h-.48l-.24-.72.48-1.92.24-.24h.48v-.96l-.48-.24h-.48l-1.92-.96-.24-.48.24-.96h.48l.48-.48-.24-.24-.96-1.2h-.24l-.24-.24-.24-.24.72-.24.72-.24.96.24.48-.96.96-.72,1.44-.48h.96l1.2-.48.24-.24h.48l.24-.24.72.24.96.48,1.44.72h.24l.48.72-.48.24h-.96l-.48.48v.48l-.24.48-1.92,2.4-.72.24h-1.44l-.72.48-.72.72v1.44l-.24,1.68-.72.96v.24Zm42.4827-34.078h.24l.24.24.48.24.72.48.24.24v1.2l-.24.24h-.24l-.24.24h-.96l-.24.48v3.36l-.48,1.44-.72.96-.24.48-.24.48-.24.48v1.2l.48,1.44.72,1.44.24.48.24.72.48.72.24.48v1.2l-.24.24v.48l.48,1.2.72,1.2h.24l.48.24h.24l.24.24.72,1.68.96.96h.24l.24.24-.24.48-.24.24-.48.24h-.48l-.48.24-.24.24-.72,2.4v1.44l.24.72h.24l-.48.24h-2.16l-.24-.48-.24-.24h-1.44l-1.2,1.2-.48.72v.24l-.72.24-2.16-.96-.24-.24-.72-.96-1.92-1.44-.72-.48-.72.24h-.72l-1.44-.48-1.68-1.2-.24-.24-1.44-.48-.24.24.48.48v.24l-.24.48-.24-.24-.24-.24v-.24l-.24-.24-.24-.24h-.24l-.24.24-.24.24-.24.24h-.24l-2.16,1.68-1.2.48-.72.96v.48h-.24l-.24.24h-.48v-1.44l.24-.72v-.24l.24-.48v-1.2l-.24-.48-.24-.48v-.72l.24-.48.24-.24v-.96l-.48-.24-.48-.24-.24-.24h-.24l-.48.24-.24.48v.72l-.24.72-.96.72-.48-.48-.48-.24-.24-.24h-.48l-.96-.48-.24.24-.48-.24-.72-.72-.72-1.44-.96-.48-.24-.24-.24-1.68.24-.72h.48l.96-.48.96-.72-.24-.24h-.24l-1.68.48-.96-.24-.72-1.2v-.72h.48l.72-.24.24-.48-.24-.48-.24-.48h-.24l.48.48-.48.48h-.72l-.48-.24v-.72l.48-.48-.48-1.92.24-.24.72-.48h.96v-.48l-.24-.24.96-.48.24.24h.48l.72-.48-.24-1.2v-.24l.24-.24.24.24h.24l.24.24.24.24h.24l.72-1.68v-.48l.24-.24h1.44l1.44-.24.24-.96-.24-.72.24-.24.48.24.24.48h.24l1.2-.24.24-.24.48-.24.72.24h1.2l.48-1.2-.48-1.44,1.2.72.48.24.24.24.24-.24v-.48l-.24-.24-.24-.72h.24l.48.24.96.48.72-.72h.48l.48.24h2.4l.72.24h.48l.24-.48h.96l.48.24.48.24.24.24.48.24h1.92l.72-.48,1.44-.24.48-.24.48.24h.48l2.4-.24.24-.24.24-.24h.24l.24-.48v-.48Z"/>
</svg>
