<svg id="Finland" xmlns="http://www.w3.org/2000/svg" width="612" height="792" viewBox="0 0 612 792">
    <defs>
        <style>.cls-1{fill:#fff;fill-rule:evenodd;}</style>
    </defs>
    <path class="cls-1"
          d="M383.5443,260.3851h-.24v-.48l.96-.72h.24l1.44.24-.48.24h-.48l-.72.24Zm-13.4408-.96h-.24l-.24-.96v-.24h.24l.72-.24h.48v.48l-.72.72Zm3.36-2.64v-.48h-.48v.24h-.72v-.72l.96-.24h.24l.72.24v.48h-.24l-.48.24Zm7.2,4.08-.72.24h-.48l-.24-.24-.48-.48v-.24h.24v.24l.96-.24h.24v-.24h.48l.24.24v.72Zm-27.3617.96h-.24v-.24l-.24-.24-.24-.48.24-.72.24-.48h.48l.24.96.24.24v.24h-.48Zm4.32-.24v.24h.24l.24.24h.24l.24.72v.48l-.72-.24-1.2-.72v-.24l.72-.48Zm10.8006-60.7166h-.72l-.24.24-.24-.24v-.48l.48-.96.48-.24h.24v.24l.24.48v.24h-.24v.72Zm2.88,54.9569h-.24l-.24-.24-.72-.24h-.24v-.24l-.24-1.2.24-.24.48.24.48.48.72.72v.72Zm-12.4808-43.1975v-.24l-.48-.48v.24l-.24.24-.24-.24-.24-.72-.24-.72,1.44.48.48-.48.48.24.24.72-.72.72-.24.24ZM379.224,178.31l-.48.24-.48.48-.24.72-.48.24h-.96v-.24l-.24-.24-.24-.48.48-.48v-.24h.24l.24-.24.72-.24h.24l1.2.24Zm-2.16,81.8353v-.24l-.24-.24-.24.24-.24.24h-.24l-.24-1.2-.48-.48-.24-.72v-.48l.24-.48h.96l.48-.24.72-.24.72-.24v.48l.48,1.2v.48l-.72,1.44-.24.24h-.48Zm-20.6413,2.4-.24-.24v-.48h-.48v.24h-.96l-.24-.48-.24-.72-.72-1.44.72-.72.24.24v.72l.24.72h.24l.72-1.44v-.48l-.48-.48v.48l-.24-.24-.48-.24v-.48l.24-.24.24-.24h.24l1.44.48,1.68,1.2-.24.96-.24.72h-.72v-.72l.24-.24-.24-.24-.48-.72-.24-.24-.72,1.68.24.48.48.24h.24l.48.96v.24h-.72l-.24.24Zm23.5215-4.8.24-.24-.24-.24-.24.48-.72-.24-.24-.24v-.96l.24-.48.24-.24.24-.48.48-1.2h-.24l-.96.96-.72.72-.48.48-.24.24-.48.24-.72.24-.96-.48.24-.24v-.24l.24-.72.72-.96h-1.2l-1.68.24v-.24h-.24l-.48-.24-.72-.24h-.24l-.48-.24-.48-.24-.24-.48h-.48l-.24.24.24.72-.48-.24-.24-1.2.24-.48-.24-.48-.24.48-.72.96-.48.72-.24-.96h-.48l-.24.24h-.24l-.24-.24-.72-.96v-.48l.24-.24-.24-.96-.48-.96-.24-.72.24-1.2v-1.44l-.24-2.16.24-1.2.24-.72v-.48l-.48-2.16-.24-.96-.48-.48.24-.48.72.48h.48l-.48-.96-.72-.72-.72-1.68v-.48l-.72-1.44-.48-.48-.48-.24h-.24l-.24-.96v-1.68l.24-.72.24-.48v-.24l-.24-.96-.48-1.2-.72-.48-.72-.48-.48-.48v-.72l-.24-.72-.48-.72v-3.12l.96-1.44.48.24.24-.24v-.48l.24-.96v-.24l-.24-.72v-.48l.24-.48h.24l.24.24.48.48.48-.24v-.24h-.24l-.24-.48h-.48l-.48-.72-.24-.48v-.72l.24-.48.24.24.48.24.24-.24,1.2-.96.24.72.72.24.72-.72.72-.24.24-.24.72-.72v-.96l-.48-.48h-.24v-.24l-.72-.24-.24-.48.48-1.44h.48l.24.48.24.24.24-.48.24-.96v-.96l.24-1.2.48-.24.48.24v.24l.48.72.24-.24.24-.24.24-.96v-1.68l.72-.96.48-.48.48-.24.72-.24.24-.96-.24-.72v-.72l.24-.24h.72l.48-.48v-1.2l.24-.48h.24v-.24l.72-1.2.48-.48-.24-.24.24-1.68.72-.96.48-.72.48-.48.24-.48v-2.4l.48-1.44v-.72l.96-1.2.48-.24,1.2-.72.48-.48.24.24.72.48v.24l.48.48h.48v-.24h.24v-.24l-.24-.96v-.24l-.24.24-.72-.48-.24-.48v-.24h.72l.48.24h.48l-.48-1.2-.48-.72-.24-.24-.48-.24-.24-.72-.24-1.68v-2.4l-.24-.48v-.48l-.48-.48-.72-.48h-.48l-.24-.24-.24-.24v-.24l-1.44-.48h-.72v.24h-.72l-.96-.96-.24-.48v-.48l.24-1.2.24-.72-.24.24-.24,1.2-.24.48h-.48v.48l-1.44.24-.24-.24-.24-.24v-.48l-1.44-2.64-.48-.72-.24-.48-.24-.48-.24-.24h-.24l-.24-.24h-.24l-.48-.24h-.24l-.24-.96-.48-.96-.48-1.68v-.48l.48-.72.24-.72.24-.24.24-.24v-.24l-.24-1.68-.24-.48v-.48l.24-.72.24-.48-.72-.96-.48-.72-.72-.72-.24-.24-.24-.24-.48-.48-.96-1.68v-1.92h.48v-.24h.24v-.72l-.24-1.44-.24-.24h-1.44v.24h-.24l-.24-.24v-1.68l-.24-1.68-.24-.72-.48-1.68v-.96l.24-.24.48-.24.24-.48-.24-.48-.72-.48-.96-.72-.24-.24-.24-.24-2.4-3.12-.48-.24h-.24l-.24-.24-.24-.24-.48-.48-.96-.48h-.96l-.48-.24h-2.4l-.24-.48-.24-.24-.24-.24-.24-.24-.24-.24h-.24l-.24.24h-.24l-.24-.24-.24-.48-.48-.24v-.24h-.48l-.48-.24-.24-.24-.24-.48-1.44-1.2-.96-.72v-.24h-.96l-.24-.48.24-.48-.24-.48v-.24l-.24-.24h-.24l-.24-.24h-.48l-.48-.24h-.48l.24-.24.24-.48h.96l.72.24.24.24.24.24.24-.24v-.96l-.24-.24v-.48l-.24-.24-.24-.72.24-.24,1.2-1.92,2.16.24,2.4,3.12.24.24,1.2,1.92.72.72.48.48.24.72.48,1.44.48-.48.24-.24,1.68.48h.24l1.2-.24.24.24.48.48h.24v.24l.48-.24v-.24l.24-.24.48-.48.24-.24h.24l.48-.24.48-.24h.24v-.48l.24-.24v-1.2l.24-.24h1.2l.24.24.24.24.48.48.96.48h1.68l.48.24h.48v.24l.24.24.24.24.24.24.48.24.72-.96.24-.24-.24-.48v-2.16l.24-.24v-.24l.72-.96v-.24l.24-.24h.48l.24.24.24-.24h.24v-.48l.24-.48v-1.92l-.48-.96-.48-1.44-.24-.72v-1.68l.24-.24v-4.56l-.24-.48v-.72l.48-.48.24-.24.24-.24.72-1.92v-1.2l.24-.24.72-.24.96-.48.48.24.24.24h.96l.72-.72.24-.24v-.72l.48-.48.72-1.2,1.44-.72h.48l.24.72.24.48v.24l.96.72.48.24h.24v.24h.72v.24l.48.48v.24h.24l1.68.48h.48l.96.24h1.2l.24.24.48.96,1.2,2.16.24.24-.24.24-.48,1.44v.48l-.24.48-.24.24-.24.48v.24l-.24.72v1.44l.24.48.24.24.24.24.24.24h.48l-.24.24v.24h-.24l-.48.72-1.2,1.68v.72h.72l.72-.48h.24l.48.24.24.24v1.92l-.24.96-.48,1.68-.24.96,1.2,2.16,1.44,2.16.24.48.96.24,2.16.24,1.2.24.24.24,1.44,1.68,1.44,1.92h.24l1.44.72.96.48.24,1.92v.96l-.24.48v.24l-.48,1.2-.72,2.4-1.2,4.56v.48l-.24.72.24.24v.72l.24.48.24.24.24.48.72.72.24.24h.24l.48.48.24.48.48.72.24.24,1.44,1.92.24.48.24.48.24.24.48.72,1.44,1.68.24.24.24.24h.24v.24l.24.24.24.24.48.96,1.2,1.92.72,1.2v.24l.72,1.68.24.48h-.96l-.96.96.48.96v.72l-.24.24v1.2l.24.48.48,1.2-.24.48-.24.24-.24.72.24.48h.96l.24-.24h.48l.24.24.24,1.2-.24.48-.24.24h-.24l-.48.24v1.44l.48,1.2.24.24.24.24.48.48.24.24.24.24.24.24h.24l.48-.24h.24l.72-.24h.48l.24.24.96,1.44-.24.48v.24l-.48.48-.24.24-.24.24.24.48.24.48.24.24h.24l.24.24v1.2l.72.48h.48l.96.24h.48l1.44.72.24.24.72,1.92.24.48v.24l-.24.72v.24l-.24.48-.24.72-.48,1.92-.24.48-.48.48-.24.24-.24.24h-.24v.48l1.92,1.44.24.24.72.24h.24l.48.24.48.48.24.24,1.44.48h.48l1.68.72,2.4,1.2h.24l.24.24,1.68,1.92,1.2.96.96.96-.24.96v.24l-.24.48v5.04l-.72,1.92-.48,1.44-.72,1.2-.24.24-.48.96-.24.72-.96,2.88-.48,1.2-.48,1.2v.48l-.24.24-.48,1.92-.72,2.4-.72,1.44v.24l-.96,1.44-.72,1.44v.24l-.24.48v.96l-.24.24-.24.48-.48.72-.72.72-.96,1.2-.48,1.2v.72l-.24.48v.24h-.48l-.24.24-.24.48-.48.72-.24.72v.24l-.24.24-.24.48-.72,1.68-1.2,2.16-.48.96-.24-.48-.24.24v.48l.24.24-.48.24-.48.24-1.2.24.24.48-1.44-.24-.24-.24-.72-.72-1.2,1.2-.24,1.44-.48-.48-.72.24-.48.48-.48.48-.72.24-.48-.24-.24-.48.24-1.68v-.24l.24-.24h.72l.48.24-.48-.72-.24-.24h-.48l-.24.24-.24.96v.24l-.24,1.2.24.48v.48l-.24.72-2.16.48-.72-.24.72,1.44v.48l-.48-.24-.48-.48-.96-.48h-.48l.48.24.24.24.48,1.68h-.24l-.24-.24-.96-.24.48.48.24-.24-.24.72-.48-.24-.48-.24-.24-.24v-.96h-.24l-.48.48-.24.48-.24.96h-.72l-1.44.48-.24.48.48.24v.24l-.96.72-.72.48h-.72l-.96.24-.96.48.24.48-.24.48-.72,1.2-.24.24-.24-.72-.48-.48h-.24l-.24.24-.48.48-1.2.48-1.92,1.44-.72.24h-.48l-.72-.24-.24.24-.72.24.24-.72.48-.24v-.24l-.24-.72-.24.24-.72,1.92-.48,1.92-.48.24-2.16.72.24-.48.96-.96h.24l.24-.24.72-.48.24-.72v-.72l-.24.48v.48l-.24.24-.96.24v-.72l.24-.24.48-.24v-.24l.24-.48h-1.2v.24h-.48l-.48-.24v-.72Z"/>
</svg>
