<svg id="France" xmlns="http://www.w3.org/2000/svg" width="612" height="792" viewBox="0 0 612 792">
    <defs>
        <style>.cls-1{fill:#fff;fill-rule:evenodd;}</style>
    </defs>
    <path class="cls-1"
          d="M139.2088,430.2954v-.24h.24v.24Zm.72,24.2387-.24-.24-.48-.24h-.48l-.24-.24v-.24l-.24-.72.24-.24,1.68,1.44Zm16.081,20.6388-.24-.24-1.92-.96h-.24v-.24l-.24-.48h.96l1.68,1.2.24.72Zm0,5.52-.24-.96v-.24l-.24-.48-.48-.24-.24-.24-.24-.24v-1.68h.24l.24.24.72.72.48.72.48,1.2-.24.72-.24.24Zm26.6417,54.9568-.48-.72-.24-.24-1.68-.72h-.72l-.72.72-.24-.72-.24-.72-.24-.48h-.48l-1.68-.24-.24-.24-.24-.48-.48-.48-2.16-.72-.72-.48-1.2-.48h-.24l-.24.24-.48.72.24.72v.96l-.24-.24h-1.2l-.48-.24h-.96l-1.92-.48-.96-.48h-.24l-.48.24-1.44.24-.48-.48-.72-.96-.24-.24-.24-.24-.48-.24-.48-.48-.48-.48-.24.24-.72.48h-1.92l-1.68-1.92-.24-.48.24-.24-.24-.72-.48.24h-.24l-1.44-.48-.48-.24-.96-.72-1.44-.72-.96-.72-.72.48h-.48l-.48-.24-.24-.72.72-.48.48-1.2.24-.72-.24-.48-1.2-.24-1.44-.72h-.96l-.48-.72v-.24l.72-.24h.72l.96-.72.96-.96.48-.96.72-.96v-.24l.24-.48.24-1.44,1.68-4.08.24-.48.48-1.68.96-2.88.24-.96.24-.96.24-.72.48-.96.72-.24h.72l.48-.24v-.48l-.72-.96-.48-.24-.72.96-.24.48.24-1.44.96-3.84.96-2.88.48-2.64v-.24l.24-.48.24-.96.72-.96.24-.24v.72l.48.96h.24l.48.24.24.24.96,1.68.24.48v.48l.24,1.2v1.92l1.44,3.36v-1.92l-.48-.48-.24-.48-.24-.24v-4.32l-.24-.96-.24-.72-.24-.48-.48-.72-1.2-1.44-.96-.96-.72-.48-.72-.48.24-1.2h.96v-1.2l.96-.24.48-1.68v-.48l-.48-1.44-.24-.48.72-1.44v-.96l-.48-.24h-.48v.24l-.48-.24-2.16-1.68-1.68-.96-1.44-.96-.24-1.44v-.96l-.48-.96-.96-1.2-.24-.24-.24-.24-.24-.24v-.24l-.24-.48v-.24l.24-.72.48-.48.72-.72.48-.72v-.48l-.24-.24-.24-.48-.48-.24-.72-.24.48-1.68.24-.48h1.44l.72.24.24.24.24.24.72.72.48.24h.24l-1.44-1.44-.24-.24-.96-.48h-1.2l-.72.24-.96.48-1.68-.72-.48-.24-.48-.48.48-1.2.48-.48.24.24h.48l-.48-.72h-.24l.24-.72h.96l-1.2-.48-.72-.24-.96.24h-1.44l-.24-.24-.24-.72h.96l.24.24.72-.72v-.72l-2.16.24-.48.24-1.68-.48h-.24l-.24.96v.48l.24.24h-.48v-.72l.24-.48v-.96l-.24-.24-.24-.48-2.88-2.16-1.2-.48-1.44-.72-.48-.24-.48-.48-.24-.24-.48-.72h-1.44l-.72.48v.24h-.24l-.24.24-.48-.24h-.24l-.96-.24v-.48l.24-.24.24-.24-.24-.48v-.72l-.24-.48-.24-.24-.48-.48-.24-.24-.72-.24-.96-.24-.24-.24.24-.48h3.84v.24l.48.24.24-.24v-.48l-.24-.96-1.2-.72-.24-.24-.24.24-.24.24-.48.48-.48-1.92.72-.72h.48l-.24.48v.24l1.2.48,1.68.24h.72l-.96-.48-1.2-.48-.24-.24-1.68-.48h-1.68v-1.44l.48-1.44.24-.24.24-.24.48-.24h.72l.24.24v.24l.24-.24.24-.72.24-.24h4.08l1.92-.24v.72l.24.48.72.48.24-.24v-.48l.24-.48h.24l.96.24.48.48.24.24.48.24.72-.96-.24-.48v-.24l.48-.48.24-.24h.48l.96.48,1.68-.48.96.24.48.72,1.44,2.64.48,1.2.72,1.44.24.24v.24l2.64-1.68.48-.24h1.44l1.68.72.72.96.48,1.2h.24v-.96l-.24-.24-.24-.72.48-.72h1.44v.24l-.24.48v.48l.24.24h.24l.24.24h1.68l.48-.24.48.24h1.68l-.72-.48-.48-.24-.48-1.2v-1.68l.24-.72.48-1.68h-.24l-.24-.48v-.72l.48-1.92-.72-1.44v-.24l-.48-.72-.24-.24-.24-.24v-1.92l.24-1.2v-.96l-.24-.48h-.24l-.24-.24v-.72h.24l.72.24,1.2.72.48.48.48.24h1.2l.24-.24.72-.24h.24l.72.24h.24l.24.24.24.48v.72l-.48.24-.48.24v.72l.24.72.24.24.48,1.2.48.48.48-.24.96.24h.48l.24.24.48.24.24.24.96.24.96.24h.48l.72.24.96.24.48.24.72.48.48.48,1.44-.24h.72l.24-.24.96-.24.24-.24.24-.24.24-.24.24-.24h2.64l.48-.24.24-.24h-.48l-.48.24h-.72l-.72-.24-.96-.24-.24-.48-.48-.48,1.44-2.4.24-.24.24-.24.48-.24h.48l1.2-.48,1.68-.72h.24l.48-.24h.72l3.6-.48,1.68-.48,1.68-1.2.24-.24.48-.24.24-.24.72-1.2.24-1.44.48-.96.24-.24.24.24-.48-.72.48-1.92.24-2.4v-.24l.48-1.68.48-.96,1.2-.96h.24l.24-.24,1.44-.24,3.12-.48h1.68l.72-.24h.24l.24-.24.48,1.68v.96l.24,1.68,1.2,1.2.72.72.24.24.72-.72.72-.24.24-.24h.72l.48.24v.24l.24.24v.24l.24,1.2.24,1.92.24.24.72.48.72-.24h.72l.96.48.24.72.24.24v.72l.72.72,1.2.24h.96l.48-.24,1.2,1.44.24.72-.24,1.44-.48,1.92v.48h.24l.48.48h.24l.72-.24.96.48h.24l.24.24h.48l1.68-.72.24-.96v-.48l.72-.72.72-.48.48.72-.24.48-.24.48-.24,1.2.24,2.88.48.24h.24l.24-.24h.24l3.36,2.64.48.48.24.24.24.24.48.96-.24.48h.48l.72-.24.48-.24h1.92v.24l.24.24v.24l1.44.96h.96l.48-.48.24-.24h.96l.48.48h.24l.48.24.48-.24.48.24.48.24.24.48.48.96.96,1.92.24.72v.48l1.2.24.24-.48v-.48h.72l.96.48.72.96.48.24h1.44l.72-.48.24-.24.48-.24.72.24,1.2,1.68.24.24h.24l.72.24.96-.24h1.2l.96.72,1.2.48.72.24-.24.24-.72.96-.24.48v.24l-.24.48v.24l-1.44,1.2-.96.72-.72,1.44-.72,2.4v1.2l-.48.96-.96,1.68-.48.72v1.44l.48.48v.48l-.48.96-.24.72-.48,1.2-.24,1.44.24.48.48.48.24.48v.24h-.48v.24l-.24.24h-.24v.72l-.24.24-.48.24-.24.24v.24l-.48.24h-.24l-.24-.24h-.24l-.48.24h-.24l-.72-.24-.24-.96-1.2-.24-.48.24-1.2,1.92.48.24h.48l.24-.24-.24,1.2-1.68,1.92h.24l-.72.48-.96.96-.24.48-.48.48-.72.48h-.48l-.72,1.2-.24.96v.72l-.24.48-.72.48-1.2.48-1.44,1.44v.72l-.72,1.44v.48l.24.24.48.48-.48.96v.72l-.48.24h-.48l-.24.24-.24.24-.24.24.24.96h1.44l.72-.48.72-.72.24-.48-.24-.96-.24-.24.24-.24.72-.72h.24l1.92-.72.24-.24h1.2l.72.24.48.24.48.24.24.48-.24.24-.24,3.6.96.96.48.72.96.72.24.72v.48l-.72.72-.48.24-.24.24h-.24l-.24-.24-.72.48v1.68l1.68,2.16.24.96.96.96.72.72v.72l-.48,1.92-.72.48-1.44.72-1.2.24-.72-.24-.72.24-.72.48.24,1.2.96,1.92.24.24.72.72.72.24.48-.24h.24l.24.24.48.48-.24,1.2-.48.96-.48.24-1.2,1.92v.48l.24,2.16,1.2,1.44.48.72,3.6,1.92.72.24.48-.24.72-.24.96-.48.72.24-.24.48.72.72-.24.24-.48,1.2-.72.48-1.2,1.44.24.96.24.48h-.72l-.48.48v-.24l-.48.24v.48l-.96.24h-.72l-1.2.72-.96,1.2-2.16,2.16h-1.2l-1.68,1.68v.48l.48.24-.72,1.44-.48-.24h-.72l-1.44.48-2.64.48-.24.72v.24h-.24l-.24-.24-.72-.48-1.2-.48-.24.48-.72.48h-.48l-.48-.72.48-.24-1.68-1.2-1.68-.48-1.44-.24h-.48v-.48l.24-.24v-.96l-.24-.48-.48-.24-.48.24-.48.24-1.44-.24h-.72l.24-.72.48-.24.72-.24.48-.24.48-.48v-.24l-2.16-1.2-.24.72v.48h.48l-.24.48-.24.24h-.72l-.48-.24-.48.24-.24.24h-.48l-.24-.24-.48-.48v-1.2l-.24-.72v2.64l.24.48h-1.92l-.24-.48.48-.48-.24-.48h-.48l-.48-.24h-.96l-.96-.24v-.48h-.96v.24l.48.48-.96-.24-.48-.24-.24-.48v-.48l-.24-.24-.48-.24-1.2.24-.48.24-.96.72-1.44.72-2.16,1.44-1.68.24-.96.24-.24.24-.48.24-1.68,1.44-.72.96v.48l-.48,1.2-.72,1.2-.48.48v.48l.24.24h.24l.24,1.2-.24,1.92.24.96.48.48h.48v.72l.24.48v.24h-1.2l-.24-.72-1.2-.24-2.64.72-.72.24-.24.24.24.48-1.68.24-.72-.48-.24-.48-1.2-.72-.72-.48-1.44.24-.48.24-.24.48h-.48l-.48.24-.24-.24-.24-.24v-.72l-.72-.48-.48-.48-.96-.48-.48-.24v-.24l.24-.72Z"/>
</svg>
