<svg id="Greece" xmlns="http://www.w3.org/2000/svg" width="612" height="792" viewBox="0 0 612 792">
    <defs>
        <style>.cls-1{fill:#fff;fill-rule:evenodd;}</style>
    </defs>
    <path class="cls-1"
          d="M448.1084,580.2869h-.96l-1.2-1.68h.24l2.4.96v.24l-.24.24Zm13.6808,23.5187v.48h.48l.24.24.24.24-.48.96-.24.48h-.24l-.24.24-.48-1.92.24-.48.24-.24.24-.24Zm-13.2008-6h.48l.24.96v.24l-.96.72h-.72v-.72l.24-.96.48-.24Zm27.6018,16.559-.24-.24-1.2-.96-.24-.48.24-.24.24-.24.24.24,1.44.48-.24,1.2Zm-63.124-15.5991h-.24l-.48-.72-.48-.48-.48-1.2.24-.48h.24l.72.72.48,1.2.48.72-.24.24Zm46.8029,4.56h-.24l-.24-.96v-.72l.24-.48.24-.48h.72l.24.24v.96l-.24.24-.48.96Zm35.7623,1.92h-.48l-.24-.24-.96-1.92.96.24h.48l.96.72v.72Zm-5.28,6.96-.72.48-.24.96h-.24l-.24.24-.24-.24h-.24l-.48-.48v-.48l1.2-1.2h.48l.72.48.24.24ZM466.59,553.4084l.72.24v.72l-.24.24-.72.48h-.48l-.72-.24-.24-.24-.48-.24-.24-.24.48-.24.48-.24v-.24h1.44Zm-3.36,63.5964h-.24v-1.68l2.16-.72h.48v1.44l-.72.24-.72.24Zm9.8406-7.44h-.72l-.24-.24h-.48v-.72l.24-.72v-.48h.24l.72-.48.48-.24.24.24v1.92Zm-4.08-10.5594.24.24h.72l.72-.24.24.24h.48l.24.24v1.2l-.24.24h-.72l-.72-.24-1.68-.96-.24-.48.24-.24h.72Zm-9.6006-15.8391h-.24l-.24-.24-1.44-1.44v-.24l-.24-.72v-.24l.24-.24h.48l.96.48,1.44,1.44.24.24v.48l-.24.24h-.48l-.24-.24-.24.24Zm37.2024,26.1585h-.24l-.24-.24-.48-.24v-.72l1.44-1.68.96-.96.24-.24,1.2-.48h.96l.24.24-.24.24v.24l-.48.24h-.24l-.48.24-.24.24-2.16,1.44-.48.24v1.2Zm-50.1632,15.3592.24.24.24.48.24.24h.24l.96.48.24.24.24.24-.48,1.44-.24.24h-.72l-.72-.48h-.24v-.24l-.24-.48-.48-1.44.24-.96ZM480.99,599.0058v-.48l.48-1.44.24-.24,2.88-1.44.48-.24v.24l-.24.72-.24.24-.24.48-.72.72-2.16,1.2Zm22.5615,29.7583-.48-.48-1.2-2.4-.24-.24.48-1.2.48-.96-.24-.24v-.48l-.24-.48.72-.48h.24v3.6l.96,1.92-.48.48Zm-91.9258-38.3978v.24l.24.24.48,2.88-.96.96-1.2.24v-1.92l.24-1.44.48-.96Zm42.7227-35.518v-.24l-.48-.24-.24-.24h-.24l-.48.24-.24-.24-.24-.48.24-.48v-.48l.24-.48.24-.48.24-.24.24-.24h.24l.48.24h.48l.48.24v.24l.48,1.44v.48l-.96.72ZM467.79,599.0058h-.24l-.48-.24-.72-.72-.72-.72-.96-.72h-.72l-.48-.72v-.72l.48-.48h.48v-.24l2.64,1.68.72,1.68v1.2Zm8.6406,10.7994h-.24l-1.68-2.16v-.24l1.68-2.16.48-.24.24.24.24.24.24.48.24.24v2.64l-.72.72Zm-60.4838-.72h-.24l-1.44-.96v-.24l-1.2-1.2-.24-.48v-.48l.24-.24.24-.48.48-.24,1.2,1.2h.96l.24.24.24.24,1.44.96v.48l-.72-.24h-.96l-.24.72Zm75.1247-14.3992-1.2-.72-.48-.24-.24.24-.48.24-.24.24h-.24l-.24.24v-.24l-.48-.72.24-.48.72-.72.72-.24.24-.24,3.12-.24h.48l.72.72v.24l-.24.24-1.68.96ZM465.87,561.568l-.48.96-.24.72-.24.48.24.48.24.24.24.24-.24.48h-.48l-.24-.24-.48-.72v-.48l-.24-.24h-.24l-.24.48-.24.72.24.24.48.24-.72.24-1.44-.48-.24-.24-.48-1.44v-.48l.96-.48,1.2-.24.48.24,1.2-.48.96-.72Zm-66.9642,14.8791h.24l.72.24.24.24v.72l-.24.24-.48.24-.24.24v.72l.96.24.48,2.4,1.2.48h.24l.24-.24.96.96-.24.24h-.24l-2.64-.96-.48-.48-.24-.48v-.48l-.24-.48-.24-.24-.96-.24-.96-.72-.48-1.2v-.48l.24-.24h.24l1.2-.24h.24Zm80.165,12.4793h-.24l-.24-.24-.72-.24-.96-.48v-.48l.48-.48.24-.24.48-.72v-.72l-.96-.96-.48-.24h-.24l-.48-.24-.24-.24-.24-.24v-.72h.24v-.24h.24l1.44-.48h1.92v.24l.24.24.24,1.68v.24l.24.72.24.72.24.24-.72,1.2-.48.96v.24Zm-68.4043,7.68.72.96,1.2,1.68,2.16,2.4-.24.96h-3.12l-.48-.24-1.92-.48-.48-.48v-.24l.24-.48.24-1.68h.48l.48.24.24-.24.24-.24.24-.24v-.72l-.24-.24v-.96l.24-.24Zm102.2465,12.2393v-.24l.48.24v2.4l-.24,1.44-.24.48-.48,1.44-.48.72-.48.72h-.24v.48l-.24.48v.48l-.24.48-.24.48-.48.48h-.48l-.48-.24-.24-.24v-.72l-.48-1.92-.48-.96.48-1.68.24-.24.72-.96.24-.24v-.24l1.92-1.44.24-.48ZM479.79,569.4875l-.24.48v.48l.48.24.96.24.96.96,1.2,1.2v.24l.24.24v.24l-.96.72-.96.48h-.72l-.72.24-1.92-.24-.72-.24-.48-.48v-.24l.72-.48,1.2-1.2v-.24l-.48-.24h-.72l-.24.24v.72l-.48.72-.24.48-.24.24-.24-.24h-.72l-1.2-.24-.48-.24-.48-.24v-1.2l.24-.24.24-.48h.24v.24h.48l.24-.24,2.16-1.2v-.48l-.24-.24.24-.24.48-.24h1.2l.96.24Zm-25.6816,21.1188v-.24l-.72-.24-.24.24-.48.24h-.24l-1.44.24h-1.92l-.48-.72v-.72l-.24-.48-.48-.48-1.44-.72-2.16-1.2-1.92-1.2-.72-.24-.24.24-.24.24-3.36.72v-.72l.96-.48,1.92-1.92.24-.24,1.68-.96h.48l.96.48,1.2,1.68.24.48.72.24,1.2.72,2.16.48,1.2.24h1.2l.72-.24h1.92l.24,1.2.96,2.64,1.44,2.64.48.24.72.48h1.68l1.2-.48.48,1.2v1.44l-.48.48-.48.24-1.2-.48-.96-.72-1.92-1.44-.96-.72-.72-.96Zm5.04,50.6371h-1.2l-.96-.72-.24-3.84v-.72l.24-.48v-.24l.24.72.24.72.48.24.96-.24v-.72l-.24-.24-.24-.72-.24-.72.48-.48.48.24v.72l.24.72.24.24.72.24h1.68l.48-.24.48-.24.24-.48v-.48l.48-.48h.72l.72.72-.24.72h-.24l-.48.24-.24.24.96.24,1.44,1.2.96.24.24-.24,1.44-.48h.24l1.44-.72.24-.24,2.16-.48,2.16-.48,1.2.24.24.24h1.92l.96-.24h.48l.96-.24.24.24.48.24h.24l.48-.24.96-.48.72-.48.48-.24,1.44-.24-.48.72.24.48h.24v.48l-.24.24v.72l.24.24v.24l.48.24h.72l.72-.72.24-.48,1.68-1.2h.96l1.2-.72.96-.96.48,2.4v.72l-.24.96-.48.24-.72.72h-.48l-1.68-.24-5.04,1.68-.48.24-.48.24-2.4.48-1.68.96-2.16.96-1.2.24h-1.44l-.96.24v-1.2l-.24-.48-.24-.48-.24-.24h-.48l-.72.24h-.96l-.24-.24-.24-.24-2.16-.24-2.64.24-.72.24h-.48l-.48.24h-.24l-1.2-.24h-1.68l-1.68.48Zm-43.4428-54.9569-.48.72-1.44-.48-1.44-.72-.48.48v1.2l.24.24.72.48-1.2.24-.48-.48v-.24l-.24-.72-.24-.24-1.92-1.44-.96-1.44h-1.68l-.72-.48-1.2-1.68h.24l-.24-1.2-.96-1.68-1.44-.48-.72-.24h.24l.96.24.48.24h.96l.96-1.68-.24-.48-.24-.48.24-.24.96.24.24-.24v-.72l-.72-.48-.48-.48-.24-1.2,1.2-1.2.24-.24h1.2l.24-.24h.48v-.24l.48-.24.48-2.16-.24-.72.24-.48.24-.24.24-1.44-.24-.48.48-.48,1.2-.24.24-.24.96-1.68v-.72l-.24-.96-.48-.48-.72-1.2v-.96l1.68-.24.24-.24,1.92-.48h.48l.24-.24.24-.48,1.44-.24.24.24.48.24h.24l2.16-1.2.96-2.4v-.48l.72-.72,2.64-.96.48-.24.72.24.48.24h1.2l.48-.24,1.2-.24,1.68-.72v-1.68l-.24-.72.24-.48.24-.24,1.44-.24h2.4l.72-.24.24-.24.24-.24v-.48l.48-.48,1.68-.48h2.4l1.2-.72.48-.48,1.2-.48h.96l.96-.96-.24-.48.24-.48h.96l.48-.24v-.24l.48-.24.72.24,1.92-.48,1.2.72.72.72,2.16.72h.48v-.72l.96-.24,1.68.24h.24l1.44.48.24.24.72.48.48.24.72-.24,1.92-1.2.48-.48.96-.24,1.92-.72.96.24h.24l.72-.48,1.68-.96.48-1.44-.48-1.44-.96-1.2h-.24l-.48-.48-.24-.48v-.24l.72-.72h.24l.72-.24.72.48h.24l.72-.24.48.24,1.68.48.48.24.72.96.96,1.92v.96l-.24.24-1.92,1.68-.48.24-.48.48.48,2.16.96.96v.96l-.72,1.2-.24.24-.48.24-.24.96-.48,1.2-.24.48h-.48l-.24-.24-.24-.48.24-.48-.48-.24h-1.2l-1.44.24-.24.24h-.24l-.48.24h-1.68l-.96-.24h-.96l-.96-.24h-.48l-.96.24h-.72l-.48-.24.24-.48-.24-.24-.72.24-.48.24-1.44,1.68-.48.24-.48.96h-.24l-1.68.24-.48-.48-.72-.72h-.72l-.72.48-.48.24-.48.72-.24.24v.72l-1.44,1.92-.72.48h-1.44l-.72-.24-.48-.24h-.48l-1.44.96v.96l1.44,1.2.48,1.2.24.72.48.48.48.24.48.24h.48l.48-.24,2.16.24.96.24,1.92,1.92.24.48-.72.48h-.24l-.24-.48-1.92-1.68h-.48l-.24.24h-.72l-.24-.24h-.24l-.48-.24-.24-.24-.24-.24h-.48l-.72.24-1.2.48-.24.48v.96l.48.24.96.72h1.44l.96.48.24.24.48,1.44v.96l-.48.24-.24.24-.48-.48-.96-.72-.72-.96-.48-.48-.48-.48-.48-.24-.24-.48h-.48l-3.12-.24-.24.24-.24.24v.72l.48.96,1.68,1.2.48.24,1.2.24.96.24.96.72-.24.24h-1.44l-2.16-.24-.72-.24-1.2-1.92v-.96l-.24-.48-.24-.24-.48-.24-1.2-.24-.72-.24-2.88-.96-.96-1.2.24-.48h.24l.48-.24.24-.24.24-.48-.72-1.2h-.48l-.48.24v.48l-.24.48-1.2,1.2-.72.24-.48.72.48.96.24.24v1.68l-.48,2.16.48,1.44.48.72h.24l.24.24.96.24,2.4,2.4.24.48v.48l.96,1.44.24.48.24.24.96.48,1.44.96.24.24,1.92,1.44.24.24.96,1.2.24.72-.24.48-1.2.96-.48.24-.48.24-.48.24-.48-.24.24-.72h.48v.48l.72-.48.48-.48v-.48l-.72-.96-.24-.24-.72-.48-1.68-.48h-.72l-1.2,1.68v.48l.24.48.24.24.24.48.24-.24.48.24.96.48.48.72v.24h.96l-.24.24-.48.72-.72.96-1.2.96-.96.48h-.72l-.48-.24h-.48l-.96.72.48.48h.72l.72-.24h.48l.72.48,2.4.24,1.68.72.48.48.24.24h.24l.48-.48,1.2-.24h.48l.48.48-.24.72.48.48.72.24h1.68l.96.48v.24l.96,1.2h.24l1.68.24h1.68l.48.24,1.68.96v.72l-.48,1.44.24,1.44.72,1.68.24.24.72.72v1.92l-.24.48h-1.2l-.48-.72-.24-.72-.48-.24-.48-.24-.48-.24h-.48l-3.12-1.92.24-.24v-.48l-.24-.24-.72.24-.72.48-.24.24-.24.24-.96.48-1.2.24-.72.48-.24.48-.24.24h-.24l-.48.24h-.48l-.24.48.24.48h1.2l.72,1.2.72,2.16.48.24,1.2.48.72.24.24-.48-.24-.48-.48-.24,1.2.24.24.72.48.48.72.24.24.24.24.48-.24.24-.96.24h-.96l-.96.48-.48.48v1.2l-.24.24h-.48l-1.2-.72v-.48h.24l.48-.72-.24-.24-2.16-.72-.48-.24-2.16-.48h-.24l-.48.48.48,1.2.48,1.2.72.72,1.68,2.64v.48l.24.48h.24l.24-.24h.24l.96,1.44v.48l.24.72.72.96.72.72.24.72-.24.48-.24.24-.24.24v1.2l.24.24.72.72.48.24,1.44,1.68-.72.48-.72-.24-1.68-.96-.24-.24-1.2-1.44-1.92-2.16h-.48l-1.2.24-.48.24-.24.24-.48,1.92-.24,1.2.24,1.2.24.48.24.48v1.2l-.24-.24-1.2-.96-.48-.96-.72-2.64-.96-1.68-.96-.72-.72-.24-.72-.72v-1.2h-1.44l-.24.24-.48.24-.48.48-.24.24.24,1.92.24.72h.48l-.24.72-.72.72-.48-.48-.24-.48h-.72l-.24.24-.72-.48-.24-.24-.24-.72.24-.72v-.24l-1.2-.96-.24-.24-.48-.48-.48-1.44v-.72l.24-.48.48-.24.24-.48.24-.96-.24-.72-.48-.72-.24-.24-.72-.96-.24-.48-.48-.24-.24-.24-1.92-.96-1.68-1.92-.96-.48h-.96l-.48-.24-.24-.48.24-.96h.72l.24-.24.72-.96.48-.48.24-1.44v-1.68h.96l.24.24.96.24h.72l.48-.24.48-.24.48-.72v-.96l.48-.72.72-.48,1.44-.24.96.48.24.24,1.68.96.72.24,2.16.24h1.92l1.68.48.96.24.48.48.72.48.72.48.72-.24.48-.24.24-.48-.48-.24-.72-.24h-.48l.24-.48.72-.48h1.92l.24-.24.48-.24.72-.48-.24-.96-1.44-.48h-1.2l-.72.24h-.24v.48l-.24-.24-1.2-.24h-.72l-1.2-1.2-1.44.24-.72-.24-.24-.48-.72-.48-.72-.24-.24.96.24.48-.24.24-2.16.48-.48-.24-.48-.24-1.2-.24h-1.2l-2.64,1.44h-.72l-.24.24-.48.24-.72.48-.96-.72-1.44-.72-.24.72-.72.96-.24.24-.96.48-.96-.72.24-.48.24-.24-.48-.48h-.24l.24-.24-.48-.96-1.68-2.4-1.2-.72-1.2-.24h-.48l-.48-.72-.24-1.68.48-.48,2.16-.48.96.24v.48l.24.24.48.24.48-1.2.24-.96-.24-.24-.72-.72Z"/>
</svg>
