<svg id="Hungary" xmlns="http://www.w3.org/2000/svg" width="612" height="792" viewBox="0 0 612 792">
    <defs>
        <style>.cls-1{fill:#fff;fill-rule:evenodd;}</style>
    </defs>
    <polygon class="cls-1"
             points="401.545 466.533 401.065 466.773 399.865 467.973 399.865 468.453 399.865 469.413 399.865 470.373 399.385 471.333 399.145 471.573 399.145 472.053 399.145 472.773 399.145 473.253 398.185 473.973 397.945 474.213 397.225 474.213 395.785 473.973 395.545 473.973 395.065 474.213 395.065 474.453 394.825 474.693 394.585 475.653 394.585 475.893 394.345 476.373 393.625 476.613 393.145 476.373 392.905 476.133 392.665 476.133 391.945 476.133 390.505 476.613 389.785 477.093 389.785 477.573 389.785 477.333 389.065 477.093 388.105 476.853 386.424 477.093 385.224 477.573 384.024 477.573 383.544 477.333 383.064 477.333 382.104 477.573 381.624 478.293 381.624 478.533 381.144 479.253 379.464 480.933 378.024 480.933 377.784 480.693 377.304 480.693 376.344 481.653 374.904 482.612 374.664 482.612 374.424 482.612 374.424 482.852 374.184 483.092 373.464 482.852 372.504 483.812 372.264 484.292 371.784 484.772 370.583 485.732 370.343 485.732 369.623 485.732 368.663 485.732 368.423 485.492 367.943 485.492 367.463 485.492 366.023 485.732 364.583 485.972 362.183 485.252 361.943 485.012 361.943 484.532 361.703 484.292 360.983 483.812 359.783 483.812 359.303 484.052 359.063 484.052 358.583 483.812 358.103 483.572 357.383 482.852 357.383 482.372 357.143 481.893 356.423 480.933 355.943 480.453 354.742 480.213 354.022 479.973 353.542 479.733 353.302 479.493 353.062 479.253 352.822 478.773 352.822 478.293 352.342 477.813 351.862 477.573 350.182 476.613 349.942 476.373 349.702 476.373 348.742 476.133 347.302 473.733 347.062 473.253 346.822 472.773 346.582 473.013 346.342 472.293 346.102 471.813 346.342 471.573 346.342 471.093 345.862 470.613 345.622 470.613 345.142 470.613 344.662 470.853 344.182 470.853 343.942 470.853 344.182 470.613 345.142 469.413 345.382 468.933 345.622 468.453 346.102 468.453 346.822 468.453 347.302 468.453 347.782 468.213 347.782 466.533 347.062 466.053 346.582 465.333 346.822 464.613 347.062 464.374 347.302 464.134 346.822 462.694 346.822 461.974 348.262 461.734 348.742 461.254 349.222 460.054 349.222 459.814 348.742 458.614 348.262 458.374 348.022 458.614 346.822 458.374 346.102 458.134 346.342 457.654 347.302 456.694 348.022 456.454 348.262 456.454 349.222 456.934 349.222 457.174 349.702 457.414 350.182 457.414 351.142 457.174 351.622 457.174 352.582 456.934 352.822 456.454 352.582 455.974 352.582 455.494 352.342 454.774 352.342 454.294 352.822 452.614 353.062 452.134 353.302 451.894 353.542 451.894 354.022 451.654 354.262 451.654 354.262 451.894 354.742 452.134 355.223 452.134 355.943 452.854 356.423 453.334 356.663 453.574 356.903 453.814 359.303 455.254 360.263 455.494 361.463 455.254 362.183 455.014 363.383 455.014 363.863 455.014 364.583 455.014 365.783 455.014 366.023 455.014 366.503 454.774 366.743 454.534 367.223 454.294 368.183 454.294 368.663 454.294 369.143 454.294 369.383 454.294 369.623 454.054 370.103 453.574 370.343 453.334 370.583 453.094 371.303 453.094 371.303 452.854 370.823 452.614 370.343 452.374 370.103 451.654 370.103 450.934 370.583 449.734 370.823 449.494 371.303 449.254 372.024 449.254 372.264 449.014 372.744 449.014 373.704 449.014 374.424 448.774 377.064 448.054 377.304 447.334 377.304 446.615 377.544 446.135 378.504 445.655 378.744 445.655 379.944 445.895 380.184 445.895 381.624 446.855 381.864 446.615 382.104 446.375 382.584 445.895 383.064 445.895 383.304 445.415 383.784 444.935 384.744 443.975 385.224 444.215 385.464 443.975 385.704 443.735 385.944 443.495 386.184 442.535 386.184 441.815 386.424 441.335 386.424 441.095 386.905 440.375 386.905 440.135 387.145 439.655 388.345 438.935 388.825 438.695 390.025 438.455 390.265 438.695 390.505 438.935 391.465 439.175 392.905 439.175 393.625 438.935 394.585 438.695 395.065 438.215 396.265 437.495 396.985 437.735 398.425 438.455 398.425 438.935 399.865 440.375 400.345 440.615 400.825 440.375 401.065 440.135 401.785 439.655 402.265 439.655 402.746 439.415 403.226 439.415 403.466 439.415 403.946 438.935 404.186 438.935 404.666 438.695 405.386 438.695 405.386 439.415 406.346 440.615 406.826 441.095 407.546 440.855 408.026 440.855 408.986 441.575 409.226 442.055 409.466 442.535 409.706 442.775 409.946 442.775 410.186 442.775 410.906 442.295 411.386 442.295 412.106 442.775 412.586 443.255 412.346 443.975 412.826 444.455 412.106 446.375 410.906 447.814 410.666 447.814 410.426 448.054 409.946 448.054 409.226 447.814 408.986 447.814 408.746 447.814 407.546 448.774 407.066 449.254 406.826 449.974 406.586 450.934 406.586 451.174 406.586 451.414 406.346 451.414 405.866 451.654 405.146 452.614 404.906 453.094 404.906 453.574 405.146 453.814 405.146 454.294 405.386 454.774 405.146 455.014 404.906 455.254 404.426 455.494 403.946 456.454 403.946 457.654 403.946 458.134 403.466 459.574 403.226 459.814 402.986 460.054 402.505 461.014 402.505 461.254 402.986 461.254 402.746 461.974 402.265 463.414 401.545 464.374 401.305 465.573 401.785 465.813 401.545 466.533"/>
</svg>
