<svg id="Iceland" xmlns="http://www.w3.org/2000/svg" width="612" height="792" viewBox="0 0 612 792">
    <defs>
        <style>.cls-1{fill:#fff;fill-rule:evenodd;}</style>
    </defs>
    <polygon class="cls-1"
             points="64.564 150.231 64.804 149.991 65.524 149.271 67.204 148.792 67.924 148.552 68.164 148.552 68.164 149.031 68.404 149.031 68.404 149.271 68.884 149.751 68.404 149.271 68.644 148.792 68.404 148.792 68.164 148.552 68.644 148.312 68.884 148.312 69.364 148.552 68.644 148.072 67.924 148.312 66.004 148.552 65.284 148.792 64.564 149.271 63.844 149.271 63.844 149.031 63.604 147.352 63.844 145.672 64.564 145.432 64.804 145.432 65.044 144.472 65.044 143.512 64.084 143.272 63.124 142.792 61.924 142.312 61.444 142.072 60.964 141.832 60.244 141.352 60.004 141.112 59.764 140.872 59.764 140.632 59.044 140.392 58.084 140.152 57.124 140.392 57.124 140.632 56.884 140.632 56.644 140.632 55.684 140.392 55.444 140.392 55.203 139.912 55.203 139.432 55.203 138.472 55.203 137.752 55.444 137.272 56.404 137.272 56.884 137.512 57.124 137.512 57.364 137.992 57.604 138.232 57.604 138.472 57.844 138.472 58.084 138.472 58.804 138.472 59.044 138.232 59.284 138.232 60.244 138.472 61.204 138.472 61.444 138.232 61.684 138.232 62.884 138.952 65.044 139.912 65.284 139.672 65.524 139.672 65.764 139.672 66.964 140.152 67.204 140.152 67.444 140.392 67.684 140.632 67.924 141.112 69.124 141.832 69.844 142.072 70.324 141.592 71.525 140.392 71.525 140.152 71.765 139.912 71.525 139.672 71.285 139.672 71.045 139.672 70.804 139.912 70.564 140.152 70.324 140.152 69.604 140.392 69.364 140.152 68.884 140.152 67.924 139.192 66.484 137.992 67.204 137.272 68.164 136.792 68.644 136.792 68.884 136.792 69.124 136.792 69.364 136.792 69.604 136.792 70.084 136.792 70.804 136.552 71.285 136.552 71.525 136.312 72.005 136.312 72.485 136.312 72.725 136.312 72.965 136.552 73.205 136.312 73.685 136.312 72.965 136.312 72.485 135.832 72.245 135.352 72.245 134.632 72.005 134.632 71.285 134.632 70.564 135.112 70.324 135.112 70.084 134.632 70.084 133.912 70.324 133.912 70.564 133.912 71.045 133.672 71.525 133.672 71.525 133.432 72.245 132.952 72.005 132.952 71.765 133.192 71.525 133.192 71.285 133.432 71.045 133.672 70.804 133.672 70.324 133.432 69.364 133.192 69.124 133.192 68.884 132.712 68.404 132.472 67.924 132.712 67.684 132.472 67.444 132.472 67.444 131.513 67.204 131.033 66.244 131.273 66.244 131.033 66.004 131.033 65.524 130.793 65.044 131.273 64.804 131.273 64.564 131.273 64.324 131.273 63.844 130.793 62.164 130.553 61.924 130.553 61.444 130.793 61.204 130.793 60.244 130.553 60.004 130.553 59.764 130.313 59.764 130.073 59.764 129.833 59.764 129.593 60.004 129.113 59.044 128.393 58.564 127.913 57.844 127.673 57.364 127.673 57.124 127.433 57.124 127.193 57.604 126.953 58.324 126.953 58.564 126.713 58.804 126.473 58.804 126.233 59.284 125.993 59.524 125.993 60.004 126.713 60.244 126.953 60.244 127.193 60.484 127.673 60.484 127.913 60.964 128.873 61.204 128.873 61.204 129.113 61.684 128.873 61.204 128.393 60.964 127.433 60.724 126.953 60.724 126.713 60.724 126.473 60.964 126.473 61.444 126.953 61.684 127.193 62.164 127.913 62.164 127.673 61.924 127.193 61.924 126.953 61.684 126.713 61.444 126.473 61.444 126.233 61.204 126.233 61.204 125.993 61.204 125.753 61.204 125.273 61.204 125.033 61.444 124.313 61.684 124.313 61.924 124.073 62.164 124.553 62.644 125.033 63.124 125.993 63.364 126.473 63.604 126.713 63.844 126.953 63.844 127.193 64.084 127.193 64.084 127.673 63.844 128.153 64.084 128.393 64.804 128.393 65.284 128.393 65.044 128.153 64.804 127.913 64.564 127.433 64.564 127.193 64.804 127.193 65.044 127.193 65.284 127.193 65.764 127.433 66.484 127.673 66.964 127.193 66.724 127.193 66.484 127.193 66.244 127.193 65.524 126.953 64.804 126.713 64.804 126.473 64.564 126.473 63.844 125.753 63.604 125.513 63.604 124.553 63.604 123.833 63.844 123.833 63.844 123.593 64.084 123.353 64.324 123.353 64.564 123.353 65.044 124.073 65.284 124.313 66.244 125.273 66.964 126.233 67.204 126.233 67.444 126.233 66.964 125.753 66.484 125.513 66.244 125.033 65.764 124.313 65.524 124.313 65.524 124.073 65.044 122.873 65.044 122.393 65.044 121.913 65.284 121.673 65.524 121.433 65.764 121.433 66.004 121.433 66.484 122.153 66.964 122.633 67.204 123.353 67.444 123.593 67.444 123.833 67.444 123.113 67.444 122.873 67.204 122.393 67.204 122.153 66.964 122.153 66.724 121.673 66.724 121.433 66.724 120.953 67.444 120.713 67.924 120.473 68.404 120.473 68.644 120.473 69.124 120.953 69.364 121.193 69.844 122.153 70.324 123.113 70.324 123.593 70.084 124.073 70.804 125.273 71.525 124.553 72.005 124.793 72.005 125.513 72.005 125.753 72.005 125.993 72.005 126.473 71.765 126.713 71.525 126.953 71.285 127.193 70.804 127.673 70.564 127.913 70.564 128.153 71.765 127.193 72.245 126.473 72.485 126.473 72.485 127.433 72.245 128.153 72.005 128.153 71.765 128.393 71.765 128.633 72.005 128.633 72.005 128.393 72.485 128.153 72.485 127.913 72.725 127.673 72.725 127.433 72.965 126.953 73.205 126.473 73.205 125.033 72.965 124.313 72.725 124.073 72.485 123.833 72.245 123.593 72.245 123.353 72.005 123.353 71.765 123.113 71.765 122.873 71.525 122.393 71.525 121.913 71.525 121.673 71.525 121.433 72.005 121.433 72.485 121.433 72.725 121.433 73.205 121.673 73.445 122.153 73.685 122.393 73.925 122.633 74.645 122.393 74.885 122.393 74.645 122.153 74.405 122.153 74.405 121.913 73.685 121.433 73.445 121.193 72.965 120.473 72.245 120.473 72.005 120.473 71.765 120.233 71.525 119.993 71.285 119.513 71.045 119.273 71.045 119.033 71.285 119.033 71.525 119.033 72.245 118.793 72.485 118.073 73.445 118.073 73.685 118.313 73.925 118.313 74.405 119.033 75.125 119.273 76.085 119.993 76.565 121.913 76.325 122.873 77.045 123.353 77.765 123.593 78.245 125.513 78.245 125.993 78.245 127.433 78.005 127.673 77.765 128.153 78.245 127.673 78.965 127.913 79.445 128.873 79.205 129.353 78.245 129.353 77.765 129.353 77.765 129.593 78.005 129.593 78.005 129.353 78.485 129.593 78.965 129.593 78.965 129.833 79.445 130.313 79.445 130.553 79.205 131.033 78.965 131.513 77.765 133.192 77.285 133.432 76.805 133.672 76.565 133.432 75.845 133.192 75.845 132.472 75.845 131.992 75.845 131.753 75.605 131.513 75.365 131.513 75.365 133.432 75.365 133.672 75.605 133.912 75.845 134.152 76.085 134.152 76.325 134.152 76.565 134.392 77.045 135.352 76.805 135.592 76.805 135.832 76.565 136.312 76.325 137.032 76.565 137.992 76.325 138.472 76.085 139.432 75.605 141.112 75.365 142.312 75.605 142.312 75.605 141.832 75.845 141.112 77.285 138.232 77.285 137.992 77.525 137.992 77.525 138.232 77.765 138.712 78.005 138.472 78.005 137.992 78.485 137.272 78.965 136.552 79.205 136.552 79.445 136.312 79.925 136.072 81.125 135.832 81.365 135.592 81.605 135.592 81.605 136.072 81.125 136.792 80.885 137.512 80.645 137.992 81.125 139.192 81.365 139.192 81.605 139.192 83.045 137.512 84.005 136.552 84.245 136.312 84.245 136.072 84.485 135.592 84.725 134.152 84.725 132.952 84.725 132.472 85.205 131.753 85.205 131.273 85.445 130.553 87.366 130.553 87.846 130.793 87.846 132.712 87.606 133.672 87.606 134.152 87.606 134.632 87.846 134.872 88.086 135.112 88.086 135.352 88.326 135.352 88.326 135.832 88.086 137.032 88.086 137.272 88.086 137.512 88.086 137.752 88.326 137.752 89.046 138.472 89.286 138.472 89.766 137.752 90.006 137.032 90.246 136.312 90.246 135.592 90.246 135.352 90.246 135.112 90.486 134.632 91.206 133.672 91.206 133.432 91.686 133.432 92.646 133.672 93.126 133.912 93.606 134.152 93.846 133.432 93.846 133.192 94.086 133.192 94.086 132.952 94.806 132.952 95.766 132.952 96.006 133.192 96.486 133.912 96.486 134.152 96.726 134.392 96.726 135.352 96.726 135.832 96.486 136.552 96.486 136.792 96.246 137.032 96.246 137.272 96.726 137.752 96.966 137.992 97.206 137.992 97.206 138.232 97.206 138.712 97.206 140.392 96.966 141.592 96.966 143.032 96.966 143.272 97.206 143.032 98.166 140.632 98.166 140.392 98.406 139.432 98.166 138.952 97.926 138.952 97.686 138.472 97.926 137.272 97.926 136.312 98.406 135.112 98.886 134.632 99.126 134.872 99.366 134.872 99.606 135.112 100.086 135.592 100.326 135.832 100.806 135.832 101.046 136.072 101.526 137.512 101.526 137.752 101.526 137.992 101.766 139.192 102.967 139.672 103.687 138.712 104.167 138.232 105.127 137.512 105.367 137.032 106.087 137.032 106.327 137.032 106.567 137.272 106.807 137.512 106.807 137.752 107.047 137.752 107.047 138.952 108.007 139.432 108.727 140.152 108.487 139.432 108.487 138.952 109.447 138.712 109.687 138.712 110.407 138.472 110.407 138.232 110.647 138.232 110.887 137.752 110.887 137.512 110.887 135.832 110.887 134.392 111.127 134.152 111.367 134.152 111.607 133.912 111.847 134.152 112.087 134.152 112.567 134.392 113.287 134.632 113.767 134.392 114.727 134.872 114.967 135.352 115.207 135.832 114.967 137.032 115.207 137.032 115.687 137.512 115.687 137.752 115.687 138.472 115.447 138.712 115.207 138.952 114.967 138.952 114.967 139.432 114.967 140.152 115.687 140.632 116.407 142.072 116.647 142.072 116.887 141.832 116.887 141.352 117.127 141.112 118.087 140.632 118.568 140.872 118.808 140.872 118.808 140.632 119.768 140.152 119.768 139.912 120.008 139.672 120.248 139.672 120.488 139.432 120.728 139.432 120.968 139.672 121.688 140.152 121.688 140.632 120.968 140.632 119.768 140.872 119.528 140.872 119.288 141.112 119.288 141.352 119.528 141.352 119.528 141.832 119.528 142.072 119.528 142.312 119.288 142.312 119.048 142.552 118.568 142.792 118.327 142.792 117.847 142.792 117.607 142.792 117.367 143.032 117.607 143.272 118.087 144.472 118.568 144.712 119.288 144.952 119.528 144.712 119.768 144.712 120.008 144.712 120.008 144.952 120.248 144.952 120.248 145.192 120.248 146.152 120.248 146.392 120.008 146.632 119.768 147.352 119.528 147.592 118.808 148.072 118.568 148.072 118.327 148.072 118.087 148.312 117.607 149.031 117.367 149.271 117.367 149.511 117.367 149.751 117.607 149.751 118.087 149.751 118.568 149.751 118.808 149.751 120.248 149.751 120.488 149.751 120.728 149.751 120.728 149.991 120.488 151.671 119.528 152.391 118.568 153.111 118.327 153.111 118.327 153.351 118.087 153.351 117.847 153.831 118.327 153.351 120.008 152.151 120.248 151.911 120.488 151.911 120.968 152.631 121.928 153.351 122.168 153.351 122.408 153.351 122.648 153.351 122.888 153.591 123.608 154.791 123.848 155.751 123.848 155.991 123.368 156.951 122.888 157.671 122.168 158.391 122.648 158.631 122.888 159.111 122.888 159.351 122.888 159.591 122.408 159.831 122.168 160.071 121.928 160.071 121.448 160.071 121.208 159.831 120.728 159.831 119.528 159.591 119.768 159.591 120.008 159.831 120.248 159.831 120.728 159.831 122.168 160.311 122.168 160.551 121.928 161.031 122.168 161.511 122.408 161.991 122.408 162.471 121.448 163.431 121.208 163.431 120.968 163.431 120.728 163.431 120.248 163.191 120.248 162.951 120.008 162.711 120.008 162.231 119.768 162.231 119.288 161.511 118.808 162.231 119.528 163.191 120.008 163.911 120.248 163.911 120.248 164.151 120.248 164.391 120.008 164.391 119.528 164.391 118.808 163.911 118.087 163.431 118.087 163.671 118.327 163.911 118.568 164.151 118.808 164.151 119.048 164.151 119.048 164.391 119.288 164.391 119.528 164.631 119.528 164.871 119.528 165.111 119.528 165.351 119.048 165.591 118.568 165.831 118.327 165.831 117.607 165.591 117.367 165.831 117.367 166.071 117.607 166.31 117.607 166.55 117.367 166.55 116.887 166.79 115.687 166.55 115.207 166.071 115.207 165.831 115.207 165.591 114.967 164.871 114.967 164.631 114.727 164.391 114.487 164.391 114.727 164.871 114.967 165.831 114.727 166.55 114.727 166.79 114.007 167.51 113.767 167.51 113.287 167.51 113.047 167.51 113.047 167.27 112.807 167.51 112.807 167.75 113.047 168.23 113.287 168.23 113.287 168.47 113.527 168.47 113.047 168.95 112.087 170.15 112.087 170.39 111.847 170.15 111.127 169.91 109.687 170.39 109.447 171.11 109.207 171.35 108.967 171.59 108.727 171.59 108.487 171.35 108.007 170.63 107.287 170.15 106.807 169.67 106.567 168.71 106.567 168.95 106.327 169.19 106.327 169.43 106.327 169.67 106.087 170.15 105.607 170.39 105.367 170.39 105.127 170.39 104.167 170.39 103.687 170.39 103.447 170.39 102.727 170.63 101.046 170.87 100.806 171.11 99.606 171.83 99.366 171.83 99.126 171.83 98.886 171.83 98.166 172.31 97.206 173.03 96.966 173.03 96.726 173.27 95.526 173.27 94.086 173.27 93.846 172.55 93.606 171.83 93.606 171.59 93.126 172.31 92.646 173.03 92.646 173.27 91.926 173.03 91.686 173.03 91.446 172.79 91.206 172.55 90.966 172.79 90.726 172.79 90.486 172.79 87.606 172.55 86.885 172.07 86.645 172.07 85.685 172.55 85.445 173.27 85.445 173.51 85.445 173.75 85.925 173.99 85.685 174.23 85.205 174.71 84.965 174.71 84.965 174.95 83.525 174.95 83.285 174.95 83.045 174.95 82.085 174.95 80.165 174.71 78.965 174.71 78.725 174.47 76.805 173.27 75.605 172.55 75.125 171.83 73.925 170.63 73.925 170.39 73.205 169.91 72.965 169.67 72.725 169.19 72.485 169.19 71.285 168.71 71.045 168.71 70.804 168.71 70.564 168.71 70.564 168.47 70.324 168.23 69.124 165.591 69.124 165.351 69.124 165.111 69.124 164.871 69.364 164.631 69.364 164.391 69.844 164.151 70.084 164.151 70.324 164.391 70.564 164.631 70.564 164.871 70.564 165.111 70.804 165.351 70.804 164.631 70.564 164.391 70.324 164.151 69.844 164.151 69.364 164.151 69.124 164.391 68.884 164.631 68.644 164.391 68.404 163.671 68.644 163.671 68.884 163.911 69.124 163.911 69.124 162.471 68.404 162.951 68.164 162.951 67.684 162.711 67.684 162.471 67.444 162.231 67.444 161.991 66.964 161.751 66.724 161.511 66.484 161.031 66.244 160.791 66.244 160.551 66.484 159.831 66.724 159.831 66.964 160.071 67.444 160.071 66.724 159.591 66.724 159.351 66.484 159.351 66.244 159.351 65.764 159.591 65.284 160.071 65.044 160.071 64.324 160.311 63.124 160.071 62.884 160.071 62.884 159.831 62.644 159.591 61.684 158.871 61.204 158.871 60.484 158.631 59.764 158.391 59.284 157.671 58.804 157.431 58.084 157.191 56.164 157.191 56.164 156.951 56.164 156.711 57.124 154.311 57.844 153.351 57.844 153.111 58.084 153.111 58.324 153.111 58.324 153.351 58.324 153.831 58.564 154.311 58.324 154.551 58.324 154.791 58.324 155.031 58.804 155.271 59.044 155.511 59.284 155.511 59.284 155.271 59.524 155.031 60.484 155.271 60.724 155.511 61.924 155.511 62.404 155.511 63.124 155.031 63.124 154.791 63.124 154.311 63.124 154.071 63.844 154.551 64.084 154.791 64.564 154.791 65.044 154.551 64.564 153.591 64.564 153.351 64.324 153.351 64.804 152.871 65.764 152.151 66.484 152.151 66.724 152.151 66.964 152.151 66.964 152.391 67.204 152.391 67.444 152.631 67.924 152.631 68.404 152.631 67.924 152.151 66.964 151.671 66.724 151.671 66.724 151.431 66.244 151.671 66.004 151.671 65.524 151.911 65.284 152.151 64.324 152.151 64.084 152.151 63.844 152.151 63.364 151.671 64.564 150.231"/>
</svg>
