<svg id="Ireland" data-name="Ireland" xmlns="http://www.w3.org/2000/svg" width="612" height="792" viewBox="0 0 612 792">
    <defs>
        <style>.cls-1{fill:#fff;fill-rule:evenodd;}</style>
    </defs>
    <path class="cls-1"
          d="M96.0061,336.7008l.72-.24.72.48.24.48-.24.72v.24l-.24.48-.24.24-.24-.24-.48-.48v-.24l-.72-.96h-.24l-.72-.48.96-.24h.24Zm6.48,15.5991-.24-.24.48.24.24.24.48-1.92-.72-.24h-1.92l-.72-.24-1.2-.24h-.48l-.96-.24-.24-.24v-.24l.48-.72.24-.24h.24l.24-.72-.72-.24h-.24l-.48.24v.24l-.48.24-.48.24-.96-.72.24-.48h.72l.24-.24h.24v-.48h-.96l-.24.24h-.48l-.48-.24-1.44-.96.48-1.92h.24l1.44-.48h.48l.96.24.72.48.96.24-.72-.24-.24-.24h-.24l-.24-.48-.24-.48v-.48l.48-.96v-.24h.48l1.44.24.48.24h.72l-.24-.24-.24-.24.24-.24h.24l.24-.24.24-.48-1.2-.48h-2.16l-.24-.24.72-.96h.48l.24.24v.48h.24v-.96l-.24-.48-.48-1.2.24-.72h.24v-.96l-.48-.72-.96.72v.96h-.48v-.48l.72-1.68.24-.24.24-.24.72-.24.72.96-.24.24h-.48v-.24h-.24v.24l.24.24h.24l.24.24.24-.24.48-.72.24-.72h.48l.24.24h.24l1.2.48.96.24,1.44.48.48.24.24.72v.48l.24.96v.24l.24-.48.96-.96.24-.24v.24l.96.24,1.44.72,1.2.24,1.2.24v-.96h-.24l-.48-.24v-.24l-.24.24-.24-.24h-.24l.24-.24v-.24l2.4-.72h1.44l.24-.72.72-.48.48-.24v-.72l-1.92-.24-1.44-.24h-.24l-.24-.24-.48-.24-.24-.48h-.24l-.48-.24.24-.72.48-.24.72-.48h1.68l1.2-.24.24-.24.48-.24v-.48l-.24-.24h-.24v.24h-.24l-.24-.24v-.72l.48.24h.24l-.24-.24v-.24l-.24-.48,1.68-1.44,1.2-.24,1.68-.24.48-.48.24.48.24.24.24-.24.24-.24.72-.24-.24.48-.24.24v.24h.48l.24.48.24.24v.24l-.24.24v.24l.48-.48v-1.2l-.24-.24v.72h-.24l-.24-.24-.24-.24v-.24l.48-.24h.24l.48-.24.24-.24.24.24.48,2.4-.24.24v.24h-.24l-.24.24h-.24l-.24.24-.24.24-.72,1.2h.24l.24-.24.24-.24.48-.24h.24l.24-.24h.72v-.24l.24-1.2-.24-.72v-.24l-.24-.24v-.24l.72-.72h.96l.48-.72-.24-.72h.24l.96.72.48.48.96,1.2.72.48.24.24-.24.24v.24l-1.2.24-.72.24h-.24l-.24.24h-.24l-.48.72-.72.24-1.2,1.2-.48.96-.24.48-.24.24-.96.96-1.92.24-.48-.48h-.24l-.96.24v.48l.24.24.24.48.72.24v.48l-.96.48h-.96l-.96.24-1.2.48v.24l.48,1.2v.24h.24v.24l.48.96.48.24.24.24-.24.48v.72l.24.24h.72l.48.24.48.72v.24l.48.48,1.92.72h.24l.24-.24,1.68-1.2v-.48l-.24-.48.48-.72,1.2-.96h.24l.48.48.24.24v.24l.24.48v.96l.72,1.68.24,2.16.24.24v.24h.24v-.24h.24l1.2.24.96-.48v-.24h.24l.48.24v.24l.24.48.48.72h.24l.24.72h-.24l-.24.24h-.24l-.48-.48-.48-.24-.24-.24h-.24l-.48.72-.24.72v.24h.24v.48h.24l.24.24.24.48v.72l-.24.48-.24.48v.72l.24.72.24.72.24.24h.24v.96l-1.2,1.92-.72.24v.24l.24.72.48.96.24,2.16-.48,2.64-.72,1.2-.48.24h-.24l-.24.48v.24l-.24.24v.48l-.48.48-.48.48v1.44l-.24.24v.24l-.24.24-.24.24-1.44,1.44h-1.2l-.24.24.48,1.2.24.24.48.48v.48l-.48.48-.24.24v-.24h-.24l-.48-.24-1.44-.48-1.44-.72-.48.48-.24.24h-.24l-.48-.24.24-.48-.48-1.2-.24-.24v.24h.24v.72l-.24.96-.48.24h-.96l-.48-.48-1.92-.24h-2.16l-.48.48h.24l.24.24h.24l-.72.96-1.44.48-.72-.24-.24-.24v-.48l-.24.24v.24l-.48.72-1.44.48-.72.24-.96.24-.48-.24v-.24l.24-.24.24-.24h.24l-.24-.72-.72-.24-.72-.24h-.48l.24.24h.24l.24.24.24.72v.48l-.24.48-.24.24-.48.24h-.72l-1.2.48-.24.24v.24l-1.68.48-.24-.24-1.44-.24h-.96l-1.44-.24-.48.48-.72.24-1.2-.24h-.24l-.48-.96-1.92-.24-.72.48h-1.2l.24-.48.24-.24h.24l.72-.24h.24l.24-.24.72-.48.24-.24-.96.24-1.2.24h-.48v-.24l.72-.24.48-.24,1.44-.24h.96l.48-.24h.24v-.72l-.72-.48-.24.48-.72.24h-1.92l-1.2.24h-1.2l-.72-.24v-.24l.72-.24.96-.24v-.72l.24-.24.72-.24,1.44-.24,1.92-.48h.24l-.72-.24h-.48l-2.4.48h-1.2l-.48.24-.72-.72.24-.48v-.24l-.24-.24-.24-.24v.24l-1.2.48v-1.44l1.68-1.44,1.44-.24h1.2l2.16-.48.48-.24-.48-.24h-.24l-.24-.24h-3.12l-.96-.24-.48-.24-.24-.24-.24.24h-.48l-.24-.24v-.72l.24-.48,1.2-.48,1.2-.24h.96v.24l1.68.96.24.24h.24l1.44.24-.24-.48-.48-.48.48-1.44.96-.72.96-.72.24-.48.24-.24h.48l2.16.48.24.24h3.6l1.68-.24-.24-.48-.72-.72-.72-.24-.24.24-.24.24-.48.24-.48.48-.24.24h-.24l-.48-.24-2.16-.72-.72-.48-1.44.24v.24h-.24l-.72.24-.96-.24-.48-.24h.24l.72-.24h.48l.96-.48,1.92-1.2.96-.48.96-1.2.24-.48-.48-.24v-.24l2.4-2.4.24-.24.24.24.24.24.24.48h.96Z"/>
</svg>
