<svg id="Italy" xmlns="http://www.w3.org/2000/svg" width="612" height="792" viewBox="0 0 612 792">
    <defs>
        <style>.cls-1{fill:#fff;fill-rule:evenodd;}</style>
    </defs>
    <path class="cls-1"
          d="M303.8593,497.0117l.72-1.2h0Zm-20.6414,41.9975-.72-.96h-.72l-.72.24-.24.24h-.96l-.24-.24v-.72l.24-.24h.96v.24h.24l1.44-.24.24-.24.24-.48.24-.24.24.24-.24,2.16ZM307.22,551.0086v.24h.24Zm-1.44-32.1582v.72l.72.24.24-.48.24-.24-.24-.72h-.48Zm3.84-.48h.24l.48.24.96.48,1.92,1.44.72.72.48.48.24.24,1.44.96.72.24.72.48h.72l.24-.24.48.48.48.48.24.48.24.72.96,2.16,1.92,4.08.24,1.2.24.72v.24l.24.48v.24l.24.96.24.48.72,1.44.24.72.72.72.24.24.48.96.96.96,3.84,3.12.72.72.48.24h.72l.72.48v.96l.24.24.24.24.96.48.72.24h.48l.72.24.48.24.24.48.48.24h.72l2.64.24h.24l.72-.24h.48l1.2-.24h.96l.96-.24h1.2l.48-.24,1.44-.48.24.24h.48l.72.24.72,1.2v.72l-.24.48-.48.24-1.2,1.2-.48.48-.48.24-.24.24-.24.24v.72l.24.48.24.72.72.72.72.24.72.24,1.2.48,3.84,1.44,1.92.72,1.68.48,3.12.96,1.68.48.96.72.48.24.48.24,1.92,1.68.24.24,3.36.96,2.16.48,1.2.48v.48l.24.72v.24l.72.48.48.48,1.92.96,2.16,1.68.24.48.24.48.96,1.44v.48l-.48.96-.24.24-.24.72-.24.96.24.48v1.44l-.24.24h-.48l-.48-.24-.48-.24h-.96l-.24-.24-1.2-.48-.48-.48-.72-.96.48-.24-.48-1.44-1.44-2.16-.72-.48h-2.64l-.96.24h-.48l-1.44-.48-2.4-.96.24-.72.24-.24h.24l.48-.48-3.12-.24-.24.24-.24.24h-.24l-.72.72-.24.24-.48.72v.24l-.96,1.44-.24.96-.24.48-.48,1.2-.48.48-.24.24v.24l-.24.72.24.72-.48,1.68-.24.48-.24.72-.24.48v.24l.24.48.48,1.44.48.24h.48l.24.24h1.44l1.2.48,1.68,1.2.96.24,1.44.96v.48l-.24.96v.72l.48,2.64.24.72.24.24.24.48v.72l-.48.72-.24.24-1.44-.48h-.48l-.24.24-1.2.24-1.2.96-1.2.96-.24.24-.24.48-.24.48-.24.72.24.96.24.72.24.72v.48l.24,1.2v.24l-.48.72-.24.24-.24.24-.24.24-.24.24-.48.24-.72.24-.24.24-1.92,2.88-.24.96v.72l-.24.72-.24.48-.24.48-.72.24h-.72l-.24-.24-.72.24-.96.24h-.48l-.48-.24-.72-.48-.48-.72v-.72l-.24-2.16v-.48l.24-.24.72-.48h.48l.48-.48.24-.24.72-2.4.24-.48v-1.2l-.24-.48-.24-.24-.48-.24-.24-.24.24-.48,1.44-1.2h1.92l.48-.48.24-.48.24-.48v-1.92h-.48l-.48-.24-.72-1.2-.72-1.68v-.96l-.24-.48v-.48l-.24-1.44-.96-1.68-.72-.96-.24-.24-.72-1.2-.72-.96v-.48l-.48-1.44v-.96l-.48-.96-.24-.48-.24-.48-.72-.72-.24-.24-.48-.24-.24-.24h-.48l-.48.24-.48.72-.48.72-.96-.24-.48-.48-.72-.48-1.44-1.44h-.48l-1.2-.24-.96-.72-.24-.48.48-1.2.24-.24v-.72l-.24-.72-.96-1.68-.96-1.2-.72-.48h-.24l-1.44.48-1.44.48-1.2.48-.72-.48.48-.24.96-1.2-.48-.48-1.68-1.2-.48-.24-.72.48-.48.24-1.2-.24-.24-.48-.24-.72-.24-.24-.48-.72-.96-1.68-.96-1.2-.48-.48-.24-.48-.48-.24-.24-.24h-1.2l-.72.24-3.36-.72-.72.24-.48.24-.48.24-.24.24-.96-.24-.48-.72-.24-.24-.48-.48-.24-.24-.24-.24-.24-.24-.48-.24-2.16-.48-1.2-.72-.72-.96-.48-.72-.24-.24-1.2-.96-1.68-1.44v-.48l-.48-.96-.24-.24-.48-.48-1.2-.96-1.2-.72h-.96l-.48-.48-.72-1.44-.24-.48-.24-.48-.96-1.2-.96-.72-.48-.24-.48-.24-.96-.48-1.44-.24h-.24l-.24.24-.24.24-.24.48-.96-.48v-.48l.24-.24h.48l.24-.72v-.48l-.24-.72-.96-1.2-1.2-1.44-.48-.24-.48-.24h-.48l-.96-1.2v-.96l-.48-.48-.48-.24-1.2-.24-.72-1.44.24-1.2v-.72l-.24-.72v-.48l-1.2-2.4-.48-.72-.24-.24-.48-.24-.24-.96-.24-.72v-2.4l-.24-.96v-.72l-.24-.48-.24-.48-.48-.48-.72-.96-.24-.24-.24-.24-.48-.24-.48-.24-3.12-.96-.48-.24-3.36-2.4-.24-.24-1.2-.72-4.8-1.2-.72-.24-1.2.72-1.68.96-.48.96-.72,1.2-.72.48h-.24l-.48.24-.48.48-.72,1.92v.48l-1.2.96-1.44.72h-.24l-1.68.24-.48.48-.72.24-.72-.24h-.72l-.24-.48-.24-.96,1.2-1.44.72-.48.48-1.2.24-.24-.72-.72.24-.48-.72-.24-.96.48-.72.24-.48.24-.72-.24-3.6-1.92-.48-.72-1.2-1.44-.24-2.16v-.48l1.2-1.92.48-.24.48-.96.24-1.2-.48-.48-.24-.24h-.24l-.48.24-.72-.24-.72-.72-.24-.24-.96-1.92-.24-1.2.72-.48.72-.24.72.24,1.2-.24,1.44-.72.72-.48.48-1.92v-.72l-.72-.72-.96-.96-.24-.96-1.68-2.16v-1.68l.72-.48.24.24h.24l.24-.24.48-.24.72-.72.24.48.48.24h.96l.48-.24.72-.24h.48l.48.24.48-.24.24-.24.96-.72,1.2.24.48.48.48.24.48.24h.72l.24-.48v-.48l.48-.24h.72l.24-.24,1.68-2.16v-.96l1.68-3.12.72-.48.96-.24v2.16l-.24.48v.72l.24.24,1.68,1.92.96.24h.24l.24-.24.72.24.24.24.24.48-.48.48v.72l.96.48.24.72v.48l.24.48.48.24.48-.24.48-.96v-.24l-.72-.24-.24-.72.24-.72.24-.48.48-.96.48-.72h.24l.24-.24.72-.72.48-.96.24-.48v-.48l-.24-1.2-.24-.24.48-.96h.72l.96.48v1.44l.72.96.24.24.48.24h1.44l.48-.72.48-.24.48-.24.72-.24h.24l.48.48v.24l.24.72.72,1.2.72-.24.48-.48-.24-1.92-.72-.48-.48-.48v-1.44l.72-1.2.72-.24h.72v.72l.48.48h.48l1.2.24.24-.24.24-.72v-.24l-.24-.24-.24-2.16.24-1.68v.24h.24l.72.24.48-.24.48-.24h.24l.96.72.24.48.48.24.48.24,1.44-.24.72-.72.24-.96v-.48l.24-.24.48-.48,3.36-.96h1.44l.96.24.24.24h.24l3.36-1.2.72-.48.48-.24.48.24v.24l-.48.48-.48.48v.72l.24.48.24.24.48.48.96.72.96,1.68.24.24.24.24.48.24.72.24h1.68l.48.24v-.24l.24.24.72.24,4.56.72h3.84l1.2.48v.48l-.24.48-.24.24-1.68.96-.72.72-.48.72.48,1.44.24-.24.48-.24.48.24,1.44.72-.24.24-.48.72-.48.24-.24.24v.24l-.48.96.24.24.48.24.24-.24h.72v.48l-.24.72-.24.24v.72l.24.72,1.2.24.96.48.48.48.96,1.2-.48.72-.48.24h-.24l-.96-.24.96-.24-.72-1.2-.96-.96-.24-.24-.72-.24h-.48v.96l-.24.24-.72.72h-.48l.24-.48v-.24l-.48-.24-1.68-.72h-.24l-.96.24-.48.96.24.96v.24h-.96l-.72.24-.72.48-.72.48-.96.48-.72.48-.24.24-.24.24-1.92.72.24-.72.72-.24.72-.72-.96-.48-.96.72-1.2.96-1.44,2.64v.72l.96.96,1.44,2.16.96.72.48.24.48.24.24.24-.72,1.68-.24.48-.24-.48v-.48l-.24-.24-.24.48v1.2h-.48l-.72-.72-.24.96v1.44l.48,3.36v.48l.72,2.64.24.48.72.96.24.24.96.96.24.24,1.68,1.44.24.24h.48Z"/>
</svg>
