<svg id="Kjolen_Mountains" data-name="Kjolen Mountains" xmlns="http://www.w3.org/2000/svg" width="612" height="792"
     viewBox="0 0 612 792">
    <defs>
        <style>.cls-1{fill:#fff;fill-rule:evenodd;}</style>
    </defs>
    <path class="cls-1"
          d="M361.4629,79.6755v.24h.24v-.48h.48v.24l-.24.24v.24l.48-.24v.48l.24-.24v-.48l.24.24v-.24l.24-.24h.24v.24l.24.24v.24l-.72.72-.24.24h.24v.24l.24-.24.24.24h.24l-.24.24h-.24v.24h.48l.24-.24h.24v-.24l.24-.24v-.24h.48v.24l-.24.72-.24.24-.24.24h-.24l.24.24h-.48l-.24.24h-.96v.72l-.24-.24-.24.24h-.24l-.48-.24h-.24l-.24-.24v-.24l.24-.48h.24v-.24h-.48v.24h-.24l-.48.24v-.24h-.24v-.48l.24-.24v-.24h-.48v-.24h.72l.24.24v-.48l.24-.24h.24l.24.24v-.24h.24l.24.24v.24l.24.24h.24v-.24l-.24-.24-.24-.24-.24-.24-.48-.24h-.24v-.24h-.24l.24-.24.24.24.24-.24.24-.48v.48Zm11.0407-1.68v.72h.48l-.24.48h.24v-.24h.24v-.24h.24v.24l.24-.24v-.24l.24-.48v.24l.24-.24v-.24h.24l.24.24v-.48h.48l.24.24v.72h-.24l.24.24v.24l-.24.24.24-.24v.48h.48v-.72h1.2l.24.48v.96l-.24.24h-.48v.24h.48v.48h-.48l.24.24h.24l-.24.24h-.72l.48.24v.24l-.24.24h-.48l-.24-.24v.24l-.24.24-.24-.24h-.24v.24l-.24.24h-.24l-.72.24v.24h.48l-.24.48.24.24.24-.48.24-.24h.72v.24h.24v.24l.24.24-.24.48-.48.48-.48.48-.24.24-.24.24h.24l.48-.48h.48l.24-.24.24-.24v-.24l.24-.24.48-.72.24-.24.24-.24h.24v.24l.24.72-.24.24v.48l-.24.24.24.24-.24.24-.24.48-.24.24v.48h-.24l-.24.24-.24.24v1.2l-.24.24h.48v-.96l.24-.48h.24v.24l-.24.24v.24l.24-.24.24.24v-.48l.24-.24.24-.48h.24v.24l-.24.24-.24.24v.96l.24.24v-.96l.48-.48v-.48h.48l.24-.24v.24l-.24.48v.48l-.24.48v.24l.24.72v.96l-.24.48.24.24v-.48l.24-.48v-.48l-.24-.96v-.24l.24-.24.24-.24v-.72l.24-.24v.24l.24.24.24.24v-1.2h-.48l-.24-.24h-.24v-.72l.24-.48-.24-.48.24-.48h-.24l-.24-.24v-.24h.72l-.24-.24h-.24v-.96l.24.24v.24l.24-.24h.48l.24.24.24.24.24.24.24.24v.24h.24v.72h.24v1.2l.24.24.24.24.24.24h.24l.24.24h1.2v.24h.24v-.24h.48v.24h.48l.24-.24h1.2v.24h.24l.24.24h.24l-.24.24v.48h.24l.24.24h.24l.24-.24h.72v.24h.24v.24l.24.24v.72h-.24v.48h-.48v.24h-.96v.24h-.24v.48h.48l.24.24v-.24h.48l.24-.24.24-.24h.96v-.24h.24v-.48h-.24v-.72h.24v-.24h.24v-.24h.24v-.72l.24-.24h.24v-.24h.48l.24-.24h1.2l-.24.24h-.24l-.24.48h-.24l-.24.24-.24.24-.24.48-.24.24h-.24v.72h.24v.48l-.48.72-.24.24v.24l.24.24h-.72l-.48.24h-.24l-.96.24h-3.6l-.24.24h-.24l-.48-.24h-.48l-.72-.24h-.72l-.24.24h.96v.24l-.48.48v.24h.48v-.24l.24.24.24-.24.24.24v.24h-.24v.24l.72-.24.48.24h.48v-.24h.24l.24.24.24.24h-.24l.24.24h.24v-.24h.48l.24-.24h.96l.48.24.48.24.24.24-.24.24-.24.24-.24.24v.24l-.24.24v.48l-.24.24v.24h.48v-.48l.24-.72.24-.24.24.24v-.24h.72v.24l.24.48.24.72h-.24l.24.24v.48l-.24.24-.24.24h.24v.48l-.24.24h-.24l-.24.24v.24h.24v.72l.24-.24v-.24l.48-.96.24-.24.24-.24h.48l.24-.24.24-.24v-.24l.24-.48.24.24.24.24v.48h.48v.48l.48.72v.72h-.24v.24h.48v.24l-.24.24v.48h-.72l-.24.24h-.24v.24h-.24v.24h-.24v.24h-.24v.24h-.24v.24h-.24v.24h-.24v.24l-.24.24v.24h-.24v.24l-.24-.24-.24-.24h-.24v.24h-.72v-.48l-.24-.24h.24v-.48l-.24-.24v-.72l.24-.24h-.24v-.48h-.24v-.24h-1.92v-.24h-.48l-.24-.24h-.72v.24h-.24v.72h-.24v.72l-.24.24v.24h-.72v-.24h-.24v-.24l-.24-.24-.24-.24v-.24l-.24-.24v-.48h-.24v-.72l-.24-.24v-1.2l-.24-.24v-.48h-.24v-.96l-.24.24-.24.24v.24l-.24.24v.24h-.24v.24h-.24l-.24.24v.48l.24.24v3.84l-.24.24v.24h-.48v-.24h.24v-.48l.24-.24v-.48h-.48l-.24.24h-.24v-.72h.24v-.72h-.24v-.48l-.24-.24v-.72h-.24l.24-.24v-.72h-.24l-.24-.24v.24h-.48v.24h-.72l-.24.24v.48h-.24v.24l.24.24v1.44l.24.24v1.2l-.24.24v.48h-1.2l-.24.24h-.24l-.24.24h-.24l-.24.24-.24.24h-.24v.24h-.72v.24h-.24v.48l-.24.24v.24h-.72v-.24h-.24v-.48l-.24-.24h-.24v.24h-.48l-.24-.24h-.24v-.24h-.24v.24h-.48v.24h-.24l-.24.24h-.48v-.24h-.24l-.24-.24v-.24h-1.92v-.24h-.24v.24l-.24.24v.48h-.24v.24h-.48v.24h-.24l-.24.24v.24l-.24.24v.96l-.24.24v.48l-.24.24v.24h-.24v.24h-.24l-.24.24h-.24v.24l-.24.24v.24h-.24v.24l-.24.24h-.96v-.24l-.24-.24v-1.44h.24v-1.92h-.24v-.48h-.24v-.24h-.24v-.24h-.24l-.24-.24h-.96l-.24.24v.24h-.24v.72h-.24v.96h.24v.72h.24v.48h.24v.24l.24.24v.48l.24.24v.72l-.24.24v.24l-.24.24h-.72l-.24-.24v-.24h-.24v-1.2l-.24-.24h-.48v.24h-.24v.24l-.24.24v1.2l-.24.24v.48h-.24v.72h-.24v.72h.24v2.16l-.24.24v.24l-.24.24-.24.24v.24h-.24v.24h-.24v.24h-.24v.24h-.24v.24l-.24.24v.48l-.24.24v1.92h-.24v.24h-.48v-.24h-.24v0h-.48l-.24-.24v-.48h-.24v-.48l-.24-.24v-.24h-.24v-.24h-.24v-.24h-.24v-.24h-.24v-.24h-.72v.24h-.24l-.24.24h-.24v.24h-.48l-.24-.24h-.24v-.24h-.24l-.24-.24h-.24v-.24h-.72v-.24h-.48v-.24h-.24v-.24l-.24-.24h-.24v.72l-.24.24h-.24l-.24-.24h-.24l-.24-.24h-.24v.24h-.24v.24h.24v.24h.24v.24h.48l.24.24h.72v.24h.72l.24.24h.72l.24.24.24.24v.24l-.24.24h-.96l-.24-.24h-1.44v.24h-.24v.48h.24v.24h.24l.72-.24h1.2v.24h.24v.24h.24v.24h.24v.24h.48l.24.24h.48v.24l.24.24h-.24v.24h-2.64v.24h-.96v-.24h-.96l-.24.24v.24h-.24v.24l.24.24v.48h.24v.24h.24v.24h.24v.24h.24v.24h.24v.24h.24v.48h.24v.48l.24.24.24.24h.24l.24.24h.48v.24h.24v.24h.24v.48h.24v.72l-.72.24h-.48l-.96.24v.24l.24.24v.24h.24v.24h.24v.24h.24v.24h.24v.24h.24v.48l-.24.24h-.48l-.24-.24h-.48v-.24h-.24l-.24-.24h-.48v-.24l-.24.24-.24.24v.24l.24.24v.24l.24.24.24.24.24.24.24.24h.24v.24h.24v.24h.24v.72l-.24.24v.24l-.24.24h-.24v.24h-.24v.24h-.24v.24h.24v.48h.24l.24.24h.24v.24l-.24.24h-.24v.24h-.48l-.24.24h-.24l-.24-.24h-.48v-.24h-.96l-.24.24h-.24v.24h-.24v.24h-.24v.48h-.72v-.24l-.24.24v.24h.24v.24h.24v-.24h.24v.24h.24v.24l-.24.24v.48l.24.24v.72h.24v.24h.24v.24h.24v.24l.24.24v.48h-.24v.24h-1.92v-.24h-.48v.24h0l.24.24v-.24h.24l.24.24h-.24v.24h-.48v-.24h-.72l-.24-.24h-.96v-.24h-.48l-.24-.24h-.72l-.24-.24.24.24v.24h.24v.24h.48v.24h.96l.24.24h1.68v.24h.72l.24.24h.48l.24.24h.48v.24h.24v.24h-.24l-.24.24v.48h.24v.24l.24.24v.24h.72l-.24.24-.24.24h-.48v.24h-.24v.24h-.24v.72l.24.24v.48h.48l.24.24v.24l.24.24h.24v.24h.48l.24.24.24.24v.24l-.24.24h-1.2v-.24h-.48v-.24l-.24.24h-.24v.72h-.24v-.24h-.24v-.24h-.24v-.24h-.24v-.24h-.48v-.24h-.24v-.24l-.24-.24-.24-.24h-.48v.96h.24v.24l-.24.24v.24l.24.24v.72h-.24v.24h-.24v.24h-.72v.24h-2.4v-.24h-.24v-.24h-.24v-.24h-.24l-.24-.24h-.48l-.24-.24v-.24h-.24v-.24l-.24-.24h-.24v-.24l-.24-.24h-1.2l-.24-.24v.24h-.48l-.24-.24v-.24h-.24v-.24h-.24v-.24h-.24v-.24h-.48l-.24-.24v-.24h-.24v-.24h-.24l-.24-.24h-.24v-.24h-.48l.24.24h.24v.24l.24.24v.24h.24v.24l.24.24h.72l.24.24.24.24.24.24v.24h.24v.24h1.2v.24l.24-.24h.48l.24.24h.24v.24l.24.24.24.24v.24l.24.24h.24v.48l.24.24v.24l.24.24.24.24.24.24v.24l.24.24v.72h.24v.24l.24.24h.24v.24h1.2v.24h.48v.72l-.24.24h-.24v.24h-1.44v.24h-.48v.24h-.72l-.24.24h-.72l-.24-.24-.24-.24v-.96h-.24v-.24l-.24-.24h-.24l-.24-.24h-.24v-.72h-.24v-.48l-.24.24h-.48v.24h-1.2l-.24.24v.24l.24.24v.24l.24.24h.24v.48l.24.24v.72l-.24.24-.24.24h-.24v.24l-.24-.24h-1.44l-.24-.24.24-.24v-.24h.24v-.48h-.24v-.24h-.24l-.24.24h-.72v.24h-.48v.24l.24.24v.24l.24.24v.24h.24l-.24.24v.48h.24v.24h.24v.24h.24v1.2h.24v.24l.24.24.24.24h.24v.24h.48v.24h.24l.24.24h.72l.24-.24h2.16l.24.24h.24v.24h.24v.24h.24v.24h.24v.24l.24.24v.24h.24v.24h.24v.24h.24v.24h.24v.72h-.24v.48h-.48v-.24h-.24v.24h-.24v.24h-.48l-.24-.24h-.24v.24h-1.2v.24h-.48v.24h-.24l-.24.24h-.48v-.24h-.24l-.24.24v-.24l-.24.24.24.24h-.48v-.24h-.24l-.24.24-.24.24-.24.24-.24.24h-.24l-.24.24h-1.2l-.24-.24-.24-.24h-.24l-.24.24v.24h.24v.48l-.24-.24h-.72v-.24l-.24-.24h-.24v-.24h-.24v-.24h-.48l-.24.24h-.24v.24h.48v0h0v.48h.24l.24.24v.24h.24v.48h.24v.48h-.24v.24h-.96v.24h-.24v.24h-.24v.48l.24.24h.96l.24.24.24.24v.72l.24.24v.96l.24.24v.96l.24.24v.48h.24v.24h.24v.24h.24v.24h.24l.24.24.24.24v1.2h-.24l-.24.24h-.24v-.24h-.72v-.24h-.24l-.24-.24h-.48v-.24h-.48l-.24-.24h-.48v-.24h-.48v-.24h-.48v-.24h-.48v.48l-.24.24h-.48l-.24-.24h-.24v-.24h-.24l-.24-.24-.24-.24v-.24h-.24v-.48h-.24v-.48h-.24v-.72h-.24v-.24h-.24v-.24h-.24v.72h.24v.72h.24v.48l.24.24v.24h.24v.24l.24.24.24.24h.24v.24h.24l.24.24.24.24h.24v.24h.24l.24.24.24.24v.24h.24v.24l.24.24v.24h-.24v.24h-.96v.24h-.72l-.24-.24-.24-.24-.24-.24-.24-.24-.24-.24h-.24v-.24h-.48v.48h.24v.48h.24v.24l.24.24h.24v.24h.24v.24h.24v.24h.24v.24h.48v.24h.96v.24h.72v.24h.24v.48h-1.2v-.24h-.48l-.24-.24h-.72v-.24h-.48l-.24-.24h-.48l-.24-.24h-.48v-.24h-.72v-.24h-.48v.72l.24.24v.24l.24.24v.24l.24.24v.72l-.24.24h-.72l-.24-.24h-.24v-.24h-.24l-.24-.24-.24-.24v-.24h-.24v0l-.24.24v.72h-.24v.24h-.48v-.24l-.24-.24-.24-.24v-.24h-.24v-.24h-.24v-.24h-.24v-.24h-.24v-.24h-.48v.48h.24v.72h.24v.48l.24.24h.48v.24h.24v.24h.24v.24l.24.24h.24v.24h1.68l.24-.24h.96v.24h.72v.24h.24l.24.24v.72h-.24l-.24.24v.72h.24v.24l.24.24h-.24v.24h-.24l-.48.24H316.1v.24h-.24v.72h.24v.72h.24v.72h-.24l.24.24-.24.24v.24h-.72l.24.72v.24h-.24l-.24.24-.24.24h-.24l.24.24.24-.24h.24v.24l-.24.24h-.48l-.24-.24h-.48v-.24h-.24l-.24-.24h-.24v-.24h-.24l-.24-.24v-.24h-.24v-.48h-.24v-.24h-.24v-.24h-.24l-.24-.24-.24-.24h-.96l-.24.24h-.48l-.24.24h-.24v.24h.24v.24h.24v.24h.48v.24h.72l.24.24h.48v.24h.48v.24h.24v.48h.24v.24h.24v.24l.24.24v.24h.24v.72l-.24.24h-.24v.24l-.24-.24h-.24v.48h-.24l.24.24.24.24h-.24v.24h-.72v-.24h-.48l-.24-.24h-.48l-.24-.24h-.24v-.24h-.24v-.24h-.48l-.24-.24h-1.2v-.24h-.24l-.24-.24-.24-.24-.24-.24h-.48v.96h.24v.24h-.24v.48l-.24.24v.48h-.24v.48l-.24.24v.24h-.24v.24h-.24v.24h-.24v.24h-.48l-.24.24h-.24v.24h-.24v0h-.24v-.48h-.24v-.24h-.24v-.24h-.48v-.24h-.24l-.24-.24h-.24v-.24h-.48v.24h-.24v.24h-.24l-.24.24-.24.24v.24h-.24v.24h-.24v.24h-.48l-.24.24-.24-.24h-.24v-.96h.24v-.48l.24-.24v-.48l.24-.24v-.48h.24v-.24l.24-.24v-.24h.24v-.24h.24v-.24l.24-.24v-.24h.24v-.24l.24-.24v-.48h.24v-.24h-.24v-.24h-.48v.24h-.24v.48h-.24v.24h-.24v.24h-.24v.48h-.24v.48h-.24v.24h-.24v.24h-.24l-.24.24h-.24v.48h-.24v.24h-.24v.48h-.24v.96l-.24.24v.24h-.24v.24h-.24v.24h-.24v.24h-.24v.24h-.24v.24h-.24v.24l-.24.24-.24.24v.24h-.24v.24l-.24.24-.24.24-.24.24h-.24v-.24l.24-.24.24-.24v-.24h.24v-.96h-.24v-.24h-.48v-.48h.24v-.72h.24v-.48h.24v-.96l.24-.24h.24l-.24-.24.24-.24-.24-.24-.24-.24-.96-.48h-.72l-.24-.24h-.48l-.24.24v.24h-.48l-.72.48h-.24l-.48.24v.24l-.48.24-.24.24v.24l-.24.24-.24.24h-.72v.48l-.24.24h-.24l-.96.48h-.24v-.24l.48-.24h.24l.24-.24.24-.24.24-.24h-1.2l.24-.48.48-.24h.48l.48-.24h.72l.72-.48h-.24l-.72.24-.24.24h-1.44l-.24.24v-.24l.72-.72.24-.24h.24v.24l.24.24h.24l.24.24v-.24l.24-.24h-.48l-.24-.24v-.24l.24-.24.24.24h.24v-.24l.24.24v.24h.24l-.24-.48h.72v-.48l-.24.24h-.72v-.24l.24-.24h.96l.24-.24.24-.24.48-.48v-.24l-.72.72-.48.24v-.48l.48-.48v-.24l.48-.48.48-.72h.48v.48l-.24.48h.24v.24h.24v-.48h.48v-.96l.24-.24.24-.24.24.24.24.48v.72h.24v.48l-.24.24-.48.24h-.96v-.24h-.24v.24l.48.24h.48l.48-.24h.24l.24-.24.24-.24h.24l.48.24.24-.24v-.24h-.24l.24-.24.48-.24.24-.24.96-.96h.24v.24l.24-.24v-.96l.72-.72v-.48l-.24.24-.72.72-.24.48-1.2,1.44-.24.24h-.96l-.24-.24v-.24h.24v-.24h.48l.24-.24h0l-.24-.24v-.24h-.24l-.48.24-.24-.24v-.24h.24v.24l.24-.24h.24v-.24h.24v-.24h-.72l-.24.24-.24.48h-.24v0l.24-.48.24-.48.24-.24h.48l.24-.24v0h-.24v-.24l.24-.48h-.24l-.24.24-.48.48h-.48l-.24-.24v.24l.24.24v.48l-.24.48-.24.24-.24.24h-.24l-.24.24v-.48l.24-.24v-.72h.24v-.24h-.24v-.72l.24-.24v-.24l.24-.24.24-.48.48-.24.24-.24v-.48l-.48.24v-.24h-.24v-.72l.24-.48v-.24h.24v.24l.24.48.48.48v.24l.24.24v.72l.48.24v0l-.24-.48v-.48l.24.24h.24v.72h.24v-.48l.24.24.24.48.24.48h.24v-.24l-.48-.48v-.72h.72v-.24h-.24l-.72.24v-.24l.24-.24h-.48l-.24-.24.24-.24v-.48h-.24v.24l-.24.24h-.24v-.24l.24-.24v-.48l-.24.24-.24.48-.24-.24v-.72l-.24.24v-.24l-.24-.24v-.48l.24-.48.24-.24.24-.48.24-.24v-.24l.24.24.24.24h.24v.24l-.24.24h.24v.24l.24.24h.48l.24.24v-.96h-.24v-.24h-.24v-.24h-.24v-.72h-.48v-.24l.24-.24h.24l.24.24v-.24h.24v-.24l-.24-.24v-.72h.24v-.24h-.24v-.24h-.48l.24-.48h.24l.48-.48h.48l.24.24.24.24h.48v.24l.24.24h.24l.24.24.24.48-.24.24h.24v.48h.24v.48l.24.24v.96l.24.24v1.2l.24.24v.48h.24v.48h.24v.72h.24v.72h.24v.72l-.24.24v.48l-.24.24v.96h.48v-.72l.24-.24v-1.92l.24-.24v-.24h.24v-.24h.72l.24.24v.24h.24v.24l-.24.24v.48h-.24v1.2h.24v-.24h.24v-.96h.24v-.72l.24-.24v-.48l.24-.24v-.24h.24v-.24h.24v-.24h.48v.24h.24v1.92h.24v.24h.24v.24h.24l.24-.24v-.24h-.24v-.24h-.24v-.72h.48v-.24h.24l.24.24h.48v.24h.24v.24h.48v.24h.24v-.24h.24v-.24h-.24v-.24l-.24-.24-.24-.24h-.24v-.24l-.24-.24h-.72l-.24-.24h-.24v-.24l-.24-.24v-.24h-.24v-.24h-.48l-.24.24h-.24l-.24.24-.24.24h-.24v.24h-.48v.24h-.72l-.24-.24h-.24l-.24-.24-.24-.24v-.24h-.24v-.24h-.24v-.24h-.24v-.24l-.24-.24v-.48h-.24v-2.16l.24-.24h.48v.24h.24v.24h.24v.24h.48v-.48h-.24v-.48h-.24v-.48h-.24v-1.44h.24v-.24h.24v-1.2h.24v-.48h.24v-.24h.24v-.24h.48v.24h.24v.48l.24.24v3.36h.24v.24l.24.24v-.24l-.24-.24h.24l.24.24v-.72l-.24-.24v-2.88h.24v-.72l-.24-.24v-1.44h.24l.24-.24h.24l.24-.24h.24v-.24l.24-.24h.24v-.24h1.2l.24-.24h.48v-.24h.24v-.24l.24-.24.24-.24.24-.24h.24v-.24h.48v-.24h.24l.24-.24.24-.24v-.24h.24v-.24l.24-.24v-.72h-.48v.24h-.24v.24h-.24v.48h-.24v.24h-.24v.24h-1.68v.24h-.24l-.24.24h-.48v-.72l-.24-.24v.24h-.24v.24l-.24.24h-1.2l.24,1.44v.48h-.24v.24l-.24.24h-.24l-1.2.48-.24.24h-.48l-.24-.24.24-.24v-.24h-.24v.24l-.24.24-.48.24h-.96l-.24.24-.72.72h-.24l-.24.24h-.24l-.24-.24v-.24l.24-.24.48-.48h.24l-.24-.24h.24l.24-.24.48-.24.48-.24h.72l.48-.24h-.48v-.48h-.24l-.48.48h-.24l-.24.24-.72.24h-.24v-.24l.24-.24h-.24l-.24.24-.48-.24-.24-.24.24-.24.48-.48.24-.24v-.48l-.24-.24-.24-.24h.24l.24-.24h-.24v-.24h-.24l-.24-.24-.24-.24h-.24l.24-.24h.96l.24.24.24.24v.72h.48l.24-.24h-.48v-.96l.24-.24h1.2v.24h.96l-.24-.24-.48-.24h-.24v-.24l.24-.24.48-.24h.72l-.24-.24h-.48l-.48.24-.48.48-.24.24h-.48l-.48.24h-.24l-.24-.24.24-.48v-.24l.24-.24.24-.24h.48v-.24h-.48l-.48.24-.24-.24v-.24h.48l.24-.24h.24v.24h.96l.24.24v-.24l-.24-.24-.48-.24h-1.44v-.48l.24-.24h.96l.48.24h.24l.24.24h.72l.24-.24h.24l.48-.24-.24-.24-.24.24h-.48l-.24.24h-.24l-.24-.24v-.24l.24-.24h.48l-.24-.24h-.96v-.48h1.2l.72.24h.48l.48-.24h-.48l-.24-.24h-.48v-.24h-.48v-.48l-.48-.48h-.48v-.48h-.24l-.24-.24.24-.24h.24v.48l.24-.24h1.2v-.24l-.24-.24h-.24l.24-.24h.48l.24-.24h.24l.24-.24h.24v.24l-.24.24-.24.24.24.24.24-.24.24-.24.24-.24-.24-.48v-.48l.24-.24h.24l.24.24v.48l.24.24v.24h.48v-.24l.24-.48v-.24h-.24v-.48h.48l.24-.24.24.24h.48v.24h.48v.48h.24v-.72h-.72l-.48-.48h-.24l-.24.24h-.48v-.24l.24-.24.24-.48v-.24l.24-.24.24-.48.24.24h.48l.24-.24.48.24h.24v-.24l-.48-.24-.48.24v-.24l.24-.24h.96l.24-.48.24.24h.48l.24-.24h.24v.72l-.24.24-.24.48h.24l.24.24v.24l.24.24v-.48l-.24-.48v-.24l.24-.48v-.24l.24-.24h.24l.24.24.24.24.24-.24h.48l.24.24.48.24v.24h.24v.24l-.24.24.24.24v.48l-.24.24h.24l.24-.24.48.24v-.72l-.24-.24v-.24l.24-.24v-.24h.24v-.24h.48l.24-.24h.24v-.48h-.24v-.24h-.72v-.72h.24v-.24h.24v-2.4h-.24v-.24h-.24v-.24l-.24-.24-.24-.24.24-.24.24-.24.96-.48.24-.24h.48l.24-.24v-.24l-.24.24-.72.24-.72.24-.48.24-.24.48-.24.24-.24-.24h-1.44l-.24-.24-.24-.24v-.24l-.24-.24v-.24h.96l.24.24h.48v.24h.24v-.24l-.24-.48h-.24v.24l-.48-.24-.24-.24-.48.24-.24-.24.24-.48.24-.24h.48v-.24h-.48l.24-.24.24-.24.72.24.24.24.24.24v-.48l.48.24h.24l-.24-.24-.24-.24h-.48l-.24-.24v-.24l.24-.24h.72l.24.24.48.24v.24l.24.24.48.24v-.48l-.24-.24-.24-.24-.96-.72h-.72l-.48-.24v-.24l.24-.48-.24-.24v.48h-.24l-.24-.48v.24l.24.48v.24l-.24.24-.24.24-.48.48v.24l-.24.24v.24l-.48.24-.48.48-.24.24h-.24l-.24.24h-.96v-.24l.24-.24.48-.24v-.24h-.48v-.24l.24-.24h.72l.24-.24h.72l-.24-.24h-.48v-.24h.24v-.24h-.24l-.48.24-.24.24h-.24v-.48l-.24.24-.24-.24v-.24l.24-.24h.48v-.24h.24l.48-.24.24-.24.24.24.24-.24h.24l-.24-.24h-.48l-.48.24-.72.24.24-.24v-.24l.48-.24.24-.24h.48l.24.24.24-.24h.24v.96l.24-.24.24-.72.24-.24.24.24.24-.24.48-.48h.48l.24-.24.48-.24h.72l.24.24v.48l.24-.24v-.24l.24-.48.24-.24-.24-.24-.24-.24h-.24l-.24-.24h-.24v.24h-.24l-.48-.24-.24.24h-.24v-.24h-.24v-.48h-.24v.48l-.24.24h-.24v.72h-.24l-.24-.24h-.48v-.48l.24-.24v-.48h.48v-.72l.24-.24h.24v.72l.24-.24h.24v-.24l.24-.24v-.48h.24l.24.24v-.24l.24.24-.24.24v.24h.24v.24l-.24.24h-.48v.48l.24.24.24-.24v-.24h.24l.24-.24v-.24h.48v-.24l.24-.24v-.24h0v-.24l-.24-.24v-.24h.24l.24-.24v-.24l-.24-.24v-.24h.48l.24.24.24.24v.24l-.24.24.24.24.24-.24h.24v1.2l-.24.24v.96l.72.24.24.24v.24l.24.48v.24l-.24.48v.24h.72l.48.48.48.48.24.24h.24v-.24l-.24-.24-.24-.24-.72-.48-.24-.24h-.24v-1.2l-.24-.24-.24-.24v-.24h.24l.24.24.24.48.48.24v.24l.24.24v.24h.24v-.72l-.48-.24h-.24l-.24-.48v-.24h.24l.24.24.24.24.24.24h.24v-.24l-.24-.24v-.24h-.24l-.48-.24h-.24v-.48l.48-.48v-.24h.24v.48h.24v-.72h-.72l-.24.72h-.24l-.24-.24v-.24h-.24v-.48h.24l.24.24v-.48l.24.24v.24h.24v-.48l-.24-.24h.24l.24.24v-.24l-.24-.24h.48l.24.24h.24v-.24h-.48l-.24-.24v-.48h-.24l-.24.24-.48.24h-.24l-.24.24-.24-.24-.24-.24.24-.24h.96v-.24h-.72l-.48-.24h-.24l.24-.24v-.24l.24-.48v.24h.24v.24h.24l.24.24v-.24l.72.24v.24l.24-.24.24.24.24.24.24.24v.48l.24.24h.24l.24.24.24.24h.24v-.24l-.48-.24-.48-.48-.24-.24v-.48l-.24-.24h-.48v-.24h-.24l-.48-.24h-.24l-.24-.24v-.48l.24-.24h.24l.24-.24.24-.24h1.2v-.24h.24l.24.24h.24l.24.24.24.24v.24h-.24v.24l.72-.48h.24v.24l.24.48h.24l-.24-.48v-.72h.72l.24.24.24.48v.48h.24l.48.48v1.44h.24v-1.44l-.24-.24v-.24l-.48-.24v-.48l-.24-.24v-.48h.24v-.24l.24-.24h.24l.48.24.48.48h.24l-.48-.48-.24-.24-.24-.24v-.24h.24l.24-.24h.48l.48.24.48.24.24.24h.48l.24-.24h-.48l-.24-.24-.48-.24v-.24h-1.44v-.24l.24-.24h.24v-.72h-.24v.24l-.24.24-.24.24h-.24l-.48.72-.24.24h-.72l-.24.24h-.48v-.24l.48-.48-.48-.24v-.24h-.24l-.24.24-.24.72h-.24l-.24.24h-.48l-.24.24-.24-.24h-.24l-.24.24h-.24v-.48l-.24-.24-.24-.24v-.72h.24l.24.24h.24l.24-.24-.24-.24-.24-.24v-.48l.24-.48.24-.24h.24v-.24l.48-.24h.48l.24-.24.48-.48h.24v.48l.24.24h.24v.24l.24.24v-.24h.24l-.48-.48v-.24l.24-.24.48-.24h.72l.24.24.24.24.24.24h.24l.48-.24.24.24h.24v-.24h-.96l-.24-.24-.24-.48h-.96l-.24-.24v-.24l.24-.24.48-.48.48-.24.96.48.24.24h.48l.24.24.24-.24-.24-.24h-.24l-.48-.24-.72-.24-.24-.24v-.48l.48-.48h.48v.24h.24l.48.24h.24v-.24l-.72-.72h-.48l-.24.24h-.24l-.24.24h-.24l-.24-.24.24-.24v-.48h.24v-.24l-.24-.24v-.48l.24-.48.24-.24.24-.24v-.24l-.24-.24v-.24l.24-.24h.96v-.24h.24l.24-.24.24-.24h.24l.24.24h.24l.24-.24h-.24l-.24-.24v-.72l-.24-.24-.24.24v-.72l-.24-.24v-.24l.48-.48v-.72h.24v-.96l-.24-.48v-.24l.24-.24.24.24.24-.24h.24l.48.24v1.2l.24.24h.48v.72l.24.24v1.68h.24l.24.24.24.24v.48l.24-.24v-.24l-.48-.48-.24-.24v-2.16h.24v.96l.72.24.24.24v-.24l-.48-.48v-.24h1.2v.24h.24l.24.24h.24v-.48l-.24-.24h-.48l-.48-.24h-.48l-.48-.24-.24-.24-.24-.72-.24-.24v-.24h-.48v-1.2h.48l.24-.24.48-.24h.24l.24-.24.24-.24.24.24v.96l.24.24.24.24.24.48.24.24v.48l.24.24v-.96l-.24-.48-.24-.48v-.48l.24-.24.24-.24h.48l.48.24-.24-.48v-.24h-.24l-.24.24h-.48l-.24.24-.24-.24-.24-.24v-.48l.24-.48v-.24l.24-.72.24-.48.24-.48.24-.24.48-.24.24-.24h.48l.24-.24.24-.24.72-.48h.48v.72l-.24.48v1.68l.48.48v.48l-.24.48v.72l.24.72v.48l-.24.48-.24.24-.24.72h.24l.48-.72v-.48l.24-.24v-2.64h.72l.48.24h.24v-.24h-.24l-.48-.24-.48-.24v-.48l-.24-.48v-.72l.24-.48v-.48l.24-.48v-.72l.24-.24v1.92h.24v-1.92l.24-.48v-.72h.24l.24.48v-.72l.24-.24v-.48h.24l.24.24v.24l.24.48.24.24v2.64l-.24.72v.48l.24.24.24.48h.24v.24l-.24.48h-.24v.48l.24.24v1.68l-.24-.24h-.24v.96l-.48.72v.72l-.24.24v.72l-.24.24v.24h.48v-1.2l.24-.24.48-.72.48-.24.24-.24v-.96l.24-.24-.24-.48v-.24l.24-.24v-1.44h.24l.24.48.48.24.72.48h.48l-.48-.24h-.24v-.48l-.48-.24v-.24l-.48-.24-.24-.24-.24-.24v-.48l.24-.48v-.24l-.24-.24-.24-.48v-.24l.24-.24.48-.24.48-.24.24-.24.24-.24v-.48l-.24-.24v-.24l.24-.48.24-.24.24-.24.24-.24v-.24l.24-.24h.24v.48l-.24.24-.24.48v.24l-.24.48h.48v.24l-.24.24.24.24v.24h.48v-.24l-.24-.48.24-.48v-.24l.48-.24v1.44l.24-.48.24-.48-.24-.48v-.48h.24l-.24-.24-.24-.24v-.96l.24-.24.24-.24h.24l.48.24.24.24.24.48h.48l.24.48.24.24.48.24.48.24.48.24v.48l.24.24.24.24h.48l.24.24v.48h.24l.24-.24v-.24l-.48-.24h.24l-.24-.24h-.24l-.24-.24h-.24l-.24-.24v-.24h.24l.24-.24h.24l-.72-.24-.24-.24-.24-.48v-.72l-.24-.24v-.24h.72v.24l.24.24v-.48l-.24-.48.24-.24h.24l-.24-.24h-.24l-.24.24h-.24l-.24.24h-.24l-.24-.24v-.24h.24v-.24l.48-.24.24-.24.24-.24.24-.24-.24-.24-.24.24-.24.48-.48.24h-.48v.24l-.24.24-.48-.24-.24-.24h-.72l-.24-.24v-.96l-.72.24h-.48v-.24l-.24-.24h-.24l.24-.48.24-.24.24-.24.24-.24.24-.24.24.24v.48l.24.48v.24l.24-.24-.24-.24v-.96h-.24v-.72h.48v.48l.24.24.48.24h.24l.24.24.24.72.24.24h.24v-.48h-.24l.24-.24v-.24h-.48v-.72l.48-.48.24-.48v-.24h.24v.72l-.24.24h.24l.24-.48v-.24h.24v.96l.24.24v-.72h.96v2.4l.24-.24h1.2l-.48-.24h-.48v-1.68l.24-.24h.24l.24.24.24.24h.24l.24.24.24-.24h1.68v.48l-.24.24v.24l-.24.48v.24l-.48.24h-.24l-.96.48-.48.24-.48.24v.24l-.24.24.24.24.24-.48.24-.24h.48l.24-.24.72-.48.72-.48h.24l.24-.24.24-.48v.24l.24.24v.48l.24.48-.24.24.24.24h.48v.24l.24.24.24.24v.24l-.48.48v.24h.24l.24-.48.24-.24v-.24h.24l.24-.48v1.2l-.24.72h.24l.24-.24.24-.48-.24-.24v-.48l.24-.24h.24l.24-.24v-.72l-.24-.24-.24.24h-.48l-.96-.48v-.48l.48-.24h.48v-.48h-.24l-.24-.48-.24-.24h.24v-.24h-.72v-.24l.24-.24.72-.24h.24l.24-.24v-.24h-.48l-.48.24h-.24l.48-.24.24-.24v-.24h.48l.24-.24h.24v-.24h-.24l-.24.24v-.24h-.24v-.24l.24-.48.48-.72.24-.72.24-.24h.24v-.48l.24-.24.24-.24.24-.24h-.24l-.48.24h-.24l-.24-.24-.24-.24-.24-.48-.24-.48v-.24l-.24-.24v-.72h-.24v-.24l-.24-.48.24-.24v-.24l.24-.24h.24l.24.24v.48h.24l.24-.24h.24l.48.24h.24l.24.24.24.24v.24l.24.24v.24l.24.24-.24.24-.24.48v.96l.24-.24h.24l.24.24h.48l.24.24v-.24l.24.24.24.24v-.24l-.24-.48-.24-.24h-.72v-.24l-.24-.24.24-.24v-.96l.24-.48v-.72h.48l.24-.24.24.24.24.24.48.24.24.24h.24l.24-.24-.72-.96h.24l-.24-.24h-.24v.24l-.24-.24v-.24h-.24l.24-.24h-1.2v-.24h-.48v-.72l-.24-.24v-.24l.24-.24v-.24h.48v.24l.24.24.24.24.48.24.24.24.24-.24v-.24l-.24-.24v-.24l-.24-.24.24-.24h.48v-.24h-.24l-.48-.24h-.48l.24-.24h-.24v-.48l.24-.24h-.48l.24-.24.24-.24h.24v.24h.24l.24-.24h.24v.24l.24.24v.24l-.24.24h.24v-.24h.72v-.72h.24v.24l.24.24v.24l-.48.48-.24.48h.24l.24-.24v.24l.24.24h.24v-1.44h.48v.48h.48v.48l.24.48v.48h.24v-.48h.24l-.24-.24.24-.24-.24-.24v-.96l-.48-.24v-.72h.24l.24.24.72.48.24.24v.24l-.24.24-.24.48h0l.24-.48.24.24.24-.72h.48v.24h.24l.24.24v-.48l.24-.24h.24v.24h.24l-.24.24h.24v.48h-.24v.24l-.24.24.24.48h-.24l-.24.24-.24.24-.24.24h.24l.24-.24.24.24v.72h-.24v-.24h-.24v.24l-.48.48v.48h-.48v1.2l-.24.24h-.24v.48l-.24.48-.24.24v.48l.24-.24h.24l.24-.24v.48h-.48l-.24.24.24.24h.24l.24-.24h.24l.24-.24v.24l-.24.24v.24l-.24.24h.24l.24.24v.24h-.48v.24l-.48.24v.24h.48l-.24.24v.48l.24-.24h.24l.24.24v.24l-.24.24v-.24l-.24.24v.72l-.48.48v.24l.24.24.24.24-.24.24-.24.24.24.24.24.72.48.24v-.48l-.24-.24h0l-.24-.24.24-.24v-.24h.24v.24l.24-.24h.24v.24h-.24v.72l.48.24v-.24l.24-.24.24-.24v-.96l-.24-.24v-.24l.24-.24.48-.24v-.48l.24-.24v-.72l.24-.48h-.24l-.24.24h-.24l-.48-.24.24-.24v-.48l.24-.24v-.24h.24v-.48l.24-.24v-.72l.48-.96.24-.24.24-.24.24-.24v-.48h.24v-2.16h.24v-.72l.24-.24v-.48l.24-.24v-.48l.24-.48.24-.48v-.48l.24-.24v-.24l.24-.24h.24l.24-.48v.24l.24.24v.48l.24.24v1.2h.24v-.24l.24.24-.24.24v.48l.24.48v.24l-.24.48h-.24l-.24.24v.24l-.24.24h-.24l-.24.24v.24l-.24.24h.24l.72-.48h.48l.24.24v.72h.24v3.12l.24.24v.24l-.24.24h.24l.24-.24v-.24h.72l-.24-.24h-.24l-.24-.24v-.48h.48l.24.24.24.24v-.24l-.24-.24.24-.24-.24-.24v-.48h.24v.24l.24-.24h.48v.24h.24v-.24h.72v-.24h-.24l-.48-.24-.24-.48v-.48l-.24-.24v-.24l.24-.48v-.24l.24.24h.72l.24.24h.24l-.24-.24-.24-.24h-.24v-.24h-.48l-.24-.24v-.24l.24-.24h-.24v-.24h0l-.24-.24v-.72h.72l.48.24v-.24l.24-.24h-.24l-.24-.24v-.48l-.24-.24v-.24h.48l.48.24h.48l.48-.24-.24-.24-.24.24h-.24l-.24-.24v-.24l.24-.24h-.24v-.24h-.72v-.48h-.24l-.24.48h-.72l-.48-.48.24-.24h-.24v-.48h.72v.24l.48.24v-.24l-.24-.24v-.24l-.24-.24-.48-.24v-.24l.24-.24.24.24h.96l.24.24v.48l.24.24.24-.24h-.24v-.72l-.24-.24v-.24h-.24l-.24-.24v-.72l.48-.48v.24h.24v-.24l-.24-.24.24-.24v.24h.24v.24Zm-15.601,3.36.24.24v-.24h.24v.72l-.24.24.24.24v.24h-.24l-.24-.24h-.24l-.24-.24v-.48l.24.24h.24v-.24l-.24-.24v-.24Zm-3.12,1.44v.72h-.48l-.24.24h-.24v-.24l.24-.24h0v-.24h.24l.24-.24Zm4.56-.24h.24v-.24l.24.24-.24.24v.48h-.48v-.96Zm-4.56,2.16v.24h.24l.24-.24h.24l.24.24v.24h-.24l-.24.24v.24h-.24v.24h-.24l-.48-.24v-.24l-.24-.24.24-.24h-.48l-.24-.24h.24v-.48l.24-.24h.24l.24-.24h.24v.24l-.24.24h.24l.24.24h-.24Zm2.88-1.44h.48v.24h-.72l-.24-.24h.48Zm-1.68,2.88v.24h-.24v-.24h.24l.24-.48v.24Zm-3.84,1.92h.24v.24h-.72l.48.24v.24h-.24v.48l-.24-.24-.24.24.24.24v.24h-.24v.24h-.24l.24.24-.24.24-.24-.24h-.24l.24.48h.24l-.24.24-.48.24h.24l.24.24-.24.48v.24l-.24-.24v-.24h-.24l-.24.24.24.24h.24v.24h-.72v.24l.24.24v.24l-.24.24h-.48l-.24-.24v.48h-.24v-.72h-.48v.24l.24.24-.24.24v.24h-.48v-.24l-.24-.24v.96h-.24v-.48l-.24.24-.24.24h-.24l.24-.48h-.24v.48l-.24.24-.24.24h-.72l.24-.48v-.24l.24-.24v-.24h.24l.24-.24v-.24h-.24v-.24l.48-.48h-.48l-.24.24h-.24v.24h-.96v-.24l.24-.24v-.24h-.48v-.48h.24l.24.24h.48v.24l.24-.24.24-.24h-.24v-.48h.24l.24.24.24.24h.48l-.24-.24v-.24l-.24-.24.24-.24v-.24h.24v.48h.24v-.24l.24-.24v-.24h.24v.24h.24v.24h.24v.24l-.24.24-.24.24.24.24.24-.24.24-.24v.24l.24.24.24-.24v-.24h.24l-.24-.48v-.24h-.24l-.24-.24-.24-.48.24-.24.24-.24.24.24v0h.24v.48h.48v.48h.24v.24h.24l.24.24v-.24l-.24-.24.24-.24-.24-.24v-.24h.48v-.24l.24-.24-.24-.24h-.48l-.24-.24v-.48h.24l.24.24v-.24l-.24-.24h.24l.24.24.24.24v-.24l-.24-.24v-.24l.24.24h.24v.24l.24.24v-.24l.24-.24h-.24l.24-.24h-.24v-.24l-.24-.48h.48v.24l.24.24h.24l.24.24Zm-2.16-.24-.24.24h-.24v-.24h-.24l.24-.24.24.24Zm22.0814-3.6h-.24v-.72l.24.24v.48Zm-6.72,3.36h-.48v-.48l.24-.24.24.24v.48Zm-12.7208,3.12.24.24h.24v.24l.24.24v1.2h.48l.24.24v.96l-.24.48-.24.24-.24.24v.48l-.24.24-.48.24.24.24v.24l-.24.24-.24.48h-.48l-.24-.24-.24-.48h-.24l.24-.24v-.48l.24-.72h-.24v.72l-.24.24v.24h-.72l-.24-.24v-.24l-.24-.48h.24l-.24-.24.24-.48.24-.48v-.24l.24-.24.24-.24h.24v.24l.24.24v-.48l.24-.24h-.48v-.48h.24l.24.24.24.24v1.2l.24-.24v-.96l-.24-.24v-.24h.24l.24.24h.24l-.24-.24v-.24h.24l.48.24v-.24l-.24-.24v-.24l-.24-.24v-.24h-.48v-.24h.24Zm-2.88,5.52.24.24.24-.24v.24l.24.24.24-.24v.48l.24-.24v.24l.24.24v.48h-1.2l-.24.24-.72-.24-.96-.24-.24-.24-.24-.48v-.24h.24l.24.24v-.72l.24-.24h.24l.24.24v-.24l.24-.24v.24l.24.48v.24h.24v-.96h.24v.72Zm-5.52,2.4h-.24v-.72l-.24-.48v-.72l.24-.24.48.48v1.44Zm-1.68-.72h-.24v-.96h.24v.96Zm21.3614-3.12-.24.24v-.24l-.24-.24v-.24l.24-.24.24.24.24.24Zm-27.8418,5.76h-.24l-.24-.48v-.24l-.24-.48.24-.24.24.24.24.48.24.24v.24Zm-3.12.48h.24l.24.24v.24l.24.24v-.24l.24-.24h.24l.24.24v.24l.24.24.24.24.24.24h.48v.48h-.48v.24h.24l-.24.24-.48.24-.24-.24-.48.24h-.24v-.24l-.24-.24v-.48l-.24-.24v-.24l-.48-.48v-.24l-.48-.24-.24-.24h.24v-.48l.24-.24v-.24h.24l.24.24v.72Zm.72,0h-.24v-.24h-.24v-.48h.24v.24l.24.24Zm-2.88,1.2-.24.24.24.24-.24.24-.24.24h-.24l-.72-.48v-.24h.48v-.24l.24-.24v-.24h-.24l-.24-.24v-.24l.24-.24h.48l.24.24v.48l.24.24Zm7.9205-2.16.24.24h.24v.48l-.24.24v.96l.24.24.24.48v.24l-.24.24h-.48l-.48.24h-.24l.24-.48v-.48l-.24-.24v.72l-.24.24v.24l-.48-.48-.24-.24v-.96l.24-.48.24-.24.24-.48.24-.24h.24l.24-.24Zm-9.3606,2.16v.24h-.24v.48l-.24-.24v.24h-.72v-.24l.24-.24.24-.24v.24l.24-.24v-.48h.24v.24Zm5.76-.48.24.24h-.24l-.24-.24h-.24v-.24h.24Zm-2.4,1.44h-.48l-.72-.24h-.24v-.24l.24-.48h.24l.24.24h.24l.24.24h.48v.24Zm7.2-.48h-.24l-.24-.24-.24-.48v-.24l.24-.48h.24v.48l.48.24-.24.24Zm-11.2807.72h-.24v-.24Zm.96.24h-.24v-.24h-.24l.24-.24v.24Zm-1.2.48.24.24v-.48l.24-.48v.24h.48v.72l-.48.24h-.24l-.24.48v.72h-.24l-.24-.24v-.48l-.24-.24v-.72h.24v-.72h.24l.24.24v.48Zm3.36-.24-.24-.24v-.24l.24.24Zm-.96,0,.24-.24h.24v.48l.24.48v.24l.24.24.24-.24v-.48l.24-.24.24-.24.24.24v.24l.24.24v-.24h.24l.24.24v.72l-.48.24-.24.24v.72l-.24.24v.96l-.24.24-.48.24-.48.24-.48.24-.24-.24v-.24l-.24-.24-.24-.48-.48-.24-.72-.24h-.48v-.24l-.24-.48.24-.24h.24l.48.24v-.24h0l-.24-.24h-.24v-.48l.24-.48h.48l.24-.24.24-.24v.48h.24v-.24l-.24-.48v-.24h.24v-.24h.72Zm9.8406-.48h-.24v-.72l.24-.24.24.24Zm1.68-.48h-.48v-.24l.24-.24h.24v.48Zm2.64.24h-.24l-.24-.24-.48-.24v-.48h.24l.48.48h.24l-.24.24Zm-17.7611,1.92v-.48l.24.24Zm12.9608-1.44.24.24.24-.24h.24l.24-.24h.24l-.24.24-.48.48v.48h-.24l-.24.24h-.48l-.24-.24v-.24l-.24-.48v-.48l.48-.24h.24Zm-5.04.72v.24h-.24l-.24-.24v-.24h.72v.24Zm-1.92,2.88-.24.24h-.24v-.72l.24-.24v-.24l.24-.24v-.24l.24-.24.24-.24.24-.48v-.48h.24l.48.48h.24v.48l-.48.72v.72l-.24.24h-.24l-.48.24Zm6-2.4h-.24v-.24l-.24-.24.24-.24.24.24v.48Zm0,2.4-.48.24v-1.68l.24-.24.24-.24h.48v.72l.24.48-.24.24h-.24Zm-10.0806,0v.24h.24l.48.24.24.24.24.24.24.24v.96l-.24.48-.24.24v.24l-.24.24h-.48v.24l-.24.24v.48h.24l.48.24-.24.24v.48l-.48.24-.48-.24-.24.48-.48.24-.72.24-.48.24h-.48l-.24-.24h-.48l-.24-.24h-.24v-.24l.24-.24v-.72h.24l.24-.24h.48l.24.24.24.24.48-.24v-.24h-.24v.24l-.24-.24-.48-.24-.24-.48-.24-.24.24-.24v-.24l.24.24.48.24.48-.24h.72v-.24h-1.2l-.24-.24v-.96l.24-.24h.48l.24.24v.24l.24-.24v-.48h.24v-.24h.24l.24.24v1.44l.24.48h.48l-.24-.24v-1.68l-.48-.24v-.48l-.24-.24v-.24l.24-.24v.24h.24v-.24h.48Zm-1.2.96-.48.24h-.24l-.24-.24v-.24h.24v-.24l.24-.24.24.24.24.24Zm-1.68,2.16h-.24l-.24-.24h-.24v-.24h.24v-.24h.24l.24.48Zm-.48.96v.24l-.24.24h-.24v-.48l.24.24v-.24l-.24-.24h.24Zm-1.92,2.16v-.24l.24-.24h.48l.24.48v.24l-.24.24v.72l-.24.24v.24h.24l.24-.24v-.72l.24-.24h.48v.72l-.24.48-.24.24.24.24v-.24l.24-.24h.24v1.44l-.24.24h-.24v.24l-.24.24v.24l.24.24v.96h-.24v.24l.24.24h.48v.24l-.24.24-.48.24h-.96l-.24.24h-.96l.24-.24v-.48l-.24-.24v.24l-.24.48-.24.24-.96.96-.24.24v.24l.24.24v.48l-.48.24h-.48v-.24h-.24l.24-.24h.24v-.24h-.48l.24-.24h.48l-.24-.24h-.24l-.24.24h-.24l-.48.24-.24.24-.24-.24v-.24l-.24-.48.24-.24.24.24h.24v-.48l.24-.24h.72v-.48l.24-.24h-1.2l-.24-.24h.24l-.24-.24v-.24l.24-.24h.48l.24.24h.48v-.24h-.24v-.24l.24-.24v-.24l-.48.48h-.24v-.48h-.24l-.24.24v-.24h-.24v-.24l.24-.24.24-.24h.24l.24.24.24.24v-.24l-.24-.24.24-.24v-.24h-.72l-.24.24h-.48v-.24h-.24v-.24l.24-.24.24-.24v-.24l.24.24h.24l.24.24h.24l.24-.48h.72l.24.24.24.24v.24l.24.24h.24v-.24l-.48-.48-.24-.48h.96l-.24-.24h-.72l-.24-.24-.24-.24-.24-.24h.48v.24h.24v0h.24v-.24h.24l-.48-.72v-.24h.24l.24.24.24.24.24.24v.24l.24-.24.24.48h.48v-.24l-.48-.48-.48-.48-.24-.24v-.72h.24l.24.24.24.48.24.48v.24l.24.24.24.24v-.24l-.24-.24h.24v-.24l-.24-.24-.24-.24v-.72h.48v.24Zm-6.48,10.3194h.24v-.24l.24-.24.24.24v.24l.24.24v.96h-.24l-.24.24h-.24l-.48-.24-.24-.24-.24-.24-.24-.24-.48-.48v-.24l.24-.24h.48l.24.24h.48Zm-3.6.48.24.48v.24l.24.24v.48l-.24.24v1.2l-.48.48v.24h.24l.24-.48.24-.24.24-.24.24.24v.96l-.24.48-.24.48-.48.48h-.24l.24.72-.24.24v.24h.24v-.24l.24-.24-.24-.48.24-.24.24-.24.72-.72v-.72l.24-.24v-.24h.24l.24.24h.48v-.48l-.48-.24-.48-.24v-.48l.24-.48.24-.24h.48v.24l.24.24h.24l-.24-.24v-.24l-.48-.48v-.24h.24l.24.24v.24l.48.24h.48v.24l.24.24.24-.24.24.24-.24.24.24.24v.24l-.24.24.24.24v1.92l-.24.24v.72l-.24.24h-1.44l-.24.48-.24-.24v-.24l-.24.24v1.68l-.24.24v.24l-.24.48-.24.24v.24h-.24v-1.68l-.24-.48v.96l-.24-.24h-.24v.24l.48.24v.48h-.24v-.24l-.24-.24v.72h-.24v.24l.24.24-.24.24-.24.24v.48l-.24-.24-.24.24v-.48h-.24l-.24-.24v-.24l-.24.48h-.72v-.24l.24-.48v-.24l.24-.24.48-.24.24-.72v-.24h.24l-.24-.24-.48.72-.24.24-.48.48-.24.24-.48.48h-.24v.24h.24v.24l-.24.24v.24l-.24-.24-.24.48h-.24l-.24-.24v-.48l.48-.72v-.24l.24-.48v-.24l.24-.24h.96v-.24h-.72l-.24-.24v-.48l.24.24.24.24h.24v-.24h-.24l-.24-.24-.24-.24h-.24v-.48l.24-.24h.48v-.24l.48-.48.24.24h.24l-.24-.24.24-.24.24.24.24-.24h.24v0l-.48-.24-.48-.24v-.96h1.2v.24h.24v-.24h-.24v-.24h-1.2v-1.2h.48l.24-.24.48.24v-.24h-.24l-.24-.24-.24-.24v-.24l.24-.24v-1.2l.24-.24h.24l.24.24h.24l.24-.24h.24Zm9.6006.48-.24.48-.48.24-.48.48-.24.24-.24-.24-.24-.48v-.48h-.24v-.72l.24.24.48.48h.24l-.24-.24-.24-.48v-.24l.48-.24.48.24h.24v.48h.48Zm-5.52,7.44-.24.24h-.72l-.24.48-.24.24h-.48l-.24-.24v-.48l.24-.24h.48v-.24h-.48v-.96h.24l.48-.48h.96v.72l.48.24v.24h-.24v.48Zm-23.0415,83.9952h-.24v.48h-.24v.72l-.24.24v.48h.24v.24h.24v.24h.72v.24h.24v.24h.24l.24-.24v-1.2h.24v-.24l.24-.24h.24v.72l.24.24h.24v.24h.96v-.24h.72v.24h.48v.72l-.24.24v.24h.24v.48h.24l.24-.24.24-.24v-.48h.24v-.24h-.24l-.24-.24-.24-.24v-.72h.48v.24h.48v.24h.24v.24l.24,2.4.24-.24.48-.24.24-.24.24-.24h.24v-.24l.24-.24h.24v-.24h.48v.24h.72v-.24h.24v-.24h.24v-.24h1.44v.48h-.24l-.24.24h-.24v.24h.24v.48h-.24v.24l.24.24h.48l.24-.24h.72l.24.24.24.24v.24l-.24.24v.48h-.24v.24l-.24.24v.48l-.24-.24h-.72v-.24h-1.2v-.48h.24v-.96h-.48v-.24h-.72l-.24.24v.48h.24l.24.24.24.24v.24h.24v.24h-.48l-.48-.24h-1.68l-.24.24h-.48v.24h-.24l-.24.24h-.24v.24h-.24v.24l-.24.24v.72h.24v.24h.48v.24h.24l.24.24.24.24v.72l.24.24.24.24-.24.24v.24h-.24v.24h-.24v.24l-.24.24v1.68h-.72l-.24-.24-.24-.24h-.24v-.24h-.72l-.24.24h-.24l-.24.24h-.24l-.24.24-.48.48v.24h.24v.24h.24v.24h.48v.24h.48v.24h.24l.24.24.24.24v.24h.24v.24l.24.24v.24h-.24v.24h-.24l-.24-.24h-.24l-.24-.24-.24-.24h-.24v-.24h-.24v-.24h-.24v-.24h-.24l-.24-.24h-.96v.24h-.96v-.24h-.48l-.24-.24-.24-.24v-.48l-.24-.48-.24-.24v-.24l-.24-.48v-.24h-.48v.48h-.24v.24h-.96l-.24-.24-.24-.24v-.24h-.24v-.24l-.24-.24h-.24v-.24h-.24l-.24.24h-.24v.24h-.24v.24h-.24v.48h-.24v.24h-.24l-.24.24v-.24h-.24v-.24h-.24v-.24h-.48l-.24.24v1.44h-.24v.24h-.24l-.24.24h-.24v.24h-.24v.24h-.24v.48h-.24v.24l-.24.24-.24-.24v-.48l-.24-.24-.24-.24v.24h-.24l-.24.24h-.24v-.24h-.72l-.24.24h.24v.24h.24v.24h.24l.24.24h.48v.72h-.24v.24h-.24v.96l-.24.24h-.24v-.24h-.48l-.24-.24h-1.2v.24h-.48v.24h-.24l-.24.24h-.24v.24h-.48l-.24.24v.24l.24.24h.48v.24h-.24v.24h.72v-.48h.24v-.24h.24v-.24h.24v-.24h.24v-.24h.96l.24.24.24.24h.24v.24h.24v.24h.24v.24h.24v.24h.24v.24l.24.24.24.24.24.24.24.24v.24h.24v.48l.24.24v1.44h-.24v.48l-.24.24v.24h-.72v-.24h-.96l-.24-.24-.24-.24-.24-.24h-.48l-.24-.24h-.24v.24h-.24v.24h.24l.24.24h.48l.24.24.24.24.24.24v.24h.72v.24h.72v.24l.24.24v.24h.24v.48h.24v.48h.24v.48h.24v.48l.24.24v.24h.24v.48h.24v.24h-.24v.24h-.24v.48h.24v.24h.24v.24h.24v.24h.24v.24l.24.24v.24h.24v.24l.24.24v.24h.24v.24l.24.24v.24h.24v.72l.24.24v.72l-.24.24v.24l-.24.24v.48l.24.24v.24l.24.24.24.24v1.2h-.24l-.24.24-.24-.24-.24-.24v-.24l-.24-.24h-.48v-.24l-.24-.24-.24-.72h-.96l-.48.24h-.48v-.24h-.24v-.24h-.24v-.24h-.24v-.48h-.24v-.72h-.24v-.72l-.24-.24v-.48h-.24v-.48h-.24v-.24l-.24-.24-.24-.24v-.24h-.24v-.24h-.24v-1.68h-.24v-.24h-.24v-.24h-.24v-.48h-.24v-.48h-.24v-.48h-.48v-.24h-.48v-.24h-.24v-.24l-.24-.24v-.24l-.24-.24-.24.24v.72h-.72v-.24h-.24v-.24h-.24v-.48l-.24-.24-.24-.24h-.24v.24h-.24v.24h-.24v-.24l-.24-.24v-.96h-.24v-.48h-.24v-.24l-.24-.24v-.24h-.24v-.48l-.24-.24v-.24h-.24v-.48l-.24-.24v-.24h-.24v-.24l-.24-.24v-.24h-.24v-.24h-.24l-.24-.24h-.24v-.24h-.24v-.24h-.48v-.24h-.24l-.24-.24h-.48v-.24h-.48v-.24h-.72v-.24h-.48l-.24-.24h-.24v-.24h-.48v-.24h-.24v-.24h-.24l-.24-.24-.24-.24h-.24v-.24h-.48v-.24h-.48l-.48-.24h-.24v.48h-.48v.24l.24.24h.48v.24h.24l.24.24h.24v.24h.48l.24.24h.72l.24.24h.24l.24.24v.24l.24.24h.72v.24h.48l.24.24h.24l.24.24.24.24h.24v.24h.24v.24h.24l.24.24.24.24v.24h.24v.24h.24v.48h.24v.24l.24.24.24.24v.24h.24v.72h-.24v-.24h-.24v-.24h-.24v-.24h-.24v-.24l-.24-.24-.24.24h-1.44l-.24.24h-2.4l-.24-.24h-.96v-.24h-.72v-.24h-.48l-.24-.24h-.48l-.24-.24h-.24v-.24h-.72v.24h.24v.24h.24v.24h.24l.24.24.24.24h.48l.24.24h.48v.24h.48l.24.24h.48l.24.24h4.56l.24.24h.24l.24.24h.24v.24h.48v.24h.24l.24.24h.24v.24h.24v.24h-.48l-.24-.24h-.72v.24h.24v.24h.24v.24h.48v.24h.48v.24h.72v.24h.48l.24.24.24.24h-.24l-.24.24h-.24l-.24.24h-.48v.24h-.24l-.24.24h-.24v.72h.48v-.24h.72l.24-.24h1.44v.24h.48v.24h.24l.24.24h1.44v.72h-.24l.24.24.24.24.24.24.24.24v.96h-.24v.24l-.24.24v.48l-.24.24h-.48l-.24-.24-.24-.24h-.24v-.24h-.24l-.24-.24h-.24v-.24h-.24v-.24h-.48v-.24h-.24v-.24h-.72l-.24.24v.48h.24l.24.24h.24l.24.24h.48v.24h.48v.24h.24l.24.24h.24v.24l.24.24.24.24v.24h.24v.48l.24.24h.48v.24h.24v.24h.24v.24h.24v.24h.24v.24l.24.24-.24.24h-.72v-.24h-.24l-.24-.24-.24-.24h-.24v-.24h-.24v-.24h-.48l.24.24h-.24v.48h-.24l-.24.24h-1.68v-.24h-.48l-.24-.24h-.24v.24h-.24v.72h-.24v.24h-.24l-.24-.24h-.24v-.24h-.24v-.48h-.24v-.48h-.24v-.48h-.24v-.48l-.24-.24-.24-.24-.24-.24h-.24l-.24-.24h-.24v-.24h-1.2v.48l.24.24v.24h.24v.24h.24v.24l.24.24.24.24.24.24v.24h.24v.24h.24v.72h-.24l-.24-.24v-.24h-.24v-.24h-.24v-.48h-.24v-.24h-.24v-.24h-.24v-.24h-.24v-.24h-.48l-.24-.24h-1.92l-.24.24v.24l.24.24h.24l.24-.24h.72v.24h.72v.24h.24l.24.24h.24v.24h.24v.24h.24v.48h.24v.24l.24.24.24.24v.24l.24.24.24.24v1.92h.24v.24h.48v.24h.48l.24.24h.24v.24h.24v.24h.24v1.92h-.24v.24h-.24v.24h-.48v-.24h-.48v-.24l-.24-.24v-.24h-.24v-.48h-.24v-.24l-.24-.24h-.24v-.24h-.72v.24l-.24-.24h-.24v-.24h-.24v-.24h-.24l-.24-.24h-.24v-.24h-.24v-.24h-.48v-.24h-.24l-.24.24v.24h.24v.24h.24v.24h.48v.24h.48v.72h-.24v.24h-.48v.24h-1.2l-.24-.24h-.24l-.24-.24h-.24v-.24h-.48v-.24h-.96l-.24.24.24.24h.48v.24h.96l.24.24.24.24-.24.24v.24h-.24v.24h-.72l-.24-.24h-.48v-.24h-.48v-.24h-.72v.24h.24l.24.24h.24v.48l-.24.24-.24.24h-.24l-.24.24h-.48v.72h.96v-.24h.48v-.24h.48v-.24h.48v-.24h.48l.24-.24h.48l.24-.24h.48v-.24h.48l.24-.24.48-.24h.24l.24-.24h.48v-.24h.48v.24h.24v.24l.24.24v.24h.24v.48h.24v.48l.24.24v.48h.24v.48h.24v.48h.24l.24.24.24.24h.24l.24.24h.24l.24.24h.48l.48.24h.24l.24.24v.24l.24.24v.72h-.24v1.68l.24.24h-.48v-.24h-.24l-.24-.24-.24-.24v-.24h-.24v-.48h-.24v-.24h-.24v-.24h-.72v.24l.24.24v.24l.24.24v.24h.24v.48h.24v.72h-.24v.24h-.24v-.24h-.24v-.24h-.24v-.24l-.24-.24v-.24h-.24v-.48l-.24-.24v-.24h-.24v-.24l-.24-.24-.24-.24h-.24v-.24h-.72l-.24.24h-.24v.24h-.72l-.24-.24h-.48l-.24.24.24.24h1.2l.24.24h.24v.24l.24.24v1.2l.24.24v.24h.24v.48h.24v.24h-.24v.48h-.48v.24h-1.44v1.44h.24v.24l.24.24v.48h.24v.24l.24.24v.24h.24v.48l.24.24v.24h-.48l-.24.24v.48h-.24v.48h-.24l-.24.24h-1.44l-.24-.24h-.48v.24h-.24v.48h-.24v.48h.24v.24h.24v.24h.24l-.24.24v.48h-1.2l-.24.24v.24h-.24l-.24-.24h-.24l-.24-.24h-.24l-.24-.24h-.24l-.24-.24v-.48l.24-.24-.24-.24v-1.68h-.24l-.24-.24h-.72v-.24h-.72l-.48-.24h0l.48.48.24.24v.24h.48v.24l.24.24v.72h-.24l-.24.24-.24-.24h-.24v-.24h-.24v-.48h-.24v-.48h-.24v-.24h-.24v-.24h-.24v-.24h-.48v-.24h-.72v.24l.24.24h.24l.24.24h.24l.24.24.24.24v.24h.24v.24l.24.24v.24l.24.24v1.92h.24v.48h.24v.72l-.24.24v.24h.24v.24h.48v.24l.24.24v.72h-.48v.24h-.48l-.24.24v.24h.48v.24h.72v.72h-.24v.72h.24v.48h.24l.24-.24v.24h.24v.48h.24v.48h.24v.24h.24v.24h.24v.24h.24v.24h.24v.24h.24v.24h.24v.24h.24l.24.24h.24v.24h.24v.72h-.48v-.24h-.24v-.24h-.24v-.24h-.24v-.24h-.24v-.24l-.24-.24v-.24h-.24v-.24h-.24v-.24h-.48l-.24-.24v-.72l-.24-.24h-.48v1.2h.48v.24h.24v.24h.24v.24l.24.24h.24v.24h.24v.24h.24v.24h.24v.24h.24v.24h.24v.24l.24.24v.48l-.24.24h-.48v-.24h-.24v-.24h-.24v-.48h-.24v-.24h-.72v.72h.24v.48h.24v.72h-.24v.48h-.24v.96l-.24.24h-.24l-.24.24h-.72v-.24h-.48v-.24l-.24-.24v-.72l.24-.24v-.48h-.24v-.24h-.72l-.24.24v.48h.24v.48l-.24.24v1.2h-.24v.24h-1.68v.24l-.24-.24v-.48h-.24v-1.92h-.24v-.24h-.24v.24h-.24v1.2h.24l-.24.24v2.16h-.24v.24h-.24l-.48-.24h-.24v-.48h-.24v-.96h-.24v-.48h-.48v.24h-.24v.72h.24v.48l.24.24v.48h.24v.72h.24v.96h-.24v1.2h-.24v.48l-.24.24v.24h-.24v.24l-.24.24-.24.24-.24.24h-.72v-.24h-.24l-.24-.24v-.24h-.24v-.48l.24-.24h-.24l-.24.24v-.24l-.24-.24v-.72h.24v-.24h.24v-.24h.24v-.96h-.48v-.24h-.48v-.48h-.24v-.48h-.24v-.24h-.24v-.72h-.24v-.24h-.72l-.24-.24h-.72v-.24h-.24v-.48l-.24-.24v-.24h-.24v-1.2l.24-.24v-.48h.24v-.24l-.24-.24v-.72h.24l-.24-.24v-.24l-.24-.24h-.24v-.48h-.24v-.72h.24v-.24l.48-.24.48-.24,1.44-.24v-.24h-.24l-.72.24-.96.24-.48.24-.48.24-.24.24-.48.48-.24-.48v-.72l.48.24v-.24l-.24-.24h-.24l-.48-.24-.24-.24v-.24l-.24-.24.24-.24.48-.48h.24l.24.24.24-.24.24-.24h-.48l-.24-.24.48-.48h.24v-.48h.24l.24-.24.24-.24h.24l.72-.48h.24l.48-.24h.96v-.24h-1.2l-.72.48h-.48l-.48.24h-.24v-.72h.72l.48.24.24-.24-.24-.24-.24-.72h-.24v.48l.24.24h-1.68v-.24l.24-.48v-.24l.24-.24h.24l.48-.24.24-.24v-.24l.48-.24.24-.24v-.24h-.48v.24l-.24.48-.24.24-.48.24v.24h-.48l-.24-.24v.48l-.24.24h-.24v-.24l-.24-.24v-.72l.24-.24.24.24,1.44-.48h-1.92v-.24l-.24-.72h-.24l.24.72v.24l-.24.24-.48.24-.24-.24v.48h-.24l-.24.24v0h.24l.48-.24.48-.24v.24h.24v.48l.24.48-.24.48h-.48l-.24.24h-.24l-.24-.24-.24.48-.24.24v.24l-.24.24v-1.2h.24v-.24l-.24-.72v-.96l-.24-.24.24-.24v-.24h-.24l-.24.24-.48.48h-.24l-.24.24h.72l.24-.48h.24v2.16l-.48.72-.24.24v-.24h-.48v-.48l-.24.24-.24-.24-.24-.24v-.48l.24-.24v-.24l-.24-.48v.96l-.24.72.24.24h-.24l-.24-.24.24-.24-.24-.24v-.72l-.24-.48-.24-.24v-.48l-.24-.48.24-.24.24.24h.24l-.48-.48v-.24h-.24l.48-.48h.24v-.48h.24v-.24l.24-.24h.48v.72h.24v-.24l.24-.24-.48-.72h.24v-.48l.48-.24.24-.24h.24v.48l-.24.48v1.44l-.24.48v.24h-.72l.24.24v.24l.24-.24h.24l.24-.24.24-.48v-1.68l.24-.24h.24l.24.24h.48l.48.48v.48l-.24.24h.48v-.72h.96v-.24h-.96v-.24l.24-.48h.24l.24-.24.24-.24h.24l.24-.24v.24h.24v-.48h-.24v-.48l.24-.48v-.48l-.24.24v.72l-.72.24v-.24l-.24-.24-.24-.24h-.24l-.24-.24h-.24l-.24-.24h.24v-.24h.48v-.72l.24-.24h.48l.24-.24h.24l.48-.24.24-.24v-.96l.24-.24.72-.48h.48l.72-.48h.24l-.24-.24v-.24l-.24.48-.24.24h-.72l.24-.24v-.24l-.48-.48v-.24l.24-.48h.48v-.24l.24-.24.24-.24v-.48h.24l.24-.24.24-.24h.24v-.48l.24-.24h.72l.24-.24.48-.48h.24l.24.24.24.24-.24.48v.24l-.24.48-.24.48v.48l-.24.24v.72l-.24.48v1.2l.24-.24v-.72l.24-1.2.24-.24v-.48l.24-.96.24-.48.24-.24.24-.24.48-.72.48-.24h.24l.72-.24h.24l.48.24.48-.48h-.48l-.48-.24h-.48l.72-.96-.72.48.24-.24v-.24h-.48v1.2h-.72l-.48.48h-.24l-.24.48h-.24v-.24h-.24v-.24l.48-.48v-.24l-.48.48-.48.24h-.24l-.48.24-.24.24-.48.24-.48.24-.24-.24-.24-.24-.24-.48v.72h-.48v.24h-.24v.24l-.24.24v-.24h-.48v-.24h-.48v-.24h-.24v-.48l.24-.24h.24v-.48h-.24l-.24-.24h-.24v-.24l-.24-.24v-.72h.72v.24h.24v.24h.24v-1.44h.24v.24h.24v-.96h-.48v-1.2h.24l.24-.24h2.16v-.48h-.24v-.72h.24v-.48h-.24v.24h-.24v.24h-.24v.24h-.24v.24h-.24l-.24.24h-.96v-.24l.24-.24h.24v-.24h.24v-.48h.24v-.72h.24v-.24h.24v-.24h.24v-.24h.24v-.48h-.24l-.24.24h-.48v.24h-.24l-.24.24v.24h-.24v.48l-.24.24-.24.24-.24.24h-.24v.24h-.48v.24h-1.44v-.48h.24v-.24l.24-.24v-.48l-.24-.24h-.72v-1.44h.24v-.24h.48v-.24h.48l.24-.24h.24v-.24l.24-.24.72-.24.48-.24.24.24.24.24.72-.24h.24l.24.24h.48v.24l.24.24v.24h-.24l-.24.24h.24l.24-.24.24-.24h.24l.24.24v.24l-.24.48h.24l.24-.48v-.48h.48l.24-.24h.24l.24-.24.24-.72v-.24l.48.48h1.2v.72l.24.24h.72l.24.24v.48l.24.48v.24l-.24.24-.24.24-.48.48h-.48l-.24.24v.48l.48-.48.72-.48h.24l.24-.24h.24v.24l.48.24v.48l-.24.72h.24l.24-.72.24-.24-.24-.24-.72-.72v-.96l-.24-.72h.24l.24-.24h.72l.24-.48h.24l.48.24h.24l.24.24.24.24.24-.24-.24-.24h-.24v-.24l.24-.24.24-.24.24-.24h1.2l.24-.24.24-.24-.24-.24-.48.48-.72-.24-.48.48-.24-.24v-.72l-.24-.24-.24-.24-.24-.24.48-.24.24-.24-.24-.48.24-.24.24-.24.72-.72.24-.24.24-.48-.48.48-.24.24h-.24l-.24.24v.24l-.48.24v.24l-.24-.24h-.24l.24.24v.48l-.24.24-.48.24v.24l.24.24.24.24.24.72.24.72-.48.24-.48-.24-.24-.24v.24l-.24.24-.24.24h-.96l-.24.24-.24.24-.24-.24-.24-.48h.72l.72-.72h.48v-.24h-.24v-.24l.24-.24v-.24l-.24.24-.24.48-.72.72h-.48l-.48-.24-.48-.24-.48.24h-.24l-.24-.24-.24-.24h-.48l-.24-.24.48-.48.24-.24.24-.24.24-.48.24-.48v-.96l-.24.72-.24.72-.24.48-.24.24-.48.24-.24.24.24.24v.24l-.48-.24h0v.24l.24.96h-.24l-.24.24-.24.24h-.48l-.24-.24-.48-.24-.24-.48h-.24v-.24h-.24l-.24.48h-.72l-.24-.24.24-.48.24-.24h-.24l-.24.48-.48.24h-.48l-.24-.24h-.24v-.48h-.24v.48l-.24.24h-.24l-.24.24h-.24l-.24-.24h-.24l-.24.24-.48.48h-.24l-.24.24-.48.24-.24-.24-.24-.48v-.24h-.24l-.24.24h-.48v-.24l-.24-.24h.72l-.24-.24h-.48l-.48-.24v-.72h.24l.48.24.48.48v-.48l-.48-.24h-.24l-.48-.24h-.96v-.48l.72-.48h.48v-.48h.24v.24h.48v-.72h.24l.48.48.24.24v-.48l-.48-.24h.72l.24-.24.48.24.24-.24.48.24h.72l-.24-.24h-1.44v-.24h-.24l-.24.24h-1.44v.24l-.24.24-.48.24-.48-.96.24-.24h.24v.24l.24-.48.24-.24h.24l-.24-.24-.24.24-.72.24-.24.24-.24-.24.24-.24.48-.48h1.2l.24-.24h.24l.48.24h.24l-.24-.24h.48l.24.48h.96l.48-.24.72-.24.24-.24.48.24v.48h.24l-.24-.48-.48-.48h-.24l-.72.48h-.24l-.48.24h-.48v-.24l-.24-.24h-.72l-.72-.24v-.24h-.24l-.24-.24v-.24l.24-.24h.24l.24.24h.24v-.24l.24.24.24-.24h-.24l-.48-.24-.48-.24.24-.24h.48l.48.24h.24l-.24.24h.48l.24.24v-.48l-.48-.24h-1.44v-.24h1.2l.24-.24h-2.88l.24-.24-.24-.48v-.48l.24-.24v-.24l.24-.24h.24l.24.24v.72l.24-.24v-.24l.24.48v-.24l.24-.24-.24-.24v-.24h.96v-.24h-.96l-.24.24-.24-.24v-.24l.48-.24h.72l.24-.24.24-.24v-.48l.24-.24.24-.24h.48l.72.24h.72l.24.24h.48v.24l.24.24v.24h-.72l-.24.48h.24l.48-.48h.48l.72-.24h.24l.24.24h.24v.48l-.48.96h.24l.24-.48.24-.24.24-.48.24.24v.24l.24.24v.24l.24.24h.48v-.24l-.24-.24-.72-.48v-.24h1.2l.24-.24.24.24.48.24v.24l.72.24.24-.24h.24l.24-.24v-.72h.24l.96.24.24.24h.24v-.24h-.24l-.24-.24-.24-.24h-.96l-.24.24-.24.48-.72.24v-.24l-.24-.24h-.24l-.24-.24h-.72l-.24.24h-.48l-.24-.48h-1.44l-.48.24-.24-.24-.24-.24v-.24l.72.24h.96l.24-.24h-.24l-.24-.24h-2.4l-1.2-.24v-.24h-.24l-.72.24-.24.24-.48-.24h-.24l-.24.24h-.24l.24-.24h-.24l.24-.48v-.48h.24v.48l.24.24v-.48h.24l.24.24v-.48h.24v-.24l.24-.48.48.24v-.24l-.48-.48-.24-.24-.24-.24-.24-.24v-.24h-.48l-.24.24-.24-.24v-.24h.24v-.24l-.24-.24-.24-.24h.24v-.48h.24l.24.24h.24v-.48l.48.48v.48l.24-.24h.24v.48l-.24.48.72.48.48.72v.48h-.24l.24.24.24-.24.24-.24v-.72l.24.24h.24v-.24l-.24-.48h-.72l-.24-.24v-.72l.24-.24.24-.24.24.48h.72l.24.24v.48l.48.48v-.24l-.24-.24v-.48l.24-.24h.24l.72-.48.48.24.24.24v.72l-.24.72-.24.24-.24.72h.24l.24-.48.24-.48v-.48l.24-.24.24.24.24.48.24.24h1.44l.24.24v-.24l-.24-.24h-.24l-.24-.24h-.72l-.24-.48-.96-1.2v-.24h.24l.24.24.48.48.24-.24-.72-.48-.24-.24v-.24l.24-.24.96-.72.72-.24.24-.24.24-.24h.24l.24.24.24.48v.96l.48.24v.72l.24.24.24.24.24.48-.24.48.24-.24.24-.24-.24-.24v-.48h.48l-.24-.24h-.24l-.24-.24-.24-.72-.24-.96-.48-.48v-.24l.24-.24.48-.24h.24v.24l.24.48v.48l.24.24v-.24l-.24-.48v-.24l.24-.24v-.24l-.24-.24.48-.24.24-.24h.48l.24.24v.24l.72-.24.24.24h.24v.24l-.24.48.24.48.48.72.24.24.48.24h.48l.24.24.24.24.48-.48h.48l.48.72v-.48l-.24-.24h-.24l-.48-.24-.48.24-.48-.24h-.48l-.24-.24h-.24l-.24-.24-.24-.72h.24v-.48l-.24-.24-.24-.72h-.72l-.24-.24h.24l-.24-.24-.48.24v-.24l-.72.48-.48.24h-.96l-.24.24v-.24h-.24l.24-.48h-2.16v-.24h.24l.72-.24.48.24h.24l.48-.24h1.68v-.24h-.72l-.24-.24h.72v-.24h-1.44l-.48.24h-.24v-.96l.48-.48.24.24.48-.24v.24h.24v-.24h.72v.24l.24.24v.24l.24-.72.24.24v-.48h.24l.48-.24h.24v.24l.24.24.48.24.24.48h.24l-.24-.24.24-.48-.24-.24.96-.24.24.24.24.72v.24l.24.96v-1.44h.24l.24.24h.24l.24-.24.24.24h.48v.48l.48.48.24.24h.24l.24.48h.24v-.24l.24-.24h.24l.24-.24v-.24h.72l-.24-.24h-.24l-.48.24h-.96l-.24-.24-.24-.24-.24-.48v-.24h.72v.72l.24.24.24-.24v-.24l-.24-.72v-.24l.48-.24,1.2-.48.48-.24h.96v-.24h.24v.24h.24v.48h.24l.48.24v-.48l-.24-.24-.24-.24h-.24l.24-.24v-.24h-.96l-.72.24-.24.24h-.24l-.24.24h-.24l-.72.24-.72.48h-.24l-.24-.24-.48.24-.24-.24h.72v-.48l.24-.24.48-.24.24-.24h.96l-.48-.24-.96.24-.96.24h-.48l-.24.24h-.48l-.48.24h-.96v-.48l-.24-.48h.24v-.48l.24-.24h.48v.24h.48l.24.24.24-.24h-.24v-.24l-.24-.24-.24-.24h-.24l-.24.24h-.48v-.24l-.24-.24.24-.24-.48-.24v-.24l.72-.72h.48v-.24h.48v-.24h.48l.24-.24h.48v.48l.24.24.48.48h.24v.48l-.24.24-.24-.24h-.24l.24.24h.72l.48-.24.24-.24.48-.24.48-.24h.48l-.24.24-.48.72h.24l.48-.72.72-.24h.48l.24-.24h.24l.24.24.24.48v.24l.24,1.2.24.48.24.24.24.24h.48l.48.24.24.24.24.48h.48v.24l.24.72h.24v-.72l-.24-.24-1.44-1.2h-.24l-.24-.24h-.24l-.24-.24-.24-.24v-.72l.24-.24h-.24v-.48l-.24-.48-.72-.48v-.24l-.24-.48v.24l-.24.24-.24.24h-.24v-.48l.24-.24.24-.24.24-.48.24-.24h.96v.96l.24.24.24.24.24.24v.24l.48.24v1.68l.24-.24h.48l.24.24.24.48h.24v-.24h-.24l-.48-.48v-.24l.48.24.24.24.48.24.24.24v.24h.48v-.24h-.24l-.24-.24v-.48h-.48l-.72-.48-.24-.24.24-.48h.48l.72-.24h.24v-.24h-.48l-.72.48-.24-.24.72-.48.24-.24h-.24v-.72h1.92v.48h-.24v.24h-.24v.24h-.48v.48h1.68v.72l.24.24v.24h.24v-.72l.24-.24v-.24h.24v-.24l.24.24v-.24h.48v-.24h1.92v-.24h-.24v-.24h-.24v-.48l.24-.24h.48v.24h.48l.24.24h.24v.24h.24v.72h.24v.24l-.24.24v1.68l.24.24v.24l.24.24v.24h.48v-.24h.96v.24h.48l.24.24h-.24v.48l-.24.24v.48h-.24v.48h-.24v.48h-.24v.24h-.24v.24h-.48l-.24.24h-.24v.72h.48v-.24h.24v-.24h.96v.24h.24v-.24l.24-.24v-.48h.24v-.72l.24-.24v-.96l.24-.24v-.24l.24-.24v-.96h.24l.24-.24.24-.24.24-.24v-.24h.24v-.24h.24v-.24h.72l.24.24h.24v.24h.24v.96h-.24v.72h.24l.24-.24h.24v-.72l.24-.24v-.24h.24l.24.24h.48v-.24h.48l.24-.24h.48v-.24h.72v.24h.72l.24.24.24.24.24.24v.48l.24.24v.48h.96v.24h.24v.24l.24.24.24-.24v-.72h-.24v-.24l-.24-.24v-.24h-.24v-.72h-.24l.24-.24v-.24l-.24-.24v-.24h-.48v-.24h-.48v-.24h-.24v-.48l-.24-.24v-.72h.24l.24.24h.24v.24h.24v.24h.24v.24h.48v.24h.72v.24h.48l.24.24h.24v.24h.24v.24h.24v.24h.24l.24.24.24-.24.24.24h.24v-.24h.24l-.24-.24v-1.92h-.24v-.24l-.24-.24h-.48v.24h-.72v.24h-.24l-.24-.24h-.24v-.24l-.24-.24h-.24l-.24-.24h-.24v-.48h.48v-.24h-.24v-.24h-.72v-1.44h-.24v-.48h-.24v-.48l.24-.24.24-.24h.24v-.24h.72v-.24h1.44l.24.24h.24v.24h.24v.24h.24v.24h.24v.24h1.2l.24-.24v.24h.24v-.24l.24-.24v-.48l.24-.24.24-.24h.24v-.24h1.2v.24h.24v.48h-.24v.24h-.48v.24h-.24l-.24.24Zm-4.8,12.9593h.96v.24h.24v.24h.24v.24h.48v.24h.72v.24h.24v.24h.24l.24.72h.24v.24l-.24.72v.72l-.48.48.24.48-.24.24-.24-.24v-.24l-.24-.24-.24-.24-.24-.24v-.24h-.24l-.24.24.24.24v.24l.24.24v.24l-.24.24v.48h-.24v-.24h-.48v-.24h-.72v.48h.48v.24h.24l.24.24v.24l.24.24v.48l-.24.24-.24.24-.24.24v.48h-.24v.48l.24.24v.24h.24v.24h.24v.24h.24v2.64l.24.24v.24h.24v.24h.24v.24h.24l.24.24v.24h.24v.24h.24v.24h.24v.24l.24.24v.24l.24.24h-.48l-.24-.24v-.24h-.24v-.48h-.24v-.24h-.48v.24h-.24v.96h-.24v.96h-.24v.48l-.24.24h-.24v-.24h-.24v-.24h-.24v-.24h-.24v-.48l-.24-.24v-.48h.24l.24-.24v-.24h-.24v-.48l-.24-.24v-.24h-.24v-1.44h-.24v-.24h-.24v-.24l-.24-.24v-1.44h-.24v-.96h-.24v-.48l-.24-.24v-.24l-.24-.24h-.24v-.24h-.24l.24-.24v-.96h-.24v-.96l-.24-.24v-.48l-.24-.24v-.48l-.24-.24v-.48l.24-.24v-.48h.24l.24-.24h.24l.24.24h.24v.24h.24v.24h.48v-.24h.24l-.24-.24-.24-.24v-.24l-.24-.24v-.72l.24-.24h.72l.24.24v.24h.24v.24l.24.24h.24v-.72l-.24-.24v-.24l-.24-.24Z"/>
</svg>
