<svg id="Latvia" xmlns="http://www.w3.org/2000/svg" width="612" height="792" viewBox="0 0 612 792">
    <defs>
        <style>.cls-1{fill:#fff;fill-rule:evenodd;}</style>
    </defs>
    <polygon class="cls-1"
             points="396.985 290.143 397.465 290.143 397.705 289.903 397.945 289.903 397.945 289.423 398.665 288.464 399.865 287.984 402.025 286.304 402.265 286.304 402.505 286.064 402.746 285.824 402.986 285.584 403.226 285.584 403.466 285.824 403.706 286.064 403.706 286.304 403.946 286.544 404.186 286.784 404.426 286.304 404.426 286.064 403.946 285.584 404.186 285.344 405.626 285.824 405.866 286.064 407.546 287.264 408.986 287.744 409.466 287.744 409.706 287.744 410.426 287.504 411.146 287.984 413.066 289.423 413.786 290.383 414.026 290.623 416.186 291.583 416.906 291.343 416.906 291.103 417.386 290.383 418.587 289.184 418.827 289.184 419.547 289.184 419.787 289.184 420.027 289.184 420.267 289.423 420.507 289.903 422.667 289.903 423.147 289.663 423.627 289.663 423.867 289.663 424.587 289.423 424.587 289.903 424.587 290.863 425.067 291.103 425.547 291.103 426.267 291.343 427.467 292.063 427.947 292.303 428.187 292.783 428.427 294.223 428.187 296.143 428.187 298.543 428.667 299.023 428.907 299.023 429.147 298.783 429.387 298.783 429.627 298.783 430.347 299.263 430.347 299.743 430.827 300.943 431.787 301.903 432.987 303.583 433.467 304.303 434.187 305.023 435.148 306.943 435.148 308.382 435.148 308.862 434.908 309.102 434.668 308.862 434.428 308.862 432.987 310.302 432.987 310.782 432.507 311.982 431.787 312.942 431.547 313.662 431.547 314.862 431.547 315.102 431.547 315.582 431.307 315.822 431.067 315.822 428.907 316.062 428.187 316.062 427.467 315.822 426.267 316.302 425.547 317.262 425.547 317.982 425.547 318.462 424.827 318.942 424.587 318.942 424.107 318.942 423.867 318.942 423.627 318.942 423.627 319.182 423.627 319.422 423.387 319.422 422.907 319.662 422.667 319.662 421.227 319.422 420.987 319.182 420.747 319.182 420.267 318.702 419.787 317.982 419.547 317.742 419.307 317.502 417.866 316.542 417.386 316.302 416.666 316.302 416.186 316.062 414.266 314.862 413.066 314.142 411.626 314.382 410.906 314.382 410.186 314.382 409.466 314.382 409.466 314.622 409.226 314.622 408.746 314.382 408.506 314.142 407.546 312.942 407.306 312.702 407.306 312.222 407.066 311.742 406.826 311.502 406.586 311.022 406.346 311.022 404.426 312.702 404.186 313.182 403.946 313.662 403.946 313.902 403.226 314.382 402.986 314.382 402.746 314.382 402.265 314.142 402.025 314.142 401.305 314.382 400.585 315.102 400.345 315.102 399.865 314.862 399.145 314.382 398.665 314.382 397.945 314.382 396.745 314.382 395.545 314.382 395.305 314.862 395.065 315.102 394.345 315.102 393.385 314.862 393.145 314.622 392.905 314.622 391.945 315.342 391.705 315.822 391.465 316.062 390.985 316.062 390.745 315.822 390.505 315.582 390.505 315.342 390.265 314.862 389.785 314.622 389.545 314.622 389.305 314.862 389.065 315.102 388.825 315.342 387.865 316.062 387.625 316.062 387.385 315.822 387.145 315.582 386.905 315.582 386.424 315.582 386.184 315.582 385.944 315.582 384.504 315.822 383.064 315.822 382.344 316.062 382.104 316.062 381.144 317.022 379.704 317.982 378.264 318.702 377.544 319.422 377.304 319.662 377.064 319.662 376.824 319.662 376.104 320.862 375.864 321.102 375.864 321.582 375.864 322.062 375.864 322.302 375.144 322.302 374.904 322.542 374.424 322.542 374.184 322.062 373.944 321.582 373.944 321.342 373.704 321.102 373.464 320.382 372.984 318.462 372.984 316.062 373.224 316.062 373.464 316.782 373.704 317.022 373.464 316.062 372.984 314.382 372.984 313.902 372.984 313.422 372.984 313.182 372.984 312.222 372.744 311.742 372.744 311.262 372.744 310.782 373.224 310.302 373.944 309.582 374.184 309.342 374.904 308.142 375.144 307.662 375.144 307.182 375.144 306.943 375.144 306.463 374.904 305.983 374.664 304.303 374.664 303.583 374.664 303.343 374.904 302.863 375.144 302.623 375.624 300.943 375.864 299.983 376.104 299.503 376.104 299.263 376.344 298.783 376.584 298.543 377.544 298.063 377.784 298.063 378.024 298.063 378.504 298.063 378.744 297.823 378.984 297.583 379.464 297.103 380.664 296.143 382.344 294.943 383.064 294.703 383.304 294.703 383.304 295.663 383.544 296.383 384.024 297.103 384.264 297.343 384.984 297.823 386.664 298.783 386.905 299.023 387.625 299.503 387.865 299.743 388.345 299.743 388.825 299.743 389.065 300.463 390.265 302.623 390.505 303.583 390.985 304.063 391.225 304.063 391.465 304.303 393.625 305.023 394.105 305.023 395.065 305.023 395.305 304.783 395.785 304.543 396.025 304.543 396.505 304.063 396.745 303.823 397.945 302.383 398.425 301.663 399.385 299.983 399.625 299.503 399.625 299.023 399.385 297.823 398.185 294.463 397.705 292.783 397.225 292.303 396.985 291.343 396.745 290.863 396.985 290.143"/>
</svg>
