<svg id="Lithuania" xmlns="http://www.w3.org/2000/svg" width="612" height="792" viewBox="0 0 612 792">
    <defs>
        <style>.cls-1{fill:#fff;fill-rule:evenodd;}</style>
    </defs>
    <path class="cls-1"
          d="M375.8638,335.0209h-.48l.24-.72.24-.48v-.96l.24-.48v-2.4l-.24-1.2-.24-.48h.24l.24.24.24.96v.72l.24,2.4-.48,1.68Zm25.9216,16.559v-.24l-.24-1.2-.48-1.2v-.24l-.48-.48-.96-.72-.24-.24-1.2-.24-.96-.24-1.2-.96-1.44-.24-.24.24-.24.72v-.24l-.72-.72-.24-.24v-.24l-.24-.48v-.48l-.24-2.64v-.48l.48-.96h.24l.24-.72-.24-.24-.24-.72v-.24l-1.2-.72h-.72l-.72-1.2h-.72l-2.16.24-.72.24-.48.24v.24h-.24l-.24.24-3.36-1.2-.72-.72h-.72l-1.44-.72-.48-.48-.48.48-.24.24h-.24l.24-.48-.96-2.64-.72-1.68-.72-1.44-.24-.72-.48-.24-.24-.72-.24-1.44-.24-.48.24-.48v-.72l-.24-.96-.24-.48h.48l.24-.24h.72v-1.2l.24-.24.72-1.2h.48l.24-.24.72-.72,1.44-.72,1.44-.96.96-.96h.24l.72-.24h1.44l1.44-.24h1.2l.24.24.24.24h.24l.96-.72.24-.24.24-.24.24-.24h.24l.48.24.24.48v.24l.24.24.24.24h.48l.24-.24.24-.48.96-.72h.24l.24.24.96.24h.72l.24-.24.24-.48h3.6l.72.48.48.24h.24l.72-.72.72-.24h.24l.48.24h.48l.72-.48v-.24l.24-.48.24-.48,1.92-1.68h.24l.24.48.24.24.24.48v.48l.24.24.96,1.2.24.24.48.24h.24v-.24h2.16l1.44-.24,1.2.72,1.92,1.2.48.24h.72l.48.24,1.44.96.24.24.24.24.48.72.48.48h.24l.24.24,1.44.24h.24l.48-.24h.24v.48l.24.72-.24,2.4-.24,1.92h.48l.24.24h.24l.48-.48h1.44l.48.24v.24l-.24.24-.96,1.44-.96.72h-.24l-1.92.72v1.92l-.24.72-.72.48-1.2.24-.24.24-.24.24-.48,1.2-.24,1.44.24,1.68v.24l.48.48.24.72-.24.24v.24l-.72.48-.24,2.64v.48l.24.24h.48l.24-.24.48-.24,1.2.96v1.68l-.96.48h-1.2l-.24-.48.24-.24v-.72l-.72-.96-.24.24-.24.24-.24.24v.24l-.24.24h-.24l-1.2.72-.24.48v.24l-.48.72h-.24l-.24.24h-.24l-.48-.24-.96.48-.48.72.48.48.24.24v.96l-.96.48-.24-.48-.72.24-.72.96-.48.48-.48.48h-1.2l-.24-.24v-.24l-.48-.24h-.48l-.24.24-.24.48h-.96l-.72.24-.96.24-.72.24-1.2.24-.24-.24h-.48Z"/>
</svg>
