<svg id="Luxembourg" xmlns="http://www.w3.org/2000/svg" width="612" height="792" viewBox="0 0 612 792">
    <defs>
        <style>.cls-1{fill:#fff;fill-rule:evenodd;}</style>
    </defs>
    <polygon class="cls-1"
             points="241.455 431.255 241.455 431.735 241.455 432.215 240.975 431.975 240.735 431.975 240.255 431.495 239.295 431.495 239.055 431.735 238.575 432.215 237.615 432.215 236.175 431.255 236.175 431.015 235.935 430.775 235.935 430.535 236.175 430.535 236.415 430.295 236.895 429.096 236.895 428.856 236.655 428.136 236.655 427.896 235.935 426.936 235.455 426.696 235.455 425.976 235.455 425.016 235.935 424.056 236.415 423.816 237.135 422.376 237.135 422.136 238.095 420.936 238.575 420.696 238.575 420.936 238.575 421.176 239.535 421.656 239.535 421.896 239.535 422.376 239.295 422.856 239.535 423.576 239.535 423.816 239.775 424.536 240.495 425.256 240.735 425.496 241.215 425.976 241.215 426.216 241.935 426.696 242.415 426.936 242.895 426.936 243.375 426.936 243.135 428.376 242.655 428.616 242.175 429.096 241.455 431.255"/>
</svg>
