<svg id="Macedonia" xmlns="http://www.w3.org/2000/svg" width="612" height="792" viewBox="0 0 612 792">
    <defs>
        <style>.cls-1{fill:#fff;fill-rule:evenodd;}</style>
    </defs>
    <polygon class="cls-1"
             points="402.746 542.849 402.986 542.849 403.466 543.089 404.426 543.089 404.906 542.849 405.146 541.649 404.906 540.929 404.666 539.969 404.906 539.249 406.346 538.529 408.266 536.849 408.746 536.849 409.706 537.569 410.666 537.329 411.146 536.609 412.346 535.169 414.026 535.169 414.986 535.169 415.226 535.169 415.466 535.169 415.946 534.69 416.186 533.97 416.666 533.49 418.587 533.25 419.307 533.49 420.747 533.01 420.747 532.77 421.947 532.05 422.667 532.53 423.147 533.25 424.827 534.929 426.027 535.409 426.987 535.889 428.667 536.369 429.627 537.569 429.867 538.289 430.587 539.489 431.067 539.969 431.547 539.969 432.027 540.449 431.787 540.929 431.547 541.649 431.307 542.129 431.307 542.609 431.787 544.529 432.267 546.209 432.027 546.449 432.027 546.689 431.787 546.689 430.347 546.929 430.107 547.169 429.867 547.649 430.107 548.369 430.107 548.849 430.107 550.049 428.427 550.769 427.227 551.009 426.747 551.249 425.547 551.249 425.067 551.009 424.347 550.769 423.867 551.009 421.227 551.969 420.507 552.688 420.507 553.168 419.547 555.568 417.386 556.768 417.146 556.768 416.666 556.528 416.426 556.288 414.986 556.528 414.746 557.008 414.506 557.248 414.026 557.248 412.106 557.728 411.866 557.968 410.186 558.208 409.946 557.488 409.706 557.248 409.466 557.248 408.266 557.248 408.026 557.728 407.066 557.728 405.866 555.088 404.906 555.088 404.666 554.128 403.706 552.928 403.466 551.969 403.226 551.489 403.466 551.249 403.706 550.769 403.706 550.289 402.986 549.569 402.505 549.089 402.265 548.609 402.265 548.129 402.986 546.689 402.505 545.009 402.746 544.529 402.746 542.849"/>
</svg>
