<svg id="Moldova" xmlns="http://www.w3.org/2000/svg" width="612" height="792" viewBox="0 0 612 792">
    <defs>
        <style>.cls-1{fill:#fff;fill-rule:evenodd;}</style>
    </defs>
    <polygon class="cls-1"
             points="473.55 461.014 473.55 459.574 473.55 457.174 473.79 455.494 473.07 452.854 472.59 451.894 472.11 451.654 471.63 451.174 470.67 449.734 470.67 449.494 470.67 449.014 470.43 448.534 469.71 447.574 469.23 447.334 468.75 447.094 468.27 447.094 467.07 446.375 466.35 445.895 465.87 445.175 465.149 444.215 464.909 443.975 464.429 443.975 463.949 443.975 463.229 443.255 461.549 441.575 460.829 440.375 459.869 439.895 459.629 439.655 459.149 439.415 458.909 438.935 458.189 437.735 457.709 436.775 457.229 436.055 456.509 434.855 454.349 432.695 453.629 432.215 452.189 431.735 450.989 431.735 450.269 431.975 450.269 431.735 450.269 431.255 450.509 430.535 451.709 430.295 453.389 429.576 456.029 428.856 457.949 427.176 458.429 426.696 458.669 426.456 460.829 426.216 462.029 426.696 462.269 426.936 462.509 427.176 462.749 427.416 462.989 427.416 463.229 427.656 463.949 427.656 464.669 427.656 464.909 427.896 464.909 428.616 466.35 428.856 466.59 428.616 466.83 428.376 467.07 428.136 467.55 427.896 468.03 428.136 468.03 428.616 468.27 428.856 468.99 429.096 469.71 429.096 469.95 428.616 470.91 428.376 471.87 428.376 472.83 428.376 473.07 428.616 474.03 430.055 474.27 430.295 474.99 430.775 475.23 430.775 475.71 430.775 475.95 430.535 475.95 430.295 475.95 429.815 476.19 429.815 476.67 429.576 477.15 430.055 478.83 432.695 478.83 435.095 478.59 435.575 478.35 436.295 478.59 436.775 479.31 437.735 479.79 437.495 479.79 437.255 480.51 437.735 481.47 438.215 481.711 438.455 481.711 438.935 482.431 439.415 482.911 438.935 482.911 438.455 482.911 438.215 483.631 438.215 484.111 438.455 484.351 438.935 484.591 441.095 485.311 442.775 485.311 443.975 487.231 444.455 488.911 444.455 489.871 444.935 490.351 445.895 491.071 448.534 490.591 448.774 490.591 449.254 491.071 449.734 492.031 450.214 492.271 450.214 492.751 450.214 492.991 450.214 493.231 450.214 493.471 450.454 493.231 450.934 492.751 451.174 492.271 451.414 491.791 451.414 491.311 451.414 491.071 452.134 490.351 451.894 489.151 451.174 488.671 452.374 488.431 452.614 488.191 452.614 486.751 451.894 486.511 451.174 485.071 451.894 484.831 452.614 484.831 453.094 484.351 453.814 484.111 453.814 483.871 453.574 483.871 453.094 483.871 451.894 483.631 451.414 483.151 451.174 482.911 451.414 481.711 452.374 481.23 452.854 480.99 453.574 481.711 455.734 482.671 456.694 482.911 456.934 482.911 460.054 482.191 460.294 481.711 460.774 481.47 461.014 480.99 461.254 480.99 461.734 481.47 462.694 480.75 464.134 480.03 464.613 479.55 465.573 479.31 466.533 479.79 466.533 480.27 468.453 480.27 468.693 479.79 468.933 479.07 468.933 478.59 469.173 478.35 468.933 478.11 468.933 477.63 469.173 477.39 469.413 477.15 469.653 477.15 470.373 477.15 470.613 476.67 470.373 475.23 468.933 475.71 468.213 475.95 467.973 475.95 467.253 475.71 466.533 474.27 463.654 474.03 462.934 473.79 462.694 473.55 461.254 473.55 461.014"/>
</svg>
