<svg id="Montenegro" xmlns="http://www.w3.org/2000/svg" width="612" height="792" viewBox="0 0 612 792">
    <defs>
        <style>.cls-1{fill:#fff;fill-rule:evenodd;}</style>
    </defs>
    <polygon class="cls-1"
             points="376.824 535.409 377.784 534.45 378.024 533.97 378.024 533.73 377.784 533.01 377.304 532.77 376.824 532.29 376.344 531.33 376.344 529.17 376.584 528.69 376.824 528.21 377.064 528.21 377.304 527.97 378.024 527.73 378.024 527.01 378.024 526.29 377.784 526.05 378.264 524.13 379.704 522.69 380.184 522.45 380.664 522.45 381.144 522.93 381.144 523.41 381.864 524.13 382.344 524.13 382.584 523.65 382.584 522.93 381.624 521.01 381.384 520.77 381.144 520.77 380.904 520.77 380.664 520.05 381.144 519.09 383.784 519.33 383.784 519.57 384.264 520.29 384.504 520.29 386.664 521.25 387.385 521.97 388.105 522.69 388.345 523.17 389.305 523.89 389.545 524.13 389.785 524.13 390.985 524.37 392.665 524.85 393.145 524.85 394.105 525.57 394.345 526.05 395.545 526.53 395.785 526.53 396.745 526.77 397.225 527.01 397.945 527.49 398.425 528.21 396.985 529.65 395.305 529.65 395.065 529.65 394.585 529.89 394.345 530.13 394.105 530.61 394.105 530.85 394.585 531.33 395.065 531.33 395.305 531.33 395.545 531.57 395.545 533.01 395.305 533.01 393.865 533.97 392.905 534.929 392.425 534.69 392.185 534.45 391.705 533.73 391.945 533.01 391.705 532.29 391.225 532.05 390.505 532.77 390.265 533.01 390.025 533.73 390.265 533.97 389.305 535.649 387.145 540.209 387.865 540.689 388.345 540.929 388.585 541.169 388.345 541.889 388.345 543.569 388.345 544.289 388.825 545.249 387.865 544.769 387.625 544.529 387.145 544.529 386.424 544.289 386.184 544.049 385.944 543.569 385.944 543.089 385.704 542.609 384.984 541.649 384.504 541.169 384.024 540.929 383.304 540.449 382.344 539.249 381.864 539.249 381.384 539.249 379.464 538.049 378.984 538.289 378.504 538.049 378.264 537.329 378.504 537.329 378.984 537.569 379.944 537.569 379.944 537.329 379.464 536.849 377.544 537.089 377.064 536.849 376.824 536.609 376.824 536.129 376.824 535.409"/>
</svg>
