<svg id="Netherlands" xmlns="http://www.w3.org/2000/svg" width="612" height="792" viewBox="0 0 612 792">
    <defs>
        <style>.cls-1{fill:#fff;fill-rule:evenodd;}</style>
    </defs>
    <path class="cls-1"
          d="M249.1358,370.7788l.24,1.2.48.48,1.44.96.96.24v3.6l-.24.72-.24.48-.48.72-.48.72v.48l-.24.24v1.2l-.24,1.2v.24l-1.2-.48h-1.44l-.48.24.24.24.24.96h-.72v.96l.48.48,1.92.48.24-.24.72.96v.96l-.24.48v1.2l-.72.48-.72.24-.24.48-.24.24-.96.24-.24.48v.72l.72.48.24.48-.48.72-.48.24-.24.24-.24-.24-.96.24-.72.24-.48.24h-1.2l-1.44-.72h-.72l-1.2.96-.48.24.24.72-.24.24.72.72.48,1.44.24.72.24.24.48.72.24.72-.24,1.44-.72,1.2-.72.72v1.68l-.96.72-.96.24-.24.24v.48l.24.72.48-.24.72.24.48.96v.72l-.24.24-.48.24v1.2h-1.44l-.72-.24h-1.2l.24-.24v-.48h-.24l-.24-.24v-.72l1.2-1.44v-.48l.24-.48.48-1.2.24-.72-.72-.48-1.2-.48-.72-.24v-.72l-.48-.48-.24.24-.72.24h-1.68v-.96h-.96l-.48-1.44.24-.48-.24-.48-.24-.48-.24.24-.24.72-.48.48-.96-.24-.24-.24.24-.72-.24-.48h-.48l-.72.48-.24.48h-1.44l.24-.48v-.48h-.72l-.72.48v.72l.24.48-.24.24h-.48l-.72-.48h-.24l-.48-.48-1.44-.48h-1.2l-.24.48h-.96l-2.4-1.2h-.24l-.72-1.2v-.48l.48-.24h.24l.48-.24h2.88l.24.72-.24.24-.24-.24-.24.24h.96l.72.48.48.24.24.24v.48l.24.24.24.24h1.44l.24-.48-.24-.24v-.24l-.48-.24-1.44-.24-.72-.96.48-.24.24-.24.96.24.24.24h.24v-.24l-.24-.24h-.48l-.24-.24v-.24h.96v-.24l-.24-.24-.48-.48-.48-.72-.48-.48-.24-.24h-1.2v-.24l1.44-.48h.24l.24-.24-.24-1.92h1.2l2.4-2.64.48-.48.24-.48.24-.24.48-1.2.24-.48.24-.48.24-.24.24-.72.72.24.48.48,1.2.24.48.48.24.24h.24l.48.24,1.2.48,1.2.48.48.24.24.24.48.24.24.24h.24l.96-.24.24-.24v-.24l.24-.24.48-.48.48-.24.24-.24h.24l.48-.24.48-.48.24-.48.48-.72-.24-.24v-1.2h-.96l-.72-.24-.72-.72v-1.44l.24-.48.48-.72h.48l-.48-.48-.72.24-1.44-.24-.48-.48.48-.48v-1.92l-.24-.48h-.24l-.48.24-.24.24-.72.48-.96.72-.24.96.24.96.72,1.2h.24l.48.24.24.48-.48.24-.24.48-.48.24-.24.24h-.24l-.24-.24h-.48l-.24.24v.72l.24.48v1.92l-.48.24-.24.48-.96-.24-.24-.48-.48-.24-1.2-.24-.24-.48-.96-.24.24-.48.24-1.44.24-.72v-.48l.24-1.2,1.2-3.12h.48v.72l.24.24.24.24h.48l.24-.24,1.68-.72.72-.48v-.24l.48-.24.24-.24.48-.48h.72l.24-.24v-.24l.24-.48v-.48l.24-.48.24-.24,1.2-.96.24-.24,2.64-.96.96-.24.96-.24h.96v.24h.96l1.44-.24,2.4-.48h.48l.24.24Zm-15.361.24h-.48v-.48h.24l.24-.24h.24l2.88-.48h.48l-.24.24-1.92.72h-.48Zm-4.56,5.28h-.48v-.96l.24-.24.24-.24.96-1.44h.24l.24.72v.96l-.24.24-.24.24-.48.48-.24.24Zm6.72,10.5594v.48l-.24.48-.96.24h-.24l-.48-.48-.24-.24-.24-.24h-.24l-.24-.24h-.72l-.24-.24v-.48l.24-.24.48-.24.72-.48.96-.48.24-.24.48-.24v-.24l.24-.24.96-.72h.72l1.68.72.24.48-.24.72v.24l-.48.72h-.96l-.72.48v.24h-.48Zm-17.281,8.16h.72l.72.24.24.48.72.48.24.24v.24l-.24.24h-.24l-.48.24h-.24l-.72-.48-1.44-.72h-.48v-.48l.24-.48h.96Zm-.96,6.24h.96l.96-.24h2.4l.24.48-.24.24-.48.48-.48.24-.72.48-.96.48h-.72l-.96-.48v-.48l-1.2-.48-.48-.24-.96.24v.24l-.48.24h-.24l-.48-.48v-1.68h.24l1.2-.48.24.24.96.48.72.48Z"/>
</svg>
