<svg id="Norway" xmlns="http://www.w3.org/2000/svg" width="612" height="792" viewBox="0 0 612 792">
    <defs>
        <style>.cls-1{fill:#fff;fill-rule:evenodd;}</style>
    </defs>
    <path class="cls-1"
          d="M329.3008,111.3536v-1.2l.48-.24-.24,1.2Zm-25.6816,24.9586h-.24l-.48-.72-.24-.24.24-.24h.24l.72.24v.96ZM321.62,122.633h-.24v-.72l.24-.48v-.24l.96-.24-.24.72-.48.72v.24ZM240.9753,259.4252l-.48-.48-.24-.24h-.48l-.24-.24-.48-.72h.72v.24l.72.24.48.48.24.24Zm9.6006-29.2783h-.96v-.24h-.24l-.24-.48h1.2l.96.24v.48h-.72Zm17.5211-14.1592h-.72l-.24-.24.48-.48v-.24h.72l.24.24.24.24v.24l-.24.24ZM357.6227,83.2753l-.24-.24h-.24l-.24-.24v-.24l.24-.48v-.24h.72v1.2ZM262.3366,220.7874l-.24-.24-.24-.24h-.24v-.24l.24-.48h1.44v.48l-.24.24-.24.24h-.24ZM331.941,102.9541l-.24.24v-.24l-.96-.24v-.72h.48l.72.48.24.24v.24Zm11.7608-4.32h-.24v-.24l-.24-.24v-.72l-.24-.72.24-.24v.24l.72.24v.72l-.24.72ZM240.4952,261.1051l-.24-.24-.48-1.2-.24-.72.72.24.48.48h.24v1.2ZM312.5,140.152h-.48l-.24-.24.24-.24h.24l.24-.24h1.68l.24.24v.24h-1.44Zm-2.64,1.44h-.96l-.24-.24-.24-.24.24-.48h.72l1.44.48-.24.24h-.24l-.24.24Zm-55.6835,84.7152v-.24l-.24-.24.24-.72v-.24h1.68v.72h-.24l-.24.24h-.48l-.24.24Zm29.2818-34.558-.24-.24.24-.48v-.24l.24-.24h.48l.72-.48h.24l.24-.24v-.24h.48v.24l-1.92,1.68Zm-42.4826,66.4762h-.24l-.48-.24-.48-.48h-.24l-.48-.72v-.24l-.24-.48v-.48l.72.24.24.24.96,1.68Zm97.4461-150.9514h-.24v-1.92h.72l.24,1.44-.24.24ZM264.0167,218.8675h-.24l-.24-.48v-.24l.72-.72h.72v.24l.24.48v.48l-.24.24h-.96Zm-25.4416,31.9182v-1.68l.48-.48h.72l.24.24v1.44h-.24l-.24.24-.24-.48h-.24l-.24.24Zm66.0042-94.3146v-.48l-.24-.24-.24-.24v-.24h-.24v.24l-.24-.24.24-.72.96-.24h.24l-.24,2.16ZM290.8984,179.99v-.24l-.24-.24h-.72l.24-.48v-.48l.24-.24v-.24l.48-.24.72.24v.24l-.24.96Zm48.7231-75.3557h-.48l-.24-.48v-1.2h.24l.48.24.24.24h.96l-.72.96-.24.24Zm-10.0806-1.68-.72-.48.48-1.44.24-.24h.24l.24,1.2v.96h-.48ZM318.74,127.4327v-.72l.72-1.44v-.24h.24l.96,1.44-.24.24h-.48l-.48.24Zm-32.6421,64.5564-.48-.24-.72-.24-.48.24h-.24l.24-.48,1.44-1.2,1.2.96-.48.48-.24.24Zm30.722-66.9562h-.24v-.24h-.48l-.24-.24-.72-.72v-.48h.24v-.24l1.44.24v.24h.24v.24l.24.24-.24.72h-.24Zm10.5606-19.6789h-.24l-.24-.72.24-1.44h.24l.24.24v.24l.72-.48.48.48v.48h-.48v.24h-.48v.48l-.24.24v.24Zm-79.925,126.9528.24-.48v-.96h-.24v-.48l.24-.48.24-.24.24-.24h.48v.24h.24l.24.96v.48l-.72.72-.24.24-.24.24h-.48Zm-1.44.96-.48-.24h-.24l-.24-.48.24-.48.24-.48h1.2l.72.24-.24.96v.24h-.72l-.24.24Zm20.8813-14.6392h-.24l-.24-.24-.48-.96v-.48l1.2-.24h.24l.72.96v.72h-.24v.24h-.96Zm31.202-77.7556v-.48l-.24-.48v.72l-.24-.24v-.48l.72-1.68v-.24h.48v.24h.24v.24l.24.24-.24,1.44-.24.24-.48.24Zm-58.0837,123.593-.72-.72-.24-.24-.24-.24v-.48l.24-2.16.24-.24.72,1.44v2.64Zm149.77-167.51h-.48v-.72l.24-.48-.24-.72v-.72h.96v.24l.48.72.24.48-.48.24-.48.72ZM354.2625,85.9151l-.24-.24-.72-.48-.24-.48.24-.48.24-.24h.48l.72.24.48.72-.48.48-.24.24h-.24ZM240.2552,239.2664l-.24-.24-.48-.72.48-.72.24-.24h.48l1.92.96v.24l-.24.24-1.44.48h-.72ZM294.4987,175.19l.24-.24-.24-.24h-.24v-.48l.24-.72.24-.24.24-.24.24-.24h.48l1.44-.24.24.24-.24.24h-.24l-.24.24-.72.48-.48.48-.24.24-.24.24v.24l-.24.24ZM321.14,125.9928h-.24l-.96-1.68v-.24h.24l.96-.24h.24l.24.24.48.48v.48l-.48.72Zm10.8006-18.7189.24-.72,1.2-2.16h.24l.24.24.24.48-.48,1.44v.24h-.24l-.96.24Zm-92.6458,173.51v-1.92l.48-2.16.24-.24v.48l.48,1.2v1.44l-.24,1.2h-.96Zm53.5233-92.3948-.96-.24v-.24l.48-1.68.48-.24.24-.24.24.24.24.48.48.96-.24.24v.24l-.48.24Zm-4.8,9.36-.72-.48-.24-.24-.24.24h-.48l-.96-1.44v-.48l.24-.48h.24l.96.96,1.44,1.2ZM266.4169,210.708l-.24-.48.24-.24h.96l.48-.24h.24l.96-.72.48-.48.24-.24h.24v1.68h-.24v.24h-.24l-.72.24-1.2.24-.24-.24h-.72Zm-23.5215,58.5566-.96-1.68.72-.72.48-.24.96-.24h.24v.96l-.24.24-.48,1.2-.48.48ZM293.2986,173.03v-.24l.24-.96.96-.96-.24-.48.24-.48.48-.24.24.24.48,1.44v.24l-.72.48-.48.48h-.48l-.24.24ZM239.7752,273.8244l-.24-.72-.24-2.4.48-1.2v-.24h.24l.72,1.2.48.96.24.72-.24.24h-.48l.24-.24h.24l-.24-.72-.48-.24-.24.24-.24.72v.48h.24v.96l-.24.24Zm20.6413-51.837-.24-.24v-.24h-.48v-.24h-.24v-.24l.24-.96,1.44-.48h.24l.48,1.44-1.2.72Zm54.7235-88.555v-.24l-.24-.24.24-1.44.24-.24v-.24l.24-.24.48-.24.24.24h.24v.24l.48.72-.24.96h-.96l-.24.24ZM241.9353,271.4245h-.24v-.24l-.48-.48-.24-1.44v-.48l.24-.72v-.24h.48l.48.48v.24l.24.24.24.48v1.44l-.24.48-.24.24Zm22.0814-55.1968v-.72l-.48-.24-.24.24-.72-.24v-.72l1.44-.96h.72l.72,1.2v.24l-.24.48-.24.24-.24.24Zm70.0845-112.7936h-.96v-.24l-.24-.24v-.48l-.24-.72-.24-.24-.24-.24v-.24h-.48l-.24-.24.24-.48.48-.48.72,1.2.24.24.24.48.72.24.72.24h.24v.24l-.48.96h-.48Zm-38.6425,40.3177.48-2.4.24-.72.72-1.68h.24l.48.24v2.16l-.72,1.2-1.2,1.2ZM243.6154,260.8651h-.24l-.24-.24v-.48l-.72-.96.24-.48.48-.24.72-.48h.24v-.24l.24-.24v-.72h.24l.48.24v.48l-.24,2.64-.72.48-.24.24ZM350.4222,97.6744h-.72l-.24.24-.96-.24h-.24l-.72-.24h-.24l-.48-.48v-.24l.48-.72.96-.48.24.24v.24l.96.48h.72l.48.72v.48Zm-12.4808,5.52-.48-.48v.24h-.72v-.24l-.24-.24v-1.44l.72-.72v-.24l.72-.24h.48v.24h.24v.48l.24,2.16-.24.24h-.48Zm-45.6029,82.5553v-.72l.24-.24v-.48l.24-1.68.24-.96v-1.2l.24-.48h.24l.72.96.48.72.24,1.2v.24l-.72.72-.96.96-.24.48-.24.24Zm61.924-93.3547h-.48v-.24l-.24-.24-.96-2.16.24-.72v-.24h.72l.96.48.24.24h.24l.48.96.24.24v.24h-.24l-.48,1.2-.24.24h-.48ZM299.779,139.912l-.24-.24-.24-.24v-.48l.48-.48v-1.68h-.24l.24-.48.72-.48.72.24.72.24.24.24h.48v-.48h.48l.24.24v.24l-.48.96h-.72l-.48.24v.96l-.72.72h-.48v-.24h-.48Zm62.6439-56.1568-.24.24v-.24h-.24l-.72-.72.48-.24.24-.24-.24-.24h-.48l-.24.24v.24h-.48v-.24l-.24-.24.24-.48v-.24h.24l.72-.24.24-.24.24-.24v-.72l.72-.24v.48l.24.24.48.24v-.24l.24-.24.24-.24.24.24v.48l-.24.24-.24.24.24.72.24.24.24-.24h.24v-.48h.24v-.24l.24-.24.24.24v.48l-.48.48v.24l-.96.24h-.24l-.72.48Zm-95.046,130.5526h-.24l-.96-.24v-.96l.24-.24.24-.24.48-.24.24-.24h1.2v-.72l1.44-.48.96-.24,1.44,1.68-.48.48-.24.24-.72.24h-.24l-.48.24h-1.2l-.24.24h-.72v.24l-.24.24h-.48Zm43.2028-88.795h-.24v-.48l-.24-1.2.72-1.92.24-.48h.24v-.24h.24l.24-.24h.24v-.24l.24-.24v-.72l.24-.24.48-.96h.24l.48-.48h.24v.48l.24.24-.24,1.92-.24.24-.24.24-.24.24-.24.24-.24.72v.48l-.72.48h-.24l-.24.24-.72,1.44Zm-6.72,12.2393v-.72l.48-1.68v-.24h.24l.48.24h.24l.24-.24-.24-.48-.24-.24.24-.48.24-.24.48-.24v-.24h1.2v.72h-.24v.48l.24-.24.24-.24v-.48l.24-.48h.24l1.2-.48h.24l-.24.24v.48l-.48.96-1.2,1.44-.24.24-1.44.96-.24.24-.48.24-.96.48Zm47.523-40.7976h-.48l-1.68-1.68.24-.72v-.24l1.2-1.68h.48l.72-.48-.24-.72v-.24h.72l.48.48.48,1.2.24.48v.48l-.48.96-.72,1.44-.48.72h-.48Zm-21.1214,11.5193h-.24l-.24-.48-.24-.24-.48-.48h-.24l-.24-.24h-.24l-.48-.24-.24-.24v-.24l.48-1.2v-.24h.24l.24-.24h.72l.24-.72.24-.24.24-.24.48.48v.48l.24.24.24.24h.24v.24l.24-.24-.24-.24.24-.48.24-.24h.24l.72.48h.24v.48l-.72,1.44-.48,1.2-.24.24-.48.24-.48.48Zm-4.56,1.92h1.92l-.24-.24h-1.44v-.24l-.24-.48v-.48h.24l.72.48.72-.24.24.72v.24h.24l.24.24h.24l-.24-1.2v-.72h-.24l-.24-.48-.24-.48v-.24h.24l.48-.24.24.24.96.72h.24l.24.24v.96l-.24.24-.24.48-.24.24-.48.48-.24.24.24.24v.24h.24l.24.48-.48.48-.24.24h-.96l-.72.48h-.48l-.48.24h-.48l-.72-.48h-.24v-.96l.72-.24.72.24v-.24l-.72-1.2Zm19.6813-15.3591v-.24h-.24v-.72l.48-.48v-.96h-.24l-.48.24h-.72l-.48-.72v-.24h1.44l.24-.24.48-.48v-.48l.72-.24h.24l.48.24.24.24-.24.24v.48h.48l.48-.24h.24v-.24l-.24-.72h-.24l-.24-.24-.24-.24.48-.48.48.48.24.48.24.48h.24l.48-1.44.24-.96.72.24.24-.24-.24-.24v-.24l-.24-.72h.48l.48.72v1.2h-.24l-.24.48-.48,1.2-.24,1.2-.96.96-.72.24v-.24l-.24-.24h-.72l.24.24v.48l-.96.48-.48.24h-.24l-.48-.24Zm-40.3226,35.278h-.24l-.24-.24-.24-.48v-.48l.24-1.44.24-.24.24-.24v-.24l.72-.24h.24v.24l1.2.72h.24v-.48l.24-.24v-.24h-.24l-.24-.48.24-.24h.72v.24h.24l.24.24v.24h.24v-.24l-.24-.24-.48-.72-.24-.72v-.24l-.24-.24v-.24l.24-.24.24-.24.24-.24v.24l.24.24v.24l.24,1.2.72.24.48.48.24,2.16v.96l-.24.24-1.44,1.2h-1.44l-.24-.48v-.48h.24l.48-.24.72-.48.48-.24v-.96h-.48l-.48-.24v.24h.24l.24.24-.24.24-.24.48-.48.24v.24h-.48l-.48.24h-.48l-.48.72ZM318.26,119.2732v-.24h.48l.24-.24.24.24h.48v-.24l.24-.24-.48-.48-.24.24-.72-.24-.24-.24.24-.24h.96v-.48h-.24l-.24-.24v.24h-.72v-.24h-.24l.48-.48.48-.24.96-.24h.48l.48-.24h.48l.24-.24h-1.2l-.24-.24h-.24l-.24-.72h.24l.24.24v.24h.24l.24-.24v-.48l-.24-.24v-.24l.48.24h.24l.72.48v.24l.24.24v-.24l-.24-.72h-.24v-.24h-.24l-.24-.24v-.96l.24.24h.24v.24l.24.24.24.48v.24h.48v-.24l-.24-.48-.24-.72h1.2l.72.96.96,1.44v.24l.24.96-.24.24-.48.24h-.24v.24h-.24v1.44l.48.48h.48v.24l-.72.48h-.24l-1.44.24-.48-.48-.72.48-.96,1.44-.24.24v.48h.48v.24l-.24.24-.48.24h-.24v-.72l.24-.24.24-.24h-.24v-.24l-.96.48-.24.24h-.48l-.24-.24-.24-.24.24-.24v-.24h.24l.48-.24.48-.24.72-.72v-.24h-.24v.24h-.48l-.48-.24Zm-1.2,11.0394h-.72l-.72.24h-.24l-.48.48-.24.24v.72l-.48,1.44h-.24v.24h-.24v-.72l-.24-.48-.24.72-.48.96-.72.48-.48-.24h-.48l-.48.24-.24-.24v-.24l.48-.48.24-.24.24-.48h.24l.24-.72v-.24l-.24-.48v.48l-.24.48-.24.48v.24h-.24l-.48.24-.48.48v.48l-.24.24-.48.72-.48.48h-.24v-.72l.48-1.2.96-1.68.48-.24-.48-.72h-.48v-.48h.24l.72-.48.48-1.2v-.48l-.24-.24v-.48h1.2l.24.24.24.24-.48-.72h-.96v-.24h-.24v-.72l.96-2.4v-.24h.24l.96-.24h.24v.24l.24.96-.24,1.68h.72v1.68l-.48.72h-.48v1.92l.24-.48v-.96l.24-.24.72-.72.48-1.2v-1.44l.48-.48.96-.24.48.24.24.48.48.72.24,1.2v1.2l-.24.24v.96Zm-35.2822,68.3961.24-.24h.72l.24.24.72.48.24.24h.24l-.24-.96-.24-.24h-.24l-.24.24-.24-.24.24-.48.72-.48h.24l.48.24.24-1.44v-.24l.48.24.24.24v.72l1.44.96.24,1.44-.48.72.24-.24.48-.96.72-1.2v-.24l.48-.96h.72l.72-.48-.24-.24-.72.24-.24.24-.24-.24-.24-.24-.24-.24-.24-.96v-.48l.24-.24.72-.72.24-.24h.96l.48-.24.24-.24h-.72l-.24-.24h-.48l.24-.48.48-.48,1.44-.96.72-.48h.48l.24.24h.24l-.24-.24-.24-.24h-.72l-.72.48h-.24l-.96.96-1.92,1.68-.48.48-.24.24-.24.24h-.48l.24-.48.72-.72h-.48l-.48-.24.24-.48h.72l.24-.24h.96l.96-.72h-.24l-.24.24-2.16.48-.48.24.48-.48.24-.48.48-.24.72-.48.72-.24.24.24.24-.24.48-.24.24-.24.48-.72.24-.48h.48v.48l.24.24v-.48l.72.24.72-.24,1.2-.72,1.2-.72,2.16-3.12-.72.96-.96.72v.24l-1.44,1.2h-.48l-.24-.24.48-1.2.48-.24h.72l.48-.24-.24-.24h-1.92l-.24.24-.48.48.48-.96.96-1.2.24-.24-.24-.96.48-.24.24.48h.24l-.24-.72-.24-.72-.24-.24-.24.24h-.24l-.24-.24-.24-.24-.24-.72v-.96l.48-.96.24-.48h.24l.48.24.24.96.24.24.72.24.24-.24-.96-.72-.48-.72-.24-.24.24-1.44.24-.96.24-.48.48-.48h.24v-.24h.24l.48.24.96.72.96.72-.24-.72-.24-.72-.24.24-.72-.24-.24-.24v-1.2l-.24-.24h-.24l-.96.24-.24-.24.96-1.2h.96l.48-.24.72-.48.24-.24.24-.24.24-.24.24-.24,1.44-.24.24.48-.48.24.24,1.44.48-1.44.24-.48.24-.24h.72l.24.24.24-.24.72-.24.72-1.2v-.24l-.96.48-1.44.48-.24.48-.48.24h-.24l-.72-.24-.72.24-1.2.72-.24.24-.48.24-.24-.24,1.2-1.44.72-.48h1.2l-.48-.24h-.96l-.24.24-.24.24h-.48l-.72-.48h-.24v-.48l.24-.24h.24l.48-.48v-.72l-.72-.96h-.24l-.48-.24.72-.24h.48l.48.24.48-.24.96-.48.24-.48.24-.24h.96l.24-.24h-1.2l-.24.24-.24.48-.24.24-.96.24h-.24v-.24l-.48-1.44.24-.24h1.2l.72.24h0v-.24l-.72-.48h-.48l-.48-.24.24-.24h1.44l.24.24.24.24.72-.24,1.2-.48h-1.2l-.48.24h-.48v-.48l.24-.24h.48l-.24-.24h-.72l.24-.48h1.2l1.68.24-.24-.24h-.96l-.72-.48-1.2-.96.24-.48v-.24h1.2l.96.24h.24l.96-1.2.48.24.24-.24.24-.72.24-.48h1.44l.24.48.24-.24-.24-.24-.96-.24h-.96l.24-1.2h.24l.48-.48h.96l.48.24h.24l.24.24v0l-.24-.48-.72-.24h-.24l.24-.24,1.2-.24h.96v.48l-.24.48.48.72h.24l-.24-.48v-.24h-.24l.24-.48.24-.48.24-.24,1.2.48.72.24h.24v.72l.48.72h.24l-.24-1.2-.48-.72v-.24h.72l.48.24h.24l.48.24.24-.24-.24-.48-1.92-.24h-.96l-.24.24h-.24l-.72-.24.24-.24.24-.24v-.48l-.72.24-1.2.24v.48l-.72.48-.24.24h-.24l-.72-.48-1.2.24.72-.96.48-.96.24-.72.24-.48h.96l.24.24h.24l.24-.48h-.24l-.24-.24-.72-.72.48-.72.72-.48h.24l.48-.24h.24l.48.48-.96.96-.24.24h.48l.48-.48h1.44l.24.24h.24l.24.24.48.96.48,1.2.24.72h.24l.24-.48-.48-.72-.72-1.2v-.96l.24-.24.24-.24.48-.48.24-.24h.72l.24-.24h-.48l-.72.24-.24.24h-.24v.24l-.48.24h-1.92l-.48-1.44.72-1.68h.24l.72.48h1.2l-.24-.24-.24-.24h-.48l-.72-.48.48.24.48-.24h.48l.24.24.72.48h.24l-.24-.72-.72-.24-.24-.24h-.24l-1.44-.24-.96,1.2-.72.72-.48.24-.48.24-.48.24h-.48l-.24-.24.24-1.2h1.44l.24-.24v-.72h-.48l-.72.24-.48-.24-.24-.24.24-.24,1.44-.48h.24l.24-.24h-.48l-.48.24h-.48v-.48l.48-.24.24-.24h.24l.96.24h.24l.24.24.48-.48.96-.48,1.2-.72h.48v.24h.24l.24.24.24-.48.24-.72v-.48l-.72-.24h-.24l-.24.24h-.96l-.48-.24-.48.24v.48l-.24.24h-.48l-.24-.48.24-.96.48-.72h.48l.24.24.24-.24h.24l.24-.48h.24l.24.96h-.72v.48l.24.24,1.2-.96v-.24l.24-.24v-1.68l.48-.24h.24l.48,1.2v1.44l.72,1.44.24.24v.96l1.2,1.2.24.24.24.24h.24v-.24l-.48-.48v-.24h-.48l-.24-.24-.48-.24-.48-1.68.24-.24h.72l.24.24.24.24.24.24h.48l-.48-.96h-.48l-.24-.24.24-.48.24-.48.24.24.24.24.96.24.24-.48-1.2-.24-.24-.48-.24.24-.24.24-.48.48-.24-.48v-.48l.48-.48.48-.48-.24-.48h-.24l-.24.24h-.48l-.24.24h-.24l-.24-.24v-.24h.48l.48-.24-.24-.24h-.24l-.96-.24.24-.72h.24l2.16.72v.24l.24.24.48.72.48.48.48.24-.48-.72-.48-.24-.24-.72-.96-.96h-.24l-1.2-.24v-.48l.24-.24h.24l1.2-.72h1.2l.72.24.24.24-.24.24v.24h.48l.48-.24v-.24l.24-.24h.72l1.2,1.68v1.44l.24-.24.24-.96v-.48l-.48-.24-.24-.24h-.24l-.24-.48-.24-.72.24-.48h.72l.24.24.48.24.48.24v-.24l-.24-.24h-.24l-.72-.48h.24l.48-.24h.48v-.48l-.48-1.2-.96.72h-.24v.48l-.24.24h-.24l-.24.24h-.96l.24-.24v-.48l-.48-.24h-.24v.24l-.24.24-.24.48h-.24l-.96.24-.72.24h-.24l-.24-1.2.24-.48h.48l.24-.24-.48-.24v-.72l.24-.48.72-.72.48-.24.72-.24,1.2-.24.48-.24h.48l.24.24.24.24.24.24h1.2l-.24-.48h-.72l-1.2-.48-.48-.48,1.2-.96h.24l.24.24h.24l1.2.48h.24l-.24-.48h-.72l-1.2-.48.24-.24.72-.72.48-.24.24.24h.48l-.72-.96h-.24l-.24.24h-.48l-.24.24h-.24v.24h-.24l.24-1.44.48-1.92.48-.24,1.2-.48,1.2-.24v-.24l-.72-1.2h-.24v-1.2l.48-.24.24-.48v-1.92l.24-.48h.48l.24.24.96,1.44.24.48.24.72.96.48v-.24l-.24-.48.48-.24h.72l.48.24v.24l.24-.24-.24-.48h-.24l-.72-.24h-.24l-.72-.24h-.24v-.24l-.96-.96-.24-.96.24-.24.96-.48.96-.24.48,1.44.72.96.72.48.24.24.48-.24.24.24h.48l.24.24-.24.48v.24h-.24l-.48.24-.24.24.96.48h.24l.48-.24v-.48l-.24-.96-.24-.48-.24-.48h-.72l-.24.24h-.48l-.96-1.2v-.72l.48-.72.48-.24.24.24.24.24-.24-.72h-.24l-.48.24-.24.24-.24.24v-.24l-.24-.24-.24-.24v-.72l.24-.48.48-1.2.24-.48.48-.48v-.24l2.4-.72.24-.24.24.24v.24l-.24,1.44v.48l.24.24v1.2l-.24,1.2-.24,1.92.72-.72v-1.2l.24-3.36.48-1.44.24.24.24-.48v-.72l.24-1.44.72-.72h.24l.48.72.24.72v5.04l.24,1.44v.48l-.48.96-.48.48v.24l-.48.24v.24l-.24,1.2h.24l.24-.96.72-.96.24-.24.48-.72v-.24l.24-.48.24-1.92h.24l.24.24.24.24.24.24.48.24h.72l-.96-.72-.96-.96-.24-.24.24-2.16h.24l.48-.48.24-.24.24-.24v-.48l-.24-.48.48-.72.72-.72h.24v.24l-.24.24h-.24v.24l-.48.96.48.48.48.48h.24l.24-1.44.24-1.92v-.24l.24-.48.24-.24h.48v.24l.72.24.48.72v.48l.24.24h.24l.24.24h.48l.72.72.24.24.24.48.24.48.24.24h.24l.24-.24-.72-1.68-.96-1.44-.72-1.44.24-.24v-.24h.72l.24-.96v.24l-.48.24-1.2.72-1.68-.48-.24-.72-.72-.24h-.24l-.48-.72h.24l.24-.48.96-1.2h.48l.24.48.72.48.24-.24.24-.48.72-.96.96.48.48-.24.48.24v1.44l.48.72h1.2l-.24-.24h-.24l-.48-.24h-.48v-1.44h1.2l.48.24h1.68l.24.24-.48.96-.24.48-.48.24-.72.48h-.72l-.24.24-.24.48-.24.24h.24v-.24h.24l.24-.24.24-.24h.72l.24-.24.72-.48.48-.24.48.24.72.96.72.96h.96l.72-.72.24-.72h-1.2l-.48-.24-.48-.48.48-.48.24-.24v-.48l-.24-.72v-.48h.24l.72-.48h-.72v-.96l.48-1.44.24-.48.72-1.44.24-.24h.24l.48-.24h.24l1.2.24h.24l.24.24h.24l-.72-.72-.24-.24-.48-.72.48-1.68v-.24l.24-.24h.48l.24.24.96.48v.24h.24l.24-.24v-.24l-.24-.24v-.48l-.96-.72h-.96l-.96-.24v-.96l.48-.72.24.24.48.48.72.48.24-.48-.48-.72-.48-1.44v-.24l.48-.48h.48l.48.72.24.24.48-.24v-.96h.24l.24.24.48.48.48.48.24.48.24.24v.24h.48v-1.2l-.24-.48-.24-.24v-.72h.24l.24.24h.24l.24.48.24.24h.48l1.2-.24h.24l.24.48-.24.48-.24.72-.48.48v.96l-.48.96-.72,1.2-.48.96-.48.96h.24l.24-.24.48.24.24,1.44v.24h-.24l-.24.24-.24.48.24.72.24.48-.48.72-.24.24v.72l.24.72v.96l.48.24h.24v-.48l-.24-.24v-.48l.24-.24v.48l.24.48v.24h.24l.48-.48v-.24l.48-1.68.48-1.2v-.48l-.24-.24h-.48v-.48l.24-.48.24-.72.72-1.92.72-1.44.24-.24v-.72l.48-2.64.48-1.2.48-1.2.24-.24v-.24l.48-.24.48.48v.24l.48,2.88v.48h-.24v.24h-.24l-.24.24h-.24v.24l-.48.48v.24l.24-.24h.24l.24-.24.24-.24.72.24v3.6l.24.96.24.24.24-.48.72-.96v-.96h.48l.48.24.24-.48-.48-.72-.24-.72.24-.24v-.48h.24l.96.24-.24-.24v-.24h-.48l-.72-1.44.24-.48.48-.24.24-.48-.24-.72.24-.24h1.2l-.48-.72-.24-.24h-.96l-.24.24-.24-.24h-.24l-.24-.24-.24-.72.24-1.2h1.44v-1.44l.48-.48.48.24.48.48.48.24.48-.24.24-.48.96-.48.24.24v.24l.72.48h.72l.24.24h.24v1.92l-.48.72-.24.72-.24.24-.48.24-.72-.24-.96.48h-.24l.48.24h.48l1.2.24-.24.48v.24l-.96.96-.72.96h.24l.48-.24v-.24l1.44-1.2.24-.24v-.24l.48-.48v.48l.24.48-.24.72v.48l-.24.24v.24l-.48.72-.24.24v.24h-.24l-.24.24v.24l.24.48.24.24.24-.72.48-.48.24-.24h.24l-.24.24v.24h-.24v.48h.48v-.48l.24-.72h.48v.96l-.24.72v.72l.48,2.16.24.48.24.48v1.2l-.24.24-.24.48h.24l.24-.24v-.48l.24-.48v-.72l-.24-.24-.24-.48-.24-1.2-.24-1.68.24-1.44v-4.56l.48-2.16.24-.24.24-.24.24-.24h.72l1.44.24.48.72.72,1.44v.48l.96-.96.24-.24.24-.48h.48l.24.48v.96l-.24.48.72-.24v-.24l.24-.24.24-.96v-.24h.72l.48.24,1.2.96v.48l-.24.48-.96.48-.24.24h.96l.24-.24.24-.24h.24v-.24l.24-.24h.24l.24-.24.72.24.48.72,1.2.48.48-.48.72.72.48.72.24.96-.72.72-.96.24-.96.72-.48,1.44.24.24-.24.48-.96,1.2-.96.24v.24h-3.84l-1.2.24-1.44-.48h-.72l-.24.24-.24.24h.48l.24-.24h.24l-.24.72-.24.24,1.2.48h.96l1.44.24h2.4l.24.24-.24.48-.24.24-.24.24-.24.48-.24.72h.24l.24-.24v-.48l.24-.48.96-.24h.24l.48,1.2v.48l-.24.48-.24.24-.24,1.92v-.24l.24-.24v-.24l.24-.72h.24v-.24l1.2-.48.72.24.72.48.24-.24-.48-.48-.24-.48.48-.24-.48-.48-.24-.72v-.48l.72-.24h.24l.48.72.48.96.24.72v.72l-.24.24.48-.24v-.24l-.24-.96v-.24l-.24-.72.48-.24.24-.24h.72l.48.24.24-.24.72.96.24.48.24.72.24.72.24.48-.24.48v.24h-.24l-.24.24h-.24l-1.2.24h-.24l-.24-.24-.48-.24-.24-.24-.24-.24-.24-.24-.72-.24h-.48v.24l-.24.24.24.24h.24l.48.72v1.2l-.24.24-.72,1.2-.96,1.44-.24.24-.24.24-.48.24-.24.24-.48.48v.24l.24.48v.24l.24.96v1.44l-.24.48v.24l-.24.48-.24.24h-.24l-.48-.24h-.48l-.24-.24-.24-.24-.24-.24-.24-.48v-1.44l.24-.72v-.24l.24-.48.24-.24.24-.48v-.48l.48-1.44.24-.24-.24-.24-1.2-2.16-.48-.96-.24-.24h-1.2l-.96-.24h-.48l-1.68-.48h-.24v-.24l-.48-.48v-.24h-.72v-.24h-.24l-.48-.24-.96-.72v-.24l-.24-.48-.24-.72h-.48l-1.44.72-.72,1.2-.48.48v.72l-.24.24-.72.72h-.96l-.24-.24-.48-.24-.96.48-.72.24-.24.24v1.2l-.72,1.92-.24.24-.24.24-.48.48v.72l.24.48v4.56l-.24.24v1.68l.24.72.48,1.44.48.96v1.92l-.24.48v.48h-.24l-.24.24-.24-.24h-.48l-.24.24v.24l-.72.96v.24l-.24.24v2.16l.24.48-.24.24-.72.96-.48-.24-.24-.24-.24-.24-.24-.24v-.24h-.48l-.48-.24h-1.68l-.96-.48-.48-.48-.24-.24-.24-.24h-1.2l-.24.24v1.2l-.24.24v.48h-.24l-.48.24-.48.24h-.24l-.24.24-.48.48-.24.24v.24l-.48.24v-.24h-.24l-.48-.48-.24-.24-1.2.24h-.24l-1.68-.48-.24.24-.48.48-.48-1.44-.24-.72-.48-.48-.72-.72-1.2-1.92-.24-.24-2.4-3.12-2.16-.24-1.2,1.92-.24.24.24.72.24.24v.48l.24.24v.96l-.24.24-.24-.24-.24-.24-.72-.24h-.96l-.24.48-.24.24h-.24l-2.4.48.96,1.2.48.48.48,2.4v.48l-.48,1.2v.48l-.24.24-.48,1.2-.48.72.72.48.96.48-.24.24-.48.72-.24.24v.24l-.24.48v.24l-.24.24-.24-.24h-.24l-.96-.24-.96-.24-.72-.24-2.88-.72-2.16.24-1.68-.72-1.2.48-.24.24v1.68l.24.72v.72l.24.48.48,1.92v.24l-.96,2.64-.24.72h-.24l-.24-.24-.48-.24-.48-.24v-.24l-.48-.24-1.92-.72-.24.24v.24l-.24.48-2.64,2.4-.24,1.2-.24,1.68v1.2l-.48.72-.48,1.44v.24l-1.2.24-.48,1.68v.24l.24.48h.24l.24.48.48.24.48.72.24.48.24.96v2.64l-1.92,2.16-1.68,3.36-.48,1.44-.48.72-.96,1.44v.24l.24.96.48,1.2v.72l-2.64,2.4h-.24l-1.68.24-1.44.24.24.72v.96l.48,1.2v.24l.24.96.24.72v.48l-.24.24v.48l-.24.24v.48l-.24,1.92v1.2l.24.96v2.16l-.72,1.2v.72l-.24.96v.48l-.24.24-.24.72-.96,1.68-.72,1.92-.48.96-.24.72-.72,1.44-.24.24v.72l.96.96.72.24.72.24.72.24.24,2.16.24,2.4-.96,2.64-5.04-.72-.24-.24-.48.24h-.24l-.72.24-.24.24h-.48l-.48.48-.48.48-.72.48-.24.48-.72,1.2-.48.72-.72,1.68-1.44,2.16.24,1.2.24.48-.48.72-.48.72-.48,1.2-.48.72.72,1.44.24.24.72,1.92.24.48-.24.24-.24.48-.24.72-.24.48.24.96v.48l.24.96v.48l-.24.72v1.2l.24.96.48,1.2.24.48.24.48.48.96v.48l.24.48v.24l-.24,1.92-.24,2.16v.48l-.24.96v.96l-.24,1.92.24.24,1.92,2.16h.96l1.92,2.4.72.72-.24.72-.24,1.2v.72l-.72,1.68-.24.48-.24.24h-1.68l-.72.48h-.48l-.24.48.24.24.24.48.48.96.24.72v.72l.24.24v.48l.48.48.48,1.44.72,1.68.24.72v1.2l-.24.24-.24.72-.24,2.16.24.48-.24.24v1.2l-1.2,1.68-.96.96-.24.24-.24.24h-.96l-.48-.24-.72.48v.24l-.24.24.48.72v.24l.24.72v.48l-.72.96h-.48l-.72.72.72,2.64.24,1.68.24.24v1.2l-.24.24v.48l-.24.96.24.48-.96,2.88-.24.24h-.24l-.72.24h-.24l-.24-.24v-1.44l-.48-1.44-.24-.48h-2.4l-.24-.24-.72-.48-.24.24-.96-.72-.24-.48-.72-2.16v-1.2l.24-.48v-.24l-.24-.24v-.24l-.24-.72v-.72l-.24-.48-.48-1.44.24-.96.24-.24.24-.72h.24l.24.96.24-.24.24-.48-.24-.96h-.48v.24h-1.2l-.24.24-.24.48.24.48v1.2l.24.72.24.24.24.24.24.24v.72l-.24.48-.24.24-.24.24-.24.24h-.24l-.24-.24v-.72l-.24-1.44-.24-.48-.72-.48h-.48l.48.48.24.24.48.48.24.96-.24.96h-.24l-.24-.24h-.48v.24l.72.96.72.48.48.24.24,1.92-.48.96-.24-.24-.48-.24-.24.96-.72,2.64-.72.24v-.24l-.96.48v.48l-.72.48h-.48l-.48-.24.24-.48-.24-.24-.24-.48-1.44-1.2h-.48l.48.96.48.48v.72l-.72.96-.72.48-.72.72-.48,1.2-.24.24-1.2,1.44-.96.72h-.24l-.24.24-.48.24-.96,1.44-.24.24-.48.24-.24.24v.24l-.24.72-1.44,1.68-.96.24-1.44.72v.48l-.24.72-.48-.24-.24.72-1.68.24-.96.24-1.2.24-.48.24-.48.24h-1.68l-.72-.48-.24-.24h-.72l-.48.48-.24.24-.48.24-.48-.96-.24-.24-.96-.96h-.48v.72h-1.2l-.24-.48v-.48l.24-.48.24-.24.72-.48.48-.48-1.2-.48-1.92-.24h-.24l-.48-.48-.48-.24-.72-.24-.96-.72-.24-.24v-1.2l-.24-.24h-.72l-.72-.24-.96-.96-.24-.24-.72-1.68-.24-1.44.48-1.2.24-.72.24-.48v-.96l-.24-.24.24-.72,1.2.96v.48l.24.24.48.24.24-.24v-.48l.48.24.48.24.48.72.24.48.48.48h.48l-.24-.24-.24-.24-.24-.24v-.24l.24-.72.24-.24.48-.24.24-.24h.48l1.2-.24.48-.24.96-.24h-1.68v.24l-1.44.24-.48.24h-.24l-.24.24-.48.96-.48-.96v-.72h-.24l-.48-.72v-.48l.24-.24.48-.24.48-.48.48-.72.72-.72,1.2-.72.24-.24h.96l-.24-.24h-.24l-.48.24h-.24l-.48.48-.96.24-.96-1.2.24-.48.48-.48h.24l.96-.96v-.48l1.44-.72h.48l-.24-.24-1.44-.24-.24.72-.48.96v.24l-.24.24h-.24l-.24.24-1.2.96-.48-.96.24-.48h.72l1.2-.48h-2.64l-.72.48-.48.48.24-.24h.96l.48.72-.24.48-1.2.48-.48-.24-.24-.48v-.24h-.24v.72l-.48.72h-.48l-.48-.24-.96-.96-.48-1.44v-1.2l.96-1.68,1.2-1.2.24-.48.24.48v.48l-.24.96-.24.96v.48l.24-.24h.24v-.24l.24-.48-.24-.48.24-.72.24-.24.96.24.48-.24.48-.72.72-.24.48.24h.96l1.92-1.68-.72.24-.48.24-.24.24-.24.24-.48.24-.48.24-1.2-.24-.24-.24-.72-.96v-.48l.48-.72.24-.24.48-.24h.96l.24-.24-.24-.72.24-.24.24-.24.24-.24.48-.72v-1.2l.96-1.68,1.2-.96.96-.96h1.2l.24.24-.24.48-.24.48-.48,1.44-.24,1.68-.24.72.24.24v-.96l.24-.24.24-1.44.48-.96.24-.96.72-.96.24-.24.24-.24h.24l.96-.24.24.24h.24l.24.24.24-.24.24-.24-.96-.24v-.48l.24-.72h-.24l-.24.24-.24.48h-.24v.24l-.48.48-1.2.72v.24h-.48l-.24-.24v-.24l-.96.24-.72.24-.24.24-.24.24h-.24l-.24-.24-.24-.24-.24.96-.24,1.2-.24.48h-1.2l-.72,1.44-.24,1.68-.24.24-.48.24-.24.24h-.24l-.24-.24-.24-.72-.24-1.44h-.48l-.24-.24.96-2.4.24-.72.48-.24v-.24l-.72.48-.72,1.44-.96,1.2-.24.72-.48-.24-.24-.72-.72-.24.72-.96-1.2-.24v-1.44l.48-.48.48-.48-.24-.72.24-.48.24-.24h.24l.24.24.24.24.24.24.48.72v.24l.48.24h.72l.72-.72v-.48l.24-2.88-.24-.24-.24-.24-.24-.24-.48.48-.24.72-1.44,1.2h-.96l-.24-.48-.72-1.2h.24l.24.48.48.24-.72-1.68-.24-.24-.48-.24-.72-.96h.72l.72.72.72.48.48.24.24.48.24.72v.24l.48.24.24-.72-.24-.48-.24-.48-.24-.24-.72-.24v-.24l.96-1.2.24-.24h1.2l-.48-.48-.96.24-.24.24v.48l-.48.24h-1.2v-.24h-.24l-.24-.24-.24-1.92v-.72l.24-.48.24-.48h.96l.48.24.24.48h1.44l.24-.24,1.2-.48.72-.24h.72l.72-.24,1.44.24.96.24.24.24.48.24.24.24h.24l.96-.48.48-.96h.72l1.2.24v.24l.96.96.24.96.96,1.68v.48l-.24.24.24-.24.24-.24v-.72l-.48-.24-.24-.24-.24-1.2-.24-.72.24-.24h1.2l.96-.24.96-.96h-.24l-.24-.24v-.24l-.48-1.2.72-1.2.72-.96.48-.24.24-.24-.72.24-.24.24-.96.96-.24.72-.24.72.24.48.48.96-.72.48-.96.24-1.44.48-.24-.24v-.72l-.48-.24h-.96l-1.2-.72v-.24l.24-.24.24-.24v-.24l.48-.96.24-.96-.96,2.16-.48.24v.72l-.24.96-.72.48h-.48l-.24-.24-.72-.24-1.92-.48h-1.68l-1.44.24-.24.24h-.24l-.24.24-.48.24-.24.24-.48-.48-.24-.24-.96-.48-.24-.24-.48-.24.24-.48h.24l.24.24.24.24h.24l.24-.24-.24-.48-.48-.24h-1.2l-.24-.72,1.68-.96,1.92-.48h.72l.48.24h.48l-.24-.24h-1.2l-.24-.24-1.2.24-.72.24h-.24l-.48.24-.24.24-.24-.72-.24-.96.96-.48h1.92l1.44.48.72-.24h1.2v-.48h-.24l-.24-.24h-.48l-.24.24-.24.24h-.24l-.72.24-1.92-.96-.48-.24v-.72l.96.24v-.48h-.24l-.48-.24.48-.24.48.24h.24l-.24-.24h-.72l-.48-.24h.48l-.48-.24h-1.2v-.72l.24-.72v-.24l.72-.48,1.68-1.2.72-.72.24-.24,1.44.48.48.24.24.24.24.24,1.92.48h2.4v.24l.24.24h1.2l.24-.24v-.48l.48-.24h.72l.24.24.24-.24-.48-.24h-.96l-.24.24v.24l-.24.24h-1.2l-.96-.24-1.92-.48h-.48l-.72.24-.24-.24-.24-.48h1.2l-.48-.24h-.24l-1.92-.48h-.96l-.72.24h-.24l-.96.24-.24-.48.24-.72.48.24h.24l1.2-.96-.72-.96-.48-.24-.24-.24h-.72v-1.2l.72-.48.24.24.24.48,1.44,1.92.24.24-.24.48.24-.24.48-.72-.24-.24-.24-.24h-.48l-.24-.48.48-.72.24-.24h.24l1.44.48,1.2-.48.24.24.24.24v.96h.24l.72.24,1.44.48.24.24h.48l-.72-.48h-.48l-.48-.24h-.24l-1.2-1.68.24-.72.24-.24.24-.48.48-.24,1.68-.72h.24l.96,1.92.48,1.44.24.24-.24.48.24-.24v-.72l-.48-1.44-.24-.48-.24-.24-.24-.72v-.48h.24l2.16-.96,1.2.72v.96l.48.72.24.24v.48l.24,1.2-.24.24-.48.48v.48l.24.24h.72l.24-.24h-.24l-.24.24h-.24v-.24l-.24-.24.24-.24.24-.48v-1.44l.72-.24h1.44l.24.24.24.24.24.24v-.24l-.24-.48h-.24l-.24-.24h-.24l-.24.24h-.48l-1.44-.72-.48-.72.48-.24-.48-.72-.24-.48-.48-.48-.96.24-.96.48h-.24l-.96.24-.96-.72.96-.48h1.92v-.24l-.48-.48h-.72l-1.2.24-.24-.24v-.72l.24-.24.24-.24h1.68l.24.48.96-.72.24-.24h2.4l1.92,1.2,1.2.72.24.72.24-.72.72-.24.72-.24h-1.44l-.24.24h-.24l-.24-.24h-.24l-.24-.48v-.24l.96-.72.48-.48h.24l1.2-.48h1.44l.48.24.48.24v-.24l-.48-.72h-.48l-2.16.48h-.24l-.72.48h-.24l-.48.24-.48-.24-.24-.48.72-.48.24-.24h.24l.48-.24h.72l-.48-.24-1.2.24-.24.24-.24.24h-.48l-.96.24h-1.92l.24-1.2.24-.72-.48-.96.24-.24.72-.72.24-.24h.24l1.2-.24h.24l.48.72.48.72v.24l.48-.24.48-.24.24-.24.24-.24h.24l.24-.24h.24l.24.24-.24.48-.24.24-.24.24.24-.24,1.2-.48.48-.24h.48l.24.24.24.24.24.72.24,1.2.24.24.24.24.48.24,1.44.96.24.48v.24l.24.24v-.72l-1.68-1.68h-.24l-.24-.24-.48-.24v-.96l-.24-.72-.96-.96h-.96l.72-1.2.48-.48h.48l.24.48v.48l1.2,1.68v.72l.24.24.96.72h.24v-.48l-.72-1.2.24-.24h1.2l.24-.24h-1.92l-1.2-.96-.24-1.44.48-.24.48-.24,1.68.48.24-.24v-.24l.48-.24.72-.24h.48l.96-.24h-2.4l-.96-1.44.48-.24h.96l.72-.48-.48-.24-.48-.72.24-.24h.72l1.44-.48.24-.24.48.48.24.24.24.72.72.24h.96l.24-.24.48-.24-.48.24h-1.44l-.24-.24v-1.44l.48-.96h.72l.48.24.48-.72.24-.24.24-.24.72-.24.48-.24,1.68,3.12v.72l.24.48.48.24.72.48.72.48.24.24v-.72l-.24-.24v-.24h-.96l-.24-.24-.24-.24.24-.72v-.24h.48l.96-.48h.24l.96.24.48.24h1.68l.72-.24h.24l.24-.24h-.24l-.48-.24h-.24l-.24-.48.24-.24.24-.24h.48l.24-.24v-.72h-.24l-1.2.48-.24.48h-.24l.48-.96.24-.24,1.2-1.2.24-.24h1.44l.24-.24.24-.48.24-.24v-.24h.96l.48-.24-.24-.72-.96-.48h-.48l-.24.24-.48.24-.24-.24v-.48l1.2-1.2.48-.24h.48l.48-.48-.48-.24-.72-.24.24-1.2h-.24l-.72,1.2v.24l-.24.24-.24.24-.24.24-.48.24h-.24l-.48.48-.24.24-.72.72h-.48l-.24.24-.72.96.24-.24.96-.48.72-.48.24-.24.96.24.24.48-.96,1.68-.24.24h-.24l-.48.24-1.2.72v.48l-.48.24-1.2.72-.48.24h-.48l-.24.24-.24.24-.72.48h-.48l-.72-.24-.72-1.68v-1.2h.72l.72-.48.48-.24.24-.24-.72-.24-.72.24-1.2.96-1.2.48h-.24v-1.68l.24-.24.48-.48.48-.24.96-.48.24-.48,1.92-.72h.24v-.24l-.48-.48h-.48l-.48-.24.24-1.2,1.2-1.92.48-.48.72-.96.72-.72v-.24l.24-.24v-.24l.48.24.24.24.48-.24-.72-.48-.48-.24h-.24Z"/>
</svg>
