<svg id="Poland" xmlns="http://www.w3.org/2000/svg" width="612" height="792" viewBox="0 0 612 792">
    <defs>
        <style>.cls-1{fill:#fff;fill-rule:evenodd;}</style>
    </defs>
    <polygon class="cls-1"
             points="406.346 419.976 406.346 420.216 406.106 420.696 406.826 421.896 407.306 422.616 407.786 424.296 407.786 425.496 407.546 426.216 408.506 426.456 409.226 426.936 409.466 427.176 409.466 427.896 409.946 428.376 409.706 428.616 408.266 428.136 406.826 427.656 406.346 427.656 406.346 427.896 406.106 427.896 404.186 427.416 403.946 427.416 402.746 427.416 400.585 426.696 400.585 426.216 400.345 425.736 399.625 425.016 398.425 424.536 396.025 424.056 395.065 424.296 394.825 424.296 394.345 424.536 394.105 424.536 393.865 424.536 392.665 424.296 390.505 425.016 390.265 425.256 390.265 426.216 389.785 426.936 389.545 427.176 389.305 427.176 388.105 426.936 387.385 426.216 385.944 426.216 383.544 426.696 383.064 426.936 382.104 427.656 381.384 428.136 381.144 429.336 381.144 429.815 380.904 430.295 380.664 430.295 380.424 430.055 380.184 429.815 379.944 429.815 379.464 429.815 379.224 429.815 378.984 430.295 378.744 430.535 378.024 430.535 377.784 430.295 377.784 429.815 378.024 429.576 378.264 429.096 378.024 427.896 377.544 427.176 376.824 427.416 376.344 427.416 375.384 426.696 374.904 425.496 374.664 425.016 374.184 424.776 373.704 424.776 372.264 425.976 372.024 426.456 371.544 427.416 371.544 427.896 371.303 428.136 370.103 428.376 369.383 428.376 369.383 427.656 369.143 427.176 367.943 426.696 367.943 426.216 367.703 425.496 367.223 424.296 366.983 424.296 365.303 423.576 364.583 422.376 364.583 420.936 364.103 420.936 362.183 420.936 361.223 420.696 359.543 419.496 359.063 419.256 358.583 420.216 357.863 420.696 357.383 420.696 356.903 420.696 354.982 419.016 354.262 418.296 354.742 418.056 355.223 417.816 355.943 417.336 355.703 416.856 355.703 415.896 355.223 415.656 354.982 415.656 354.982 415.896 354.742 416.376 354.502 416.616 352.582 416.616 351.862 416.616 350.902 416.136 350.182 415.656 349.942 415.416 349.222 415.176 348.502 414.936 347.302 414.696 347.062 414.696 346.822 414.696 346.582 415.176 347.542 416.136 347.782 416.616 348.262 418.056 348.022 417.816 347.302 418.056 346.822 418.296 346.342 418.776 346.342 419.256 345.622 419.976 344.902 419.976 344.662 419.736 344.182 419.496 343.942 419.016 343.942 418.536 343.702 418.296 342.742 417.096 342.502 416.856 341.782 416.376 341.062 416.136 340.582 415.896 340.102 415.656 340.102 415.176 341.062 414.216 341.542 414.216 342.022 413.736 342.262 412.776 342.022 412.536 341.302 411.816 341.062 411.577 340.102 411.577 339.141 411.816 338.901 411.816 338.421 412.296 337.941 412.536 337.221 411.577 335.541 410.857 333.621 410.617 332.421 410.377 331.461 410.617 331.221 409.657 330.741 409.417 330.261 408.937 330.261 408.457 330.261 407.977 330.261 407.737 329.781 407.497 329.301 407.017 327.621 407.737 327.621 408.217 327.621 409.417 327.381 409.657 325.941 409.657 325.941 409.417 326.421 408.217 326.901 407.497 327.141 406.777 327.141 406.297 327.381 405.577 327.621 403.657 327.381 402.937 327.141 402.457 326.901 402.217 326.901 401.977 326.901 401.737 326.661 400.537 326.421 400.297 326.181 400.057 325.461 399.817 324.261 399.337 324.021 399.097 324.501 398.137 324.501 397.177 324.021 396.937 323.781 396.697 323.54 396.457 322.82 395.017 322.82 394.537 323.06 394.298 323.54 393.818 323.781 393.098 324.021 390.938 323.3 388.298 323.06 388.058 322.82 388.058 322.34 388.058 322.1 387.818 321.62 386.138 321.62 385.658 321.86 385.418 322.34 384.458 322.34 383.258 321.86 382.778 321.38 382.538 321.14 382.298 320.66 382.058 320.42 381.818 319.7 380.858 319.46 380.618 318.02 379.658 317.54 378.938 317.3 377.498 317.54 377.258 317.78 377.018 318.02 377.018 318.74 376.539 319.22 376.059 319.46 375.099 319.46 374.619 319.46 371.979 319.46 371.499 318.26 368.139 317.78 365.979 318.74 365.979 319.22 366.219 320.18 366.459 320.42 366.219 320.9 364.779 320.9 363.819 320.42 363.579 320.18 363.339 319.46 363.339 318.98 363.339 318.26 364.299 317.78 364.059 317.54 363.819 317.06 363.339 317.06 362.859 317.3 362.379 318.02 362.619 318.26 362.619 318.5 362.619 318.98 362.379 319.46 361.899 319.7 361.899 320.18 361.419 321.86 360.459 322.58 360.459 324.021 359.739 326.181 358.78 326.901 358.3 327.381 358.3 327.621 358.06 327.861 358.06 328.581 357.82 330.021 357.34 330.741 357.1 331.221 356.86 331.701 356.62 331.941 356.38 333.381 356.14 333.861 356.14 334.341 356.14 334.581 355.9 335.061 355.66 335.781 354.46 335.541 354.22 335.781 353.74 336.501 352.54 336.981 352.06 337.221 351.82 337.221 351.34 337.461 351.34 337.701 351.1 338.421 350.86 338.661 350.86 338.901 350.86 339.862 350.62 340.582 350.38 340.822 350.14 341.062 349.9 341.782 349.18 341.782 348.94 342.022 348.7 343.702 347.74 344.662 347.5 345.382 347.26 346.102 347.02 346.582 346.78 347.542 346.54 348.262 346.06 349.222 345.82 349.462 345.58 350.662 345.34 353.302 345.1 353.542 345.34 354.262 345.58 354.982 346.06 355.463 346.3 355.703 346.3 356.663 346.78 357.143 347.02 357.383 347.26 358.103 347.98 358.103 348.22 357.623 347.98 357.383 347.74 357.383 347.5 357.143 347.02 356.663 346.78 355.463 346.54 354.742 346.06 354.502 346.54 354.022 346.54 354.742 347.5 355.223 347.98 355.463 348.7 355.703 349.18 355.943 350.38 355.943 350.86 356.183 351.1 357.383 351.58 357.863 351.82 358.583 352.06 359.063 352.06 359.543 352.06 359.543 351.82 359.783 352.06 360.263 352.06 360.503 351.82 361.223 351.82 361.943 351.58 363.383 351.1 363.863 350.86 364.583 350.38 365.063 349.9 365.303 349.42 365.543 349.42 365.783 349.42 365.543 349.66 364.823 350.62 363.863 351.1 363.623 351.34 363.383 351.34 362.663 351.58 362.183 351.82 362.423 352.78 363.623 352.78 364.583 351.82 365.303 351.34 365.783 351.1 366.503 350.62 366.983 349.66 367.703 349.66 368.903 349.66 369.863 349.42 370.343 349.42 371.784 349.66 372.024 349.66 372.264 349.66 372.984 349.66 375.624 349.66 377.064 349.42 379.224 349.18 379.704 349.18 380.184 349.18 380.664 349.18 381.384 349.18 381.864 349.18 382.104 349.18 382.824 348.94 383.304 348.94 383.784 348.7 384.744 348.7 385.944 348.46 386.905 348.22 388.585 347.98 389.545 347.74 389.785 347.5 390.985 347.26 391.225 347.26 392.665 347.02 393.145 346.78 393.865 346.54 394.105 346.54 394.345 345.82 394.585 345.58 396.025 345.82 397.225 346.78 398.185 347.02 399.385 347.26 399.625 347.5 400.585 348.22 401.065 348.7 401.065 348.94 401.545 350.14 401.785 351.34 401.785 351.58 401.785 351.82 401.785 352.06 402.025 352.3 402.265 353.26 402.986 354.7 403.226 355.42 403.706 356.14 403.706 356.62 404.186 357.34 404.666 358.3 404.906 358.78 406.106 360.939 407.306 362.619 408.506 365.259 408.506 366.219 408.986 367.419 409.226 368.859 409.226 369.099 409.226 369.579 409.226 370.059 408.986 370.299 407.786 371.499 407.546 371.739 407.306 371.739 407.066 371.739 406.826 371.979 406.586 372.219 405.866 372.699 405.146 373.659 404.906 373.659 404.666 374.139 403.946 376.059 403.466 377.738 403.706 378.458 403.946 378.458 404.906 378.458 405.386 378.458 408.026 379.658 408.506 379.898 408.986 381.098 408.746 382.058 408.746 382.538 408.746 385.178 408.746 386.138 408.986 386.378 408.746 386.618 408.986 387.578 409.466 388.298 409.706 388.538 409.946 389.018 410.186 389.018 410.906 390.218 410.906 390.698 411.146 391.898 411.866 393.098 412.106 393.098 412.826 393.578 414.026 395.017 414.506 395.977 414.986 396.697 415.226 396.937 415.706 397.177 415.946 397.417 416.426 397.417 416.906 397.657 416.906 398.137 416.426 398.377 416.186 398.377 415.706 398.377 415.466 398.377 415.226 398.617 415.226 399.097 415.946 399.817 416.666 400.297 417.146 401.257 417.386 401.257 417.386 402.217 416.906 404.857 416.666 404.857 416.186 405.097 415.706 405.097 415.466 405.097 414.986 405.337 414.506 405.577 414.266 405.817 414.026 406.057 414.026 406.537 413.306 407.737 413.066 407.977 412.826 408.217 412.586 408.697 411.626 409.897 411.386 410.377 411.146 410.617 410.906 410.857 410.426 411.816 409.706 413.016 409.466 413.496 407.066 418.296 406.586 419.496 406.346 419.976"/>
</svg>
