<svg id="Portugal" xmlns="http://www.w3.org/2000/svg" width="612" height="792" viewBox="0 0 612 792">
    <defs>
        <style>.cls-1{fill:#fff;fill-rule:evenodd;}</style>
    </defs>
    <polygon class="cls-1"
             points="56.884 536.849 56.884 536.369 56.884 533.25 56.884 530.13 57.364 529.41 57.364 529.17 57.364 527.97 57.364 527.01 57.124 525.33 57.364 524.85 57.604 523.41 57.844 523.17 58.564 522.69 59.044 522.69 59.524 522.45 59.524 522.21 59.764 521.97 61.204 521.01 61.444 521.01 62.644 521.01 63.364 521.01 63.604 521.01 65.284 521.25 66.004 520.77 66.724 520.77 67.684 522.45 67.444 523.17 67.204 523.17 66.724 523.41 66.244 523.65 65.764 524.13 65.524 524.37 65.524 525.09 65.764 525.33 65.764 525.81 65.764 526.05 66.004 526.29 66.484 526.29 66.724 526.29 66.964 526.29 67.204 526.29 68.644 525.81 69.124 526.29 69.364 526.29 70.564 526.05 71.525 526.05 72.485 527.01 72.245 527.25 74.405 527.97 75.365 527.97 76.085 527.97 77.045 527.73 77.285 527.49 77.525 527.01 77.525 526.29 78.245 526.29 78.485 526.53 78.725 527.01 78.965 527.25 79.445 527.25 79.925 527.01 80.165 527.49 80.645 527.73 83.045 528.45 84.245 528.45 84.725 528.93 84.485 530.37 84.005 531.33 83.765 532.53 84.245 533.25 84.725 533.01 85.205 533.01 86.165 533.25 86.645 533.73 87.126 534.21 87.606 535.169 87.126 535.889 85.925 537.089 84.965 537.809 83.765 538.529 82.805 539.249 82.085 539.489 81.845 539.249 81.365 539.249 81.125 539.249 80.405 539.489 79.445 540.449 79.205 540.929 78.965 541.409 78.485 541.649 78.005 541.889 77.045 541.649 76.805 541.889 77.285 542.609 77.525 543.089 77.765 544.769 77.285 546.449 76.565 549.809 75.845 551.969 75.605 552.928 74.885 553.648 74.645 553.648 74.405 553.648 73.925 553.408 72.965 553.888 72.725 554.368 72.725 555.328 72.965 555.568 73.445 555.808 73.445 556.048 73.925 557.008 73.925 557.488 71.525 561.568 70.804 562.288 70.324 562.528 69.124 562.048 68.644 561.808 67.924 561.568 67.444 561.808 66.964 561.808 66.004 561.568 64.804 560.848 64.804 561.328 64.804 562.048 66.004 564.208 66.244 565.888 66.004 566.608 66.484 568.768 67.204 570.687 67.444 570.927 67.684 570.927 68.404 570.927 68.884 571.167 69.124 571.407 69.364 572.127 69.124 572.607 67.444 574.767 66.964 575.247 65.764 575.727 65.044 576.207 64.324 576.447 64.324 576.687 62.644 580.527 62.884 580.767 63.124 581.007 63.604 582.927 63.844 583.407 64.084 584.127 64.084 584.607 64.324 585.087 64.324 585.327 65.284 585.327 65.764 585.087 66.244 585.087 66.484 585.327 66.244 585.807 66.004 586.287 64.804 587.966 63.364 587.966 62.164 587.726 61.684 587.966 61.684 588.206 61.444 588.686 60.964 589.646 60.244 590.366 59.284 590.846 58.564 591.086 58.084 591.806 56.644 593.726 56.644 594.206 56.884 594.206 56.884 594.686 57.124 594.926 57.124 595.406 57.124 596.126 57.124 596.846 56.644 598.766 56.644 599.966 56.164 599.726 55.924 599.726 54.723 599.966 54.483 599.966 53.763 600.206 51.843 601.166 49.923 601.166 48.963 600.926 48.483 600.446 48.243 599.966 48.003 599.726 47.523 599.486 46.803 599.006 44.403 598.046 43.923 598.046 43.443 598.046 42.723 597.566 40.803 597.086 38.642 597.086 36.962 597.566 36.242 597.326 36.482 596.846 37.202 596.126 37.682 595.886 37.922 595.406 38.882 593.726 39.843 592.286 40.563 591.326 40.803 590.126 41.763 587.007 41.763 586.287 42.003 585.567 42.243 585.327 42.483 584.127 42.243 583.887 42.243 582.447 42.963 581.487 43.203 581.007 43.443 580.527 43.683 580.047 43.923 579.567 44.163 578.847 44.163 578.127 44.163 577.647 44.163 577.407 44.163 576.927 45.363 576.687 46.083 576.687 45.363 574.767 43.683 574.527 43.443 574.527 42.243 575.007 41.283 575.247 41.043 575.247 39.843 575.007 39.843 574.527 40.083 574.047 40.323 573.567 40.323 573.327 40.323 572.127 40.323 571.887 40.083 571.407 39.843 570.927 40.563 570.927 41.283 571.167 42.003 572.127 42.963 571.167 43.203 570.687 44.163 570.447 44.403 570.447 44.403 569.967 44.403 569.248 44.163 569.008 44.163 568.288 44.403 567.568 42.963 568.768 42.723 569.008 42.483 569.488 42.483 569.967 42.243 570.207 41.763 570.687 40.563 570.687 39.122 570.687 37.922 569.967 37.442 569.727 37.682 568.288 38.162 567.568 38.642 567.328 39.122 566.608 39.362 566.128 39.362 565.408 39.362 565.168 39.843 564.208 40.083 563.488 40.803 563.008 41.283 562.048 41.523 561.568 41.523 561.088 41.763 560.128 42.483 559.648 43.683 559.168 44.883 558.208 46.083 557.008 46.083 556.528 47.043 555.328 47.283 554.608 48.243 553.648 49.203 551.969 49.923 551.009 50.163 550.769 50.403 550.289 50.883 549.569 51.123 547.889 51.603 547.169 51.843 546.689 52.803 544.769 53.283 544.289 53.283 544.049 53.523 543.809 53.523 543.329 54.483 542.369 54.963 542.129 55.444 541.649 55.684 540.449 54.963 541.169 54.723 541.649 54.723 540.929 54.963 540.689 55.444 539.969 55.924 539.009 56.164 538.529 56.884 537.089 56.884 536.849"/>
</svg>
