<svg id="Pyrenees" xmlns="http://www.w3.org/2000/svg" width="612" height="792" viewBox="0 0 612 792">
    <defs>
        <style>.cls-1{fill:#fff;fill-rule:evenodd;}</style>
    </defs>
    <polygon class="cls-1"
             points="160.81 524.61 161.05 524.61 161.29 524.61 161.53 524.85 161.77 524.85 162.01 524.85 162.25 525.09 162.49 525.09 162.73 525.09 162.97 525.09 163.21 525.09 163.21 524.85 163.21 524.61 162.97 524.37 162.73 524.37 162.49 524.37 162.25 524.37 162.25 524.13 162.01 524.13 161.77 524.13 161.53 524.13 161.53 523.89 161.29 523.89 161.29 523.65 161.05 523.65 161.05 523.41 161.05 523.17 160.81 523.17 160.81 522.93 160.81 522.69 160.81 522.45 160.57 522.45 160.57 522.21 160.57 521.97 160.57 521.73 160.81 521.73 161.05 521.97 161.29 522.21 161.53 522.21 161.53 522.45 161.53 522.69 161.77 522.69 161.77 522.93 162.01 522.93 162.25 522.93 162.49 522.93 162.73 522.93 162.97 522.93 162.97 523.17 163.21 523.17 163.21 523.41 163.21 523.65 163.21 523.89 163.45 523.89 163.69 523.89 163.93 523.89 163.93 524.13 164.17 524.13 164.17 524.37 164.41 524.37 164.65 524.37 164.65 524.13 164.89 523.89 164.89 523.65 164.89 523.41 164.89 523.17 164.89 522.93 165.13 522.69 165.13 522.45 165.13 522.21 165.13 521.97 165.37 521.73 165.37 521.49 165.61 521.25 165.85 521.25 165.85 521.49 165.85 521.73 166.091 521.97 166.091 522.21 166.091 522.45 166.331 522.45 166.331 522.21 166.331 521.97 166.331 521.73 166.331 521.49 166.331 521.25 166.571 521.25 166.571 521.01 166.571 520.77 166.571 520.53 166.571 520.29 166.571 520.05 166.571 519.81 166.571 519.57 166.571 519.33 166.811 519.33 167.051 519.33 167.051 519.57 167.051 519.81 167.291 520.05 167.291 520.29 167.291 520.53 167.291 520.77 167.291 521.01 167.531 521.25 167.531 521.01 167.771 521.01 167.771 520.77 168.011 520.77 168.011 520.53 168.251 520.53 168.491 520.53 168.491 520.77 168.491 521.01 168.491 521.25 168.491 521.49 168.251 521.73 168.251 521.97 168.251 522.21 168.491 522.21 168.491 521.97 168.731 521.97 168.971 521.97 168.971 522.21 168.971 522.45 168.971 522.69 169.211 522.69 169.211 522.93 169.451 522.93 169.451 523.17 169.691 523.17 169.691 523.41 169.931 523.41 169.931 523.65 169.931 523.89 170.171 524.13 170.411 524.13 170.651 524.13 170.891 524.13 171.131 524.13 171.371 524.37 171.371 524.61 171.611 524.61 171.611 524.85 171.851 524.85 172.091 525.09 172.331 525.09 172.331 525.33 172.571 525.57 172.571 525.81 172.091 525.57 171.611 525.57 171.371 525.57 171.371 525.33 171.131 525.33 170.891 525.33 170.651 525.33 170.411 525.33 170.171 525.33 169.931 525.33 169.691 525.57 169.451 525.57 169.211 525.57 168.971 525.57 168.731 525.33 168.491 525.33 168.251 525.33 168.011 525.33 168.011 525.57 167.771 525.57 167.531 525.57 167.531 525.81 167.291 526.05 167.291 526.29 167.291 526.53 167.051 526.77 167.051 527.01 167.051 527.25 167.051 527.49 167.051 527.73 166.811 527.97 166.811 528.21 166.811 528.45 167.051 528.69 167.051 528.45 167.291 528.45 167.291 528.21 167.291 527.97 167.291 527.73 167.531 527.49 167.531 527.25 167.531 527.01 167.771 527.01 167.771 526.77 167.771 526.53 168.011 526.53 168.011 526.29 168.251 526.05 168.491 526.05 168.731 526.05 168.971 526.05 169.211 526.05 169.451 526.05 169.691 526.05 169.931 526.05 170.171 526.05 170.411 526.05 170.651 526.05 170.891 526.05 171.131 526.05 171.371 526.05 171.611 526.05 171.851 526.05 171.851 526.29 171.851 526.53 172.091 526.53 172.331 526.53 172.571 526.53 172.811 526.53 173.051 526.53 173.291 526.53 173.291 526.77 173.291 527.01 173.531 527.25 173.771 527.25 173.771 527.01 174.011 527.01 174.251 527.01 174.491 527.25 174.731 527.25 174.491 527.49 174.491 527.97 174.971 527.97 174.971 527.73 175.211 527.73 175.451 527.73 175.451 527.97 175.691 527.97 175.931 527.97 175.931 527.73 175.931 527.49 175.931 527.25 175.691 527.25 175.451 527.01 175.211 527.01 174.971 527.01 174.971 526.77 174.731 526.77 174.731 526.53 174.971 526.53 175.211 526.53 175.451 526.77 175.691 526.53 175.691 526.29 175.451 526.29 175.451 526.05 175.211 526.05 174.971 526.05 174.971 525.81 174.971 525.57 175.211 525.57 175.451 525.57 175.691 525.57 175.931 525.81 176.171 526.05 176.411 526.29 176.411 526.53 176.651 526.77 176.651 527.01 176.651 527.25 176.891 527.25 177.131 527.49 177.131 527.25 177.131 527.01 177.131 526.77 177.131 526.53 177.131 526.29 176.891 526.29 176.891 526.05 176.891 525.81 176.891 525.57 176.651 525.33 176.891 525.09 177.131 525.33 177.371 525.57 177.611 525.81 177.611 526.05 177.851 526.05 177.851 526.29 177.851 526.53 178.091 526.77 178.091 527.01 178.091 527.25 178.331 527.49 178.331 527.73 178.571 527.73 178.811 527.73 178.811 527.49 179.051 527.49 179.291 527.49 179.531 527.49 179.771 527.49 180.011 527.49 180.011 527.73 180.251 527.73 180.491 527.73 180.731 527.97 180.971 527.97 180.971 528.21 181.211 528.21 181.451 528.45 181.692 528.69 181.932 528.93 182.172 528.93 182.172 529.17 182.412 529.17 182.652 529.17 182.892 529.17 183.132 529.17 183.372 529.41 183.612 529.41 183.852 529.41 184.092 529.41 184.092 529.65 184.332 529.65 184.572 529.65 184.812 529.89 185.052 529.89 185.292 529.89 185.292 530.13 185.532 530.13 185.772 530.13 185.772 530.37 186.012 530.37 186.252 530.37 186.252 530.61 186.492 530.61 186.732 530.85 186.972 530.85 187.212 531.09 187.212 531.33 186.972 531.33 186.732 531.33 186.492 531.33 186.252 531.33 186.012 531.33 185.772 531.33 185.532 532.05 185.772 532.05 186.012 532.05 186.012 531.81 186.252 531.81 186.492 531.81 186.732 531.81 186.972 531.81 187.212 531.81 187.452 531.81 187.452 532.05 187.692 532.05 187.932 532.05 187.932 532.29 187.692 532.29 187.452 532.53 187.212 532.53 186.972 532.53 186.732 532.53 186.732 532.77 186.492 532.77 186.492 533.01 186.732 533.01 186.972 533.01 187.212 532.77 187.452 532.77 187.692 532.77 187.932 532.77 187.932 533.01 188.172 533.25 188.412 533.25 188.412 533.01 188.412 532.77 188.412 532.53 188.652 532.53 188.652 532.29 188.892 532.29 188.892 532.53 189.132 532.53 189.132 532.77 189.372 533.01 189.372 533.25 189.612 533.25 189.612 533.01 189.612 532.77 189.612 532.53 189.852 532.77 190.092 532.77 190.332 532.77 190.332 533.01 190.572 533.01 190.572 533.25 190.812 533.25 190.572 533.49 190.332 533.49 190.092 533.49 190.092 533.73 190.092 533.97 190.092 534.21 189.852 534.21 189.612 534.21 189.612 534.45 189.372 534.45 189.132 534.45 189.372 534.45 189.372 534.69 189.132 534.69 189.132 534.929 188.892 534.929 188.892 535.169 189.132 535.169 189.132 535.409 189.132 535.649 188.652 535.649 188.412 535.889 188.172 535.889 187.932 535.889 187.932 536.129 187.932 536.369 187.932 536.609 187.932 536.849 188.172 536.849 188.412 536.849 188.652 536.849 188.892 536.849 189.132 536.849 189.372 536.849 189.612 536.849 189.852 536.849 189.852 536.609 190.092 536.609 190.332 536.369 190.572 536.369 190.572 536.129 190.812 536.129 191.052 536.369 191.292 536.369 191.532 536.609 191.772 536.609 191.772 536.849 192.012 536.849 192.012 537.089 192.252 537.089 192.252 537.329 192.492 537.329 192.492 537.569 192.492 537.809 192.252 537.809 192.012 538.049 191.772 538.049 191.532 538.289 191.292 538.529 191.292 538.769 191.052 538.769 190.812 538.769 190.812 539.489 191.052 539.489 191.292 539.489 191.532 539.489 191.772 539.489 192.012 539.489 192.012 539.729 192.012 539.969 191.772 540.209 191.532 540.209 191.292 540.209 191.052 540.209 190.812 539.969 190.572 539.969 190.572 540.929 190.332 540.929 190.092 540.929 189.852 540.929 189.612 540.689 189.372 540.689 189.132 540.689 188.892 540.929 188.652 540.929 188.412 541.169 188.172 541.169 187.932 541.169 187.692 541.169 187.452 541.169 187.212 541.169 186.972 541.169 186.732 541.169 186.492 541.169 186.252 541.169 186.012 541.169 185.772 541.169 185.532 541.169 185.292 540.929 185.052 540.929 184.572 540.929 184.332 540.929 184.092 540.929 183.852 540.689 183.612 540.689 183.372 540.689 183.132 540.689 182.892 540.689 182.652 540.689 182.412 540.689 182.172 540.929 182.172 541.169 182.172 541.409 182.172 541.649 182.412 541.649 182.412 541.889 182.412 542.129 182.412 542.369 182.412 542.609 182.172 542.849 181.932 543.089 181.692 543.089 181.451 543.089 181.211 543.089 180.971 542.849 181.211 542.609 181.211 542.369 181.211 542.129 181.211 541.889 181.211 541.649 180.971 541.649 180.971 541.889 180.731 541.889 180.491 541.889 180.491 542.129 180.251 542.129 180.011 542.129 180.011 541.889 179.771 541.889 179.771 541.649 179.531 541.649 179.531 541.889 179.531 542.129 179.291 542.129 179.291 542.369 179.051 542.369 178.811 542.369 178.571 542.369 178.331 542.369 178.091 542.609 178.091 542.849 177.851 542.849 177.611 542.849 177.611 543.089 177.371 543.329 177.371 543.569 177.131 543.569 177.131 543.809 176.891 544.049 176.651 544.049 176.411 543.809 176.411 543.569 176.411 543.329 176.651 543.089 176.651 542.849 176.411 542.849 176.171 542.849 175.931 543.089 175.931 543.329 175.691 543.329 175.691 543.569 175.451 543.569 175.451 543.809 175.211 543.809 174.251 543.809 173.291 543.569 174.011 543.089 174.011 542.849 174.251 542.849 174.251 542.609 174.251 542.369 174.491 542.369 174.731 541.889 174.971 541.409 174.731 541.409 174.491 541.409 174.251 541.169 174.251 540.929 174.011 540.929 174.011 540.689 173.771 540.449 173.771 540.209 173.771 539.969 173.771 539.729 174.011 539.729 174.011 539.489 173.771 539.489 173.771 539.729 173.531 539.729 173.531 539.969 173.291 539.489 173.051 539.249 172.811 539.249 172.571 539.249 172.331 539.249 172.091 539.009 171.851 539.009 171.851 539.249 171.611 539.249 171.611 539.489 171.371 539.729 171.371 539.969 171.131 540.209 170.891 540.209 170.651 540.209 170.651 540.449 170.651 540.689 170.891 540.929 170.891 541.169 170.891 541.409 170.891 541.649 170.651 541.649 170.651 541.889 170.411 542.129 170.411 542.369 170.411 542.609 170.411 542.849 169.931 542.609 169.931 542.369 169.691 542.129 169.451 541.889 169.211 541.649 169.451 541.649 169.691 541.409 169.931 541.169 169.931 540.929 170.171 540.689 170.171 540.449 170.171 540.209 170.171 539.969 170.171 539.729 170.171 539.489 170.171 539.249 170.171 539.009 170.411 538.769 170.411 538.529 170.411 538.289 170.651 538.529 170.651 538.769 170.891 538.769 170.891 539.009 170.891 539.249 170.651 539.489 170.891 539.489 170.891 539.729 171.131 539.729 171.131 539.489 171.371 539.249 171.371 539.009 171.131 538.769 171.131 538.529 170.891 538.289 170.891 538.049 170.891 537.809 170.651 537.809 170.411 537.809 170.411 537.569 170.411 537.329 170.171 537.329 169.931 537.569 169.691 537.809 169.451 538.049 169.451 538.289 169.211 538.289 169.211 538.529 169.211 538.769 168.971 539.009 168.731 539.249 168.491 539.249 168.251 539.249 168.011 539.249 167.771 539.249 167.771 539.009 167.771 538.769 167.771 538.529 167.771 538.289 167.771 538.049 167.771 537.809 168.011 537.809 168.011 537.569 168.011 537.329 168.251 537.329 168.251 537.089 168.011 537.089 167.771 537.089 167.771 537.329 167.531 537.569 167.291 537.809 167.051 537.809 167.051 537.569 167.051 537.329 167.051 537.089 167.051 536.849 166.811 536.609 166.571 536.609 166.571 536.849 166.331 537.089 166.331 536.849 166.091 536.849 166.091 536.609 165.85 536.609 165.85 536.369 165.61 536.369 165.61 536.609 165.37 536.609 165.13 536.609 165.13 536.369 164.89 536.369 164.65 536.129 164.41 536.129 164.17 536.129 164.17 536.369 163.93 536.129 163.69 536.129 163.69 535.889 163.69 535.649 163.45 535.649 163.45 535.409 163.45 535.169 163.45 534.929 163.45 534.69 163.21 534.45 162.73 534.21 162.73 534.45 162.97 534.69 162.73 534.69 162.73 534.929 162.49 534.929 162.49 535.169 162.25 535.169 162.25 535.409 162.25 535.649 162.25 535.889 162.01 535.889 162.01 536.129 161.77 536.129 161.53 536.129 161.29 536.129 161.05 536.369 161.05 536.609 160.81 536.609 160.81 536.849 160.57 536.849 160.33 536.849 160.09 536.849 159.85 537.089 159.61 537.089 159.61 537.329 159.37 537.329 159.37 537.569 159.13 537.569 158.89 537.569 158.89 537.329 158.65 537.329 158.41 537.089 158.17 536.849 158.41 536.849 158.41 536.609 158.41 536.369 158.17 536.369 157.93 536.369 157.69 536.369 157.45 536.369 157.21 536.369 156.97 536.369 156.73 536.369 156.49 536.369 156.49 536.129 156.25 536.129 156.25 535.889 156.01 535.889 156.01 535.649 156.25 535.649 156.49 535.409 156.73 535.409 156.97 535.409 157.21 535.409 157.21 535.169 157.45 535.169 157.69 535.169 157.93 535.409 157.93 535.169 157.93 534.929 157.69 534.929 157.69 534.69 157.45 534.69 157.45 534.45 157.45 534.21 157.45 533.97 157.69 533.97 157.69 533.73 157.69 533.49 157.69 533.25 157.93 533.25 157.93 533.01 157.93 532.77 157.69 532.77 157.69 533.01 157.45 533.01 157.21 533.01 157.21 533.25 156.97 533.25 156.97 533.49 156.49 533.49 156.01 533.25 155.77 533.25 155.53 533.25 155.05 533.25 153.13 532.77 152.89 532.77 152.65 532.77 152.65 533.01 152.65 533.25 152.41 533.25 152.17 533.49 151.93 533.49 151.93 533.73 151.69 533.73 151.45 533.73 151.45 533.49 151.21 533.49 150.97 533.49 150.73 533.25 150.73 533.01 150.97 532.77 151.21 532.77 151.21 532.53 151.21 532.29 150.97 532.29 150.73 532.05 150.73 531.81 150.97 531.81 151.21 531.81 151.21 532.05 151.45 532.05 151.69 532.29 151.93 532.29 152.17 532.29 152.41 532.29 152.65 532.29 152.65 532.05 152.89 532.05 152.89 531.81 152.89 531.57 152.65 531.57 152.65 531.33 152.41 531.33 152.17 531.09 151.93 531.09 151.69 530.85 151.45 530.61 151.21 530.37 150.97 530.37 150.73 530.37 150.49 530.37 150.49 530.13 150.25 530.13 150.01 530.13 149.769 530.13 149.769 530.37 149.529 530.37 149.289 530.13 149.049 530.13 148.809 530.13 148.569 530.13 148.329 530.13 148.089 530.13 147.849 530.13 147.609 530.13 147.369 530.13 147.369 529.89 147.129 529.89 147.129 529.65 147.369 529.41 147.609 529.41 147.849 529.41 148.089 529.17 148.089 528.93 148.089 528.69 148.089 528.45 147.849 528.45 147.849 528.21 147.849 527.97 147.849 527.73 147.849 527.49 147.849 527.25 147.609 527.25 147.609 527.01 147.609 526.77 147.609 526.53 147.849 526.53 147.849 526.29 147.849 525.81 147.609 525.57 147.369 525.57 147.609 525.57 147.609 525.33 147.849 525.33 147.849 525.09 147.849 524.85 147.849 524.61 147.849 524.37 147.849 524.13 147.849 523.89 147.849 523.65 147.849 523.41 148.089 523.41 148.089 523.17 148.089 522.93 148.329 522.93 148.329 522.69 148.569 522.69 148.809 522.45 149.049 522.45 149.049 522.69 149.289 522.69 149.529 522.69 149.769 522.69 150.01 522.69 150.25 522.45 150.25 522.21 150.25 521.97 150.49 521.97 150.49 521.73 150.73 521.73 150.97 521.73 151.21 521.73 151.45 521.73 151.45 521.97 151.69 521.97 151.93 522.21 151.93 522.45 152.17 522.45 152.17 522.69 152.41 522.69 152.41 522.93 152.41 523.17 152.65 523.41 152.65 523.65 152.65 523.89 152.65 524.13 152.89 524.13 152.89 523.89 153.13 523.89 153.37 523.89 153.61 523.89 153.85 523.89 154.09 523.89 154.33 523.89 154.33 523.65 154.57 523.65 154.57 523.41 154.57 523.17 154.81 523.17 154.81 522.93 155.05 522.93 155.05 522.69 155.29 522.69 155.29 522.45 155.53 522.45 155.53 522.69 155.77 522.69 155.77 522.93 155.77 523.17 155.77 523.41 155.77 523.65 155.77 523.89 156.01 523.89 156.25 523.65 156.49 523.65 156.73 523.65 156.97 523.65 157.21 523.65 157.21 523.89 157.45 523.89 157.45 524.13 157.45 524.37 157.69 524.61 157.69 524.85 157.93 524.85 158.17 524.85 158.41 524.85 158.41 524.61 158.41 524.37 158.65 524.37 158.89 524.37 158.89 524.61 159.13 524.61 159.37 524.61 159.61 524.61 159.85 524.61 159.85 524.85 160.09 524.85 160.09 525.09 160.33 524.85 160.57 524.85 160.57 524.61 160.81 524.61"/>
</svg>
