<svg xmlns="http://www.w3.org/2000/svg" width="612" height="792" viewBox="0 0 612 792">
    <defs>
        <style>
            .cls-1{fill:#fff;}.cls-2{fill:none;stroke:#b2b2b2;stroke-linecap:round;stroke-linejoin:round;stroke-width:0.9601px;}
        </style>
    </defs>
    <g id="bounds">
        <path class="cls-1"
              d="M263.7769,479.0938a2,2,0,0,1-.6656-3.8868l7.97-2.8134.2568-.1534-.3447-.5175a9.7251,9.7251,0,0,0-.0957-2.7891v-.96a1.9989,1.9989,0,0,1,.3354-1.1084l.1934-.291a1.9988,1.9988,0,0,1,.3891-.81l.482-.6025-.0953-.0957a2,2,0,0,1-.541-.9951l-1.8618-.9307-1.3091-.3271-.4589.23a2.0041,2.0041,0,0,1-.8946.2109h-.48a1.9938,1.9938,0,0,1-.895-.2119l-.4189-.209a2.0108,2.0108,0,0,1-.3907.5537l-.0117.0117-.0957.1905a1.997,1.997,0,0,1-2.1806,1.0654l-1.2-.24a1.9687,1.9687,0,0,1-.5-.1709l-.4073-.2032-.7065-.2822-.3945.2959a2.0114,2.0114,0,0,1-.5669.2969l-.72.24a2.0173,2.0173,0,0,1-.6328.1026h-1.2a1.9743,1.9743,0,0,1-.2832-.02l-1.2124-.1729-.272.0908a1.9964,1.9964,0,0,1-1.5278-.1094l-.0937-.0459a2.0008,2.0008,0,0,1-1.5205-1.0878l-.24-.4795a1.9993,1.9993,0,0,1-.1733-.5078l-.1729-.1739a2.012,2.012,0,0,1-.374-.5185l-.24-.48a1.9989,1.9989,0,0,1-.1836-1.2227l.24-1.44a1.9955,1.9955,0,0,1,.1157-.415l.68-1.81a2.031,2.031,0,0,1,.1084-.2617l.0337-.0664a2.0026,2.0026,0,0,1-.2446-.959v-1.4395a1.9986,1.9986,0,0,1,.3359-1.1094l.4419-.6621,1.1421-2.0683v-.72a1.9957,1.9957,0,0,1,.0845-.5751l.72-2.4a2.002,2.002,0,0,1,.1269-.3194l.72-1.4394a1.9945,1.9945,0,0,1,.5888-.7061l.9185-.6885.874-.7285.019-.0381.0464-.0927a1.994,1.994,0,0,1,.1924-.6241l.24-.48a1.9444,1.9444,0,0,1,.19-.3076l.72-.96a2.0089,2.0089,0,0,1,.187-.2158l.24-.2393a1.9919,1.9919,0,0,1,.374-.2929l.3818-.9542a2.0421,2.0421,0,0,1,.1143-.2382,1.9864,1.9864,0,0,1,.0854-.3711l.1372-.4121v-.3955a2.0011,2.0011,0,0,1,.5865-1.4151l.3857-.3857.1841-.5518a2.0025,2.0025,0,0,1-.397-.8545l-.24-1.2a1.995,1.995,0,0,1-.0391-.3925v-.14a2.0006,2.0006,0,0,1-.48-1.3v-.96a1.9909,1.9909,0,0,1,.1431-.7421l.24-.6006-.4268-1.708-1.1646.3877a1.9856,1.9856,0,0,1-.6318.1025h-.96a2.0023,2.0023,0,0,1-1.5616-.75l-.96-1.1992a2.0563,2.0563,0,0,1-.2276-.3555l-.48-.96a2.0255,2.0255,0,0,1-.1733-.5087l-.8916-.8916a1.999,1.999,0,0,1-.3335-2.3868,2.0636,2.0636,0,0,1-.0112-.3056l-.5542-.1846a2.003,2.003,0,0,1-1.0054-.75l-1.68-2.3994a1.9974,1.9974,0,0,1-.3017-.6621l-.1656-.66-1.7578-2.8574a1.99,1.99,0,0,1-.2382-1.5273,1.9284,1.9284,0,0,1-.043-.2325l-.1348-1.0771-.2807-.21a7.77,7.77,0,0,0-1.6578-2.6474l-.24-.7207a2.0028,2.0028,0,0,1-.061-1.0372l-.31-.6191a2.0028,2.0028,0,0,1-.1269-1.4707l.3344-1.1152a1.9975,1.9975,0,0,1-.8989-1.67v-.1708l-.8423-.6006a2,2,0,0,1-.7236-.9619l-1.8486-1.2325-1.023.1455a1.9781,1.9781,0,0,1-.9145-.082l-.72-.2393a2.0444,2.0444,0,0,1-.3974-.1826l-.6079-.3652-.6743.0845-.76.6069a1.988,1.988,0,0,1-1.4829.4248l-3.6367-.4277-.5694.1894-.6264.626a1.9936,1.9936,0,0,1-.9287.5264l-.96.24c-.042.0107-.085.0195-.1279.0273l-1.7544.3184a1.99,1.99,0,0,1-1.2432.4336h-.48a1.9935,1.9935,0,0,1-.895-.2119l-.0933-.0459a2,2,0,0,1,.2681-3.9824h.24c-.04-.03-.0787-.0616-.1163-.0943l-1.92-1.68a2,2,0,0,1,2.6338-3.0108l1.4112,1.2349,2.5571.17,2.7676-.8516a2.0223,2.0223,0,0,1,.7807-.0791l7.1455.6919.91-.1821a1.9991,1.9991,0,0,1,2.02.7983l.9463,1.2935a1.93,1.93,0,0,1,.2158.125l2.88,1.92a2.0015,2.0015,0,0,1,.7925,1.0449l.94.6709a10.388,10.388,0,0,0,1.3472,1.9336l.48.96a2.0026,2.0026,0,0,1,.1264,1.47l-.4922,1.64.6055,1.2089a9.1383,9.1383,0,0,0,.9312,2.0957v.2l.16.1192a2.0016,2.0016,0,0,1,.7847,1.3525l.127,1.0127a2,2,0,0,1,.6787,2.4434l1.0732,1.7441a1.9821,1.9821,0,0,1,.2368.5625l.1509.6006,1.0889,1.5557.8134.2714a2.035,2.035,0,0,1,.4756.2325l.72.4795a2,2,0,0,1,.8526,2.0576l-.1055.5273.1734.3457a2.0047,2.0047,0,0,1,.207,1.0215l.1382.1387a2,2,0,0,1,.5859,1.414v.0088l.1738.3477.1587.1982,1.5943-.5322a2.02,2.02,0,0,1,.6333-.1025h.48a2.0015,2.0015,0,0,1,1.6.8l.774.9863a1.9973,1.9973,0,0,1,.5263.9287l.72,2.88a2.0014,2.0014,0,0,1-.0835,1.2275l-.3062.7666.2388.4785a2.0025,2.0025,0,0,1,.21.8926v.5215L264.47,432a1.9992,1.9992,0,0,1,.5864,1.415v.96a1.995,1.995,0,0,1-.1025.6318l-.48,1.44a1.9978,1.9978,0,0,1-.4839.7832l-.1367.1367a2,2,0,0,1-.1.5195l-.1372.5684a1.9989,1.9989,0,0,1-.5347,1.3613l-.3286.8213q-.0308.0762-.0674.1494l-.24.4805a1.9958,1.9958,0,0,1-.3755.5215l-.24.24a1.9828,1.9828,0,0,1-.5772.4023l-.2988.3985a1.9846,1.9846,0,0,1-.19.6006l-.0463.0927a2.0018,2.0018,0,0,1-.7012,1.2676l-1.44,1.2c-.0268.0225-.0537.044-.081.0645l-.582.4365-.4322.8623-.5859,1.9541v.9053a2.0021,2.0021,0,0,1-.2109.8945l-.48.96c-.0166.0332-.0342.0654-.0523.0976l-.96,1.6807c-.023.04-.0474.0791-.0728.1172l-.144.23a2.0008,2.0008,0,0,1,.48,1.3v.4795a2.0013,2.0013,0,0,1-.211.8946l-.4165.833-.1953.5859c-.0127.0371-.0259.0742-.04.11l-.3994.998-.07.418.0274.0273a1.9938,1.9938,0,0,1,.373.5176l.0484.0967a2.0143,2.0143,0,0,1,.3672.0185l1.539.22.8374-.0352.7007-.5254a2.0044,2.0044,0,0,1,1.2-.3994h.96a1.9965,1.9965,0,0,1,.7431.1436l.9986.3994c.021-.0537.0444-.1055.07-.1573l.24-.48a2,2,0,0,1,1.7891-1.1054h1.2a2.0047,2.0047,0,0,1,.8921.21l.6792.3389a2.004,2.004,0,0,1,1.0688-.31h.72a2.03,2.03,0,0,1,.4854.06l1.92.48a1.9659,1.9659,0,0,1,.4087.1513l2.4,1.1993a2.0011,2.0011,0,0,1,.3066.1894l.96.7207a81.5739,81.5739,0,0,0,1.459,2.3135l.24.96a2,2,0,0,1-.1509,1.38l-.24.4805a1.9993,1.9993,0,0,1-.9014.8975l-.1684.2109a2.01,2.01,0,0,1-.2544.5449l-.0469.0713a2.0038,2.0038,0,0,1,.1421.74v.7207a2.0019,2.0019,0,0,1-.1133.664l.2574.3858a1.9986,1.9986,0,0,1,.2333,1.7412l-.48,1.44a2,2,0,0,1-.8687,1.083l-1.2.72a1.9321,1.9321,0,0,1-.3633.1709l-8.16,2.88A1.9879,1.9879,0,0,1,263.7769,479.0938Zm-40.3228-82.3965h0Z"/>
    </g>
    <g id="Rhine_River" data-name="Rhine River">
        <path class="cls-2"
              d="M240.2552,394.5375l.48.24,2.88,1.92v.48l1.68,1.2v1.2h.72l.48.96-.72,2.4.96,1.92h-.48l.24.72.96.48v1.2l.96.72.24,1.92.72.48-.72.48,1.92,3.12.24.96,1.68,2.4,1.44.48.72.48-.24,1.2.48.96-.72.24,1.44,1.44v.48l.48.96.96,1.2h.96l1.44-.48.72-.24h.48l.72.96.24.24.72,2.88-.48,1.2v.96l.24.24.24.48v.72l.24,1.2.48.48v.96l-.48,1.44-.72.72v.72l-.24.72v.48l-.24.24-.48,1.2-.24.48-.24.24h-.24l-.24.24-.72.96-.24.48v.24l-.24.48v.24l-1.44,1.2-.96.72-.72,1.44-.72,2.4v1.2l-.48.96-.96,1.68-.48.72v1.44l.48.48v.48l-.48.96-.24.72-.48,1.2-.24,1.44.24.48.48.48.24.48v.24l.24.48h.24l.48.24.72-.24,1.68.24h1.2l.72-.24.96-.72h.96l1.2.48.48.24,1.2.24.24-.48.24-.24.24-.72v-.24l.24-.48h1.2l.48.24.96.48h.48l.48-.24.24-.24h.72l1.92.48,2.4,1.2.96.72-.24.48.48.48.48.24.24.96-.24.48h-.24l-.96,1.2v.24l-.48.72v.96l.24.24v.72l-.48.72.96,1.44-.48,1.44-1.2.72-8.1605,2.88M221.774,391.4177l1.92,1.68,3.6.24,3.12-.96,7.44.72,1.2-.24,1.2,1.68-1.68.24-.72-.24-1.2-.72-1.92.24-1.2.96-4.08-.48-1.44.48-.48.48-.24.24-.24.24-.96.24-2.64.48v.24h-.48l-.48-.24h-.24"/>
    </g>
</svg>
