<svg id="Romania" xmlns="http://www.w3.org/2000/svg" width="612" height="792" viewBox="0 0 612 792">
    <defs>
        <style>.cls-1{fill:#fff;fill-rule:evenodd;}</style>
    </defs>
    <polygon class="cls-1"
             points="440.908 507.091 440.668 507.091 440.428 507.091 440.188 507.331 439.708 507.571 439.468 507.571 438.988 507.571 438.508 507.571 437.788 507.331 436.828 507.091 434.428 506.851 432.747 507.091 432.507 507.091 432.027 507.091 431.547 506.851 431.307 506.851 430.587 506.611 430.347 506.611 428.667 507.091 428.427 507.091 428.187 507.331 427.947 507.571 427.467 507.811 427.227 508.051 426.507 508.291 425.307 508.291 424.347 508.051 424.107 508.051 423.867 507.811 423.627 507.331 423.867 505.651 424.107 505.411 424.587 505.171 425.067 505.171 425.307 504.451 425.307 503.971 425.067 503.731 424.827 503.731 424.347 503.731 423.867 503.731 420.987 502.531 420.987 501.571 420.507 501.571 420.267 501.571 420.027 501.331 419.547 501.331 419.067 501.091 418.827 500.851 417.866 499.172 417.866 498.932 419.067 497.732 419.307 497.492 419.547 497.492 420.027 497.732 420.267 497.732 420.747 497.492 420.987 497.252 420.267 496.532 419.787 496.292 419.547 496.532 419.067 496.532 418.587 496.292 418.346 496.052 417.866 495.812 417.626 495.572 417.146 495.332 416.906 495.332 415.706 496.532 415.466 496.772 415.466 497.492 415.226 497.732 414.746 499.411 414.266 499.651 413.786 499.411 412.826 498.452 412.826 497.972 412.346 497.492 411.146 497.252 409.946 497.492 409.226 497.492 408.266 497.732 408.026 497.492 407.786 497.012 407.546 496.292 407.066 496.052 406.826 496.052 406.106 496.052 405.866 496.292 405.386 496.292 404.666 495.572 404.666 494.852 405.146 494.852 405.626 494.612 405.866 494.612 406.106 494.612 406.826 494.132 406.586 493.892 406.346 493.652 405.626 493.412 405.386 493.412 405.146 493.412 404.906 493.172 404.426 492.692 405.146 491.972 405.626 490.532 405.146 489.812 404.426 489.572 403.706 489.572 402.746 489.572 400.105 488.612 399.385 488.132 397.225 486.452 396.985 485.972 396.265 484.532 396.505 484.052 396.505 483.812 396.505 482.133 396.025 481.893 395.785 482.372 395.545 482.372 394.825 481.653 394.585 481.173 393.625 480.213 393.385 480.213 392.905 480.213 391.225 479.253 390.985 478.773 390.505 478.053 389.785 477.573 389.785 477.093 390.505 476.613 391.945 476.133 392.665 476.133 392.905 476.133 393.145 476.373 393.625 476.613 394.345 476.373 394.585 475.893 394.585 475.653 394.825 474.693 395.065 474.453 395.065 474.213 395.545 473.973 395.785 473.973 397.225 474.213 397.945 474.213 398.185 473.973 399.145 473.253 399.145 472.773 399.145 472.053 399.145 471.573 399.385 471.333 399.865 470.373 399.865 469.413 399.865 468.453 399.865 467.973 401.065 466.773 401.545 466.533 401.785 465.813 401.305 465.573 401.545 464.374 402.265 463.414 402.746 461.974 402.986 461.254 402.505 461.254 402.505 461.014 402.986 460.054 403.226 459.814 403.466 459.574 403.946 458.134 403.946 457.654 403.946 456.454 404.426 455.494 404.906 455.254 405.146 455.014 405.386 454.774 405.146 454.294 405.146 453.814 404.906 453.574 404.906 453.094 405.146 452.614 405.866 451.654 406.346 451.414 406.586 451.414 406.586 451.174 406.586 450.934 406.826 449.974 407.066 449.254 407.546 448.774 408.746 447.814 408.986 447.814 409.226 447.814 409.946 448.054 410.426 448.054 410.666 447.814 410.906 447.814 412.106 446.375 412.826 444.455 413.306 444.455 414.266 443.735 414.746 443.255 414.746 443.015 414.746 442.535 414.986 442.055 415.226 441.815 415.466 441.575 416.186 441.815 416.426 442.055 416.906 442.295 417.386 442.535 418.106 442.775 419.067 443.015 419.307 442.775 419.787 442.535 422.427 442.535 423.867 442.295 424.587 442.295 425.307 442.535 425.787 442.775 426.987 442.775 427.707 442.055 428.667 441.575 428.907 441.335 430.107 441.335 430.347 441.335 430.587 441.335 431.307 441.815 431.547 442.295 431.787 442.535 432.027 442.775 432.747 442.775 432.987 442.775 433.227 443.015 433.707 443.495 434.187 444.215 434.668 444.215 434.908 443.975 435.388 443.735 435.628 443.735 435.868 443.495 436.108 443.255 436.348 443.015 436.588 442.535 436.828 441.815 437.068 441.095 437.308 440.855 438.028 440.135 439.708 439.415 439.948 439.415 440.428 439.415 440.668 439.415 441.388 439.175 442.588 438.935 443.068 438.455 443.068 438.215 444.028 437.975 444.988 437.495 445.708 437.495 445.948 437.255 446.428 437.255 446.668 436.775 447.148 435.575 447.388 433.895 448.588 432.935 449.068 432.935 449.308 432.935 449.788 432.695 450.269 431.975 450.989 431.735 452.189 431.735 453.629 432.215 454.349 432.695 456.509 434.855 457.229 436.055 457.709 436.775 458.189 437.735 458.909 438.935 459.149 439.415 459.629 439.655 459.869 439.895 460.829 440.375 461.549 441.575 463.229 443.255 463.949 443.975 464.429 443.975 464.909 443.975 465.149 444.215 465.87 445.175 466.35 445.895 467.07 446.375 468.27 447.094 468.75 447.094 469.23 447.334 469.71 447.574 470.43 448.534 470.67 449.014 470.67 449.494 470.67 449.734 471.63 451.174 472.11 451.654 472.59 451.894 473.07 452.854 473.79 455.494 473.55 457.174 473.55 459.574 473.55 461.014 473.55 461.254 473.79 462.694 474.03 462.934 474.27 463.654 475.71 466.533 475.95 467.253 475.95 467.973 475.71 468.213 475.23 468.933 476.67 470.373 477.15 470.613 477.39 470.373 478.11 470.613 478.11 471.093 478.59 471.573 478.83 471.813 479.07 472.293 479.55 472.293 481.951 472.533 483.391 472.533 484.351 472.053 484.591 470.853 485.791 470.373 487.951 467.973 489.151 467.493 490.111 467.253 491.311 467.493 492.031 467.493 492.271 467.733 492.751 467.973 492.991 468.213 493.471 468.693 493.471 468.933 493.711 469.893 493.231 469.893 493.711 470.613 493.951 471.333 494.431 473.493 494.671 475.653 494.191 476.133 492.991 476.613 492.511 476.853 492.031 477.093 491.071 477.573 490.591 477.573 488.911 477.573 488.671 477.333 488.191 476.133 488.431 475.653 488.671 475.413 487.951 474.933 487.231 475.173 486.511 475.893 486.271 476.373 486.511 477.333 486.751 477.573 487.711 477.813 487.471 478.773 487.471 479.013 486.991 479.253 486.511 479.973 486.271 480.453 486.511 480.933 486.751 481.173 487.231 480.933 487.711 480.213 487.711 479.973 487.711 479.733 487.951 479.733 488.191 479.733 488.671 479.973 488.671 480.693 488.431 480.933 488.431 480.213 488.191 479.973 486.991 481.413 486.751 481.173 486.511 481.413 486.751 483.092 487.231 482.852 488.191 481.173 488.191 481.653 487.951 482.612 487.951 483.092 487.711 483.572 487.471 483.812 486.991 484.532 486.271 486.212 486.271 486.932 486.271 487.172 486.991 488.852 487.951 491.732 487.951 491.972 487.711 493.172 487.711 493.892 487.711 494.612 487.951 495.092 487.951 495.332 486.991 495.572 486.031 495.812 484.351 496.052 484.111 496.052 483.391 495.812 482.911 495.812 481.711 495.572 480.99 495.332 480.27 494.132 480.03 493.652 479.79 493.412 479.07 493.892 478.83 494.132 478.59 494.132 477.87 494.372 477.63 494.372 477.39 494.132 476.91 493.652 476.67 493.412 476.43 493.652 474.75 494.372 474.03 494.372 472.59 493.892 472.35 493.652 472.11 493.172 471.87 493.412 471.63 493.412 471.15 493.412 470.91 493.412 470.19 493.412 469.47 493.652 468.03 494.132 467.79 494.132 467.31 494.612 466.83 494.852 465.629 495.572 463.709 496.532 463.229 496.772 462.989 496.772 462.509 496.772 461.789 497.252 460.109 498.452 459.869 498.692 459.629 498.932 458.429 500.851 457.949 502.051 457.229 503.491 456.989 503.491 456.509 503.731 456.029 503.971 455.309 504.691 454.589 505.171 453.869 505.411 453.389 505.651 452.909 505.891 452.429 505.651 451.949 505.411 451.469 505.171 450.989 505.171 448.588 505.411 446.908 505.651 445.948 505.891 445.228 505.891 444.748 505.891 443.788 505.651 443.308 505.651 442.828 505.651 442.588 505.651 442.108 506.131 442.108 506.371 441.628 506.611 441.148 507.091 440.908 507.091"/>
</svg>
