<svg id="Sardinia" xmlns="http://www.w3.org/2000/svg" width="612" height="792" viewBox="0 0 612 792">
    <defs>
        <style>.cls-1{fill:#fff;fill-rule:evenodd;}</style>
    </defs>
    <path class="cls-1"
          d="M258.0163,593.9661l.72-.72.24-.24-.24-.96h-.24l-.24-.48.24-1.2.24-.72.48-2.16v-1.92l.72.48.24-.48.24-.48.24-.48v-.96l-.48-.48h-.72l-.24.24-.48-.24v-.72l.24-.96.72-2.16v-2.88l-1.2-2.64-.72-1.44-1.2-.48-.48.24-.24-.48.48-.24v-.96l-.24-.24v-.48l.48-2.64.48-.48v.48l.72.96h.24l.48.24,1.2.24h1.2l.24-.24h.48l.24-.48v-.24l.96-.48h.96l.24-.24.48-.48.24-.48,1.68-1.92.48-.24,1.44-.96v-.72l.96-.24,3.12,1.92.72.24.72,2.16-1.44.96.72.24.48-.24.72,1.2.96,2.88v1.2l.72.96.24.24-.24.72v.48l-.48.96-.48.24-.24.24-.72.72-.24.48v1.44l.24.72.48.72.24.96-.24,1.68-.24,1.92v1.2l-.24,2.88-.24.96v.96l-.48,1.68-.48,1.68v1.2l-.48.48-.96-.24-.48-.24-.24-.24-.24-.24-.24-.24-.24-.24-.48-.24-1.68.48-1.68-1.2v2.88l.24.72-.48.72-1.2,1.44-.72.24-1.68-.72-.96.48-.24-.24-.72-1.68v-.48l-.72-.24-.24.48-.48.48v.48l-.48.24-.48-1.2-.24-.72.24-.48h.72l.48.24v-.48l-.24-.72-.48-.48Z"/>
</svg>
