<svg id="Serbia" xmlns="http://www.w3.org/2000/svg" width="612" height="792" viewBox="0 0 612 792">
    <defs>
        <style>.cls-1{fill:#fff;fill-rule:evenodd;}</style>
    </defs>
    <polygon class="cls-1"
             points="395.545 533.01 395.545 531.57 395.305 531.33 395.065 531.33 394.585 531.33 394.105 530.85 394.105 530.61 394.345 530.13 394.585 529.89 395.065 529.65 395.305 529.65 396.985 529.65 398.425 528.21 397.945 527.49 397.225 527.01 396.745 526.77 395.785 526.53 395.545 526.53 394.345 526.05 394.105 525.57 393.145 524.85 392.665 524.85 390.985 524.37 389.785 524.13 389.545 524.13 389.305 523.89 388.345 523.17 388.105 522.69 387.385 521.97 386.664 521.25 384.504 520.29 384.264 520.29 383.784 519.57 384.504 518.85 385.704 518.13 386.664 518.13 386.664 517.89 386.664 516.451 386.664 515.971 386.424 515.491 386.184 515.251 386.184 515.011 385.704 514.771 384.744 513.811 383.064 512.371 382.824 511.651 383.784 511.891 384.504 512.131 385.224 512.131 385.704 512.131 386.184 512.131 387.145 510.931 387.145 510.451 386.905 510.451 385.464 509.731 383.784 508.531 382.344 507.811 381.384 507.571 381.144 507.091 380.664 506.611 380.664 506.131 380.664 503.971 381.384 503.251 382.344 500.851 382.584 500.131 382.584 499.651 382.824 498.212 382.584 497.732 381.864 497.492 380.424 497.492 379.944 497.972 378.984 498.692 378.744 498.452 378.504 497.972 378.984 497.732 379.464 496.052 379.224 495.092 379.704 493.172 379.944 492.932 380.184 493.172 380.664 493.412 381.864 493.412 382.584 493.172 382.584 492.692 382.344 492.452 382.104 492.452 381.624 492.452 381.384 492.452 380.904 492.452 380.664 492.452 379.944 492.212 379.224 491.972 378.984 491.732 377.304 490.772 377.304 489.092 377.544 488.852 378.024 488.852 378.264 488.852 378.264 488.372 377.304 487.892 376.824 488.372 376.584 488.372 376.344 488.132 376.104 487.892 376.104 487.172 376.344 486.932 376.584 486.452 376.344 484.532 375.864 484.052 375.384 483.812 374.664 483.332 374.424 482.612 374.664 482.612 374.904 482.612 376.344 481.653 377.304 480.693 377.784 480.693 378.024 480.933 379.464 480.933 381.144 479.253 381.624 478.533 381.624 478.293 382.104 477.573 383.064 477.333 383.544 477.333 384.024 477.573 385.224 477.573 386.424 477.093 388.105 476.853 389.065 477.093 389.785 477.333 389.785 477.573 390.505 478.053 390.985 478.773 391.225 479.253 392.905 480.213 393.385 480.213 393.625 480.213 394.585 481.173 394.825 481.653 395.545 482.372 395.785 482.372 396.025 481.893 396.505 482.133 396.505 483.812 396.505 484.052 396.265 484.532 396.985 485.972 397.225 486.452 399.385 488.132 400.105 488.612 402.746 489.572 403.706 489.572 404.426 489.572 405.146 489.812 405.626 490.532 405.146 491.972 404.426 492.692 404.906 493.172 405.146 493.412 405.386 493.412 405.626 493.412 406.346 493.652 406.586 493.892 406.826 494.132 406.106 494.612 405.866 494.612 405.626 494.612 405.146 494.852 404.666 494.852 404.666 495.572 405.386 496.292 405.866 496.292 406.106 496.052 406.826 496.052 407.066 496.052 407.546 496.292 407.786 497.012 408.026 497.492 408.266 497.732 409.226 497.492 409.946 497.492 411.146 497.252 412.346 497.492 412.826 497.972 412.826 498.452 413.786 499.411 414.266 499.651 414.746 499.411 415.226 497.732 415.466 497.492 415.466 496.772 415.706 496.532 416.906 495.332 417.146 495.332 417.626 495.572 417.866 495.812 418.346 496.052 418.587 496.292 419.067 496.532 419.547 496.532 419.787 496.292 420.267 496.532 420.987 497.252 420.747 497.492 420.267 497.732 420.027 497.732 419.547 497.492 419.307 497.492 419.067 497.732 417.866 498.932 417.866 499.172 418.827 500.851 419.067 501.091 419.547 501.331 420.027 501.331 420.267 501.571 420.507 501.571 420.987 501.571 420.987 502.531 420.747 502.771 420.507 503.491 420.507 504.211 419.787 505.171 418.587 506.371 418.587 509.251 419.307 510.931 421.467 514.291 422.427 514.771 423.147 515.011 423.627 515.251 424.107 515.251 425.067 515.971 425.307 516.691 426.267 517.41 426.747 517.65 427.467 517.89 427.467 518.61 427.227 519.33 425.307 522.93 424.347 523.41 423.867 523.17 423.627 523.17 422.907 523.65 422.187 524.61 422.667 528.21 423.147 528.69 423.867 528.93 424.107 529.17 424.347 529.65 424.347 530.61 424.107 531.09 423.627 531.81 423.147 532.29 422.667 532.53 421.947 532.05 420.747 532.77 420.747 533.01 419.307 533.49 418.587 533.25 416.666 533.49 416.186 533.97 415.946 534.69 415.466 535.169 415.226 535.169 414.986 535.169 414.026 535.169 412.346 535.169 411.146 536.609 410.666 537.329 409.706 537.569 408.746 536.849 408.266 536.849 406.346 538.529 404.906 539.249 404.666 539.969 404.906 540.929 405.146 541.649 404.906 542.849 404.426 543.089 403.466 543.089 402.986 542.849 402.986 542.129 402.986 541.889 403.226 541.649 402.746 540.209 401.545 537.809 401.305 537.569 400.585 536.849 399.625 536.609 399.385 536.369 398.185 536.369 397.945 535.889 397.465 534.929 396.745 533.73 395.785 533.49 395.545 533.01"/>
</svg>
