<svg id="Sicily" xmlns="http://www.w3.org/2000/svg" width="612" height="792" viewBox="0 0 612 792">
    <defs>
        <style>.cls-1{fill:#fff;fill-rule:evenodd;}</style>
    </defs>
    <polygon class="cls-1"
             points="344.182 633.084 343.702 632.604 343.462 632.364 341.782 632.124 341.302 632.124 340.822 632.364 340.342 632.604 339.622 632.364 337.221 631.404 336.021 630.684 335.781 629.964 335.301 629.484 335.061 629.004 334.821 628.524 334.341 628.284 333.381 627.564 333.141 627.084 331.701 626.604 331.221 626.604 329.781 626.604 329.301 626.844 329.061 626.844 328.341 626.844 326.421 626.124 325.461 625.404 325.221 625.164 324.021 624.204 323.781 624.204 323.3 624.204 322.1 623.484 321.14 623.004 320.18 622.524 319.94 622.045 319.46 621.565 318.74 621.085 317.78 621.085 316.58 620.365 316.1 620.125 315.62 619.885 313.94 619.885 313.46 619.885 313.22 620.125 312.5 620.365 312.26 620.125 310.34 618.685 309.86 617.965 309.38 616.285 309.62 616.045 309.86 615.325 309.62 614.605 310.1 612.925 310.82 612.205 312.98 610.765 314.18 611.965 314.9 612.685 315.38 612.685 315.86 612.445 316.58 611.965 317.3 611.485 317.06 610.765 317.54 610.045 320.18 609.325 320.66 609.805 320.9 610.285 320.9 610.765 321.14 611.005 325.461 612.925 325.941 612.925 326.421 612.925 326.901 612.925 327.621 612.445 327.861 612.205 328.341 611.965 329.061 611.725 330.741 611.965 332.181 611.965 332.901 611.965 333.621 611.725 335.541 611.245 336.981 610.525 338.901 609.325 339.862 608.845 341.062 609.085 342.742 609.565 343.462 609.085 345.142 607.885 347.782 606.445 348.262 606.205 349.462 606.685 348.982 606.925 348.742 607.165 348.502 607.645 348.262 608.845 348.022 609.805 347.062 611.245 346.342 612.205 344.902 614.845 344.662 615.085 344.662 616.045 344.662 617.005 344.422 618.445 344.182 618.685 343.702 619.165 343.462 619.645 343.462 620.125 343.702 621.805 344.902 624.444 345.142 624.924 345.622 625.404 346.102 625.644 346.582 625.644 346.822 626.604 346.822 627.084 346.102 627.564 345.622 628.044 345.142 628.524 344.902 628.764 344.422 629.964 344.182 630.924 344.662 631.644 344.902 632.604 344.422 633.084 344.182 633.084"/>
</svg>
