<svg id="Slovakia" xmlns="http://www.w3.org/2000/svg" width="612" height="792" viewBox="0 0 612 792">
    <defs>
        <style>.cls-1{fill:#fff;fill-rule:evenodd;}</style>
    </defs>
    <polygon class="cls-1"
             points="372.264 449.014 372.024 449.254 371.303 449.254 370.823 449.494 370.583 449.734 370.103 450.934 370.103 451.654 370.343 452.374 370.823 452.614 371.303 452.854 371.303 453.094 370.583 453.094 370.343 453.334 370.103 453.574 369.623 454.054 369.383 454.294 369.143 454.294 368.663 454.294 368.183 454.294 367.223 454.294 366.743 454.534 366.503 454.774 366.023 455.014 365.783 455.014 364.583 455.014 363.863 455.014 363.383 455.014 362.183 455.014 361.463 455.254 360.263 455.494 359.303 455.254 356.903 453.814 356.663 453.574 356.423 453.334 355.943 452.854 355.223 452.134 354.742 452.134 354.262 451.894 354.262 451.654 354.022 451.654 353.542 451.894 353.302 451.894 352.822 451.654 352.342 450.934 352.102 450.214 351.622 449.974 351.382 449.734 351.142 449.494 350.662 448.534 350.662 448.054 350.422 448.054 349.462 446.855 349.462 445.655 349.462 445.175 349.942 444.695 350.182 444.215 350.182 443.495 350.182 442.775 350.422 441.815 350.662 440.855 350.902 440.375 351.382 439.415 352.102 438.695 352.822 438.695 353.782 438.935 354.262 439.175 354.502 439.175 355.463 438.935 356.903 438.455 357.143 438.455 357.623 438.215 358.103 437.975 358.823 437.015 359.303 436.055 360.983 435.095 361.463 434.375 361.703 433.655 361.463 433.415 361.703 432.935 361.703 432.215 361.703 431.735 361.943 431.015 362.663 430.775 362.903 430.775 363.623 430.055 365.063 427.896 365.063 427.416 366.023 427.176 367.463 426.936 367.943 426.696 369.143 427.176 369.383 427.656 369.383 428.376 370.103 428.376 371.303 428.136 371.544 427.896 371.544 427.416 372.024 426.456 372.264 425.976 373.704 424.776 374.184 424.776 374.664 425.016 374.904 425.496 375.384 426.696 376.344 427.416 376.824 427.416 377.544 427.176 378.024 427.896 378.264 429.096 378.024 429.576 377.784 429.815 377.784 430.295 378.024 430.535 378.744 430.535 378.984 430.295 379.224 429.815 379.464 429.815 379.944 429.815 380.184 429.815 380.424 430.055 380.664 430.295 380.904 430.295 381.144 429.815 381.144 429.336 381.384 428.136 382.104 427.656 383.064 426.936 383.544 426.696 385.944 426.216 387.385 426.216 388.105 426.936 389.305 427.176 389.545 427.176 389.785 426.936 390.265 426.216 390.265 425.256 390.505 425.016 392.665 424.296 393.865 424.536 394.105 424.536 394.345 424.536 394.825 424.296 395.065 424.296 396.025 424.056 398.425 424.536 399.625 425.016 400.345 425.736 400.585 426.216 400.585 426.696 402.746 427.416 403.946 427.416 404.186 427.416 406.106 427.896 406.346 427.896 406.346 428.616 406.346 429.336 405.866 430.055 405.626 431.015 405.386 432.455 405.146 434.375 404.426 435.335 403.706 436.055 403.706 436.295 403.946 438.935 403.466 439.415 403.226 439.415 402.746 439.415 402.265 439.655 401.785 439.655 401.065 440.135 400.825 440.375 400.345 440.615 399.865 440.375 398.425 438.935 398.425 438.455 396.985 437.735 396.265 437.495 395.065 438.215 394.585 438.695 393.625 438.935 392.905 439.175 391.465 439.175 390.505 438.935 390.265 438.695 390.025 438.455 388.825 438.695 388.345 438.935 387.145 439.655 386.905 440.135 386.905 440.375 386.424 441.095 386.424 441.335 386.184 441.815 386.184 442.535 385.944 443.495 385.704 443.735 385.464 443.975 385.224 444.215 384.744 443.975 383.784 444.935 383.304 445.415 383.064 445.895 382.584 445.895 382.104 446.375 381.864 446.615 381.624 446.855 380.184 445.895 379.944 445.895 378.744 445.655 378.504 445.655 377.544 446.135 377.304 446.615 377.304 447.334 377.064 448.054 374.424 448.774 373.704 449.014 372.744 449.014 372.264 449.014"/>
</svg>
