<svg id="Slovenia" xmlns="http://www.w3.org/2000/svg" width="612" height="792" viewBox="0 0 612 792">
    <defs>
        <style>.cls-1{fill:#fff;fill-rule:evenodd;}</style>
    </defs>
    <polygon class="cls-1"
             points="336.741 490.772 336.501 491.492 336.741 492.212 336.501 493.412 335.541 494.132 335.301 494.132 334.581 493.412 333.141 493.172 332.421 493.412 331.941 493.652 331.461 493.892 330.261 492.932 329.061 491.732 329.061 491.252 329.061 490.772 328.581 490.772 328.101 491.732 327.861 492.932 326.901 493.652 326.661 493.892 324.021 494.132 322.34 494.372 321.86 494.612 321.38 494.612 319.22 494.852 318.98 494.852 318.5 494.852 318.02 494.372 317.78 493.892 318.74 493.412 319.7 493.172 319.22 492.452 320.18 492.692 320.42 492.692 320.9 492.452 321.38 491.732 320.42 490.532 319.94 490.052 318.98 489.572 317.78 489.332 317.54 488.612 317.54 487.892 317.78 487.652 318.02 486.932 318.02 486.452 317.54 486.452 317.3 486.452 317.06 486.692 316.58 486.452 316.34 486.212 316.82 485.252 316.82 485.012 317.06 484.772 317.54 484.532 318.02 483.812 318.26 483.572 316.82 482.852 316.34 482.612 315.86 482.852 315.62 483.092 315.14 481.653 315.62 480.933 316.34 480.213 318.02 479.253 318.26 479.013 318.5 478.533 318.5 478.053 319.22 478.053 319.94 478.053 320.9 478.053 322.34 478.293 322.82 478.533 323.06 478.773 323.3 479.013 326.901 479.253 327.621 479.253 330.261 477.573 330.501 477.093 330.501 476.613 330.741 475.893 332.661 475.173 332.901 475.173 333.381 474.933 333.621 474.933 336.501 474.933 338.661 474.213 340.822 473.493 341.062 473.253 341.302 473.253 342.742 472.773 342.502 471.573 342.742 471.333 343.942 470.853 344.182 470.853 344.662 470.853 345.142 470.613 345.622 470.613 345.862 470.613 346.342 471.093 346.342 471.573 346.102 471.813 346.342 472.293 346.582 473.013 346.822 472.773 347.062 473.253 347.302 473.733 348.742 476.133 349.702 476.373 349.462 476.613 349.222 476.613 348.742 476.373 348.502 476.133 348.022 475.893 347.302 475.653 346.582 475.893 346.342 475.893 345.862 476.133 345.862 476.613 346.102 477.813 344.662 478.053 344.182 478.533 344.182 478.773 344.182 479.253 343.462 479.733 341.302 480.933 340.102 481.173 339.862 481.413 339.382 482.133 339.141 482.612 339.382 483.092 339.622 483.572 340.102 483.812 340.582 483.812 340.822 485.732 340.582 487.172 340.102 487.652 339.862 487.412 339.622 487.172 338.421 487.412 336.741 488.612 336.501 488.852 336.501 489.332 336.261 489.812 337.221 489.572 337.221 490.532 336.741 490.772"/>
</svg>
