<svg id="Spain" xmlns="http://www.w3.org/2000/svg" width="612" height="792" viewBox="0 0 612 792">
    <defs>
        <style>.cls-1{fill:#fff;fill-rule:evenodd;}</style>
    </defs>
    <path class="cls-1"
          d="M76.8049,497.2516l-.24.72h.72l.96-.24.48.24,1.68.48.48.48.96.96.24.72.24.72.48.48.48.24,1.68.72-.24.72.48-.72.24-.24h.72l1.92.48,1.92.72,1.2.24,1.68.48.48-.24,2.16.72h1.92l.72-.48.48-.24.72.72.24.48v.24l.72.72h1.44l.96.24.72.24,1.2.72.24.24.24.24.24.48,1.68.48.72.24.96.48,1.44.48.24.24.96.48h.48l.96.48.24-.24.72.24.48.24.72.24h2.4l.72-.24,1.44-.24h1.68l.24.48,2.16-.24h.48l.96.96,1.2.96.96.48.72.96,1.68.24.24-.48.96-.72.72.24.48.24.96.24,1.68.96.72.24.24.24.24.48,1.2.72.48.24,1.44.24h.48l1.92-.24,1.68-.48h.48v.72l.48.72h.96l1.44.72,1.2.24.24.48-.24.72-.48,1.2-.72.48.24.72.48.24h.48l.72-.48.96.72,1.44.72.96.72.48.24,1.44.48h.24l.48-.24.24.72-.24.24.24.48,1.68,1.92h1.92l.72-.48.24-.24.48.48.48.48.48.24.24.24.24.24.72.96.48.48,1.44-.24.48-.24h.24l.96.48,1.92.48h.96l.48.24h1.2l.24.24v-.96l-.24-.72.48-.72.24-.24h.24l1.2.48.72.48,2.16.72.48.48.24.48.24.24,1.68.24h.48l.24.48.24.72.24.72-.24.48v.48l-.24.72.24.72.72.24h.24l1.44-.24.96-.48.48.24.96.48.48.48.72.48v.72l.24.24.24.24.48-.24h.48l.24-.48.48-.24,1.44-.24.72.48,1.2.72.24.48.72.48,1.68-.24-.24-.48.24-.24.72-.24,2.64-.72,1.2.24.24.72h.96v1.2l.24.24h.96l.48.48-.48.96-.24.24h-.72l-.24-.24-.24-.24-.48.48-.24.48v.96l.24.48.48.24.24.48v1.92l-.24.96-.48.24-.72.24-1.2,1.2-1.2.72-2.64,1.2h-.48l-.96.24-.48.24h-.24l-3.36,1.44-.24.24-1.2,1.44-.24.48-.48.48h-.48l-.24.24h-1.92l-1.68.24-.72.24h-2.4l-2.16.72-1.68.24-1.92.24-.48.24-.48.24-.24.24-.24.24-.48.24-2.64,2.64.24.24,1.44.96h.48l-.24.48-.24.24-2.4,1.44-.24.24h-.24l-.24-.48h1.2l.24-.72h-1.44l-.24.24-.72.48-.24.72-.96,1.2-1.68,2.16-.96.72-.96.72-2.4,2.16-.24.48-.96,1.68-.72.48-.48.48-.96,1.2-2.16,3.36-.24.24-.24.96.48,4.8.48,1.44v.48l.48.72.48.96.24.48.24.24.72.48h.48l.24.24.96.48.48.48v1.2l-.72.48-.24.24-1.44.48h-.72l-.48.48-1.2.72-2.16.72h-.24l-.72.48-1.92,1.44-1.44,2.16-1.2,2.16-1.44,2.16-.24.48v.24l-.72.72-.48.72-.24.48.48.96.24.24.72.24.24.24-.48.48h-.24l-2.16.24h-.48l-.24-.48-.96-.24-2.4-.24-1.2.24h-.24l-1.44.72-.24.24-.24.48-.48.24-.72.24-.96.24-.72.48-1.68,1.44-.24.72-.24.48-.24.48-.24.72-.96,1.44-.48.48-.96.72-1.2,1.2v.48l-.96.48h-.96l-.24-.48v-.24l-.72-.96-.48-.48-1.92-.24-.96.24-.48.24-.24.48-.24.48-.48.48h-1.68l-1.2-.72-.24-.48-.24-.24-2.64-.48-1.2-.24-.48-.24h-.96l-.48.24-.72.24h-.96l-.48-.48-.72-.72h-1.68l-.72-.48h-.48l-.24-.24-2.4-.24h-2.64l-1.2-.24-.48-.24-.48-.24-.48.48-.48.48-.48.48-2.16,1.44h-1.68l-.24-.24-.48-.24h-.72l-.48-.24-.48.24-1.92.24-1.2.24-.72.48-1.68,1.92-.24.48-.24.48v.24l-.24-.24-.48-.24h-.48l-.24.48v.96l-.48.48-2.16.24-2.16-1.68-.24-.24v-.48l-.24-.24-.24-.72-.48-.24-1.44-.48h-.24l-.96-2.16-.48-1.92-.24-1.2.24.24h.24l.72-.48-.48-1.2-.72-.72-.48-.24h-.24l-.24-.48-.24-.96-.24-.48.24-.24,1.44-1.68-2.16-3.12-1.68-1.68-1.92-1.68-.48-.96h-.24v.72l-.24-.48-.72-.48h-.24l-.72-.24-.48-.24h-2.16l-.24.24-.48-.24-.24-.48v-.72l.48-1.92v-1.92l-.24-.24v-.48h-.24v-.48l1.44-1.92.48-.72.72-.24.96-.48.72-.72.48-.96.24-.48v-.24l.48-.24,1.2.24h1.44l1.2-1.68.24-.48.24-.48-.24-.24h-.48l-.48.24h-.96v-.24l-.24-.48v-.48l-.24-.72-.24-.48-.48-1.92-.24-.24-.24-.24,1.68-3.84v-.24l.72-.24.72-.48,1.2-.48.48-.48,1.68-2.16.24-.48-.24-.72-.24-.24-.48-.24h-.96l-.24-.24-.72-1.92-.48-2.16.24-.72-.24-1.68-1.2-2.16v-1.2l1.2.72.96.24h.48l.48-.24.72.24.48.24,1.2.48.48-.24.72-.72,2.4-4.08v-.48l-.48-.96v-.24l-.48-.24-.24-.24v-.96l.24-.48.96-.48.48.24h.48l.72-.72.24-.96.72-2.16.72-3.36.48-1.68-.24-1.68-.24-.48-.48-.72.24-.24.96.24.48-.24.48-.24.24-.48.24-.48.96-.96.72-.24h.72l.24.24.72-.24.96-.72,1.2-.72.96-.72,1.2-1.2.48-.72-.48-.96-.48-.48-.48-.48-.96-.24h-.48l-.48.24-.48-.72.24-1.2.48-.96.24-1.44-.48-.48h-1.2l-2.4-.72-.48-.24-.24-.48-.48.24h-.48l-.24-.24-.24-.48-.24-.24h-.72v.72l-.24.48-.24.24-.96.24h-1.68l-2.16-.72.24-.24-.96-.96h-.96l-1.2.24h-.24l-.48-.48-1.44.48h-1.2l-.24-.24v-.72l-.24-.24v-.72l.24-.24.48-.48.48-.24.48-.24h.24l.24-.72-.96-1.68h-.72l-.72.48-1.68-.24h-2.4l-1.44.96-.24.24-.24.24h-.72l-.24.24-.48.24v-.96l.72-2.64,1.2-.96.72-.24.48-.24,1.2-.48.96-.72-.24-.24h-.24l-.48.72-.48.24h-2.16l.24-.72.48-.48h.48l1.44-.72.24-.24h.24l-.48-.24-.72.24h-1.2l-.24-.72v-.72l.24-.48.24.24-.24.48h.48l.24-.24.24-.48-.24-.48.48-.48h.48l.48-.72.48-.48v-.24l-1.68.24-.72.24-.48.24-.96.96h-.24l-.24-.96.24-.48.48-.72.24-.48.24-.24,1.44-.72-1.2-.24-.96.48-.24-.24v-.96l.24-.48v-.96l-.24-.48v-.48l-.96.24-.48-.24.96-1.68.96-1.44.72-.48h.48l.24.24h.72l1.2-.24-.24-.72.48-.24.96-.24.48.24.48.48.48.24.24.24h.24l.24-.24,3.12-.48h.96l1.44-2.16,3.36-1.44,1.44-.72Zm131.5283,82.3153.48,1.44v.48l-.24.24-.24.24-.24.24-.24-.24h-.24l-1.44-.96v-.24l-.24-.24-.48-.48h-.24l-.48-.24h-1.92l-.24-1.44.48-.72h.48l.72.24,2.4.24h.48l.96.96Zm-13.6809,2.16.72.48h.24l.48-.24.48-.24h.72l.48.48.48.48-.24.96-.24.24-.96,1.44-.72.24-.24.24-.24.72-.48.72-.24.72-2.16,1.44h-.24l-.48-.24-.48-.72-1.68-.72-.48-.24-.48-.72-.24-1.2.24-.24v-.48l-.48-.48-.24-.24-1.68.48h-1.2l-.72-.24-.24-.48.48-.96,1.92-.96,1.92-1.44,1.2-.72,2.64-.72h1.2l.24.24.24,1.44v.48ZM173.051,592.2862l-1.68,1.44-.48.24v-.24l-.24-.24v-.24l-.96-.24-.24.24-.48-.24v-.24l.24-.72.24-.48.72-.96h.24l.24-.24.48-.24,1.44-.24.72-.24h.24l.72.48v1.2Zm0,4.32.24.24-.24.24h-.72l-.24-.24v-.24l-.48-.24h-.24l-.72.72v-1.2l.24-.48.72.24ZM78.485,626.3643l-.48.72-.24-.24-.24-.48v-.72l.48.24Zm29.2818,15.8391-.48.24-.24-.48v-.48l.24-.24.24.72Z"/>
</svg>
