<svg id="Sweden" xmlns="http://www.w3.org/2000/svg" width="612" height="792" viewBox="0 0 612 792">
    <defs>
        <style>.cls-1{fill:#fff;fill-rule:evenodd;}</style>
    </defs>
    <path class="cls-1"
          d="M333.3811,228.467h-.48v-.24l-.48-1.44.72.24.24.72.24.72Zm7.2,47.7572-.48-.24h-.24v-.24h-.24l-.48-.96v-.24l.24-.24v.24l.72.24.48.48.24.72Zm-4.08-.72h-.96l-.72-1.2h1.44v.24h.24l.24.48v.24Zm8.64-15.5991h-.24l-.24-.24-.96-.48v-.24l-.24-.72-.24-1.2v-.24l.24.24.24.24.24.72.72,1.2h.24l.24.48Zm9.1207,37.6778h-.24l-.24-.24-.24-.48-.24-.24.48-.96,1.68-.24.24.24-.24.24h-.48l-.48.48h-.24v1.2Zm-63.3641,2.64v-1.2l1.92.24v.72l-.72.48v.24l-.48.24h-.24l-.24-.24Zm-.48-1.44-.48-.96v-.24l2.16-2.16h.48l.48.48.24.48v1.68l-.72.24h-.24l-.48-.24h-.72l-.72.24Zm43.9228,26.6384h-.24v-.24l-.24-.72-.24-2.88-.24-1.2.24-.72.72-3.12.48-1.44.24-.24.96-.96.48-1.92.48-1.2.24-1.44v-1.44l.24-.24v-.24h.24v-.24h.48l.24.48-.24,2.16-.24.96-.48.72-.24.72-.24,1.68v1.44l-.24.24-.24.24-.24.24-.24,1.44-.48,3.12-.24,1.68-.24.24.24.24v.24l-.24.48-.24,1.44-.24.24Zm18.9612-28.5583.24,1.2-.72,1.44-.48.24-.48.48v2.88l.24.72.24.24-.24,3.36-.48.24-.96.72-.24.48-.48.24h-.24l-.24.24-.24.96v.96l-.24,1.2-.48.48-.48.24-.24-.24v-.24l.48-.96.24-.72v-.72l-.96-.72-.24-1.44v-1.44l-.48-1.44-.24-.96v-1.2l.48-.72.24-.24v-.24l.24-.24.24-.24.24-.48.24-.24v-.48l.24-.24v-.24l.48-.96,1.44-1.92h.48l1.2-.24h.24Zm-16.5611-19.4389h.96l-.24-.48-.24-.24v-.48l.48.24h.48l.96.24h2.16l.48-.48.24-.48.24-.24.24.24h.96l.48-.24.48-.48.24-.24.48-.24h.24l.48.48.24.24v-.72l-.24-.48-.24-.48h.48l.24.24.72.48.48.72-.48.48-.48.24h-1.44v-.24l-.48.24v.48l.48.72v1.44l-.48.24-.72.48-.96.96-.72,2.16v.72l-.96-1.2-.24-.96v-1.44l-.24-.24-.72-.72-.24,1.44v1.68l-.24.48h.24l.24.48-.24.96-1.68,1.68-.72.48h-.96l-.48-.48-.48.48.48.24.48.48-.72.96-.96.48-.96-.24h-.96l-1.92-.24h-1.2l-.48.24-.48.48.96.24h.72l.24-.24.24-.24h1.68l.48.24.72.24,1.2,1.44-.72.72-.72.24h-1.2l-.24-.24h-.24l-.24-.24h-.72l1.2.48,1.2.48.72.48v.72l.48,1.92.24.24-.24.72-.24.24-.24.72v.48l.24.48-.96.48.24.24h.72v.24l.48.48-.24.72h-1.2v-.72l-.96-.96.24,1.92.48.24.96,1.44.24.24-.72-.48-.24-.24-.24-.48-1.44-.96.48.72,1.2,1.2.72.24.24.48.24.24-.72,1.2.24,1.2.48.96v1.2h-.24v.48h-.72l-.48,1.44v1.92l.48.72h.24l.24.48.24.72h-.72l-.24,1.44v1.68l-.24.72v2.16l-.72.24-.24.24-.24.48-.72,2.4v.48l-.24.48-.24,1.44v.72l-.24.72-.96,2.16-.72-.24-.24-.72-.96-.24-.48-.24-1.92.96h-1.44l-1.2-.24-1.92.24h-1.44v.72l.24.24.24.72.24.24-.24.48v.24l-.96-.24v-.24l-.24-.24-.48-.24v.24l-.24.24-1.2,1.2-.24.48-.72.72v.48l-.24.48v.48l-.24.48v.48l.24.48.72.96.48.96.48.48-.24.72-.24.24-.96,1.68h-1.44l-.24-.24-.48-.24-.24-.24h-.48l-1.2.24h-.24l-.72.24-1.2.48-.24.24-.48.24-.24.24h-.72l-2.88-.72-.72-2.16v-.48l.48-.24v-.24l.48-.48.24-.72-1.2-2.16-.24-.24-2.16-3.6v-.24l-.48-.24-.48-.72-.96-2.16,1.44.48.72.48h.72l.24-.48-.96-1.68-.48-.24-.24-.24-.24-.48.24-.24.24-.48h.48l.48.24.48.24h.24v-.24h.24v-.24l.24-.24v-.96l-.24-.48-.24-1.2h-.48l-.24.24h-.72l-.48-.48-.48-1.2v-.48l-.24-.48v-.24l-.96-.96-.48-.24-.72-.24v-.72l-.48-.96-.48-.24-.72-2.16-.48-.96.24-.48v-.48l-.48-1.92-.24-.48-.48.72v1.2l-.48-.48-.24-.48v-2.4l-.24-.96-.24.24-.24-.96.24-.24.24-.24-1.2.24-.48-.24.24-1.68-.48-.72.24-.48.24-.24.48-1.68v-.48l-.24-.24v-.24l.24-.48.24-.96.24-.72-.72-1.68-.48-.24-.72.72-.24.48-.72.24h-.24l-.72-.24-.24-.96-1.2-.48-.24-.72.24-1.68.24-.72v-1.44l-.24-.24-.24-.48-.24-.48v-.96l.24-.24v-.72l-.24-1.2-.24-.24-.24-.24-.24-.96.24-.24.24-.72.24-.24.48-.24h.48l.24.24.24.48.24.72.24.24v1.44l.24.24h.24l.72-.24h.24l.24-.24.96-2.88-.24-.48.24-.96v-.48l.24-.24v-1.2l-.24-.24-.24-1.68-.72-2.64.72-.72h.48l.72-.96v-.48l-.24-.72v-.24l-.48-.72.24-.24v-.24l.72-.48.48.24h.96l.24-.24.24-.24.96-.96,1.2-1.68v-1.2l.24-.24-.24-.48.24-2.16.24-.72.24-.24v-1.2l-.24-.72-.72-1.68-.48-1.44-.48-.48v-.48l-.24-.24v-.72l-.24-.72-.48-.96-.24-.48-.24-.24.24-.48h.48l.72-.48h1.68l.24-.24.24-.48.72-1.68v-.72l.24-1.2.24-.72-.72-.72-1.92-2.4h-.96l-1.92-2.16-.24-.24.24-1.92v-.96l.24-.96v-.48l.24-2.16.24-1.92v-.24l-.24-.48v-.48l-.48-.96-.24-.48-.24-.48-.48-1.2-.24-.96v-1.2l.24-.72v-.48l-.24-.96v-.48l-.24-.96.24-.48.24-.72.24-.48.24-.24-.24-.48-.72-1.92-.24-.24-.72-1.44.48-.72.48-1.2.48-.72.48-.72-.24-.48-.24-1.2,1.44-2.16.72-1.68.48-.72.72-1.2.24-.48.72-.48.48-.48.48-.48h.48l.24-.24.72-.24h.24l.48-.24.24.24,5.04.72.96-2.64-.24-2.4-.24-2.16-.72-.24-.72-.24-.72-.24-.96-.96v-.72l.24-.24.72-1.44.24-.72.48-.96.72-1.92.96-1.68.24-.72.24-.24v-.48l.24-.96v-.72l.72-1.2v-2.16l-.24-.96v-1.2l.24-1.92v-.48l.24-.24v-.48l.24-.24v-.48l-.24-.72-.24-.96v-.24l-.48-1.2v-.96l-.24-.72,1.44-.24,1.68-.24h.24l2.64-2.4v-.72l-.48-1.2-.24-.96v-.24l.96-1.44.48-.72.48-1.44,1.68-3.36,1.92-2.16v-2.64l-.24-.96-.24-.48-.48-.72-.48-.24-.24-.48h-.24l-.24-.48v-.24l.48-1.68,1.2-.24v-.24l.48-1.44.48-.72v-1.2l.24-1.68.24-1.2,2.64-2.4.24-.48v-.24l.24-.24,1.92.72.48.24v.24l.48.24.48.24.24.24h.24l.24-.72.96-2.64v-.24l-.48-1.92-.24-.48v-.72l-.24-.72v-1.68l.24-.24,1.2-.48,1.68.72,2.16-.24,2.88.72.72.24.96.24.96.24h.24l.24.24.24-.24v-.24l.24-.48v-.24l.24-.24.48-.72.24-.24-.96-.48-.72-.48.48-.72.48-1.2.24-.24v-.48l.48-1.2v-.48l-.48-2.4-.48-.48-.96-1.2,2.4-.48h.72l.48.24h.48l.24.24h.24l.24.24v.24l.24.48-.24.48.24.48h.96v.24l.96.72,1.44,1.2.24.48.24.24.48.24h.48v.24l.48.24.24.48.24.24h.24l.24-.24h.24l.24.24.24.24.24.24.24.24.24.48h2.4l.48.24h.96l.96.48.48.48.24.24.24.24h.24l.48.24,2.4,3.12.24.24.24.24.96.72.72.48.24.48-.24.48-.48.24-.24.24v.96l.48,1.68.24.72.24,1.68v1.68l.24.24h.24v-.24h1.44l.24.24.24,1.44v.72h-.24v.24h-.48v1.92l.96,1.68.48.48.24.24.24.24.72.72.48.72.72.96-.24.48-.24.72v.48l.24.48.24,1.68v.24l-.24.24-.24.24-.24.72-.48.72v.48l.48,1.68.48.96.24.96h.24l.48.24h.24l.24.24h.24l.24.24.24.48.24.48.48.72,1.44,2.64v.48l-.24.24h-.48l-.24.24-.24.24v.24l-1.2-.24h-.72l-.96.24-.48.72h-.24l-.96-.48v.72l-.48.96-.48.24-.48-.72-1.44-.96-.24-.48-.72-.48-.24-.24-.24.24.24.24.48.96v.96h-.24l-.48-.48-.96-.72-.24-.24-.48.24-.24.48v2.16l.24.96h.24l-.24-.48h.24l.48.48.48,1.2v.24l-.24-.24-.96-.24h-.24l-.96-.24-1.68-.96-.24-.24-.48-.24.72.72,1.44.96h.72l.48.48-.24.24-.72.48h-.96v-.24l-.24.24.48.48h.24l-.24-.24.48.24.48.48-.24.48-.48.48-1.44.48h-.48l-.24-.24h-.24l-.48.48.24.48.24.48h.48l.24-.24.48.72v.48l-.48.24-.24.24-.24-.48-.24-.48-.24-.24-1.2-.72-.24.48.48.24h.48l.72.96.48.48.72.96-.24,1.44h-.48v.96l-.48.48-.48.48-.48.24v1.92l-.48.24-.24-.24v-.24l-.24.24v.24l.48.48.24.24h.24l.24-.24h.24l.48.24.24,1.44h-.24l-.24-.24-.72-.48h-.24v.72l1.2.96h.72l.72.24.72.72.48,1.44-.72,1.2-.24.48-.48.72-.24.24-.24-.24-1.44,2.88-.24,1.44v.96l-.48,1.92v.24l-.24.24-.72.72-.48.24-.48-.24-.24.96v1.2l-.24.24-.24.48h-.24l-.24-.24-1.2.48-.48.24-.72.72-.72,1.2v.48l.24.72-.48.48h-.24l-.24-.24v-.24l-.24-.48-.96-.72h-.24l-.24.24.48,1.44h-.24l-.48.24-.48-.24v-.24l-.24.24v2.16l-.72.24-.48,1.2v.48h.48l-.24.48h-.24l-.48-.48-.72-.72-.48.48h.24l.24.24.24.24v.24l-.72.48-.24-.24.24-.24h-.48v.48l-.48.48-.48.48-1.2,1.2-.72.96h2.16v.24l-.48,1.68-1.68,1.68-.72.24-.24-.24v-.48h.24l-.48-.48h-.24l-.48.48-.24-.48-.72-1.2-.24-.48v-.48h-.96l.24.24.24.24.24.24.24.24.48.72,1.2,2.16v1.2h-.24v-.24l-.48.24.48.48h.72v.48l-.48.72-.72,1.2h-.24l-.24-.24h-.48l-.24.24-.24.48.24.24-.48.24h-.48v-.24l-.24-.48-.48-.24-.24-.48h-.24l-.48.72.48,2.16.24.48.72.96h.72l.48.24h.24l-.48.48h-.24v-.24h-.24v.48l-.24,1.2.24,1.92-.24.24h-.24l-.48.72.24,1.92.48.96.48.48h.24l.24.48v.96h-.48l-.48-.72-.24-.24-.24-.24h-.72l-.48.24h.48l.48.24-.72.96h-.24l-.24.48.24.72.48.48.48,1.44h-.48l-.48.48.48.72.48.48v2.16l.24,2.16v1.68l.48.48.24.24.24.72.24,1.2v.72l.24.72.48.48.24.48.24-.24.96-.24.24-.24v.24h.48v.24l.24.24-.24.24v.48l.24.48.24.24h.48v-.48l.24-.72.48-.24.48-.24h.48l.24.48,1.2,1.68.96,1.68h.24l.24-.24h1.2l.48.72.72.48.24.24-.24.24h-.72l-.24-.24-.48-.24-.24-.24-.24-.24.72,1.44.24.24.72.48h.96l.72.24.48.24h.24l.24.48.72,1.68.24.24.24.24.48.24h.48v.24l.24.96h-.24l-.72-.48h-.24l-.48,1.2h.96l.96.24v.48l-.24.24h-.72l-.96.24-.72.48v.24l-.24.48h.48l-.48.96-.24.24-1.92,1.92h-.72l-.24.48.24.48.48.24-1.44-.24h.24v-.48h-.48l-.24.24-.24.72.24.48.24.48-.72-.24-.72.24h-.24l-.24-.24h-.24l-.24-.24-.24-.24-.24-.24v-1.2l.24-.48.24-.24-.24-.96-.72-.24v-.72l-.24-.48-.24.24h.24v.72h-.48l-.48-.24v-.24h.24l.24-.24-.24-.72-.24-.96-.24-.24v.48l-.48.48-.72.24.24.96.72,1.44h.24l-.24-.24v-.24l-.24-.48v-1.44l.48-.24.24.24v.48l-.24.48.24.48.72.24.48.24.24.24.24.72-.24,1.44-1.68-.48-.24-.24.24-.48-.48-.24-.48-.24-.48-.72v-.48l-.24.48.24.48.24.48.24.96v.24l-.72-.24h-.48l-.72-.48-.48-.24-.48.24h-.96l-.72-.48h-.24l-.24.48-.96.24-.48-.48-.48-.48h-.24l-.24.24.24.48.24.24-.48.72-1.2.72-1.2.24-.72-.24h-.24l-.24-.24.48.48.24.24h1.44l.24-.24,2.64-.48h.24l.48.72.72.48h.48v-.24l-.24-.24-.48-.24-.72-.24-.24-.24,1.2-.48.48.24.24.24.24.48,1.44.72.48-.24.72.24.24.24v.24l-.24.72v.24Z"/>
</svg>
