<svg id="Switzerland" xmlns="http://www.w3.org/2000/svg" width="612" height="792" viewBox="0 0 612 792">
    <defs>
        <style>.cls-1{fill:#fff;fill-rule:evenodd;}</style>
    </defs>
    <path class="cls-1"
          d="M264.7368,460.5337v-.24l-.48.24h.48ZM240.2552,473.253l.24-.96.72-1.2h.48l.72-.48.48-.48.24-.48.96-.96.72-.48h-.24l1.68-1.92.24-1.2-.24.24h-.48l-.48-.24,1.2-1.92.48-.24,1.2.24.24.96.72.24h.24l.48-.24h.24l.24.24h.24l.48-.24v-.24l.24-.24.48-.24.24-.24v-.72h.24l.24-.24v-.24h.48l.48-.24h.24v.48l-.48.24h.24l.48.24.72-.24,1.68.24h1.2l.72-.24.96-.72h.96l1.2.48.48.24.24-.48.72-.48.24.24.24.24v.24l.24-.24.24-.72v-.24h-.72l-.24.24h-.48l-.72-.48v-.24l.72-1.2.96-.48h.96l.24.24.48.48v.72l-.24.24h.48l.48.24-.24-.48.24-.24.48.24v.24l.48.72h.48l.48-.24.24-.24h.72l1.92.48,2.4,1.2.96.72-.24.48.48.48.48.24.24.96-.24.48h-.24l-.96,1.2v.24l-.48.72v.96l.24.24v.72l-.48.72h.48l.24-.24.72.24h.24l.96.24,1.68.24.24.48-.24.48v.48l.72.48,1.2.72.72.24h.24l.24-.24.72-.24.96-.96v-.24l.24-.48.48-.24.48.24.72.72-.24.96-.24,1.68.24,2.16.24.24v.24l-.24.72-.24.24-1.2-.24h-.48l-.48-.48v-.72h-.72l-.72.24-.72,1.2v1.44l.48.48.72.48.24,1.92-.48.48-.72.24-.72-1.2-.24-.72v-.24l-.48-.48h-.24l-.72.24-.48.24-.48.24-.48.72h-1.44l-.48-.24-.24-.24-.72-.96v-1.44l-.96-.48h-.72l-.48.96.24.24.24,1.2v.48l-.24.48-.48.96-.72.72-.24.24h-.24l-.48.72-.48.96-.24.48-.24.72.24.72.72.24v.24l-.48.96-.48.24-.48-.24-.24-.48v-.48l-.24-.72-.96-.48v-.72l.48-.48-.24-.48-.24-.24-.72-.24-.24.24h-.24l-.96-.24-1.68-1.92-.24-.24v-.72l.24-.48v-2.16l-.96.24-.72.48-1.68,3.12v.96l-1.68,2.16-.24.24h-.72l-.48.24v.48l-.24.48h-.72l-.48-.24-.48-.24-.48-.48-1.2-.24-.96.72-.24.24-.48.24-.48-.24h-.48l-.72.24-.48.24h-.96l-.48-.24-.24-.48v-.48l-.24-.72-.96-.72-.48-.72-.96-.96.24-3.6.24-.24-.24-.48-.48-.24-.48-.24-.72-.24h-1.2l-.24.24-1.92.72h-.24l-.72.72-.24.24.24.24.24.96-.24.48-.72.72-.72.48h-1.44l-.24-.96.24-.24.24-.24.24-.24h.48l.48-.24v-.72l.48-.96-.48-.48-.24-.24v-.48l.72-1.44v-.72l1.44-1.44,1.2-.48.72-.48.24-.48Z"/>
</svg>
