<svg id="Ukraine" xmlns="http://www.w3.org/2000/svg" width="612" height="792" viewBox="0 0 612 792">
    <defs>
        <style>.cls-1{fill:#fff;fill-rule:evenodd;}</style>
    </defs>
    <polygon class="cls-1"
             points="477.15 470.613 477.15 470.373 477.15 469.653 477.39 469.413 477.63 469.173 478.11 468.933 478.35 468.933 478.59 469.173 479.07 468.933 479.79 468.933 480.27 468.693 480.27 468.453 479.79 466.533 479.31 466.533 479.55 465.573 480.03 464.613 480.75 464.134 481.47 462.694 480.99 461.734 480.99 461.254 481.47 461.014 481.711 460.774 482.191 460.294 482.911 460.054 482.911 456.934 482.671 456.694 481.711 455.734 480.99 453.574 481.23 452.854 481.711 452.374 482.911 451.414 483.151 451.174 483.631 451.414 483.871 451.894 483.871 453.094 483.871 453.574 484.111 453.814 484.351 453.814 484.831 453.094 484.831 452.614 485.071 451.894 486.511 451.174 486.751 451.894 488.191 452.614 488.431 452.614 488.671 452.374 489.151 451.174 490.351 451.894 491.071 452.134 491.311 451.414 491.791 451.414 492.271 451.414 492.751 451.174 493.231 450.934 493.471 450.454 493.231 450.214 492.991 450.214 492.751 450.214 492.271 450.214 492.031 450.214 491.071 449.734 490.591 449.254 490.591 448.774 491.071 448.534 490.351 445.895 489.871 444.935 488.911 444.455 487.231 444.455 485.311 443.975 485.311 442.775 484.591 441.095 484.351 438.935 484.111 438.455 483.631 438.215 482.911 438.215 482.911 438.455 482.911 438.935 482.431 439.415 481.711 438.935 481.711 438.455 481.47 438.215 480.51 437.735 479.79 437.255 479.79 437.495 479.31 437.735 478.59 436.775 478.35 436.295 478.59 435.575 478.83 435.095 478.83 432.695 477.15 430.055 476.67 429.576 476.19 429.815 475.95 429.815 475.95 430.295 475.95 430.535 475.71 430.775 475.23 430.775 474.99 430.775 474.27 430.295 474.03 430.055 473.07 428.616 472.83 428.376 471.87 428.376 470.91 428.376 469.95 428.616 469.71 429.096 468.99 429.096 468.27 428.856 468.03 428.616 468.03 428.136 467.55 427.896 467.07 428.136 466.83 428.376 466.59 428.616 466.35 428.856 464.909 428.616 464.909 427.896 464.669 427.656 463.949 427.656 463.229 427.656 462.989 427.416 462.749 427.416 462.509 427.176 462.269 426.936 462.029 426.696 460.829 426.216 458.669 426.456 458.429 426.696 457.949 427.176 456.029 428.856 453.389 429.576 451.709 430.295 450.509 430.535 450.269 431.255 450.269 431.735 450.269 431.975 449.788 432.695 449.308 432.935 449.068 432.935 448.588 432.935 447.388 433.895 447.148 435.575 446.668 436.775 446.428 437.255 445.948 437.255 445.708 437.495 444.988 437.495 444.028 437.975 443.068 438.215 443.068 438.455 442.588 438.935 441.388 439.175 440.668 439.415 440.428 439.415 439.948 439.415 439.708 439.415 438.028 440.135 437.308 440.855 437.068 441.095 436.828 441.815 436.588 442.535 436.348 443.015 436.108 443.255 435.868 443.495 435.628 443.735 435.388 443.735 434.908 443.975 434.668 444.215 434.187 444.215 433.707 443.495 433.227 443.015 432.987 442.775 432.747 442.775 432.027 442.775 431.787 442.535 431.547 442.295 431.307 441.815 430.587 441.335 430.347 441.335 430.107 441.335 428.907 441.335 428.667 441.575 427.707 442.055 426.987 442.775 425.787 442.775 425.307 442.535 424.587 442.295 423.867 442.295 422.427 442.535 419.787 442.535 419.307 442.775 419.067 443.015 418.106 442.775 417.386 442.535 416.906 442.295 416.426 442.055 416.186 441.815 415.466 441.575 415.226 441.815 414.986 442.055 414.746 442.535 414.746 443.015 414.746 443.255 414.266 443.735 413.306 444.455 412.826 444.455 412.346 443.975 412.586 443.255 412.106 442.775 411.386 442.295 410.906 442.295 410.186 442.775 409.946 442.775 409.706 442.775 409.466 442.535 409.226 442.055 408.986 441.575 408.026 440.855 407.546 440.855 406.826 441.095 406.346 440.615 405.386 439.415 405.386 438.695 404.666 438.695 404.186 438.935 403.946 438.935 403.706 436.295 403.706 436.055 404.426 435.335 405.146 434.375 405.386 432.455 405.626 431.015 405.866 430.055 406.346 429.336 406.346 428.616 406.346 427.896 406.346 427.656 406.826 427.656 408.266 428.136 409.706 428.616 409.946 428.376 409.466 427.896 409.466 427.176 409.226 426.936 408.506 426.456 407.546 426.216 407.786 425.496 407.786 424.296 407.306 422.616 406.826 421.896 406.106 420.696 406.346 420.216 406.346 419.976 406.586 419.496 407.066 418.296 409.466 413.496 409.706 413.016 410.426 411.816 410.906 410.857 411.146 410.617 411.386 410.377 411.626 409.897 412.586 408.697 412.826 408.217 413.066 407.977 413.306 407.737 414.026 406.537 414.026 406.057 414.266 405.817 414.506 405.577 414.986 405.337 415.466 405.097 415.706 405.097 416.186 405.097 416.666 404.857 416.906 404.857 417.386 402.217 417.386 401.257 417.146 401.257 416.666 400.297 415.946 399.817 415.226 399.097 415.226 398.617 415.466 398.377 415.706 398.377 416.186 398.377 416.426 398.377 416.906 398.137 416.906 397.657 416.426 397.417 415.946 397.417 415.706 397.177 415.226 396.937 414.986 396.697 414.506 395.977 414.026 395.017 412.826 393.578 412.106 393.098 411.866 393.098 411.146 391.898 410.906 390.698 410.906 390.218 410.186 389.018 409.946 389.018 409.706 388.538 410.186 388.538 409.706 387.578 409.706 387.338 409.946 386.618 410.666 386.378 412.346 386.378 412.586 386.378 412.826 386.858 413.066 386.858 413.306 386.858 413.786 386.378 413.786 386.138 415.466 383.978 415.706 383.498 415.466 383.018 415.706 382.538 416.186 381.578 419.067 380.858 419.307 380.858 420.747 380.378 421.707 379.898 422.187 379.418 422.667 379.178 423.387 378.938 423.867 378.698 424.107 378.698 424.587 378.938 425.067 378.938 425.787 378.938 426.987 378.698 427.467 378.698 428.187 378.458 428.667 378.218 428.907 377.978 429.387 377.978 431.547 377.738 432.747 377.978 432.987 378.218 433.227 378.218 434.187 378.218 434.668 377.978 434.908 377.978 435.388 377.738 435.628 378.218 435.868 378.458 436.348 378.218 436.588 378.218 436.828 377.978 437.308 377.978 437.548 377.978 437.788 377.978 438.268 377.978 438.988 378.218 439.468 378.218 440.188 378.218 440.428 378.218 440.668 378.218 440.908 378.218 441.388 377.738 441.868 377.738 442.828 377.498 443.068 377.738 443.308 378.218 443.308 378.938 444.508 379.898 445.708 379.418 445.948 379.418 446.428 378.698 447.388 378.698 448.108 378.698 448.588 378.938 448.588 379.418 448.588 380.378 449.308 380.618 449.788 379.418 449.548 378.938 449.308 378.698 449.548 378.458 449.788 377.978 450.029 378.218 450.509 378.458 450.749 378.458 451.229 378.698 451.949 378.458 452.189 378.218 452.429 377.978 452.669 377.498 452.669 377.018 452.909 376.779 453.389 376.539 454.109 377.498 455.309 377.498 455.549 377.258 455.789 377.258 457.229 377.018 457.229 377.258 457.469 377.978 457.709 378.458 457.949 378.698 458.909 378.938 458.909 378.458 458.909 377.978 458.909 377.498 458.909 377.018 459.149 376.779 460.829 375.099 461.069 374.859 461.549 374.859 462.029 374.859 462.989 375.819 463.229 376.539 464.429 377.978 464.669 378.218 464.669 377.978 465.149 377.498 466.83 375.579 467.31 375.339 467.79 375.339 468.03 375.819 468.27 376.059 468.99 375.819 469.47 375.339 469.47 375.099 470.19 374.859 470.43 374.619 470.67 374.619 471.63 374.139 472.11 374.139 472.35 374.139 474.03 375.099 474.27 375.579 475.47 376.299 476.43 376.779 476.43 376.059 476.91 375.579 477.15 375.339 476.91 374.619 475.71 373.179 475.23 372.459 474.99 370.779 475.23 369.819 475.23 368.139 474.99 367.899 475.47 366.459 475.95 365.499 476.43 365.019 476.91 364.299 476.67 364.059 476.43 363.579 476.67 363.339 477.87 362.619 478.11 362.619 479.79 362.139 479.79 361.899 480.03 361.659 480.27 361.419 480.75 361.419 481.47 361.179 481.711 361.179 482.671 360.939 483.631 360.699 484.111 360.459 484.351 360.219 484.831 360.219 485.311 360.459 485.311 360.699 486.271 360.699 487.471 360.459 488.191 359.739 488.671 359.02 488.911 358.06 488.431 355.66 488.431 355.42 488.671 355.18 489.871 355.18 490.111 355.18 490.351 355.18 490.591 355.18 491.071 355.42 491.791 355.42 492.031 355.42 492.271 355.42 493.711 355.18 493.951 354.94 494.191 354.46 494.671 353.98 495.631 352.3 497.311 352.06 497.792 352.06 498.752 352.06 499.472 351.82 499.712 351.58 500.192 351.1 500.672 350.86 501.392 350.62 504.272 352.3 504.992 353.02 504.992 353.5 505.232 354.46 505.472 354.7 505.952 355.18 507.392 355.9 508.592 356.38 509.072 356.62 509.552 356.86 510.032 357.58 510.032 358.06 509.792 358.3 508.592 359.02 508.112 359.26 507.392 359.979 507.632 360.219 508.352 360.699 509.312 361.419 509.552 361.899 510.032 363.099 512.192 365.019 512.432 365.019 513.873 365.019 515.313 365.259 515.553 365.259 515.793 365.259 516.033 365.019 516.513 365.019 516.753 364.779 517.473 364.299 517.473 363.819 517.713 363.579 518.673 363.339 519.153 363.579 519.393 363.819 519.393 364.299 520.113 365.259 520.353 365.499 520.833 365.499 521.073 365.499 521.073 365.259 521.553 365.019 522.273 365.019 522.513 365.259 522.273 365.499 522.033 365.979 522.273 366.459 522.753 366.699 524.673 368.859 525.393 369.819 524.913 370.779 525.873 372.459 526.113 372.699 528.033 373.899 528.753 374.139 528.994 374.139 529.234 374.139 529.474 373.419 529.954 372.459 530.194 372.219 530.434 371.979 530.914 371.979 531.394 371.739 531.634 371.499 532.114 371.499 532.354 371.499 533.074 371.259 533.554 371.499 533.794 371.979 534.034 371.979 534.994 372.699 535.234 372.939 535.474 372.699 535.714 372.459 536.194 371.979 536.674 371.979 537.634 371.979 537.874 372.699 538.114 372.699 538.354 372.699 538.834 372.459 538.834 371.979 538.834 371.739 539.074 371.499 539.794 370.539 540.274 369.819 540.994 369.339 541.474 369.339 541.954 369.339 542.434 368.859 543.154 368.139 543.394 367.899 543.634 367.659 543.634 367.419 543.874 366.939 544.594 366.459 545.075 366.459 548.195 369.339 549.875 370.539 550.355 370.539 550.595 370.539 551.795 370.539 552.515 371.259 553.235 371.499 553.475 371.979 553.955 371.259 553.955 369.099 554.915 368.379 555.395 368.379 555.635 368.619 555.635 368.859 555.875 369.339 556.355 369.339 557.555 369.339 558.035 369.099 558.275 368.859 558.515 368.859 558.995 368.619 559.475 368.859 560.916 369.099 561.396 369.099 561.876 369.099 562.116 369.339 562.596 369.819 562.836 369.579 563.556 369.099 563.796 368.859 563.796 368.379 564.276 367.659 564.516 367.899 565.236 368.619 565.476 369.099 565.716 369.099 566.196 369.339 566.436 369.339 566.916 369.099 567.156 369.099 567.156 368.859 567.396 368.379 567.636 368.379 569.076 368.379 569.556 369.099 570.036 369.579 570.276 369.819 572.196 369.819 572.676 369.819 572.916 369.339 573.156 369.099 573.396 368.859 573.396 368.619 573.636 368.379 573.876 368.139 574.116 367.899 574.836 367.899 575.076 368.139 575.076 368.619 574.836 368.859 574.836 369.099 574.836 369.579 574.836 370.059 575.556 370.539 575.796 370.779 576.516 371.019 576.757 371.259 576.997 371.499 577.477 372.699 576.997 374.139 576.757 374.379 576.516 374.859 576.276 375.339 576.276 375.579 576.276 376.059 576.516 376.299 576.276 376.539 575.316 377.018 574.356 377.738 574.356 377.978 574.596 378.698 576.036 379.418 577.717 379.178 578.437 378.458 578.677 378.218 578.917 378.458 578.917 378.938 578.917 379.418 578.917 379.658 577.237 380.138 576.997 380.138 576.757 380.378 576.516 380.618 576.276 381.578 576.276 382.298 576.757 383.978 577.477 383.978 577.717 383.978 577.957 383.738 578.437 383.738 578.677 383.978 579.397 384.698 580.597 386.378 581.797 387.098 581.797 388.538 581.797 388.778 581.557 389.018 581.557 391.898 581.797 392.138 582.037 392.378 582.757 394.058 582.517 394.537 582.517 394.777 582.277 395.017 581.797 395.257 581.317 395.257 580.837 395.257 579.637 395.737 579.397 395.977 579.157 396.217 578.677 395.977 578.437 396.217 577.477 396.457 576.997 396.937 576.516 397.177 576.276 397.417 575.316 397.177 574.116 397.657 573.876 397.657 573.636 397.897 573.396 398.137 573.396 398.617 573.396 399.577 573.636 400.537 573.636 401.017 572.436 402.217 572.196 402.457 571.956 402.697 571.476 402.937 570.996 402.937 570.276 403.657 570.036 404.617 570.036 405.577 570.516 408.217 571.476 408.457 571.476 409.657 571.476 409.897 571.476 410.377 571.956 411.097 571.956 411.337 571.236 412.536 570.516 412.296 568.836 413.016 568.356 413.016 568.116 413.256 567.876 413.496 567.396 413.976 566.436 414.216 565.956 414.216 565.476 414.456 565.476 414.696 564.996 415.896 564.756 417.096 564.276 418.056 563.316 418.056 562.836 418.296 561.876 419.256 561.636 419.736 561.156 419.976 560.676 420.936 560.435 421.416 559.475 422.616 559.235 422.376 558.755 422.376 557.795 422.856 557.075 423.336 556.115 424.296 556.115 424.536 555.875 424.536 555.635 425.016 554.915 426.216 554.435 425.976 554.195 425.976 552.995 426.456 551.555 427.176 550.595 428.136 550.355 428.616 550.115 429.096 549.875 429.576 549.635 430.535 549.635 430.775 549.155 431.015 548.915 431.495 548.675 431.495 548.435 431.975 547.715 434.135 547.235 435.335 546.995 437.255 546.755 437.735 546.515 438.215 545.315 439.175 545.075 438.935 545.555 437.975 546.035 437.495 546.515 437.255 546.755 437.015 546.995 436.775 546.995 435.815 547.235 435.335 547.235 435.095 547.475 434.375 547.475 433.895 545.555 432.935 545.795 433.415 545.795 433.895 545.315 435.335 545.315 435.575 545.075 436.295 544.834 436.535 542.914 438.215 541.714 438.695 541.474 440.375 541.474 441.815 541.474 442.055 541.234 442.055 540.754 442.295 539.554 442.295 539.554 440.855 539.794 440.855 540.034 440.375 540.274 440.375 540.514 440.615 540.754 440.375 540.754 440.135 540.514 439.655 540.034 439.175 539.554 439.895 539.314 439.895 538.114 440.135 536.674 439.655 536.194 439.415 535.954 439.175 535.714 439.175 535.714 440.375 535.954 441.095 536.194 441.575 535.234 441.815 534.514 441.335 534.274 441.095 534.034 440.855 531.874 441.095 531.154 441.815 530.914 441.815 531.634 442.535 531.874 442.775 532.834 442.775 532.834 442.535 532.594 442.055 533.074 442.055 534.034 443.255 534.274 443.735 534.994 443.735 535.234 443.495 534.994 442.775 534.514 442.775 534.514 442.535 534.994 442.535 536.674 443.255 536.914 443.975 537.154 444.215 537.394 444.215 537.874 443.735 537.634 443.255 537.634 443.015 537.154 442.775 539.074 442.295 539.554 442.535 540.034 443.255 540.034 443.495 539.794 443.735 539.794 444.215 541.234 443.975 541.714 442.775 541.234 442.535 542.194 442.535 542.434 442.535 542.434 442.775 542.434 443.495 541.954 444.215 541.474 445.655 543.394 444.695 545.075 445.175 546.755 445.655 547.715 445.655 548.915 446.615 549.155 446.855 549.635 447.814 549.635 448.054 549.395 448.294 548.915 448.774 549.875 449.254 550.595 449.734 550.835 449.734 551.075 449.494 553.235 449.494 552.995 448.774 551.075 447.574 549.875 446.615 548.915 446.135 548.435 445.895 547.475 445.175 547.235 444.695 546.755 444.215 546.515 443.975 545.795 443.255 545.075 442.775 544.834 442.295 543.154 441.095 542.674 440.855 542.434 440.615 541.954 440.135 542.434 439.655 543.154 439.655 543.634 439.895 544.354 440.855 544.594 441.335 545.315 442.295 546.035 443.015 546.995 443.975 547.235 444.215 548.195 445.175 548.435 445.415 551.315 447.334 552.515 448.294 552.995 448.534 553.235 448.534 554.195 448.774 554.675 448.774 555.155 448.534 556.595 447.574 557.795 445.655 558.275 445.895 558.755 445.895 558.995 445.895 559.475 445.895 559.715 445.655 559.955 445.415 559.955 444.935 559.955 444.695 560.435 443.735 561.876 443.255 564.036 442.775 565.476 442.535 565.956 443.015 566.196 443.495 566.196 443.735 565.716 443.975 565.236 443.975 564.756 444.215 564.516 445.415 564.756 446.615 564.996 447.334 565.236 447.574 565.716 447.814 565.956 448.294 563.796 450.214 562.836 450.214 561.636 450.934 561.636 451.174 560.195 451.894 559.955 451.894 559.475 451.414 558.995 451.174 558.275 450.934 557.555 450.934 557.315 450.934 556.595 450.934 556.355 450.934 555.875 451.174 555.155 452.134 555.155 452.374 555.155 452.854 553.955 454.774 553.235 455.974 553.235 456.214 553.235 456.694 553.235 457.174 553.235 457.414 553.235 457.654 552.755 457.894 552.035 457.414 551.555 457.414 549.155 458.854 547.475 460.534 546.995 461.254 546.755 461.494 546.755 462.454 546.515 462.934 546.515 463.414 546.515 464.134 544.834 466.533 543.874 467.733 543.394 467.973 543.154 468.213 541.954 468.213 541.714 468.453 540.754 468.693 539.554 468.213 539.074 467.973 538.834 467.733 538.354 467.973 537.394 467.973 536.434 467.493 536.194 467.253 536.914 466.533 537.874 465.813 537.394 465.333 536.674 463.654 536.674 463.414 536.674 462.934 536.674 462.694 537.154 462.214 537.154 461.254 536.674 460.774 535.714 458.854 535.234 458.614 534.754 458.614 533.794 458.134 533.314 458.134 533.074 458.374 532.834 458.374 532.354 459.094 530.914 458.854 530.674 458.614 530.194 458.374 529.474 458.134 528.753 457.654 527.793 457.414 526.833 457.414 526.593 457.414 525.393 457.894 525.153 458.374 524.913 458.854 523.953 459.094 523.233 458.854 522.753 458.134 522.753 457.654 522.993 457.174 523.233 456.454 523.713 455.974 525.393 453.814 525.873 453.094 526.113 452.614 526.833 451.894 528.273 450.694 528.753 450.454 528.994 450.214 529.474 449.734 529.954 449.254 530.194 449.014 530.194 448.774 530.434 448.534 530.914 448.054 531.634 447.574 532.114 447.094 533.554 445.895 533.074 445.655 532.354 445.655 532.114 445.655 531.634 445.175 531.394 444.215 530.914 443.495 530.914 443.255 530.434 443.015 529.954 443.975 529.954 444.455 529.954 444.695 529.714 444.935 529.474 445.175 528.753 444.695 527.793 444.455 527.313 444.455 526.353 444.455 525.873 444.935 523.713 446.135 522.993 446.135 522.513 446.135 522.273 446.135 521.793 446.375 520.833 447.094 520.353 447.334 520.113 447.814 519.633 448.054 518.673 448.054 517.713 448.054 516.993 448.054 516.513 447.334 513.873 446.855 512.672 446.855 512.192 446.855 511.712 447.094 511.472 447.094 511.232 447.094 510.992 446.855 511.232 446.375 511.712 446.135 511.952 446.135 512.432 445.895 512.672 445.895 512.912 445.655 513.633 444.695 512.672 443.975 512.192 444.215 510.512 444.215 510.032 444.215 509.552 444.455 509.072 444.935 508.352 444.455 507.392 443.975 507.152 443.735 507.392 443.735 507.632 443.975 507.872 443.975 508.352 443.975 508.832 443.735 509.072 443.495 509.552 443.255 509.792 443.255 510.512 443.255 510.752 443.495 511.232 443.255 513.393 442.775 514.353 442.775 515.313 442.775 515.793 442.775 516.273 442.775 516.753 442.055 516.513 441.575 516.753 441.095 516.993 440.615 517.713 439.895 517.953 439.895 518.193 439.655 518.433 439.175 517.233 439.895 516.753 440.615 516.513 440.855 516.273 441.095 516.033 441.095 515.553 441.335 515.073 441.335 514.833 441.095 514.353 441.095 513.873 441.575 513.633 441.815 511.952 441.335 511.712 441.095 511.232 440.615 510.992 440.135 510.752 439.895 510.512 439.655 510.272 439.175 510.272 438.695 510.512 438.215 510.512 437.735 510.512 437.255 510.512 437.015 509.792 435.815 507.632 433.655 506.432 432.935 506.192 433.175 506.672 433.655 507.152 433.655 507.392 433.655 508.352 435.095 508.352 435.815 508.352 436.055 509.552 437.255 509.792 437.255 510.032 437.015 510.272 437.495 510.032 438.215 509.792 438.695 509.552 438.935 509.552 439.415 509.792 439.655 510.272 439.895 510.272 440.135 510.752 441.335 510.272 441.815 510.032 442.055 509.072 442.295 508.832 442.055 508.592 442.055 508.112 442.055 507.872 442.295 507.632 442.535 507.632 443.015 506.432 443.015 506.432 442.535 506.672 442.295 506.672 441.575 506.912 440.135 506.432 441.335 506.192 441.575 506.192 442.535 505.952 443.255 504.992 443.975 504.272 443.975 504.032 443.975 503.552 443.975 503.312 443.975 503.072 444.215 502.352 444.455 502.112 444.695 501.872 444.935 501.152 445.415 500.192 446.375 499.952 447.334 500.192 448.054 500.192 449.014 499.712 451.174 498.752 454.054 497.071 458.134 496.351 459.094 496.111 459.334 495.391 459.814 495.151 459.814 494.911 459.574 494.431 459.334 493.951 460.054 492.991 461.734 492.991 461.974 493.471 462.214 493.711 462.454 493.471 462.934 493.231 463.174 492.751 463.414 491.791 462.694 491.551 461.974 491.551 461.494 491.311 461.014 490.831 460.774 491.071 462.934 491.551 464.853 492.031 465.813 492.751 466.053 493.231 465.813 493.711 466.053 494.191 467.973 494.431 469.413 494.191 469.893 493.711 469.893 493.471 468.933 493.471 468.693 492.991 468.213 492.751 467.973 492.271 467.733 492.031 467.493 491.311 467.493 490.111 467.253 489.151 467.493 487.951 467.973 485.791 470.373 484.591 470.853 484.351 472.053 483.391 472.533 481.951 472.533 479.55 472.293 479.07 472.293 478.83 471.813 478.59 471.573 478.11 471.093 478.11 470.613 477.39 470.373 477.15 470.613"/>
</svg>
