<svg id="United_Kingdom" data-name="United Kingdom" xmlns="http://www.w3.org/2000/svg" width="612" height="792"
     viewBox="0 0 612 792">
    <defs>
        <style>.cls-1{fill:#fff;fill-rule:evenodd;}</style>
    </defs>
    <path class="cls-1"
          d="M173.531,279.1041h-.24v-.24l-.24-.24v-.96l.24-.24h.72l.24.24ZM130.5683,298.543l-.24-.24h-.48v-.24h.24l1.2-1.2.24.24v.96l-.72.48Zm59.2837,99.3543h-.24l-.96-.24v-.24l-.24-.24v-.48l.24-.24.24.24.96.24.24.24.24.24v.48Zm-54.0034-91.9148h-.24v-.48l.96-.72h.48l.24-.24.48-.24.24.24-.24.48-.24.24-.72.48h-.24Zm-2.4,1.44-.24-.24-.24-.24v-.72h.24v-.24h1.92v.48h-.48l-.96.48Zm10.3206-11.9993h-.24v-.48l.24-.48.24-.72v-.24l.48-.48.24-.24.24.24-.72,2.16-.24.24Zm32.8821-23.0387v-.48h.24l.96-.96.24-.24h.24l.96.24v.48l-.96.24h-.96l-.48.72Zm-42.7227,19.6789-.24-.24-.48-.48h-.24v-.48l.24-.24.48-.24.24.24h.24l.24.24.24.24v.72l-.48.24Zm6.24,8.8794-.24-.24-.72-1.2.48-.24.24-.24h.48l.48.24v.24l.24.24-.24.48-.24.48-.24.24Zm6.96,20.8788h-.24l-.48-.96-.48-1.68v-.24l.48-.48v.24l.72.72.24.72v.96Zm47.763-70.0759-.72-.24h-.24l.24-.48.24-1.2.48-.72h.72l.24.24v.72l-.72,1.44Zm-23.7615,26.1585h-.48l-.72-1.68.24-.48.24-.24h.48l.72.72v.24l.48,1.2v.24h-.96Zm21.3614-23.5187h-.24v-.24l-.24-.48v-1.2l.24-.24v-.24l.72-1.44h.48l.48.24-.24,1.2-.48,1.92-.24.24Zm-59.0437,41.9976-.24.24-.24-.24h-.96v-1.92l.72-2.64h.72l.24.48h.24l.24.72h-.24l-.24-.24-.24.24-.24,2.64Zm1.2-6-.72-.24v-.72l-.48-.24h-.48l-.24-.24-.24-.48.72-.72h.48l1.2.24.24-.24h.48l.96.96-1.2,1.68-.24.24Zm32.1621,116.6334-.72-.72-.96-.96h-.24v-.24l-.24.24h-.48l.24-.24.48-.24,2.16-.96h.24l1.68.96v.24l.24.48-1.2,1.2h-.24l-.24.24h-.72Zm-27.8418-88.075h-.48v-.24l-.24-.24v-.24l.24-.72v-.48l1.44-1.68.72-.24.96-.72.48-.24.48-.24v.72l-.24.24-.24.24-.24.24-1.2,1.44-.72.96-.48.72Zm5.76,6.96h-.48l-.48-.48-.24-.48v-.48l-.24-1.44.24-.24v-.24l.24-.48v-.24l.48-.24.48-.24h.24v.24h.24l.24.24v.24h.24v.24l.24,1.92-.24,1.44-.24.24Zm30.0019-48.9572-.24-.24-.72-.96h-1.2v.24h-.72l-.72-.72-.24-.48v-.72l.24-1.44.48-.24h.24l.48-.24.24.24.96.48.48.96v1.2l.72.48.48.48.24.48Zm-39.1225,44.8774v-.24l-.24-.24v-.48l.72-1.2.48-.96-.48-.24h-.24v.24h-.24v.24l-.24.24h-.24v.24l-.48.24-.24.24h-.24v-.48l.24-.48.72-1.92h.72l.48.24,1.2-.72h.72v.48l-.24.24v1.68h.24v1.68h-.24l-.24.24-1.68.72Zm9.1206,40.7977h-.48l-.48-.96v-.24l-.48-1.44.24-1.68.24-.24h1.44l.72.24.24.24h.24v.24l.24,1.2.72.24h.24l.48.24-.48.72h-.24l-1.2.72-1.2.48Zm-3.84-56.8767.24.24h.24v.24l.24.72v.48l.96.72.48.24.48.72.48.48v.24l-.24.48-.48.48v.24l-.96.24h-.48v-.24l.24-.24-.24-.24h-.24l-.72.48h-.48l-2.16.24-.48-.24-.24-.24v-.72h.24v-.24l.48.24.24.24.24.24,1.44-.24.48-.24v-.24l-.48.24h-.96v-.48l.72-.72h.48l.48-.24h.24v-.48h-.72l-.24.24-1.44-1.44-.24-.24.48-.72,1.2-.48h.48Zm46.803-47.9973h-.24v-.96l.24-.24h1.92l.72-.24.24-.24-.72-1.68-.48-.24-.48-.24h-.48l.24-.48.48-.48,1.2-.96.96-.24v.48l-.24,1.92v.24l.96.48.72.24-.24,1.2-.48,1.2-.48.24-.24-.24-.24.24.24.48v.48l.24.96h-.48l-.24.24-.24.24-.24,1.2-.72,2.64-.24-.24-.48-.48v-.24l.72-1.44.48-1.44.24-.24v-1.92l-.72-.48v.24l.24.24v.72l-.96.48-.24-.48-.24-.24v-.24l-.48-.24Zm-42.9627,41.5176h-.24l-.24.48-.48.24h-.24l-.24.24h-.24l-.24-.48.72-.96.24-.24-.48-.72-.48.72-.24-.24-.48-.72h-1.2l-.72-1.92v-.72l.48-.24h.24l.24.24v.24l.24.24-1.2-2.16-.48.48v.24l-.24.24-.48-.24-.48-.24v-.72l-.48-.48v-.24l.48-.72,1.44-1.44h.24v.24l.24.24v.48l.48.72.24.24.72-.24v-1.92l.72-.48h.24l.24.24.72,1.2v.72l-.24,1.2-.24.96v.24l-.24,1.44v.24l1.68,1.44.48-.24h.96l.72.48-.48.72-1.44.96v.24Zm-2.4-14.1592v.24l-.48.24h-.24l-.48-.24h-.24v-.24l-.24-.48v-.72l.24-.24.48-.24h.48l-.72-.24-.72.72v.72l.24.24v.96l-.72.72-2.16.96h-.24l-.72-1.68v-.24h.24v.24l.24.24.24-.24,1.92-.72-.24-.48-.48-.24v-.24l-.48-.24-.24.24-.48-.24-.24-.48.48-.24.24-.24v-.24l-.24-.48v-.96l.48-.96.48-.48h.48l.72.48-.24.24.24,1.44v-1.2h.72l.48.24v-.24l-.24-.48v-.96l.24-.24,1.2-.48v.24l.96-.24,1.92-.96.48-.24.24-.24v-.24h.24l.24.24.24,1.44-.48.72-.48.72-.48.24-.48.24v.48l.24.24h.72l.24-.24h.24l-.24.72-.72.24h-.72l-.48.24-.24.24-.96.48h.72l.24,1.2-.48.24-.72.48ZM127.4481,344.14v.24h-.24v-.24l-.24-.24-.24-2.16-.72-1.68v-.96l-.24-.48v-.24l-.24-.24-.48-.48h-.24l-1.2.96-.48.72.24.48v.48l-1.68,1.2-.24.24h-.24l-1.92-.72-.48-.48v-.24l-.48-.72-.48-.24h-.72l-.24-.24v-.72l.24-.48-.24-.24-.48-.24-.48-.96v-.24h-.24v-.24l-.48-1.2v-.24l1.2-.48.96-.24h.96l.96-.48v-.48l-.72-.24-.24-.48-.24-.24v-.48l.96-.24h.24l.48.48,1.92-.24.96-.96.24-.24.24-.48.48-.96,1.2-1.2.72-.24-.24.24,1.44.48.24.24.24-.24.24-.24.48-.48.24-.72h.72l.72.24h.72l1.2-.24.96-.24,1.2.24h.24l.72.72h.96l.24.24.48.24v.72l-.24.72v.72l.96,2.88.48.72h.24l.24.24v.24l.24.48-.24.72-.24.24-.48.24v-.24l-.24.24h-.24l-.48.24h-.24l-.24.24-.24.48v.48h.24v-.24l.24-.24.48-.24h1.68l.24.24h.24l.24.48v.24l.24,1.68.24.72-.24.48-.48.96-.48.24-.24-.48.24-.24v-.96l.24-.48-.24-.24-.24-.48-.24-.24-.24-.24h-.24l-.24.48.24.24.24.48.24,1.92v.48l-.24.96-.24.24-.24.24-.48.24v-.24l-.24-.24h-1.68l-.24.24v.72l-.24.72-.24.24-.24.24-.48.24-.72.24h-.48l-.24-.24-.48-.72v-.24l-.72-.24v-.24l-.48-.24h-.24v.24l-.96.48-1.2-.24Zm17.5211-5.28-.48-.24-.24-.24v-1.2l-.24-.72-.24-.24-.24-.48-.24-.24v-.48l-.24-.24v-1.2l.24-.96.24-.24h.48l.48-.24.72-1.2.24-.24.24-.24.24-.24.96-.48.24-.72.24-.72.96-1.2.24-.24h.96l.24-.72v-.48l-.24-.72v-.72l-.24-.24-.48-.24-.24-.48-.24-.48h-.24l-.24-.24v-.24l1.2-3.6h.72l.24.24.48.24.96.48h.72l-.96-.48-1.2-.96h-.24l-.48-.24v-.72l.24-.48.24-.24.24-.24h-.48l-.24.48-.48,1.2v.48l-.24.24-.48.72-.24.24h-.48l-.48-.72-.48-.48h-.24l-.24.24-.24.48.24.48-.24.24-.48-.48h-.24v-1.2l.48-1.2.48-.48.96-1.2,1.2-.72.96-.48.24-.24.24-.24-.96.24-1.68,1.2-.48.24-.24.24-.24.24-.24.24v.24l-.48.24-.48.24h-.24l-.24,1.44-.24,2.4-.24.24-.48.48v.24h-.24v.24l-.24.24-1.44,3.36.24.48v.48l-.24.24-.48.48h-1.68v-.24h-.24v-.24l.24-.72v-.48l.48-.24.24-.24.24-.24.24-.96.24-1.2.48-.96.96-1.44-.24-.48-.24-.24.24-1.44h.24v-.48h.24l.24-.48.72-.72v-.24h-.48l-.48.72v-.24l.48-.72v-.24l.48-.24.48-.48.48-.72v-.24h-.24l-.24.24h-.24l.24-1.44.48-1.2.72-.48v-.24l.72-.48h.96l.24.24h.96l.72-.48.24-.24v-.24l.48-.72-.24.24v.24l-.24.24-.72.72h-.48l-.96-.48-.48-.24.48-.72v.24h.24l.96-.48h-.96l-.24-.24v-.24l.96-1.2.72-.72.72-.48.48-.48.24-.24h-.48l-.24.48-.48.24-1.44,1.2-1.92,1.44-.48.24-.72.24v-.24l-.72-.72h-.48l-.48-.24v-.24l-.24-.24-.48-.72v-.48h4.08l-1.44-.48-.24-.24-.24.24h-.48v.24h-.72l-2.16-.72h-.24v-.72l.48-.24h.24l1.68-.24v.24h.24l.24.24.24.48.72-.72-.24-.24-.24-.24v-.24h.96l.24.24.72-.48h-.24l-.48-.48h-1.2l-.24-.24,1.2-1.68h.72v.48h.24l.24.24.24.24h.72l.24-.24h-.96v-.24l-.96-.96v-.24l.24-.24.48-.48.24.24h.72v.24h.24v.24h1.44v-.24h-.72l-.48-.24-.72-.72.24-1.2h.48l.48-.24v.24l.48.24v.24h.24l.24.24.24-.24-.72-.96-.48-.24-.24-.72h.24l.48-.24h.48l.24-.24v-.24l.24-.24h-.24l-.24.24-1.2.24h-1.44l-.24-.24v-2.16l.48-.96.24-.24.48.24v.24l.72.96.24-.24h.96v-.24l-.96-.24h-.24l-.24-.24-.72-1.44.72-2.64.24-.72h.72v.24l.24.24v1.2l.24.24.48-.96v-.24l-.24-.24v-.96l.24-.24,1.2,1.44.24-.72h.96l.72.48.72.48v.24l.24.24v-.24l-.48-1.44-.48-.48-.96-1.2v-.24l-.24-.48v-.24h.48v.24l.24.24.24.24h.24l.24-.24v-.48l.24-.48-.24-.24-.48-1.68h.24l1.44.48h.96v-.24l-.24-.24-.24-.72v-.48l.96-2.16,1.2-1.68,1.92.72.48.96v.48l-.24.24-.24.24-.48.48h.24l.72-.48.72-.48v-.48h.24v-.24h.24l.24.24.24.24.24.24v.24l1.2.24h1.68l1.44.24h.96l.48-.24.24-.24h1.2l.24.24,1.44.48v-.48l.24-.48,1.44.48,1.2.24-.96,2.88-.48.96-.24.24-.72.96-1.2.24h-.48l-.24.24-.24.24-.24.48-.24.24-.24.24-.72.24-.96.48-1.44.96-1.68.72v.72l-.24.48-.96.24-.96-.48-.96-.72h-.24l.24.72.48.24,1.2.48.72.48.96.24h.72v-.24l.24-.24.24-.24.24.24v.24l-.48.48-.48.48-.96.72h-.24v.24h-.24v-.72h-.72l-1.68.48-1.2.96-.24.24v.24l.48-.24.24-.24.24-.24h.24l.48-.48h.48l.96.24.24.48-.72.48-.72.48-.24.24-.24.24-.24.48h.24l.24.24v-.24h.24l1.2-.72,2.64-.48h1.2l.72-.24.24-.24v-.48h1.92v.24l.24.24.24.24.72.48h.24l.48.24.48-.24h.24l.24-.24h.72l.48.24,1.2.48.48.24.48.24h.48l.48.24,1.68.24h.24l.24-.24v-.24h.48l.48.24.72.48.48.96.24.72v1.92l-.72.72-1.2.96v.24l-.96,1.2-.24.24v.24l-.24.72v.24l-.24.96-.96.96-.24.24v.96l-.24.24-.24.48-.96.96h-.24l-.48.24-.24.24-.72.48.24.24v.24l-.48,1.2-.48.48h-.24l-.96.48-.72.48-1.44.24h-.72l-.72-.24h-.24l-1.92,1.2v.24h.24l.48-.24,1.92-.48.48-.24.24-.24h.24v.24l.48.24h.24v.24l-.24.24v.48l-.24.24.24.24.24.24.24.24h.48l.24.24.48.48v.24l-.96.72-1.2.24h-.48v-.24h-.24v-.24h-.72l-1.68,1.2-.24.24-1.68.72h-.72l-.24-.24-.48-.24-.48-.48h-.24l-.96-.24h-.24v.48l.48.48h.24l1.44.48,1.68.72,1.44.48.24.24h.24l.96-.24h.24v-.24l.48-.48.24-.48h.48l1.2.24.24.24.72.96,1.2.72.72.96,1.2.48.24.48v.24l.24.24.24.48v.48l.24.48.72,1.68.24.48h.24v-.24l.48.24.24.48.48.48.24,1.68v.96l-.24.24v3.84l.24,1.2.24,1.44.24.24v1.68l.24,1.68.96,1.92.72.72.24.24,1.44.72,2.64,1.92.24.48.48,1.2v.48l.24.24v1.2l.96,1.44.48.48.48.24.24.24.48.24-.48.24h-.48v.24l-.48.24v.48h-.24l.24.24v1.44l.24.96.24.24.48.72.24.72.48.96.48.96.24.24v.48l-.24.24-.24.24.24-.24v-.24l-.24-.24v-.24h-.24l-.24-.24h-.48l-.24.24h-.48v-.24h-.24l-.24-.24-.24-.48-.48-.96-.24-.24h-.96l-.48.24h-1.2l-.24-.24v-.24h-.96l-.48.24.24.24,1.68.24h.48l.72-.24.72.24h.24l.24.24v.48l.24.24v.24l.72.96.24.24.96.96.48.48.48.24.24.24.48.72v.72l.24.24v.24l.48,1.92v1.44l-.48.72-.48.24-.72.48-.48.24-1.44,1.2-.48.72h.24l.48-.24.24.24.24.24h.24l.24.24v.24l.24.72h.24l1.2.48.72-.48v-.48l.24-.24.48-.96.48-.48h1.2l2.16.48v.24h.96l1.68.48.96.24.24.24.24.24h.24l.24.24.24.24.24.48.48.24.24.24.96.96.24.48v.48h.24v2.88l-.24,1.2-.24.72v.24l-.48.96-.72,1.92-.24.24-.48,1.44-2.16,1.44-.48.72-.24-.24-.24-.72v-.24l-.96-.48.24,1.2.48,1.2h.24l-.24.24-.24.24-.24.48-.24.24h-.24l-.48.24h-.96v-.24l-.24-.48-.24-.24-.48.24-.72.24-1.44.72h-.24l.48.48.96-.24h.24l.24-.24h.24l.24.24-.24,1.68-.48.48-.24.24-.72.48h-.48l-.72-.24h-.48l-1.68.24h-.24l-.72.72h.72v-.24l.24-.24h1.2l.96.48.24.24-.24.24h-.72l-.72.24v.48h.48l.72.24,1.92.96h.96v-.24h.48l.24-.24h1.2l1.92.24.24.96-.48,1.92v.48l-.24.24-.24.24-.96.48h-.48l-1.2.24h-.24l-.48.24-.48.48-.24.24v.48l-.24.24.24.24h-1.2l-.48-.24h-.24l-.72.48h-.24l-.24.24-.24.24h-.96l-.72.24h-1.2l-.24.24-.48.24v.24h-.24l-.24.24v.24h-.48v-.24l-.96-.24-.24-.24-.24-.24-1.44-.72-.48-.24h-.48v-.24h-4.32l-.48.24h-.72l-.24.24v.24h-.48l-.96-.72.24-.24.24-.24-.48-.72-1.44-.24h-.72l.24.48-.24.48-1.92-.48-.72.24-1.92.24h-.24l-.48-.24h-2.64l-.72-.24-.24-.24-.24.24-.24.24.96.48.24.24v.48l-.24.48h-.96l-.72-.48-.72-.24-1.68-.72h-.48l-.24.24-.24.48v.24l.24.24v.24h-.24v-.24l-.24-.72-.48-.48-.96-.96-.24-.24h-.24l-.48-.48-.48-.24-.24-.24h-.96l-.24.24h-2.88l-1.68.48-.24.24-.24.24-.48.48-.24.24-.72,1.44-1.44,2.88-.48.24h-.48l-.48-.24h-.24l-.24-.24v-.48l-.24-.48-.48-.72h-.48l-.24.24h-.48l-.48-.72-.48-.72-2.16-.24h-.48l-.24.24h-.96l-.96-.24h-1.2l-1.2.96-.96.48h-.96l-.24.48-.24.96v.48l-.24.24h-.24l-.72.24-.24.24-.24.48-.24-.48h-.24v-1.44h-.24l-.24-.48-1.2-.72-.24-.24h-.24l-.24.24v.24l-.24.24-.24.24h-1.2l-.24-.48.24-.96.24-.24,1.68-.48h.24l.24-.24.24.24v.24l.24.24,1.92-.96,1.44-.96,1.2-.96.48-.72-.24-.24.48-.72,1.2-.24h1.2l.24-.24.24-.48.24-.48.48-.24.48-.24.96-.72.24-.24v-.24l.24-.24v-.48l.24-.96.48-1.44.48.24h.48v.24l.48.24h.72l.72-.72.24-.24.24-.72v-.96l.24-.24h1.44l.72.24h1.92l.96.24.48.24h.72l.48.24.72.48.24.24h.24v.24h.72l2.64.24.48-.96v-.72l.72-.96,1.2-.72.96-.72,1.44-.96,1.2-1.2.96-.96h.72l.24-.24-.24-.24-.72.24-1.2.96-.72.24-.24.48-.24.24h-.24l-.24.24-1.2.24h-1.92l-.96.48-.48.48v.24l-.24.48-.96.24-.72-.24h-.72l-.24-.24-.48-.24h-.48v-.24l-.96-1.2-.72-.96v-.72l-.48-.96h-1.2l-2.4.72h-.24l-.24-.24-.24-.24v-.96l.48-.24h.24v.24h.96l.48-.24.24-.24-1.2-.48h-.72l-1.44-1.2-1.44-.24h-.96v.24l-.24.24v.24l-.24.24-.72.24-.24-.24-.24-.24-.24.24h-.24l-.72.48-.48-.24-.48-.24v-.24l.48-.72h1.2l.48-.24v-.24l-.24-.24v.24l-.24.24-.96-.24h-.48l-1.2-.48-.24-.24h-.24l.96-.48h.48v-1.2l-.48-.48h-.72l.48-.72,1.44-.48.24-.24v-.24l2.4.24.72-.72h.24v-.24l.24-.24h.24l.48-.24h.48l.24.24h.96l2.16-.96.72-.24.24-.24.72-.72.24-.24.48-.72.48-1.44v-.96l-.24-.96.48-.72.48-.72v-.24l-.48-.96v-.24l.24-1.2.24-.24v-.48h-2.64l-.24.24h-.48l-.24.48-.48.48-1.92-.24h-.24l.24-.48.24-.24.96-.72.24-.24.48-.24h.48l.24-.24.48-.24,1.2-.72.24-.48.24-.72,1.44-1.2.48-.24h.24l.24.24h.96l1.44-.48,1.2.24h.24l.72.24h.24l1.44-.24.72-.24h.48l.96.96.72.72.24.24v-.24h.24l-.24-.96-.24-.48-.24-.24v-.48h1.44v.48l.24.24.24.96h.24l.24.48h1.44l.48-.72h-.72v.24h-.72l-.24-.24-.48-.48-.24-.24-.24-.72v-.24l-.48-2.16.24-.24.24-.24.96-1.44.48-.24h.48v-.24h-.96v-.24h-.24v-.24l-.24-.24v-.24l.24-.24.24-1.68.24-.24.96-.24.48-.72.72-1.2.48-.72.24-1.44-1.2.96-2.4.72-.48-.24v-.24l-.96-2.4-.24-.48v-1.2l-.24-.48v-.48l-.24-.24-.24-.48-.48-.72v-.48l.96-1.92,1.68-2.4.48-.72.24-.24.96-.48v-.24h.72v.24h.24l.24.24h.96l.24-.48h-.24v-.24l-.24.24h-.72l-1.92-.48h-.24l-.48-.48-.96-.24-.24.48-.48,1.2h-.24l-.48-.24-1.2.48-.48.48-.96.48h-.24l-.96-.24-.48-.24-1.44-1.68-.24-.48v-.24h-.24l-.24.24v.96l.24.96v.96l-.24.24h-.48l-.72-.48-.48-.72v-.24l-.24-.48-.48-.48-.48-.48-.48-.48v-.24h-.72l-.48.24-.48.48.24.48v1.2h.24v1.2Z"/>
</svg>
