<svg xmlns="http://www.w3.org/2000/svg" viewBox="0 0 792 612">
    <defs>
        <style>.cls-1{fill:none;}.cls-2{fill:#fff;}</style>
    </defs>
    <g id="bounds">
        <ellipse class="cls-1" cx="601.0271" cy="455.6121" rx="17.2992" ry="39.411"
                 transform="matrix(0.5, -0.866, 0.866, 0.5, -94.0581, 748.3108)"/>
    </g>
    <g id="Bahamas">
        <path class="cls-2"
              d="M582.0161,450.2625h1.44l.72,1.2.48.96.48.48.24.24h.24l.48.96.24.48v.72l-.48.24-.24.24v.24l-.96,1.2h-.24l-.24-.48v-.24h-.24l-.96-.48-.48-.24h-.72l-.24-.24-.24-.48.72-.72.24.24-.24.24v.24l.48.24h.24l.24-.48-.72-.72v.24l-.24-.24v-.48l.24-.48.24-.24v-1.68l-.24-.24-.24-.48Zm38.6411,24.9612h-.24v-.24l-.24-.48.24-.72v-.24l.72-.72.72-.24h1.2l.72-.48v-.24l.24-.72v-.24l.24-.24h.24l.24,1.2v.24l-.48,1.2v.24h-.24v.24l-.96.48-.96.48h-1.2Zm-33.8409-18.7209h.24l.24.24v.24h-.24l-.24.48-.24.24.24.96h.24v-.24h.24v-1.2l.24-.24h.24v.24l.24.24h.24l.48,1.44v1.44l-.24.24h-.24l-1.2.24.24-.24h.48v-.24l.48-.48v0l-.24.24-.48.24h-.24l-.72-.48-.72-1.44v-.72l.96-.96Zm-5.52-19.681v-.24h.24l.48-.24h1.2l.24-.24h.48l.48.24h.24l.24.48,1.2.72.24.24h.72l.48.24h.24l.24.24.24,1.2v.24l-.24.24v.24l-.24.24h-.24v.48l.24.96v.96l.24.24v.24h-.72v-.48h-.24l-.72-.24.48-.48.48-.72-.24-.72-.24-1.44v-.24h.24l.24-.72v-.24h-1.44l-.24-.24-1.2-1.2-.24-.24h-.24l-.24.24h-2.16Zm-4.56,4.32h-.48l-.48-.24-1.2-.72v-.24l.72.24.24.24h.96l.24-.24.24-.72v-.24l.48-.24h1.68l.24-.24.48-.24h.48l.96-.24v-.24h.24v-.24h.24v.96h-.72l-1.44.48-.48.24-.24.24-1.2.72-.48.24Zm14.88,3.84h.48v.48l1.2.48.96.24.48-.24v.24l.24.24,1.44.72.24.24v.48l.24,1.68v1.2h-.24l-.96-.48-.24-.24.96-.48.24-1.2-.24-.48v-.24l-.24-.24-.24-.24h-.48l-.48-.48-.24-.24v-.24h-1.68v-.24h-1.2Zm22.5607,21.6011v-.24l.48-.72.72-1.2.72-.72h.24v-.24l.24-.24-.24-.24v-.24h-.72v.24h-.24v-.24h-.24l.24-.48.24-.24.24-.24.48-.24.24,1.44v.48l-.48,1.2-.24.24-.72.48-.24.48-.24.24Zm-11.52-12.7206h-.24l-.24-.24.48-.24-.24-.72-.24-.48h-.24v-.24l-.72-.48v-.24l-.48-.48-.48-.24-.24-.24h-.24l.24-.24h.72v.24l.24.48h.24l.48.96.48.24.24.24h.48l.72.72.24.48h-.48l-.48.24Zm1.92,3.12v.24h.24l1.68,1.92v.24l.24.24v.48l.24.24v.24l.24.24h.96l.72.48v.24l.24.48v.48l-.48-.72h-.24l-.24-.24v-.24l-.24-.24h-1.2l-.48-.24h.24l.24.24h.24v-.24l-.24-.24-.24-.72v-.48l-.24-.24-.48-.24-.72-.48-.48-.96Zm10.08,5.52h-1.44l-.48-.48v-.24l.24-.24h.48l1.68.48-.24.48Zm9.84.24h-.24l-.48-.24h-.96v.24h-.24v.24h-.96l.24-.48.24-.24h2.64v.24Zm-36.961-12.0006h-.72v-.24l.24-.24.24-.24h.24l.48-.24h.72v.24l-.48.24-.72.24Zm21.8406,1.68v-.24l.24-.24.48.24v.48l-.24.72h-.48v-.96Zm-9.84,6,.24-.24.48.24,1.2.72-.24.24-.72-.48h-.72l-.24-.24Z"/>
    </g>
</svg>
