<svg xmlns="http://www.w3.org/2000/svg" viewBox="0 0 792 612">
    <defs>
        <style>.cls-1{fill:#fff;}</style>
    </defs>
    <g id="Belize">
        <path class="cls-1"
              d="M515.7743,514.8257v.24l-.24.24v.48h.96l.72-.24.24.72v1.2l-.24.72v.48l-.24.24-.24.48v1.44l-.24.24v.24h-.24l.24.48.72.48-.48.24v.48l-.24.72v1.2l.24.48v.24h.24l.24.72v.24l-.24.24v.96l-.24,1.2-.24,1.2v-.96l-.24.48v.48l-.96,1.68-.96.24-.48.48h-.24l-.24.72-.48.72-.48.48v.24l.24.48h-1.92l-.48.24v-8.64l-.24-2.4-.24-3.12v-.72l-.24-.96.24-.24.48-.24h.48v.24l.96.24.24.24.48-.72.24-.72.24-.48v-.48l.72-.48v-.48l.48-1.2.24-.24.48-.24h.96Zm3.12,3.36v.48l-.24.24-.24.24h-.24l.72-2.16h.48l-.24.72Zm.48,5.52h-.24v-.24l.24-.72.48-1.2h.24l.24.24v.24l-.24.48h-.24v0h-.24l-.24.24v.96Z"/>
    </g>
</svg>
