<svg xmlns="http://www.w3.org/2000/svg" viewBox="0 0 792 612">
    <defs>
        <style>.cls-1{fill:#fff;}</style>
    </defs>
    <g id="Chihuahuan_Desert">
        <path class="cls-1"
              d="M382.0906,395.06l-.24.24-.24.24v.24l-.24.24v1.68h-.24v.48h-.24v.48l-.24.24v.24h-.24v.24h-.24v.24h-.24l-.24.24h-.48v1.44h-.24v.24h-.24v.24h-.24v-.24h-.96v.24h-.24v.24l-.24.24v.48h-.24v.96h-.24v2.64h-.24v.96l-.24.24v.48h-.72v-.24h-.24v-.48h-.24v-.48h-.24v-.24h-.48l-.24.24v.24h-.24l-.24-.24-.24-.24v-.48h-.24v-.24h-.48v-.24h-.24v.24h-.48l-.24.24v.24h-.24v1.44l-.24.24v.24h-.72v-.24h-.24v-.24l-.24-.24v-.48h-.24v-.48h-.24v-.24h-.24v-.24h-.24v-.24h-.24v-.24h-.24v-.24h-.48v-.24h-.48l-.24-.24h-.48v-.24h-.24v-.24l-.24-.24v-.24h-.24v-.24h-.48v-.24h-.72v.24h-.72v-1.2l.24-.24v-.48h.24v-.72l-.24-.24h-.24v.48h-.24v.72h-.24v.24h-.24v-.24h-.24l-.24-.24h-.24v-.24l-.24-.24h-.24l-.24-.24-.24-.24h-.24l-.24-.24-.24-.24-.24-.24v-.24h-.24v-.24h-.24l-.24-.24h-.48l-.24-.24h-.24l-.24-.24h-1.92v.24h-.24l-.24.24h-.24v1.44l-.24.24h-.96l-.24-.24-.24.24v.24h.24v.24h.24v.24h1.68v-.24h.24l.24-.24.24-.24v-.24h.24l.24-.24.24-.24h.24l.24.24h.24v.24h.48l.24.24h.24v.24h.24v.48h.24v.72l-.24.24h-.24l-.24-.24v.48l-.24.24v.72h.72l-.24.24v.24h-.24v.48h-.48v-.24h-.24v-.48l-.24-.24-.24-.24h-.24v-.24h-1.68l-.24-.24h-.48v.24h-.24v-.24h-.48v-.24h-.48v.24h-.48v.24l-.24.24v1.68h-.24v1.2h.24l.24-.24h.72l.12.12.12-.12v-.24l.24.24.24.24v.24l.24.24h.24v.24l.24.24v.48h-.24v.24h-.48v.24h.24v.24l.24.24v-.24h.48l.24.24h.24v.24l-.24.24-.24.24v.48l.24.24-.24.24-.24-.24-.24-.24v-.48l-.24-.24v.72l.24.24v.24l-.24.24v.24h-1.44v.24h-.24v.24h-.24v.24l-.24.24v.24h-.24v.24l-.24.24-.24.24h-.24v-.24h-.24v-.48h.24v-.24l.24-.24v-.24l.24-.24v-.48h-.24v-.48h-.24v-.24h-.48l-.24.24h-.24l.24.24.24.24v.72h-.24v.24l-.24-.24h-.24v-.48l-.24.24v.72h-.24v.48h-.24l-.24.24v-.24h-.24v-2.4h-.24v.24h-.24l-.24.24v.48l.24.24v.24l-.24.48-.24.24h-.24v.24h-.24v.72h-.24v.48l.24.24h.48v.96h-.24v.24h.24v.24h.48v.48l.24.24v-.24l.24-.24h-.24v-.24h.24v-.24h.24v-.24l.24.24h.24v.48h-.24v.48l.24-.24v-.24h.24l.24.24v-.48h.24v-.72h-.24v-.48h.72v.24l.24.24v.48l.24.24h.24l.48.24h.72l.24-.24v-.48l.24-.24v-.24l.24.48.24.24v.24l.24.24v.96h.24l-.24.24h-.24l.24.24v.24h.24v-.72h.24v-.48h.48v.24h.24v1.2h.24v.24h.24v.24l.24.24.24.24v.72h-.48v-.24l-.24-.24v.24h-.24v-.24h-.24v-.24l-.24-.24-.24.24v-.24h-.48v-.48l-.24-.24h-.24v-.24l-.24.24v.24h.24v.48h.24v.24h-.24v.24l.24.24h-.24v.72h-.24v-.24h-.72v-.24l-.24-.24v-.24l-.24-.24h-.24v.24h.24v1.2h-.24v.24h-.24v.24l-.24.24v.24l-.24.24v.48l.24.24v.24h.48v.72l.24.24h.24l.24-.24v-.24h-.48v-.96h.24v-.24h-.24v-.72h.24v-.24h.24v-.24l.24.24v.24h.24v.48h-.24v.72h.24v-.24h.24v-.24h-.24v-.24l.24-.24v-.24h-.24v-.24h.24v-.48h.48v-.72l.24-.24h.24v-.48h.24l.24.24v.24h.24v.24l.24.24-.24.24v.24h.48v.72h.24v.24h-.24l-.24-.24v.72h.72v.96l.24.24h-.24v.24h-.48v.24h.24v.24h-.24v.24h.24v.24h-.24v.24l-.24.24v.24h1.2v.72h.24v.96h.48v.72h.24v.24l.24.24v.24h.24v-.24h.24v.24h.24v.24h.72v1.44h.24v1.68l-.24.24h.24v.24l-.24.24h.24v.24h.72v-.24h.24v-.48l.24-.24v-.24h.24v-.24h.24v-.96l-.24-.24v.24h-.24v-.24h-.24v-.48h-.24v-1.2l-.24-.24v-.72h-.24v-.48l.24-.24v-.24h-.24v-.96h.24v-.24h.24l-.24-.24v-.24l-.24-.24v.48h-.48v-.96h-.24v-.48h-.24v-.24h-.24v-.24h.24l.24-.24h.24l-.24-.24v-.24h-.24v-.96l-.24-.24h-.24v.24h-.24v.24h-.24l-.24.24h.24v.24h-.48v1.2l-.24.24v-.72l-.24-.24v-.24h-.24l-.24-.24v-.48h-.24v-1.44h.96v.24h.24v.48h.24v.24h.24v-.72h-.24v-.24h-.24v-.24h-.24v-.24h.24v-.24h.48v-.48h.24l.24-.24v.24h.24v-.24h.48l.24.24h.24v.24h.24v.48h-.24v-.24h-.24v1.68l.24.24v.24h.24v.48h-.24l.24.24v.24h.24v.48h.96l.24.24v-.48h.24v.48h.24v.72h-.24v.24h-.24v.24h-.24v.96h.24v.24l.24.24h.24v.24h-.24v.24l.24.24-.24.24h-.48v.24h-.24l.24.24h-.24v.24h.24v.48l.24.24v-.48l.24-.24v.24h.24v.96h.48v-.48h.48v-.24h.48v-.24h-.24v-.24l.24-.24v-.96h-.24v-.48h-.24v-.72l-.24-.24.24-.24v-.24h-.24v-.96l.24-.24h.24v-.24h.24v-.96h.48v.24h.24v.24h.24v.72h.24v.24h.24v1.92h.24v.48h-.24v.24h.48l.24.24v-.48h.24l-.24-.24.24-.24v-.96h.24v-.24h.24v.24l.24.24v-.48l-.24-.24v-.24h-.24l-.24-.24h-.24v-.96l-.24-.24v-.96h.24v-.24l.24.24h.48v.48h-.24v1.2h.24v.24h.24v-.24h.24v-.48h.24v-.24h.24v.24h.48l.24.24v.24h.24v.96h.48v-.48h.48v.24l.24.24v.48h.48v.48h.24v.48l.24.24v.24h-.24v.24h.24l.24.24v1.2h.24v.72h.24v-.24h.24v-.24l.24-.24v-.24h.24v.24h.48v.24h.24v-.72h.48v.96l-.24.24.24.24v.48h.24l.24.24v.24l.24.24h.24v.48h.24v.48h.24v.48h.24v.24h.24v-.24h.24v-.72h.24v-.24h.24v.48h.24v-.72h.48v.24h.24v.24h.24v.96h.24v.24h-.24v.48h.24v1.2h.24v.48l.24.24-.24.24v.24l-.24.24v.24h-.24v.48l.24.24h-.24v.96h.24v.24h.24v-.24h.24v-.48l.24-.24v-.24h.24l.24.24.24.24.24.24.24.24h.24l.24.24v.24h.24v.24h-.24v.24h-.48v-.24l-.24.24v.24h-.24v.48h-.24v.72h-.24v.48h-.24v-.48h-.24v-.72h-.48l-.24-.24h-.24v-.24h-.24v.24h.24v.48h-.24v.72h.24l.24.24v.24h.24v.24h.24v.72l.24.24v.24h-.24v.24h.24v.72h.24v.24l-.24.24v.24h-.48v-.48h-.24v-.24l-.24-.24v-.48h-.24v-.24h-.24v-.24l-.24-.24-.24-.24h-.24l-.24-.24h-.24v-.24h-.24v-.24h-.24v-.24h-.48v-.24h-.24v-.24h-.24v-.48h-.24v-.24h-.24v.72h.24l-.24.24h.24v.48h.24v.48h.96v.24l-.24.24v.48h-.48v1.2h.24v.24h.24v-.24h.24v-.24h-.24v-.72h.48v-.24h.72v.48h.24v.48h.24v.48h.24v.24h.48v.96h.24v.48h.48v.24h.24v-.48h.24v-.24h.24v-.96l.24-.24v-.24h.24v-.72h.24v-.24l.24.24h.24v-.24h.24v-.24h.48v.24h.24v.24h.24v-.48h-.24l-.24-.24h-.24v-.24h.24v-.24h-.24l-.24-.24h-.48v-.24h-.24v-.24l-.24-.24v-.48h.48v-.24h.48v-.24h.24v-.24h-.24v-.24h.24v-.24h.24v-1.44h-.24v-.72h.24v-.48h-1.2v-.24h.24l.24-.24v-.48h-.24v-.48h-.24v.24h-.24v.24h-.72v-.24h.48l.24-.24h-.72l-.24-.24h.24v-.24h.24v-.24h-.24v-1.44l.24-.24v-.48h-.24l.24-.24v.24h.48v.48h.24v.48h.72v-.24h.24v.24h.24v.24l-.24.24h.24v.24h.24v.24h.24v.24h.24l.24.24h.24l.24.24v.72l.24.24v.24h.24v.96l-.24.24h.24v.48h.24v.24h.24v.24h-.24v.96h.24l-.24.24v.24h-.24v.96h.24v.24h.48v.72l.24.24h-.24v.72h-.24v.24h.24v.72h-.48v-.72h-.24v.24h-.48l-.24-.24h-.24v1.2l-.24.24h.24v1.2h.24v.24h.24l.24-.24h-.24v-1.44h.24v.24h.48l-.24.24v.48h.24v.96h-.24v.48h.24v.24l-.24.24h-.24l-.24-.24h-.24v-.24h-.24v-.48h-.24v-.24l-.24.24v.24h.24v.24h-.24v.24h-.24v.24l-.24.24v-.24h-.24l-.24-.24v-.48h-.24v-.48h-.24v.72h.24v.48h-.24v-.24h-.24v-.24h-.24v.72h.24v.48h.48v.24h.24v.24h.24v.72h.48v-1.2h.24v-.24h-.24v-.24h.96v.96l.24-.24v.48h.24v.24h.24v.48h-.48v.48h-.48v.24h-.24v.24l-.24.24v-.24h-.48v-.24h-.48v.24h.48l.24.24v.24h.72l.24-.24v.24h.24v.24h-.48l-.24.24v.48h-.24v.48l.24.24v1.2h-.24v.96h.24v.48h.24v.24h.24v.48l.24.24.24-.24v-.24h-.24v-1.2h.24l.24.24h.72v-.24h.24v.24h.24v.48h.24v-.96h-.24v-.24h-.24v-.72h.24v.24h.48v.48h.24l.24.24h.72v.24h.48v-.24h-.24v-.24h.72v.24l-.24.24v.24l.24.24v.48h-.24l-.24-.24v.24h-.24v.24h-.24v.24h.24v.24l.24.24h.24v.24h.24v.24h.24v.24h.24v.24h-.24v.24h.72v.24h.24v-.24h.48v.48h.48v.72l.24.24h.72v.24l-.24.24h-.24v-.24h-.48v.48h.24v.24h.24v.24h.72v.72h.24l.24.24h.48v.24l-.24.24v.48l.24.24v.48h.48v-.24h.24v.24h.24v.24h.24v.24h.24v.72h.24v.24h-.24v.48h-.24v.24h.24v.24h.48v.72l-.24-.24-.24-.24h-.24v-.24l-.24-.24h-.24v-.48h-.24v-.24h-.24v-.24h-.24l-.24-.24v-.24h.24l-.24-.24h-.48v-.24h-.24v.24h-.24v.24h-.24l.24.24v.24l.24-.24h.24v.48l-.24.24h-.24v-.24h-.24l-.24.24v.24l.24-.24h.24v.24h.24l.24.24v.24l.24.24v.24h-.48v-.48h-.24v-.24h-.24v.24h-.48v.24h.24v.48l-.24.24v-.24h-.24v-.24h-.24v.48l.24.24h.48v.24h-.24v.24h-.24v-.24h-.48v.72h.24l.24.24h.48l-.24.24v.24h.24v-.48h.24l.24-.24h.24l.24-.24v.24h.24v.24l.24.24h.48v-.24h.24v.24h.24v.48h.48v.24h.72v1.2h.24v.24h.24v.48h-.24v.24l-.24.24h-.24v.48h.48v.72h1.2v-.48h.48l.24.24v.24h-.24v.48h.24v.24h.24v.48h.48l.24.24v-.48h.24v-.24l.24-.24.24.24h.24v.48l.24-.24h.24v-.24h.48v.24l-.24.24v.24h-.24v.24h-.24v.96h-.24v.24h-.24v.96h.48v.24h-.24v.72h.24v.48h.48v-.24h.24v-.24h.24v.24h.72v.24l.24-.24.24-.24.24-.24.24-.24v-.24h.24v-.48l.24-.24v-.48l.24-.24h.24v-.24l.24-.24.48-.24v-.24l.24-.24v-.24l.24-.48v-.48l-.24-.24v-.48h-.24v-.24l-.24-.24h-.24v-.24l-.24-.24v-.48l.24-.24v-.48h.24v-.24l.24-.24v-.24l.24-.24v-.24l.24-.24v-.24l.24-.24.24-.24.48-.24.24-.24.24-.24h.48v-.24h.24l.24-.24.24.24.24.24.24.24h.24l.24.24h.48l.48.24h.96l.24.24h.72l.24.24h.24l.24.24h.48v-.24h1.2v.24h.24v.24h.24v.24h-.24v.24h.24v.24h.24l.24-.24h.48v-.24h.48v.24h.48v.72h.48v-.48h.24v.24h.24v.24l.24.24v.48h.24v-.96h1.44v.24h.72v-.24l.24.24h.48v.24h.24v.24h.24v.24h.48v.24h.24l.24.24v-.24h.24l.24-.24-.24-.24h.24l-.24-.24v-.48h.24v-.48h.96v-.24h.24v-.24l.24.24v-.24h.48v-.24l-.24-.24v-.24h.24v-.24h.48v-.24h-.48v-.24h.24l.24-.24h.24v-.24h.48v-.24h.24v-.24h.24v-.24h.24v-.48h-.48l-.24-.24v-.24h.24v.24h.48v-.24h-.24v-.24h.24v-.24h-.24v-.24h.24v-.24h.24v-.24l-.24-.24h-.24l-.24-.24-.24-.24v-.24h.96v-.24l-.24-.24.24-.24-.24-.24v-.24l-.24-.24v-1.2h-.24v-.48l-.24-.24v-.24l.24.24v-.72h.72v-.72h.24v.24h.24v-.48l-.24-.24h-.24v-.48h-.24l.24-.24v-.48h-.24v-.72h.24v-.24h.24v-.24h.24v-.24h.24v-.24h.24v-.48h-.24l-.24.24v.24h-.24v.24l-.24.24v.24h-.24v.24h-.24v-.48h-.48v-.24h-.48v.24h-.24v.24h.24v.24h-.24v.48h-.72v.48h.24v.24h-.24v.24l-.24-.24-.24-.24v-.48l-.24-.24v-.24h-.24v-.24h.24l.24.24v-.24h-.24v-.24h-.24v-.48h-.72v-.24h-.24v-.24h-.24v-.24h-.24v-.24l-.24-.24v.24h-.24v-.24h-.24v-.48h-.24v-.24h-.24v-.48h-.72l-.24-.24v-.24h-.24l-.24-.24v-.24h.24v.24h.24l.24-.24v-.72l-.24-.24v.72h-.48v-.24h.24v-.24h-.48v-.24h-.24v-.24h-.48v-.24h-.24v.24h-.24l-.24-.24h-.96v-.24h-.24v-.48h-.24v-.48h-.48v-.24h.24v-.24h-.24l.24-.24h-.48v-.72h-.24v-.96l.24-.24v-.48l-.24-.24v-.24l-.24.24v.24l-.24.24v1.44h-.24v-.24h-.48v.48h-.24v-.24l-.24-.24v-.24h.48v-.24h-.24v-.48l-.24-.24v-.24h.24v.24h.24v.24l.24.24h.24l-.24-.24h.24v-.96l-.24-.24v-.24h-.48l-.24-.24h.24v-.48l-.24-.24h.24v-.24h-.72v.24l-.24.24h.24v.24h.24v.24h.24v.48h-.24v-.24h-.72v.48h.24v.96h.48v.48h-.24v.24h.24v.48l.24.24v.48l-.24-.24v-.24h-.24v-.72h-.24v-.48h-.24v-.24h-.72v-.48h.24v-.48h-.24v-1.2h-.24v-.48h.24v-.24h.24l.24-.24v-.24h.24l-.24-.24v-.24h.24v-.24h-.48v-.72h-.24v-.24h-.24v-.96h.24l-.24-.24h-.72v-.24h-.24v-.48h-.24v-.48h-.24v-.72h.24v.24h.48v.24h1.2v1.2h.24v.48h.24v.48h.24v-.24h.24v.24h.48v.24l-.24.24v.24h-.24v.96h.24v-.24l.24-.24h.24v.48h-.24v.48h-.24l-.24-.24v.24l.24.24v.24h.72v.24h.24v.24h.72v.24l.24.24h.24v.24h.24v.24h.24v-.24l.24-.24v.24l.24.24v.96h-.24v.72h.72v.24h.24v.96h.24v.48h-.24v.24h.24v-.24h.24v-.96h.24v-.24h.24v.24h.48v-.48h-.24v-.24l-.24-.24v-.24h.48v-.72h.24v.24h.24v.48h.96v.24h.24l.24-.24h.24v-.48h.48v-.24h-.24v-.24h.48v-.24h.24v-.24h-.24v-.24h-.24v-.48h-.24v-.48h.24v-.24h-.24v-.24h-.24v-.48h-.48v-.24h.48v.24h.48v-.72h-.48l.24-.24h.24v-.24h.24v-.24h.24l-.24-.24h-.24v-.24h-.24l-.24.24h-.24l-.24.24-.24-.24h.48v-.24h-.48v-.24h.24v-.24h.24l.24.24v-.24h-.24v-.24h-.24v-.24h-.24v-.24h-.24v-.24h-.72l-.24-.24h-.48v.24h.24v.48h-.96v.24h.48v.24h.24v-.24l.24.24h.72l.24.24.24.24v.24l-.24.24v.96h-.24v.48h.72l.24.24h-.24v.24h.48v.24h-.24v.24h-.72l.24.24h-.24v.48h.24v.24h-.24v.24l.24.24v.24h-.24v-.24h-.24v-.24h-.48v-.24h-.72v.24h-.72v-.24h-.24v-.72h.48v-.48h-.24v-.24h-.24v-.72h-.72v.24h.24v.48h.24v.24h.24v.48l-.24-.24h-.48v.72h-.24v.24h-.24v-.96h-.48v-.24h-.96v-.24h-.24v-1.68h.24v-1.2h-.24v-.24h-.24v-.48l.24-.24v-.48h.24l.24-.24h-.24l-.24-.24v-.24h-.24v-.24l.24-.24v-.24h.24v-.24h.48v.24h.24v.24h.72v.24h.24v-.24h.24v.72h-.48v.72h.24v-.24h.96v.24h.48v-.24h-.24v-.24h.24v-.48h.72v-.24h-.24v-.24h-.24l.24-.24.24-.24h-.72v.24h-.72v-.72h.24v-.48h-.48v-.24h-.24v-.48l.24.24h.24v.24h.24v-.48h.72v.48h.72l.24-.24.24-.24h.96l.24-.24h.24v.24h.24v.48h.48v.72h.24v-.24h.24v.48h.24l.24.24v.24h.72v.24h1.44v-.24h.48v-.96h.24v-.24h.24v-.48h.24l.24-.24v-.48h-.24v-.48h.24v-.48h.24v-.24h-.24v-.24l-.24-.24v-1.2l-.24-.24h-.48l-.24-.24h-.24v-.48l-.24-.24v-.24h-.24v-.24h-.48v-1.68l.24-.24v-.48l.24-.24v-.24l.24-.24v-.24h-.24v-.72h-.24v-.24h-.96v.24l-.24.24v.24h-1.2v-.24h-.24l-.24-.24v-.24l-.24-.24h-.24v-.24h-.24v-.24h-1.44v-.24h-.24v-.24h-.24l-.24-.24h-.48v-.24h-.24v-.24h-.24v-.24h-.24v-.24l-.24-.24v-.24h-.72v-.24h-.24v-.24l-.24-.24h-.24v-.24h-.48l-.24.24h-.24v.24h-.96l-.24-.24h-.48v-.24h-.72l-.24-.24h-.24v-.24l-.24-.24v-.24h-.24v-.24h-.48v-.24h-.48v-.24h-.24v-.48h-.72v.24h-.48l-.24-.24h-.48l-.24-.24v-.24h-.24v-1.2l-.24-.24v-.72l-.24-.24v-.24l-.24-.24v-.24h-.24v-.24h-.24l-.24-.24-.24-.24v-.24h-.24v-.96h.24v-.72h-.24v-.48l-.24-.24v-2.4l-.24-.24v-.72l-.24-.24v-.48l-.24-.24v-2.88l-.24-.24v-.24h-.24v-.24h-.24l-.24-.24v-.24h-.24v-2.4l-.24-.24v-.24h-.24v-.24l-.24-.24h-.24v-.24l-.24-.24v-.24h-.24v-.24h-.24l-.24-.24h-.24v-.48h-.24v-.24l-.24-.24-.24-.24-.24-.24-.24-.24h-.48v.24h-.24v.48l.24.24v.72h.24v1.2l.24.24v.24h.24v1.44l-.24.24-.24.24h-.24l-.24.24h-.72v-.24h-.48l-.24-.24h-1.44l.24.24.24.24v.24l.24.24v.48l-.24.24v.48h-.24l-.24.24-.24.24h-.24v.24l-.24.24v1.92l.24.24v.24l.24.24v.48l-.24.24v.48h-.24v.24h.24v.48h.24v.24h.24l.24.24h.24v.24l.24.24v.24h.48l.24.24h.96v.24h.24v.24h-.24v.72h.24l.24.24.24.24h.24v.24h.24v.24h.72l.24.24v.48h-.24v.24h-.24v.24h-.24l-.24.24h-.24v.24l-.24.24v.48h-.24v.48l.24.24v.48l-.24.24v.48h-.72v-.24l-.24-.24-.24-.24v-.24h-.24v-.72h-.24v-1.68h-.24v-.48h-.24v-.48l-.24-.24-.24-.24-.24-.24v-.24h-.24v-.24h-.24v-.24h-1.68l-.24.24h-1.2l-.24-.24v-.24h-.24v-.24l-.24-.24v-.24l-.24-.24v-.48h-.24v-3.12h-.24v-.96h-.24v-1.68h.24v-.72h.24v-1.68h-1.2v.24h-.24l-.24-.24v.24h-.48l-.24.24h-.48v.24l-.24-.24-.24-.24V398.9l.24-.24v-.72h.24v-1.2h-.24v-.72l-.24-.24-.24-.24-.24-.24h-.96v-.24h-.96ZM357.13,404.18h.24v.24l.24.24v.24h.24v.24h.24v.24h.24v.24l.24.24v1.92h-.24v-.24l-.24-.24h-.24v-.96h-.24v-.24l-.24-.24v-.72h-.24v-.24l-.24-.24v-.24h.24Zm7.68.24h.48v.24l.24.24v.96l.24.24v.24l.24.24v1.2l.24.24v.24h.24v.48l.24.24-.24.24v.24h-.48l-.24-.24v-.72h-.24l.24-.24v-.24l-.24-.24v-1.44l-.24-.24v-.24l-.24-.24h-.24v-.24l-.24-.24v-.48Zm-5.04.72h1.68l.24.24v.24h.24v.96l-.24.24v.48h.24v.24l-.24.24v-.24h-.24v-.96h-.24l-.24-.24h-.24l-.24-.24-.24-.24h-.24l-.24-.24v-.48Zm-4.92,1.32-.12.12h.24Zm4.44,1.08h.24v.24l.24.24.24.24v.24l-.24.24v.24h-.24v-.24h-.24v-.24h-.24v-.24l.24-.24v-.24h-.24Zm10.56.72h.48v.24l.24.24-.24.24v.24l-.24-.24-.24-.24h-.24v-.24Zm-7.68,1.2h.48l.24.24h.24v.24h.24l-.24.24h-.48v-.24h-.24l-.24-.24Zm1.68.96h.72l.48.24v.96l.24.24.24.24v.48l.24.24v.72l-.24.24v.24h-.24l-.24.24-.24.24h-.48v.24h-.48v-.24l-.48-.24v-1.2l.24-.48-.24-.24.24-.24.24-.24v-.96l-.24-.24Zm-15.12.72v.96l.24-.24v-.72Zm6.24.24.24.24v1.44l-.24.24h-.24l-.24.24v.24h-.24l-.24-.24-.24-.24h-.24l-.24-.24v-.24l.24-.24h.48l.24-.24v-.24h.24v-.24l.24-.24Zm4.8,0h.24v.24l.24.24v.48l.24.24.24.48v.24h-.48v-.24l-.24-.24v-.24h-.24v-1.2Zm-2.88.48h.24v.72l-.24.24h-.24v-.72h.24Zm9.84.96h.48v.24l-.24.24h-.24v-.48Zm16.32,0h.24v.24l.24.24v1.44h-.48v-1.92Zm4.08,0v.24h.24v.24h-.24l-.24.24v.24l.24.24-.24.24h-.24v-.24h-.24v-.72l.24-.24h.24Zm-17.0405.48.24.24-.24.24-.24-.24Zm19.68,0h.48v.48h-.48l-.24.24-.24-.24.24-.24Zm-27.1207.48h.24v.72h-.24v-.24l-.24-.24Zm-6,.48.24.24h.24v.24h.24v.24l.24.24v.24l.24.24v.24l-.24.24h-.24v.24h-.24l-.24-.24v-.72l-.24-.24v-.24l-.24-.24.24-.24Zm3.12.48h.24l.24.24v.24l.24.24.24.24v.24h-.72l-.24-.24h-.24l-.24-.24.24-.24.24-.24Zm8.16.24v.24h.24v.72h-.48v-.24l-.24-.24.24-.24Zm2.4,0h.24v.24h.24v.48h-.24l-.24-.24v-.48Zm-4.56.24h.24v1.44l-.48-.24v-.96Zm-14.64.96v.48h.24v-.48Zm8.4.24h.24v.24h-.24v.48h-.48v-.24h-.24v-.24h.48Zm-8.64.72v.24h.24v.24h.24v-.48h-.48Zm14.88,0h.24v.24l-.24.24h-.24v-.24h.24Zm.72.24h1.68v.48l-.24.24v.24h-.24v.48h-.24l-.24.24h.24v.72h-1.44v.24h-.24v-.24h-.72l-.24-.24.24-.24h.24v-.24h.24v-.48h.24v-.48h-.24v-.24h.24v-.24l.24.24v.24l.24.24v-.24h.24l-.24-.24v-.24h.24Zm26.8807.72h.24l.24.24v.72l.24.24h-.24v.48h-.24v.48h-.24l-.24-.24v-.24l.24-.24v-1.44Zm-24.7207.48.24.24v.96h-.24v-.48h-.24v-.48Zm21.3606.96h.24v.24h-.24Zm-.72.24h.24v.24h.24v.24h.24v.48h.24v.48l.24.24.24.24v.72h-.24v-.24l-.24-.24-.24-.24v-.24l-.24-.24v-.24h-.24v-.24h-.24v-.96Zm-2.64.72h.24l.24.24v.48h-.24v-.24h-.24v-.48Zm-12.72.72h.48v.24h.24v.72h-.48v-.24h-.24v-.48h-.24Zm-11.76.24h.48v.24h-.48Zm36.9611,0,.24.24v.24l.24.24v.48h.24v.48h.24l.24.24.24.24.24.24.24-.24.24.24-.24.48v.24h-.48l-.24.24h-.96l-.24.24v.24h-.24v.24h-.24l-.24.24v-.24h-.24l-.24-.24v-.48l-.24-.24-.24-.24h-.24v-.24h.48l.24-.24h.48v.24h.24v-.72h.24v-.48l-.24-.24v-.24l.24-.24v-.48h.24Zm-7.2.24h.24v.24h.48v.96l-.24-.24h-.24l-.24-.24v-.24l-.24-.24h.24Zm-17.5205,1.68h.48v.72h-.24v.48h-.24v-.24h-.24v-.24h-.24v-.24h.24v-.24Zm15.12,0h.24v.48h.24v.24h.24v.48h-.48v-.72h-.24v-.48Zm-31.2008.96h.48v.24h.48v.48h-.24v.24h-.24v.24h-.24v-.24h-.24v-.48h.48v-.24h-.48Zm36.241,0h.24l.24.24v.72l.24.24v.48l.24.24v.48l.24.24.24.24v.72l.24.24v.24l.24.24v.72l.24.24v.24l.24.24v.24h-.24v.24l.24.24v.24h-.72l-.24-.24-.24-.24-.24-.24v-.96l-.24-.24v-.96h.24l-.24-.24v-.48l-.24-.24h-.24v-.72h-.24v-2.16Zm-35.521.96h.24v.96h-.24v-.24h-.24v-.24h.24v-.48Zm45.3612,1.2h.24l.24.24v.24l-.24.24v.24h-.48v.24h-.96v-.24h.24l-.24-.48h.72l.24-.24h.24Zm-23.5206,1.68h.24v.24h.24v.24h-.24v.96h-.24v-.96h-.24v-.24h.24Zm-7.2.72-.24.24h-.24v.24h-.24v.48h.48v-.48h.48l-.24-.24Zm16.8.72h.24v.72h-.24v-.72Zm-17.28.48v.24h-.24v.24l.24.24v.24h.24v.24h.24v.24h.24v-1.2h-.48v-.24Zm10.08,0h.24v.72l.24.24h-.24v-.24h-.24v-.72Zm-1.68.48h.48v.24h.24v.96h-.48v-.96h-.24Zm9.84.48h.24v.48h-.24v-.48Zm-16.08.48v.48h.24v.48l-.24.24v.48l-.24.24v.24h.24v.72l-.24.24v.48h-.24v.24h-.24v.24h-.24v.48h-.24v.24h.24l-.24.24v.24l.24.24v.48l.24.24h.48v-.24h-.24v-.72h.24v.24h.24v-.24h.48v1.2h.72v-.72l-.24-.24h-.24v-.24h-.24v-.24l-.24-.24v-.72l.24-.24v-.72h.24v.24h.24v.24h.24v-2.16h-.24v-.72h-.24v-.24h-.24v-.24h-.24v-.24Zm-4.08.48v.24l-.24.24v.24l-.24.24h.24v-.24l.24.24h.24v.48h.72v.48h.48v.24h.48v-.24l.24.24h.24v-.48h-.24v-.48h-.24v-.72h-.24v-.24h-.24l-.24.24v.48h-.48v-.24h-.24v-.48h-.24Zm4.8.96.24.24v.96h-.24v-.24h-.24l-.24-.24v-.48h.48Zm12.72.24h.24v.48l-.24.24h-.24v-.24l.24-.24Zm5.76.72h.24v.24l.24.24v.24l.24.24.48.48v.72l-.24.24-.24-.24v-.24h-.24v-.24h-.48v-1.68Zm16.08,0h.24v.48h-.24v.24h-.24v-.48h.24Zm-40.0811.24v.48l.24.24h.24v.24h.24v-.96h-.72Zm32.4009,0h.24v.48h-.24v-.48Zm-30.7209.96v.96h.24v.24h.24v.48l.24.24v-1.2h-.24v-.48h-.24v-.24Zm31.9209.24h.24l.24.24v.48l-.24.24v.24h-.24v.24h-.72l-.24-.24v-.48l.24-.24h.24l.24-.24Zm-19.44.72h.24v.72h-.24v-.72Zm13.44,0h.24l.24.24v.24h-.24v.24h-.24v-.24h-.24v-.24h.24Zm11.28,0h.24v.72h-.24l-.24.24-.24-.24v-.24h.24v-.24h.24Zm-25.6807.48.24.24-.24.24h-.24v-.24h.24Zm13.68.48h.24v.24l.24.24-.24.24h-.24v-.24h-.24v.24h-.24v-.24h.24v-.24h.24Zm1.68.24h.24v.48h-.24v-.48Zm-8.16.96h.24l.24.24v.48h-.24v-.24h-.24v-.48Zm9.6.72h.96v.24h.24v.48h-.24v.24l-.24.24v-.72l-.24-.24h-.48Zm8.64.24v.24h.24v-.24Zm-7.92,1.2h.24l.24.24v.24h.48l.24.24-.24.24v.24h-.96v-1.2Zm-17.04.48h.24v.24l.24.24v-.24h.24v.48h.24v.48h-.48l-.24-.24h-.24v-.48h-.24v-.24h.24Zm-.24,1.2h.24v.24h.48v.72h.24l-.24.24v.48h.24v.24h-.48v-.24h-.48l.24-.24.24-.24-.24-.24-.24-.24v-.24h.24v-.24h-.24Zm29.5208.48h.24v.24h.24v.72h-.24v-.72h-.24Zm-8.64.24h.24v.24h.24l.24.24v.24h.24v.48h.24v.48l.24.24v1.2h-.48v-.24l-.24-.24v-.48h-.24v-.48h-.24v-.48h-.24v-1.2Zm-7.2.24h.24v.24h.24v.24h-.24v.24h-.24v-.24h-.24v-.24h.24Zm9.36.96h.24l.24.24h-.24v.96l-.24-.24v-.96Zm6.24,0v.72h.24v-.48Zm-2.4.96h.24v.48l-.24-.24Zm-1.44.72h.24v.24h.24v-.24h.48v.48h-.24l-.24.24v-.24h-.48v-.48Zm.72.72h.24l.24.24v.24h-.24v-.24h-.24Zm1.2.24h.24v.72h.24v.24h.24v.96h.24v.48l-.24.24h-.24v-1.44h-.24v-.24l-.24-.24h-.48v-.24l.24-.24v.24h.24v-.48Zm.48.24h.24v.24h.24v.24l.24.24v.24h-.24v-.48h-.24l-.24-.24Zm-29.0408.48h.72v.96h-.24v-.24h-.24v-.24h-.24v-.48Zm29.7608.72h.48v.24h.24v.24h.24v.24h-.24l-.24-.24-.24-.24h-.24Zm-5.28.24h.48v.24h.24v.24h.24l.24.24.24-.24h.24v.24h.24v.48h-.24l-.24-.24v.72l.24.24h.24v.48h-.24v.48h-.48v-.24h-.24v-.48l-.24-.24v-.24l-.24-.24v-.24h.24v-.24h-.24v-.24h-.24v-.24h-.24v-.48Zm8.16,0h.24v.48l.24.24v.48h-.24v-.24l-.24-.24v-.72Zm-2.64.72h.48v.24h.24v.24h.24l.24.48v.24h.24v.24l.24.24v.48h-.24v-.24h-.24v-.24h-.24v.24h.24v.72h.24v.72l.24.24v.48h-.24v-.24h-.24v-.24l-.24.24h-.24v-.48h-.24l-.24-.24-.24-.24v1.44h-.24v-.48h-.24v-.24l-.24-.24.24-.24h-.24v-.24h-.24v-.24h.48v-.24h.72v-.96h-.24v-.48h-.24v-.24l.24-.24v-.48Zm-14.8805.72v.24l.24.24v.24h.48v.24h.24v.48l-.24.24v.48l-.24.24h-.24v-.72h-.24v-.24h-.48v-.48h.24v-.72Zm-12.72.24h.48v.24l.24.24h-.24v.24h-.24v-.48h-.24Zm14.64.48h.48v.72h.72v.72h-.24l-.24-.24-.24-.24h-.24v-.72h-.24Zm3.12.48.24.24h-.24l.24.24h-.24l-.24-.24Zm-5.76.24v.48l.24.24h.24v.96h-.24v.24h-.48l-.24-.24v-.24h.24l.24-.24h-.24v-.24l.24-.24h-.24v-.48Zm10.8.96h.48v.24h.24v-.24h.48v.48h.48v.24l.24.24h.96v.24h.24l.24.24h-1.92v-.24h-.24v-.24h-.72v-.24h-.48v-.24h-.24v-.24h.24Zm-.72.24h.24v.24h-.24Zm11.76.72h.24v.48h.24v.48h-.24v-.24h-.24v-.72Zm-32.4009.24h.72l.24.24h.48v.24h-1.44l-.24-.24h.24Zm27.3608.48h.24v.48h-.48v-.24h.24Zm.24.48h.24v.72h-.24v-.72Zm6.96.24h.24v.24h.24v.48h-.24v-.24h-.24v-.48Zm-12.96.24h1.44v.24h.24l-.24.24-.24.24h-1.2v-.72Zm9.36,0h.24l.24.24h.24v.24h.24v.24l.24.24.24.24v.24h.24v.24h-.24v-.24h-.48v-.48h-.72l-.24-.24v-.24h-.48v-.24h.24Zm-26.8808.24h.48v.48h-.48v-.48Zm23.2807,0,.24.24.24.24h.24l.24.24h.48v.24h-.24v.72h-.24v.24h.24v.24h.24l.24.24h.24v-.48l-.24-.24v-.24h.24v.24h.24v.48h.24v.24l-.24.24v.24h.24v.24h-.24l-.24.24v.24h-1.44v-.24l-.24-.24h-.24v-.24h-.24v-.24h-.24v-.24l-.24-.24v-.24h-.24v-.24h.24l.24.24.24.24.24.24h.24v.24h.24v.24h1.44l-.24-.24-.24-.24h-.24l-.24-.24h-.24l-.24-.24v-.48l-.24-.24v-.24h-.24l-.24-.24v-.24l.24-.24Zm-9.12.48h.48v.72l-.24.24h.24v.48h-.24v-.72l-.24-.24v-.48Zm6.96,0h.24l.24.24v.24h-.24v-.24h-.24Zm10.56,0h.24v.48l-.24-.24h-.24Zm-35.521.96v.24h.24l.24.24v.24h-.24v.24h.24v-.24h.24v-.24h.24v-.24h-.24v-.24l-.24.24v-.24h-.48Zm1.2.72v.24h.24v-.24Zm.24.48v.24h-.24v.24h.24v.24h.24v.48l.24-.24-.24-.24v-.72Zm-2.4.24v1.44h.48v.48h.48l.24.24v-.48l-.24-.24v-.48l-.24-.24v-.24h-.24v-.24h.24v-.24h-.72Zm32.1609.48h.24v.24l.24.24h-.48v-.48Zm-.48.48h.24v.24h.24l.24.24v.24h.24l.24.24-.24.24v-.24h-.24v-.24h-.24v-.24h-.72v-.24Zm-29.0408.24v.48l.24.24v.48h.24v.24h.24v.24h.24v-.24h.24v-.48h-.24v-.24h-.24v-.24h-.24v-.24h-.24v-.24Zm27.3607.96h.24v.24h.24v1.2h.24l.24.24v.72h-.24v.24h-.48v.24h-.24l-.24-.24h-.48v-.24h-.24v-1.44h.24v-.24h.24v-.24h.24v-.24Zm-16.56,2.4h.24v.24h.24v.72l-.24-.24v-.24h-.24v-.48Zm22.3206.24h.24v.24h-.24Zm-23.5206.48h.72v.24h.24v.72h.24v1.2h.24v.48h.24v.24h-.24v.24h-.24v-.24h-.24v.24h-.24v-.96l-.24-.24v-1.2l-.24-.24v-.24h-.24Zm19.9205,1.44h.48v.24h-.48Zm.96.48v.24h.24l-.24.24h-.24v-.24Zm-.72,1.44h.72v.24h-.24l-.24.24v-.24h-.24Z"/>
    </g>
</svg>
