<svg xmlns="http://www.w3.org/2000/svg" viewBox="0 0 792 612">
    <defs>
        <style>.cls-1{fill:#fff;}</style>
    </defs>
    <g id="Costa_Rica">
        <polygon class="cls-1"
                 points="545.295 578.669 544.815 578.189 544.335 577.949 543.855 577.949 543.375 577.949 542.655 577.949 542.415 577.949 541.935 577.949 541.695 577.709 541.215 577.229 540.975 576.749 540.735 576.749 540.495 576.509 540.255 575.789 540.015 575.309 539.775 574.589 540.255 574.109 541.215 572.669 541.455 572.429 540.975 570.989 540.735 570.989 540.495 570.989 539.775 570.748 539.055 570.508 539.295 570.508 539.535 570.028 539.775 570.028 540.495 570.028 540.735 570.028 540.735 569.788 540.975 569.068 540.735 569.068 541.215 567.868 541.695 567.868 541.935 568.108 542.895 568.348 543.375 568.348 544.095 568.348 544.335 568.588 544.815 568.588 545.055 568.588 545.535 568.828 546.975 569.068 548.655 567.868 551.535 568.348 552.015 568.588 552.495 569.308 552.735 569.548 552.975 569.308 553.455 569.548 553.695 569.548 553.935 569.308 554.175 569.308 554.655 569.548 554.895 569.788 555.375 569.548 555.615 569.308 556.095 569.068 556.335 569.068 556.815 568.828 556.815 568.588 557.055 568.588 556.815 568.108 557.055 567.628 557.055 567.868 557.295 568.108 557.535 568.348 557.535 568.588 557.775 569.068 557.775 569.308 558.255 570.268 558.736 570.989 559.216 571.469 559.696 572.189 561.856 574.109 562.096 574.109 562.576 573.869 562.576 574.349 563.056 574.589 563.536 575.069 564.016 575.789 564.736 576.269 565.456 576.269 565.696 576.269 566.176 576.509 566.416 576.749 566.416 576.989 566.176 577.229 565.936 577.469 565.696 577.229 565.216 576.989 564.976 576.749 564.496 576.749 564.256 576.749 564.016 576.989 563.536 577.949 563.776 579.869 564.016 581.069 564.256 580.829 565.456 581.309 565.696 581.789 565.456 582.029 564.976 582.269 564.736 582.509 564.496 582.749 564.256 583.229 564.256 583.469 564.496 583.469 564.736 583.709 564.976 583.949 565.216 584.669 565.216 585.389 564.736 585.629 564.496 585.869 564.256 586.109 563.776 586.589 563.776 586.829 564.016 586.829 564.256 587.069 564.496 587.069 564.976 588.269 564.976 588.749 564.976 588.269 564.496 587.549 564.256 587.309 564.016 587.309 563.536 587.069 563.296 586.829 563.056 586.829 562.816 586.589 562.816 586.349 562.816 586.109 563.056 585.869 562.336 584.669 561.856 584.669 561.136 584.429 561.136 584.189 560.896 583.949 560.656 583.949 560.416 584.189 559.936 584.429 560.416 584.909 560.656 585.149 560.896 585.149 561.136 585.149 561.376 585.389 561.616 585.869 561.616 586.349 561.616 586.589 561.376 586.589 560.896 586.589 560.656 586.349 560.176 586.349 559.936 586.349 559.696 586.349 558.976 586.349 557.775 585.629 557.775 585.389 557.775 585.149 558.015 584.909 558.255 584.669 558.736 583.469 558.976 583.229 558.736 582.509 558.495 582.029 557.775 581.549 557.535 581.309 557.295 581.069 555.615 580.349 555.135 580.109 554.655 580.109 554.175 580.109 553.935 579.869 553.455 579.389 552.015 579.389 551.295 579.389 550.815 579.389 550.095 579.149 549.855 578.669 549.615 578.429 549.855 577.949 549.855 577.709 549.375 576.749 548.895 576.269 548.415 576.269 548.175 576.509 547.935 576.269 547.455 576.029 546.495 575.309 546.255 575.309 544.815 575.069 544.815 575.309 544.815 575.789 545.055 576.029 545.295 576.029 545.535 576.269 545.535 576.509 545.775 576.509 546.975 576.749 547.455 576.989 547.935 577.709 547.455 578.429 546.015 579.629 545.295 578.669"/>
    </g>
</svg>
