<svg xmlns="http://www.w3.org/2000/svg" viewBox="0 0 792 612">
    <defs>
        <style>.cls-1{fill:#fff;}</style>
    </defs>
    <g id="Cuba">
        <path class="cls-1"
              d="M583.9362,479.3039l-.48-.48-.24-.24h-.24l-.72.48-.24.24h-.48l-.48.24-.72.24v.24h-.48l-.24.24h-.24l-1.44-.24-1.44-.24v-.24l-.96.24-.72-.24-.72.48-.48-.48-.48-.24h-.72l-.48-.24h-.24l-.72-.48-.24-.24-.24-.24v-.24h.24v-.24h-.48v-.48h-.72v.96l-.24.24h-1.2l-.48.24-.48.24h-1.44l-.24-.24-.24-.24-.48.24v.24l-.72.24h-.24l-.24-.24v-.24h-.24v-.24l-1.68.24h-.24l-.72.48h-.48v-.24l-1.44-.48-.72-.24h-.24l-.24-.24v-.24l.24-.24h.96l1.2-.24.24-.24.72-.24.24-.24v-.72l-.72-.24h-.24l-.24-.24h-.72l-.48.24-1.68.24-1.44.24-1.68.24h-1.2v.72l-.24.24h-.24l-1.2.96-.24.24-.24.48v.48l-.24.24-.24.24v-.24h-.48l-.48.96v.24l-.48.24-.48.24h-.48l-.24-.24-.48.48h-.72l-.48.24h-.72v.24h-.24v.24l-.24.72.24.72h-.24v.24h-.72l-.72.24h-.24l-.24.24v.24h-.24l-.48.48-.24.24-.24.24h-.48l.24-.48v-.24h.24l-.24-.24v-.24h-.96v.24h-.24l-.48.24-.24.24v.24l-.24.24h-1.2v-.48l.24-.24v.24h.24l.48-.24,1.92-1.2.24-.24h1.2v-.48l-.72-.48-.24-.24.24-1.2.48-.96.72-.96.72-.96.48-.24,1.2-.72.96-.48,1.68-1.2,1.44-.96h.24l.96-.24.48-.24v.48h.24l.24-.24v-.24l.24-.24h1.2v-.24h.24l.72-.24h.24v-.24h.24l.24-.24.48-.48.48-.24.48-.24h.48l.24-.24h.72l.24-.24h.24v.24h1.2l.48-.24h.72l.24-.24h.72v.24h.24v.24l.24.24.72-.72.48-.24.48-.24-.24.24.96.72h.24v-.24h.24l.72-.48,1.68-.48.72-.24h.24l.24.24v.24l.48.24.72.24h1.44l.48-.24.96-.48.24.24v.24h.24v.24l.96.24h1.44l.24.48.24.24.48.48.24.24.24.24v-.24l.72.48h.24l.24.24h.24l.48.24.72-.24h.48l.24-.24h.24l.24-.24h.72l.72-.24,1.68.24,1.2.48.48.24h.48l1.44.24h.48l.24.48.72.48.24.24h.24l.96.48h1.44l.48-.24h.24l.24.24h-.24l.24.24v.24l.24.24h.72v-.24h-.24l-.48-.72-.48-.24h-.48l-.24-.24h-.48v-.24l.24-.24h.48v.48h.48l1.92.72.24.24h.24l.24.24v.24h-1.68v.24l.96.72.48.24.24-.48v-.24l.24-.24v-.24l.24-.24.24.24.48.24.24.24v.24h.48l.24.48-.24.24.24.24.24-.24.24-.48h1.2l.72.24v.24h-.24v.48h.48l.48-.24v-.24l-.24.24v-.48l.96-.24.48.24h.72l.24.24h.48l.24.24.48.24.48-.24.48-.24.48-.24.72-.24.72.24h.24l.24.48-.24,1.2-.72.48h-.24v.48l.24.24v.24h.48l1.2-.24.72-.24v-.24h-.24l.24-.24h.24l1.2-.24,1.92-.24h.24l1.44.48.24.24h.72l.24.24h.24v.24l.24.24h.24l.24.24.96.24h.72v-.24l.48-.24.72.48v.48l-.48.96h-.24v.24h-.72l-.96.24-.72.48-.48.24h-.72l-.24.24h-.24l-.72.96v.24h-.24v.24h-.24l-.24.24-.24-.24v-.48l-.24.24.24-.24v-.24l-.24-.24-.48.24v.24l.24.24h-.24l-.24.48v.24l-.48.24h-.48v.24l-.96.24h-.72l-.48-.24h-.48l-1.44.24h-.24l-1.2.24h-.96l-1.2.72h-.24l-.24.24-.48.24h-.48l-1.2.24-.72.48-.24.24h-.48v.24l-.24-.24-.24.24h-.96l-.72.24h-.24v.24l-.24.24-1.92.72h-.72l-.24-.24.24-.48.72-1.2,1.2-1.44h.24v-.24h.24l.24-.24.72-.48v-.24l.48-.48v-.96l-.96-.96-.48-.24-.48-.24h-.48l-.72.48-.48.24h-.96l-.48.24h-.72l-.24-.24-.24.24v.24h-.24l-.72.24-.24-.24-.72-.48-.48-.24-.48-.24-.48-.24-1.44-.48-.24-.96-.24-.96-.48-.72-.24-.48v-.24l-.24-.24Zm-30.7208,6.96h-1.2l-.72-.48v-.24l-.48-.48.72.24v.24h.72l.48-.24v-.48l-.48-.24-.72-.72v-.48l.72-.96h.72l.24-.24.96.24v.48l.48.24h.24l.24.24.48,1.2-.24.48-.24.24-.48.24-.24.24-.96.24Zm36.961-11.5206-.48-.24h-.96l-.48-.24v-.48h.72l.24-.24h1.2l.24.24v.72h-.24Zm-5.76-2.64v-.24h-.48v.24h-.48l-.72-.24h-.48v-.24l.24-.24h.48v.24h.24l.24-.24h.48v-.24h.24l.24-.24.24.24h.24l.48.48-.24.24Zm4.32,1.68h-.24l-.48-.24h-.24l-.48-.24.24-.96,1.2.48.24.48v.24Zm-1.2-1.2h-1.44l.24-.24-.24-.24-.48-.24h-.24v.24h-.24l.24-.24.48-.24h.72l.24.24Zm-9.84-.48-.48-.24-.72-.24h-.24l-.96-.48.24-.24h.24v.24h.24v.24h.24l.48.24h.48l.24.24Z"/>
    </g>
</svg>
