<svg xmlns="http://www.w3.org/2000/svg" viewBox="0 0 792 612">
    <defs>
        <style>.cls-1{fill:#fff;}</style>
    </defs>
    <g id="Dominican_Republic">
        <path class="cls-1"
              d="M651.1381,486.2643l-.24.24h-.24v.72l-.24.24-.24.72h-.24v.24h-.48l-.48.24h-.48l-.24.24-.24.24h-.24v.24h-.48v-.24l-.24-.24h-.24v-.72l-.24-.24h-.72v.48l-.24.24-.72.48-.48.72-.48-.24h-.48l-.24.24v.48l.24.24v.24h.24v.72l-.48,1.2-.24.24v.24l-.24.24v.24l-.72,1.92v.24l-1.92-1.44-.48-.72v-.24h-.24l-.24-.24h-.48l.24-.48-.24-.24v-.24l-.24-.24.24-.72.24-.24-.24-.24h-.72l-.72-.24h-.24v-.24l.24-.24h-.24l-.24-.24-.48-.24v-.48h.96l.24-.24v-.48l.24-.24h.24v-.72l-.24-.72-.48-.48v-.48l.48-.96.24-.24v-.72h-.72l-.24-.24v-1.68l-.24-.24v-.24h-.24v-.24l-.24-.24v-.48h.24l-.24-.24-.24-.24h-.24l.72-1.2.48-.24.48-.24h.96l.24.24h.96v-.24l.48-.24.48-.24v-.48h.24v-.24h.24l1.2-.24h.24l.24.24v.24h.72l.48.24h.72l.24-.24v-.24h.72l.24.24.24.24h1.68l.24-.24.24-.24v-.24h.24l.48-.24h.24l.24.24.24.24v.72l.24.48.24.24.24.24v.24l.72.24h.24v-.24h.24l.96-.72.72-.24h.72l.24-.24.24-.24.24-.24.48.48v.24l-.24.72-.96.24-1.68.24-.24.24.24.72v.24h.24v-.24h.48l.48-.24.24-.24h.24v.24h.24v.24h.96l.24-.24h.24l1.2-.48.24-.24h.48l.96.24h.72l.24.24.72.24.24.24h.24l.72.48h.72v.24h.24v.48l-.48,1.92-.48.24h-.48v1.44h-.96v-.24h-.24l-.48-.48v-.24h-1.2l-.48.48h-.96l-1.44.48-.48.24-.48.24h-1.92l-.72.24-.24.24-.24.24Zm10.56-.72h-.72l-.24.24h-.48l-.24-.24v-.24h1.44l.24.24Z"/>
    </g>
</svg>
