<svg xmlns="http://www.w3.org/2000/svg" viewBox="0 0 792 612">
    <defs>
        <style>.cls-1{fill:#fff;}</style>
    </defs>
    <g id="El_Salvador">
        <polygon class="cls-1"
                 points="523.215 550.107 523.215 550.827 522.735 552.028 522.735 552.508 522.975 552.508 523.215 552.508 523.455 552.748 522.975 552.988 522.494 553.228 522.254 553.468 522.254 553.708 522.494 553.948 522.975 554.188 522.735 554.428 522.494 554.668 521.774 555.388 521.294 555.388 521.054 555.388 520.574 555.388 520.334 555.388 519.854 555.628 519.614 555.628 518.174 555.628 517.454 555.148 516.974 554.908 516.494 554.908 515.774 555.148 516.254 555.148 516.734 555.148 517.214 555.628 516.974 555.628 516.494 555.628 516.014 555.388 515.774 555.388 515.294 555.388 514.814 555.388 514.574 555.148 514.334 555.148 513.374 554.908 512.414 554.428 512.174 554.428 511.934 554.188 511.694 554.188 510.974 553.948 510.254 553.948 509.534 553.948 508.574 553.948 508.094 553.948 507.854 553.948 507.374 553.948 506.894 553.948 506.654 553.708 506.654 553.468 506.414 553.468 505.934 553.228 505.694 553.228 505.454 552.988 504.494 552.748 504.494 552.268 504.494 552.028 504.494 551.788 504.974 551.068 505.934 550.107 506.414 550.107 506.654 549.867 507.134 550.107 507.134 549.867 507.374 549.627 507.374 549.387 507.614 549.147 507.854 548.907 508.094 548.667 508.334 548.667 508.814 548.427 508.574 547.947 508.334 547.947 508.334 547.467 508.334 547.227 508.574 546.987 508.814 546.987 509.294 546.987 510.014 546.747 510.254 546.987 510.494 546.987 511.214 547.227 511.454 547.227 511.934 547.467 512.414 547.227 512.654 547.227 513.134 547.947 513.134 548.187 513.134 548.427 513.614 548.187 513.854 548.187 514.094 548.427 514.094 548.667 514.334 548.907 514.574 548.907 514.814 548.667 515.054 548.667 515.054 548.907 515.294 549.147 515.534 549.387 515.774 549.387 516.974 549.627 516.974 550.107 516.974 550.347 517.214 550.587 517.454 550.347 517.694 550.107 517.934 550.107 518.174 550.347 518.174 550.107 518.414 550.107 518.894 549.867 518.894 549.627 519.374 549.147 519.614 549.387 519.854 549.147 520.334 549.387 520.574 549.627 520.814 549.867 521.294 549.627 521.534 549.627 522.494 549.627 522.735 549.867 522.975 549.867 523.215 550.107 523.215 550.107"/>
    </g>
</svg>
