<?xml version="1.0" encoding="utf-8"?>
<!-- Generator: Adobe Illustrator 24.3.0, SVG Export Plug-In . SVG Version: 6.00 Build 0)  -->
<svg version="1.1" xmlns="http://www.w3.org/2000/svg" x="0px" y="0px"
     viewBox="0 0 792 612" style="enable-background:new 0 0 792 612;" xml:space="preserve">
<style type="text/css">
	.st0{fill:#FFFFFF;}
</style>
        <g id="Greenland">
<polygon class="st0" points="605.5,120.7 605.5,121 605.5,121.2 605.3,121.4 605.3,121.7 604.8,122.6 604.6,123.1 604.1,123.1 
	603.1,123.4 603.1,122.9 603.6,122.4 603.9,122.4 604.1,122.4 604.1,122.2 604.6,121.7 604.6,121.4 604.6,121.2 604.3,121.2 
	604.3,121.4 604.3,121.7 603.9,122.2 603.6,122.4 603.4,122.2 603.1,121.9 602.9,121.7 602.7,121.9 602.2,121.2 602.2,120 
	602.2,119.8 602.4,119.8 602.4,119.5 613.9,119.5 614.2,119.8 614.2,120 613.9,120 614.2,120.5 614.2,120.7 614.4,120.7 614.2,121 
	613.5,121.2 613.5,121.4 613.7,121.2 614.2,121.2 614.2,121.4 614.2,121.7 614.2,122.2 613.9,122.2 613.5,121.9 613.2,121.7 
	613.2,121.4 613,121.4 612.7,121.4 612.5,121.9 612.3,122.2 612,122.4 611.8,122.9 612,122.9 611.8,123.1 611.8,123.4 611.3,123.6 
	611.1,123.6 611.1,123.8 611.3,124.1 611.8,123.4 612,123.1 612.3,122.9 612.5,122.9 612.5,123.1 612.5,123.4 612,123.8 612,124.1 
	611.5,124.3 611.1,124.3 610.8,124.6 611.1,124.6 611.8,124.3 611.8,124.8 612,124.8 612,124.6 612.3,124.3 612.3,124.6 612,125.3 
	611.5,125.5 611.5,125.8 611.3,125.8 610.8,125.5 610.3,125.5 610.3,125.3 610.6,125.3 610.8,125 610.6,125 610.3,125.3 
	610.1,125.3 610.1,125 610.1,124.8 610.3,124.8 610.3,124.3 610.6,123.8 610.8,123.1 610.8,122.9 610.6,122.9 610.1,123.4 
	609.9,123.6 609.9,124.1 609.6,124.3 609.4,124.3 609.1,124.3 609.1,124.6 608.9,124.6 608.9,124.3 609.1,124.1 609.6,123.6 
	609.9,123.4 610.1,123.1 610.1,122.9 609.6,122.6 609.4,122.9 609.4,123.1 609.1,123.4 608.4,123.1 608.2,122.9 607.9,122.2 
	607.9,121.9 608.2,121.7 608.4,121.4 608.2,121.4 607.9,121.7 607.7,121.9 607.9,122.6 607.9,122.9 608.2,123.1 608.4,123.4 
	608.7,123.4 608.4,123.6 608.2,123.6 608.2,123.8 607.9,123.8 607.9,123.6 607.9,123.4 607.9,123.1 607.7,123.1 607.7,123.6 
	607,123.8 606.7,123.6 606.7,123.4 606.7,123.1 607,123.1 607,122.9 607.2,122.9 607.2,122.6 606.7,122.4 606.5,122.4 606,122.9 
	605.8,122.9 605.5,122.9 605.5,123.4 605.3,123.8 604.8,123.6 604.8,123.4 605.1,122.9 605.1,122.6 605.3,122.4 605.8,121.4 
	606.3,121.2 606.3,121 "/>
                <polygon class="st0" points="599.1,119.3 598.8,119.5 598.1,119.8 597.9,120.2 597.6,120 597.4,120 597.1,120 596.9,120 595.9,120
	595.2,119.8 594.5,118.6 594.5,118.3 600.3,118.6 600.3,118.8 600.3,119 600.5,119.5 600.5,119.8 600.7,119.8 601,120 601,120.2 
	600.7,120.7 600.5,120.7 600.5,121 600,121.2 600,121.4 599.8,121.4 599.5,121.4 599.1,120.7 599.1,120.5 599.3,120.5 599.5,120.5 
	599.5,120.2 599.8,120.2 600,120.2 600,119.8 599.8,119.5 599.5,119.5 599.5,119.8 599.5,120 599.1,120.5 598.8,120 598.8,119.8 
	599.1,119.5 "/>
                <polygon class="st0" points="625.2,119.5 625,119.5 625,119.3 625.2,119.3 625.5,119.5 625.7,119.5 625.9,119.5 626.2,119.5
	626.2,119.8 625.9,119.8 "/>
                <polygon class="st0" points="626.9,118.1 627.9,117.6 628.1,117.4 628.3,117.1 628.6,117.1 628.8,117.4 628.8,117.6 628.6,117.8
	628.3,117.8 627.9,117.8 627.6,117.8 627.4,118.1 627.6,118.1 627.9,118.1 627.9,118.3 628.1,118.6 628.3,119 628.1,119 
	627.6,119.3 627.4,119.5 626.9,119.5 626.4,119.3 625.7,119.3 625.5,119.3 625.2,119 625.7,118.8 626.4,118.3 626.4,118.1 "/>
                <polygon class="st0" points="587.3,114 587.1,114 586.8,114 586.8,114.2 586.6,114.7 586.8,114.7 587.1,115 587.3,115 587.3,115.2
	587.5,115.2 587.3,115.4 587.1,115.2 586.3,115 585.9,115 585.6,115 585.4,115 585.1,115 585.1,114.7 585.1,114.5 585.4,113.5 
	590.4,114 589.9,114.2 589.7,114.2 589.7,114.5 589.7,114.7 589.2,115.2 588.5,115.9 588.3,116.2 588,116.2 587.5,115.9 
	587.5,115.4 587.5,115.2 587.8,115 588.3,114.5 588.3,114.2 588,114.2 587.8,114.5 587.5,115 587.3,115 587.1,114.7 586.8,114.7 
	586.8,114.5 587.1,114.2 "/>
                <polygon class="st0" points="581.5,109.2 581.5,109 581.5,108.7 581.8,108.7 581.8,109 581.8,109.2 582,109.2 582,109.4
	582.3,109.7 582.3,109.9 582.3,110.2 582.3,110.4 582,110.4 581.8,110.4 581.8,110.2 581.5,109.4 "/>
                <polygon class="st0" points="582,108.5 582.5,108.2 582.7,108.2 582.7,108.5 583,108.5 583,108.7 582.7,109 582.7,109.2 583,109.7
	583.2,110.4 583.2,110.6 583.2,111.1 583,111.1 582.7,111.1 582.7,110.9 582.7,110.6 582.7,110.4 582.5,109.9 582.5,109.4 
	582.3,108.7 582,108.7 "/>
                <polygon class="st0"
                         points="571.9,106.8 571.7,106.8 571.7,106.3 571.9,106.3 572.4,106.8 572.4,107 572.2,107 571.9,107 "/>
                <polygon class="st0" points="620.2,104.4 619.9,104.4 619.9,104.2 619.9,103.9 620.4,104.2 620.7,104.6 620.4,104.6 620.4,105.1
	620.2,105.1 620.2,104.9 620.2,104.6 "/>
                <polygon class="st0" points="556.8,91.2 556.8,91 557.1,91 557.1,91.2 557.3,91.2 557.3,91.4 557.3,91.7 556.8,91.7 556.6,91.7
	556.6,91.4 556.6,91.2 "/>
                <polygon class="st0" points="555.4,88.3 555.4,88.1 555.6,88.1 555.9,88.3 556.1,88.3 556.1,88.6 556.3,88.8 556.3,89 556.1,89
	555.9,89.3 555.6,89 555.4,89 555.4,88.8 "/>
                <polygon class="st0" points="607.5,88.3 607.2,88.3 607.2,87.8 607.2,87.6 607.5,87.4 607.5,87.1 607.7,87.1 607.9,87.1 608.4,87.6
	608.2,87.8 607.9,88.1 607.7,88.3 607.7,88.6 "/>
                <polygon class="st0" points="555.1,86.2 555.4,85.9 555.4,86.2 555.9,85.7 555.9,85.4 556.1,85.4 556.1,85.9 556.1,86.2 555.4,86.9
	554.9,87.4 554.9,87.6 554.9,87.8 554.7,87.8 554.7,87.6 554.4,87.6 554.4,87.4 554.7,87.4 554.7,87.1 554.9,87.1 554.9,86.9 
	554.9,86.4 "/>
                <polygon class="st0" points="604.3,84.5 604.1,84.5 603.9,84.5 603.4,84.2 603.4,84 603.4,83.8 603.6,83.8 604.1,83.8 604.6,83.8
	605.3,84 605.3,84.5 606.7,85 607,85 607,84.7 607.2,84.7 607.7,84.7 607.9,85.2 607.7,85.2 607.5,85.4 607.2,85.4 607,85.7 
	606.5,85.4 606,85.2 605.8,85 605.5,84.7 605.3,84.7 604.8,84.7 604.3,84.7 "/>
                <path class="st0" d="M544.8,78.5l0.5-0.2h0.2l0.7,0.2h0.2l0.2,0.2h0.5l0.5,0.2h1.7l0.2-0.2h1l0.2,0.2l0.2,0.2v0.2h0.5l0.2,0.5v1.2
	l-0.5,0.7v0.5l-0.2,0.2v0.2h-0.2V83l-0.2,0.5l-0.2,0.7l-0.2,0.5l-0.7,0.2l-0.2-0.2h-0.5l-0.2,0.2h-0.5l-0.2-0.2l-0.2-0.2l0.7-0.5
	h0.2l0.2-0.2v-0.2l0.2-0.2l-0.2-0.2v-0.2l-0.2-0.2l0.2-0.2h-0.2v0.2h-0.2v0.2h0.2l0.2,0.2v0.2l-0.2,0.2v0.2h-0.2v-0.5h-0.2v0.5h-0.2
	v-0.5l-0.2-0.2h-0.2l0.2,0.2v0.2h-0.2l-0.7,0.5h-0.2l-0.5,0.2h-0.5l-0.7-0.2l-0.2-0.2v-0.2h0.2l0.2-0.2h1l-0.2-0.2h-1v0.2h-0.7V83
	l-0.5-0.7l0.2-0.2v-0.2h1v-0.2h0.2v-0.2l-0.2,0.2h-1.7l-0.2-0.2l-0.5-0.5v-0.2l-0.2-0.2l0.2-0.2v-0.5l0.2-0.2l0.2-0.2l0.7-0.2
	l0.5-0.2h0.5l0.2-0.2L544.8,78.5z M549.4,83h-0.2v0.2h0.2V83z"/>
                <polygon class="st0" points="540.7,79.7 540.5,79.7 540.5,79.4 540.3,79.2 540.5,79.2 540.7,79.2 541,79.2 541.2,79.2 541.5,79.2
	541.5,79.4 541.2,79.7 541,79.7 541,79.9 "/>
                <polygon class="st0" points="551.8,77 551.5,77 551.5,77.3 551.3,77.3 551.3,76.8 551.3,76.6 551.5,76.3 551.8,76.3 552,76.3
	552.3,76.1 552.5,76.1 552.7,76.1 552.7,76.3 553,76.6 553,76.8 552.7,77 552.7,77.3 553.2,78 553.5,78 553.5,78.2 553.7,78.2 
	553.7,78.5 553.7,79 553.5,79 553.2,79 552.3,78.2 552,78.2 552,78 551.8,77.5 551.8,77.3 "/>
                <polygon class="st0" points="539.5,72.7 539.8,72.7 540,73 540.3,73.2 540.3,73.4 540.3,73.7 540,73.9 539.8,73.9 539.3,73.9
	539.1,73.9 538.8,73.9 538.6,73.7 538.6,73.4 538.6,73 538.3,72.2 538.6,72.2 538.8,72.2 539.1,72.5 539.3,72.5 "/>
                <polygon class="st0" points="540.5,70.3 540.5,70.1 541,70.3 541.2,70.3 541.2,70.6 541,70.6 541,70.8 541,71 541,71.3 541,71.5
	541.2,71.5 540.7,72 540.7,72.2 540.3,72 540,72 539.8,71.8 539.3,71.5 539.3,71.3 539.3,71 539.3,70.8 539.5,70.6 539.8,70.6 
	540,70.6 540.3,70.3 "/>
                <polygon class="st0" points="605.3,69.6 605.5,69.8 605.8,70.1 605.8,70.3 605.3,70.3 605.1,70.1 604.8,69.6 605.1,69.6 605.3,69.6
	604.8,69.4 604.8,69.1 604.8,68.9 604.8,68.6 604.8,68.4 605.1,68.6 605.8,69.4 605.8,69.6 605.8,69.8 605.5,69.8 605.5,69.8 "/>
                <path class="st0" d="M603.1,69.1v0.2l0.2,0.5l0.5,0.2l-0.5-0.7L603.1,69.1z M588.3,112.8L588,113l-0.2,0.2v0.2l0.2-0.2h0.5l-0.2-0.2
	V112.8z M590.7,115.7h-0.2l-0.2,0.7h0.2l0.2,0.2l0,0v-0.2l-0.2-0.5h0.5L590.7,115.7z M591.9,114.7h-0.2v0.2l-0.5,0.5l0.5-0.2V115
	h0.2V114.7z M625.7,113h-0.2l-0.2,0.2H625v0.2l0.5-0.2L625.7,113z M585.6,112.3h-0.2v0.5l0.2-0.2V112.3z M612.5,94.6h-1.4v0.2h1.7
	L612.5,94.6z M569.3,103.2h-0.2v0.2L569.3,103.2z M614.2,98.9h-0.2l-0.2,0.2L614.2,98.9z M566.4,97h-0.2v0.2h0.2V97z M557.1,88.8
	h-0.2V89h0.2V88.8z M612.7,93.6H612l-0.5,0.2h-0.5l0.5,0.2l0.2-0.2h0.7L612.7,93.6z M558.5,92.9H558v0.5l0.2-0.2L558.5,92.9z
	 M567.6,92.4l-0.2,0.2v0.5h-0.5l-0.7-0.2h-0.2l-0.2-0.2v0.2h0.2l0.7,0.2l0.2,0.2h0.2l0.2-0.2l0.2-0.2V92.4z M570.7,91.9h-0.2
	l-0.2,0.2H570l-0.2,0.2l-0.2,0.2l-0.5,0.2v-0.2l0.2-0.2v-0.2l0.2-0.2h-0.2v0.2l-0.2,0.2v0.2l-0.5,1v0.7h-0.2V95l-0.2,0.5V96l0.2,0.2
	v0.5h-0.2v0.7h-0.2v0.2h0.2v0.5l0.2,0.2v0.5l-0.2,0.5v0.7l-0.2,0.7v0.5h0.2v1l0.2-0.5v-0.5l-0.2-0.2v-0.5l0.2-0.7v-0.5l0.2-0.2
	l0.2-0.2l-0.2-0.2v-0.2l-0.2-0.5v-0.5l0.2-1V95l0.2-0.5h0.7l0.2-0.2v-0.2l0.5-0.2h0.2l0.2-0.2v-0.2h-0.2l-0.7,0.5v0.2l-0.2,0.2h-0.7
	v-0.5l0.2-0.7l0.2-0.2h0.2l0.2-0.2v-0.2h0.5l0.2-0.2L570.7,91.9z M568.6,91.2l-0.2,0.2h-0.2l-0.2,0.2v0.2l-0.2,0.2h0.2l0.2-0.2v-0.2
	h0.5v-0.2h0.2L568.6,91.2z M566.7,87.6h-0.2v0.2L566.7,87.6z M560.4,90h-0.2v0.2l-0.7,0.2l-0.2,0.2H559l-0.2,0.2h0.2l0.5-0.2
	l0.7-0.5h0.2V90z M610.6,93.8h-0.2v0.7h0.2l-0.2-0.2h0.2V93.8z M623.3,114.7h-0.2l0.2,0.2h0.2v0.2h0.2l-0.2-0.2L623.3,114.7z"/>
                <polygon class="st0" points="526.1,67.2 526.1,67 526.1,66.7 526.3,66.2 526.6,66.2 526.8,66.7 526.8,67 526.6,67 526.3,67.2
	526.6,67.2 526.6,67.4 526.3,67.4 526.1,67.7 525.9,67.4 525.9,67.2 "/>
                <polygon class="st0" points="527.1,66.5 526.8,66.5 526.6,66.2 526.8,65.8 527.1,65.3 527.1,65 527.3,65 527.5,65 527.8,65.8
	527.8,66 527.8,66.2 527.8,66.7 528,67.2 528,67.4 527.8,67.4 527.8,67.2 527.8,67 527.3,67.2 527.3,67.4 527.1,67.4 526.8,67.2 
	527.1,67 527.1,66.7 "/>
                <polygon class="st0"
                         points="520.6,62.4 520.3,62.4 520.6,61.7 520.8,61.7 521.1,62.4 521.1,62.6 520.8,62.6 520.6,62.6 "/>
                <polygon class="st0"
                         points="521.5,61.9 521.5,61.7 522,61.9 522.3,61.9 522.5,61.9 522.7,61.9 522.3,62.2 521.3,62.2 "/>
                <polygon class="st0" points="519.6,60.7 519.4,60.7 519.4,61 519.1,61 519.1,61.2 518.9,61.2 518.4,61 518.4,60.7 518.7,60.5
	518.9,60.5 519.1,60.5 519.4,60.2 519.6,60.2 519.9,60.2 520.1,60.2 520.3,60.2 520.3,60.5 520.1,60.5 519.9,60.5 519.9,60.7 
	519.9,61 519.6,61 "/>
                <polygon class="st0" points="475.7,53 475.5,53 475.2,53 475.2,52.8 475.5,52.3 475.7,52.3 475.9,52.3 476.2,52.3 476.7,52.3
	476.9,52.3 477.1,52.3 477.1,52.1 477.4,52.3 477.1,52.8 476.9,52.8 476.9,53 476.7,53 476.4,53.3 476.2,53.3 "/>
                <polygon class="st0" points="477.9,51.4 478.1,51.1 478.3,51.4 478.6,51.4 478.8,51.4 479.1,51.1 479.3,51.1 479.3,51.4 479.1,51.4
	478.6,51.8 478.1,52.1 477.9,52.1 477.6,52.1 477.1,51.6 477.4,51.4 "/>
                <polygon class="st0" points="581.8,22.1 581.5,21.8 581.8,21.8 582.3,22.1 582.5,21.8 582.7,21.8 583.2,21.8 583.9,22.1 585.1,22.3
	585.4,22.3 585.4,22.6 585.4,22.8 585.4,23.5 585.4,23.8 585.6,24.5 585.6,24.7 585.9,24.7 586.1,25.2 585.9,25.4 585.6,25.4 
	585.4,25.4 585.4,25.2 585.1,25 585.1,24.7 584.9,24.7 585.1,25.4 585.1,25.7 584.9,26.2 584.9,26.6 584.9,26.9 584.9,27.4 
	584.7,28.3 584.4,28.8 584.4,29 584.4,29.3 584.2,29.3 583.9,29.3 583.2,28.8 583,28.8 583,28.6 583,28.3 582.7,28.3 582.7,28.1 
	583,28.1 583,27.8 583,27.6 582.7,27.4 582.7,27.1 582.5,27.1 582.3,26.6 582.3,26.4 582.3,26.2 582,25.9 581.8,25.7 581.8,25.4 
	581.8,25.2 582,25 582.3,24.5 582.3,24 582.3,23.8 582.3,23.5 582,23 582,22.8 581.8,22.6 581.8,22.3 "/>
                <polygon class="st0" points="567.9,14.2 567.9,13.9 567.9,13.7 568.1,13.7 568.3,13.9 568.3,14.2 568.8,14.2 568.8,14.4 568.6,14.6
	568.3,14.9 568.1,14.6 567.9,14.4 "/>
                <polygon class="st0" points="567.1,9.6 567.4,9.4 567.6,9.4 567.6,9.6 567.9,9.6 567.6,9.8 567.6,10.1 567.6,10.3 567.6,10.6
	567.6,10.8 567.6,11.3 567.6,11.5 567.4,11.5 567.4,12 567.4,12.2 567.4,12.5 566.9,13 566.7,13.2 566.2,13.4 565.9,13.4 
	565.9,13.7 565.9,13.9 565.7,14.2 565.7,14.4 565.2,14.4 565,14.4 565,14.6 564.7,14.4 564.3,13.7 564.3,13.4 564.3,13.2 564,13.2 
	563.8,13.2 563.5,13 563.5,12.7 563.8,12.5 563.8,12.2 563.8,11.8 564,11.3 564.3,11.3 564.5,11 565,10.3 565.2,10.1 565.5,10.1 
	565.7,9.8 566.2,9.6 566.4,9.6 566.7,9.6 566.4,10.3 566.2,10.6 565.9,10.8 565.7,11 565.5,11.3 565.2,11.3 565.2,11.5 565.2,11.8 
	565,11.8 564.7,12 564.5,12.2 564.5,12.5 564.7,12.5 565,12.2 565.2,12 565.5,11.8 565.5,11.5 565.7,11.3 565.9,11.3 566.2,11 
	566.2,10.8 566.4,10.8 566.7,10.6 566.7,10.3 566.7,10.1 566.9,9.8 566.9,9.6 "/>
                <polygon class="st0" points="572.9,9.6 573.4,9.4 573.6,9.4 574.1,9.6 574.3,9.6 574.3,9.8 574.1,9.8 573.9,10.1 573.6,10.1
	573.6,10.3 573.4,10.6 573.1,10.8 573.1,11 573.4,11 573.6,11.3 573.9,11.3 574.1,11 574.3,10.8 575.1,10.3 576,10.8 576.3,10.8 
	576.3,11 576.3,11.3 576,11.5 575.8,11.5 575.8,11.8 575.5,11.8 574.8,12.2 574.6,12.2 574.3,12.2 574.1,12.2 573.9,12.2 
	573.6,12.5 573.1,12.7 572.4,13.4 571.9,13.4 571.5,13.4 571.2,13.4 571.2,13.7 571,13.9 570.7,13.9 568.8,13.2 568.6,13 
	568.6,12.7 568.6,12.5 568.8,12.2 568.8,12 569.1,11.8 569.3,11.8 569.5,11.5 569.5,11.3 569.5,11 569.8,10.6 570,10.6 570.3,10.6 
	570.5,10.8 571,10.6 571.2,10.6 571.5,10.3 571.7,10.3 571.9,10.3 572.2,10.3 572.2,10.1 572.7,9.8 "/>
                <polygon class="st0" points="476.4,9.4 476.4,9.1 476.7,9.1 476.9,9.1 477.9,9.4 478.1,9.4 478.3,9.4 478.3,9.6 478.3,9.8
	478.1,9.8 477.9,10.1 477.6,10.1 477.4,10.1 477.1,10.1 476.9,10.1 476.7,10.1 476.4,10.1 476.2,10.3 475.9,10.3 475.9,10.1 
	475.5,9.8 475.2,9.8 475.2,9.6 475,9.6 475,9.4 474.7,9.4 474.7,9.1 474.7,8.9 475,8.9 475.2,8.9 475.5,8.9 475.9,9.1 476.2,9.4 "/>
                <polygon class="st0" points="568.8,8.9 569.1,8.6 569.3,8.6 569.3,8.4 569.5,8.4 569.8,8.4 569.8,8.2 569.8,7.9 570,7.9 570.3,7.9
	570.5,8.4 570.5,8.6 570.7,8.9 570.7,8.6 571,8.6 571,8.4 571.2,8.4 571.7,8.4 571.9,8.6 571.9,8.9 571.7,8.9 571.5,9.4 571.2,9.8 
	571,10.1 570.3,10.1 570,10.1 569.8,10.3 569.5,10.6 569.3,11 569.3,11.3 569.1,11.5 568.8,11.8 568.6,11.8 568.6,12.2 568.3,12.2 
	568.3,12.5 568.3,12.7 568.3,13 568.3,13.2 568.1,13.2 567.6,13.2 567.6,13 567.6,12.2 567.6,11.8 567.9,11.8 567.9,11.3 567.9,11 
	567.9,10.6 567.9,10.3 567.9,10.1 567.9,9.8 568.1,9.8 568.3,9.6 568.6,9.4 "/>
                <polygon class="st0"
                         points="475.7,8.6 475.7,8.4 475.9,8.4 476.2,8.6 476.4,8.6 476.4,8.9 476.2,8.9 475.9,8.9 "/>
                <polygon class="st0" points="477.9,5 477.6,5 477.4,5 477.1,5 476.9,5 476.7,5 476.7,4.8 476.9,4.8 477.1,4.6 477.4,4.6 477.6,4.8
	478.1,5 478.1,5.3 477.9,5.3 "/>
                <polygon class="st0" points="477.4,3.1 477.1,2.9 477.4,2.6 477.6,2.6 477.6,2.4 477.9,2.4 478.1,2.4 478.3,2.4 479.1,2.4
	479.3,2.4 479.5,2.4 479.8,2.4 480,2.4 480.3,2.4 480.5,2.4 480.7,2.4 481,2.6 481,2.9 481,3.1 481.2,3.1 481.2,3.4 481.2,3.6 
	481.5,3.8 481.7,3.8 481.9,3.8 482.2,3.8 482.2,4.1 482.4,4.1 482.7,4.1 482.7,4.3 482.7,4.6 482.4,4.6 482.2,4.3 481.9,4.3 
	481.7,4.3 481.5,4.3 481.2,4.3 481,4.3 480.7,4.3 480.3,4.3 480,4.3 479.8,4.3 479.3,4.6 479.1,4.6 479.1,4.3 478.8,4.3 478.6,4.1 
	478.1,4.1 477.9,4.1 477.6,3.8 477.1,3.8 476.9,3.8 476.9,3.6 477.1,3.4 477.1,3.1 "/>
                <polygon class="st0" points="475,3.1 474.7,3.1 474.7,2.9 475.2,2.6 475.5,2.6 475.7,2.6 475.9,2.6 475.9,2.9 475.7,3.1 475.7,3.4
	475.5,3.4 475.2,3.4 "/>
                <polygon class="st0" points="553.9,-1.4 553.9,-1.7 554.2,-1.7 554.2,-1.4 554.4,-1.4 554.4,-1.2 554.4,-1 554.7,-1 554.7,-1.2
	554.7,-1.4 555.1,-1.7 555.4,-1.7 555.9,-1.2 556.3,-0.7 556.3,-0.5 556.3,-0.2 556.1,0 555.9,0 555.1,0.2 554.9,0 554.7,-0.2 
	554.4,-0.2 554.2,-0.5 553.9,-0.5 553.7,-0.5 553.5,-0.7 553.5,-1 553.5,-1.2 553.7,-1.2 "/>
                <path class="st0" d="M472.8,23.5h-0.2l0.2,0.2h0.2l0.5,0.5h0.2v0.2h0.5v-0.2h-0.5l-0.2-0.2L472.8,23.5z M566.7,18.5h-0.2v0.2h-0.2
	V19h0.2l0.2-0.2V18.5z M475.9,16.1h-0.7l0.2,0.2h0.5l0.2,0.2v0.2h0.7l0.2-0.2v0.2h0.5l-0.2-0.2h-1l-0.5-0.2V16.1z M584.9,13.7v1
	l0.2-0.5L584.9,13.7z M473.5,10.8V11h0.2v0.2h0.2V11L473.5,10.8z M564,6.5V7l0.2,0.2V7L564,6.5z M558.5,4.6l-0.2,0.2h0.2V4.6z
	 M548.2,1.2h-0.2v0.2h0.2V1.2z M477.1-0.2h-0.2L476.7,0h0.2L477.1-0.2z M480.7-0.7h-0.2l0.2,0.2h0.2l0.2,0.2l0.5,0.2h0.2l-0.2-0.2
	h-0.2L480.7-0.7z M541.2-1.9L541-1.7h-0.2v0.2l-0.2-0.2l-0.2,0.2l0.5,0.2h0.2l0.2-0.2V-1.9z M544.3-3.6l-0.7,0.2l-0.2,0.2l0.5-0.2
	h0.5V-3.6z M531.6-5.8l0.2,0.5h0.2l-0.2-0.2L531.6-5.8z M513.6-13.2h-0.2l0.2,0.2V-13.2z M539.8,66.7V67h-0.2v0.2h0.2v0.5l-0.2,0.5
	l-0.5,0.2l-0.5,0.2l-0.2-0.2l-0.2,0.2l-0.2,0.2h-0.2l-0.2,0.2h-0.2v0.2h-0.2v-1.7h-0.5v-1h-0.2v0.7l0.2,0.5l0.2,0.2l-0.2,0.5h-0.2
	l-0.5-0.2l-0.5-0.5H535v-0.2l-0.2-0.2h-1.2l-0.2-0.5l-1-0.5v-0.2l0.2-0.2h0.2v-0.2l-0.2,0.2l-0.5,0.2v0.5h0.2l0.7,0.5l0.2,0.2h0.2
	l0.2,0.2h0.7v0.2h0.2l1,0.7h0.2v1l-0.2,0.2h-0.2v0.2h0.7l0.2,0.2v0.2h-0.7l-0.2-0.2h-0.2v0.2l0.5,0.5h1l0.2,0.2v0.2h0.2v0.2
	l-0.2,0.7l-0.2,0.5l-0.2,0.2v0.2h-0.2l-0.2,0.2h-1v0.5h-1l-0.2-0.2l-0.7-0.5h-0.2l-0.2-0.2h0.2V73h-0.2l-0.2,0.2h-0.5v-0.5l0.2-0.5
	V71l0.2-0.2h0.2l0.2-0.2v-1l-0.2-0.2v-0.5h-0.2v-0.2l-0.2-0.5l-0.2-0.2v0.5l0.5,0.7v0.2l0.2,0.2v0.7h-0.2v0.2h-0.2v0.2h-1.2
	l-0.2-0.2v-0.5l0.2-0.5v-1.2l-0.5-0.2l-0.2-0.5h0.2v-0.2l-0.2,0.2h-0.2l-0.2-0.2h0.2v-0.2l-0.2,0.2v0.2h0.2v0.2l0.5,0.5l-0.2,0.2
	v0.2l0.2,0.2v0.5l-0.2,0.2h-0.7v-1l0.2-0.5v-0.2h-0.2l-0.5-0.2v0.5h-0.5l-0.2-0.2v-0.7h0.5l0.5-0.2l1-0.7l0.2-0.2h0.2V66l-0.2,0.2
	h-0.2v0.2h-0.2l-0.2,0.2h-0.2l-0.2,0.2H529v-0.2l-0.2-0.2v-0.2L529,66h0.2v-0.2L529,66h-0.2l-0.2-0.2H528l-0.2-0.5v-0.5h0.2l0.2-0.2
	l-0.7-0.5l-0.7-0.2l-0.2-0.2v0.2h-0.5l-0.2,0.2l-0.2,0.2h1v0.5h-0.7V65h-0.5l-0.2-0.2v-0.2l0.2-0.2v-0.2l-0.2,0.2v0.2h-0.2l-0.2-0.2
	v-0.2l0.2-0.2v-0.5l0.2-0.2v-0.2h-0.5v0.2h-0.5l-0.2-1.2l0.2,0.2h0.2v-0.2h-0.2l-0.2-0.2l-0.2,0.2h-0.5v0.7H523v-0.2l-0.2-0.5h0.2
	l-0.2-0.2l-0.5-0.2h-1.2v-0.2h0.2V61h-0.2v0.2h-0.2l-0.2-0.5h0.5l-0.5-0.2l-0.2-0.2l-0.2-0.2h0.5v-0.5h-1.4l-0.2-0.2h0.2V59h-0.2
	l-0.2,0.2l-0.2,0.2l-0.2-0.2V59l-0.2-0.7l-0.5-0.5V59h-0.2v0.2l-0.2,0.2l-0.2,0.2V60h-0.2v0.2h-0.2V60l0.2-0.5v-0.2l0.2-0.2h0.2
	v-0.5h-0.2v-0.2h0.2v-0.2h0.2v-0.2H517l-0.2,0.2v0.2l-0.7-0.2l0.2-0.2l0.2-0.2h0.2l0.2-0.2v-0.2h-0.5l-0.2,0.2l-0.2,0.2h-0.5v-0.2
	h0.2v-0.2l0.2-0.2l0.2-0.2l-0.5-0.5v0.2h-0.7l-0.5-0.2h-0.7v0.2h-0.2l-0.7-0.2v-0.2h0.5v-0.5l-0.2-0.2l-0.5-0.2h-0.2v0.2h-0.2v0.2
	h-0.2v-0.2h-1.2v0.2h-0.2v-0.2H510v0.2h-0.2v-1h-1l-0.2-0.2l-0.5-0.2l-0.2-0.5h-0.2v0.2l0.2,0.2l-0.2,0.2h-0.2v-0.5l0.2-0.2v-0.2
	l0.2-0.2l-0.5-0.5h-0.7v-0.5h-0.5v0.2l-0.2-0.2v-0.5h-0.2v0.2h-0.2v0.2h-0.2l-0.2,0.2l-0.7-0.2l-0.2-0.2l0.2-0.2h-0.5l-0.2,0.2v0.7
	h-0.5v-0.7l-0.5-0.2v0.5h-0.2l-0.5-0.2v-0.2h-0.5l-0.5,0.2v-0.2l-0.2,0.2l0.2,0.2v0.2h-0.5l-0.2-0.5l-0.2-0.2h-0.2l-0.7,0.2h-0.2
	l-0.2,0.2h-1v0.2h-0.2v-0.2h-0.5v0.2l-0.2,0.2h-0.2v0.2l0.2,0.2h-0.2l-0.2-0.2v-0.2h-0.2l-0.5-0.2h-0.2l-0.5,0.2h-0.2l0.2,0.2V53
	l0.2,1v0.2l-0.2,0.2v0.2h-0.2v-0.2h-0.2l-0.2-0.5l-0.2-0.2v-0.2H493l0.2,0.2l0.2,0.2v0.5h-0.2v-0.2H493v0.2l0.5,0.5v0.2H493v0.5
	h-0.2v-0.2h-0.5v0.2l0.2,0.2l0.2,0.2l0.2,0.2l-0.2,0.2h-1v-0.5l-0.2-0.5v-0.2h0.2l-0.2-0.2h-0.5l-0.2,0.2l-0.2,0.2h-0.2l0.2,1h0.2
	v0.5h-0.2l-1-0.5v-0.2h-0.5l-0.2,0.2v0.7h0.7l0.2,0.2l0.2,0.2h0.7l0.5,0.2l0.2,0.2h-1.9l-0.2,0.2h-0.7l-0.7,0.2h-1v-0.2h0.2v-0.2
	h-0.5l-0.2,0.2v-0.2H486l-0.2-0.2h-1l-0.7-0.2l-0.2-0.5h0.2l0.2-0.2v-0.2l0.2-0.2l0.2-0.2v-0.7l0.2-0.2h0.5l0.5-0.2V55l-0.2-0.5
	h-0.5v0.2l-0.2,0.2h-0.2l-0.2,0.2h-0.7l-0.2,0.2h-1.9v-0.2h-0.2l0.2-0.2v-1.4h-0.2v1l-0.2,0.2v1h-1v-0.2l-0.5-0.2L480,55h-0.2
	l-0.2-0.2l-0.2,0.2h-0.5l-0.2-0.2v-1l0.2-0.2h0.2v-0.2h-0.2l0.5-0.5l0.2-0.2l0.2-0.2h0.2l0.2-0.2h0.5l0.5-0.2h1v-0.2h0.7l0.2-0.2
	h0.2v-0.2l0.2-0.2h1l0.2-0.2h-1l-0.2,0.2h-0.2v0.2h-0.5l-0.2,0.2h-1.2v-0.2l0.2-0.2v-0.2h0.2v-0.2l0.2-0.2h0.2l0.2-0.2l0.2-0.2h0.2
	v-0.2h0.2l0.5-0.2h0.2l0.5-0.2h0.2l0.2,0.2h0.2l0.2,0.2l0.5-0.2h-0.7V49l-0.7-0.5l0.2-0.2h0.5V48h0.2l-0.2-0.2v-0.2l-0.5-0.2
	l-0.2-0.2h-0.7l-0.5-0.2l-0.5,0.2v0.5l0.2,0.2V48l-0.2,0.5h-0.2l-0.2,0.2l-0.2,0.2h-0.2v0.2h-0.5V49h-0.2v-0.2l-0.7-0.2h-0.2v0.2
	h0.5V49l0.2,0.2h0.2v0.2l-0.2,0.2l-0.2,0.2l-0.2,0.2h-1.7v0.2h-0.5v-0.2l0.2-0.2v-0.2l0.2-0.2l0.2-0.5v-0.2l-0.2-0.2V49h-0.2v0.2
	h-0.2l-0.2,0.2l-0.2,0.2h-0.5l-0.2-0.2l0.2-0.2v-0.7h0.2v-0.2h-0.5l-0.2,0.2v0.7h-0.5v0.2h-0.2l-0.2,0.2l-0.2-0.2h-0.2l0.2-0.2v-0.5
	h-0.2V49h-0.2v0.2l-0.2-0.5h-0.2V49h-0.2v0.2h-0.2V49h-0.5l-0.5-0.2v-0.5h-0.2l-0.2,0.2l-0.2-0.2l-0.5-0.2h-0.5v-0.2h0.5v-0.2h-0.2
	v-0.7h-0.5v-0.5l0.2-0.2h-0.2l-0.2-0.5v-0.2l0.2-0.2l0.2-0.2h0.2l0.2-0.2v-0.7h0.2l0.2-0.2h0.7l-0.2-0.5V43h0.2v-0.2l0.2-0.2
	l0.2-0.2L474,42v-0.2l0.2-0.2h0.2l0.2-0.2v-0.7l0.2,0.2h0.5l-0.2-0.2h-0.7v-0.5l0.2-0.5l0.2-0.7h0.2l0.2-0.2h0.5v-0.7h0.5v-0.2h0.5
	l0.2-0.2v-0.2h1v-0.5l-0.2-0.7v-0.2h0.2l-0.2-0.5V35h0.2v-0.2l-0.2-0.2v-0.2l-0.2-0.2h0.2v-0.5h-0.2l-0.2-0.5l-0.2-0.2h-0.2
	l-0.5-0.5l-0.5-0.7l-0.2-0.2v-0.2l-0.5-0.5v-0.2l0.2-0.2l0.2-0.5v-0.5h0.2V29h-0.5l-0.2-0.2v-0.2H475v0.2l0.2,0.5h0.2v0.5h-0.2v0.5
	h-0.7v0.5l-0.2,0.5h-0.5l-0.2-0.2h-0.5v0.2l-0.2,0.2l-0.2,0.2h-0.2l-0.2-0.2v-0.2h-0.7V31l-0.5-0.7h-0.2V30h0.2v-0.7l0.2-0.5h-0.2
	v-0.2h-0.2v-0.5h0.2v-0.2l0.2-0.2v-0.2h-0.2v-0.2h0.2v-0.2h0.2l-0.2-0.2l0.2-0.5v-0.7l-0.2-0.2V25h0.2v-0.2h-0.2v-0.2h-0.2v-0.2h0.2
	V24l0.2-0.2v-0.2h0.2v-0.2h-0.2v-0.7h0.2v0.2h0.2V23h0.2l-0.2-0.5l-0.2-0.2v-0.5l0.2-0.2h0.5l0.2-0.2h0.2l0.2,0.2h0.5l0.2,0.2h0.2
	v-0.2h-0.2l0.2-0.2l0.2-0.2v-0.2l-0.2-0.2h-0.5l-0.7-0.7v-1h-0.2v-0.2h-0.2v-0.2h-0.5l-0.5-0.2l-0.2-0.2h-0.2l-0.2-0.2v-0.2h-0.2
	v-1.2h0.2v-0.5l0.2-0.2h0.7l0.2-0.2h0.7l0.2,0.2h0.2l0.2,0.2v0.2h0.2v0.2h1.4v-0.2l-0.2-0.2h-1l-0.2-0.2l-0.5-0.5h-0.5l-0.5-0.2
	h-0.5v0.2h-0.2v-0.2h-0.2v-0.2l0.2-0.5v-0.2l0.2-0.2v-0.2l0.2-0.5v-0.2l0.2-0.2l0.2-0.2v-0.5h0.5V12h0.2v-0.2l-0.2-0.2V11h0.5v-0.5
	l-0.2,0.2v-0.5l0.2-0.2V9.6h0.7l0.7,0.5l1,0.2v0.2l1,0.7l0.2,0.2h0.2l0.2,0.2V12l0.2,0.2v0.2l0.2,0.2V13l1,0.7h0.5l-0.7-0.7h-0.2
	v-0.2l-0.2-0.5V12l-0.2-0.2v-0.5h-0.2l-0.2-0.2h-0.2v-0.2h-0.2v-0.2h-0.2v-0.2h1.7l0.2-0.2h1.2l0.2,0.2h0.5v-0.2h0.2l0.2,0.2h0.2
	v0.2h0.7v-0.5h-0.7V9.8h-0.5l-0.2,0.2H480V9.8h-1l-0.2-0.2V9.4h0.2v0.2l0.2-0.2h0.2l0.2-0.2h0.5V8.4h-1.7l-0.2-0.2h-1V7.9h-0.2
	l-0.2-0.2l-0.2-0.2h-0.2l-0.2-0.2h-0.2L475.7,7l-0.5-0.2l0.2-0.2V6.2h0.2V6h0.2V5.8h0.5l0.2-0.2h0.7l0.2,0.2h1.2V5.5h0.7v0.2h0.7
	V5.5h1V5.3h1v0.2h0.5v0.2h1.9l0.2-0.2h0.2l-0.2-0.2V4.8h-0.7V5l-0.5-0.2l0.2-0.2h-0.5l-0.2,0.2l-0.2-0.2V4.1l-0.2-0.2h-0.2l-0.5-0.2
	l-0.5-0.2V3.1l-0.2-0.2l0.2-0.2h0.2l0.5-0.2h0.2V2.2h0.2V1.9h0.5V1.7h-0.5l-0.2,0.2v0.2h-0.7l-0.2,0.2V2.2h-0.2V1.9h-2.6V1.7h-0.2
	l-0.2,0.2h-0.5l-0.2-0.2h-0.2V1.4l0.2-0.2h0.2l0.2-0.2l0.2-0.2h0.2V0.2h0.2V0l0.2-0.2l0.2-0.2v-0.2h0.5V-1h0.2v0.2l0.2,0.2h0.2v-0.2
	L480-1h-0.2v-0.2h2.2v-0.2h0.2l0.7,0.2h0.2V-1h0.7l-0.2-0.2l-0.7-0.2l-0.7-0.2v-0.2h-0.2l-0.5-0.2H481v0.2h-0.5L480-1.7h-0.2
	l-0.2,0.2h-0.2l-0.2,0.2h-0.2V-1h-0.2l-0.2,0.2l-0.2,0.5V0l-0.2,0.2h-0.2v0.2h-1l0.2,0.2h0.2V1h-0.2l-0.2,0.2v0.2h-0.2v0.2h-0.7v0.2
	h-0.5l0.2-0.2h-0.2V1.4l0.2-0.2h0.5L475.7,1h-0.2v0.2H475L474.7,1V0.7h0.2V0.2l0.2,0.2h0.5l0.2-0.2h0.5v0.2h0.2V0.2h-0.2V0H475v-0.5
	h0.5v-0.2h-0.2V-1l0.2-0.2h0.5l0.2-0.2h-0.2l0.2-0.2h0.5v-0.2h-0.2l-0.5,0.2l-0.2,0.2h-0.5l0.2-0.2v-0.2h0.2l0.2-0.2v-0.2l-0.2,0.2
	h-0.2l-0.2-0.2h0.2v-0.2h0.5v-0.2h-0.2l0.2-0.2h0.2v0.2h0.7l0.2,0.2l0.2,0.2v-0.2h-0.2v-0.2h1.9l0.2-0.2l0.2-0.2v-0.2h1.9l0.2,0.2
	v-0.2l-0.5-0.2L481-3.6v-0.2h-0.5l-0.2-0.2h-0.7v-0.2l0.2-0.2v-0.2L480-5v-0.2h0.2l0.2-0.2h-0.2L480-5.3h-0.2v0.5l-0.2,0.2h-0.2
	v-0.2L479.1-5l0.2-0.2v-0.5l0.2-0.2v-0.2L479.3-6v0.2h-0.7v0.2l-0.2,0.2h-0.7l-0.2-0.2l-0.2-0.2L476.4-6l0.2-0.2l0.5-0.2h0.2v-0.2
	h-0.2v0.2h-0.2L476.4-7v-0.2h0.7v-0.2h0.5v-0.2h-0.7l-0.2-0.2v-0.2l0.2-0.2v-0.2h0.2v-0.2h0.2l-0.2-0.5v-0.2h0.2l-0.2-0.2h0.5v0.2h1
	v-0.2h-1v-0.2h-0.2v-0.2l0.2-0.2V-11l0.2-0.2h0.5v-0.5h0.2l0.2-0.2v-0.5h-0.2l0.2-0.2l0.2-0.2h0.2v-0.2h1v-0.2h0.7v-0.5l-0.2,0.2
	h-0.2v-0.2l0.2-0.2h-0.2l0.2-0.2h0.2v-0.2l0.5-0.2l0.5-0.2l0.2-0.2h0.7l0.5,0.5v0.2l0.2,0.5v0.7h-0.2v0.5h-0.2l-0.2,0.2l-0.2,0.5
	l-0.2,0.2v1.7l0.2,0.2v0.2l-0.2,0.2h-0.5l-0.2,0.2l-0.2,0.2h-0.2v0.2h0.2v-0.2h0.2v-0.2h0.7v1.9l-0.2,0.2v0.7h0.2l0.7,0.5h0.2
	l-0.5-0.2l-0.2-0.2l-0.2-0.2v-0.5l0.2-0.2v-0.2h0.5v-0.2h-0.5v-0.7l0.2-0.2v-0.7h0.7v-0.2h-0.5v-0.5l-0.2-0.2v-0.7h-0.2v-0.5h0.2
	v-0.5l0.2-0.2h0.2v-0.2h0.7l-0.2-0.2v-0.2h0.2l0.2-0.2v-1l-0.2-0.2v-1h0.7v0.2h1v0.2h0.2l0.2,0.2h0.2l0.2,0.2l0.2,0.2v0.5h0.2v-0.5
	H487v-0.5h-0.2v-0.2h-0.2v-0.7l0.2-0.2v0.2h0.2l0.7,0.2v-0.2h-0.5v-0.5h0.5v-0.2h0.5l-0.2-0.2h0.2l0.2-0.2h1.9l0.2,0.2l0.2,0.2v0.2
	h0.7l0.2,0.2v0.5l0.2,0.2v0.2l-0.2,0.2v0.2l0.2,0.5v0.2h0.2v0.5l0.2,0.2v0.2l-0.2,0.2v0.7l-0.2,0.2l-0.2,0.2v0.2l-0.2,0.2h-0.2v0.2
	l-0.2,0.2v0.7h-0.2l0.2,0.2v0.5h-0.2v0.5h-0.5l-0.2,0.2v0.2h-0.2v0.2h-0.2v0.5h-0.2v0.2h0.2v-0.2l0.2-0.2l0.2-0.5l0.2-0.2h0.7
	l0.2,0.2V-7h0.2l-0.2,0.2v0.2l0.2,0.2V-6h-0.2v0.2l0.2,0.2v0.7h0.2v0.2h0.2l1,0.5v-0.7h-0.2V-5l-0.2-0.5v-0.2L492.3-6l0.2-0.2
	l-0.2-0.2v-0.2l0.2-0.2v-0.2l-0.2-0.2v-0.7h0.2v0.2h0.5l-0.2-0.2v-0.2h-0.5v-0.7l0.2-0.2v-0.7l0.2-0.2V-11l0.2-0.2l0.2-0.2v-0.2
	l0.2-0.2l0.2-0.2v-0.2l1.4,0.5h0.2v0.2h0.2v0.2h0.2v0.2l0.2,0.2v0.5l0.2,0.2l0.2,0.2v0.7l0.2,0.2v0.2h0.5v-0.2l0.5,0.2v0.2l0.2-0.2
	l-0.2-0.2v-0.5h-0.2l-0.2-0.2v-0.7l-0.5-0.5v-0.2l-0.2-0.5h-0.2v-1l-0.2-0.2h-0.5l-0.5-0.2l-0.7-0.2l-0.5-0.2v-1.9h0.7l0.2,0.2h0.5
	l1.2,0.2h0.5l1.4,0.7l0.5,0.2h0.2l0.7,0.5l0.2,0.2h0.2v0.2h0.2l0.7,0.5l0.2,0.2v0.2h0.2v0.2h0.5v0.2h0.2v0.2h0.2l0.5,0.5h0.5
	l0.2,0.2l0.7,0.2v0.7h0.2v-0.2l0.2,0.2l0.5,0.2l0.2,0.2v-0.5h-0.2v-0.2h-0.2l-0.2-0.2v-0.2H505v-0.2h-0.2l-0.2-0.2h-0.2v-0.2h-0.7
	v-0.5l-0.2-0.2l-0.2-0.5h-0.5v-0.2h-0.2l-0.2-0.5h-0.2l-0.5-0.5v-0.2h-0.2v-0.2h-0.5v-0.5h-0.5l-0.2-0.2h-0.2v-0.2h-0.2v-0.2h-0.2
	l-0.2-0.2l-0.5-0.2v-0.5l-0.2-0.2l-0.2-0.2V-17l0.2,0.2h0.2v0.2l0.5,0.2h0.2l0.5,0.2h0.5l-0.2-0.2l-0.2-0.2h-0.2l-0.2-0.5h7.4v0.2
	h0.2v0.2h0.2l0.2,0.2v0.2h-0.2v0.2h-0.2v0.5h-0.2v0.2h-0.2v0.5l0.2,0.2v0.2h0.2l0.2,0.2v0.2l-0.2,0.2v0.2h0.2v-0.5h0.2v0.2h0.2v-0.2
	h-0.2v-0.2l-0.2-0.2v-0.2h-0.2l-0.2-0.2v-0.2l0.2-0.2l0.2-0.2l0.2-0.2v-0.2h0.2l0.2-0.2v-0.2l0.2-0.2v-0.2h-0.2V-17h3.1v0.2
	l-0.2,0.2v0.5l0.2,0.2h-0.2v0.2l-0.2,0.2v0.5h-0.2l-0.2,0.2l-0.2,0.2v0.2l0.2,0.2h0.2v0.2h0.5v0.2h0.2v0.5h0.2v-0.2l0.5,0.2v0.2h0.5
	l0.2,0.2l0.5,0.2h0.2v-0.2h1v-0.2h-1l-0.7-0.5l-0.2-0.2l-0.2-0.2v-0.5h-0.2v-0.2h-0.2v-0.2h0.2v-0.5l-0.2-0.5v-0.5l0.2-0.2l0.2-0.2
	h0.5l0.5,0.2l0.5,0.2l0.2,0.2h0.2v0.2l0.5,0.2l0.5,0.2v0.5h-0.2v0.2h-0.2v0.2l-0.2,0.2l0.2,0.2l0.2,0.2h0.2l0.2,0.2h0.5l0.2,0.2h0.2
	l0.2,0.2l0.5,0.2h1l0.2,0.2h0.2l0.2,0.2l0.5,0.2h0.5l-0.7-0.5h-0.2l-0.2-0.2h-0.2l0.2-0.5h0.5v0.2h-0.2v0.2l0.7,0.2l-0.2-0.2v-0.2
	h0.2v0.2h0.2l0.2,0.2h-0.2l0.2,0.2v0.5l0.5,0.2h1l0.2,0.2h0.2v0.2h0.2v0.2h-0.2l-0.2,0.2v0.2l0.2,0.2h0.2v0.2h-0.2v0.2l0.2,0.2v-0.2
	l0.2,0.2h0.7l0.2,0.2v0.5h0.2v-0.7h0.2l0.2,0.2l0.5,0.2l1.2,0.7l0.5,0.2h0.7l0.5,0.5h0.2V-7h-0.2v0.2l0.2-0.2h0.2v-0.2l0.2,0.2
	l0.2,0.2l0.2,0.2l0.5,0.5h0.2v-0.2h-0.2v-0.2l0.5,0.2l0.2,0.2l0.2,0.2l1,0.5h0.2V-6l-0.2-0.2h-0.5v-0.2h-0.5L529.2-7L529-7.2
	l-0.2-0.2l-0.2-0.2l0.5-0.2h0.2l0.7-0.2l0.2-0.2l-0.7,0.2H529v-0.2l0.2-0.5v0.2h0.2l0.2-0.2l0.2-0.2h0.2v-0.5h0.7v0.2l-0.5,0.5v0.2
	h0.2l0.2-0.2v-0.5h0.5v-0.2h1.2v0.5h0.2v0.2h-0.2l-0.2,0.2l-1,0.5h-0.2v0.5h0.2v0.2h-0.2v0.2l0.2,0.2v0.2l0.5-0.2v-0.2l0.2-0.2h0.5
	l-0.2,0.2V-7h0.2v-0.2h0.5V-7h-0.2v0.2h-0.2v0.2h-0.2v0.2l0.2-0.2l0.2-0.2h0.2l0.2-0.5l0.2-0.2v-0.2l0.2,0.2V-7h-0.2v0.7l0.2-0.2
	h-0.2l0.2-0.2L534-7v-0.7l0.2-0.2l0.2-0.2h0.7l0.2,0.2h0.2l-0.2-0.2v-0.2h0.2l0.2-0.2h-1v-0.2h-0.2v-0.2l0.2-0.2v-0.2l0.2-0.2h0.5
	l1.7,0.2l1.2,0.2l0.5,0.2l0.7,0.5h-0.2v0.2h0.2l-0.5,0.5h-0.2v0.2l-0.2,0.2v0.2h-0.2L538.3-7l-0.5,0.2l-0.2,0.2v0.2h0.2V-6h-0.2
	l-0.2,0.2l-0.2,0.2V-5l0.2,0.2v-0.5l0.2-0.2h0.2v0.2l0.2,0.2v0.2h-0.2l-0.2,0.2v0.7h-0.2v0.2h0.2l0.2-0.2v-0.5l0.2-0.2h0.2l0.2,0.2
	l-0.2,0.2h0.2l0.2,0.2l0.2,0.2l0.5,0.5v0.2h-1.9v0.2h-0.2l0.2,0.2l0.2,0.2h0.5l-0.2,0.2v0.2h0.2v0.2h0.5v-0.2h0.5l0.7,0.2l0.2-0.2
	h-0.5l-0.5-0.5v-0.2l0.2-0.2h1v0.2l0.2,0.2v0.2h0.2v-0.2h-0.2v-0.5l0.5,0.2v-0.2l0.5,0.2h0.2v0.2h0.2l0.5,0.2h0.2l0.2-0.2l-0.2-0.2
	v-0.5h0.2v-0.2h-0.5v-0.2h0.2l0.2-0.2h0.2l0.2-0.2v-1l0.2-0.2h1v0.2h0.5v0.7l0.2,0.2v0.2l0.2,0.2l-0.2,0.5l-0.2,0.2l-0.2,0.7v0.2
	h0.2l-0.2,0.5L544.8-1h-0.5l0.5,0.2h0.2V-1l0.2-0.2v-1l0.2-0.5l0.2-0.2v-0.2h0.2v-0.2h0.2v-0.7h0.5l0.2-0.2h0.7l0.5,0.2l0.5,0.2
	l0.5-0.2h0.7v0.2l1.2,0.2h0.2l0.2,0.2h0.7v0.2l0.2,0.2h0.2l0.2,0.2h0.2v0.2H553v0.2h-0.2l-0.2,0.2h-0.2L552-2.2h-0.2v-0.2h-0.2
	l-0.2,0.2h-0.2v0.5h0.2V-1l-0.7,0.2l-0.5,0.2h-1.4v0.2h-0.5V0h-0.2v0.2h-0.5v0.2l-0.2,0.2h0.2l0.2-0.2h0.2V0.2h0.2l0.7-0.2v-0.2h0.7
	L549.4,0l-0.2,0.2v0.2l-0.2,0.2V1l-0.2,0.2h-0.2v0.2l0.2-0.2l0.5-0.2V0.5l0.2-0.2l0.2-0.2l0.2-0.2h0.7l0.2-0.2l0.2-0.2h0.7V-1h1v0.5
	h-0.2v0.2h-0.2l0.2,0.5v0.2l0.2,0.2V1h0.2v0.2l0.2,0.2v0.2h-1l-0.5,0.2l-0.5,0.2v0.2h0.2l0.2-0.2V1.9h1.4l0.2-0.2V1.2L553.2,1
	L553,0.7l-0.2-0.2V0.2L553,0v-0.5h0.5l1,0.5l0.2,0.2h1.2l0.2,0.2l0.2,0.2v0.5h-0.2v0.2h0.2V1.2h0.2V0.5l-0.2-0.2l0.2-0.5v-0.2h0.5
	l0.5-0.2V-1l-0.2-0.2l-0.2-0.5v-0.2h0.5v0.2h1v-0.2h0.2v-0.2l0.5,0.5l0.2,0.2h0.5l0.5,0.7l0.2,0.5L560.4,0v0.2l-0.5,0.5h-1.7V1
	L558,1.2v0.5h-0.2v0.5l0.2-0.2V1.7h0.2V1.4l0.5-0.5h0.5l0.2,0.2h0.7l0.2-0.2V0.7h0.2V1h0.2v2.4h-0.5l-0.5,0.5l-0.2,0.2l-0.2,0.2
	h-0.2L559,4.1h-0.2l-0.2-0.5h-0.2L558,3.1V2.9l-0.2-0.5v0.5l-0.2,0.2h-1l-0.2,0.2h1.4l0.5,0.2l0.2,0.2v0.5h0.2V4.1l0.2,0.2h0.2v0.2
	l0.2,0.2h0.7v0.5l-0.2,0.2h0.2l0.5-0.2h0.2V5l0.2-0.2l1,0.2h0.5l0.5,0.2l0.7,0.2h0.2l-0.2-0.2l-1.4-0.5h-1.4V4.6l-0.2-0.2V4.1h0.2
	l0.2-0.2h0.2l0.2-0.2l0.5-0.2l0.7-0.5V2.6h0.2V2.4h-0.2l0.2-0.2V1.9l0.5,0.2h0.2l0.2,0.2v0.2l0.2,0.2h0.7v0.2h0.5v0.2h0.5V3.1
	l0.5,0.2v0.7h-0.2v1l-0.5,0.2v0.5l0.7,0.2v0.7h0.2V7l0.2,0.2l0.2,0.2v0.2l-0.2,0.2l-0.2,0.2h-0.2l-0.2,0.2v0.2h-0.2l-0.2,0.2v0.2
	H565v0.2h-0.7v0.2h-0.5l-0.7,0.2h-0.7l-0.2-0.2V9.4l0.2-0.2V8.6h0.5l0.5-0.5l0.5-0.2h0.5V7.7H564l-0.2,0.2l-0.7,0.2l-0.7,0.5h-0.2
	v0.5h-0.2v0.2h-0.7v0.2l0.2,0.5l0.5,0.5h0.5v0.2h0.7V11h-0.2v0.2h-0.2l-0.2,0.2l-0.2,0.2h-0.2v-0.2h-0.7l-0.2,0.2H559l-0.2,0.2h1.2
	v0.2h0.2l0.5-0.2h0.2l0.2-0.2h0.5l0.2,0.2h0.2l0.2-0.2l0.5-0.2h0.5V12l-0.2,0.5V13l0.2,0.5l0.7,0.2l0.2,0.7v0.5l-0.2,0.2v0.2
	l-0.2-0.2h-0.2v0.2h-0.5v0.7h-0.2l-0.2,0.2h-1.4v0.2l0.2,0.2V17l1-0.5h0.2l0.5-0.2l0.2-0.2l0.2-0.2v-0.2h0.5v0.7h0.2l0.2,0.2v0.2
	h-0.2L564,17h-0.2v0.2l-0.2,0.2l0.2,0.2l-0.2,0.2v0.5h0.2V18h0.2l1,0.2v0.2l0.2,0.2V19h0.2v-0.2l-0.2-0.2v-0.2l-0.5-0.2h-0.5v-0.2
	H564v-0.5h0.2l0.2-0.2l0.2-0.2v-0.5h-0.2l-0.2-0.2v-0.2l0.2-0.2v-0.5l0.2-0.2h0.5v-0.2h0.2l0.5-0.2v-0.2l0.2-0.2v-0.2h0.7l0.2,0.2
	l0.2,0.2v0.2l0.2,0.2v0.2l-0.2,0.2v0.2h-0.2v0.2h0.2v0.2h0.2v0.2l0.2,0.2v0.5l-0.2,0.2l-0.7,0.2l-0.2,0.2l-0.2,0.2l0.2,0.2v0.2
	l0.2-0.5l0.7-0.5V18l0.2,0.2v-1h0.2l0.7,0.5V18h0.2l-0.2-0.2l-0.2-0.5l-0.2-0.2v-0.7l-0.2-0.2v-0.2l-0.2-0.2v-0.2l1-0.5l0.5-0.5
	l0.5-0.2v0.2h0.2l0.5,0.2h0.2l0.2-0.2l0.2,0.2v0.2l0.2,0.5v0.7l-0.2,0.2v0.2H571v0.7l-0.2,0.2h0.5v-0.7l0.2-0.2h0.5l0.5,0.7h0.2
	l0.2,0.2l0.7,0.2v-0.2h-0.2v-0.2h-0.5l-0.2-0.2h-0.2l-0.5-0.7v-0.7l-0.2-0.2l0.2-0.5h0.7l0.2-0.2l0.7-0.2l0.2-0.2v-0.2l0.2-0.2
	l0.2,0.2h0.5l0.5-0.2l0.5-0.5L576,13h0.2v0.5h0.2V13l0.5-0.2l0.2-0.2h0.2l0.2-0.2h0.2v0.2l0.5,0.5v0.2l0.2,0.2v0.5h0.2l0.2,0.5h0.5
	v-0.2h-0.2l-0.2-0.5v-0.5l-0.5-0.7h0.5v0.2l0.2,0.2l0.2,0.2v0.2l0.7,0.2v-0.2l-0.2-0.5l-0.7-0.5l-0.2-0.2V12l0.5-0.5l0.2,0.2
	l0.2,0.2v0.5h0.2v-0.2h0.2v0.5l-0.2,0.5h0.2v0.2h0.2l0.2,0.2h0.2l0.7,0.2l1,0.2h0.2v-0.2h-0.5v-0.2h-0.5l-0.5-0.2v-0.2l-0.2-0.2v-1
	h1v0.2h0.2v0.2l0.5,0.2v-0.2H583v-0.2h0.2l0.2,0.5v0.5h0.2V13l-0.2-0.2h0.7l0.2,0.2h0.2l0.2,0.2h1.2l1,0.7l0.2,0.2v0.2h0.2v-0.2
	l-0.2-0.2h1l-0.2,0.2v0.2h0.5l0.5,0.2v0.2h0.2v-0.5h0.5l0.2,0.2h0.2l0.2,0.5v0.7h-0.2l-0.2-0.2h-0.5v0.2l0.2,0.5v0.2H589l-0.2-0.2
	h-0.2l-0.2-0.2h-0.7l-0.5-0.2l-0.2-0.2h-0.5l0.2,0.2l0.2,0.2l0.5,0.2l0.5,0.2h0.7v0.2l0.7,0.2l0.2,0.2v0.5l-0.2,0.2v0.5l-0.2,0.2V19
	h-0.5l-1,0.5l-0.7,0.2h-0.2l-1.2-0.2l-1-0.2h-0.2l-0.2-0.2h-0.2l-0.2-0.2H582l-0.2,0.2h-1.2v0.7h-0.2l-0.5,0.2h-1.7l-0.2,0.2
	l-0.2,0.2l-0.7,1v0.5l0.2,0.2H577v0.2l-0.2,0.2h-0.2v0.2h-1.2l-0.2-0.2h-0.5v0.2h-0.5l-0.5,0.2l-0.2-0.2h-0.2l-0.2,0.2h-0.5v0.5
	h-0.2l-0.2,0.2h-0.5l-1,0.2l0.2,0.2h0.2V24h1v0.5h0.2l0.5-0.5v-0.2l0.2-0.2l0.2-0.2h0.2l0.2,0.2l0.7-0.2h0.2l0.2-0.2h0.2l0.5,0.2
	v0.2h-0.2v2.2h-0.2v0.2h0.2v-0.2l0.2-0.7v-1.2l0.2-0.2h0.2l0.2-0.5h0.2l0.2,0.5h-0.2l0.2,0.2l0.2-0.2l-0.2-0.2V23l0.2-0.2h0.2
	l0.2-0.2l0.2-0.5v-0.5l0.2-0.2v-0.5l0.2-0.2l0.2-0.2h1.2v-0.2h0.2l0.5,0.2l0.5,0.5l-0.2,0.2h-0.2l-0.2,0.2h0.5l0.2-0.2h0.2v0.5
	l0.5,1v1l0.2,0.2v1l-0.2,0.2l-0.2,0.5v0.2l-0.2,0.5h-1.7l-0.2-0.2h-0.2v0.5h1.9v0.2h-0.5v0.2l-0.2,0.2h-0.2v0.2l-0.2,0.2v0.2
	l0.2,0.2v-0.2l0.2-0.2h0.2v-0.2h0.7l1,0.7h0.2l0.7,1.2v1l-0.2,0.2v1.2l0.5,0.2l0.2-0.2v-0.2l-0.2-0.2v-0.7l0.2-0.2l-0.2-0.2l0.2-0.5
	l0.2,0.2h0.2V30h0.7v-1l0.2-0.7l0.2-0.7v-0.5h0.2v-1.2h0.2v-0.2h1v0.2l0.2,0.7v0.2l-0.2,0.2h-0.2v0.5l0.2,0.7v0.2h0.2V29l0.2,0.7
	v0.5l-0.2,0.2h-0.5v1.2l0.2,0.2h0.2v-1h0.2v-0.2h0.5v-0.5l0.2-0.5v-0.2l0.2,0.2h0.2l0.2,0.2v-0.2h0.2v-0.5h-0.2l-0.7-0.5v-0.2h-0.2
	l-0.2-0.2l-0.2-0.2l-0.2-0.7l0.2-0.2l0.2-0.2h0.2l0.2-0.2v-0.2h0.2v-0.2l-0.2-0.5l-0.2-0.2v-1l-0.2-0.2V23h0.2v0.2l0.2,0.5l0.5,0.2
	v-0.2h0.2v-0.2h-0.2L588,23v-0.2l0.5-0.2l0.7-0.5l1.4-1l0.2-0.2l0.2-0.2h0.2v-0.2l0.5-0.7l0.2-0.7l0.2-0.2v-1.4h-0.2V17h0.5l0.2,0.2
	l0.5,0.5V18l0.2,0.2l-0.2,0.2l0.2,0.2V19l-0.2,0.2l-0.2,0.2l0.2,0.2l0.2-0.2h0.2v0.2h-0.5l-0.2,0.2l0.2,0.2l0.2-0.2v1h1v0.2h-0.2v1
	l-0.2,0.2l-0.2,0.2h0.2v-0.2h0.2v-0.2h1l0.2,0.5h0.2l0.2,0.5v0.2h-0.2l-0.5,0.2l-0.2,0.2l-0.2,0.2h0.2l0.2-0.2h0.7l0.2,0.5v0.5
	l0.2,0.2v0.2l-0.5,0.2l0.2,0.2h0.5l0.2,0.2h0.2v0.5h-0.2l-0.2,0.2h-0.2v0.2h-0.2l0.2,0.2v0.5h0.2v-0.2l0.2-0.2v-0.2h0.2l0.2,0.2
	l0.2,0.2l0.5,0.7l0.2,0.2h-0.2v0.2l-0.5,0.2h-0.2V29l0.5-0.2h0.7V29l-0.2,0.2v0.2l0.2,0.2v-0.2h0.5v0.7l0.2,0.2V31l-0.2,0.2l0.2,0.5
	l0.2,0.2h0.2v0.5l-0.2,0.5v0.2h-0.2v0.5l0.2,0.5h0.2v0.2h-0.5v0.5h0.5V35h-0.2v0.5h-0.2v-0.2h-0.2v0.2l0.2,0.2l0.2,0.2l0.2-0.2v0.5
	l-0.2,0.2h-0.5l-0.2-0.2l-0.2,0.2l0.2,0.2l0.5,0.2h0.2l-0.2,0.7l-0.2,0.2v0.7h0.2l-0.2,0.7l0.5,0.2h-0.5l-0.5,0.2v0.2h0.7l0.2,0.2
	v0.2h-0.7l0.2,0.2h0.2l0.5,0.5h-0.2v0.2h-0.5l-0.7,0.2h-0.2v-0.2h-0.7l0.2,0.5l0.7,1h1.2v0.2l-0.2,0.5v0.2h-0.7v-0.2h-0.2l-0.2-0.2
	v0.2l-0.5,0.5h-0.2v0.2l0.5-0.2l0.2-0.2h0.5l0.7,0.2v0.2l-0.2,0.5h-0.2l-0.2,0.5v0.5l-0.7,0.5h-0.7l0.2,0.2h0.5v0.2l-0.2,0.2h-0.2
	l-0.5-0.2V47h-0.2l-0.2,0.2h-0.2v-0.7h0.2v-0.2h0.2v-0.2l-0.2,0.2h-0.2l-0.2,0.2l-0.2,0.2V47H595l-0.7-0.2V47h-0.5l-0.5-0.2
	l-0.2-0.2h-0.7v0.2h0.7l0.2,0.2v0.2l0.2,0.2h1v-0.2h0.5l0.7,0.2l0.2,0.2h-0.2l-0.2,0.5l0.2-0.2h0.5l0.2-0.2h0.5l0.2,0.2l0.5,0.5
	l0.2,0.2l0.5,0.5h0.2v0.2h-0.5l-0.2,0.2v0.5h0.2v0.2l0.5,1v0.5l-0.2,0.2h-0.2v0.5h0.5v-0.2h0.2v0.2l0.2,0.5v0.2l0.5,0.2L600,54
	l0.2,0.2v0.2H600l-0.2,0.2h0.2l0.2-0.2l0.7,0.2l0.2,0.7l0.5,0.5v0.5l0.5,0.5h0.2l-0.2,0.2v0.2h-0.2l0.2,0.5l0.5,0.2l1,0.7l0.2,0.2
	l0.5,1v0.2l-0.2-0.5l-0.2,0.2l0.2,0.2h-0.2l-0.2-0.2h-0.2l-0.2-0.2h-0.2l0.7,0.5l0.5,0.2h0.2v0.2l0.7,1l0.2,0.2v1.2l-0.5,0.2h-0.2
	v-0.2l-0.2-0.2h-0.2l0.2,0.5l0.2,0.2h0.2l0.5-0.2v0.2h0.2l-0.2,0.2v0.2h-0.7l-0.2,0.2l-0.5,0.2h-0.7l-0.2-0.2l-0.2,0.2l0.2,0.2h1.7
	l0.2,0.2l0.5,0.2l0.2,0.2h-0.2l-0.2,0.2l0.2,0.5c0,0,0.2,0.5,0.2,0.5l0.2,0.7v0.2l-0.2,0.2h-0.2l0.2,0.5h-0.2v-0.2l-0.5-0.2h-0.2
	l-0.2-0.2v-0.2h-0.2l-0.2,0.5l0.2,0.2v-0.2h0.2l0.2,0.5v0.7l0.2,0.5v0.7h-0.2l0.2,0.2V71h-0.5l-0.2,0.2h-0.5v0.2h0.2l0.5-0.2h0.5
	l-0.2,0.2h-0.5l0.5,0.2l0.2,0.2v-0.2h0.5l0.2,0.5v0.2l-0.2,0.2h-0.5V73h0.5v0.5h-0.2v0.2h-0.5l-0.7-0.5l-0.5-0.5l-0.2-0.7v-0.5
	l0.2-0.2h-0.5v0.5l-1-0.5v-0.7l-0.2-0.5l-0.2-0.2v-0.2l-0.2-0.7v-0.7H601v0.5h-0.2l-0.2,0.5l-0.2,0.2h-0.5l-0.5,0.5l-0.2,0.2v0.2
	h0.5l0.2-0.2l0.2-0.2h0.7v0.2h-0.2l-0.2,0.2v0.2h0.7v0.2l0.2,0.5v0.2l1,0.5v0.2h-0.5v0.2h0.5v0.2l-0.2,0.2h-0.2l-0.2-0.2h-0.7V73
	l0.7,0.2h1.2l0.2-0.2l0.2,0.2l0.5,0.7l0.2,0.2l-0.2,0.5h-0.5v-0.2l-0.2,0.2l0.2,0.2h0.2l-0.2,0.2h-0.7v0.2h0.7v-0.2l0.5,0.2
	l-0.5,0.5h-0.2l0.2,0.2l-0.2,0.2v0.2h-0.2l-0.2-0.2h-0.5v-0.2l-0.5,0.2l0.7,0.2v0.2h0.2v0.5l-0.2,0.2h-0.2l-0.5-0.2h-0.7v0.2
	l0.2,0.2V78l0.2,0.2h0.2l0.2,0.5h-1v0.7l0.2,0.2h0.2l0.2-0.2h0.2l0.2-0.2l0.2-0.2l0.2,0.2h-0.2l0.2,0.5h1l0.2,0.2l-0.2,0.5l0.2,0.2
	v0.7l0.2,0.2v0.7l-0.2,0.2h-0.5l-0.7-0.2l0.5,0.7l-1,0.5l0.5,0.5l0.2,0.2l-0.2,0.2v0.2h0.2l0.5,0.2l0.2-0.2l0.5,0.2h1.4l0.2-0.2V85
	l0.7,0.5h0.2v0.2h0.2v0.5h0.2v-0.2h0.5l0.2-0.2l0.2,0.2h0.2v0.2l-0.2,0.2h-0.2l-0.5,0.2l-0.2,0.2v1.2h-0.2l-0.7,0.2l-0.2,0.5V89
	l0.2,0.2l0.2,0.2h0.7l0.5-0.2l0.5-0.5l0.2-0.2v-0.2l0.2-0.2l0.2-0.2h0.7l0.2,0.2v1.2h0.2l0.2-0.2h0.2l1.4,0.7h0.2v0.5l-0.7,0.5V91
	h-0.2l-0.2,0.2l-1.2,0.2h-0.7v0.7h0.5v-0.2h0.2l0.5-0.2l0.7-0.2h0.2l0.2-0.2h0.2V91l0.5,0.2h0.2l0.2,0.2h0.2v0.2l-0.2,0.2H612v0.5
	h0.5v0.2h-0.2l0.2,0.2v-0.2h0.2v0.5l-0.2,0.2v-0.2H612l-0.2-0.2h-0.7l0.7,0.2l0.5,0.2h-1.2v0.2h0.5l1.2-0.2h0.2v0.2l0.2,0.2h0.5
	l0.2,0.2h-0.2l-0.2,0.2l-0.5,0.5l0.2,0.5V95l-0.2-0.2h0.2l0.2-0.2h0.5l0.2,0.2l-0.2,0.2l-0.2,0.2v0.2l0.2-0.2h0.2l0.2,0.2h-0.2v0.2
	h-1.9l-0.7,0.2v0.2h0.2L612,96h1.9v0.2l-0.2,0.2h-0.2l-0.2,0.2l-0.5,0.2h-0.5v-0.2h-0.7L612,97l0.2,0.2h0.7l0.5-0.2v-0.2h0.2
	l0.5-0.2l-0.2-0.2l0.2-0.2h0.2v0.2l0.2,0.2l0.2,0.5v0.2l-0.2-0.2l-0.2-0.2V97l0.2,0.7v0.5h-0.5v0.2l0.2,0.2h0.2l0.2,0.2h-0.2
	l-0.2,0.5h0.2v-0.2h0.2v0.5h-0.5v0.2l-0.2,0.2h-0.2l-0.2-0.2l-0.2-0.2l0.2-0.2h-0.2l-0.2-0.2l-0.2-0.2v-0.5h-0.2v0.7l0.2,0.2h0.5
	v0.2l0.2,0.7H613v0.2l0.5,0.5l-0.5,0.2l-0.5,0.2H612l0.5,0.5v-0.2h0.2v-0.2h0.5l0.2-0.2h0.5v0.2h0.2l-0.2-0.2V101h0.2l0.7-0.2h0.2
	l0.5,0.2v0.2l-0.2,0.2l-0.2,0.2l0.7-0.2v-0.2h0.7v0.2l-0.2,0.2l-0.7,0.2h-1.2l-0.5,0.5l0.2,0.2l0.7-0.2h0.7v0.2l0.5-0.2l0.2-0.2V102
	h0.5l0.5,0.2l0.2,0.2l0.5,0.7l0.2,0.7v0.5l0.2,0.2v-1l0.2-0.2l0.2-0.2h0.2v0.2l0.2,0.5v0.2h-0.2v0.2l-0.2,0.2h0.2v-0.2l0.5-0.2
	l0.2,0.2v0.2l0.2,0.5v0.2l-0.2,0.5l-0.2,0.2h-1v0.2h1.2l0.5-0.5l0.2,0.2l0.2-0.2l0.2,0.7v0.2l-0.5,0.5l-0.5,0.2l-0.2,0.2h-0.5v0.2
	h0.7l0.2-0.2l0.5-0.5l0.2-0.2v0.2h0.2l0.2,0.2h0.5v0.5l0.2,0.7l-0.2,0.2h-0.7l-0.7,0.7l-0.2,0.2h0.5v-0.2h0.2v-0.2l0.2-0.2h0.7V109
	h0.7l0.2,0.2l-0.2,0.2l-0.5,0.2l-0.2,0.2l-0.5,0.5l1-0.5l0.5-0.2h0.5l-0.7,0.7l-0.2,0.2l-0.7,0.2l-1,1v0.2l0.7-0.5l0.2-0.2h0.2v-0.2
	l0.5-0.2l1-0.7l0.2,0.2h0.2v0.2l0.2,0.7l-0.2,0.2v0.2l-0.2,0.2h-0.2l-0.2,0.2h-0.2l-0.7,0.5l0.2,0.2v-0.2l0.5-0.2h0.2l0.5-0.2
	l0.7-0.5h0.5l-0.2,0.5l-0.5,0.2l-0.5,0.2l-0.7,0.5l-0.2,0.2l0.7-0.5l0.5-0.2l0.5-0.2h0.2l0.5-0.2h0.2v0.2h0.2l0.2,0.5v0.2l-0.2,0.2
	h0.2l0.2-0.2l-0.2,1.2h-0.2l-0.7,0.2h1v0.2h-0.2l-1,0.5h-0.2l-0.5-0.2l0.2,0.2v0.2l-0.7,0.2l-0.5,0.2v0.2h-0.7l0.2,0.2h0.5l1.4-1
	l0.5-0.2h0.7v1.4h0.2v-1.2l0.2-0.2v-0.2h0.2l0.7,0.5l0.2,0.2v0.2h-0.2v0.5l0.2-0.2l0.2-0.2l0.2,0.2l0.5,0.2v0.2l-0.7,0.7h-0.2
	l-0.7,0.2l-0.2,0.2l-0.2,0.2l-1,0.5l-0.5-0.5v-0.5l-0.5-0.2H624v0.2h0.2l0.5,0.5v0.2l-0.2,0.2l0.2,0.2v0.5h0.2l-0.2,0.2h-0.2v0.2
	h0.2v-0.2h0.5l0.5,0.2l0.2,0.7l-0.2,0.2v0.2l-0.5-0.2l-0.5-0.7v0.2l0.2,0.2v0.7l-0.7,0.2l-0.2,0.2h-0.2l-0.5-0.2l-0.2,0.2l0.2,0.2
	h-0.5v-0.7l0.2-0.2l0.2-0.5v-0.2l-0.2-0.5l-0.2-0.7l-0.2-0.5l-0.2-0.2v-0.7l-0.2-0.2l0.5,2.6l0.2,0.2v0.2h0.2l-0.2,0.2v0.2h-0.2v0.5
	h-0.2l-0.2-0.2V120l-0.5-0.5l-1-1.7v-1l-0.2,0.2v0.7l0.2,0.2v0.2h0.2v0.5l0.2,0.7l-0.2,0.5v0.2h-0.5l-0.2-0.2v-0.5l-0.2-0.5v-0.2
	l-0.2,0.2v0.2h0.2v1h-0.2v0.2l-0.5-1l0.2-0.5h-0.2l-0.2-0.2v1l0.5,1l0.2,0.2h-0.2l-1-0.2v-0.5h-0.2v0.5l0.2,0.2l-0.2,0.2h-0.5V121
	h-0.2l-0.2-0.2l0.5-0.5h-0.2v-0.5l0.2-0.2v-0.2l-0.2-0.2v-1.2h0.2v-0.5h-0.7v0.2l0.2,0.2v0.5l0.2,1v0.2l-0.2,0.2v0.2h-0.2v-0.7h-0.5
	v1h0.2v0.5l-0.2,0.2h-0.2l-0.2-0.2v-0.2l0.2-0.5v-0.5l-0.2,0.2v0.7h-0.2v-1l0.2-0.2v-0.5h0.2v-0.2h0.2v-0.5l0.2-0.2v-0.5h-0.2v-0.7
	l0.2-0.2h-0.2l-0.2-0.7h-0.2l0.2,0.2v0.5h0.2v0.2h-0.2l-0.5-0.2l-0.5-0.2v0.2l0.2,0.2l0.2,0.2h0.2l0.2,0.7v0.5l-0.2,0.5h-0.2v1h-0.2
	l-0.2-0.2l-0.2-0.2l0.2-0.5v-1.4h-1l-0.2-0.2v-0.7h-0.2v1.4l0.7-0.2h0.2v0.2l0.2,0.5l-0.2,1v0.5h-0.2l-0.2-0.2h-0.5v0.2h-11.8
	l-0.2,0.2v0.2l-0.2,0.2l0.2,1v0.2h0.2v0.2l0.2,0.2v0.2h-0.5l-0.2-0.7V121l-0.2,0.5l0.2,0.2v0.2h-0.5l-0.2-0.5v0.2h-0.2v0.2l-0.5-0.2
	l0.2-0.2l0.2-0.2h0.2l-0.2-0.2l0.2-0.2v-0.2h0.2v-1h0.2v-0.2h0.2l-0.2-0.2l-0.2,0.2l-0.2,0.2h-0.2v-0.2h-0.2v-0.5l-0.2-0.2l-5.8-0.2
	l-0.2-1v-0.5l-0.2-0.2l0.2,0.7v1h-0.5l-0.2-0.7l-0.2-1v-0.2l0.2-0.5v-0.2h0.2V115h-0.2v0.7l-0.2,0.2v0.2l-0.2,0.2v0.5l0.2,0.7v0.2
	h0.2v0.2l-0.5-0.2v-0.2l-0.2-0.5v-1h-0.5l0.2,0.2v0.7l-0.7,0.2l-0.5-0.2l-0.2-0.5v-0.2l0.2-0.2v-0.2h-0.2v0.2l-0.2,0.5v0.2h-0.2v0.2
	h-0.7v-0.2l-0.2-0.5h0.2v-0.2h-0.2v1h-0.2l-0.7-0.7l-0.2-0.2v-0.2h0.2l0.2-0.2h0.2l0.5-0.7l0.2-0.2l0.5-0.7l-5-0.5V113l-0.2,0.2h0.2
	v0.2l-0.2,0.2v0.2h-0.2l-0.2-0.2h0.2l-0.2-0.5l-0.2-0.5h-0.2l-0.2,0.2l-0.2,0.2h-0.5V113l0.2-0.2l0.5-0.7l0.7-0.7v-0.2h0.2v-0.7
	l0.2-0.2l0.5-0.2l0.2-0.2v-0.5l0.2-0.2h0.5l-0.2-0.2h-0.5v0.2l-0.2,0.2v0.2l-0.2,0.5h-0.2v-0.2l-0.2-0.5v0.5l-0.2,0.7l-0.2,0.5
	l-0.2,0.5l-0.2,0.2v0.2l-0.2,0.2l-0.2,0.2l-0.2,0.2h-0.5v-0.7h-0.2v0.5H582v-0.2l0.2-0.2l0.5-0.2v-0.2h0.7l0.5-1l0.2-0.2l-0.2-0.2
	v0.2h-0.2v0.2h-0.2l-0.2-0.7v-1h0.2v0.2h0.5v-0.2h0.2l0.2-0.2l0.2-0.2v-0.7l-0.2-0.2v0.7h-0.2l-0.2,0.2h-0.7l0.2-0.2v-0.5l-0.2,0.2
	v0.2H583l-0.5-0.2l-0.2,0.2H582v-0.5h0.2l0.2-0.2h0.2v-0.5h-0.2v0.2h-0.2l0.2-0.5l0.5-0.2h0.2l0.2,0.2h0.2v0.2l0.5,0.2h0.2l0.2,0.2
	l0.2-0.2h1.9v-0.2l-0.7-0.2l-0.2,0.2h-1.2l-0.7-0.5h-0.2v-0.5l0.2-0.2h-0.5v0.2H583l-0.2-0.7v-0.5l-0.2,0.5v0.2h0.2v0.7l-0.7,0.2
	l-1.2-0.5l-0.2-0.5l-0.2-0.2h-0.5l-0.5-0.5l-0.2-0.2h-0.7l0.5,0.5l0.2,0.2l0.7,0.5h0.2v-0.5l0.2,0.2l0.5,0.5l0.2,0.2h0.2l0.5,0.5
	v0.2l-0.2,0.2v1.2l-0.2,0.2h-0.2l-0.2-0.5v-0.2l-0.2-0.2h0.2v-0.2h-0.5v0.7l0.2,1v0.2h0.2l0.2,0.2v0.2l0.2,0.2v1l0.2,0.2l0.2,0.2v1
	l-0.2,0.5h-0.2l-0.2-0.2v-0.2l-0.7-0.5l-0.2-0.2v0.2l-0.5-0.5l-0.5-0.7v-0.2l-0.5-0.2l-0.2-0.2l-0.2-0.2v-0.2l0.2-0.5v-0.5l0.2-0.5
	l0.2-0.2v-1h-0.2l0.2-0.2v-0.5h-0.2l-0.2,0.5l0.2,0.2v0.7l-0.2,0.2l-0.2-0.5V107h-0.5l0.2,0.7v0.5l0.2,0.2v0.5l-0.2,0.2v-0.7h-0.5
	l0.2,0.2v0.7h-0.2v-0.2l-0.5-0.5v-0.2l0.2-0.2V108l-0.5-0.2v0.2l-0.7-0.2h-0.2l-0.2-1.2h-0.2v0.5h-0.2v-0.7l-0.2-0.2h-0.2v1l0.2,0.2
	v0.2h-0.2l-0.7-0.7v-0.7l0.2-1l0.2-0.2v-1.2h-0.2v0.2l-0.2-0.2V103l0.2-0.5l0.2-0.2V102h0.2v-0.2l0.2-0.2l0.5-0.5h1.2l0.2-0.2v-0.2
	l-0.5,0.2l-0.2-0.2l-0.7,0.5l-0.7,0.2v0.2h-0.2l-0.2,0.5l-0.2,0.7l-0.2,1l0.2,0.2l0.2,0.2v0.7l-0.2,0.5v0.2l-0.2,0.5v0.2l-0.7-0.2
	l-0.2-0.5v-0.5h-0.2v-0.5h-0.2l0.2,0.7v0.2l0.2,0.2v0.2h-0.5l-0.2-0.2l-0.2-0.2l0.2-0.5v-0.2l-0.2,0.2v0.2l-0.2-0.2v-0.5l-0.5-0.5
	v0.2l0.2,0.2v0.2l0.2,0.2H571v0.5h-0.2l-0.2,0.2h-0.2v-0.5l0.2-0.2v-0.7h-0.2v1l-0.2,0.2h-0.2v-0.2l0.2-0.5h-0.2v-0.5l0.2-1l0.2-0.2
	h0.2l0.2,0.2v-0.2h0.5l0.2-0.2v-0.5h-0.2l0.2-0.2v-0.7h0.7l-0.2-0.2l-0.2-0.2l-0.2,0.2l-0.2,0.5v1l-0.5,0.5h-0.2l-0.2-0.2H570v0.2
	l-0.2,0.5v0.5l-0.2,0.5h-0.2l-0.2-0.2h-0.2l0.2-0.7l-0.2,0.2v0.5l-0.2,0.2h-0.5v-0.5h0.2l0.2-0.2v-0.2l-0.2,0.2h-0.2v0.2h-0.2
	l-0.2-0.2l0.2-0.2V103l0.2-0.2v-0.2l-0.5,0.7v0.2l-0.2,0.2v0.2h-0.2l-0.5-0.2l-0.2-0.5l0.2-0.2v-0.2h0.2v-0.2l0.2-0.5l-0.2,0.2
	l-0.2,0.2l-0.2,0.2v0.2l-0.2,0.2l-0.2-0.2l-0.2-0.2l-0.2-0.2l-0.7-1l0.2-0.5l0.2-0.2l0.5-0.2v0.2h0.2l0.2-0.2v-0.7h0.7l0.2-0.2
	l0.2-0.2h0.2v-0.2h-0.2l-0.2,0.2h-0.2l-0.2,0.2h-0.2l-0.2,0.2h-0.2v0.5h-0.2l-0.2,0.2h-0.7l-0.2-0.2l0.2-0.7h0.5l0.2-0.2l0.2-0.2
	l0.5-0.5v-0.5h-0.2l-0.5,0.5v0.2h-0.2l-0.2,0.2l-0.5,0.2v-0.2h0.2l0.2-0.2v-0.2h0.2v-0.2H565l-0.2,0.2v0.2h-0.2v-0.7l0.5-0.5
	l0.5-0.2l0.2-0.2V97h-0.5l-0.2,0.2l-0.2,0.5h-0.2l-0.7,0.2l-0.2,0.2l-0.5,0.5l-0.2,0.2l-0.2,0.2h-0.7v-0.5l0.5-0.2l0.5-0.2l0.2-0.2
	v-0.2l-0.5,0.2l-0.2,0.2l-0.2,0.2l-0.2,0.2h-0.2l-0.2-0.2v-0.2h0.2l0.2-0.2l0.2-0.2v-0.2l-0.5,0.5l-0.2,0.2l-0.5,0.5v-0.2l-0.2-0.2
	v-0.5l0.2-0.2l0.2-0.2h0.2V97h0.2v-0.2h-0.2V97h-0.2v-0.2l0.5-0.5l0.2-0.2h0.2l0.2-0.5v-0.2l0.2-0.2l0.2-0.5l0.5-0.5l0.2-0.5h0.5
	l0.2-0.2l0.5-0.5l0.5-0.2h0.5l-0.5-0.2v-0.2l0.2-0.2l0.2-0.5h-0.2l-0.2,0.5l-0.2,0.5v0.2l-0.7,0.5l-0.5,0.2l-0.5,0.2l-0.7,1
	l-0.2,0.5l-0.2,0.2v0.2l-0.2,0.2l-0.2,0.2h-0.2v-0.2l-0.2,0.7l-0.2,0.7l-0.2,0.2h-0.2l-0.2-0.2l-0.5-0.5l-0.2-0.5v-0.5l0.2-0.2V95
	l0.2-0.5v-1l0.2-0.2v-0.5l-0.2,0.2v0.5l-0.2-0.2v-0.5l0.2-0.2h0.5l0.2-0.2v-0.2h-0.2v0.2h-0.2l0.5-0.7h0.2l0.5-0.2h0.5l0.2-0.2h0.5
	v0.2h0.5v-0.2l0.5-0.7v-0.2h1l0.2-0.2h0.7l0.2,0.2h0.5l0.2-0.2h0.2v-0.2l0.2-0.2h0.5V89l-0.5,0.2v0.2h-0.2l-0.2,0.2h-0.2l-0.2,0.2
	h-0.2l-0.5-0.2v-0.2l0.2-0.2V89l0.2-0.5v-0.7h0.2l0.2-0.2l-0.5,0.2l-0.2,0.2v1l-0.2,0.5l-0.2,0.2h-0.2V90h-0.5l-0.5-0.2l0.2-0.2
	l0.2-0.2l0.2-0.7v-0.5l0.2-0.2l0.2-0.2h-0.2l-1,0.2h-0.2v0.2h0.2v-0.2h0.5v0.5l-0.2,0.2l-0.2,0.2V89l-0.2,0.2v0.2l-0.2-0.2l-0.7-0.2
	v-0.2l0.2-0.2l0.2-0.2h0.2l-0.2-0.2l-0.2-0.2h-0.2v0.2h-0.2v0.7h-0.5V89l0.5,0.2h0.7V90h-0.2v0.7h-0.2V91h-0.2v-0.5l0.2-0.2
	l-0.2-0.2v0.2l-0.2,0.2l-0.2,0.5l-0.5,0.2h-0.7v-0.7h0.2v-0.2h0.2V90h0.2v-0.2l0.2-0.5v-0.5h-0.2l-0.2,0.7v0.2l-0.2,0.2v0.2h-0.2
	l-0.2,0.2v0.2l-0.2,0.2v0.2h0.2v0.2l-0.2,0.5l-0.2,0.2h-0.2l-0.2,0.5v1h0.2v0.7l-0.2,0.7v0.2l-0.2,0.2l-0.2-0.2l-0.5-0.5h0.2v-0.5
	l-0.2-0.5l-0.5-0.2v0.2h0.2l0.2,0.2v0.2h-0.2l-0.2-0.2h-0.2l-0.2-0.2l0.2-0.2v-1.2h0.5l0.2-0.2v-0.2h-0.2v0.5l-0.2-0.2l-0.2-0.2
	l0.2-0.2l0.2-0.2v-0.2l-0.2,0.2h-0.2v0.2h-0.2V91h0.7l-0.7-0.2l-0.5-0.2l-0.2,0.5h-0.5v-0.2l0.2-0.5h0.5l0.5-0.2h0.7l0.7-0.2h-1.4
	v-0.2h0.2l0.2-0.2h1l0.7-0.2h0.2v-0.2h0.2v-0.5l0.5-0.7h0.2l0.2-0.2h0.2v0.5h-0.2v0.2h-0.2l-0.2,0.5l-0.2,0.2l-0.2,0.2h0.2v-0.2h0.2
	l0.2-0.2v-0.2h0.2l0.2-0.2l0.2-0.2v-0.2h0.7l1.4-0.2h0.2l0.2-0.2l0.2-0.2h0.5v-0.2l-0.2-0.2v0.2h-0.2v0.2H564l-0.7,0.2v-0.2
	l-0.5,0.2l-0.2,0.2l-0.5-0.2h-0.2l-0.7,0.2h-0.5l-0.2-0.2h0.2l0.2-0.2h0.5v-0.2h0.2v-0.2h-0.2l-0.5,0.2l-0.2-0.2v-0.2l-0.2-0.5h-0.5
	v-0.5h0.2l0.2-0.5v-0.5h-0.2v0.2l-0.2,0.7l-0.2,0.2v0.2l-0.2,0.2l-0.2,0.2H559v0.2h0.7v-0.2h0.7v0.5h-0.2v0.2h-0.2l-0.2,0.2v0.2
	l-0.2,0.2l-0.2,0.2l-0.2,0.2l-0.2,0.5l-0.2,0.5l-0.2,0.2V89l-0.2-0.2h-0.2l-0.2,0.2h0.2l-0.2,0.2v0.2h-0.7v-0.2h-0.2l-0.2,0.2v0.2
	h-0.2l-0.2,0.2h-0.2l-0.2-0.2l0.2-0.2h0.5v-0.2l0.2-0.2v-0.5l0.2-0.7l-0.2-0.5h-0.2l0.2-0.2v-0.2l0.5-0.5h0.2v-0.2l0.2-0.2v-0.2h0.2
	v0.2h-0.2l0.2,0.2h0.2v-0.2l0.2-0.2h0.2l0.2-0.2v-0.2l0.2-0.2l0.5-0.5v-0.2l-0.2-0.5h0.5l-0.2-0.5l-0.2,0.2l-0.2-0.2h-0.2v-0.5
	l0.2-0.2v-0.5h-0.2l-0.2,0.2v1.2l-0.5,0.2l-0.5-0.7v-0.2h0.2v-0.2l-0.2-0.5v0.2h-0.2l-0.7-0.7l-0.2-0.5l0.5-0.5l0.2,0.2v0.2h-0.2
	l0.2,0.2l0.2-0.5v-0.2h0.7v0.2l0.5,0.2h0.5v-0.2H558l-0.2-0.2l0.2-0.5h0.2v0.2h0.2v0.2h0.2l-0.2-0.5l-0.2-0.2H558v0.2l-0.2,0.2h-0.5
	l-0.2,0.2l-0.2-0.2l0.2-0.2l0.2-0.2h0.2v-0.2l0.2-0.2v-0.2h-0.2V79h-0.2v0.5l-0.2,0.2h-0.2l-0.5-0.7v-0.2h-0.2v0.5l0.2,0.2v0.5
	l-0.2,0.5v0.2h-0.7v-0.5l-0.2-0.2l-0.2-0.7l-0.2-0.5v-0.2l0.5-0.5v-0.2l0.2-0.2h0.2v-0.2h-0.2l-0.5,0.5V78l-0.2,0.2l-0.2,0.5
	l-0.2-0.2V78h-0.2l-0.2-0.2v-0.2l0.2-0.2h0.7V77h-0.7l-0.2,0.2h-0.2v0.2l-0.2-0.2v-1h0.2l0.5-0.2l0.2-0.2l-1-0.5H553l-0.2,0.2h-0.2
	l-0.2-0.2v-0.2h0.2v-0.2h0.2v-0.5h-0.5v0.2H552l-0.2,0.2v0.5l-0.2,0.5v0.2l-0.5,0.2l-0.2,0.2v-1l0.2,0.2h0.2v-0.5h-0.2l-0.5,0.2
	l-0.2,0.2h-0.2l0.2,0.2v0.7h-0.5l-0.5,0.2v0.2h-0.5l-0.2,0.2h-0.2l-0.2,0.2l-1.2-0.5h-2.4l-0.2,0.2l-0.5,0.2l-0.7,0.5h-0.5l-0.5-0.2
	h-0.5l-0.5-0.2H541l-0.7-0.2l-0.2,0.2l-0.2-0.5V77l0.2-0.7v-0.5h0.2v-0.2l1-0.2h0.7v-0.2h0.2l0.2-0.2v-0.2l0.5-0.2l0.5-0.2l0.7-0.2
	l0.2,0.2h3.4l0.2-0.2l0.5-0.2h0.7l0.2-0.2h0.5l0.2-0.2V73h-0.7l-0.2-0.5V72h-0.2v0.5h0.2v0.7h-0.2l-0.2,0.2h-0.2V73h-0.5l-0.2,0.2
	v0.2h-0.2l-0.7,0.2h-0.2v-0.2h0.2v-0.2h0.5v-0.5h1.2v-0.5h-0.7l-0.2-0.2v-0.2h0.7v-0.2h-0.7v0.2h-0.2V72h-0.5v0.2l-0.5,0.2l-0.2-0.2
	V72h0.2v-0.2H546v-0.2l0.7-0.2h0.7l0.2-0.2l-0.2-0.2H547l-0.2,0.2l-0.2-0.2h-0.2l0.2-0.2h-0.2v0.2L546,71h-0.7l-0.2,0.2h-1.7
	l-0.2-0.2h0.2v-0.2h1l0.2-0.2h0.7l0.2-0.5v-0.2h-0.2l-0.2,0.2l-0.5,0.2h-0.7v-0.5l0.2-0.2h-0.2l-0.2,0.2v0.5h-0.5l-0.2,0.2V71h-0.2
	v0.2h-0.5v-1.4l0.2-0.2h0.2v-0.5l-0.7-0.2v0.2l-0.2,0.2v0.2l0.2,0.2v1l-0.2,0.5v0.2h-0.2l-0.2-0.2v-0.5h0.2v-0.5h-0.2v-0.2H541
	l-0.2-0.2v-0.2h0.2v-0.5l0.2-0.2l0.2-0.5v-0.2h0.5v-0.5h-0.2l-0.2,0.2h-0.2l-0.2,0.2l-0.2,0.7v0.5l-0.2,0.2v0.2l-0.2,0.2l-0.2,0.2
	h-0.2l-0.5,0.2h-0.2v-1.2l0.2-0.2v-0.2l0.2-0.2l0.5-0.5l0.2-0.2v-0.5l-0.2-0.2V67L539.8,66.7 M477.6-0.5h-0.2v0.2h0.2V-0.5z
	 M534.5,73.4h-0.2l0.2,0.2h0.2L534.5,73.4z M528.5,65h-0.2l-0.2,0.2h0.2l0.2,0.2h0.2v-0.2L528.5,65z M521.3,60.5v0.2h0.2L521.3,60.5
	z M483.6-7.7h-0.2v0.2h0.2V-7.7z M486.5,49.7h-0.2v0.2l-0.5,0.5h-0.2l-0.2,0.2v-0.2h-0.2v0.2h0.5l0.2-0.2l0.5-0.2v-0.2h0.2
	L486.5,49.7z"/>
                <polygon class="st0" points="608.4,124.1 608.4,123.8 608.7,123.6 608.9,123.6 609.1,123.4 609.4,123.4 609.4,123.6 609.1,123.6
	608.7,124.1 "/>
                <polygon class="st0" points="605.8,123.6 605.8,123.4 605.8,123.1 606,123.1 606,122.9 606.5,122.6 606.7,122.9 606.5,123.1
	606.3,123.4 "/>
                <polygon class="st0" points="614.4,122.4 614.4,122.2 614.4,121.9 614.4,121.4 614.7,120.5 614.9,120.5 614.9,120.2 614.9,119.8
	615.1,119.8 615.1,119.5 615.4,119.8 615.4,120 615.4,120.2 615.4,120.5 615.1,121.2 615.1,121.4 614.7,122.2 "/>
                <polygon class="st0" points="621.6,122.2 620.7,121 620.7,120.7 621.1,120.5 621.4,120.5 621.6,120.5 621.6,120.7 621.9,121.2
	621.9,121.9 621.9,122.2 "/>
                <polygon class="st0"
                         points="615.9,121.9 615.6,121.7 615.6,121.4 615.9,121 616.1,121 616.3,121.7 616.1,121.9 "/>
                <polygon class="st0" points="617.1,121.4 616.8,121.2 617.1,120.5 617.3,120.5 617.3,120.7 617.3,121.2 "/>
                <polygon class="st0" points="626.4,121.4 626.2,121.2 625.9,120.5 625.9,120.2 625.9,120 626.2,119.8 626.4,119.8 626.7,119.8
	626.7,120 626.7,120.2 626.9,120.7 626.7,121 626.4,121.2 "/>
                <polygon class="st0" points="627.4,121.2 627.4,121 627.1,120.7 626.9,119.8 627.6,119.5 627.9,119.5 628.3,119.5 628.3,119.8
	628.1,120.5 628.1,120.7 627.9,120.7 627.6,120.7 627.6,121 627.6,121.2 "/>
                <polygon class="st0"
                         points="628.3,119 628.1,118.3 627.9,118.1 628.3,117.8 628.6,118.1 628.6,118.6 628.6,119 "/>
                <polygon class="st0" points="624,111.8 624.3,111.4 624.3,111.1 624.5,111.1 624.7,110.9 624.7,111.4 624.7,111.6 624.5,111.6
	624.3,111.8 "/>
                <polygon class="st0"
                         points="582,111.6 582,111.4 582,110.6 582,110.4 582.5,110.6 582.5,110.9 582.3,111.6 "/>
                <polygon class="st0" points="570.7,106.6 570.7,106.3 570.7,106.1 571,105.6 571.2,105.4 571.5,105.4 571.5,105.6 571.7,105.8
	571.5,106.3 571,106.6 "/>
                <polygon class="st0"
                         points="567.4,104.4 566.9,104.2 567.1,103.9 567.4,103.9 567.6,103.7 567.6,103.9 567.6,104.2 "/>
                <polygon class="st0" points="615.4,100.8 615.1,100.6 615.4,100.3 615.4,100.1 615.6,100.1 615.6,100.3 616.1,100.6 616.1,100.8
	615.9,100.8 615.6,100.8 "/>
                <polygon class="st0" points="563.5,99.4 563.5,99.1 563.5,98.9 563.5,98.6 563.5,98.4 563.8,98.4 564.3,97.9 564.3,98.2 564,98.9
	563.8,98.9 "/>
                <rect x="614.9" y="98.6" class="st0" width="0.2" height="0.2"/>
                <polygon class="st0" points="558.7,89 558.7,88.8 559,88.6 559.2,88.3 559.5,87.8 559.9,87.1 560.2,86.9 560.2,87.1 560.2,87.4
	560.2,87.6 559.9,87.8 559.9,88.1 559.9,88.3 559.9,88.6 559.7,88.8 559.5,89 559.2,89 "/>
                <polygon class="st0"
                         points="606.5,88.8 606.3,88.6 606.3,88.3 606.7,88.1 607,88.3 607,88.6 606.7,88.6 606.7,88.8 "/>
                <polygon class="st0" points="556.1,86.6 556.1,86.4 556.3,85.9 556.6,85.9 556.8,85.7 556.8,85.9 556.8,86.2 556.6,86.4 556.3,86.6
	"/>
                <polygon class="st0"
                         points="557.1,86.2 556.8,85.4 557.1,85.4 557.3,85.4 557.3,85.7 557.3,85.9 557.1,85.9 "/>
                <polygon class="st0"
                         points="602.9,79.4 602.7,79.2 603.4,78.7 603.6,79 603.9,79.2 603.6,79.2 603.1,79.4 "/>
                <polygon class="st0"
                         points="545.3,73 545.3,72.7 545.5,72.7 545.8,72.7 546,72.7 546.3,72.7 546.3,73 545.8,73 "/>
                <polygon class="st0" points="543.6,72.5 543.6,72.2 543.4,72 543.4,71.8 543.6,71.8 543.9,71.8 544.3,71.5 544.8,71.5 545.1,71.5
	545.1,71.8 545.1,72 544.6,72.2 544.3,72.2 544.1,72.2 544.1,72.5 543.9,72.5 "/>
                <rect x="602.2" y="72.2" class="st0" width="0.2" height="0.2"/>
                <polygon class="st0" points="531.1,72 531.1,71.8 531.1,71.5 531.4,71.3 531.6,71.3 531.9,71.3 531.9,71.5 531.9,71.8 531.9,72
	531.6,72 531.4,72 "/>
                <polygon class="st0" points="606,71.8 605.5,71.5 605.3,71 605.5,71 605.8,70.8 606,70.8 606.3,71 606.5,71.5 606.3,71.5
	606.3,71.8 "/>
                <polygon class="st0" points="537.4,70.6 537.4,70.3 537.1,70.1 536.9,69.8 536.9,69.6 537.1,69.6 537.4,69.4 537.9,69.1 538.1,69.1
	538.3,69.1 538.1,69.4 538.1,70.1 538.1,70.3 537.6,70.6 "/>
                <polygon class="st0"
                         points="606,68.9 605.8,68.6 605.5,68.4 605.5,68.2 605.5,67.9 606,68.2 606.3,68.6 "/>
                <polygon class="st0"
                         points="528.3,67.2 528.3,67 528.5,66.7 528.5,66.5 528.7,66.5 529,67 528.7,67.2 528.5,67.2 "/>
                <polygon class="st0" points="528.3,66.7 527.8,66.2 528,66 528.3,66 528.5,66 528.5,66.5 "/>
                <polygon class="st0" points="526.3,65.8 526.1,65.5 526.1,65.3 526.6,65.3 526.6,65.5 526.6,65.8 "/>
                <polygon class="st0" points="523.9,64.6 523.7,64.3 523.9,64.3 "/>
                <polygon class="st0"
                         points="523.5,64.3 523.5,64.1 523.5,63.8 523.5,63.6 523.7,63.8 523.7,64.1 523.7,64.3 523.7,64.3 "/>
                <polygon class="st0" points="522.7,63.8 522.7,63.6 522.5,63.1 522.5,62.9 522.7,62.9 523,62.9 523,63.1 523.2,63.1 523.2,63.4
	523,63.6 "/>
                <polygon class="st0"
                         points="523.5,63.4 523.2,63.1 523,62.9 523.2,62.9 523.2,62.6 523.5,62.6 523.7,63.1 523.7,63.4 "/>
                <polygon class="st0"
                         points="523.7,62.9 523.5,62.6 523.5,62.2 523.5,61.9 523.7,62.2 523.7,62.4 523.7,62.6 "/>
                <polygon class="st0" points="519.4,62.6 519.4,62.4 519.4,62.2 519.6,62.2 519.9,62.2 520.1,61.9 520.1,61.7 520.3,61.7 520.1,62.2
	520.1,62.4 519.9,62.6 "/>
                <polygon class="st0"
                         points="522,62.6 522,62.4 522.3,62.2 522.5,62.2 522.7,62.4 522.7,62.6 522.3,62.6 "/>
                <polygon class="st0" points="513.9,58.3 513.9,58.1 514.1,57.8 514.3,57.6 514.8,57.1 514.8,56.9 515.1,56.9 515.3,56.6 515.8,56.9
	515.5,57.1 515.3,57.1 515.1,57.4 515.1,57.6 514.6,57.8 514.1,58.1 "/>
                <polygon class="st0"
                         points="482.9,57.8 482.9,57.6 483.1,57.6 483.1,57.4 483.4,57.6 483.4,57.8 483.1,57.8 "/>
                <polygon class="st0" points="514.3,57.1 514.3,56.9 514.3,56.6 514.6,56.6 514.6,56.9 514.6,57.1 "/>
                <polygon class="st0" points="482.7,56.9 482.7,56.6 482.9,56.4 483.1,56.4 483.1,56.2 483.4,56.2 483.6,56.4 483.6,56.6 483.4,56.6
	483.4,56.9 482.9,56.9 "/>
                <polygon class="st0"
                         points="493,56.4 493.2,56.2 493.2,55.9 493.5,55.9 493.5,56.2 493.5,56.4 493.2,56.4 "/>
                <polygon class="st0" points="493.7,55.4 493.5,55.2 493.7,55.2 "/>
                <polygon class="st0" points="484.1,48 484.8,47.5 485.1,47.5 485.1,47.8 484.8,47.8 484.3,48 "/>
                <polygon class="st0" points="598.8,42.7 598.8,42.5 598.8,42.2 599.1,42 599.3,42 599.5,42.2 599.5,42.5 599.5,42.7 599.3,42.7
	599.1,42.7 "/>
                <polygon class="st0" points="470.2,27.8 469.9,27.6 469.9,27.4 470.2,27.4 470.7,27.8 470.4,27.8 "/>
                <polygon class="st0" points="582.3,27.4 581.3,27.1 581.1,26.9 581.3,26.6 581.5,25.9 581.8,25.9 581.8,26.2 582,26.4 582.3,27.1
	"/>
                <polygon class="st0" points="588.3,24 587.8,23.8 588,23.8 "/>
                <polygon class="st0" points="594.5,21.8 594.5,21.6 594.5,21.4 594.5,21.1 594.7,21.1 595,21.1 595.2,21.1 595.2,21.4 595.2,21.6
	595,21.8 594.7,21.8 "/>
                <polygon class="st0"
                         points="581.8,21.6 581.5,21.4 581.8,21.1 582,21.1 582.5,21.1 582.5,21.4 582.3,21.4 "/>
                <polygon class="st0" points="593.8,20.6 593.8,20.4 593.8,20.2 594,20.2 594,19.9 594.3,19.9 594.5,19.9 594.5,20.2 594.5,20.4
	594.5,20.6 594.3,20.6 594,20.6 "/>
                <polygon class="st0" points="580.3,13.7 579.6,13.4 579.9,13.4 "/>
                <polygon class="st0" points="475.9,2.2 475.7,1.9 475.9,1.9 476.2,1.9 476.2,2.2 "/>
	</g>
</svg>
