<svg xmlns="http://www.w3.org/2000/svg" viewBox="0 0 792 612">
    <defs>
        <style>.cls-1{fill:#fff;}</style>
    </defs>
    <g id="Guatemala">
        <polygon class="cls-1"
                 points="510.014 546.747 509.294 546.987 508.814 546.987 508.574 546.987 508.334 547.227 508.334 547.467 508.334 547.947 508.574 547.947 508.814 548.427 508.334 548.667 508.094 548.667 507.854 548.907 507.614 549.147 507.374 549.387 507.374 549.627 507.134 549.867 507.134 550.107 506.654 549.867 506.414 550.107 505.934 550.107 504.974 551.068 504.494 551.788 504.494 552.028 504.494 552.268 504.494 552.748 504.254 552.508 503.534 552.268 502.574 552.028 502.094 551.788 501.614 551.788 501.374 551.788 500.654 551.548 500.414 551.548 499.934 551.548 499.214 551.788 498.254 551.788 497.774 552.028 497.294 552.028 496.814 552.028 496.574 552.028 496.094 552.028 495.134 551.788 494.414 551.788 493.454 551.548 493.214 551.308 492.974 551.308 492.734 551.068 492.494 551.068 492.254 551.068 492.254 550.827 492.014 550.827 491.774 550.587 491.294 550.347 491.054 550.347 490.094 549.627 489.854 549.387 489.614 549.387 488.894 548.667 488.174 548.427 487.694 548.187 487.454 547.947 487.694 547.947 487.934 547.707 488.174 546.747 487.934 546.507 487.934 546.267 487.934 545.787 487.694 545.547 487.934 544.827 488.414 544.107 488.654 543.867 487.454 542.427 488.174 540.987 490.094 537.147 490.334 536.907 490.814 535.947 491.054 535.947 492.254 535.707 496.574 535.467 498.014 535.227 499.214 535.227 500.654 534.987 500.894 534.507 500.894 534.267 500.654 534.267 500.414 533.787 500.654 533.307 500.894 533.067 501.134 532.587 500.894 532.587 500.894 532.347 500.174 532.107 499.934 532.107 499.694 532.107 499.454 532.107 499.214 532.107 498.974 531.867 498.974 531.387 498.974 531.147 498.734 530.907 498.494 530.667 498.254 530.186 498.014 529.946 497.534 529.706 497.054 529.706 496.814 529.706 496.334 529.226 496.094 529.226 495.614 528.986 494.654 528.266 493.934 527.546 493.454 527.066 492.494 526.826 492.494 526.586 496.094 526.346 495.854 523.946 495.614 522.026 495.854 522.026 496.094 522.026 497.294 521.786 498.734 521.786 501.374 521.546 503.294 521.306 505.214 521.066 507.614 520.826 509.774 520.586 509.774 521.306 510.014 524.426 510.254 526.826 510.254 531.387 510.254 533.787 510.254 535.227 510.254 535.467 510.734 535.227 511.454 535.227 512.174 535.227 512.654 535.227 512.894 535.467 513.134 535.467 513.374 535.467 513.614 535.467 513.854 535.467 514.574 535.947 514.814 536.427 515.054 536.427 515.054 536.187 515.774 535.227 515.294 534.987 515.294 534.747 515.294 534.507 516.494 535.227 517.694 535.947 517.934 535.947 518.174 535.947 517.934 535.947 517.454 536.427 517.214 536.667 516.014 537.867 515.534 538.347 514.814 539.307 514.094 539.787 513.614 540.027 512.414 541.227 511.214 541.707 511.214 541.947 511.214 542.187 510.974 542.427 511.214 542.427 511.214 542.907 510.974 543.147 510.734 543.387 510.734 543.627 511.454 544.347 511.694 544.347 511.454 544.587 511.214 545.547 510.734 545.547 510.014 546.507 510.014 546.747"/>
    </g>
</svg>
