<svg id="Haiti" xmlns="http://www.w3.org/2000/svg" viewBox="0 0 792 612">
    <defs>
        <style>.cls-1{fill:#fff;}</style>
    </defs>
    <g id="Haiti">
        <path class="cls-1"
              d="M626.6574,483.8642l-.48.24-1.44.24h-.72v-.24l-.24-.24.24-.72v-.24h.48l.24-.24.24-.24.48-.48.24-.24.96-.24h.24l.72-.24.24-.24h.24l.24-.24h1.68l.24.24.48.24h1.2l.96-.24v.24l.72-.24h.24l.72-.24.96-.24h.72v.48l.24.24v.24h.24v.24l.24.24v1.68l.24.24h.72v.72l-.24.24-.48.96v.48l.48.48.24.72v.72h-.24l-.24.24v.48l-.24.24h-.96v.48l.48.24.24.24h.24l-.24.24v.24h.24l.72.24h.72l.24.24-.24.24-.24.72.24.24v.24l.24.24-.24.48h-.24l-.24-.24-.72-.48h-1.68l-.24.24-.48.24h-.96v.24l-1.2.24v.24l-.72.48h-.72v.24h-.24v.24h-.24l-.48.24h-3.84l-.48.24h-.24l-2.16,1.2v.24l-.24.24v.24h.24l.24.24v.24l-.72.24-.24-.24v-.24l-.24-.24h-.24l-.72-.48h-.24l-.96-.24h-.48l-.24.24h-.48l-.72-.24-.24-.72v-1.2l.24-.48.96-.24.24-.24h1.2l.24.24h1.92l.24-.24h.24v-.24h.24l.48-.24.24-.24v.48h-.72v.24l.24.24.48-.24h.24l.24-.24h.24l.48-.24h1.68l.96-.24h.24l.48-.24h.96l.96-.24.24-.24v-.72h.24v-.24h.24l.96-.24h.72l.24-.24v-.96h-.24l-.48-.24-.24.24-.96-.48h-.24v-.24l-.48-.24-.24-.24h-.24l-.48-.24-.48-.24v-1.2l-.48-.48.24-.48.24-.72-.24-.72-2.16-.48h-.72Zm3.36,6.72-.24-.24h-1.68l-1.2-.24h-.24l-.24-.24v-.24h-.24l.24-.24.24-.24h1.2l.72.24h1.2v.24h.24v.24l.24.24-.24.24Zm-.72-10.32h-2.4l.24-.24.48-.24h1.44l.48.24Z"/>
    </g>
</svg>
