<svg xmlns="http://www.w3.org/2000/svg" viewBox="0 0 792 612">
    <defs>
        <style>.cls-1{fill:#fff;}</style>
    </defs>
    <g id="Honduras">
        <path class="cls-1"
              d="M530.6547,549.8675l.24,1.2.24.72v.24l.24.72v.24l-.24.48-.24-.24h-.72l-.48.48v1.2l-.24.48-.48.48h-.48l-1.68.24v-.48l-.24-.24-.24-.24-.72-.48-.48-.72.48-.48.48-.24v-.24h-.72v.24l-.48.24h-.24l-.48-.24v-.24l-.24-.24v.24l-.24.24v.24l-.24.24h-.24l-.24-.24-.48-.24.48-.24.48-.24-.24-.24h-.48v-.48l.48-1.2v-.72l-.24-.24h-.24l-.24-.24h-1.2l-.48.24-.24-.24-.24-.24-.48-.24-.24.24-.24-.24-.48.48v.24l-.48.24h-.24v.24l-.24-.24h-.24l-.24.24-.24.24-.24-.24v-.72l-1.2-.24h-.24l-.24-.24-.24-.24v-.24h-.24l-.24.24h-.24l-.24-.24v-.24l-.24-.24h-.24l-.48.24v-.48l-.48-.72h-.24l-.48.24-.48-.24h-.24l-.72-.24h-.24l-.24-.24v-.24l.72-.96h.48l.24-.96.24-.24h-.24l-.72-.72v-.24l.24-.24.24-.24v-.48h-.24l.24-.24v-.48l1.2-.48,1.2-1.2.48-.24.72-.48.72-.96.48-.48,1.2-1.2.24-.24.48-.48h.24v.24h.72l.48-.96.96-.72.24-.24h.96l.24-.24.72.24h.24l.72.48h.48l.48-.24.48-.24h.24l.96.24h2.16l.48-.24h.24l.48-.24,1.92-.24h.96l.72-.48.24-.24.24-.24.48-.24h.72l.24-.24h.24l.24-.24.24-.24v-.24h-.96l.72-.24h1.2l.96.24.24.24h1.68l1.2-.24.48-.24.48-.24h.24v-.24h.24l.24-.24h.72l1.92.48.48.24v.24l.24.24.72-.24.48-.48h1.44l1.2.72.48.48,1.68.96h-.48l-.24-.24h-2.16l.24.24.72.96.24.24,1.44.72.48-.48-.48-.24-.48-.24h-.48v-.48h.48l.24.24.72.24.48.48.24.48.96-.72h.72v.48l-.24-.24h-.24l-.24.48h.48l.48-.24v-.72h-.48l-.48-.24.96.24h.72l.48.24.24.48v.24l.24.24.24.24.24.24h.96l-.24.24h-1.92l-.72.24-.48.48v.24l-1.92,1.44h-.24l-.48.24h-.48l-.24.24-1.44.48-.24.24-1.68.72-1.68-.24-.96-.72-.24-.24-.72.24-.48.72-.24.48v.72l-.24.24-.48.72-.24.48v.24l.24.24-.24.24-.24.24h-.48l-.24.24-.48.48-.24.48v.24l-.24.24-.72.48v.24l-1.2.72-.24.72h.24v.24h-.72l-1.2-.72h-.24l-.24-.24v-.48l-.48.24-.24.24-.24.24-1.2,1.92-.72.24h-.48l-.72-.24-1.2.24-.24.24Zm-.72-19.681v-.48h.24l.96-.72.24-.24h.72l-.24.24-1.2.72-.48.24Z"/>
    </g>
</svg>
