<svg xmlns="http://www.w3.org/2000/svg" viewBox="0 0 792 612">
    <defs>
        <style>.cls-1{fill:#fff;}</style>
    </defs>
    <g id="Jamaica">
        <polygon class="cls-1"
                 points="603.137 503.785 602.897 503.785 602.657 503.545 602.417 503.545 602.177 503.545 601.937 503.545 601.697 503.545 601.457 504.505 601.457 504.745 601.217 504.985 600.737 504.985 600.497 504.745 600.257 504.505 600.017 504.745 599.777 504.745 599.777 504.985 599.537 504.985 599.537 505.705 599.777 505.705 600.017 505.945 600.017 506.185 599.777 506.185 599.777 506.425 599.537 506.425 599.297 506.185 599.057 506.185 598.337 505.705 597.857 505.465 597.617 505.465 597.377 505.705 597.137 505.705 597.137 505.945 596.897 505.945 596.657 505.705 596.177 505.945 595.457 506.185 595.217 506.185 594.977 505.945 594.496 505.705 594.496 505.225 594.256 505.225 594.256 504.985 594.016 504.985 593.776 504.985 593.536 505.225 593.296 504.985 593.296 504.745 592.576 504.025 592.336 504.025 592.096 504.025 591.616 504.265 591.376 504.265 591.136 504.265 590.416 504.265 590.176 504.265 590.176 504.025 590.176 503.785 590.176 503.305 591.136 502.345 592.576 501.865 592.576 502.105 593.056 501.625 593.056 501.385 593.296 501.145 593.536 501.145 594.496 501.145 594.737 501.145 594.977 501.145 595.217 501.145 595.457 501.145 595.457 500.905 595.697 500.905 596.417 500.905 596.657 500.905 596.897 500.905 597.377 500.905 597.617 500.665 598.097 500.665 598.577 500.665 598.817 500.665 599.057 500.905 599.537 500.665 599.777 500.665 600.497 500.665 600.737 500.425 600.737 500.665 601.217 500.905 601.697 501.145 602.177 501.145 602.417 501.145 602.657 501.385 602.897 501.385 603.617 501.385 603.857 501.385 604.337 501.385 604.817 501.385 605.057 501.385 605.297 501.385 605.777 501.865 605.777 502.105 606.017 502.345 606.257 502.825 606.497 503.065 606.257 503.305 605.777 503.545 605.537 503.785 604.097 504.025 603.857 504.025 603.617 504.025 603.137 503.785"/>
    </g>
</svg>
