<svg xmlns="http://www.w3.org/2000/svg" viewBox="0 0 792 612">
    <defs>
        <style>.cls-1{fill:#fff;}</style>
    </defs>
    <g id="Mexico">
        <path class="cls-1"
              d="M343.21,468.9834l-.24-.24v-.24l-.24-.24v-.24l-.24-.24h-.72l-.24-.72v-.24l-.24-.24-.48-.48-.24-.24v.24l-.72-.24-.24-.72.24-.72v-.48l-.24.24-.24.24v.24h-.24l.24-.24.48-1.68.24-.48.24-.48v-1.68l-.24-.48.24-.72v-.72l-.48-1.68v-.48l-.24-.24-.48-.24v-1.2l-.24-.24-.24-.24v-.24h-.24l-.24.24-1.2-.72-.72-.72-.48-.48-.24-.48-.48-.24-.72-.72-.24-.24v-.24l-.48-.24h-.24v-.24l.24-.24v-.24l.24-.24.24-.24.24-.24v-.48l-.24-.24-.24.24v.48l-.24.48-.48.24-.96-.48-.24-.24-.24.24-.48.48h-.48l-.72-.72-.24-.24v-.48l-.24-.48-.24-.24h-.24l-.24-.24h-.24l-.24.24h-.24l-.24-.48v-.48l-.24-.24-.24-.24h-.24v-.24h-.72l-.24-.24-.96-.72v-.96l-.24-.48-.48-.48-.48-.24-.48-.96-.72-.72h-.24l-.48-.48-.24-.24v-.48l.24-.24.48.24.72.24h.24l.72.48h.48l.72.24h.24v-.24h.24l.72.24v.24l.24.24.72.48,1.2.24.24-.24v-.24l-.24-.24h-.48l-.24.24h-.24l-.48-.48v-.48l-.48-.24.24-.72.72-.24v-.24h.24v.24l.24-.24v-.24l.24-.24v-1.68l.24-.48v-.24l.24-.24.24-.24v-.72l-.48-.96-.48-.24-.24-.24-.24-.24-.24-.72-.24-.48h-.24v-.24l-.48-.24-.24-.24-.96-1.44-1.2-2.16-.24-.24-.96-.24-.48-.24v-.24l-.24-.24-.24-.24-.48-.24-.96-.96-1.2-1.44v-1.2l-.24-1.44.24-.96v-.48l-.24-.24v-.48l-.48-.72-.24-.24-.24.24v.48l-.24-.48v-.24l.24-.48v-1.92l-1.2-1.68v-1.92l-.24-.24-.48-1.44-.72-.72-.48-.72.24-.48.48-1.2.24-.24-.24-.24v-.24h-.24l-.48-.48-.48-.72-.24-.24v-.48l.24-.24v-.24l-.24-.48v-.48h-.24l-.24-.24-.24-.24v-.48l-.24-.96v-.48h1.44l1.2.24h1.44l1.68.24,2.4.24h1.92l1.44.24h1.2l1.2.24h1.92v.24l-.48.96-.24.48,1.44.72,1.44.72,1.68.96,1.44.72.96.72,2.16.96,1.92,1.2,1.2.48,2.16,1.2,1.44.72,2.16,1.2,3.36,1.68,2.4,1.44,5.04.48h.24l2.64.24,2.4.24,3.12.48h1.92l3.84.48v-2.88l.24-.72h.24l1.68.24h1.44l.48.24h3.12v.24h.48l3.12.24h.72v.24h.72l.48.48.24.48v.72l.48.72.48.24.48.24h.24l.24.24.72.72.24.24.24.48.24.24.24.24.72.48.24.24.24.48.24.48.72.72.96.48.48.24.24.24.48.48.48.48.24.24.24.24.24.48v.48l.24.48.24.72.48.48.24.48v.72l-.24.24v.48l.24.48.72,2.16.72.72h.24l.48.48h.24l.24.24h.24l.24.24v.48l.72.48.24.24h.24l.24.24h.48l1.2.72,1.44.72.24.24v.24l.48.24h.24l.48.24.96.24.72-.72.72-.72.48-.72.24-.72.48-.96.96-1.92.72-.24h.48l.96-.72.48-.24.24.24.24.24.72.24h1.92l.48.24h.24l.72.24.48-.24h.72l.24.24.24.48v.24l.48.48.48.48.72.48h.24l.24.24.24.24.48.48.96.72.96,1.2.24.96v.48l.24.24.24.24.24.48.24.72v.48l.48.24.24.48.24.48.24.72v.24l.24.72.24.48.48.24.48.24h.24l.24.48.72.96v.24l.48.48v.72l.24.24h.24l.24.24.24.24v.24h.24v.24h.72l.48.48.24.24.24.72.24,1.68-.24,1.68,1.2,1.2.24.24v.24h.24l.24.72.48,1.44.24.72.96.24.24.24.96.24.48.24.24.24.72.24h.24l.96.24.24.24.24.24.48.48.72.24.96.24.24-.24h1.68l.72.24h.24l.24.24.48.24.24.48.72.48h.48l.24-.24-.24-.24.24-.24.48-.24.72-.24h.24v.48l-.24,1.2-.24.72-.24,1.2-.24.48v.24l-.24.24-.24.24-.24.72-.48.72v.24l-.24.24-.24.72-.48,1.92-.24.72-.24,1.44v1.2l-.24.24v2.88l-.24.48.24.48-.24,1.92v4.08l.24.24v.96l-.24.48-.24.24v.24l-.24.48-.24.48-.24.24v.24l.24.24.48,1.92v.24l.24.24v1.2l.24.48.24.48.48.72.24.24.24.48.24.24h.24v.24l.96.72.48.24v.24h.24v.48l-.24.24v.24l-.48,1.44-.48-.96v-.48l.24-.24h.24l.24-.24v-.24l-.24-.24h-.24l-.24-.24-.24-.24-.24-.24-.72-.96-.48-.96v-.24l-.48-.48v.24l.24.24v.72l.24.72v.72l.24.24.24.48.48.72.48.48.24.72.72,1.44.24.24v.48l.48.72.24.48.24.24.24.24v.72l.24.24.24.48.24.48.24.24,2.16,2.16.24.24.72.48.72.96.72.96.24.24.24.72.24.48v.72l.24.48.48,1.68.24.24h.24v.24h.48l.24.24.48.72v.24l.24.24.24.24.48.48.24.48.24.24v.48l.72.48,2.16.24h2.64l.96.72.24.24.72.24h1.2l.24.72.24.24,1.2,1.68h1.2l1.2-.24.72-.24h.24l.72-.48h1.92l1.44-.96v-.48l-.24.24-1.2.48-.24.24h-.24l.48-.24,1.44-.72.96-.24h2.16v.48l.24.24.48-.48.96-.48h.24l.24-.24.48-.24.48-.48.48.24.72-.96.72-.24h.24l.48-.24h.72l1.2-.24.96-.24h.48l.72.72-.24.24h-.96l-.24.24.48.24.24-.24v-.24l.48.24.48.48v.48l.24.24.24-.48h2.16l.24-.24-.24-.24.48-.48.72-.48.96-.48-.48-.72-.24-.24h-.24l-.24.24h-.24v-.72l.24-.48-.48.48h-.24l.24-.48h.24l.48-.48h.24l.96-.48.72-.72.96-.72.96-1.2.24-.24v-2.4l.24-.72.24-.48.24-.24h.24v-.24h.24l.24-.24.24-.72v-.24l-.24-.24v-.24l-.24-.96v-4.08l.24-.24.24-.24v-.24l.24-.24v-.48l.24-.24-.24-.24-.24.72v.24l-.24.48v-.48l.24-.24v-.48l.24-.48.24-.24.24-.24.24-.24.96-.72,1.44-.72.24-.24h.24l.24-.24h.24l.48-.24,1.44-.24,1.2-.24h.24l.48-.24,1.2-.24,1.68-.48.96-.48h.24l.24-.48.24-.24h.24l.96-.48h1.44l1.2-.48h-.48l-.24.24h-.24l.24-.24h.48l.96-.24.24.24,1.92.24h-1.2l.48.24h.48l.48-.24h.96l.48.24h1.68l.48-.24.24-.24.24-.24-.24-.24v-.24l-.48.24-.24.24-1.2.24.24-.48h.96l.72-.48h.96l.96.96h.48l.24.24v.96l.24.72.24.24-.24,1.44-.24.48-.24.96-.96,1.68-.48.48h-.24l-.24.24-.24.24-.24.48-.24.48-.72,1.44h-.24v1.92l.24.24v0h-.24v.48l-.24.48h-.24l-.24.24-.48.96h-.48v.72l.24.24h.24l.24.48v-.24l.24-.24.72-.24.72-.24v.72l-.24.24v.24l-.48.24-.24.24h.24v-.24l-.72.24-.24.24v1.2h.24l.24-.48h.24v-.24l.24-.24h.24l.24.24-.48,1.2-.24.72v1.44l-.24.96-.48.48v2.16l-.24.48-.24.24v1.2l-.24-.96-.24-.24v-.24l-.48-.24-.24-.24-.48-.24h-.24l-.24-.24.24-.24.24-.96v-.96l-.24-.48h-.24l-.24.48-.48.48-.24.48h.24l-.72,1.44v.24h-.96l-.48.24-.24.24-.48,1.2v.48l-.72.48v.48l-.24.48-.24.72-.48.72-.24-.24-.96-.24v-.24h-.48l-.48.24-.24.24.24.96-2.16.24-2.4.24-1.92.24-1.92.24-2.64.24h-1.44l-1.2.24h-.48l.24,1.92.24,2.4-3.6.24v.24l.96.24.48.48.72.72.96.72.48.24h.24l.48.48h.72l.48.24.24.24.24.48.24.24.24.24v.72l.24.24h.96l.72.24v.24h.24l-.24.48-.24.24-.24.48.24.48h.24v.24l-.24.48-1.44.24h-1.2l-1.44.24-4.32.24-1.2.24h-.24l-.48.96-.24.24-1.92,3.84-.72,1.44,1.2,1.44-.24.24-.48.72-.24.72.24.24v.72l.24.24-.24.96-.24.24h-.24l-.48-.24-.72-.72-1.2-.96-.24-.24-.24-.24-.24-.24-.48-.48-.48-.48-.48-.72h.24l.24.48v-.24l-.24-.48-.72-.24h-.24l-.72-.24-.96-.72v-.24l-.48-.24-.48-.48-.48-.24-1.2-.72-.48-.48-.72-.48-.48-.48-.48-.24-.72-.48-.72-.48-.48-.72h-.72l-.48-.24-.24-.24-.72-.24h-.48l-.48-.24-.24-.24h-.48v.72h.48l.24.24h.48l-.48-.24h.24l.48.24.48.24h.72l.24.24v.24h-.24l-1.2-.24-.96-.48h-.24l-.24-.24h-1.44l-.48.24-.48-.24.24-.24h.48l.24-.24.24-.24v-.24h-.24l-.48-.24v.24l-.48.24-.48.24v-.24l.24-.24-.24-.48-.24-.24h-.24l-.48.24-.96.72-.24.48h.24l1.2.24h-.24l-1.44.24-.72.48h-.24l-.96.72v.24l-.24.24h-.24l-.48.24h-.24l-.48.24h-.24l-.72.24-.24.24-1.68.48-.72.72-.96.48h-1.92l-.48.48-.48-.24-2.16-.48-1.92-.96h-.24l-.24-.24h-.48l-.24-.24h-4.08l-.24-.24h-.24l-.24-.24-.24-.24-.48-.24-1.2-.72-.24-.24-.72-.24-1.44-.24h-.48l-.72-.24v-.24l-.24-.24-.24-.24-.24-.24-.48-.24-.24-.48-.24-.24-2.16-.24-1.44-.24-1.68-.24-.72-.24-.96-.24h-.48l-.96-.48.24-.24-.24-.24-.24-.24-.72-.24-1.92-.48-.48-.24-.24-.24-.96-.24-.48-.24-1.2-.48-.96-.24-.72-.24h-.24l-.72-.48-.24-.24h-.24v-.24l-.24-.24h-.24l-.96-.72-.48-.24-.96-.48-.96-.48-.48-.48v-.24l-.24-.24-.96-1.2h-.24l-.48-.48h-.24l-.24-.24h-.72l-.24.24h-.24l-.24.24h-.24l-.48-.24-.48-.24-1.2-.24-.96-.24-.24-.24h-.96l-.48-.24-.72-.48h-.24l-.24-.24-.48-.24h-.48l-1.92-.72-.72-.24h-.24l-.24-.24v-.48l-.24-.24-.24-.24v-.24l-.96-1.2-.24-.24h-.24v-.24l-.48-.48-.72-.72-.24-.24h-.24l-.24-.24h-.24l-.48-.24-.48-.24-.96-.24v-.72l-.48-.24h-.96l-.72-.24-.48-.24-.96-.72-.72-.24-.48-.24-.24-.24-.24-.24-.24-.96-.24-.48-.24-.24-.24-.24h-.24l-.48-.48-.24-.48-.24-.24v-.24l-.48-.48v-.24l-.24-.24h-.24l-.24-.72v-.24l-.24-.24v-.24l-.48-1.2-.48-.96v-.48l.48-.24.24-.24h1.92l.72-.48v-.48l-.24-.48-.24-.48-.24-.24h-.24l-.24.24-.96-.48,1.68-1.68h.48v-.24l.24-.24.24-.96-.24-.72.48-.96-.48-.48-.24-.24-1.2-.72v-.72l-.48-.72-.24-.72h-.24v-.24h-.24v-.24l-.24-.24v-1.2l.24-.48v-1.2l-.24-.24v-.48l-.24-.24-.24-.48v-.24l-.24-.72-.24-.24-.72-.72-.48-.24v-.24l-.72-.48-.24-.24v-.48l-.72-.72-.96-.96-.72-1.2v-.24l-.24-.24v-.24l-.96-.96-.96-.96-.24-.72-.24-.48-.24-.48v-.24l-.48-.24-.24-.24v-.24l-.24-.24h-.24l-2.16-1.92-.24-.24-.72-.72-.24-.24-.24-.24-.24-.24h-.24l-.48-.48.48.24h.24l.24.24v-.72h-.24v.24h-.24l-.48-.48-.48-.48-.48-.24-.24-.24.24.48.24.24.24.24-.72-.48-.24-.24-.24-.24-.24-.24v-.48l.24-.24.24-1.68h-.24l-.24-.24v.72l-.24.72h-.24l-.24-.24-.24-.72-.24-.72.24.24.24.24.24-.48.72.24v-.48h-.24v-.24l-.24-.24h-.24l-.96-.48h-.72l-.24.24v-.72l-.24-.24-.24-.24-.72-.24-.24-.24-.96-.72v-.96l-.48-.24h-.48v.48l-.24.24-.72-.24h-.24l-.48-.48h.24l.24-.24h.72l.48-.48.24-.24.24-.96-.24.48-.24.24-.96.72h-.72l-.24-.24v-.24l-.96-.72-.48-.24-.48-.48.24-.96v-.48l.24-.24v-.24l.72-.96.24.24.48-.72v-.48l.24-.24.24.24v.24l-.24.24.48.24.24.24v-.48l-.24-.48-.24-.24-.72-1.2-.96-1.68-.48-.48h-.24l-.72.48h-.48l-.24-.24h-.24l-.24-.48-.24-.48-.24-.24v-1.68l-.24-.24-.24-.24h-.48l-1.2-.24-.48-.24-.24-.24-.72-1.2-.48-.48-.48-1.92v-.48l.24-.72.48-.48.24-.24-.48-.24-1.44-.48-.72.72-.48-.72-.72-.24h-.24l-.72-.96-.24-.24v-.24l-.24-.48-.24-.24v-.24l-.72-1.44-.48-.24-.24-.24-.48-.24h-.24v-.24l-.24-.24v-.48l-.24-.24-.24-.24v-.24h-.24l-.48-.72v-.48l-.72-.72-.48-.72-.24-.24v-2.64l-.24-.24h-.48l-.48-.72.24-.24v-.24l-.24-.72h-.24v-.24l-.24-.24-.48-.72-.72-1.92v-.24l-.24-.72.24-.72v-.72l-.48-1.44-.48-.72-.24-.72-.24-.48-.24-.24v-.24l-.24-.96.24-.24v-.24l.48-1.44.24-.24v-.48l-.24-.72h-.48l-1.2-.24-.96-.48h-.24l-.48-.48v-1.2l-.24-.24-.96-.72-.96-.72v.72l-.24.24-.24.24h-.72l-.24-.24-.24-.24h-.24l-1.2-1.2-.24-.24-.24-.24-.24-.48h-.48l-.48-.24-.48-.48h-.24l-.48-.72-.48-.48h-.24l.24.24.24.24.24.24.48,1.2.24.48-.24.24v.24l-.24.24v.24h-.24v.24l-.24.72-.24,1.44v1.92l.24.24h.24l.24.24v3.12l.24.48-.24.96-.24.72-.24.48.24.48.24,1.2h.24l.48.72.24.96.24.24.48.24h.24l.24.24.72.96.24.24v.24l.72.72.24.24.24.24.24.48.72.96.24.24.48,1.44v1.68h.48v-.48h.24l.48.24v.48l.24.48h.48l.24.24v.24l.24,1.2v.96l.48.48.24.24h.24l.24-.24.48.48v.48l-.24.48v.24l.24.24.24.48v1.2l.24.24-.24,1.2.48.96.48.72.24.24h.48l.96.72v.24l.48,2.4.72.72.48.96v.24l.24.72.48.48v.72h-.24v.24l.48.48.48.96h.48l.24-.24-.24-.48h-.24l-.48-.48v-.48l-.24-.72.24-.24h.24l.48.48.24.24.24.48.48.24.24.24-.24.24v.96l.48.24.48,1.68v.96l.24.48v.96l-.24.48.24.96v.48l.96,1.68.24.24h.24l.48.24v.48l-.24.24v.24l.48,1.2.24.72.24.72.24.24h.24l.24.24v.24l.48.96v.96l-.24.24-.24.48v.24l-.24.48v.24h.24v1.2l.24.48.24.48.96.48.24.24h.72l.24.24-.24.24v-.24h-.48l.24.48h.24l.24-.24.24-.24v-.48l-.24-.48.24-.24h.48l.48.48.72.96h.24v.24l.24.24v.24l.72.48.48.24-.24.24v.72l.24.24.24.24h.24v1.44l.24.24h.48l.24.24h.24l.24.24.48.96v.48l-.24,1.44-.48.48-.24.24h-.48l-.24.24h-.24l-.24.24h-.24v.48l-.96.48h-.24l-.48.24h-.48v-.24l-.24-.24-.24-.72h-.24v-1.68l-.24-.96-.96-1.92-.48-.48-.48-.24-.48-.24-.24-.24-.48-.24-.48-.72-.72-.96-1.44-1.44v-.24l-.48-.24-.72-.72-1.68-1.2-.24-.48-.24-.24Zm-1.68-34.3217-.48-.24-.48-.24-.48-.48v-.24h-.24l.96-2.16v-.24h.24l.72-.24h.24l.24.24.24,1.2v.72l-.48,1.44Zm-5.52-2.88-.24-.24-.24-.24-.72-.96-.48-.48-.48-.96-.48-.72v-.24l.24-.96.48.24.24.24.48.48v1.44h.72v.24l.48.48-.24.72.24.48.24.24v.24ZM524.1745,499.945l-.24-.24v-1.2l.24-.48.24-.48h.96v-.24h.24l.24-.24-.48.96-.48.96-.24.48-.24.24v.24ZM321.1289,437.5418l-.48-.48-.48-.48v-.24h.24l.24-.48h.24v-.24l-.24-.24v-.48h.24v-.24h.24v.24l.24.24v1.2l-.24.96Zm-20.4-10.8v-1.2l-.24-.24v-.72h.72l.24.96v.24l-.24.72v.24l-.24.24h-.24ZM342.01,469.7035v-.48h-.24l-.48-.48-.72-.48-.48-.48h1.2l.96,1.2v.48Zm-2.16-7.92v.72l-.24.24v.24l-.24.48-.48,1.44v.48h.24v.24l.72,1.92v.24h-.24l-.48-.96-.24-.24.24-.24v-.72h-.24v-.24h-.24l.48-1.44v-.24l.48-1.2Zm37.9211,32.6416h-.24v-.96h.72l.24.24v1.2h-.24l-.48-.24ZM349.93,464.4232l.24.24.24.24h.24v.24h.24v1.2l-.24-.24-.48-.24-.24-.96v-.48Zm-6.24,49.2024-.24-.24h-.48v-.48l.24-.24.24-.24h.24l.24.24v.24l.24.24v.48h-.48Zm3.12-54.9627v-.48l.24-1.44.48-.24h.24l.24.24-.24.24-.24.24-.48.72-.24.24Zm142.084,57.6029v-.24h.24l1.2-.72.48-.24v-.24h.24v.48h-.24l-1.68.96Zm-109.6831-20.401-.48-.24h-.24v-.24l.24-.24v-.24h.24l.72.24v.24l-.24.24ZM355.93,472.5836h-.48v-.24h-.24v-.72l-.24-.72v-.24l.24.48h.24v.24l.24.72.24.24Zm-3.84-2.4-.24-.24-.24-1.2h.24l.48.72v.48Z"/>
    </g>
</svg>
