<svg xmlns="http://www.w3.org/2000/svg" viewBox="0 0 792 612">
    <defs>
        <style>
            .cls-1{fill:#fff;}.cls-2{fill:none;stroke:#95979a;stroke-linecap:round;stroke-linejoin:round;stroke-width:1.44px;}
        </style>
    </defs>
    <g id="bounds">
        <path class="cls-1"
              d="M500.1729,438.6631a4.0034,4.0034,0,0,1-3.9864-4.334,4.2408,4.2408,0,0,1-.4-.3232l-1.99-1.1934a3.25,3.25,0,0,0-2.3291-1.7529l-.5889.1963a4.0057,4.0057,0,0,1-4.1523-1.0264l-.0381-.0147a8.7794,8.7794,0,0,1-3.6426-3.3671,3.9118,3.9118,0,0,1-.247-.4961,2.31,2.31,0,0,0-1.8565-1.9473,16.393,16.393,0,0,1-1.5684-3.9033v-.24a3.9951,3.9951,0,0,1,.1836-1.1972l-.0293-.1026a10.5822,10.5822,0,0,1,1.2217-5.3027l.0889-.8a4,4,0,0,1,1.3721-2.5938l.2334-.2a16.7239,16.7239,0,0,1-.8653-3.8438,3.92,3.92,0,0,1-.041-.4277,12.767,12.767,0,0,0-.4834-4.0323,9.2709,9.2709,0,0,1,.9824-8.1269,16.7456,16.7456,0,0,0,1.9258-3.126,3.7622,3.7622,0,0,1,.0918-.499l.24-.96a3.9942,3.9942,0,0,1,.8106-1.5947,4.0486,4.0486,0,0,1,.4053-.6279,9.9558,9.9558,0,0,0,1.58-4.4278,4.0039,4.0039,0,0,1,1.2383-3.4668c.0127-.0644.0264-.1289.043-.1923a18.6815,18.6815,0,0,1,1.3223-5.961l-.6729-1.1758a4.0029,4.0029,0,0,1-.4726-2.6386l-.0235-.0586a4.066,4.066,0,0,1-.3545-.3887l-.6113-.2617c-.0723-.0313-.1436-.0645-.2139-.0986l-.48-.24a4.0467,4.0467,0,0,1-.61-.3779l-1.92-1.44a3.9812,3.9812,0,0,1-.9307-.9843l-.4795-.7207a4,4,0,0,1-.5273-3.2754,3.9812,3.9812,0,0,1-.8945-.6748l-.48-.4805a3.99,3.99,0,0,1-.9278-1.458l-.5537-1.5215-2.8877-2.167a3.9965,3.9965,0,0,1-1.2549-1.5752l-.96-2.16a4.0272,4.0272,0,0,1-.3047-1.0577l-.24-1.68a4.0059,4.0059,0,0,1,.2451-2.0508l.2627-.6563-.0137-.081a4,4,0,0,1,1.6738-3.9512,4.0006,4.0006,0,0,1-.4736-2.6455l.24-1.44a4,4,0,0,1,2.6807-3.1368l1.4248-.4746a4.0143,4.0143,0,0,1-.56-.79l-.38-.2529a27.73,27.73,0,0,0-3.8359-3.3838l-.96-2.16a4.0553,4.0553,0,0,1-.2421-.7226,4.0091,4.0091,0,0,1-.3428-1.6211v-.7354l-.0586-.1162a4.0062,4.0062,0,0,1-.418-1.6094l-.039-.1191c-.0323-.0957-.06-.1924-.084-.29l-.1533-.6123-2.0264-1.3505a3.99,3.99,0,0,1-1.211-1.27l-.0273-.0449-.083-.0361a28.2762,28.2762,0,0,0-2.5674-1.169,4.0092,4.0092,0,0,1-1.0127-.6152l-.6592-.55-.2031-.04a7.5068,7.5068,0,0,1-3.8545-3.0683l-.1992-.4649a3.99,3.99,0,0,1-1.5117-.4121l-1.44-.72a4.0025,4.0025,0,0,1-1.7471-1.707l-2.16-4.08a4.0132,4.0132,0,0,1-.44-1.4312l-.2393-2.16a4.002,4.002,0,0,1,.3955-2.2251l.2393-.48a3.9968,3.9968,0,0,1,.752-1.0444l.1406-.14a4.0026,4.0026,0,0,1-5.3926-3.7509v-1.2a4.0039,4.0039,0,0,1,.8428-2.4566l.084-.25a18.4948,18.4948,0,0,1,7.3935-2.7334h.4805a3.9981,3.9981,0,0,1,2.831,1.1743l.2393.24c.0186.0181.0361.0361.0527.0542.0616.0234.1221.0488.1817.0757a3.9274,3.9274,0,0,1,.58.1821l1.2.48a4.0079,4.0079,0,0,1,1.6387,1.2153l.96,1.2a7.37,7.37,0,0,1-.8643,7.541l-.5146.4121-.0879.1758a4.0021,4.0021,0,0,1-2.8047,2.1343l-.1289.1294.9473,1.7895a3.9982,3.9982,0,0,1,2.1748.7427l1.68,1.2a13.7685,13.7685,0,0,0,1.962,2.15,3.9985,3.9985,0,0,1,1.1533.6709l.6308.5254a12.9471,12.9471,0,0,1,3.04,1.501l.5351.2138a4,4,0,0,1,1.9434,1.6553l.2568.4287,1.4453.9629a5.6316,5.6316,0,0,1,3.1885,4.5069v.2265l.2158.7324a3.9888,3.9888,0,0,1,1.2247,2.8809v.4805a4.0288,4.0288,0,0,1-.0372.5449,4.003,4.003,0,0,1,2.2549,1.9883l.3633.7265.1973.1319a3.9972,3.9972,0,0,1,1.1211,1.1259l.1289.0645a4.0006,4.0006,0,0,1,2.0908,2.6074l.24.96a3.9826,3.9826,0,0,1,.0655,1.6289l-.24,1.44a3.9963,3.9963,0,0,1-.6162,1.56l-.042.0615-.0849.4258a3.9981,3.9981,0,0,1-1.5967,2.47l-1.2979.9278a3.9977,3.9977,0,0,1-.3291,2.6455l-.48.9619-.1358.6758a11.9841,11.9841,0,0,0-1.6943,3.6767l.2851.6426,3.0078,2.2568a4.0066,4.0066,0,0,1,1.3506,1.8086l.5069.085a3.9828,3.9828,0,0,1,1.1318.3681l.96.4805a4,4,0,0,1,2.21,3.5772v.2392a4.0053,4.0053,0,0,1-.1455,1.07l-.5517,1.9873.0615.0332,1.5713.6729a9.122,9.122,0,0,1,3.5468,3.8516l.0625.3115.1758.2344a4.0016,4.0016,0,0,1,.753,1.7861l.5048.3027a4,4,0,0,1,1.9258,3.793l-.24,2.6406a4.0257,4.0257,0,0,1-.19.9043l-.24.72a4.3524,4.3524,0,0,0-1.9824,3.7764,4.0034,4.0034,0,0,1-.4453,2.3652c-.0235.045-.0479.0879-.0733.1319a7.6915,7.6915,0,0,0-1.4092,3.4414,3.9992,3.9992,0,0,1-1.1347,3.3662l-.1045.1055a4.0021,4.0021,0,0,1-1.1533,2.1123,4.0571,4.0571,0,0,1-.2627.5488l.0117.08a116.55,116.55,0,0,0-2.6279,6.3183,3.4533,3.4533,0,0,0-.2227,2.2188c.0156.041.03.082.0439.124l.24.72a37.064,37.064,0,0,0,.4365,3.4727,4.0187,4.0187,0,0,1,.2422,1.65,4,4,0,0,1,.68,4.8486l-.45.7881a3.996,3.996,0,0,1-1.3789,2.6631l-.4824.414-.0655.5928a8.4639,8.4639,0,0,0-.334,1.9639l-.2392.9609c-.01.0391-.02.0782-.0313.1172.0616.0547.1211.11.1787.169l1.1993,1.2a6.25,6.25,0,0,1,1.3447,2.5791l.0039.0029a4.0022,4.0022,0,0,1,2.8906.2666l.1172.0586a3.6065,3.6065,0,0,1,.7354.0654,3.942,3.942,0,0,1,.72-.0654h.72a4,4,0,0,1,3.999,3.8935l.3682.2217a3.9856,3.9856,0,0,1,2.3018,1.1367l1.4394,1.44a3.9988,3.9988,0,0,1,.502,5.0439l-.25.376-.3262.8154A4.0019,4.0019,0,0,1,500.1729,438.6631ZM488.6533,389.3h0Z"/>
    </g>
    <g id="Mississippi_River">
        <polyline class="cls-2"
                  points="453.613 294.735 453.613 293.535 454.093 293.055 454.093 292.815 454.333 292.095 455.533 292.575 456.253 292.335 457.213 292.575 457.453 292.575 457.933 292.095 458.173 292.095 458.413 292.095 458.653 292.335 458.893 292.815 459.373 293.295 460.093 293.295 460.093 294.015 460.813 293.535 462.013 294.015 462.973 295.215 462.493 296.415 462.733 297.135 461.533 298.095 461.053 299.055 459.133 299.055 459.133 300.015 457.693 301.455 457.453 301.935 457.693 304.095 459.853 308.175 461.293 308.895 462.493 308.895 464.173 310.095 464.893 311.776 465.373 311.536 465.853 312.496 467.053 312.736 468.493 313.936 468.733 313.936 468.973 314.176 469.453 314.176 469.693 314.176 469.933 314.176 469.933 314.416 470.173 314.416 470.173 314.656 470.413 314.896 470.653 314.896 470.893 314.896 471.133 315.136 472.333 315.616 473.053 316.816 475.933 318.736 476.173 318.736 476.173 318.976 476.413 319.216 476.653 319.456 476.653 319.696 476.653 320.176 476.893 321.136 477.133 321.856 477.133 322.336 477.373 322.816 477.613 323.056 477.853 323.056 477.853 323.296 478.093 323.296 478.093 323.536 478.093 323.776 477.853 324.016 477.853 324.256 477.613 324.256 477.613 324.496 477.613 324.736 477.613 324.976 477.853 325.216 477.853 325.696 478.813 327.856 480.733 328.096 481.213 329.056 481.213 329.536 482.653 330.497 482.893 331.217 484.333 331.937 484.573 332.897 484.333 334.337 483.853 335.057 483.613 336.257 481.933 337.457 479.773 338.177 479.533 339.617 480.493 340.577 480.733 341.297 480.013 342.737 479.773 343.937 478.333 344.897 478.573 346.337 478.333 346.577 477.853 347.777 478.093 349.457 479.053 351.618 482.893 354.498 483.853 357.138 484.333 357.618 484.573 357.618 485.053 356.898 486.493 357.138 487.454 357.618 487.454 357.858 486.253 362.178 486.734 362.898 488.654 364.338 489.134 364.578 490.814 365.298 491.294 366.018 492.014 366.258 492.254 367.458 492.974 368.418 492.494 369.618 493.454 371.299 494.174 371.539 494.174 370.819 495.374 371.539 495.134 374.179 494.894 374.899 493.934 374.659 493.694 375.859 493.454 376.099 493.214 375.139 492.734 375.379 493.214 376.579 492.734 376.819 492.974 377.539 492.254 377.779 492.974 378.499 492.254 379.699 492.734 380.419 492.254 380.419 492.014 380.659 492.494 380.899 492.254 381.139 491.054 381.859 491.534 382.579 491.294 383.059 491.534 383.539 490.334 384.739 490.814 386.419 489.374 387.859 489.614 388.579 488.654 389.299 488.654 390.019 488.174 390.019 487.934 390.98 488.174 392.66 486.974 393.14 486.974 393.86 486.734 393.86 486.493 394.58 485.773 395.06 486.493 395.3 486.493 395.78 485.053 396.26 485.293 396.5 485.533 397.94 484.333 398.9 485.053 399.14 485.053 399.38 484.573 399.86 485.293 400.34 485.053 401.78 485.533 402.02 485.773 402.74 485.293 404.42 486.013 404.66 485.533 405.62 485.773 406.1 486.253 406.34 485.533 406.82 486.013 407.54 486.013 408.26 487.454 409.46 486.493 411.141 486.493 411.861 484.813 413.301 484.573 415.461 483.853 416.181 484.333 416.901 484.093 417.861 483.373 417.861 483.853 419.541 483.373 420.261 483.373 420.501 484.333 420.981 484.093 421.941 485.293 421.941 486.493 423.141 486.253 423.621 486.734 423.621 486.734 424.341 486.493 424.821 487.214 425.061 486.734 425.301 487.454 425.541 487.454 426.021 488.174 426.021 488.174 426.501 489.374 426.981 489.614 427.461 491.774 426.741 493.214 427.461 493.694 427.221 494.414 427.461 495.134 427.221 495.854 427.221 495.854 427.701 495.614 427.701 495.374 428.421 495.854 429.381 498.254 430.822 498.494 431.062 499.214 431.542 499.694 431.302 500.654 432.262 501.134 432.742 500.654 433.462 500.174 434.662"/>
    </g>
</svg>
