<svg xmlns="http://www.w3.org/2000/svg" viewBox="0 0 792 612">
    <defs>
        <style>.cls-1{fill:#fff;}</style>
    </defs>
    <g id="Nicaragua">
        <polygon class="cls-1"
                 points="557.775 535.947 557.295 536.427 556.335 536.907 556.095 536.907 555.855 537.147 555.615 537.627 555.615 537.867 556.095 538.347 556.335 538.347 556.335 538.107 556.815 538.827 557.295 539.547 557.535 540.267 557.775 540.747 557.775 540.987 557.775 541.227 557.775 541.467 557.775 541.707 557.295 542.427 556.815 543.387 556.575 543.867 556.335 544.347 556.095 544.587 556.095 545.547 555.855 546.267 555.855 546.987 555.615 548.427 555.615 548.667 555.615 549.147 555.855 549.627 555.855 550.107 555.855 550.347 555.855 550.587 556.095 551.548 556.575 552.508 556.575 552.748 556.575 552.988 556.575 553.228 556.575 554.428 556.575 554.908 556.575 555.148 556.815 555.388 556.815 555.628 557.055 555.868 557.055 556.108 557.055 556.348 556.335 556.588 556.095 556.348 555.855 555.868 555.855 555.628 555.855 555.388 556.335 555.148 556.335 554.908 556.335 553.468 556.095 553.228 555.855 553.228 555.615 553.468 555.615 553.708 555.855 553.948 556.095 554.188 556.095 554.668 555.375 555.388 555.135 556.108 555.375 557.068 555.615 557.548 555.855 557.788 555.855 559.228 555.375 559.228 555.375 559.468 555.375 560.188 554.895 560.428 554.895 560.668 555.135 560.908 555.375 561.148 555.615 561.148 555.375 560.908 555.615 560.668 555.855 560.908 556.095 561.388 556.095 561.628 556.335 562.108 556.335 562.588 556.095 562.588 555.615 563.068 555.135 564.268 554.895 564.508 554.895 564.748 554.895 564.988 555.135 565.708 555.135 566.188 555.615 566.668 555.855 567.148 556.095 567.388 556.335 567.628 556.815 567.628 557.055 567.628 556.815 568.108 557.055 568.588 556.815 568.588 556.815 568.828 556.335 569.068 556.095 569.068 555.615 569.308 555.375 569.548 554.895 569.788 554.655 569.548 554.175 569.308 553.935 569.308 553.695 569.548 553.455 569.548 552.975 569.308 552.735 569.548 552.495 569.308 552.015 568.588 551.535 568.348 548.655 567.868 546.975 569.068 545.535 568.828 545.055 568.588 544.815 568.588 544.335 568.588 544.095 568.348 543.375 568.348 542.895 568.348 541.935 568.108 541.695 567.868 541.215 567.868 540.735 569.068 540.255 568.828 540.015 568.828 539.775 568.588 539.535 568.108 538.815 567.388 537.615 566.908 536.895 566.428 536.655 566.188 535.935 565.708 534.975 565.228 534.735 564.988 534.015 564.508 533.775 564.508 533.775 564.268 533.535 564.028 532.575 563.068 532.335 562.828 532.095 562.588 531.855 562.348 531.615 561.868 531.615 561.628 531.375 561.388 530.175 560.908 529.935 560.908 529.455 560.668 528.975 560.428 528.495 559.948 528.015 559.708 526.575 558.748 525.855 558.028 524.655 557.548 524.175 557.308 523.935 556.828 523.935 556.348 524.655 555.868 524.895 555.868 525.135 555.868 525.615 556.348 525.615 556.588 526.095 556.588 526.095 556.828 526.335 556.828 526.815 556.588 526.575 556.588 526.815 556.108 528.495 555.868 528.735 555.868 528.975 555.868 529.455 555.388 529.695 554.908 529.695 554.428 529.695 554.188 529.695 553.708 530.175 553.228 530.415 553.228 530.895 553.228 531.135 553.468 531.375 552.988 531.375 552.748 531.135 552.028 531.135 551.788 530.895 551.068 530.655 549.867 530.655 549.627 530.895 549.387 532.095 549.147 532.815 549.387 533.295 549.387 534.015 549.147 535.215 547.227 535.455 546.987 535.695 546.747 536.175 546.507 536.175 546.987 536.415 547.227 536.655 547.227 537.855 547.947 538.095 547.947 538.575 547.947 538.575 547.707 538.335 547.707 538.575 546.987 539.775 546.267 539.775 546.027 540.495 545.547 540.735 545.307 540.735 545.067 540.975 544.587 541.455 544.107 541.695 543.867 541.935 543.867 542.175 543.867 542.415 543.627 542.655 543.387 542.415 543.147 542.415 542.907 542.655 542.427 543.135 541.707 543.375 541.467 543.375 541.227 543.375 540.747 543.615 540.267 544.095 539.547 544.815 539.307 545.055 539.547 546.015 540.267 547.695 540.507 549.375 539.787 549.615 539.547 551.055 539.067 551.295 538.827 551.775 538.827 552.255 538.587 552.495 538.587 554.415 537.147 554.415 536.907 554.895 536.427 555.615 536.187 555.855 536.187 556.095 536.187 556.815 536.187 557.535 536.187 557.775 535.947"/>
    </g>
</svg>
