<svg xmlns="http://www.w3.org/2000/svg" viewBox="0 0 792 612">
    <defs>
        <style>.cls-1{fill:#fff;}</style>
    </defs>
    <g id="Panama">
        <path class="cls-1"
              d="M587.5363,581.789l-.48.24-.24.24-.24.24-.48.48-.96.24h-.48l-.24.24-.24.48v.96l.24.48h.72l.24.48.24.24,1.44.96.72.72.72.72v.48h-.24l-.48.48-.48.24h-1.2l-.48.48v.48l-.48.48-1.2.48h-.48l-.24.24h-.24l-.72.24h-.72l-.24-.24v-.48l.24-.24-.24-.72-.48-.72-.24-.48h-.24l-.24-.24-.24-.72v-.48l-.24-.48-.48.48h-.24l-.24.24h.24v1.44l-.24.24-.48-.24h-1.92l-.48-.48-.24-.24-.24-.48v-.72l-.24-.24v.24h-.24l-.24-.24-.24-.48h.24l-.24-.48-.24-.24-1.68.24h-1.2l-.48.24h-.24l-.24-.24v-.24l-.24-.24h-.96l-.24.24h-.24l-.48.24h-1.92l-.48.24h-.24l-.24.24-.24.48v.24l.24.72v.48h-.24v-.48l-.48-1.2h-.24l-.24-.24h-.24v-.24l.48-.48.24-.24.24-.24.48-.24v-.72l-.24-.72-.24-.24-.24-.24h-.24v-.24l.24-.48.24-.24.24-.24.48-.24.24-.24-.24-.48-1.2-.48-.24.24-.24-1.2-.24-1.92.48-.96.24-.24h.72l.24.24.48.24.24.24.24-.24.24-.24v-.24h.24l1.44.96v.72l.48.72.48.72.48.72.96.24h.48l.48-.24,1.44-.24.24-.48-.72-.24-.48-.48v-.24l.24-.24h.24l.96.72.24.48.48.24.24.24.24.24.48.24.48.24,1.68-.24h.72l.24-.24.48-.24.96-.24.24-.24.48-.24h.24v-.24l.24-.24.24-.24.24-.24.72-.72.48-.24.48-.24.96-.48.72-.24.48-.24.72-.48h.24l.24-.24.24-.24.24-.48.24-.24v-.24h.24l1.2-.48.24-.48.48-.48v-.48l.48-.48h.24l.48-.24.48.24h1.68l.72-.24.72-.24h.72l-.48.24-.24.24v.24l.24.24h.48l2.16-.72,1.2-.24.48.24h.48l.24.24h.48l.96.24h1.68l.72.48.72.24.24.24h.24l.72.48v.24l.24.48.72.24.72.24.24.48v.24h.72l.48-.24v.24l-.48.72-.24.48.24.24h.48l.24.48v.48l.24.24v.24l.48.24h.24l.24.48.24.24.24.72v.48l-.72.48v.24l-.48.72.48.48-1.68,1.92h-.24l-.24-.24v-.24l-.48-.48-.72-.24v.72l.24.48h.24v.48h-.24l-.24.24h-.24l-.48,1.92-.96-.48-1.44-1.2v-.24l-.48-.48-.48-.48v-.24l-.72-.96h-.24v-.24l-.24-.24-.24-.72v-.24h.96l.24-.48.24-.24-.24-.24-.24-.24-.24-.24.24-.24.72-.48.24-.72.72.48.24.48h1.2l.24.24h.48l.24.24v-.24l-.96-.48h-1.2l-.24-.48-.48-.72-.24.24-.72.48h-.24l-.72.24-.24.48h-.24l-.72-.72v-.48l-.24-.72-.24-.24h-.48l-.48-.24-.48-.24-.24-.24-1.44-.72-.96-.24h-.24l-.24-.24v-.24l.24-.48.48-.48-.24.24h-.24l-.48.48-.24.24v.24l-.72.24h-.48l-.72.24-.48.24h-.24l-.48.48v.24l-.24.48h-.48l-.48.24-.24.24-.24.48.24.24v.24l-.24.72-1.2,1.44-.48.48Zm-12.96,8.4.24.48v.96l.24.24h.72v.48h-1.2l-.72-.48h-.24l-.24-.48v-.24l.96-.96Zm22.0806-10.5606v.24l.24.24v.72l-.48.24h-.48v-1.2l.48-.24Zm-28.0808-2.16.24-.24h.24l.24.48v.24h-.24Z"/>
    </g>
</svg>
