<svg xmlns="http://www.w3.org/2000/svg" viewBox="0 0 792 612">
    <defs>
        <style>.cls-1{fill:#fff;}</style>
    </defs>
    <g id="Puerto_Rico">
        <path class="cls-1"
              d="M681.1389,479.0639v.24l-.24.24v.24l-.24.24-1.92,1.2h-1.92l-.72.48h-.24l-.48.24h-.24l-.72.24v.24h-.24l-.48.48h-1.2v.24l-.72.48-.24-.24v-2.16h-.24v-.24h-.48v-.24h-.24v-.24h-.24l.48-1.2v-.24h.24l.24-.24h.24l.24-.24h.24l1.68-.48h.48l.96-.48h.72l1.2-.48.72-.24.48-.24.24.48-.24-.48h.72v-.24h.24l.72-.24h1.92l.24.72.24.24v.24l-.48.24-.72,1.44Zm2.16-.96h-.48l.48-.48.48-.48h.96l-.24.24-.72.48Z"/>
    </g>
</svg>
