<svg xmlns="http://www.w3.org/2000/svg" viewBox="0 0 792 612">
    <defs>
        <style>
            .cls-1{fill:#fff;}.cls-2{fill:none;stroke:#95979a;stroke-linecap:round;stroke-linejoin:round;stroke-width:1.44px;}
        </style>
    </defs>
    <g id="bounds">
        <polygon class="cls-1"
                 points="447.35 466.743 443.999 466.743 442.119 465.487 441.875 465.729 438.426 464.857 436.812 464.318 436.092 463.6 433.927 462.878 433.646 462.595 432.367 462.274 432.127 462.034 430.112 461.53 429.369 459.303 428.012 459.303 428.012 456.719 426.33 455.039 426.646 452.822 424.892 452.822 424.892 452.582 424.652 452.582 424.652 450.24 423.691 449.279 423.691 448.557 423.212 448.076 423.212 447.813 422.072 447.244 421.016 445.044 420.678 444.028 419.372 443.377 419.372 441.359 418.412 440.399 418.405 438.997 415.784 437.05 414.971 436.238 414.321 436.021 413.785 436.021 413.306 435.781 411.684 435.781 411.449 435.703 411.109 435.971 410.757 436.676 410.437 437.635 409.439 439.131 406.12 442.45 402.507 441.542 402.265 441.542 398.731 439.771 398.731 439.382 397.714 439.382 397.474 439.142 397.229 439.142 396.101 438.009 393.931 436.565 393.931 436.317 392.035 434.423 390.993 431.41 390.571 430.565 390.571 429.313 390.035 427.813 389.584 426.932 389.322 426.669 387.881 425.948 386.243 424.311 385.87 423.588 385.542 423.368 384.324 422.152 384.042 421.628 382.23 420.723 381.23 419.221 379.051 419.221 379.051 415.926 378.347 414.517 377.474 411.463 377.356 411.299 375.345 410.493 374.491 407.072 374.491 401.141 375.203 401.141 376.049 400.845 377.456 397.751 377.988 397.085 378.146 395.505 379.581 390.483 379.885 387.137 382.616 383.235 382.841 382.558 383.925 381.203 385.083 378.597 386.779 377.278 386.91 376.43 386.392 373.841 386.632 372.881 386.46 372.795 383.614 372.479 383.434 372.298 380.204 371.759 378.353 370.648 380.753 366.648 379.722 365.962 381.389 363.458 385.907 363.458 387.287 364.838 388.762 365.002 392.841 367.042 394.387 369.617 395.134 371.859 394.589 374.036 395.032 376.248 394.202 381.64 391.578 383.681 390.816 385.395 389.966 386.482 389.776 387.054 387.656 390.021 387.48 391.956 386.035 397.015 385.713 400.235 384.326 401.97 383.55 403.676 383.208 405.728 384.787 407.938 385.858 411.65 387.537 413.331 388.016 414.286 390.659 416.934 390.833 417.282 391.36 417.634 392.337 418.61 392.752 419.44 394.061 420.093 396.658 422.692 397.61 424.597 397.61 425.084 397.857 425.331 398.811 427.237 398.863 429.462 399.104 429.701 399.354 429.701 401.13 431.484 402.978 432.593 403.679 432.943 405.654 428.992 408.252 428.102 408.54 427.885 411.927 426.191 413.511 427.781 415.198 427.781 415.678 428.021 418.549 428.021 420.421 429.894 420.685 430.422 420.954 430.422 422.879 432.353 424.019 433.206 425.841 435.484 426.187 436.867 428.095 440.742 428.724 440.742 429.909 443.111 431.027 444.582 432.892 444.582 432.923 446.478 433.827 447.377 434.481 449.341 434.761 451.303 435.134 451.303 435.749 453.146 436.012 453.41 436.046 454.036 436.349 454.942 436.457 455.052 436.766 455.129 438.022 455.743 440.053 456.251 440.893 457.063 443.22 457.063 443.939 457.303 445.189 457.303 445.693 457.807 446.483 457.543 447.372 457.543 447.372 459.081 447.873 460.082 448.521 459.435 451.59 462.503 447.35 466.743"/>
    </g>
    <g id="Rio_Grande">
        <polyline class="cls-2"
                  points="380.411 367.218 381.611 367.938 383.051 368.178 383.531 367.458 384.251 367.458 385.451 368.658 387.611 368.898 390.011 370.098 390.731 371.299 390.971 372.019 390.491 373.939 390.971 376.339 390.491 379.459 388.331 381.139 387.371 383.299 386.411 384.499 386.171 385.219 383.771 388.579 383.531 391.22 382.091 396.26 381.851 398.66 380.891 399.86 379.691 402.5 379.451 403.94 378.731 404.18 378.731 404.42 378.731 404.66 378.731 405.14 378.491 405.14 378.491 405.38 378.491 405.62 378.491 405.86 378.491 406.58 378.731 407.54 379.931 408.02 381.131 409.7 382.091 413.061 382.811 414.501 383.051 414.981 383.051 415.221 383.291 415.221 383.531 415.221 383.771 415.221 384.251 415.701 384.491 416.181 384.491 416.421 384.491 416.901 384.971 417.621 385.451 417.861 385.931 418.101 386.171 418.101 386.411 418.341 387.131 419.061 387.371 419.301 387.611 419.781 387.851 420.021 388.091 420.261 388.811 420.741 389.051 420.981 389.291 421.461 389.531 421.941 390.251 422.661 391.211 423.141 391.691 423.381 391.931 423.621 392.411 424.101 392.891 424.581 393.131 424.821 393.371 425.061 393.611 425.541 393.611 426.021 393.851 426.501 394.091 427.221 394.571 427.701 394.811 428.181 394.811 428.421 394.811 428.901 394.571 429.141 394.571 429.621 394.811 430.101 395.531 432.262 396.251 432.982 396.491 432.982 396.971 433.462 397.211 433.462 397.451 433.702 397.691 433.702 397.931 433.942 397.931 434.422 398.651 434.902 398.891 435.142 399.131 435.142 399.371 435.382 399.851 435.382 401.051 436.102 402.491 436.822 402.731 437.062 402.731 437.302 403.211 437.542 403.451 437.542 403.931 437.782 404.891 438.022 405.611 437.302 406.331 436.582 406.811 435.862 407.051 435.142 407.531 434.182 408.491 432.262 409.211 432.022 409.691 432.022 410.651 431.302 411.131 431.062 411.371 431.302 411.611 431.542 412.331 431.782 412.571 431.782 412.811 431.782 413.051 431.782 413.771 431.782 414.251 431.782 414.732 432.022 414.972 432.022 415.692 432.262 416.172 432.022 416.892 432.022 417.132 432.262 417.372 432.742 417.372 432.982 417.852 433.462 418.332 433.942 419.052 434.422 419.292 434.422 419.532 434.662 419.772 434.902 420.252 435.382 421.212 436.102 422.172 437.302 422.412 438.262 422.412 438.502 422.412 438.742 422.652 438.982 422.892 439.222 423.132 439.702 423.372 440.422 423.372 440.662 423.372 440.902 423.852 441.142 424.092 441.622 424.332 442.102 424.572 442.822 424.572 443.062 424.812 443.782 425.052 444.262 425.532 444.502 426.012 444.742 426.252 444.742 426.492 445.222 427.212 446.182 427.212 446.422 427.692 446.902 427.692 447.142 427.692 447.622 427.932 447.862 428.172 447.862 428.412 448.102 428.652 448.342 428.652 448.582 428.892 448.582 428.892 448.822 429.372 448.822 429.612 448.822 430.092 449.302 430.332 449.542 430.572 450.262 430.812 451.943 430.572 453.623 431.772 454.823 432.012 455.063 432.012 455.303 432.252 455.303 432.492 456.023 432.972 457.463 433.212 458.183 434.172 458.423 434.412 458.663 435.372 458.903 435.852 459.143 436.092 459.383 436.812 459.623 437.052 459.623 438.012 459.863 438.252 460.103 438.492 460.343 438.972 460.823 439.692 461.063 440.652 461.303 440.892 461.063 441.372 461.063 442.092 461.063 442.572 461.063 443.292 461.303 443.532 461.303 443.772 461.543 444.252 461.783 444.492 462.263 445.212 462.743 445.692 462.743 445.932 462.503 445.692 462.263 445.932 462.023 446.412 461.783 447.132 461.543 447.372 461.543"/>
    </g>
</svg>
