<svg xmlns="http://www.w3.org/2000/svg" viewBox="0 0 792 612">
    <defs>
        <style>
            .cls-1{fill:#fff;}.cls-2{fill:none;stroke:#95979a;stroke-linecap:round;stroke-linejoin:round;stroke-width:1.44px;}
        </style>
    </defs>
    <g id="bounds">
        <path class="cls-1"
              d="M560.8926,301.6157a4.0019,4.0019,0,0,1-3.5742-5.7915l.24-.48a3.976,3.976,0,0,1,.4326-.6811,4.023,4.023,0,0,1,.2871-.7588l.4805-.96a20.5407,20.5407,0,0,1,1.23-1.76l.2783-.2779.5488-.7314a3.9892,3.9892,0,0,1,.9805-.9282l.72-.48a4.01,4.01,0,0,1,.6719-.3608l.1309-.2623a14.2187,14.2187,0,0,0,1.0781-1.5429,27.8256,27.8256,0,0,1,2.5791-4.5469v-.52a4.0013,4.0013,0,0,1,.8008-2.4014l.7207-.96c.0254-.0328.05-.0655.0752-.0972l.96-1.2a4.0734,4.0734,0,0,1,.294-.3286l.0615-.0611a4.0045,4.0045,0,0,1,.8945-1.3745l.0655-.0654c.0449-.1162.0957-.2305.1513-.3428l.24-.48a4.0045,4.0045,0,0,1,.706-.9946l.2637-.3945a3.9735,3.9735,0,0,1,.4971-.6074l.4794-.48a4.005,4.005,0,0,1,1.9532-1.0757l.581-.3862a4.0456,4.0456,0,0,1,5.7617,5.6806l-.24.24a3.9917,3.9917,0,0,1-1.0332.7446l-.4453.2539-.1924.1929a4.4343,4.4343,0,0,0-2.291,2.7661,4.925,4.925,0,0,0-1.0752,1.32l-.5615.5625-.67.8369a3.9728,3.9728,0,0,1-.2012,1.1133l-.2393.72q-.0381.1135-.082.2256l-.4805,1.2a3.9961,3.9961,0,0,1-.5693.9854,3.6611,3.6611,0,0,1-.1152.3613,3.9962,3.9962,0,0,1-1.1641,3.1182l-.9551.9555-.0254.0249a29.9621,29.9621,0,0,0-1.7763,2.4912q-.1158.1267-.2422.2427a6.8193,6.8193,0,0,1-2.6992,1.7085c-.02.0244-.0391.0488-.06.0728a3.96,3.96,0,0,1-.6582.9189,4.0714,4.0714,0,0,1-.2715.7031l-.4775.9561a5.8091,5.8091,0,0,1-4.0635,2.936Zm13.6836-25.122h0Z"/>
    </g>
    <g id="St._Lawrence_River">
        <polyline class="cls-2"
                  points="578.656 273.134 578.416 273.374 577.936 273.614 577.216 274.094 576.976 274.334 576.736 274.574 576.496 274.574 576.256 274.574 576.016 274.574 575.536 275.054 575.056 275.774 574.816 276.014 574.576 276.494 574.576 276.974 574.576 277.214 574.336 277.214 574.336 277.454 574.096 277.454 573.856 277.694 573.616 277.934 573.616 278.174 573.376 278.654 573.136 278.894 572.656 279.374 571.696 280.574 570.976 281.534 570.976 282.254 570.976 282.734 570.736 283.454 570.256 284.654 570.016 284.654 569.776 285.374 569.536 285.374 569.536 285.614 569.536 285.854 569.536 286.094 569.296 286.334 569.296 286.574 569.056 286.574 568.816 286.574 568.816 286.814 568.336 287.294 568.336 287.534 568.336 287.774 568.816 287.534 569.296 287.774 569.056 288.014 568.816 288.254 568.336 288.734 567.856 288.734 567.616 288.974 567.616 289.214 567.616 289.454 567.616 289.694 567.136 289.934 566.896 289.934 566.656 290.415 566.656 290.655 566.656 290.895 566.656 291.135 566.416 291.135 566.416 291.375 566.176 291.375 566.176 291.615 565.936 291.615 565.696 291.615 565.696 291.855 565.696 292.095 565.456 292.095 565.216 292.095 564.976 292.095 564.736 292.095 564.016 292.575 563.296 293.535 562.816 294.015 562.816 294.255 562.336 294.735 561.856 295.695 561.856 295.935 561.616 296.415 561.376 296.895 561.136 297.135 560.896 297.615"/>
    </g>
</svg>
