<svg version="1.1" xmlns="http://www.w3.org/2000/svg" viewBox="0 0 792 612">
    <style type="text/css">
        .st0{fill:#FFFFFF;}
    </style>
    <g id="United_States">
        <polygon class="st0" points="482.9,429.4 482.4,429.4 480.7,430.1 480.7,430.6 481.2,431.1 481,431.3 480,431.8 479.8,431.8
	479.5,431.8 478.1,431.8 477.1,431.5 476.7,431.5 476.2,431.3 475.9,431.3 475.7,431.1 474.7,430.8 474,430.6 473.3,430.3 
	473.1,430.3 472.8,430.6 470.4,430.8 469.9,430.8 469.7,431.1 469.5,431.1 469.2,431.3 469,431.1 468.7,430.8 468.7,430.6 
	469,430.3 469.5,430.3 469.5,429.9 469.5,429.1 497.8,429.1 497.3,429.4 497.8,430.3 499,430.6 499.5,431.1 500.4,431.3 
	500.9,431.5 501.4,431.3 502.6,432.3 502.8,432.5 502.6,432.7 502.6,433 501.9,433.7 501.1,433.2 500.7,433.7 500.7,433.9 
	500.7,434.2 500.4,434.4 500.2,434.7 500.2,434.4 500.2,434.2 500.4,434.2 500.7,433.5 500.9,433 500.4,432.7 500.4,433 
	500.7,433.2 500.4,433.5 500.2,433.5 499.5,432.5 498.5,432.3 497.8,432 497.3,431.8 497.5,431.5 497.3,431.3 496.8,431.1 
	495.9,430.8 494.9,430.3 494.4,430.3 494.2,430.6 494.4,430.8 494.9,431.1 495.1,431.1 495.4,431.1 495.6,431.3 495.4,432.3 
	495.6,433 495.4,433.2 495.1,433.7 494.9,433.7 494.4,433.9 494.4,434.2 494.2,434.2 494.4,433.9 494.2,433.2 493.9,432.7 
	493.5,432.5 493,432.5 492.7,432.3 492.3,432.7 491.8,433.2 491.5,433.9 491.3,434.2 491.1,434.2 490.6,434.2 489.9,434.2 
	489.6,434.2 489.6,433.9 488.9,433.7 488.7,433.7 488.4,433.9 488.4,433.7 487.7,433.7 487.5,433.7 487.2,433.5 487,433.5 
	486.7,433.2 486.5,433 487.5,432.7 487.7,432.7 487.9,433.2 487.7,433.2 487.9,433.5 488.2,433.2 488.2,432.7 487.9,432.7 
	487,431.8 486,431.3 485.3,431.5 485.1,431.3 485.1,431.1 484.8,430.8 484.3,429.9 484.1,429.9 482.9,429.6 "/>
        <polygon class="st0" points="481.7,431.3 481.9,431.1 482.4,430.8 482.7,430.8 482.9,430.8 483.6,431.3 483.9,431.3 483.4,432
	483.1,432 481.9,431.5 481.7,431.5 "/>
        <polygon class="st0" points="34.8,391.2 35.5,391 35.8,391.2 37,390.5 37,390.3 37,389.8 37,389.5 37,388.8 37.2,388.6 37.4,388.3
	37.7,388.3 37.7,388.6 38.2,389.1 38.2,389.3 38.2,389.5 38.6,390.7 39.1,391 39.4,391.5 39.8,392.2 40.3,393.1 40.6,393.4 
	40.6,393.6 40.6,393.9 40.8,394.6 40.8,395.8 40.6,396.7 40.8,397.2 41,397.7 41.3,398.2 41,398.7 40.8,398.7 39.4,398.9 
	38.4,398.7 38.2,398.7 37.9,398.4 37.4,398.2 35.8,398.4 35.5,398.4 35.3,398.7 35,398.9 34.8,399.1 34.1,399.1 34.1,398.9 
	34.1,398.7 33.6,397.9 33.4,397.7 33.4,397 33.4,396.5 33.6,396 33.8,395.8 34.3,395.1 34.6,392.2 34.6,391.7 34.6,391.5 "/>
        <polygon class="st0" points="295.9,385 295.7,384.5 295.9,384.5 296.4,384.5 296.9,384.5 296.9,384.7 297.1,385 297.4,385
	297.4,385.2 296.6,385.5 296.2,385.5 296.2,385.2 295.9,385.2 "/>
        <polygon class="st0" points="300.2,385.2 300,385.5 299.8,385.5 298.8,385.5 298.6,385.5 298.3,385.5 298.1,385.2 297.8,385.2
	297.8,384.5 297.8,384.3 298.1,384.5 299,385 299.8,385 300,385 "/>
        <polygon class="st0" points="35,380.9 34.8,380.9 34.8,380.2 34.8,379.9 35,379.7 35.5,379.5 36,379.5 36.2,380.2 36.2,380.4
	36.2,380.7 36,380.7 36,381.1 36.2,381.1 36.7,381.4 37,381.4 37.2,381.4 37.4,381.4 37.7,381.9 37.7,382.1 37.7,382.3 37.9,383.1 
	38.2,383.1 38.4,383.5 38.4,383.8 38.4,384 38.4,384.3 38.2,384.5 37.9,384.5 37.7,384.5 37.2,384.5 37,384.5 37,384.3 36.7,384.3 
	35.8,383.8 35.5,383.8 35.3,383.5 35.3,383.3 35.3,383.1 35.5,383.1 35.5,382.6 35.8,382.3 35.8,381.9 35.5,381.6 35.3,381.6 
	35.3,381.4 35,381.4 "/>
        <polygon class="st0" points="33.8,380.2 33.8,380.4 33.6,380.4 33.1,380.4 32.6,380.2 32.6,378.7 32.9,378.5 33.1,378.5 33.6,379
	33.8,379.2 33.8,379.9 34.1,379.9 "/>
        <polygon class="st0" points="33.4,376.8 33.1,376.8 32.9,376.6 32.2,376.3 32.2,376.1 32.2,375.9 32.4,375.6 32.6,375.6 33.1,375.6
	33.8,376.6 34.3,376.8 34.6,377.3 34.8,377.5 35,377.5 35,377.8 35.3,377.8 35.5,377.8 35.8,378.3 35.5,378.3 35.3,378.5 35,378.5 
	34.6,378.5 34.6,378.3 34.3,378.3 33.8,377.8 33.6,377.3 33.6,377.1 33.4,377.1 "/>
        <polygon class="st0" points="30.5,368.9 30.5,369.1 30.7,369.1 30.5,370.1 30.5,370.6 30.2,370.8 30.5,371.3 30.5,371.5 30.7,371.8
	30.7,372.7 30.5,373 30,372.7 29.8,372.7 29.8,372 29.5,371.8 29.3,371.8 29,371.5 28.3,371.1 28.3,370.8 28.3,370.6 28.3,370.3 
	28.3,369.9 28.3,369.6 28.1,369.4 28.1,369.1 28.3,368.2 29.3,368.7 30,368.7 30.2,368.7 30.5,368.7 "/>
        <polygon class="st0" points="579.1,361.9 579.1,361.5 579.4,361.9 579.6,361.9 579.9,362.4 580.1,362.7 580.6,363.1 580.8,363.6
	581.1,363.9 580.6,363.6 580.6,363.4 580.1,362.9 579.9,362.7 579.6,362.7 579.4,362.4 "/>
        <polygon class="st0" points="19.2,357.6 18.7,357.9 18.5,358.1 18.2,357.9 18.2,357.6 18.5,357.4 18.7,357.1 19,357.1 19.2,357.1
	19.9,356.9 20.2,357.1 20.2,357.4 19.7,357.9 19.4,357.9 19.2,357.9 "/>
        <polygon class="st0" points="588.5,318.3 589.2,317.8 589.5,318 589.7,317.8 589.9,317.5 590.2,317.1 590.7,317.1 589.7,318
	588.3,319.5 588,319.7 587.5,320.2 586.8,320.7 586.6,320.7 586.1,321.1 585.9,321.4 585.6,321.1 584.9,321.6 584.7,321.9 
	584.4,322.1 582.7,323.1 582.3,323.3 581.8,323.8 582,323.8 581.8,324 581.1,324.3 581.1,324 581.1,323.8 580.8,323.8 580.6,323.8 
	580.3,323.8 580.3,324 580.3,324.3 580.1,324.5 579.9,324.7 579.6,324.3 579.4,324.3 579.6,323.8 579.6,323.1 579.9,322.8 
	580.3,322.6 580.8,322.1 581.3,321.4 581.8,321.1 582.7,320.9 583.5,320.7 583.7,320.4 584.4,319.9 585.1,319.7 585.9,319.5 
	586.6,319.2 586.6,319 586.8,318.7 587.1,318.5 587.3,318 587.8,317.3 588,317.1 588.3,317.1 588.3,317.3 588.3,317.5 587.8,318 
	586.8,319.7 587.1,319.7 587.5,319.5 587.8,319.2 587.8,318.7 588,318.5 "/>
        <polygon class="st0" points="595.7,313 595.5,313 596.2,311.8 596.4,311.5 596.7,311.5 596.9,311.5 597.1,311.8 597.4,312.3
	597.1,312.5 596.9,312.5 596.7,312.5 596.4,312.7 596.2,312.7 596.2,313 596.2,313.2 595.9,313.2 "/>
        <polygon class="st0" points="520.6,419.8 521.1,420 521.3,420.5 521.1,420.5 519.9,420.7 520.3,420.7 521.1,421 521.5,421
	522,421.2 522.7,421.2 522.7,421.5 523,421.5 523.5,421.7 523.7,421.7 524.2,421.9 524.2,421.7 523.9,421.5 523.7,421.2 
	523.5,421.2 523.5,421.5 523.2,421.2 523.2,421 523.9,420.7 524.4,421 524.4,421.5 524.7,421.7 526.1,422.4 526.3,422.2 
	526.6,422.4 526.1,422.7 525.9,422.7 525.6,422.4 525.4,422.2 525.1,422.2 524.9,422.2 524.9,422.4 525.4,422.7 526.6,423.1 
	526.8,423.4 527.3,424.1 527.5,424.6 527.5,424.8 527.3,425.1 527.5,425.1 528,424.8 529,424.6 529.7,424.3 529.9,423.9 
	530.4,423.6 530.2,424.1 530.4,424.1 530.7,424.1 531.1,423.6 531.4,423.6 531.6,423.1 532.1,422.7 532.3,422.7 532.6,422.4 
	533.1,422.2 533.3,422.2 533.5,422.4 533.8,422.4 533.8,422.2 533.8,421.9 533.3,421.9 533.1,421.9 532.8,421.7 533.5,421 
	534,420.7 534.5,420.5 535.7,420.3 535.7,420.5 536.2,420.7 536.7,421 537.1,421 537.4,421 537.9,421.2 538.3,421.5 538.6,421.7 
	539.1,422.2 539.1,422.4 539.3,422.7 540,422.9 540.3,423.1 540.5,423.6 540.5,424.1 540.7,424.1 541,424.1 541.9,424.6 
	542.9,425.8 543.1,426 543.9,426.3 544.1,426.3 544.8,426.3 545.1,426.3 545.3,427 545.5,427.2 546.5,428.2 546.5,428.4 
	546.5,428.7 546.3,428.9 546.5,429.1 546.7,429.1 546.7,429.6 547,430.8 547,431.5 546.7,432.7 546.5,433.5 546.5,434.7 
	546.5,435.4 546.5,435.6 546.3,436.1 546.3,436.3 546.5,436.6 546.5,436.8 547.2,437.5 547.5,437.8 547.9,437.3 547.9,437.1 
	548.2,436.3 547.9,435.9 547.7,435.9 547.2,435.6 547.2,434.9 549.1,435.4 549.4,435.6 549.6,436.1 549.4,436.3 549.1,436.8 
	548.7,437.5 548.7,437.8 548.4,438.5 548.7,438.7 548.2,439.2 548.7,439.5 548.9,439.7 549.1,440.2 549.1,440.4 549.9,441.9 
	550.3,442.3 550.6,442.8 550.6,443.1 551.3,443.5 551.5,443.5 552.5,443.8 552.5,443.5 552.3,443.1 552,442.6 552.5,442.3 
	553.2,442.3 553,443.3 553,444.3 553,444.5 553.2,445.5 553.7,445.7 554.2,445.5 554.2,445 554.2,444.7 554.4,444.5 555.1,444 
	554.4,445.5 554.4,445.7 554.2,445.7 554.2,445.9 554.7,446.2 555.1,446.7 555.6,448.1 555.6,448.3 555.9,448.6 555.9,448.8 
	556.3,449.5 556.8,450 557.3,449.8 557.5,449.8 558.7,450 559,450 559.2,450.3 559.5,450.5 560.9,452.7 561.1,453.1 561.4,453.4 
	561.6,453.4 562.1,453.6 562.3,453.6 562.6,453.6 563.1,454.1 563.1,454.3 562.6,454.6 562.3,454.3 561.6,454.1 561.6,453.9 
	561.4,453.9 561.1,454.3 561.4,455.1 561.9,455.3 562.3,455.1 563.8,454.6 564.7,454.3 565,454.1 565.5,453.6 565.7,453.6 
	565.9,453.6 566.2,453.4 566.4,453.6 566.4,453.4 566.7,452.7 566.7,451.2 566.9,451 566.7,450.5 567.1,449.8 567.4,449.1 
	567.6,447.9 567.4,445.5 567.4,444 567.4,443.1 567.4,442.6 567.4,442.1 567.1,440.7 566.9,440.2 566.4,439.5 566.2,439 
	565.7,438.3 565.2,438 564.3,436.3 563.8,435.4 563.8,435.1 563.5,434.9 563.5,434.7 563.5,434.4 563.5,434.7 564.5,436.3 
	565.2,437.5 565.5,437.8 565.7,438 565.7,437.8 565,436.6 564.5,436.1 564.3,435.9 564,435.1 563.5,434.2 563.3,433.9 563.3,433.7 
	563.1,433.7 563.3,434.2 563.5,434.4 563.3,434.4 563.1,433.7 562.8,433.7 562.8,433.5 562.6,433.2 561.6,432 560.2,429.9 
	559.9,429.1 559.2,427.5 558.7,426.5 559,426.5 559.5,426.7 559.5,427 559.5,427.2 559.5,427.7 559.7,427.7 560.2,427.7 
	560.7,427.5 560.4,427.2 559.9,426.7 559.7,426.5 558.7,425.3 557.5,423.9 557.1,423.1 555.6,421 555.4,420.5 554.7,419.3 
	554.2,418.3 553.9,417.9 553.7,417.1 553.5,416.4 553.2,415.7 553,415.7 553,415 552.7,414.3 552.3,414 552.3,413.5 552.3,413.1 
	552,412.6 551.8,412.6 551.8,412.3 551.8,412.1 551.8,411.9 551.5,411.9 551.3,411.4 551.5,410.9 551.5,410.7 551.8,410.7 
	551.8,409.9 551.8,409.5 551.5,409.5 551.3,409.2 551.3,408.5 551.5,408.5 551.8,408.7 552.5,408.3 552.5,407.8 552.3,407.5 
	552.3,407.1 552.5,406.1 552.3,406.1 552,406.1 551.8,405.6 552,405.6 552.3,405.6 552.7,405.4 552.7,404.9 552.7,404.4 
	552.7,404.2 553.2,403.5 553.5,402.7 553.7,402.5 554.2,401.8 554.2,401.5 553.9,401.5 553.7,401.3 553.9,401.1 554.2,400.3 
	554.2,400.6 554.7,400.1 554.9,399.6 554.7,399.4 554.4,399.4 554.2,399.4 554.2,399.1 553.7,398.2 553.7,397.9 553.5,397.5 
	553.7,397.7 553.7,397.9 554.2,398.7 554.7,398.9 554.7,398.2 554.7,397.9 554.9,397.9 554.9,398.7 555.1,399.1 555.1,399.4 
	555.6,399.1 555.9,398.9 556.1,398.7 556.3,398.2 556.3,397.9 555.9,397.5 555.4,397.2 555.4,397.5 554.4,397.5 554.7,397.2 
	554.9,397.2 555.4,397.2 556.1,397.2 556.3,397.2 556.8,397.2 557.3,396.5 558.5,395.8 558.7,395.5 559.2,395.1 559.5,394.8 
	559.2,394.6 558.7,394.3 558.7,393.6 559,393.6 559.2,393.6 559.2,393.9 559.2,394.1 559.5,394.1 559.7,394.1 560.2,393.9 
	560.7,392.7 560.7,392.2 560.9,391.9 561.1,391.7 561.4,391.9 561.6,391.7 562.1,391.7 562.1,391.2 562.1,391 562.6,390.7 
	562.8,390.5 563.1,390.3 563.1,390 562.8,389.8 562.6,389.8 562.3,389.5 562.1,389.3 562.1,389.1 562.1,388.6 562.3,388.3 
	562.6,388.1 562.3,388.6 562.3,389.1 562.8,389.3 563.1,389.1 563.1,388.3 563.1,388.1 563.8,386.7 563.8,386.2 564,385.9 
	564.3,385.7 564.3,385.5 564.5,385.2 565.7,383.8 566.2,383.5 566.7,383.3 567.9,382.8 568.3,382.8 568.8,382.8 569.1,382.8 
	569.3,382.8 569.5,382.3 569.5,381.9 569.5,381.6 569.5,381.4 569.3,381.1 569.3,380.9 569.3,380.7 569.5,380.9 569.8,381.6 
	569.8,381.4 569.8,381.1 569.8,380.7 569.8,380.4 570,380.2 570.3,379.2 570.5,378.7 570.5,378.5 570.7,378.5 570.7,378.3 571,378 
	571.2,377.8 571.7,377.1 571.9,377.1 572.2,377.1 572.2,376.6 571.9,376.1 571.7,375.6 571.5,375.4 571.7,375.4 572.2,375.9 
	572.2,376.3 572.4,376.3 572.4,376.6 572.7,376.3 573.1,375.6 573.4,375.1 573.6,375.1 575.5,373.9 576,373.7 576.3,373.9 
	576.3,374.2 576.5,374.2 577.2,373.7 577.2,373.5 577.7,372.7 577.9,372.5 578.2,372 578.2,371.8 577.9,371.3 577.7,371.3 
	577.7,371.5 577.9,371.8 577.5,372 577.2,372.3 577,372 577.2,371.8 577,371.3 576.7,371.8 576.5,371.8 576,372 575.5,372.5 
	575.5,372.7 575.3,373 575.1,372.7 574.8,372.7 574.3,372.7 574.1,372.7 573.9,372.5 572.9,371.5 573.6,372 574.6,372.5 
	574.8,372.5 575.1,372.3 575.3,372.3 575.8,371.8 576,371.3 576,371.1 576.3,370.8 576,370.6 575.3,370.8 576,370.1 576.5,370.1 
	576.5,369.6 576.3,369.4 573.9,369.4 572.7,368.9 572.4,368.7 573.1,368.9 573.4,368.9 575.1,368.9 575.3,368.7 575.1,368.4 
	574.8,367.9 575.1,367.9 575.1,367.7 575.5,367.7 575.3,367.9 575.3,368.2 575.8,368.7 576,368.9 576.3,368.9 578.2,368.7 
	578.4,368.4 578.7,367.7 578.9,367.5 578.9,367 579.4,366.3 579.6,366.3 579.9,366.3 580.1,366.3 580.1,365.8 580.1,365.1 
	579.9,364.1 579.6,363.9 579.4,363.4 578.9,363.1 578.4,363.9 578.2,363.9 578.2,364.1 578.2,364.6 578.4,364.8 578.4,365.5 
	578.4,366 577.9,366 577.7,365.8 578.2,365.8 578.2,365.3 577.9,364.8 577.7,364.6 577.7,364.3 577.9,363.9 577.7,363.6 
	577.7,363.4 577.5,363.4 576.7,363.6 576,364.1 576.5,364.3 576.3,364.3 575.5,364.1 575.3,364.1 575.1,364.3 574.8,364.6 
	574.6,364.6 573.9,364.8 573.6,364.8 573.4,364.1 573.1,363.9 572.9,363.4 572.9,362.9 572.9,362.7 573.1,362.4 573.1,362.9 
	573.1,363.1 573.4,363.6 573.6,363.9 573.9,364.1 574.8,364.1 575.5,363.4 575.3,362.9 575.3,362.7 575.5,362.7 576.3,362.9 
	576.5,362.9 577.2,362.2 577,361.9 576.5,361.5 576.3,361.5 576,361.5 576,361.2 576.5,361.2 577.2,361.7 577.5,361.9 577.9,361.9 
	577.9,361.7 577.7,361.7 577.2,360.7 577.5,360.7 577.7,361 578.7,362.2 578.9,362.4 578.9,361.9 577.9,360.7 577.7,360.5 
	577.5,360.3 577.2,360 576.7,359.5 576.5,359.3 576.5,359.1 576.5,358.8 576.7,358.8 576.7,359.1 577,359.3 577.5,359.3 
	577.2,358.8 577.2,359.1 577,359.1 577,358.8 576.7,358.3 576.7,357.9 576.7,357.6 577,357.9 577.5,358.6 577.5,358.8 577.7,359.1 
	577.7,359.3 578.4,360.5 578.9,361.2 579.1,361.5 578.7,360.7 578.2,360 577.9,359.5 577.7,359.1 577.7,358.8 577.2,358.1 
	576.5,356.7 576.3,356.2 576,356.2 575.8,356.4 575.1,356.4 574.8,356.4 574.6,356.4 574.3,356.2 574.1,356.4 574.1,356.9 
	574.3,357.1 574.1,357.1 573.1,357.1 573.1,356.7 572.4,356.4 571.9,356.2 571.2,355.5 570.3,355.2 569.1,355 568.3,355.2 
	567.9,355.2 567.9,355 569.3,354.7 569.5,354.7 570,355 570.7,355 571.5,355 571.5,354.7 571.7,355 571.9,355.2 571.9,355.5 
	572.4,355.7 573.4,356.2 573.6,356.4 574.1,355.9 574.1,355.2 573.9,355 573.1,354.5 572.9,354.5 572.7,354.5 572.2,354.3 
	571.7,354.3 571,353.5 571,353.3 571.7,354 572.4,354.3 572.7,354.3 573.1,354 572.7,353.5 572.9,353.3 573.4,353.5 573.6,353.3 
	573.6,353.1 573.6,352.6 573.4,352.1 572.9,351.6 572.2,351.6 571.5,351.6 571.2,351.4 571,351.1 571,350.9 570.7,350.7 
	570.5,350.7 570,350.7 569.1,349.7 568.6,349.2 568.3,349 568.1,348.7 567.9,348.7 567.6,348.7 566.9,348.5 566.9,348.3 
	567.4,348.3 568.1,348.7 568.3,348.7 568.6,349 569.1,349.5 570,350.2 571.7,351.1 572.4,351.4 572.7,351.4 572.7,350.7 
	572.7,349.2 572.7,349 572.4,348.7 571.9,348.7 571.5,348.7 570.7,348.5 570,347.8 569.5,347.8 568.6,348 568.3,347.8 567.9,347.8 
	567.1,347.1 566.7,346.6 566.2,347.1 565.9,347.3 565.7,347.3 565.5,347.3 565.2,346.8 565.2,346.1 565.2,345.1 565.7,344.2 
	565.9,344.2 566.2,343.9 565.9,343 565.9,342.7 565.7,342.5 565.9,342.5 566.2,342.7 566.2,343.2 566.2,343.5 566.4,343.7 
	566.4,344.2 566.2,344.2 565.9,344.4 565.7,345.1 565.5,345.6 565.5,345.9 565.5,346.1 565.7,346.8 565.9,346.8 566.7,346.3 
	566.9,346.1 567.4,346.6 567.9,346.8 568.1,347.1 569.1,347.3 569.3,347.1 569.5,347.1 569.8,347.1 570,347.1 570,347.3 
	570.3,347.3 571.7,348 571.9,348 571.7,347.3 571.5,347.1 571.5,346.8 571.2,346.8 571,346.6 571,346.3 570.5,346.3 570.3,346.1 
	569.5,345.6 569.1,345.4 569.1,345.1 568.8,344.4 568.6,344.2 568.6,343.9 568.8,344.4 569.1,345.1 569.5,345.4 570.5,345.9 
	570.7,345.9 571,345.6 570.7,345.4 570.3,345.1 570,344.9 570,344.7 569.8,344.7 569.8,344.4 569.3,343 569.1,342 569.3,341.5 
	569.5,340.6 569.1,340.1 568.8,339.6 568.6,339.6 568.3,339.4 567.9,339.1 567.6,339.1 567.9,338.9 568.1,339.1 568.3,339.1 
	568.6,339.1 568.8,339.1 569.1,339.1 568.8,338.9 568.6,338.9 568.3,338.7 568.6,338.4 569.1,337.9 568.8,337.7 569.3,337.2 
	569.5,337.2 569.8,337.5 569.8,337.7 570,337.7 570.3,337 570.5,336.7 570.3,336.5 570.3,336 571,335.3 571.5,335.5 571.5,335.8 
	571.2,337.2 570.5,337.5 570.3,337.9 570,339.4 570.5,340.1 570.7,339.6 571,339.1 571,340.3 570.7,340.6 570.5,340.6 570.3,340.6 
	570,340.3 569.8,341.1 570,341.5 570,341.8 570.3,341.5 570.3,341.3 570.5,340.8 571.2,341.3 571.7,341.8 571.5,342 571.5,342.3 
	571.2,342.3 571,342 570.7,341.8 570.5,342 570.3,342.5 570.5,343 570.5,343.2 571.2,342.5 571.2,343 572.2,343.2 572.4,343.2 
	572.7,343.2 572.7,343 572.7,342.7 572.9,343 572.9,343.2 572.7,343.5 572.4,343.5 571.9,343.5 571.5,343.5 571,343.5 571,343.9 
	571.2,343.9 571.5,343.9 571.5,343.7 571.7,343.7 571.7,343.9 571.5,344.2 571.5,344.4 571,344.4 571,344.7 571.7,345.4 
	571.9,345.6 571.7,345.1 572.2,345.4 572.7,345.9 573.1,346.1 573.9,344.4 573.9,345.9 574.1,346.6 574.6,346.8 574.6,347.8 
	574.6,348 574.8,348 575.1,348 575.1,347.8 575.3,347.5 575.8,347.5 576,347.5 576,347.8 576.3,348.5 576,349 575.8,349.7 
	575.3,350.2 575.1,350.7 575.1,350.9 575.1,351.6 575.3,353.1 575.3,353.5 575.3,353.8 575.8,354.3 576.3,353.5 576.3,353.1 
	576,352.6 576,352.3 576.3,351.6 576.5,350.9 576.7,350.9 577,351.1 577.2,350.7 577,350.4 577,349.5 577.2,348.5 577.5,347.5 
	577.5,346.8 577.5,346.6 577.5,346.1 577.7,345.9 578.2,344.7 578.4,344.7 578.4,343.7 578.4,343 578.4,342.7 578.7,343.2 
	578.7,343 578.7,342.7 578.4,342.5 578.2,341.8 577.7,341.8 577.5,342 577.2,342 577.5,341.1 577,340.1 576,339.6 575.3,338.4 
	574.8,337.9 574.8,337.7 574.8,337.2 574.3,336.7 573.6,336.3 573.4,336 572.9,334.8 572.9,334.6 573.4,333.1 573.4,332.9 
	573.6,332.7 573.9,332.4 574.3,332.2 574.6,331.9 574.8,331.5 574.8,331.2 575.1,331 575.3,330.7 575.1,331.2 575.1,331.7 
	574.8,331.9 574.6,332.2 574.1,332.4 573.9,332.7 573.6,332.9 573.4,333.1 573.4,333.4 573.1,334.6 573.4,335.5 573.6,335.8 
	574.3,336.3 574.6,336.5 575.1,336.5 576.3,337 576.7,337 577,337 577.7,337 577.9,337 577.9,337.2 577.9,337.5 577.9,337.7 
	577.9,338.2 577.9,338.4 577.9,338.9 578.2,338.9 578.4,338.9 578.4,338.7 578.7,338.7 578.7,338.4 578.9,337.7 579.1,337.2 
	579.1,336.5 579.4,335.8 579.1,335.5 579.4,335.1 579.6,335.1 579.6,335.3 580.1,334.8 580.1,334.6 579.9,334.6 579.9,334.3 
	579.9,334.1 579.9,333.9 580.1,334.1 580.1,333.9 579.9,333.6 580.3,332.9 580.8,332.2 580.8,331.9 581.1,331.7 580.8,331.5 
	580.6,331 580.6,329.5 580.6,328.8 580.8,328.8 580.8,329.1 581.1,329.5 580.8,329.8 581.1,330.3 581.1,329.5 581.1,328.8 
	580.8,326.7 580.6,325.9 580.1,325.5 579.6,325.9 579.1,326.2 578.7,325.9 578.4,325.5 578.4,325.2 578.7,324.5 578.9,324 
	578.9,324.3 579.1,324 579.4,323.5 579.4,322.1 579.4,321.6 579.4,321.4 578.9,320.2 578.9,319.9 578.7,319.7 578.4,319.5 
	578.4,319 579.1,319.9 579.4,320.4 579.4,320.7 579.6,320.9 579.6,321.4 579.6,321.6 579.6,321.9 579.6,322.3 579.6,322.8 
	580.3,322.6 580.3,321.9 580.3,321.6 580.6,321.4 580.8,321.1 580.8,320.9 580.8,320.7 581.3,320.7 581.8,320.2 581.8,319.9 
	582,319.7 582.3,319.5 582.5,319.2 583,318.7 583.2,318.7 583.5,318.5 583.7,318 584.2,317.5 584.2,317.3 584.4,317.5 584.9,317.3 
	585.9,316.8 586.1,316.8 586.3,316.8 587.3,316.6 588,316.1 588,315.9 588.3,315.6 589.5,315.1 589.9,315.1 590.2,315.1 
	590.4,314.9 590.7,314.7 590.9,314.4 591.4,314.2 591.6,314.2 591.9,314.2 591.9,313.9 592.1,313.2 592.1,313 591.6,312.3 
	591.4,310.6 592.1,311.5 592.3,311.5 592.6,311.3 592.3,311.1 592.6,310.8 592.8,310.1 592.8,310.6 592.8,310.8 592.8,311.3 
	592.8,311.5 593.1,312.3 593.1,312.5 593.3,312.7 593.5,312.5 593.5,312.3 593.8,312.3 594.5,311.5 595,310.8 595.2,309.9 
	595.7,309.9 595.7,310.3 595.9,310.8 596.2,311.1 596.9,310.6 597.1,310.3 597.1,310.1 597.4,309.9 598.1,309.6 598.3,309.4 
	598.8,309.1 599.1,308.9 599.3,308.9 599.5,308.7 599.5,308.4 599.3,307.5 599.1,307.5 598.8,307 598.6,306.7 598.6,306.5 
	598.3,306.5 598.1,306.3 597.9,306 597.6,306 597.4,306 596.9,306.3 597.4,306.5 597.4,306.3 597.6,306.3 598.6,307 598.8,307.7 
	598.8,307.9 598.6,308.4 598.3,308.4 598.1,308.7 597.6,309.1 597.4,309.1 596.7,309.1 596.2,308.9 595.9,308.7 595.9,308.4 
	595.7,307.9 595.5,307.9 595.2,307.9 595,307.9 594.7,307.7 594.7,307.2 594,306.3 593.5,306 593.1,306 593.1,306.3 592.6,306.5 
	591.9,306 591.9,305.8 592.3,304.3 592.3,304.1 592.6,303.6 593.3,303.1 593.5,302.7 593.3,302.4 593.1,302.4 593.1,302.7 
	593.1,302.9 592.6,302.9 592.1,302.7 592.1,302.4 591.6,301.5 591.6,301.2 591.6,300.7 591.6,300.5 591.9,300 591.9,299.8 
	591.6,299.8 591.4,299.3 591.6,299.5 591.9,299.5 592.1,298.6 592.1,298.3 591.9,298.1 591.9,297.6 591.9,297.4 591.9,297.1 
	592.1,297.1 592.3,297.1 592.6,296.7 592.6,296.2 592.6,295.9 592.6,295.2 593.1,295 592.8,294.5 592.8,294.3 592.6,294.5 
	592.6,294.3 592.6,293.8 592.6,293.3 592.8,293.1 592.8,292.8 593.3,292.3 593.8,292.1 594.3,292.6 594.3,292.8 594.5,293.1 
	594.5,292.6 594.3,291.9 594,291.6 593.8,291.4 593.5,291.1 593.8,290.4 594,290.7 594.3,291.1 594.7,292.1 595,292.3 595,291.9 
	594.7,291.6 594.7,291.4 594.7,290.9 594.7,290.7 595,291.4 595.5,291.4 595.2,291.1 595.2,290.9 595.2,290.7 595.5,290.9 
	595.5,291.1 595.7,291.4 595.9,291.4 595.9,290.9 595.9,289.7 596.7,289.9 596.9,290.4 597.1,289.9 597.6,289 597.6,288.7 
	597.4,288.7 597.4,288.5 597.1,287.5 596.9,286.1 597.4,285.6 597.6,285.6 597.6,285.1 597.6,284.7 597.9,284.7 597.9,284.9 
	597.9,285.6 598.1,286.6 599.3,286.3 599.5,286.1 599.1,285.4 599.5,285.1 599.8,285.4 600,284.9 600,284.7 600.3,284.4 
	600.5,284.4 601.5,284.2 601.7,284.4 601.9,284.9 602.2,284.4 602.2,284.2 602.4,283.9 602.4,283.5 602.9,282.7 603.1,283 
	603.9,282.3 603.9,282 603.6,281.8 603.6,281.3 603.9,281.5 604.3,281.5 605.1,281.1 605.5,280.8 606,279.1 606,278.9 605.8,278.7 
	605.3,278.7 605.3,278.9 605.1,278.9 604.8,278.9 604.6,278.7 604.8,278.7 605.1,278.4 605.3,277.9 604.6,277.2 604.1,277 
	603.9,277 603.6,276.7 603.4,277 603.4,277.2 603.1,277.5 602.7,277.2 602.7,277 602.2,276.7 602.2,276.3 601.5,275.1 601.7,274.8 
	601.5,274.3 601.2,274.1 601,274.3 600.5,274.3 600,274.3 599.3,274.3 599.1,274.1 598.8,273.6 598.6,272.9 598.6,272.2 
	597.6,269.8 595.9,266.2 595.5,265.2 595,264 594.5,264 594.3,263.8 594,263.5 593.8,263.5 592.3,262.8 592.1,262.8 591.9,262.8 
	591.6,262.8 591.4,262.8 591.4,263.1 590.7,264 589.7,264.7 589.5,265 589.2,265.2 588.7,265.2 588.3,265 588.3,264.7 588,264.7 
	588,264.5 588,264.3 587.8,264 587.8,263.8 587.3,263.8 586.8,263.8 586.6,264.5 586.3,265.7 585.9,267.6 585.9,268.3 585.6,269.5 
	585.1,271 585.4,271.9 585.6,272.7 585.6,272.9 585.6,273.1 585.6,273.4 585.6,273.6 585.4,274.1 585.1,274.6 585.1,275.3 
	585.4,276.3 585.9,277 586.1,277 586.1,277.5 585.9,278.7 585.6,279.4 585.4,279.9 585.1,280.3 584.9,280.8 584.9,281.3 
	584.9,281.5 585.1,281.5 584.9,283.7 583.9,283.2 583.7,283.5 583.5,283.9 583.2,284.2 583,283.9 582.7,283.9 582.5,283.9 
	582,284.7 582.3,284.9 582.3,285.6 582.3,285.9 582.3,286.1 582.3,286.3 582,286.6 580.3,287.1 579.4,287.5 578.4,287.8 
	577.2,288.3 577,288.3 575.5,288.7 574.8,289 572.7,289.7 571.2,290.2 569.8,290.9 568.1,291.4 565.7,292.1 565.5,292.1 
	565.2,292.1 565,292.1 564.7,292.1 564,292.6 563.3,293.5 562.8,294 562.8,294.3 562.3,294.7 561.9,295.7 561.9,295.9 561.6,296.4 
	561.4,296.9 561.1,297.1 560.9,297.9 560.9,298.1 560.9,298.3 560.9,298.6 560.7,298.6 560.4,298.8 560.2,299.1 559.9,299.1 
	559.9,299.3 558.7,301.2 558.5,301.5 558.5,301.7 558.3,302.7 558,303.1 558,303.4 557.8,304.6 557.5,305.8 556.6,306 554.9,306.5 
	553.2,307 552.5,307.2 551.8,307.2 551.5,307.5 548.9,308.2 547.2,308.4 547,308.7 546,309.4 545.5,309.9 545.1,310.1 544.8,310.6 
	545.3,311.1 545.8,311.8 545.8,312 546,312.7 546,313.2 546.5,313.9 546.7,313.9 547,314.2 547.2,314.2 547.2,314.4 547.2,314.9 
	547.2,315.1 547,315.1 546.5,315.9 546.3,315.9 545.5,316.6 544.3,317.8 543.4,318.5 543.1,318.5 541.7,319.9 539.5,321.1 
	539.3,321.1 537.6,321.9 535.5,322.8 534.5,323.5 533.5,324.5 532.6,325.5 530.7,327.4 530.7,327.6 529.7,328.3 529.5,328.6 
	528.3,328.6 528,328.6 525.6,327.6 525.1,327.1 525.1,326.9 524.9,326.7 524.9,326.4 524.7,325.2 524.7,325 524.7,324.7 
	524.9,324.7 524.9,324.3 525.1,324.3 525.1,324 525.4,324 525.4,323.8 525.6,323.8 526.1,323.3 526.3,323.1 526.6,322.8 
	526.6,322.6 526.8,322.3 526.8,321.9 527.1,321.9 527.3,321.6 527.5,321.4 527.5,321.1 527.5,320.4 527.5,320.2 527.5,319.7 
	527.5,319 527.5,318 527.5,317.8 527.8,316.3 528,315.4 528,314.9 528.3,313.5 528.3,313.2 527.1,310.6 525.6,306.7 524.4,303.6 
	523,300 522.5,299.8 522.3,299.8 520.6,299.1 519.9,298.8 519.6,298.6 518.7,298.3 517.2,297.6 516.5,297.6 516.7,296.7 517,296.4 
	517,295.9 516.7,295.7 516.3,295.5 516,295.2 515.8,295.2 514.8,295.5 514.6,295.7 514.3,295.9 513.4,295 513.1,294.7 512.7,293.8 
	512.7,293.5 512.7,293.3 512.7,293.1 512.7,292.8 512.7,292.6 512.2,292.6 511.2,293.1 511,293.1 511,293.3 510.7,293.5 
	510.5,293.5 509.1,292.3 508.8,292.1 508.6,291.6 508.6,291.1 508.3,290.9 508.1,290.4 507.9,290.2 505.2,289.2 504.5,289 
	503.1,288.3 502.3,288 501.4,287.8 501.1,287.5 498.7,286.6 498.3,286.3 496.3,285.6 494.4,284.9 493.7,284.7 493.2,284.4 
	488.9,282.7 487.9,282.3 486.5,283 486.3,283 484.8,284.2 483.1,285.4 483.1,285.6 482.7,285.4 482.4,285.6 481.9,285.6 
	481.7,285.6 481,285.4 480.5,285.6 480.5,285.9 480.3,285.9 479.8,285.6 479.5,285.4 479.3,285.1 478.8,284.9 478.1,285.1 
	475.7,285.6 475.5,285.6 475.2,284.7 475,284.4 474.7,284.7 474.5,284.7 473.5,285.4 473.3,285.6 473.1,285.9 472.8,286.1 
	472.6,286.1 472.3,286.1 472.1,286.3 471.9,286.3 471.4,286.1 470.9,286.1 470.7,285.6 470.4,285.4 470.2,285.4 469.7,285.4 
	469.2,285.1 469,284.9 468.7,284.7 468.7,284.2 468.3,284.2 468,284.2 467.5,284.4 467.3,284.9 467.5,284.9 467.5,285.1 
	467.3,285.4 467.1,285.4 466.6,284.7 466.6,284.2 465.9,283.7 465.1,283.5 464.9,283 463.7,282.5 462.3,282.5 461.8,282.7 
	461.3,282.7 461.1,283 461.1,283.2 460.8,283.5 460.1,283.7 459.9,283.7 459.4,283.7 459.1,283.2 459.1,283 458.9,283 457.9,283 
	457.7,282.7 457.5,282.7 457,282.7 456.7,282.5 456,282.5 455.8,282.5 455.5,282.5 455.1,282.3 454.8,282.3 454.6,282 454.3,281.8 
	454.3,281.3 454.3,281.1 454.3,280.8 454.3,280.3 454.1,280.1 454.1,279.6 453.9,279.1 453.9,278.9 453.6,277.9 452.9,277.5 
	452.7,277.5 452.4,277.5 452.2,277.5 451.9,277.5 451.9,277.7 451.9,279.1 451.9,280.3 451.5,280.3 441.4,280.8 439.9,280.8 
	439.2,280.8 438.3,281.1 437.3,281.1 435.9,281.1 434.7,281.1 432.7,281.1 430.3,281.1 427.7,281.1 426.7,281.1 424.3,281.1 
	421.2,281.1 420,281.1 419.8,281.1 419.3,281.1 415.5,281.1 414.7,280.8 413.5,280.8 412.3,280.8 411.1,280.8 410.4,280.8 
	409.9,280.8 409,280.8 408.5,280.8 407.3,280.6 405.9,280.6 405.4,280.6 404.2,280.6 401.8,280.3 400.8,280.3 399.4,280.3 
	397.2,280.1 396,280.1 395.5,280.1 395.1,279.9 394.3,279.9 393.1,279.9 391.9,279.6 388.8,279.4 388.3,279.4 387.1,279.4 
	386.7,279.4 386.4,279.1 384.5,279.1 383.5,278.9 382.6,278.9 381.9,278.9 380.9,278.7 378.5,278.4 376.8,278.2 376.1,278.2 
	375.1,278.2 374.9,277.9 374.4,277.9 373.9,277.9 373.5,277.9 373,277.9 372.5,277.7 371.5,277.7 371,277.5 367.9,277.2 365.8,277 
	364.6,276.7 363.9,276.5 363.4,276.5 362.9,276.5 362.4,276.5 361.9,276.3 361.7,276.3 359.8,276 359.3,276 358.3,275.8 
	357.6,275.8 356.6,275.5 354.3,275.1 352.8,274.8 352.1,274.8 351.6,274.6 351.1,274.6 349.9,274.3 349.2,274.3 348.5,274.1 
	347.5,273.9 347,273.9 346.6,273.6 346.3,273.6 345.6,273.6 343.9,273.4 339.1,272.4 338.9,272.2 338.2,272.2 337.9,272.2 
	337.7,271.9 336.2,271.7 335,271.5 334.8,271.5 334.1,271.2 333.4,271.2 332.2,270.7 330.2,270.5 329.3,270.3 328.3,270 
	327.8,269.8 326.6,269.5 324.7,269.1 324.5,269.1 324,268.8 321.4,268.3 318.7,267.6 313.7,266.2 312.5,265.9 312,265.9 
	311.3,265.7 310.6,265.5 310.3,265.5 310.3,265.7 310.1,265.7 310.3,267.1 310.3,267.4 310.6,267.4 310.8,267.4 311,267.6 
	311,269.1 310.6,270 310.3,269.8 310.3,269.5 309.8,269.3 309.6,269.3 309.4,270 309.6,270 309.8,270 310.6,271.2 310.6,271.5 
	310.3,271.7 310.3,271.5 310.1,271.5 309.8,271.5 309.6,271.7 309.6,271.9 309.6,272.4 309.8,272.7 310.1,272.7 309.8,272.4 
	309.8,272.2 310.1,271.7 310.6,271.9 310.6,273.1 310.3,274.1 309.6,274.8 309.1,276 308.9,276.7 308.9,277 309.1,277.5 
	309.1,278.2 308.9,278.4 308.4,278.7 308.2,278.9 307.7,278.9 307.4,279.1 307.2,279.4 307,279.6 306.7,279.6 306.2,279.9 
	306,279.1 305.8,279.1 305.5,279.4 305.3,280.1 305.3,279.9 305.3,279.4 304.8,279.4 304.6,279.4 304.6,279.1 304.8,278.9 
	305,278.9 305.3,278.9 305.5,278.4 305.8,278.2 306,278.2 306.5,277.7 306.7,277.7 306.5,278.2 306.2,278.4 306.2,278.9 
	306.2,279.1 306.5,279.1 306.7,278.9 306.5,278.4 307,277.9 307.4,277.7 307.4,277.9 307.2,278.2 307,278.4 307.4,278.9 
	307.7,278.7 307.9,277.9 308.2,277.2 308.4,276.5 308.2,276.5 307.9,276.5 307.4,276.7 307.7,275.8 307.9,276 307.9,276.3 
	308.2,276 308.2,275.5 308.6,275.3 309.1,275.3 309.1,273.9 308.9,273.9 307.7,275.1 307,275.5 306.5,275.5 306.2,275.8 
	305.8,276.3 305.3,276.7 305,277.2 305.3,277.5 305.5,277.2 305.8,277.2 306,277.2 306.2,277.2 306,277.5 305.5,277.5 305.3,277.5 
	304.8,277.5 304.8,277.2 305,276.5 305.8,276 306,275.8 306.2,275.5 306.5,275.3 306.7,275.3 306.7,275.1 307,274.8 307.2,274.6 
	307.2,274.3 307.2,274.1 307.7,274.1 307.7,274.3 307.4,274.3 307.4,274.8 307.7,274.8 308.2,274.3 308.6,273.9 308.4,273.1 
	308.4,272.9 308.2,272.2 308.4,271.9 308.4,271.7 308.2,271.7 307.9,271.9 307.7,271.9 307.2,271.9 306.7,271 306.5,271 
	306.2,271.2 306,271.5 305.3,271.2 305,271 304.6,270.7 303.8,270.5 303.4,270.3 303.1,270.3 302.9,270 302.6,270 302.2,269.8 
	301.9,269.5 301.9,269.3 301.7,269.1 301.4,268.8 301,268.6 300.5,268.1 300.2,267.9 300,267.6 299.5,267.1 299.3,267.1 
	299.3,267.4 299,268.3 298.8,268.8 298.8,269.3 298.6,269.8 298.6,270 298.6,270.3 298.6,270.5 298.6,271 298.6,271.2 298.8,271.2 
	298.8,271.5 299,271.7 299,271.9 299.3,272.7 299.3,273.1 299,274.3 299,275.1 298.8,275.5 299,275.8 299,276 299,276.5 299,277 
	299,277.9 298.8,278.2 298.8,278.4 299,278.2 299.3,278.2 299.3,278.4 299.5,278.4 299.5,278.7 299.5,278.9 299.8,278.9 300,279.1 
	300.5,279.4 300,279.4 299.8,279.4 299.5,279.4 298.8,279.6 298.6,279.9 298.6,280.6 298.6,280.8 299,281.1 299.3,281.1 
	299.5,280.8 299.8,281.1 300,281.5 299.8,281.5 299.8,281.3 299.3,281.3 299,281.8 299,282 299,282.3 299,282.5 298.8,283.2 
	298.3,283.5 298.1,283.5 298.3,282.7 298.3,282.3 298.6,282 298.6,281.5 298.6,281.3 298.3,281.5 297.8,283.2 297.8,283.9 
	298.3,284.7 298.6,284.7 298.8,284.7 299.3,284.7 299.5,284.7 299.8,284.9 300,284.9 300.2,285.1 300.5,285.1 300.7,285.1 
	301,285.4 301,285.6 301.2,286.1 301.4,286.3 301.7,286.3 301.4,286.6 301,286.1 300.7,286.1 300.7,285.9 300.5,285.4 300.2,285.4 
	300,285.4 299.8,285.6 299,285.4 298.6,285.4 298.1,284.9 297.8,285.1 297.8,285.6 297.8,285.9 297.8,286.1 297.8,286.3 
	297.6,286.6 297.4,287.3 296.9,288 296.9,288.3 296.9,288.7 297.1,288.7 296.9,289.2 296.6,289.7 296.9,289.9 296.9,290.2 
	296.4,290.2 296.2,290.7 295.7,292.6 295.7,292.8 295,294.3 294.7,294.5 294.5,295 294.2,295.2 294,295.7 294,295.9 293.8,296.9 
	293.8,297.1 293.5,297.6 292.3,300.5 291.8,302.2 291.4,303.1 291.4,303.4 291.4,303.6 290.9,303.9 290.6,304.3 290.6,304.6 
	290.4,304.8 289.9,305.5 289.7,305.8 289.9,305.8 290.2,305.8 290.4,305.5 290.4,306.3 290.2,306.3 290.2,306 289.9,306 
	289.4,306.3 289,306.5 289,306.7 288.7,307.5 288.2,308.4 287.8,308.9 287.5,309.1 287.3,309.4 287.3,309.6 287.3,309.9 
	287.3,310.6 287.3,311.1 287.5,311.3 287.5,311.8 287.3,312.3 287,312.5 287,312.7 286.8,313.5 286.8,313.9 286.6,314.7 
	286.6,315.1 286.6,315.6 286.6,315.9 286.8,316.1 287,316.3 287,316.6 287.3,316.8 287,317.3 286.8,317.8 286.8,318 286.6,318 
	286.8,318.7 286.8,319.5 286.8,320.7 286.8,321.1 286.8,321.4 286.6,321.6 286.6,322.1 286.1,322.8 285.8,323.3 285.6,324.3 
	285.6,324.7 284.9,325.9 284.4,326.4 284.2,326.4 283.9,326.7 283.2,327.4 283,327.9 282.7,328.3 282.7,328.6 282.7,329.3 
	282.7,329.5 282.7,329.8 282.7,330.3 283.2,330.7 283.4,331 283.7,331.5 283.7,331.7 284.2,332.9 284.4,333.6 284.6,334.3 
	284.6,335.1 284.6,336.3 284.4,336.5 284.2,336.7 283.9,337.5 283.7,337.7 283.9,338.7 283.9,339.1 283.9,339.6 283.9,340.6 
	283.7,340.6 283.4,340.8 283.4,341.1 283.7,341.8 284.2,342.5 284.6,343 284.9,344.2 285.1,344.4 285.1,344.9 285.4,345.1 
	285.6,345.4 285.8,345.6 286.1,345.6 286.6,347.3 287,348.7 287,349 287,349.2 286.8,349 286.6,348.3 286.1,349 286.3,349.2 
	286.6,349.2 286.8,349.7 287,349.7 287.5,350.7 288.2,351.6 288.7,351.6 289,351.1 288.7,350.7 289,349.5 289.7,349.2 289.9,349.2 
	290.2,349.5 290.4,349.7 291.1,350.4 291.6,350.2 291.8,349.9 292.1,350.2 292.3,350.7 293,350.7 293.5,351.1 293.8,350.9 
	294,350.7 294.5,350.7 294.5,350.9 295,351.4 295.2,351.9 294.7,351.4 294.2,350.9 294,350.9 293.8,351.1 293.5,351.4 292.8,350.9 
	292.6,350.9 292.3,350.7 291.8,350.4 291.1,350.4 290.9,350.4 290.4,350.2 289.7,350.4 289.2,350.7 289.7,351.9 289.9,352.3 
	290.2,352.8 290.2,353.1 290.2,353.3 290.2,353.5 290.2,353.8 290.4,354.7 290.6,355 290.6,355.2 290.4,355 288.7,353.3 289,353.1 
	289,352.8 289.2,352.6 289.2,352.1 289,351.9 288.7,351.9 288.5,351.9 288.2,352.1 288,353.3 288,353.5 287.8,353.8 288,354 
	288,354.3 288.2,354.3 288.2,355.2 288.2,355.7 288,355.9 288,356.2 288,356.4 288,356.7 288.7,358.3 289,358.6 289.4,358.8 
	289.4,359.1 289.7,359.1 289.9,359.1 290.4,359.1 290.6,359.1 290.6,359.3 290.9,360 290.9,360.5 290.9,361 290.4,361.7 
	290.2,361.9 289.9,361.9 289.7,361.7 289.4,361.9 289.4,362.7 289.4,362.9 289.4,363.4 289.4,363.6 289.4,364.1 289.7,364.8 
	289.9,365.1 290.4,365.5 291.4,367.2 291.4,367.5 291.4,367.9 291.4,368.2 291.6,368.7 291.8,369.1 291.8,369.4 292.1,369.9 
	292.6,370.3 293,371.5 293.3,372 293.8,372.3 294,373.2 293.8,373.5 293.8,373.7 293.8,373.9 293.8,374.2 293.8,374.4 294.2,374.9 
	294.5,374.7 294.7,374.9 295,375.1 295.2,375.6 295,376.1 294.7,377.1 294.7,377.3 294.5,378.5 294.5,378.7 294.2,379 294.2,379.2 
	294,379.5 294.2,379.7 294.5,379.7 294.7,380.2 295,380.2 295,380.7 295.2,380.7 295.7,380.7 296.4,380.9 297.1,380.9 297.8,381.1 
	299,381.9 300.2,382.1 300.5,382.1 300.7,382.3 301.2,382.8 301.4,382.8 301.9,383.5 302.2,384.3 302.4,384.7 302.6,385 
	302.9,385.2 303.6,385.7 303.8,385.9 304.6,386.2 304.8,386.4 305,386.2 305.5,386.4 305.8,386.4 306.5,386.4 306.7,386.7 
	306.7,387.1 307,387.1 307,387.4 307,387.6 307.2,388.3 307,388.6 307,388.8 307,389.1 307.4,389.3 307.7,389.3 307.7,389.1 
	308.2,389.1 308.6,389.3 308.9,389.3 308.9,389.5 309.1,389.8 309.1,390 309.4,390.3 309.6,390.3 309.6,390.5 309.8,390.7 
	310.1,390.7 310.1,391 310.6,391.5 311.3,392.2 311.5,392.4 312.2,393.4 312.5,394.1 313,395.1 313,395.3 313.2,396.5 313.2,397.2 
	313,397.5 312.7,397.7 313,398.2 312.7,398.7 312.7,398.9 313,398.9 313,398.7 313,398.4 313.2,398.4 313.4,398.9 313.7,399.1 
	313.7,399.4 313.4,399.4 313.2,398.9 313.2,398.7 313,398.9 313.2,399.1 313.4,399.9 313.4,400.1 313.7,400.1 314.9,400.1 
	316.1,400.3 317.5,400.3 319.2,400.6 321.6,400.8 323.5,400.8 325,401.1 326.2,401.1 327.4,401.3 328.3,401.3 329.3,401.3 
	329.3,401.5 328.8,402.5 328.6,403 330,403.7 331.4,404.4 333.1,405.4 334.6,406.1 335.5,406.8 337.7,407.8 339.6,409 340.8,409.5 
	343,410.7 344.4,411.4 346.6,412.6 349.9,414.3 352.3,415.7 357.4,416.2 357.6,416.2 360.3,416.4 362.6,416.7 365.8,417.1 
	367.2,417.1 367.7,417.1 371.5,417.6 371.5,417.4 371.5,416.7 371.5,415.9 371.5,415.5 371.5,414.7 371.8,414 372,414 373.7,414.3 
	375.1,414.3 375.6,414.5 375.9,414.5 376.3,414.5 376.8,414.5 377.3,414.5 377.5,414.5 378,414.5 378.3,414.5 378.7,414.5 
	378.7,414.7 379.2,414.7 382.3,415 382.8,415 383.1,415 383.1,415.2 383.3,415.2 383.5,415.2 383.8,415.2 384.3,415.7 384.5,416.2 
	384.5,416.4 384.5,416.9 385,417.6 385.5,417.9 385.9,418.1 386.2,418.1 386.4,418.3 387.1,419.1 387.4,419.3 387.6,419.8 
	387.9,420 388.1,420.3 388.8,420.7 389.1,421 389.3,421.5 389.5,421.9 390.3,422.7 391.2,423.1 391.7,423.4 391.9,423.6 
	392.4,424.1 392.9,424.6 393.1,424.8 393.4,425.1 393.6,425.5 393.6,426 393.9,426.5 394.1,427.2 394.6,427.7 394.8,428.2 
	394.8,428.4 394.8,428.9 394.6,429.1 394.6,429.6 394.8,430.1 395.5,432.3 396.3,433 396.5,433 397,433.5 397.2,433.5 397.5,433.7 
	397.7,433.7 397.9,433.9 397.9,434.4 398.7,434.9 398.9,435.1 399.1,435.1 399.4,435.4 399.9,435.4 401.1,436.1 402.5,436.8 
	402.7,437.1 402.7,437.3 403.2,437.5 403.5,437.5 403.9,437.8 404.9,438 405.6,437.3 406.3,436.6 406.8,435.9 407.1,435.1 
	407.5,434.2 408.5,432.3 409.2,432 409.7,432 410.7,431.3 411.1,431.1 411.4,431.3 411.6,431.5 412.3,431.8 412.6,431.8 
	412.8,431.8 413.1,431.8 413.8,431.8 414.3,431.8 414.7,432 415,432 415.7,432.3 416.2,432 416.9,432 417.1,432.3 417.4,432.7 
	417.4,433 417.9,433.5 418.3,433.9 419.1,434.4 419.3,434.4 419.5,434.7 419.8,434.9 420.3,435.4 421.2,436.1 422.2,437.3 
	422.4,438.3 422.4,438.5 422.4,438.7 422.7,439 422.9,439.2 423.1,439.7 423.4,440.4 423.4,440.7 423.4,440.9 423.9,441.1 
	424.1,441.6 424.3,442.1 424.6,442.8 424.6,443.1 424.8,443.8 425.1,444.3 425.5,444.5 426,444.7 426.3,444.7 426.5,445.2 
	427.2,446.2 427.2,446.4 427.7,446.9 427.7,447.1 427.7,447.6 427.9,447.9 428.2,447.9 428.4,448.1 428.7,448.3 428.7,448.6 
	428.9,448.6 428.9,448.8 429.4,448.8 429.6,448.8 430.1,449.3 430.3,449.5 430.6,450.3 430.8,451.9 430.6,453.6 431.8,454.8 
	432,455.1 432,455.3 432.3,455.3 432.5,456 433,457.5 433.2,458.2 434.2,458.4 434.4,458.7 435.4,458.9 435.9,459.1 436.1,459.4 
	436.8,459.6 437.1,459.6 438,459.9 438.3,460.1 438.5,460.3 439,460.8 439.7,461.1 440.7,461.3 440.9,461.1 441.4,461.1 
	442.1,461.1 442.6,461.1 443.3,461.3 443.5,461.3 443.8,461.5 444.3,461.8 444.5,462.3 445.2,462.7 445.7,462.7 445.9,462.5 
	445.7,462.3 445.9,462 446.4,461.8 447.1,461.5 447.4,461.5 447.1,461.3 447.1,461.1 447.1,460.8 446.9,461.1 446.9,461.5 
	446.7,461.5 445.9,460.3 445.9,460.1 445.9,459.9 445.9,459.4 445.5,458.7 445.2,458.7 445.2,458.2 445.2,457.2 444.7,455.8 
	444.7,455.3 444.5,455.1 444.3,455.1 444,454.8 444,453.9 444,453.6 444.7,453.4 445,452.7 445,451.7 444.7,451.7 444.3,451.9 
	443.5,451.7 443.3,451.5 443.3,451.2 442.8,450.5 442.6,450.3 442.8,450.3 443.3,450.7 443.5,450.7 443.5,451 444.3,450.7 
	444.5,451.2 445,451 445.2,450.5 445.9,448.6 445.7,448.1 445.2,447.6 444.5,447.1 444.3,446.9 444.5,446.9 445.5,446.9 
	446.4,447.1 447.6,445.5 447.6,445.2 447.6,445 447.1,445.2 446.9,445.5 446.7,445.2 446.4,445.2 446.7,444.5 447.6,444.3 
	447.6,444.7 447.9,444.7 448.3,444.7 448.6,444.7 449.3,443.8 449.3,443.1 449.1,442.6 448.8,442.6 449.1,442.1 449.5,442.3 
	449.8,442.6 449.8,442.8 450,443.1 450.3,443.3 450.5,443.1 451.9,442.1 451.2,441.6 450.7,441.1 450,440.4 450.3,440.2 
	450.5,439.9 450.7,440.2 450.7,440.4 450.7,440.7 451.2,440.9 451.7,440.9 451.9,440.9 452.2,440.7 451.9,440.7 451.7,439.9 
	451.5,439.7 451.9,439.9 452.9,440.2 453.4,440.2 453.6,440.7 453.4,440.9 453.9,440.9 453.9,440.7 454.1,440.7 454.3,440.7 
	454.6,440.4 454.8,440.4 454.8,440.7 454.6,440.9 454.8,440.9 455.1,440.7 455.1,440.2 456,439.7 456.5,439.7 456.7,439.7 
	457.2,439.5 459.1,438.3 459.4,438 460.3,437.1 460.8,435.9 462,434.9 462,434.7 462,434.2 462,433.9 461.3,433 460.8,431.8 
	461.3,431.8 461.5,431.8 462.3,431.5 462.5,431.3 463,431.1 463.2,431.3 463.2,431.8 463.2,432 463.2,432.3 463.2,432.5 463,432.7 
	463.5,433 464.2,432.7 464.9,432.7 464.7,433.2 463.9,433.2 463.5,433.5 463,434.2 462.7,434.4 463,434.4 463.2,434.2 463.5,433.9 
	463.7,433.7 463.9,433.7 465.1,433 465.9,432.5 467.3,431.8 467.5,431.8 467.8,431.5 468.7,431.5 469,431.5 468.7,431.1 
	468.7,430.8 468.5,430.8 468.3,430.6 469,429.1 469.5,429.1 497.8,429.1 498.3,428.4 499,427.7 499.2,427.7 499.2,427.9 
	499.5,427.9 499.5,428.2 499.9,427.2 499.5,426 498.7,425.8 498.3,426.7 498.3,427.2 498,427.5 497.8,427.5 497.5,427.5 496.6,427 
	496.3,426.7 496.3,426.5 496.6,426.3 496.8,426.3 497.1,426 497.5,425.5 497.3,425.3 497.1,425.5 496.6,425.8 495.1,426.5 
	494.4,426.7 494.2,426.7 493,426.5 492.5,426.3 492.3,426 492.3,425.8 492.3,425.5 493.5,424.1 493.5,423.9 493.7,423.9 
	494.4,424.1 494.7,424.1 495.1,424.3 495.1,424.8 496.3,424.8 497.3,425.1 498,425.3 498.5,425.1 499,425.1 499.7,423.9 
	499.9,423.9 500.4,423.6 501.9,422.9 501.9,422.7 502.8,422.7 503.3,422.9 503.5,423.1 503.8,423.1 504.5,422.9 504.7,422.9 
	505.2,423.1 505.5,423.1 505.9,422.7 505.9,422.4 506.2,422.4 507.4,422.7 507.4,422.9 507.6,422.9 507.9,422.4 507.9,422.2 
	507.9,421.7 507.9,421.2 507.9,420.7 508.1,419.8 508.6,420 508.8,420 509.1,420.5 509.1,420.7 509.1,421 508.8,421.2 509.1,421.9 
	509.3,422.2 509.8,422.2 510.3,422.7 510.3,422.9 509.5,423.1 509.3,423.1 509.1,423.1 508.6,423.4 510.3,423.1 510.5,423.1 
	511,422.9 511.5,422.7 512.2,421.9 512.4,421.5 512.4,421.2 512.4,421 512.9,421 512.9,421.2 512.4,421.9 512.2,422.4 511.9,422.4 
	511.9,422.7 512.4,422.4 513.1,422.2 513.4,422.2 513.4,421.9 513.6,421.7 514.1,421 514.1,420.7 514.1,420.5 514.6,420.3 
	515.1,420.3 515.5,420.5 515.8,420.7 515.3,421 515.3,421.2 514.8,421.2 514.6,421.2 514.1,421.5 514.6,421.5 514.8,421.5 
	515.5,421.2 515.8,421.2 516.7,420.7 517.2,420.7 517,421 516.7,421 516,421.2 515.1,421.5 514.3,421.7 513.4,421.9 513.6,421.9 
	513.9,421.9 514.1,421.9 514.8,421.7 515.3,421.5 516,421.2 517,421 517.7,420.7 517.9,420.7 518.7,420.3 518.9,419.8 520.1,419.8 
	"/>
        <polygon class="st0" points="600.5,286.1 600.3,286.1 600.3,285.9 600,285.4 600.3,284.9 600.3,284.7 600.5,284.7 600.7,284.4
	600.7,284.7 601.2,284.9 601.5,285.1 601.2,285.4 601,286.3 "/>
        <polygon class="st0" points="309.6,271 309.1,271.2 309.1,271.5 309.4,271.5 309.4,271.7 309.6,272.7 310.1,273.4 310.1,273.6
	310.1,273.9 309.8,274.1 309.6,274.1 309.1,273.4 309.1,273.1 309.1,272.7 308.6,271.5 308.6,271.2 309.4,270.3 309.8,270 
	309.8,270.3 310.1,270.7 310.1,271 309.8,271.2 309.6,271.2 "/>
        <polygon class="st0" points="307.4,268.8 307.2,268.8 307.2,268.6 307.2,268.1 307.4,267.9 307.7,267.9 307.9,268.3 308.2,268.6
	308.2,269.1 308.4,269.1 308.4,268.6 308.9,268.6 308.9,268.8 308.9,269.3 308.9,269.5 308.9,269.8 308.6,269.8 308.6,269.5 
	308.2,269.3 307.9,269.3 "/>
        <polygon class="st0" points="288.5,208.1 288.2,208.3 287.8,208.3 287.5,208.1 287.3,207.6 287.3,207.4 287.5,207.4 288.5,207.4
	288.5,207.6 288.2,207.9 288.5,207.9 "/>
        <polygon class="st0" points="284.2,195.1 283.9,195.1 283.2,194.6 283.2,194.4 283.4,193.9 283.7,193.4 283.9,193.4 284.2,193.7
	284.6,193.9 285.1,194.2 285.4,194.4 285.6,195.1 285.4,195.9 285.1,196.1 284.9,196.1 284.9,196.6 285.4,196.8 285.6,197.1 
	286.1,198.3 286.3,199 286.3,199.2 286.3,199.7 286.1,200.2 286.1,200.6 286.3,201.6 286.3,201.9 286.6,202.1 286.6,202.3 
	286.3,202.6 286.1,202.1 285.8,201.6 285.6,201.4 285.6,201.1 285.6,200.9 285.6,200.6 285.4,200.6 285.1,200.9 285.1,201.4 
	285.8,202.3 286.1,204 285.6,204 285.4,203.8 285.1,204 285.1,204.3 285.6,204.5 285.8,204.3 286.1,204.3 286.3,204 286.3,204.3 
	286.3,204.5 286.1,204.7 285.8,205.2 285.6,205.4 285.4,205.4 285.4,205.7 284.9,205.7 284.6,205.7 284.9,206.2 285.1,206.2 
	285.1,205.9 285.4,205.9 285.6,205.9 284.9,207.6 284.4,208.3 283.9,208.1 283.2,207.6 283.4,207.4 283.4,207.1 283.7,207.1 
	283.9,207.1 283.7,206.6 283.7,206.4 283.4,205.4 283.2,205.4 283.2,205.7 283,205.4 283,205.2 283.2,204.7 283.4,204.7 
	283.7,204.3 283.7,203.1 283.4,203.3 283.4,203.5 283.4,203.8 283.2,203.8 283,203.3 283,203.1 283,202.8 282.2,202.8 282,202.8 
	282,202.6 282.2,202.6 282.7,202.3 282.5,202.3 282.2,202.3 281.5,201.9 281.5,201.4 281.8,201.1 282.2,201.4 282.5,201.6 
	282.7,201.9 283,201.9 283.2,201.9 283,201.6 282.7,201.6 282.7,201.4 282.5,200.6 282.5,200.4 282.7,200.4 283.2,199.9 
	283.4,199.9 283.7,199.9 283.9,199.9 283.7,199.7 283.4,199.7 283,199.7 282.7,199.7 282.2,199.7 282,199.2 282,199 282.5,198.5 
	283,198.5 283.7,198 283.9,197.8 283.7,197.8 283.7,197.5 283.7,197.3 283.7,197.1 284.4,195.6 284.4,195.4 "/>
        <path class="st0" d="M289.4,203.3H289v1h0.2v-0.7L289.4,203.3z M291.8,200.6v0.5l0.2,0.5v0.2l-0.2,1.4l-0.2,0.5l-0.7,1.2l-0.7,0.7
	v0.2h-0.5v0.2l-0.2-0.2h-0.2v-0.5h0.2v-0.2h0.2l0.2-0.5l0.2-0.2h-0.5v0.5l-0.5,0.2h-0.5v-0.5h0.5l0.5-0.5l0.2-0.2l0.2-0.2l0.2-1.2
	h-0.2l-0.2,0.5v0.5l-0.2,0.2v0.2l-0.5,0.5h-0.5l-0.2,0.2h-0.2L288,204v-0.2l-0.2-0.7l0.7-0.2l0.2-0.7l0.2-0.5l0.5-0.2l0.2-0.5h-0.2
	l0.2-0.2h0.5l0.2-0.5h1.2v0.2h0.2L291.8,200.6z"/>
        <polygon class="st0" points="281,205.7 280.8,205.7 280.8,205.4 280.6,204.5 280.8,203.5 280.8,203.3 281.3,202.3 281.5,202.3
	281.8,202.3 281.8,202.8 281.8,203.3 281.8,203.5 281.5,203.8 281.5,205.2 281.8,205.4 281.8,205.7 281.8,205.9 281.8,206.4 
	281.8,206.9 281.5,207.1 281.5,207.4 281,206.9 281,206.4 "/>
        <polygon class="st0" points="287.8,205.4 288,205.2 288,205 288.2,205 288.5,205.2 288.5,205.4 288.7,205.4 288.7,205.7
	288.5,206.2 288.2,206.6 288.2,206.9 288,207.1 287,206.9 287,206.6 287,206.4 287.5,206.2 "/>
        <polygon class="st0" points="280.8,200.2 280.6,200.2 280.6,199.9 281,199.7 281.3,199.7 281.3,199.9 281.3,200.2 281.3,200.4
	281,200.4 "/>
        <polygon class="st0"
                 points="281.5,199.7 281.8,199.4 281.8,199.7 282,199.7 282.2,199.9 282,200.2 281.8,200.4 281.5,200.4 "/>
        <polygon class="st0" points="281.5,197.8 281.5,197.5 281.5,197.3 281.8,197.3 282,197.3 282.2,197.3 283,197.8 283.2,197.3
	283.4,197.3 283.4,197.8 283.4,198 283.2,198.3 283,198.3 283,198 282.7,198.3 282,198.3 281.8,198.3 281.5,198.3 281.5,198 "/>
        <polygon class="st0" points="286.8,197.1 286.8,197.3 286.6,197.3 286.6,196.8 286.6,196.6 286.6,196.3 286.8,196.1 287,195.9
	287.5,195.9 287.5,195.6 288,195.4 288.2,195.4 288.5,195.6 288.5,195.9 288.2,196.1 288,196.6 288.7,197.1 288.7,197.3 289,197.8 
	288.5,198 288.2,199 288,199 287.5,199 287.3,199 287,198.3 287.3,198 287.3,197.8 287.3,197.5 "/>
        <polygon class="st0" points="283.2,196.1 282.2,196.3 281.8,196.6 281.5,196.3 281.5,196.1 281.8,195.9 282.5,195.4 283,195.1
	283.2,195.1 283.9,195.1 284.2,195.4 284.4,195.6 284.2,195.6 283.9,195.9 283.4,196.3 "/>
        <polygon class="st0" points="288.7,196.1 288.7,195.9 289,195.4 289,194.9 289,194.6 289.2,194.6 289.4,195.1 289.4,195.4
	289.4,195.6 289.4,195.9 289.7,196.1 289.9,196.1 289.9,196.3 289.9,196.6 289.9,197.1 289.2,197.8 289,197.8 289,197.5 289,197.3 
	288.7,197.1 288.5,196.8 288.5,196.6 288.5,196.3 288.5,196.1 "/>
        <polygon class="st0" points="280.1,195.9 279.8,195.9 279.6,195.9 279.4,196.1 279.1,195.9 279.4,195.4 279.4,195.1 280.1,195.6
	280.3,195.6 "/>
        <polygon class="st0" points="287.8,194.4 287.8,194.6 287.8,194.9 287.3,195.6 287,195.6 286.8,195.6 286.6,195.6 286.3,195.6
	286.1,195.4 285.8,194.6 285.8,194.4 286.3,193.9 286.8,193.9 287,193.9 287.5,194.2 287.8,194.2 "/>
        <polygon class="st0" points="283.7,188.4 283.4,188.4 283.4,188.2 283.7,188.2 283.9,188.4 284.2,188.9 284.2,189.6 284.2,190.1
	283.9,190.3 283.4,190.6 283.2,190.6 283.4,190.8 283.7,190.6 283.9,190.3 284.2,190.3 284.2,190.1 284.4,190.1 284.4,189.8 
	284.9,190.1 284.9,190.3 284.4,191.1 284.4,191.5 283.9,191.8 283.9,191.5 283.9,191.3 283.7,191.1 283.4,191.1 283.4,191.8 
	283,192.3 282.7,193 282.7,193.4 282.5,193.4 282.5,193.2 282.5,192.7 282.2,192.7 282.2,193 282.2,193.2 282,193.2 282,193.4 
	282.2,193.4 282.2,193.7 282.2,193.9 281.8,194.4 281.5,194.6 281.3,194.6 281.3,194.4 281.5,193.9 281.8,193.2 282,193 281.8,193 
	281,194.2 280.8,194.4 280.6,194.9 280.6,195.1 280.3,195.1 280.3,194.9 280.3,194.4 280.8,193 281,193 281.3,192.7 281,192.5 
	281,192.3 281.5,191.8 281.8,191.8 282,192.3 282,192.5 282.2,192.5 282.2,192.3 282.5,191.5 282.7,191.3 282.7,191.1 282.5,191.3 
	282.2,191.1 281.8,190.8 282,189.4 282.5,188.6 282.5,188.4 283,188.2 283.2,188.2 283.2,188.4 283.4,188.4 283.4,188.9 
	283.7,188.9 283.7,188.6 "/>
        <polygon class="st0" points="287,193.4 287.3,192.7 287.5,192.7 287.5,192.5 287.8,192 288,191.8 288.2,191.5 288.5,191.8
	288.5,192.3 288.7,192.7 288.7,193 288.7,193.4 289,193.4 288.7,193.7 288.5,193.7 288,193.9 287.5,193.9 287,193.7 "/>
        <polygon class="st0" points="287.8,189.6 288.2,189.6 288.2,189.8 288.2,190.3 288.2,191.1 287.8,191.8 287.5,192.5 287.3,192.5
	287.3,192.7 287,192.7 286.8,192 286.8,191.5 286.8,191.3 286.8,191.1 286.8,190.8 286.6,190.3 286.3,191.1 286.3,191.3 286.3,192 
	286.6,192.3 286.8,192.5 286.6,193 286.1,193.4 285.8,193.4 285.4,193.2 284.9,193 284.6,193 284.4,193 284.2,193 283.9,192.7 
	283.9,192.5 284.2,192 284.6,191.5 284.6,191.3 284.4,191.1 284.6,190.8 284.9,190.3 285.1,190.1 285.1,189.8 284.9,189.8 
	284.6,189.1 284.9,189.1 284.9,189.4 285.1,189.4 284.9,188.6 284.6,187.9 284.9,187.7 285.4,187.7 285.6,187.7 285.8,187.9 
	286.3,188.4 286.6,188.6 286.8,188.9 287.3,189.4 "/>
        <polygon class="st0" points="279.6,182.9 279.6,182.6 279.8,182.4 279.8,182.6 280.1,182.9 280.3,182.9 280.3,182.4 280.8,181.7
	281.3,181.7 281.5,181.7 282,182.6 282.2,183.6 282.5,183.8 282.5,183.4 282.7,183.4 283,183.4 283.2,183.6 283,183.8 283,184.1 
	283,184.3 282.7,184.6 282.7,184.3 282.5,184.1 282.5,184.8 282.2,185.5 282,185.8 281.8,187 281.5,187.7 281.3,188.4 281.3,188.9 
	281,189.4 280.8,189.8 280.8,190.1 280.6,190.3 280.3,190.8 279.8,191.3 279.4,192.3 278.9,193 278.9,192.3 278.9,191.3 
	278.9,190.1 278.9,189.6 279.1,189.4 279.1,189.1 279.6,189.1 280.1,188.9 280.1,188.6 279.1,188.9 278.9,189.1 278.9,188.9 
	278.9,188.2 279.1,187.9 279.6,187.2 279.4,187.2 279.1,187.2 278.9,187.4 278.9,187.2 278.6,186.7 279.4,186 279.6,185 
	279.8,184.8 279.8,184.3 280.1,184.3 280.6,183.8 280.1,183.6 279.8,183.6 279.6,183.4 279.6,183.6 279.1,184.3 278.9,184.6 
	278.4,185 278.2,185 277.7,184.8 277.9,184.1 278.2,184.1 278.4,184.1 278.6,184.1 278.6,183.8 278.4,183.6 278.9,182.4 
	279.1,182.6 279.4,182.6 "/>
        <polygon class="st0" points="287.3,178.8 287.5,179 287.5,179.3 287.8,179.3 288.2,179.3 288.2,179.5 288.2,179.8 288,180.2
	288,180.7 288,181.4 288,182.4 287.8,182.9 287.5,183.4 287.5,183.6 287.3,183.4 287.5,182.9 287.5,182.6 287.5,181.9 287.5,181.7 
	287.5,181 287.8,180.7 287.8,180.5 287.8,180 287.5,179.8 287.3,180.2 286.8,181.4 287,181.9 287,183.4 287,184.1 286.8,184.3 
	286.8,184.6 286.8,184.8 286.8,185 286.3,184.6 286.1,184.6 286.3,184.8 286.6,185.3 286.6,185.8 285.8,186 285.6,185.5 285.4,185 
	285.4,185.8 285.4,186 284.6,186.5 283,187 282.5,187 282.5,186.7 282.7,186.2 283.2,185.3 284.2,184.6 284.4,185 284.6,185 
	284.6,184.8 284.6,184.6 284.4,184.6 284.2,184.1 284.2,183.6 284.4,183.6 285.4,183.6 285.1,183.4 284.9,183.4 284.6,183.4 
	284.4,183.4 284.4,183.1 284.4,182.9 284.4,182.6 284.6,181.7 284.6,181.4 284.9,181.2 285.1,181 285.8,178.8 285.8,177.8 
	285.8,177.1 286.1,176.6 286.3,176.4 286.6,177.4 286.6,178.1 286.3,178.6 286.6,178.6 286.8,178.6 287,178.6 "/>
        <path class="st0" d="M282,175.9l0.7-0.2v0.2h0.2l0.2,0.7l0.2,0.5l-0.2,0.5l-0.7,0.2v-0.2h-0.2l-0.2-0.2v1h0.2l0.2-0.2h0.2l0.2-0.2
	l0.5-0.2l0.2-0.2l1,1l0.2,0.7v0.5l-0.2,0.5h-0.5l-0.5-0.7v0.5l0.2,0.2v0.5l-0.2,0.2l-0.2-0.2H283v-0.2h-0.2v-0.5l-0.5-1l-0.5-0.5
	l-0.2-0.5v-0.2h-0.2l0.2,0.7v0.2l0.2,0.2l0.2,0.2l0.5,0.7v0.7l0.2,0.2h0.5l0.2,0.2h0.5v0.2l-0.2,1.2l-0.5,1l-0.7-0.2l-0.2-0.2v-0.5
	l-0.2-0.7l-0.5-0.7l-0.2-0.5v-0.2L281,180v-0.5h-0.2l-0.2,1l0.2,0.5v0.5l-0.2,0.5l-0.5,0.2l-0.5,0.2h-0.2l-0.2-0.5v-1.2l0.2,0.5v0.5
	h0.2v-0.5l-0.2-0.2v-0.2l-0.2-0.2V180l0.2,0.2h0.2V180l-0.2-0.2v-0.5l-0.2-0.5l-0.2-1h-0.2l0.2-0.2h-0.2v-0.7l0.2-0.2v-0.5l0.2-0.2
	h0.5v0.5l0.2,0.2h-0.2v0.2h0.2v0.5l0.2,1h0.2l-0.2-0.2v-0.7l-0.2-1v-0.7l0.7-0.5l0.2,0.2v1l0.2-0.7h0.2l0.5,0.2L282,175.9z
	 M279.4,176.9l-0.2,0.5l0.2-0.2V176.9z"/>
        <polygon class="st0" points="287.5,178.6 287.3,178.6 287,178.3 287,178.1 286.8,177.8 287,177.6 287.5,177.6 287.8,177.6
	287.8,177.8 288,179 287.8,178.8 "/>
        <polygon class="st0" points="286.1,165.6 286.3,165.4 286.8,165.4 286.8,165.6 287,165.6 287.3,165.6 287.8,165.6 288.2,165.6
	289.7,165.6 289.9,165.6 290.2,166.3 290.4,167.3 290.4,167.5 290.6,167.5 290.6,168 290.4,168.2 290.4,168.5 290.2,168.7 
	289.9,168.7 289.7,169 289.7,170.2 290.4,170.6 290.6,170.9 290.4,171.1 290.4,171.4 290.6,171.8 290.9,172.1 290.9,172.8 
	290.9,173.5 290.6,173.8 290.6,174.5 291.1,175 291.6,175.9 291.6,176.2 291.6,176.9 291.8,177.8 292.1,178.6 292.1,179 
	291.8,179.3 291.8,180 291.8,180.2 292.1,180.7 292.1,181 292.1,181.4 292.1,181.9 291.8,182.2 291.8,182.4 291.8,182.6 
	291.8,182.9 292.1,183.1 292.1,183.4 292.1,183.8 292.1,184.3 292.1,184.6 292.1,184.8 291.8,185 292.1,186.2 292.1,187.2 
	292.1,187.4 292.1,187.7 292.3,188.2 292.3,188.4 292.1,189.6 291.8,189.8 291.4,190.3 291.8,190.6 292.3,191.3 292.1,191.8 
	291.6,192 291.4,192.3 292.1,193.2 291.8,193.7 291.6,194.6 292.6,195.1 292.8,195.1 293.3,196.1 293.5,196.3 293.5,196.6 
	293.8,196.8 293.8,197.1 294,197.5 294.5,197.8 294.7,198 295,198.3 295.2,198.5 295.2,199.2 295.4,199.4 295.7,199.4 295.9,199.7 
	295.7,199.9 295.9,200.6 296.4,201.1 296.9,201.1 296.9,201.4 296.9,201.9 296.6,202.8 296.4,202.8 295.9,203.3 295.7,203.3 
	295.4,203.5 295,205.2 294.7,206.6 294.7,207.4 294,207.6 293.8,207.9 293.5,208.1 293,208.6 292.8,208.8 292.6,209.1 291.8,209.5 
	291.1,209.8 290.6,210 289.9,210 290.2,209.8 290.2,209.3 290.4,208.6 290.2,209.1 290.2,209.3 289.9,209.5 289.7,209.8 
	289.4,209.8 289.4,209.5 289.2,209.5 289.2,209.1 289.4,208.8 289.7,208.3 289.7,208.1 289.7,207.9 289.4,207.9 289.9,207.4 
	290.6,207.4 291.1,207.4 292.1,206.9 292.8,206.2 292.6,206.2 292.3,206.4 292.1,206.6 291.8,206.9 291.1,207.4 290.9,207.1 
	290.4,207.1 290.2,207.1 289.9,207.1 289.7,206.6 289.9,206.2 290.2,206.2 290.9,205.7 291.1,205.9 291.4,205.9 292.1,206.2 
	292.1,205.7 291.8,205.9 291.1,205.7 291.1,205.4 291.4,205 291.8,204.3 291.8,204 292.1,203.8 292.1,203.5 292.3,202.8 
	292.3,202.6 292.3,201.6 292.1,200.9 292.1,200.6 292.1,200.2 292.3,200.2 292.6,200.2 292.8,199.9 293.3,199.7 292.8,199.7 
	292.6,199.9 292.3,199.9 292.1,199.9 291.4,200.2 291.4,199.7 290.9,199.9 290.6,199.9 289.4,199.9 289.4,200.2 289.2,199.9 
	289,199.9 288.7,199.9 288.7,200.2 289,200.2 289,200.4 289.2,200.4 288.5,201.6 288.2,201.6 287.5,202.3 287.3,202.6 287,202.1 
	286.8,201.9 286.8,201.6 286.8,201.4 287,200.4 287.5,199.9 287.8,199.9 288,199.9 288.2,199.7 288.5,199 288.7,199 288.7,199.2 
	289,199.2 289.2,198.7 289.2,198.5 289.2,198.3 289.7,197.5 290.4,197.8 290.4,197.5 290.2,197.3 289.9,197.1 290.2,196.6 
	290.2,196.1 289.9,196.1 289.9,195.9 289.7,195.4 289.4,194.4 289.4,194.2 289.7,193.9 289.9,193.7 289.7,193.7 289.4,193.7 
	289.2,193.7 289,193.4 289,193.2 289.2,192.7 289.4,192.7 289.7,192.5 289.9,192.5 290.4,192.3 290.2,192.3 289.9,192.3 
	289.7,192.3 289.4,192.5 289.2,192.3 289.2,192 289,191.8 288.7,191.3 288.7,190.6 289,190.3 289.2,190.6 289.2,190.3 289.4,189.6 
	289.2,189.6 289,189.8 288.2,189.1 288.2,188.6 288.5,188.4 288,188.6 287.8,188.6 287.5,188.6 287.5,188.4 287.5,188.2 
	287.3,188.2 287.3,187.7 287.3,187.4 287.5,187.2 287.8,187 288.2,187.2 288.2,187.4 288.5,187.4 289.2,187.4 289.4,187.2 
	289.2,187.2 288.7,187.2 288.2,187 288.2,186.7 288,186.5 288.2,185.5 288.7,185 289,185 289.2,185 289,184.8 288.7,184.8 
	288.5,184.8 288.2,184.6 288.2,184.1 288.5,183.6 289,183.8 289.9,185.5 289.9,185.8 289.9,186 290.2,186 290.4,186 290.2,185.3 
	289.9,185 289.7,184.6 289.4,184.3 289.2,183.6 289.2,183.4 289.4,182.9 289.7,182.4 290.2,182.6 290.6,183.1 291.1,183.4 
	290.9,183.1 290.2,182.4 289.9,182.2 289.7,182.2 289.4,182.2 289.2,182.4 289.2,182.9 289,183.1 288.7,183.1 288.7,182.9 
	288.7,181.9 289,181.4 289.4,181.2 289.9,180.7 290.2,180.5 289.7,180.5 289.2,181 289,181.2 288.7,181.2 288.5,181.2 288.5,181 
	288.5,180.7 288.5,180.2 288.5,180 288.7,179.5 289.2,179 289.7,178.6 289.7,178.1 290.4,177.6 290.6,177.4 290.6,177.6 
	290.9,177.6 291.1,177.6 290.9,177.4 290.6,177.4 290.4,177.4 289.7,178.1 289,179 288.5,179.3 288.2,179 288,178.3 287.8,177.6 
	287.8,177.4 287.5,177.4 287.3,177.4 287,176.9 287,176.4 287.3,176.4 287.3,174.7 287.5,174.5 287.8,173.8 288,173.5 287.8,173.5 
	287.5,173.5 287.3,173.8 287.3,173 287.5,172.8 288.2,170.9 288.2,170.2 288.2,169.9 288.2,169.7 288.5,169.2 288.7,169 
	288.7,168.7 289,168.2 288.5,168.7 288,169.2 288,169.4 288,169.9 288,170.2 287.8,170.9 287.8,170.6 287.8,170.4 287.8,170.2 
	287.8,169.9 287.8,169.7 287.5,169.7 287.3,169.4 287.3,170.4 287.3,170.9 286.8,171.6 286.8,172.6 286.6,173.5 286.6,174.2 
	286.3,174.5 286.1,175 285.8,175.9 285.8,176.2 285.8,176.6 285.6,176.9 285.1,177.4 284.9,177.4 284.4,177.1 284.4,176.9 
	284.4,176.6 284.4,176.4 284.4,175.9 284.6,175.7 284.6,175 283.9,175.2 283.4,175 282.7,174.7 283.2,174.5 283.4,174.2 
	283.7,173.8 283.7,173.3 283.7,172.8 283.9,171.4 284.6,171.4 284.9,171.4 285.1,171.4 284.6,171.1 284.4,171.1 284.4,170.6 
	284.4,170.2 284.6,170.2 284.4,169.9 284.2,170.6 283.9,171.1 283.9,171.4 283.4,171.6 283.2,171.8 283,171.6 282.5,170.6 
	282.5,169.9 282.5,169.4 282,169.7 282,169.4 281.8,168.7 281.5,168 281.8,167.8 282,167.8 282.2,167.8 282.7,167.8 283,167.8 
	283.4,168 283.4,168.2 283.7,168 284.2,167.8 284.4,167.5 284.6,166.8 284.9,166.6 285.1,166.1 285.4,166.6 285.8,166.6 
	286.1,166.3 286.3,165.8 "/>
        <polygon class="st0"
                 points="280.3,174 280.3,173.8 280.6,174 280.8,174 280.8,174.2 281,174.2 280.8,174.5 280.3,174.2 "/>
        <polygon class="st0" points="212.2,145.7 211.9,145.7 211.7,145.7 211.7,145.4 211.7,145.2 211.7,145 211.9,145 212.2,145
	212.2,144.7 212.4,145 212.9,145.2 212.9,145.4 212.6,145.4 212.4,145.7 212.6,145.7 212.9,145.9 213.1,146.2 213.1,146.4 
	212.6,146.4 212.4,145.9 212.2,145.9 "/>
        <polygon class="st0" points="218.6,145 217.9,145 217.7,145.2 217.4,145 217.4,144.5 217.4,144.2 218.6,143.8 218.9,144
	218.9,144.2 219.4,144.7 219.6,144.7 219.6,145.2 219.4,145.2 "/>
        <polygon class="st0" points="210.2,144.2 210.5,144 210.7,144.2 211,144.2 211.2,144 211.4,144.2 211.2,144.5 211,144.7
	210.7,144.7 210.5,144.7 210,144.7 209.8,144.7 209.5,144.7 209.5,144.5 209.8,144.5 209.8,144.2 210,144.2 "/>
        <polygon class="st0" points="220.1,139.4 219.8,139.4 219.6,139.2 219.6,139 219.6,138.7 219.8,138.5 220.1,138.2 220.3,138.2
	221,138.2 221.3,138.2 221.3,138.7 221.3,139.2 220.8,139.7 220.6,140.2 220.6,140.4 220.3,140.6 221.5,140.4 221.5,139.9 
	221.5,139.7 221.5,139.4 221.8,139.4 222.2,140.4 222.5,140.2 222.7,139.9 222.7,140.4 223,140.4 223,139.7 223,139.4 223,139.2 
	223,139 223.2,139 223.2,139.2 223.4,139.7 223.4,139.9 223.7,139.9 223.9,140.2 223.9,140.4 223.9,140.6 223.7,140.6 223.2,140.9 
	223,141.4 222.7,141.6 223,141.6 223.2,141.1 223.4,141.1 223.7,140.9 224.2,141.1 224.6,141.1 224.9,141.1 224.9,141.4 
	224.9,141.6 225.1,142.3 224.9,142.6 224.6,142.6 224.4,142.6 224.2,142.6 223.7,142.6 223.4,143.5 223.7,143.5 223.9,143.5 
	224.4,144 224.4,144.2 223.9,144.5 222.7,145 222.2,144.2 222,143.8 222,143.3 221.5,142.8 221,142.8 220.8,143 221,143 
	221.5,143.3 221.5,143.5 221.8,144.2 221.8,144.5 221.3,144.7 221,145 220.8,145 220.3,144.5 220.3,144.2 220.6,144 219.8,143.3 
	219.6,143.5 219.8,143.8 220.1,144 219.8,144.2 219.4,144.2 219.1,144 218.9,143.8 218.6,143.8 218.2,143.8 217.9,143.8 217.2,144 
	217.2,143.8 217,143.8 216.5,143.5 216.7,144 216.5,144.5 216.2,144.5 216,144.5 215.5,144.7 215,144.7 214.3,144.7 214.1,144.7 
	213.8,144.7 213.4,144.2 213.8,144 214.3,144 215,143.8 215.3,143.8 215.3,144 215.8,143.8 216,143.5 216,143.3 215.8,143.5 
	215.5,143.5 215.3,143.5 215.5,143.3 216,143 216.5,143 217,143 216.7,142.8 215.8,142.8 215.5,142.8 215.3,143 215,143 214.8,143 
	214.8,142.8 215,142.8 215.3,142.6 215.5,142.6 215.8,142.3 215.8,142.1 215.8,141.8 215.5,141.6 215.3,141.4 215,141.4 
	214.6,141.1 214.6,140.9 214.8,140.4 215,139.9 214.8,139.4 214.6,139.4 214.6,139.2 215.5,138.5 216.2,138.2 216.5,138.2 
	217,138.2 217.9,138.2 218.4,138.2 218.4,138.5 218.9,139 218.9,139.2 218.4,140.2 218.2,140.4 218.2,140.6 217.9,140.6 
	217.9,140.9 217.9,141.6 217.9,141.8 218.2,141.1 218.9,140.2 219.4,139.4 219.8,139.7 219.8,140.2 220.1,140.2 219.8,140.4 
	220.1,140.4 220.1,140.2 220.1,139.9 220.1,139.7 "/>
        <polygon class="st0" points="215.8,142.1 215.5,142.3 215,142.8 214.8,142.8 214.6,143 213.8,143.3 213.6,143.3 213.8,142.8
	213.8,142.6 213.8,142.3 213.8,142.1 213.6,141.6 213.8,141.6 214.1,141.4 214.3,141.4 214.3,141.6 214.6,141.8 214.8,141.8 
	215,141.6 215.3,141.8 "/>
        <polygon class="st0" points="256.1,139.9 255.8,139.9 255.6,139.9 255.6,139.7 255.8,139.4 256.1,139.4 256.6,139.2 256.8,139.4
	257,139.7 257,139.9 257,140.2 257,140.4 257.3,140.4 257.5,140.4 257.8,140.4 257.8,140.6 257.8,140.9 257.3,140.9 256.8,140.6 
	256.6,140.6 256.3,140.6 256.1,140.6 255.8,140.6 255.4,140.9 255.4,140.6 255.4,140.4 255.6,140.2 255.8,140.2 256.1,140.2 
	256.3,140.2 "/>
        <polygon class="st0" points="225.1,138.5 225.1,138.2 225.1,138 225.1,137.8 225.6,137.5 225.6,137.8 226.1,138.5 226.8,137.8
	226.8,137.5 227.3,137.5 227.8,137.5 228,138 227.8,139 228.2,138.7 228.5,138.7 229,140.2 228.7,140.6 228.2,140.9 227.8,140.9 
	227.5,140.9 227.3,140.6 227.5,140.4 227.5,140.2 227.8,139.9 227.5,139.9 227,139.9 226.8,140.4 227,140.4 226.8,140.6 
	226.3,140.4 226.1,140.2 225.8,139.9 225.6,140.2 225.4,140.2 225.1,140.2 224.6,140.2 224.4,139.9 224.4,139.7 224.2,139.4 
	224.2,139.2 224.2,139 224.2,138.7 224.2,138.5 224.2,138 224.4,137.8 224.6,137.8 224.9,138.2 224.9,138.5 225.1,138.7 "/>
        <polygon class="st0" points="257.3,139.9 257.5,139.7 257.8,139.7 258,139.9 258.5,139.9 259,139.9 259.2,139.9 259.9,140.2
	259.7,140.4 259.4,140.4 259,140.4 258.2,140.4 258,140.4 257.5,140.2 "/>
        <polygon class="st0" points="251.8,137.5 252,137.3 252.2,137 252.7,136.8 253,136.6 253.4,136.6 253.4,137 253.2,137.3 253,137.3
	252.7,137.3 252.7,137.5 253,137.5 253,137.8 252.7,137.8 251.8,138.5 251.5,138.7 251.3,138.7 251.3,138.5 251.3,138 "/>
        <polygon class="st0" points="228,137.3 228,137 228.5,137 229,137.3 229.2,137.3 229.4,137.3 229.2,137.5 229,137.8 228.5,138
	228.2,138 228,138 228,137.8 228,137.5 "/>
        <polygon class="st0" points="185.8,137 185.8,136.8 186,136.6 186.5,136.6 186.5,136.8 186.5,137 187,136.8 187.2,136.8
	187.4,136.6 187.7,136.6 187.9,136.3 187.9,136.6 187.7,136.8 187.4,137.3 187.2,137.5 186.7,137.5 186,137.5 185.3,137.5 
	184.8,137.5 184.6,137.8 184.3,137.8 184.6,137.5 184.8,137.5 185,137.3 185.5,137.3 "/>
        <polygon class="st0" points="203.5,137 203.3,137 203,137 202.8,136.8 202.8,136.6 203,136.6 203.3,136.6 203.5,136.8 203.8,137
	203.8,137.3 203.5,137.3 "/>
        <polygon class="st0" points="201.4,134.9 201.4,135.1 201.1,135.4 200.6,135.4 200.6,135.1 200.4,134.4 200.6,134.4 200.9,134.6
	201.1,134.6 201.4,134.6 "/>
        <polygon class="st0" points="199.4,133.9 199,133.9 199,134.2 198.2,134.2 198,134.2 197.8,134.2 197.5,134.4 197.3,134.4
	197.5,134.9 197.5,134.6 197.8,134.4 198,134.4 198.2,134.4 198.5,134.4 198.5,134.9 198.7,135.6 198.5,135.6 198.2,135.6 
	198,135.6 197.8,135.8 198,135.8 198,136.1 197.5,135.8 197.5,135.6 196.8,135.8 196.6,136.1 196.3,136.3 196.1,136.3 196.1,135.8 
	196.6,135.6 197,135.4 197.3,135.4 197.3,135.1 197,134.9 196.3,135.4 195.8,135.8 195.8,136.1 195.4,136.1 195.1,135.8 
	195.4,135.8 195.6,135.6 195.4,135.6 195.4,135.4 195.1,135.4 194.9,135.4 194.4,135.6 194.2,135.4 194.2,135.1 193.9,134.9 
	193,134.6 192.2,134.4 192,134.6 191.8,134.9 191,135.1 191,135.4 190.6,135.4 190.3,135.4 190.1,135.4 190.3,134.9 190.8,134.6 
	191.8,134.2 191.8,133.9 191.8,133.7 215.3,133.9 215,133.9 213.8,134.6 213.4,135.1 213.4,134.9 213.1,134.9 213.1,134.6 
	212.6,134.4 212.2,134.4 211.9,134.9 211.7,134.9 211.7,134.6 211.7,134.2 211.4,134.2 209.8,134.2 209.5,134.4 210,134.6 
	210.2,134.6 210,134.9 209.3,135.6 209,135.6 208.6,135.8 207.6,136.1 207.4,135.6 207.1,135.6 206.4,135.6 206.4,135.4 
	206.4,135.1 205.9,135.4 205.2,135.6 204.5,135.6 204.5,135.1 204.5,134.9 204.5,134.6 204.5,134.4 204.2,134.4 203,134.9 
	203,135.1 203,135.4 203,135.6 202.8,135.6 202.1,135.1 202.3,134.9 202.3,134.6 202.3,134.4 202.1,134.4 201.8,134.2 201.6,134.4 
	201.4,134.4 200.9,134.2 200.6,134.2 200.4,134.4 200.2,134.4 200.2,134.6 199.9,134.6 199.7,134.6 199.7,134.4 199.7,134.2 "/>
        <polygon class="st0" points="186.2,133.9 186,134.2 185.5,134.6 185.8,134.9 185.5,135.1 185.3,135.1 185,134.9 184.8,134.6
	184.3,134.4 184.6,133.9 185,133.4 185.5,133.2 185.8,133 186,133 186.2,133.2 186.2,133.4 186.7,133.7 186.5,133.9 186.5,134.2 "/>
        <polygon class="st0" points="174.5,132.5 174.2,132.5 174.2,132.2 174.5,132 174.5,131.8 174.7,131.8 175,131.8 175,132
	175.2,132.7 175,133 174.7,133.2 174.5,133 "/>
        <polygon class="st0" points="169.2,124.6 169.4,124.1 169.7,124.1 170.2,124.3 170.4,124.6 170.6,124.6 170.9,124.6 171.4,124.3
	172.3,124.1 172.6,123.8 172.8,123.8 173.3,124.1 173.3,124.3 173.3,124.6 173.5,124.8 174.5,125 174.7,125 175,125 175.2,125 
	175.7,125.3 176.2,126.2 175.9,127.2 175.7,127.2 175.7,127.4 175.4,127.7 175.2,127.9 175.2,128.2 175,128.4 175,128.6 
	175.2,128.9 175.4,128.9 175.4,129.1 175.2,129.8 175,129.6 174.7,128.9 174.2,128.6 173.8,128.6 173.3,128.4 173,128.2 173,127.9 
	172.8,127.7 172.3,127 172.1,126.7 171.8,126.7 171.6,126.5 171.4,126.5 171.1,126.5 170.9,126.5 170.6,126.7 170.4,126.7 
	170.2,126.7 169.9,126.7 169.7,126.7 169.2,126.2 168.7,125.8 168.7,125.5 168.7,125.3 "/>
        <polygon class="st0" points="166.1,126.7 165.8,126.7 165.8,126.5 165.6,126 165.8,126 166.1,126 166.3,126.2 166.3,126.5
	166.6,126.7 166.6,127 166.3,127 "/>
        <polygon class="st0" points="159.1,121.7 158.9,121.7 158.6,121.7 158.9,120.7 159.1,120.7 159.6,120.5 160.1,120.5 161,121.2
	161.3,121.4 161.5,121.7 161.3,121.7 161.3,121.9 161,121.9 160.8,122.2 160.6,122.4 160.3,122.6 161,122.9 161.5,122.6 
	161.8,122.6 162,122.6 162.2,123.1 162,123.6 161.5,123.6 160.6,123.4 160.3,123.1 159.6,123.4 159.6,123.6 159.8,123.6 
	160.3,123.6 160.8,123.8 160.8,124.1 160.6,124.1 160.6,124.3 160.6,124.6 160.3,124.6 160.1,124.6 159.8,124.3 159.1,124.1 
	158.4,124.3 158.2,124.3 157.4,124.3 157.2,124.1 157,123.6 156.2,123.1 155,122.6 154.6,122.6 154.3,122.4 153.8,122.2 
	153.8,121.7 153.8,121.2 154.6,121.2 155,121.7 155.3,121.9 155.5,121.7 155.8,122.2 156,122.4 156.5,122.6 157.2,122.6 
	157.2,122.4 157.4,121.9 157.7,121.9 157.9,122.2 157.7,122.2 157.7,122.4 157.9,122.2 158.2,121.9 158.4,121.9 158.9,122.4 
	158.6,122.9 159.1,122.9 159.4,122.6 "/>
        <polygon class="st0" points="163.4,123.6 163.2,123.6 163.2,123.4 163.4,122.9 163.9,122.6 164.4,122.6 164.6,122.9 164.6,124.3
	164.4,124.3 164.2,124.3 163.9,124.3 163.9,124.1 163.4,124.1 163.7,123.8 "/>
        <polygon class="st0" points="148.8,119.5 149.8,119.3 149.8,119 150,119 150,118.8 150.2,118.6 150.7,118.6 151.7,118.6
	151.7,118.8 151.7,119 151.9,119.5 152.2,119.5 152.4,119.5 152.6,119 153.1,118.6 153.6,118.6 154.3,118.6 154.8,119 155,119.3 
	155,120 155,120.2 154.3,120.7 154.1,120.7 152.9,120.5 152.6,120.2 152.4,120.2 152.4,120 152.2,120 151.9,120 151.7,120 
	151.2,120.2 150.5,120.2 150.2,120.2 149.8,120 148.6,119.8 147.6,119.5 147.6,119.3 147.8,119.3 148.3,119.3 148.6,119.5 "/>
        <polygon class="st0" points="145.4,116.4 145.2,116.4 145,116.4 145,116.2 145.2,115.9 145.4,115.9 145.9,116.2 146.2,116.4
	146.2,116.6 146.2,116.9 145.9,117.1 145.7,117.4 145.4,117.4 145.4,117.1 "/>
        <polygon class="st0" points="141.8,114.5 141.6,114.5 141.4,114.5 141.4,114.2 141.6,114 141.8,114 142.3,114 142.8,114.2
	142.8,114.5 142.8,114.7 142.6,114.7 142.1,115 141.8,114.7 "/>
        <polygon class="st0" points="207.1,113.8 207.4,113.8 207.4,113.5 207.6,113.8 205.4,114.5 205.2,114.5 205,114 205.2,113.8
	205.4,113.3 205.9,113.3 206.4,113.3 206.4,113.5 206.6,113.5 206.9,113.5 "/>
        <polygon class="st0" points="130.8,105.4 130.8,105.1 131,104.4 131,104.2 131.5,105.4 131.8,105.4 132,105.6 132,105.8
	132.2,105.8 132.2,106.1 132,106.3 132.2,106.8 132.5,107 132.5,107.3 132.7,107.3 132.7,107.8 133,107.8 133.2,108.2 133.2,108.7 
	133,108.5 132.5,108 132.5,107.8 131.8,106.8 131.5,106.8 131.5,106.6 131.3,106.1 131.3,105.8 131,105.8 130.8,105.6 "/>
        <polygon class="st0" points="127.9,100.8 127.9,100.6 127.7,100.3 127.7,100.1 127.4,99.8 127.4,99.6 127.9,100.1 128.6,100.8
	129.1,100.8 129.1,101.5 129.6,101.8 129.8,102 130.1,102.5 130.1,102.2 130.1,102 130.3,102 130.8,102.2 130.8,102.5 130.8,102.7 
	131,103 131.5,103 131.5,102.7 131.5,102.2 131.3,102.2 131.3,102 131.3,101.8 131.5,101.8 132,101.8 132.7,102.2 132.7,102.7 
	132.7,103.2 132.5,103.4 132.2,103.7 130.8,103.9 130.6,103.7 130.3,103.4 130.1,103 129.8,103.2 129.6,103 129.1,102.5 
	128.6,102.2 128.6,102 128.6,101.8 128.6,101.5 128.6,101.3 128.4,101 128.2,101 "/>
        <polygon class="st0" points="171.4,97.9 171.4,97.4 171.6,97.2 171.8,97.4 171.8,97.7 171.8,97.9 172.1,97.9 172.1,98.2 171.8,98.2
	171.6,98.2 171.4,98.2 "/>
        <polygon class="st0" points="124.3,97.4 124.3,97.2 124.3,97 124.8,97 124.8,97.7 124.8,97.9 124.6,97.9 "/>
        <polygon class="st0" points="123.1,94.8 123.8,94.3 124.1,94.3 124.6,94.8 124.8,94.8 124.8,95 124.3,95.3 124.1,95.3 123.6,95.3
	123.6,95.5 123.6,95.8 123.8,96 123.8,96.2 123.6,96.5 124.1,96.2 124.3,96.5 124.3,96.7 124.1,97 123.8,97.2 123.4,97.2 123.4,97 
	123.4,96.7 123.1,96.7 122.9,96.2 122.2,95.8 121.2,95.3 121.2,95 121.7,94.8 122.4,94.6 "/>
        <polygon class="st0" points="122.6,92.9 123.1,92.6 123.1,92.9 123.4,92.9 123.4,93.1 123.1,93.4 122.2,93.6 121.7,93.8 121.4,93.8
	121.2,93.6 121.2,93.1 121.2,92.9 121.2,92.6 121,92.4 121.7,92.9 121.9,93.1 122.2,93.1 122.4,93.1 "/>
        <polygon class="st0" points="202.6,88.3 202.8,88.3 203,88.1 203.8,88.1 204.5,88.3 204.7,88.6 205,89 205.2,89.3 205.7,89.3
	205.4,89.5 205,90 205.2,90 205.2,90.2 205.2,90.5 205.4,90.5 205.7,90.5 205.7,90.7 205.7,91.2 205.4,91.4 205,91.7 204.7,91.9 
	204,92.4 203.8,92.9 203.5,93.1 203.8,93.1 203.8,93.4 203.5,93.6 203.3,93.6 203,93.6 203,93.4 203,93.1 202.8,92.9 202.3,92.9 
	201.6,92.2 201.6,91.9 201.4,91.9 201.4,92.2 201.4,92.4 201.1,92.6 200.9,92.6 200.9,92.4 201.1,92.2 201.1,91.9 201.1,91.4 
	201.1,91.2 200.9,91.2 200.6,90.7 200.6,89 200.9,88.8 200.6,88.6 200.6,88.3 200.6,87.8 200.9,87.4 201.4,86.6 201.6,86.6 
	201.8,86.6 201.8,86.9 202.1,87.1 202.3,87.6 202.3,88.1 202.6,88.1 "/>
        <polygon class="st0" points="120.5,91.9 120.2,92.2 120.2,91.9 120.5,91.7 120.7,91.7 120.7,91.9 120.7,92.2 "/>
        <polygon class="st0" points="121,91 120.5,91.2 120,91 119.8,91 119.5,91.2 119.3,91.4 119.3,91.2 119.5,90.2 119.8,90 119.8,90.2
	120,90.5 120.2,90.5 120.5,90.5 120.5,90.2 120.5,89.8 120.7,89 120.7,88.8 121,88.8 121.2,88.8 121.2,89 121.7,89.8 121.4,89.8 
	121.4,90 121.2,90.5 "/>
        <polygon class="st0" points="113.3,77.8 113,77.8 113,77.3 113.3,77 113.3,76.8 113.5,76.8 113.5,77 113.5,77.3 113.8,78
	113.5,78.5 113.3,78.7 113.3,79 113,79.2 112.8,80.4 112.8,80.6 113,80.9 112.8,81.4 112.8,81.1 112.6,80.9 112.3,80.6 113,79.2 
	113,79 113.3,78.7 113.3,78.5 113.3,78.2 113.3,78 "/>
        <polygon class="st0" points="113.3,70.1 113.3,70.3 112.6,70.3 112.8,70.1 113,69.8 113.3,69.8 113.8,69.8 114,70.1 114.2,70.3
	114.7,70.3 115.2,70.1 115.4,70.3 115.4,70.6 115.2,70.8 114,71.3 113.8,71 113.8,70.8 113.8,70.6 113.5,70.3 "/>
        <polygon class="st0" points="192.5,70.1 192.5,69.4 192.7,69.4 192.7,69.1 192.7,68.9 193,68.4 193,68.2 193,67.9 193.4,67.7
	193.9,67.7 193.9,67.9 193.7,67.9 193.4,67.9 193.4,68.2 193.4,68.4 193.2,68.4 193.2,68.6 193.2,69.1 193,69.6 193,69.8 193,70.1 
	193.2,70.1 193.2,70.3 193.4,70.3 193,71.3 193,71 193,70.8 193,70.6 192.7,70.3 "/>
        <polygon class="st0" points="216.2,59 216.5,58.6 216.7,58.3 217.2,58.1 217.7,57.8 218.2,57.6 218.4,57.6 219.1,57.4 219.4,57.1
	219.6,57.4 219.4,57.6 218.9,57.8 218.4,58.6 218.4,58.8 218.6,59 218.9,59 218.9,59.3 218.9,59.5 218.9,59.8 218.9,60 218.9,60.2 
	219.1,60.5 219.6,60.5 219.8,60.7 220.1,60.7 220.8,61 220.8,61.2 221,61.4 221,61.7 220.8,61.7 220.8,62.2 220.8,62.4 220.6,62.6 
	220.6,62.9 220.3,63.1 220.1,63.6 219.8,63.8 220.1,64.3 220.1,64.6 220.1,64.8 219.8,65 219.8,65.3 219.8,65.5 220.1,66.2 
	220.1,66.5 220.1,66.7 220.3,66.7 220.3,66.5 220.3,66.2 220.6,66.7 220.6,67 220.8,67.2 220.8,67.7 220.8,67.9 220.3,68.2 
	219.6,68.2 219.4,68.2 219.4,67 219.1,67 219.1,66.7 218.9,66.7 217.9,66.5 217.7,66.5 217.4,66.5 217.2,66.7 217,66.7 216.7,67 
	216.5,66.7 216.5,66.5 217,66.2 217.2,66 217.7,65.8 217.7,65.5 217.7,65.3 217.7,65 217.4,65.3 217.4,65 217.7,64.6 217.4,64.3 
	217.4,64.1 217.9,63.8 218.2,63.6 218.4,62.4 218.4,62.2 218.2,61.9 218.2,61.4 218.4,61.2 218.4,61 217.9,60.7 217.7,60.5 
	217.2,60.2 217,60.2 216.7,60.2 216.5,60 216.2,60 216.2,59.8 216.2,59.3 "/>
        <path class="st0" d="M257.8,70.3h-0.2l-0.2,0.2l-0.2,0.2l-0.2,0.7v0.2l-0.2,0.2v0.7l0.2,0.2l0.2,0.2l0.7,0.5v0.2l0.2-0.2l0.7-0.5
	l0.7-0.7v-0.2h-0.2l-0.5-0.2v0.2l-0.2-0.2l-0.2-0.2v-0.2h0.2V71l-0.2-0.2l-0.5-0.2L257.8,70.3z M266.4,50.4l0.5,0.7l0.5,0.2l0.2,0.2
	l0.2,0.2l0.2,0.2l0.2,0.2h0.2v0.2h0.7l0.2,0.2h2.2l0.5-0.2h1l-0.7,0.2h0.7l0.2-0.2l1-0.5l0.2-0.2l1-0.2h0.2l0.2-0.2v-0.2h2.4
	l0.2-0.2l1-0.2h0.5l0.2,0.2l0.2,0.2l0.2,0.2v-0.2h-0.2v-0.2h-0.2l0.5-0.2h1l-0.2,0.5l-0.5,0.2h0.7v0.2l0.2,0.2l0.2,0.2h0.2v0.2
	l1,0.2h2.9l0.2,0.5l-0.2,0.5h-0.2l-0.5-0.2h-0.2l0.2,0.2l-0.2,0.2l-0.2,0.2l-0.5,1l0.7-0.7l0.2-0.2l0.5-0.2v0.5h0.5l0.2,0.2h0.5
	l-0.5-0.2l-0.2-0.2h-0.2l0.2-0.5l0.2-0.2V53l0.2-0.2h-0.2l-0.2-0.2h2.2l0.2,0.2h0.2V53h0.2l0.2,0.2l-0.2,0.2v-0.2h-0.2L289,53h-0.2
	v0.2l-0.2,0.2v0.2h0.7l0.2,0.2h0.2v0.2l0.2,0.2h0.2l0.2,0.2l0.2-0.2v0.2l0.2,0.2v0.2h0.2l0.2,0.2l0.5,0.2h2.6l0.2-0.2h0.7l1-0.2h0.5
	l0.2,0.2l-0.2,0.2v0.5l0.2,0.2v1h0.2l0.2,0.2v0.5l-0.2,0.2l-0.2,0.2l-1,0.2l-0.2-0.2h-0.2v-0.2H295l0.2,0.2v0.2L295,59l-0.2,0.2
	l-0.5,0.2h0.2l0.2-0.2h0.2l0.5,0.5l0.7-0.5h1v0.5l0.2-0.2v-0.2l0.2-0.2h0.7l-0.2,0.2l-0.5,0.5l0.5-0.2l0.2-0.2v1.2l-0.2,0.2
	l-0.5,0.2l-0.2,0.2l-0.2,0.5l0.2,0.2h0.2v0.2l-0.2,0.2v0.2h1l0.2-0.2h0.2v0.2h0.2l0.2,0.2v0.2l0.2,0.2h0.7v0.2l0.2,0.5v0.7l0.2-0.2
	h0.2v0.2h0.2v1h-0.7L300,66l-0.2,0.2V67h0.2v0.5l-0.5-0.5v-0.2l-0.2-0.2H299v0.2l0.2,0.2l0.2,0.2l0.2,0.2h0.5l0.2,0.5l-0.2,0.5
	l-0.2-0.2h-0.5v0.2h0.2v0.2l0.2,0.2l0.2,0.2l0.2,0.2v0.5l0.2-0.2h0.2l0.2,0.2h0.7l0.5,0.2v0.2l0.2,0.5l-0.2,0.2l0.5,0.5l0.7-0.2h0.2
	l0.7,0.7v0.5h0.2l0.2,0.2v0.5l0.2,0.5l0.2,0.2v0.7h-0.2l0.2,0.5h0.2l0.2-0.2h0.2v0.5l0.2,0.7l-0.2,0.5l0.2,0.2l0.2,0.2l0.2,0.2
	l0.2,0.2v0.2l0.2,0.2h0.2l0.5,0.5l0.5,0.2h0.2l0.2,0.5l0.2,0.2v0.2h0.2v0.2h0.2v0.5l0.2,0.5v0.5l0.2,0.5l0.5,0.5v0.2h0.2l0.2,0.2
	l0.2,0.2h0.2l0.2-0.2h0.2l0.2,0.2l0.2,0.2h0.2l0.2-0.2l1,0.5v0.2h0.2l0.2,0.2l0.2,0.2l0.2-0.2v0.2l0.5,0.5l0.2,0.2l0.2,0.7v1
	l-0.2,0.2l0.2,0.5h0.2v0.7h0.2l0.2,0.2v0.2L317,89v0.2l-0.2,0.2V90h0.7l0.2,0.5l-0.5,0.7l-0.5,0.5l-2.4,3.1l-2.2,2.9l-1.4,1.9
	l-0.7,1l-1,1.2l-0.7,1l-1,1.4l-1.2,1.4L305,107l-1,1.4l-1,1.2l-0.7,1.2l-1.9,2.4l-1.9,2.6l-2.2,3.1l-0.5,0.5v0.2l-4.6,6.2l-1,1.4
	l-0.7,1l-3.4,4.8l-1.7,2.4l-8.2,12l-0.2,0.2l-2.4,3.6h-0.2l-0.2,0.5l0.2,0.2l1,1.2h0.2l0.2-0.2l0.2-0.2l1,1.7v0.2l0.2-0.2h0.2
	l0.7-0.2h0.5l0.5,0.2l1.4,0.7l-0.2,0.5l-0.5,0.5l-0.2,0.2l-0.5,0.5v1l0.2,0.2l0.7,1l-0.2,0.2v0.5l-0.2,0.2l0.2,0.5v0.2l0.2,1
	l0.2,1.2l0.2,1l0.5,1.9l-0.2,0.2v0.5l-0.2,0.7l-0.2,0.5h-0.2v0.2l-0.2,0.2h1V168h1.2v0.7L281,169l-0.2,0.2l-0.5,0.2h0.5l0.2-0.2
	l0.2,0.2l0.5,0.5l0.5,0.5v0.5H282v-0.2l-0.2-0.2l0.2,0.5l0.2,0.2l0.2,0.5v0.2l-0.7,0.2h-0.2v0.2h0.7l0.2-0.2v0.2l0.2,0.5v0.7
	l-0.2,0.7l-0.2,0.2v0.2h-1v-0.5l-0.5-0.7l-0.5,0.2h-0.5v1h-0.5V173l-0.2-0.2h-0.2v-0.2h-0.2l-0.2-0.2l-0.2-0.5l-0.2-0.5l-0.2-0.7
	v-0.5h0.7v-0.2h-0.7l-0.2-0.2v-1l-0.2-0.2v-0.2l0.2-0.2v-1l-0.2-1l-0.2-1h-0.2l-0.2-0.2l0.5-0.2v-0.2h-0.7l-0.2-0.5v-0.2l-0.2-0.7
	h-0.2l-0.2-0.2l-0.2-0.5h0.2v-0.5h-0.5v-0.2l-0.2-0.5v-0.2l-0.5-0.7l0.2-0.5h0.5l0.2-0.2l0.5-0.2l0.2-0.5v-0.5l0.2-0.5l0.2-0.2
	l0.7-0.5v1.2l-0.5,1l-0.7,1v0.2h0.2l0.2-0.2l0.2-0.5l0.2-0.5l0.2-0.5h0.5l0.5,0.2v0.5h0.2l-0.2-0.5l-0.2-0.2l-0.2-0.2l-0.2-0.2v-1.4
	h-0.5L276,157l-0.5,0.5h-2.6l-0.2-0.2h-0.2l-0.5-0.5l-0.5-0.7h-0.2v-0.2l-0.2-0.2v-0.2l-0.5-0.5l-0.2-0.7v-0.2h0.7v-0.2h0.2v-0.2
	l0.2-0.5v-0.5H271v0.7h-1.2l-0.5-0.2v-0.7H269l-0.2-0.2l-0.5-0.5l-1-1l-0.2-0.5l-0.2-0.2h-0.2l-0.2-0.2h-0.7l-0.2-0.2h-0.2L265,149
	h-0.2l-0.2-0.2l-1-0.5h-1v-0.2l-0.2-0.2l0.2-0.2v-0.2l-0.2-0.5v-0.7l-0.2-0.2h-0.5l-0.2-0.5v-1.2h-0.2l-0.2-0.2l0.5-0.5l0.7-0.7
	l1-0.5l0.7-0.2v-0.2h-0.5l-0.7,0.2l-0.7,0.2l-1,0.5l-0.7,0.2l0.7-0.2v0.2l-0.5,0.5h-0.2l-0.2-0.2V143h0.2l-0.2-0.2h-0.2v-1l-0.2-0.5
	l-0.2-0.2l-0.2-0.5h0.7l0.7-0.5v-0.2l-0.2,0.2l-0.5-0.2h-0.2l0.2-0.5h-0.5l-0.7-0.5v-0.2h1.2l0.2-0.2h-0.7l-1-0.2H258V138l-0.5-0.2
	l0.2-0.5l0.2,0.2h0.5l0.2,0.2h0.5l0.7,0.2v-0.2l-0.2-0.5v0.2H259v-0.2h-0.5V137l-0.2-0.5l0.2-0.5v-0.2l1-0.5h0.2l0.5,0.2l0.2,0.2
	l0.2,0.2h0.2v-0.5l-0.5-0.2l-0.5-0.2h-1l-0.5,0.2h-0.2l-0.2,0.2l-0.2-0.2v-0.2h0.5l-0.2-0.2l-0.2-0.2h-0.5l-0.2,0.2h-0.7l-0.2-0.5
	l0.2-0.5l0.5-0.2l0.2-0.5l0.2-0.2v-0.2L257,133l-1,1l-0.2,0.5h-1l-0.2-0.2v-0.2l0.2-0.2v-0.2l-0.2-0.5l1-0.5l1.2-0.2l0.5-0.5
	l-1.4,0.5h-0.2l-0.2,0.2h-0.2v-0.7h-0.2l-0.5-0.2h-0.2l-0.5,0.5h0.7l0.2-0.2v0.2h0.2l-0.2,0.2l-1.2,1H253v-0.5l-0.5-0.2l-0.5,0.2
	h0.5l0.2,0.2h-1l-0.2,0.2h-0.2l0.2,0.2h0.2l0.2-0.2h0.7v0.2l0.5,0.2l-0.2,0.2l-0.2,0.2l-0.2,0.7l-0.7,0.2l-0.2-0.5v-0.2h-0.7
	l-0.2,0.2h-0.5l0.2,0.2l0.5-0.2h0.5l0.2,0.5v0.5l0.2-0.2l0.5-0.2h0.5v1l-0.2,0.5h-0.7l-0.2-0.2v0.2h-0.2l-0.5,0.2h-0.7l-0.5,0.2h1
	l0.2,0.5l-0.2,0.2h-0.2l-0.2,0.2h-0.2l-0.2-0.2l0.2-0.2h-0.5l-0.2,0.5l-0.5,0.5h-0.5l-0.5-0.5l-0.2-0.2l-0.5-0.2l-0.5-0.5v-0.2
	l0.2-0.2h0.2v-0.2h-0.2l-0.5,0.2l-0.2,0.2l-0.2,0.2h-0.5l0.5-0.7l0.2-0.2l0.5-0.7l-0.2-0.2l-0.2,0.2l-0.2,0.2l-1,0.5h-0.2l-0.2,0.2
	l-0.2,0.2l-0.2,0.2v0.7l-0.2-0.2l0.2-0.7l0.2-0.2h0.2v-0.2l0.2-0.2v-0.2l-0.2-0.2l-0.7,0.7l-0.2,0.5l-0.2,0.5l-0.2,0.2h-0.2l0.2-0.2
	v-1l-0.2-0.2v0.7h-0.2l-0.2,0.2h-0.2l-1.4,0.2H240v-0.2l0.2-0.2l0.7-0.2l0.7-0.5h-0.2l-0.2,0.2h-0.5v0.2l-1.2,0.5l0.2-0.5v-0.2
	l0.5-0.2h-0.5l-0.2,0.2l-0.2,0.2l-0.2,0.5l-0.2-0.2h-0.5l-0.7,0.2h-0.2l-0.2,0.2h-0.2v-0.5l-0.2-0.2h-0.2v0.5h-0.2l-0.2-0.5
	l-0.2-0.2v-0.2h-1.2l-0.2-0.2l-0.2-0.7v-0.5l0.2-0.2l0.7-0.5h1.2v0.2h0.2l0.2,0.5l0.2-0.2l0.2-0.2l0.5,0.2h0.5l1.7-0.7h-0.2
	l-0.5-0.2h-1.4l-0.2-0.2v-0.2l-0.2-0.2v-0.2l-0.2-0.2l0.2-0.2v-0.2l1.9-1.2l0.5-0.2h1l0.2-0.2h0.5l1-0.7l0.5-0.5l0.5-0.2v-0.2
	l0.2-0.2v-0.2l0.2-0.5l0.2-0.5h0.7l0.2,0.2l0.2,0.2h1.2l1-0.2l1,0.2h0.2l0.2,0.2l-0.2,0.2v0.7l0.2,0.5h1.2v0.2l0.5,0.5l0.2,0.5v0.2
	l0.5,0.5v0.2h0.2v0.5l0.2-0.2v-0.7l-0.2-0.2l-0.5-0.5l-0.5-0.5v-1.2l-0.2-0.5v-0.5l0.5-0.2l1-0.2h0.2l0.5-0.2l0.5,0.2h0.5l1,0.2
	l-0.5-0.5l-0.5-0.2L253,126h-0.5l-0.7,0.2l-0.2,0.2H251v0.2h-0.5l-0.2-0.2v-0.2l-0.5-0.2h-0.2v-0.2h-0.2v-0.5l-0.2-0.2h-1.2v-0.2
	h-0.7L247,125l-0.5,0.2h-0.2l-0.5-0.2l-0.5-0.2h-1.4l-0.5,0.2l-0.2,0.2v0.7h-0.2l-0.2-0.2v-0.2h-1v0.2h-1L240,126h-0.2l-0.2,0.2v0.2
	l-0.2,0.2l-0.7,0.2h-0.5l-0.5-0.2l-0.2-0.2v-0.7l-0.2-0.2l-0.2-0.2h-0.2v0.2h0.5v0.2l-0.2,0.2v1.9l-0.2,0.2h-0.2l-0.7,0.5l-0.5-0.2
	H235l-0.2-0.2v-0.2h-0.2l-0.7-0.2h-0.2v0.2h0.2l0.5,0.2v0.2l-0.2,0.2l-0.5,0.2h-1.2l-0.2-0.2v-0.2l0.5-0.2h0.2v-0.5l-0.5,0.2
	l-0.2,0.2l-1,0.5l-0.2-0.2h-0.5l-0.2,0.2l-0.2,0.2h-0.2l-0.5-0.2l-0.5-0.2h-0.2v0.2h-0.2l-0.2,0.2l-1.2,0.5l-0.5,1h0.7l0.2,0.2
	l0.7,0.7l-0.2,0.5v0.2h0.2v0.2h0.2v0.7l-0.2,0.7l-1.4,0.2l-0.7,0.2l-0.5-0.2h-0.2l-0.5-0.2l-0.5,0.2l-0.2,0.2l-0.2-0.2v-0.2h-0.2
	l-0.2,0.5v0.5H223l-0.2-0.2h-0.2v-0.2h-0.7l-0.2,0.2l0.2,0.2h0.5v0.2l-1.2,0.7l-0.5-0.2v-0.5l-0.5,0.2l-0.7,0.2v-0.2l-0.5-0.2h-0.2
	v-0.5l-0.2-0.2h-0.2l-0.5,0.2l-0.5,0.5l-1-0.2l-0.5,0.5h-0.2l-0.2-0.2v-1l-23.5-0.2v-0.2l-0.2-0.2l-0.7-0.2h-0.2l-0.2,0.2l-0.2,0.2
	h-0.7l-0.5-0.2V133l-0.5-0.2l-0.2,0.2l-0.7,0.5h-0.2v-0.2l0.2-0.5v-0.2l-0.5-0.2v0.5l-0.2,0.2l-0.2-0.2h-0.2v-0.2l0.2-0.2V132
	l-0.2-0.2L186,132h-0.7l-1-0.2l-0.5-1l0.7-0.5l0.7-0.2h0.2v0.5l0.2,0.5v-1.4l-0.2-0.2h-0.2l-0.2-0.2l-1,0.2l-0.5,0.7l-1.2,0.2h-0.7
	v-0.2h-0.2l-0.2,0.2l-0.2,0.5v0.2l-0.5-0.2v-0.5h0.5l-0.2-0.2h-0.5l-0.2,0.5h-0.5l-0.2-0.7l-0.2-0.2h0.2v-0.2l0.2-0.2l0.5-0.2v-0.2
	l0.5-0.7l-0.2-0.2h-0.5l-0.2,0.2v0.2l-0.2,0.7l-1,1v-0.5h-0.7l-0.2-0.2v-0.7h0.2v-0.2l0.2-0.5V127h-0.5l-0.2,0.5h-0.2v0.2h0.2v0.5
	l-0.2,0.2h-1.2l-0.5-0.2l0.2-0.5l0.2,0.2l0.7-0.2l0.2-0.2l0.7-1h0.5l0.2,0.2h0.2v0.2l0.2,0.2v0.2h0.2l0.5-0.2l0.2-0.2l0.5,0.2
	l0.7,0.2v0.2h0.5l0.2-0.5l0.5-0.2h0.5l1.2-0.2h1l0.5,0.2h1.2l1.7,1l0.2,0.5l0.5,0.5v0.5h-0.2l-0.2,0.7v0.5l-0.2,0.2v0.2l0.2,0.5
	l0.2-0.2v-0.5l0.5-0.7l0.2,0.2v0.5h0.2l0.2,0.2v0.2l-0.2,0.2l0.2,0.7l0.2,0.2l0.5-0.5l-0.2-0.5v-1l0.2-0.5l1.4-0.5l0.2-0.2h0.2
	l0.2-0.2h1.7l0.2,0.2h0.7l0.2-0.2h0.2l0.7,0.2l0.5,0.2h0.2l0.2,0.2h0.2l0.5,0.2h0.2l0.2-0.2h0.5l0.5,0.2v0.2l0.5,0.5l0.5,0.7
	l0.5-0.5v-0.2l0.7-0.7l0.2-0.2h0.2l0.2-0.2l1.2-0.2h0.7l0.5-0.2h0.2l0.2,0.2h0.7l0.7-0.2l1,0.2l0.2,0.2l-0.2,0.2v0.5l0.2,0.2
	l0.5,0.2l0.2-0.5h-0.2v0.2h-0.2l-0.2-0.5l0.5-0.7l-0.2-0.2h0.2v-0.2l0.7-0.5l0.2-0.2l0.5-0.2v-0.2h0.5l0.2-0.5l0.7-0.5l0.2-0.2h0.2
	l0.2-0.2l0.5,0.2l0.2,0.2l0.5,0.5V127l-0.2-0.5l-0.2-0.2l-0.2-0.5l0.2-0.2l0.5-0.5l0.7-0.5h0.2l1.4-0.2h1.2v-0.2l1.2-0.5h0.2
	l0.2-0.2h0.5l1-0.7h-0.5l-0.2,0.2l-0.2,0.2l-1.4,0.2h-0.7v-0.2l-0.5-0.2l-1.2-0.2l-0.7-0.2l-0.7-0.2h-0.7v-0.2h-0.2v-0.5l0.5-0.5
	v-1.4h0.5l0.2-0.2l0.5-0.5l0.5,0.2l0.5,0.7v0.5l-0.2,0.2v0.2l0.5-0.7v-0.5l-0.2-0.2V119l-0.2-0.2v-0.5h0.2v-0.5H215v0.2l-0.2,0.2
	l-0.2,0.2l-1,0.5h-0.5v-0.2l0.2-0.2l0.2-0.5h-0.2v0.2l-0.2,0.2l-1,0.7v0.2h-0.5v-0.2l-1,1.7v0.2l-0.7,0.2h-0.2l-0.2-0.2V121
	l-0.2-0.2v-0.2l0.2-0.5l0.2-0.5l0.7-1.4l0.2-0.5v-0.2l0.2-1l0.2-0.5l-0.5-0.2l-0.7,0.5h-0.7v-0.2l0.2-0.2v-1l-0.2-0.2V114h0.5v-0.2
	l0.2-0.5h-0.2l-0.2-0.2h-1.9v-0.2l-0.5-0.2h-0.7l-0.2-0.2h-1l-0.2,0.2h-0.2l-1-0.2v-0.5l-0.2-0.2l-0.7-0.7v-0.5l0.5,0.2h0.2v0.2
	l-0.2,0.2h1.7l0.2-0.2l-0.2-0.2l0.2-0.5h0.2l0.7-0.7h0.2l0.5,0.2h0.2l0.2-0.5h-0.5V109l-0.2-0.2h-0.2l-0.2,0.2v-0.2l0.2-0.2V108
	l0.5-0.5l1.2-0.5h1.4l0.2-0.5l0.5-1.2l0.2-0.2l0.2-0.5l0.2-0.5v-0.5l0.5-1l0.5-0.2v-0.2l0.5-0.2l0.7-0.2v-0.2h-0.2l-0.5,0.2h-0.2
	v-0.2l1-1l1-0.5l0.7-0.2l0.5-0.2h0.7v0.2l0.2,0.2l0.5-0.2l-0.5-0.5h-1l-1.2,0.5l-0.5,0.2h-1l-0.2,0.5h-0.2v0.5l-0.2,0.2l-0.7,0.5
	L211,102h-0.2l-0.2-0.2l-0.5-0.2l-1-0.2l-0.5-0.2h-0.2v-0.2l-0.7-0.2l-0.2-0.2l-0.5-0.5l-0.2-0.2l-0.2-0.5l-0.2-0.2v-0.2l-0.2-0.2
	v-0.2l0.2-0.2l0.2-0.2l0.2-0.2h0.2l0.2-0.5v-0.2l-0.2-0.2V96l0.5-0.5l0.2-1v-0.2h0.2v-0.2h-0.2v-0.2l-0.2-0.7v-0.2l0.5-0.7h0.7
	l0.2-0.2l-0.2-0.2h-0.5l-0.2-0.2v-0.7h0.5l0.2,0.2l1.2,0.2L210,91l1-0.2h0.7l0.2,0.2v0.2h-0.5v0.5l0.2,0.5l0.2,0.7l-0.5,0.5h-1
	l-0.5,0.2h1.2l0.2,0.2l0.2-0.2h1l0.2,0.5l-0.2,0.2l-0.2,0.2l-0.5,0.2l-0.2,0.5l0.2,0.2h0.7l0.5,0.2l0.2-0.2l0.2-0.2l0.2-0.5
	l-0.2-0.5v-0.5l-0.2-0.2h0.5v0.5l0.5,0.2l0.2-1v-0.2h-1.7v-0.5h-0.2l-0.5-0.7l-0.2-0.2v-0.2l0.2-0.2V91l-0.5-0.7V90h-0.5v-0.2H211
	v-0.2l0.2-0.2h0.7l0.2,0.5l0.5-0.2h0.2l-0.2-0.5l-0.2,0.2h-0.2v-0.5l0.2-0.2h0.2l0.5-0.2v-0.2l-0.5,0.2v-0.2h-0.2v-0.5l0.5-0.2
	l1.4-0.2h0.2v0.2l0.5-0.2l0.2,0.2h0.2l0.5,0.2h0.2l0.5-0.2v-0.2h-1.2l-0.2-0.2l-0.7,0.2v-0.2h-0.2l-0.7,0.2h-0.2l-0.5,0.2h-0.5v0.2
	l-0.2,0.2l-0.5,0.2h-0.2v-0.7l0.2-0.5l0.5-0.5h0.2v-0.5l-0.2-0.2v-0.2h0.2v-0.2l0.2-0.2h1l0.2-0.2V84h-0.2l-0.5-0.2V84h-0.2l0.2-0.5
	l0.2-0.2l0.5-0.2l0.5-0.2l-0.2,0.2h-0.2l0.2,0.2l0.7,0.5v-1l0.5-0.5l0.7,1l0.2,0.2l0.5-0.5v-0.2l0.2-0.2l0.2-0.2l0.2-0.2l0.7-0.2
	h1.7l1-0.2h1.4l0.2,0.2v0.2l-0.2,1.2l0.2-0.2v-0.5l0.5-0.5h0.5l0.2,0.2h0.2l1-0.2h-1l-0.2-0.2l0.2-0.7l0.2-0.2l0.5-0.2l0.7-0.5h1
	l0.2,0.2l0.2,0.2l0.2,0.2l-0.2,0.2h0.2l0.2-0.2v-0.5l-0.2-0.2l0.2-0.2h1l0.2,0.2h0.2l0.2,0.2l0.2,0.5l0.2,0.7l-0.2,0.5l0.2,0.5
	l-0.2,1v0.2l0.5,0.5h1.2l1.2,0.2v-0.2h0.7L234,84l0.7-0.2l0.2,0.7l-0.2,0.2h-0.5l0.5,0.2l0.5,0.7l0.2,0.2l0.2,0.2l0.2,0.2l0.5,0.2
	h0.2v0.2h0.2l1.9-0.2l0.2-0.2h0.2l0.2-0.2l0.2-0.2l0.2-0.2l0.2-0.2l0.2-0.2V85l0.5-0.5v-0.2h0.2l0.2-0.2l0.2-0.2h0.2l0.2-0.7v-0.2
	l0.2-0.5v-0.2l0.2-0.2l-0.2-0.5v-0.2h-0.2l0.7-0.5l0.2,0.2v0.2l0.2,0.2v0.2h0.2v0.2h1.4l0.2-0.2l0.2-0.2l0.5-0.7v-1l0.2-0.2v0.2h0.5
	l-0.2-0.2l-0.2-0.2h-0.7l-0.5,0.2h-0.7v-0.7l-0.2-0.2h-0.5v0.2h-0.2l-0.2-0.2l-0.2-0.2V78h-0.5l-0.2,0.2l-0.7-0.2h-1.2l-0.2,0.2
	l-0.2,0.2H239l0.5-0.5l0.5-0.7l0.2-0.5l0.2-1l-0.2-0.2h-0.5l-0.2,0.2v0.7h0.2v0.2l-0.2,0.2h-0.7v-0.5h0.2v-1.7l-0.2-0.5h-0.5v-0.2
	l-0.2-0.2l-0.2-0.5v-0.2h-0.2l-0.5-0.2h-0.2l-0.2-0.2l-0.2-0.7h-0.5v0.5h-0.2l-0.2-0.2v-1l-0.2-0.2v-0.5l-0.2-0.5l-0.2-0.5l-0.2-1
	v-1l0.2-0.5L235,67l0.5-0.2h0.2l0.5-0.2l0.2-0.2v-1l0.2-0.2l0.2-0.2v-0.7l0.2-0.2v0.7h0.2v0.2h0.2V65l0.5-0.2l0.5-0.2l0.2,0.2
	l0.2,0.5v0.2h0.2l0.2-0.5v-0.2l-0.5-1.2v-0.5h-0.5v-0.7l-0.2-0.5v-0.2l-0.2-0.2v-0.7l0.2-0.2v-1.7l0.5-0.2v-0.2h0.5l0.5,0.2h0.2
	l-0.2,0.2h-0.2v-0.2h-0.7v0.2l0.5,0.2l1,0.5v0.2l0.2-0.2v-0.2h0.7l0.7,0.2l-0.2,0.2V60h0.2l0.2,0.2h0.7V60h0.2l1,0.2h0.5l1,0.5h0.2
	V61l-0.2,0.2v0.2l0.2,0.7l0.2,0.2l0.7,0.2v-1h-0.2v-0.2l0.2-0.2h0.7l0.5,0.2l0.5,0.2h0.5l0.5,0.5v0.5h1.4l0.7,0.5l0.2,0.2l0.2,0.2
	l0.5,0.7l0.2,0.2V65l-0.2-0.5l-0.2-0.2v0.2h0.2v0.2l-0.2,0.2l-0.2,0.2h-1l-0.5,0.5l-0.2,0.2h-0.7v-0.2h-0.5l0.2,0.2h0.2v0.5
	l-0.2,0.5h-0.2v0.5h0.2v0.2h0.2l0.2,0.2v0.5h0.2v0.2l0.2,0.2h0.2l0.5,0.5v1l0.2,0.5h0.2l0.2,0.2h0.2l0.2,0.2v0.5L252,72v0.2l0.2-0.2
	h0.5l0.2-0.2h1l0.2-0.2h0.5l0.2,0.2V72l-0.2,0.2v0.2h0.5v0.2l-0.5,0.2l-0.2,0.2l-0.2-0.2v0.2h0.7l0.2-0.2h0.2v-0.2l0.5-0.7l-0.2-0.5
	l-0.2-0.5v-0.2l-0.2-0.5l-0.5-0.2l0.2-0.2h0.2l0.2-0.2h0.2v1l0.2,0.2h1v-0.2h-0.2l-0.2-0.2l0.2-1l0.2-0.5v-0.5h0.2l0.5-0.5l0.7-0.2
	h0.7v0.2h0.2v0.2l0.2-0.2v-0.7l-0.2-0.2v-0.2l-1-0.7l-0.5-0.2l0.2-0.2h0.5l0.2-0.2h0.5L259,65l-0.2,0.2h-0.5l-0.5,0.2l-0.2-0.2V65
	l0.2-0.2h-0.2v-0.2l-0.2-0.2H257v-0.5l-0.2-0.2l-0.2-0.5l-0.2-0.7v-0.2h0.2v-0.2h0.2l0.2-0.2l0.5-0.2v-0.2l0.5-0.5l0.7-1l0.2-0.2
	v-0.2l0.2-0.2v-0.5l0.2-0.2v-1l0.5-0.7l-0.2-0.2l0.2-1.2l0.2-0.5v-0.2l0.2-0.2v-0.7l-0.2-0.2v-1.2h0.2v-0.5h0.2v-1.7l0.7,0.2
	l0.2-0.2h0.5l0.5-0.2h0.2l1-0.5l0.5-0.2l0.2-0.2l0.2-0.2l0.2-0.2h0.2v0.2l0.2,0.7l0.2,0.2l0.5,0.7L266.4,50.4z M212.2,118.8
	l-0.2,0.2l0.2,0.2l0.2-0.2L212.2,118.8z"/>
        <polygon class="st0" points="244.6,60.2 244.3,60 244.6,60 245.3,60.2 245.5,60.2 245.8,60.5 246,60.5 246,60.7 245.8,60.7
	245.5,60.5 "/>
        <polygon class="st0" points="114.5,46.1 114.7,45.4 115,45.1 115.2,45.4 115.4,45.6 115.7,45.6 115.9,46.3 115.9,46.8 115.9,47.3
	116.2,47.8 115.7,48.7 115.7,49 115.4,49 115.2,49.2 115.4,49.7 115.2,49.7 115,49.2 114.7,48.7 114.7,48.2 114.5,48 114,48 
	114,47.8 114.2,47.5 114.7,46.8 114.7,46.6 114.7,46.3 "/>
        <polygon class="st0"
                 points="446.9,460.8 446.9,460.6 446.9,460.3 446.7,459.6 446.7,458.9 446.9,459.1 446.9,460.1 447.1,460.6 "/>
        <polygon class="st0" points="446.7,458.7 446.2,457.5 445.9,457 445.7,456 445.5,455.1 445.5,454.8 445.2,453.6 445.5,453.6
	445.5,454.8 445.7,455.1 445.7,455.3 445.9,456 446.2,456.7 446.4,457.2 446.4,457.7 446.7,458.2 "/>
        <polygon class="st0" points="565.7,455.8 566.4,454.6 566.7,454.1 566.9,453.9 566.9,453.4 566.9,453.1 567.1,452.9 567.4,452.4
	566.9,453.9 566.9,454.1 "/>
        <polygon class="st0" points="445.2,452.7 445.2,452.4 445.2,451.9 445.5,452.2 "/>
        <polygon class="st0" points="445.2,451.9 445.2,451.5 445.5,451 445.5,450.7 445.7,450 445.7,449.8 445.7,449.5 445.9,449.3
	446.7,447.9 446.9,447.9 447.4,447.1 447.4,446.9 447.6,446.9 447.6,447.1 447.4,447.4 447.1,447.6 447.1,447.9 446.7,448.3 
	446.2,449.3 446.2,449.5 445.9,450 445.7,450.3 445.7,450.7 445.7,451 445.5,451 445.5,451.5 445.5,451.7 445.5,451.9 "/>
        <polygon class="st0" points="447.6,446.7 447.6,446.4 448.3,445 448.8,444.7 449.1,444.7 449.1,444.5 449.3,444.3 449.5,444.3
	449.8,444 450.3,443.8 450.3,443.5 451.2,443.1 451.7,442.6 451.9,442.6 451.9,442.8 451.9,443.1 451.7,443.3 451.5,443.3 
	451,443.5 450,444.3 449.8,444.3 449.8,444.5 449.5,444.5 449.3,445 449.1,445 448.8,445 448.6,445.5 "/>
        <polygon class="st0"
                 points="453.4,441.6 453.6,441.4 454.1,441.1 454.3,440.9 454.3,441.1 453.9,441.4 453.6,441.6 "/>
        <polygon class="st0"
                 points="455.1,440.7 455.3,440.4 455.5,440.4 455.8,440.2 456,440.2 455.8,440.4 455.3,440.7 "/>
        <polygon class="st0" points="460.6,436.6 460.8,436.3 461.8,435.4 462.5,434.7 463,434.7 463,434.9 462.5,435.1 462.5,435.4
	462.3,435.4 "/>
        <polygon class="st0" points="562.8,433 562.1,432.5 561.6,431.8 561.4,431.3 561.1,431.1 561.1,430.6 560.9,429.9 560.9,429.1
	560.9,428.9 560.9,428.7 560.9,428.4 560.9,427.9 560.7,427.5 560.9,427.7 560.9,427.9 561.1,428.2 561.4,428.7 561.1,428.9 
	560.9,429.1 561.1,429.6 561.1,430.1 561.1,430.3 561.1,430.6 561.4,430.8 561.4,431.1 561.6,431.3 561.6,431.5 561.9,432 
	562.3,432.3 562.6,432.5 562.6,432.7 "/>
        <polygon class="st0" points="560.9,430.6 560.7,430.3 560.7,430.3 "/>
        <polygon class="st0" points="560.7,430.3 560.2,429.6 559.9,428.7 559.9,428.4 559.9,428.2 560.2,427.9 560.4,427.7 560.7,427.9
	560.7,428.2 560.7,428.4 560.7,428.7 560.4,428.9 560.4,429.4 560.7,429.9 560.7,430.1 "/>
        <polygon class="st0" points="527.1,425.1 526.8,424.8 526.8,424.6 526.6,424.3 526.6,424.1 526.8,424.3 526.8,424.6 527.1,424.8
	527.3,425.1 527.3,425.1 "/>
        <polygon class="st0" points="305.5,396.3 305,395.8 304.8,395.3 304.8,394.8 304.6,394.3 304.8,394.3 305,394.8 305,395.1
	305.3,395.3 305.5,395.8 305.8,396 305.8,396.3 "/>
        <polygon class="st0" points="307,392.7 306,392.2 305.3,390.7 305.5,390.7 305.8,391 306.2,391.2 306.5,391.5 306.7,391.7
	307,392.2 307,392.4 "/>
        <polygon class="st0" points="581.5,368.7 582.3,368.2 582.3,368.4 581.8,368.7 "/>
        <polygon class="st0" points="582.3,367.5 582,365.5 582.3,366.7 "/>
        <polygon class="st0" points="582,365.5 581.8,365.1 582,365.3 "/>
        <polygon class="st0" points="581.8,365.1 581.5,364.6 581.8,364.8 "/>
        <polygon class="st0" points="581.5,364.6 581.3,364.3 581.3,364.1 581.5,364.3 "/>
        <polygon class="st0" points="22.8,361 22.8,360.7 22.6,360.5 22.3,360.3 21.8,359.1 21.6,358.8 21.6,358.3 21.6,358.1 21.8,357.9
	22.3,357.6 22.6,357.6 23.5,357.6 23.8,357.9 24.5,358.3 24.7,358.8 24.7,359.1 24.7,359.5 24.7,359.8 23.8,360.7 23.5,360.7 
	23,361 "/>
        <polygon class="st0"
                 points="578.7,325.5 578.7,324.5 579.1,324.3 579.4,324.3 579.4,324.5 579.4,325 579.1,325 579.1,325.2 "/>
        <polygon class="st0"
                 points="592.3,313.2 592.3,312.3 592.6,311.8 592.6,311.5 592.8,311.5 592.8,312.3 593.1,312.7 592.8,313 "/>
        <polygon class="st0" points="599.3,312.3 599.3,312 599.8,312 600,311.3 600,311.1 600.3,311.5 600.5,311.8 600.5,312 600.3,312
	600.3,312.3 600,312.3 599.8,312.3 599.5,312.3 "/>
        <polygon class="st0"
                 points="599.1,287.5 598.8,287.1 599.1,286.6 599.3,286.6 599.5,286.6 599.5,286.8 599.5,287.3 599.3,287.5 "/>
        <polygon class="st0" points="298.6,279.1 298.6,278.9 298.8,278.7 298.8,278.9 "/>
        <polygon class="st0" points="307.9,278.4 307.9,278.2 307.9,277.9 308.2,277.5 308.6,277.2 308.6,277.5 308.6,277.9 308.6,278.2
	308.4,278.2 "/>
        <polygon class="st0" points="308.6,268.3 308.2,268.1 308.2,267.9 308.9,267.4 309.1,267.4 309.1,267.6 309.6,267.9 309.6,268.1
	309.1,268.3 308.9,268.3 "/>
        <rect x="308.6" y="265" class="st0" width="0.2" height="0.2"/>
        <polygon class="st0"
                 points="282,206.6 281.8,205.7 282,205.4 282,205.2 282.2,205.2 282.5,205.7 282.5,205.9 282.2,206.6 "/>
        <polygon class="st0" points="287,205.4 286.8,205 286.8,204.7 287,204.3 287.3,203.8 287.5,203.3 287.8,203.8 288,204.3 288,204.5
	288,204.7 "/>
        <polygon class="st0" points="282.5,204.7 282.2,204.5 282,204.3 282.5,203.5 282.5,203.3 282.7,203.3 283,203.8 283,204.3
	282.7,204.5 "/>
        <polygon class="st0" points="280.8,202.3 280.3,202.1 280.3,201.9 280.3,201.6 280.6,201.4 280.8,201.4 281.3,201.4 281.3,201.9
	281.3,202.1 281,202.3 "/>
        <polygon class="st0" points="279.8,201.6 279.6,201.1 279.6,200.9 280.1,200.4 280.6,200.2 281,200.4 281,200.6 280.8,200.9
	280.6,200.9 280.3,200.9 "/>
        <polygon class="st0" points="280.3,199.9 280.1,199.7 280.1,199.4 280.3,199 280.6,199 280.8,199.4 280.8,199.7 "/>
        <polygon class="st0" points="276.2,164.9 276.2,164.6 276.5,164.6 276.5,164.9 276.5,164.9 "/>
        <polygon class="st0" points="274.6,161.5 274.6,161.3 274.8,161.5 "/>
        <polygon class="st0" points="259.4,147.8 259.9,147.6 260.2,147.6 260.4,147.6 260.9,147.4 261.1,147.4 261.4,147.4 261.6,147.4
	261.6,147.6 261.4,147.6 261.1,147.6 260.9,147.6 260.6,147.6 260.4,147.6 260.2,147.8 259.7,147.8 "/>
        <polygon class="st0" points="203.5,146.2 203.3,145.7 203.3,145.4 204.2,145.2 204.5,145.4 203.8,146.2 "/>
        <polygon class="st0" points="211.4,144.7 211.7,144.5 211.7,144.7 "/>
        <polygon class="st0" points="214.3,141.4 214.3,141.1 214.6,141.1 "/>
        <polygon class="st0" points="249.8,141.1 249.1,140.9 249.1,140.6 249.4,140.4 250.1,140.2 250.8,139.9 251.3,139.9 251.8,139.9
	252,139.9 252.2,139.9 252.5,139.7 252.7,139.4 253.7,139.2 254.2,138.7 254.4,138.7 254.6,138.7 254.6,139.7 254.4,139.9 
	254.2,139.9 253.7,139.9 253.4,139.9 253.2,139.9 253,139.9 253,140.2 252.7,140.2 251,140.6 251,140.9 250.6,141.1 "/>
        <polygon class="st0" points="222.2,140.2 222.2,139.9 222,139.2 222,138.7 222.2,138.5 222.5,138.5 222.5,139 222.5,139.4
	222.5,139.7 222.5,139.9 222.5,140.2 "/>
        <polygon class="st0" points="187.2,139.9 187,139.7 187.2,139.7 187.4,139.2 187.7,139.2 187.9,139.2 187.9,139.4 187.7,139.9
	187.4,139.9 "/>
        <polygon class="st0" points="223.9,139.9 223.9,139.7 223.7,139.4 223.4,139 223.2,138.5 223,138.2 223.7,138 223.9,138
	223.9,138.2 223.9,138.5 223.9,139.2 224.2,139.7 224.2,139.9 "/>
        <polygon class="st0" points="249.6,139.4 249.6,139.2 249.8,139.2 250.6,139 250.8,139 250.8,139.2 250.6,139.2 250.6,139.4
	250.3,139.4 250.1,139.4 249.8,139.4 "/>
        <polygon class="st0"
                 points="249.4,139 249.6,138.7 249.8,138.5 250.1,138.5 250.8,138.2 250.8,138.7 250.3,138.7 "/>
        <polygon class="st0" points="187.7,138.7 187.2,138.5 187.7,138 188.6,137.8 188.4,138.2 188.2,138.5 "/>
        <polygon class="st0" points="249.1,138.5 249.1,138.2 249.4,138.2 249.8,138 250.1,138 250.8,137.8 250.8,138 250.3,138.2
	250.1,138.2 250.1,138.5 249.8,138.5 249.6,138.5 249.4,138.5 "/>
        <polygon class="st0"
                 points="238.1,137.3 237.8,137 238.6,136.6 238.8,136.8 238.8,137 238.6,137 238.6,137.3 238.3,137.3 "/>
        <polygon class="st0" points="251,137.3 251,137 251,136.8 251.3,136.8 251.5,136.8 251.5,136.6 251.8,136.8 251.8,137 251.5,137.3
	251.3,137.3 "/>
        <polygon class="st0" points="194.4,136.8 193.9,136.6 193.9,136.3 193.9,136.1 194.2,136.1 194.6,136.1 194.6,136.3 194.6,136.6
	194.6,136.8 "/>
        <polygon class="st0" points="198.2,136.1 198.5,135.8 198.7,136.1 "/>
        <polygon class="st0" points="186.5,135.4 186.2,134.6 186.2,134.4 186.2,134.2 186.5,134.2 187.2,134.4 187,134.6 186.7,135.1
	186.5,135.1 "/>
        <polygon class="st0" points="187.7,134.9 187.2,134.4 187.4,134.2 187.7,134.2 187.9,134.2 188.2,134.6 "/>
        <polygon class="st0" points="252.7,134.9 252.7,134.6 253,134.2 253.2,133.9 253.4,133.9 253.4,134.2 253.2,134.6 253,134.6
	253,134.9 "/>
        <polygon class="st0" points="253.9,134.2 253.7,133.9 253.7,133.7 253.9,133.7 253.9,133.4 254.4,133.2 254.6,133.2 254.6,133.4
	254.6,133.7 254.4,134.2 "/>
        <polygon class="st0"
                 points="181.2,132 181.2,131.8 181.2,131 181.4,130.8 181.7,131 181.9,131.5 181.9,131.8 181.9,132 "/>
        <polygon class="st0" points="178.3,131.5 178.1,131.3 178.3,131.3 178.3,131 178.3,130.8 178.3,130.6 178.6,130.6 178.8,130.6
	179,130.6 179.3,130.6 179.3,130.8 179.3,131 179,131 179,131.3 178.8,131.3 178.6,131.3 178.6,131.5 "/>
        <polygon class="st0"
                 points="230.4,130.3 229.9,130.1 230.2,129.8 230.4,129.8 230.6,129.8 230.6,130.1 230.6,130.3 "/>
        <polygon class="st0"
                 points="160.6,124.8 160.6,124.6 160.8,124.1 161,124.1 161.5,124.1 161.8,124.3 161.3,124.6 "/>
        <polygon class="st0" points="164.9,124.8 164.9,124.6 164.9,124.3 165.4,123.6 165.6,123.6 165.8,123.6 166.1,123.8 166.3,124.1
	165.6,124.6 "/>
        <polygon class="st0" points="136.1,109.9 135.8,109.7 135.4,109.4 135.1,109.2 135.1,109 135.4,109 135.8,109 136.3,109 136.6,109
	136.6,109.2 136.6,109.7 136.6,109.9 136.3,109.9 "/>
        <polygon class="st0" points="124.1,97.7 124.1,97.4 124.3,97.4 "/>
        <polygon class="st0"
                 points="125.5,97.2 125.5,97 125.5,96.5 126,96.2 126,96 126.2,96 126.5,96 126.7,96.5 126.2,97 125.8,97.2 "/>
        <polygon class="st0"
                 points="174.5,93.1 174.2,92.9 174.2,92.6 174,92.4 174,92.2 174.2,92.2 174.5,92.4 175,92.9 "/>
        <polygon class="st0"
                 points="234.5,83.5 234,83 234,82.8 234,82.6 234.2,82.3 234.5,82.3 234.7,82.6 235,82.8 235.2,83 235,83.3 "/>
        <polygon class="st0" points="117.1,80.2 116.9,79.9 116.9,79.4 116.9,79.2 117.1,79 117.4,78.7 118.1,79.2 117.8,79.9 117.6,80.2
	117.4,80.2 "/>
        <polygon class="st0" points="115.2,75.4 115.2,75.1 115.2,74.9 115.4,74.6 115.7,74.6 115.9,74.6 115.7,75.1 115.7,75.4 115.4,75.4
	"/>
        <rect x="235.9" y="72.5" class="st0" width="0.2" height="0.2"/>
        <polygon class="st0" points="253.9,70.6 254.2,70.1 254.4,70.1 254.6,70.1 254.2,70.6 "/>
        <polygon class="st0" points="255.6,69.4 255.6,69.1 256.1,68.4 255.8,69.1 "/>
        <polygon class="st0" points="256.1,68.2 256.3,67.9 256.3,67.7 256.3,67.4 256.1,67.2 255.8,67 256.6,66 256.8,65.8 257,65.8
	257.3,66 257.8,66.2 257,67.4 256.6,68.2 "/>
        <polygon class="st0" points="237.4,63.6 237.6,63.4 237.8,63.4 238.1,63.4 238.1,63.6 237.8,63.6 237.6,63.6 "/>
        <polygon class="st0" points="250.6,62.6 250.3,62.4 250.3,62.4 "/>
        <polygon class="st0" points="250.1,62.4 249.6,62.2 248.9,61.7 248.6,61.4 249.6,61.9 249.8,62.2 250.3,62.4 "/>
        <polygon class="st0" points="218.2,61.4 217.9,61.2 217.9,61 218.2,61.2 "/>
        <polygon class="st0" points="289.4,53 289.4,52.8 289.9,53 289.7,53 "/>
        <polygon class="st0" points="111.8,52.8 111.8,52.6 112.1,52.3 112.1,52.1 111.8,51.8 111.8,51.6 111.8,51.1 112.1,51.1 112.3,51.1
	112.8,51.8 113,52.1 113,52.3 113,52.6 "/>
        <polygon class="st0" points="273.1,52.6 273.4,52.3 273.6,52.3 "/>
        <polygon class="st0" points="260.4,49.9 260.4,49.7 260.4,49.4 260.6,49.7 260.6,49.9 260.6,49.9 "/>
        <polygon class="st0" points="261.1,49.9 260.4,49.4 260.6,49.4 261.4,49.9 "/>
    </g>
</svg>
