<svg id="Algeria" xmlns="http://www.w3.org/2000/svg" width="792" height="612" viewBox="0 0 792 612">
    <defs>
        <style>.cls-1{fill:#fff;}</style>
    </defs>
    <path class="cls-1"
          d="M295.3917,167.79l-.6406-.5906.9468-.9468a3.7974,3.7974,0,0,0-.36-2.1573c.2881-.5656.0722-1.2266.1568-1.9147a1.93,1.93,0,0,0-1.5637-.87l-.5659-.691-4.073-.6152c-.2894-.8316-1.1563-1.2009-1.9276-1.8346-.8591.03-1.8379.6662-2.8162.0335l-.5934-.6667v-.9129l-.9306-.842c-.512.2662-.8092-.3289-1.2671-.4716-.463-.1444-.9515-.2071-1.4226-.3043l.2674-1.6653a3.4425,3.4425,0,0,0-1.8128-2.0826c-1.3921-.95-2.8872-1.75-4.2742-2.707-.6236-.43-1.267-.8083-1.9007-1.21a17.679,17.679,0,0,0-1.9153-1.19,7.33,7.33,0,0,1-1.2913-.944c-.607-.4741-1.1713-1.0124-1.8166-1.4248-.6063-.3875-1.1935-.8156-1.7525-1.2462-.9389-.7232-1.9237-1.3774-2.8759-2.0784-.3589-.2643-.7944-.4252-1.15-.6926-.8-.6009-1.5608-1.2531-2.3575-1.8582-.879-.6678-1.7743-1.3147-2.6744-1.954a14.3232,14.3232,0,0,1-1.3146-.8675,7.078,7.078,0,0,1-1.0411-.9728,4.9813,4.9813,0,0,0-1.167-.9158c-.99-.698-2.0468-1.3158-2.9673-2.095a17.3217,17.3217,0,0,0-2.7126-1.8964c-.93-.52-1.7576-1.164-2.6312-1.7482-.9824-.6569-1.8827-1.4356-2.8578-2.1042a25.0734,25.0734,0,0,0-3.8907-2.4931.5046.5046,0,0,1-.1774-.1494,4.42,4.42,0,0,0-1.4891-1.041,15.8955,15.8955,0,0,1-1.5488-1.2035c-.4863-.3506-1.0452-.6047-1.5125-.9763-.9782-.7782-2.1273-1.28-3.1428-1.9619-1.2243-.8227-2.4784-1.6231-3.6545-2.5315-1.3479-1.0412-2.7632-1.9994-4.1856-2.9386-1.6285-1.0754-3.3326-2.0392-4.9331-3.1531-.8081-.5624-1.5976-1.1452-2.4309-1.6776-1.14-.7287-2.2646-1.4838-3.42-2.1913a3.8241,3.8241,0,0,1-.5709-.56c.0109-.2132-.0784-.5715.06-.7291.2607-.296.1771-.5955.18-.8949.0266-2.5316.4-5.0512.2578-7.59a3.2743,3.2743,0,0,1,.2364-.9128,3.0079,3.0079,0,0,0,1.7224-1.0729,4.0794,4.0794,0,0,1,2.2359-1.4143,1.239,1.239,0,0,0,.612-.2454c.7142-.7764,1.7734-1.0894,2.49-1.8946h1.11l1.8009-1.46a7.4532,7.4532,0,0,1,2.2114.0456,18.1625,18.1625,0,0,0,2.391.2378l.9142-1.69c.9963-.0892,2.0458-.1342,3.077-.2959a7.4024,7.4024,0,0,1,1.5858-.2251,4.9283,4.9283,0,0,0,1.45-.2844,4.2435,4.2435,0,0,0,2.2787-1.4083,12.4687,12.4687,0,0,0,1.986-3.0426,19.0394,19.0394,0,0,1,2.5853-.5495.7436.7436,0,0,0,.3276-.075,22.0572,22.0572,0,0,0,1.9734-1.03,2.3477,2.3477,0,0,0,1.2217-1.2758l2.827-.3525.74-.9108v-.56l-1.3475-1.28-.35-2.9184a4.2405,4.2405,0,0,0,3.235-.0564c.93-.29,2.0289-.3595,2.781-1.2693v-.9262c.16-.1652.2583-.36.3855-.3812.6426-.1093,1.2942-.1647,1.94-.2568a8.1665,8.1665,0,0,1,1.3421-.2216c1.0495.0315,2.0954.1755,3.1449.2159,1.04.04,2.0886-.0608,3.1208.0354a5.7062,5.7062,0,0,0,1.8663.1647l.57-1.1451-.8854-.9436,1.7318-1.2365c.1428-.8153-.4361-1.13-.8511-1.407a12.8216,12.8216,0,0,1-2.2487-1.8229V61.7917L260.58,60.1565a7.7575,7.7575,0,0,0,.5176-1.3447,7.5933,7.5933,0,0,0,.02-1.4263l-.6878-.6878a1.598,1.598,0,0,1,.44-1.4783,4.7935,4.7935,0,0,0-.7367-3.4046l.4963-.2825v-.8929l-.6186-.5634.2125-1.3612-1.9063-1.4506a4.8568,4.8568,0,0,1,1.0272-.3626,3.476,3.476,0,0,0,2.0938-1.3939h.9967c.5676-.6364,1.3251-1.086,1.3337-2.0749l.8391-.738,1.2443-.493,1.5862.2136,1.2144-1.2144,1.3173.6759a1.8411,1.8411,0,0,0,1.3441-.2371,4.5251,4.5251,0,0,0,1.3282-1.7218,1.9917,1.9917,0,0,1,.657-.926h.686c.2952-.2951.5783-.5783.8614-.8617.4226-.4641,1.1363-.1257,1.5668-.5681.7588.0405,1.1777-.501,1.6467-.9631a2.7918,2.7918,0,0,0,1.3484-.2206c.3667-.1832.8621.1742,1.2429-.1951.0672-.0653.2177-.0539.3308-.0614,1.2481-.0824,2.4958-.2026,3.7451-.2228a3.8155,3.8155,0,0,0,1.4257-.526,6.0776,6.0776,0,0,0,2.6387.2679l1.7888-1.46a2.0212,2.0212,0,0,0,1.8543.09,2.5526,2.5526,0,0,1,1.0486-.0712c.476-.0086.9522-.0021,1.4164-.0021l.9369-.9611c1.6936,0,3.3775.0471,5.0566-.0221a13.2233,13.2233,0,0,1,2.0594.3028.9479.9479,0,0,1,.7435.5377c.2766.573,1.02.7432,1.6493.8467a11.0757,11.0757,0,0,0,1.678.0168l1.57-1.4171a.6747.6747,0,0,0,.8508.1949c.6054-.2205,1.2813-.24,1.8316-.5.5054-.239,1.33-.3389,1.2818-1.2517-.0071-.1339.2385-.2812.4411-.5033l.4109.5747c1.2083.353,2.4376,1.2642,4.2479.8835l1.5331-1.3173,1.9656.5668c.0156.1357.0374.325.0594.5143.776.5563,1.6638.2543,2.4119.3339l1.0262-.6964h1.61l-.9423,1.1256c-.772.0628-1.1173.7651-1.5127,1.4811a1.1808,1.1808,0,0,0,1.2417.7533c-.0955.5413.16,1.0758-.2423,1.58-.0976.1223.0056.3913-.0184.5886-.0644.5295.1963,1.1038-.2282,1.59a.423.423,0,0,0-.0022.3508c.2054.5157.4311,1.0233.7045,1.6619-.0943.5313.2323,1.2638-.2322,1.9106l.7357,1.447a9.2039,9.2039,0,0,0-.4793,2.7361,5.75,5.75,0,0,1-.3638,1.6127c-.3269.1622-.69.352-1.0612.5242a2.6508,2.6508,0,0,0-1.349,1.344,1.83,1.83,0,0,1-.7155.7964,7.2579,7.2579,0,0,0-1.3267,1.589c.0877.5774-.1761,1.2953.1422,1.9726.4446.9459.4211,2.1552,1.5162,2.6533a5.098,5.098,0,0,0,.2409,1.9073,2.0827,2.0827,0,0,0,1.2385,1.19c.1385.042.2471.2016.3842.2267a2.2425,2.2425,0,0,1,1.7019.8072,4.5827,4.5827,0,0,1,1.0213,2.9392,2.0009,2.0009,0,0,0-.0012.2266,3.6277,3.6277,0,0,0,1.59,1.1337c.309.0807.5579.3823.841.5735.4684.3162.9447.6209,1.4134.9367.4362.2938.8668.5959,1.3745.9458.0566.4216.5419.7648.5615,1.3389a7.4287,7.4287,0,0,0,.2369,1.58,9.2016,9.2016,0,0,0,.7409,2.33,33.232,33.232,0,0,1,1.162,3.3683,2.33,2.33,0,0,1,.2464,1.4573.9621.9621,0,0,0,.2519.8551c.5055.5775.4931,1.3223.7685,2.0191l-1.2524.953v.894c.681.8727,1.2492,1.7119,1.9342,2.4413.4937.5257.4362,1.2984.9594,1.7736.5551.504.4419,1.2563.69,1.8768a6.97,6.97,0,0,1,.5057,3.0388c-.0466.758.0091,1.5218-.0163,2.2818a4.2218,4.2218,0,0,1-.1857,1.2379,2.8113,2.8113,0,0,0,.5122,2.3869c.3424.5063.56,1.0611.8727,1.4976l-.3156,1.6818a7.688,7.688,0,0,0-1.0125,2.8942,6.8108,6.8108,0,0,1,.6531,2.04c.0538.4769.0811,1.0943.6128,1.3769l.2542,1.6417c-.0946.4734-.5732.8337-1.3272.9938a2.8151,2.8151,0,0,0-1.7333,1.4289c-.1958.3127-.3336.6617-.54,1.08a3.5767,3.5767,0,0,0,.5191.9208,28.3226,28.3226,0,0,1,2.5349,3.0425c.7016.9027,1.386,1.8188,2.0131,2.6437.1379,1.2386-.2187,2.398.49,3.6731.2684.2162.5879.8014,1.2228,1.01v.4806l1.5552,1.5462h1.7408l.6129-.7625a3.7519,3.7519,0,0,1,.39.1543,11.0028,11.0028,0,0,0,3.5045,1.1177c.659.1167,1.2974.3493,2.0006.545l2.9086,5.0848a18.8412,18.8412,0,0,1-1.9933,1.2341c-.3942.2632-.4623.7982-1.04.9138a4.6643,4.6643,0,0,0-1.3381.8106c-.4123.26-.8352.5037-1.24.7746-.349.2336-.6629.5291-.9834.7876a28.5347,28.5347,0,0,1-3.0079,2.064c-.98.6017-1.9624,1.2153-2.9845,1.7618a28.6617,28.6617,0,0,0-2.5723,1.6311,1.2615,1.2615,0,0,0-.274.2045,16.2075,16.2075,0,0,1-3.9651,2.9089c-.9355.6121-1.9322,1.1306-2.9007,1.6924a1.5088,1.5088,0,0,0-.3778.2421,17.0833,17.0833,0,0,1-3.4533,2.4c-.657.4443-1.3255.8727-1.9669,1.3386a16.93,16.93,0,0,1-1.7134,1.0818,8.671,8.671,0,0,0-1.4559,1.1265c-.9432.8341-1.8247,1.742-2.8014,2.5333-1.6707,1.3535-3.0618,2.997-4.6714,4.4024-.83.7252-1.6164,1.4913-2.4319,2.2284-.5476.495-1.1453.9345-1.8009,1.4636a7.8665,7.8665,0,0,0-3.2086.6446,17.9807,17.9807,0,0,1-2.5335.556,14.53,14.53,0,0,1-1.5785.281c-.48.042-.961.1893-1.4644.22a3.9281,3.9281,0,0,0-1.2964.3347,3.9035,3.9035,0,0,1-2.01.3652,2.06,2.06,0,0,0-1.5075.4636C298.0672,167.3291,296.7466,167.9145,295.3917,167.79Z"/>
</svg>
