<svg id="Angola" xmlns="http://www.w3.org/2000/svg" width="792" height="612" viewBox="0 0 792 612">
    <defs>
        <style>.cls-1{fill:#fff;}</style>
    </defs>
    <path class="cls-1"
          d="M426.5245,450.9642c-.8729.0389-1.6913-.1447-2.4174.4562-.1926.1594-.68.0067-1.0191-.0651-.5858-.1242-1.1612-.2973-1.907-.4936a2.5824,2.5824,0,0,0-1.4089-.8129c-.0192.0191-.0729.1215-.1327.1252-.7094.0439-1.42.0731-2.0894.1042l-.8981-.492a4.513,4.513,0,0,1-.885.2121,13.6712,13.6712,0,0,1-3.8117-.634.6937.6937,0,0,0-.55-.043c-.525.3755-.9667.1426-1.5062-.0045a4.0218,4.0218,0,0,1-2.94-2.723c-.0833-.2408-.3451-.42-.5567-.665a9.2729,9.2729,0,0,1-1.7568-.0173,30.9236,30.9236,0,0,0-5.5425-.2169c-1.8791-.0261-3.7751.1459-5.6332-.0536-1.4947-.1606-2.9995-.0009-4.4574-.236a27.0789,27.0789,0,0,0-3.7467-.19c-1.239-.0286-2.4834-.0715-3.7178.01-1.6629.1094-3.289-.27-4.94-.2577-1.1291.0081-2.2273.4682-3.2784.2113-.5979-.4751-1.1758-.8767-1.6807-1.3552a5.1552,5.1552,0,0,1-.9831-1.1389c-.27-.4624-.86-.738-1.3312-1.1127a1.1183,1.1183,0,0,1-1.1834.2069c-.9317-.4829-1.6978.06-2.4324.4442a9.1443,9.1443,0,0,0-1.5321,1.2761h-3.1928c-.2705-.4716-.8856-.4725-1.3688-.6964-.6376-.0142-1.171,1.0367-1.8478.1239V440.754l.3991-.3627a1.8209,1.8209,0,0,0,.0747-.25c.11-.8386-.2322-1.7142.2082-2.5258-.4707-.9015-.0886-1.8656-.1961-2.7948a1.7535,1.7535,0,0,1,.17-.58l-.4172-.4358v-.4389l1.8867-1.6169.6115-3.0554.7113-.6239a2.1,2.1,0,0,0,.1212-.2818.734.734,0,0,1-.1526-.9608c.4664-.6471.52-1.4944,1.1095-2.1674V423.344c.87-1.0486.36-2.2766.5364-3.404l1.8284-2.5658-.4745-2.2765c.6615-.6,1.3711-1.1641,1.9808-1.8206.5872-.6321,1.0711-1.36,1.5617-1.9959l-.1636-.9774,1.8992-1.5541h1.3414l.86-.9834a1.8168,1.8168,0,0,1,.5793-1.1574,3.2942,3.2942,0,0,0,.9542-1.4059,6.2067,6.2067,0,0,1,.7431-1.25,3.8317,3.8317,0,0,0,.258-2.9089c-.0343-.1848-.1666-.4215-.0959-.541a1.1788,1.1788,0,0,0,.2259-.752c-.0239-.2375-.0049-.4794-.0049-.76l.4439-.36v-2.7793l-.4422-.4423V393.819c-.38-.32-.83-.5163-.9228-.8211-.1336-.4392-.5174-.5809-.6363-.94a4.2745,4.2745,0,0,0-.5272-1.3307c-.5478-.624-.5189-1.4906-1.0354-2.101.1622-.7679-.673-1.3056-.48-2.08-.5186-.4261-.05-1.1077-.4523-1.6223a5.0506,5.0506,0,0,1-.51-1.4583c-.1207-.3487-.264-.69-.4724-1.2283v-.6788l1.4935-1.8221c.3634-.14.8405.1348,1.1287-.4621-.0846-.2862.1552-.692-.1564-1.11a.8119.8119,0,0,1-.0139-.7708c.3049-.3724.1144-.7614.1889-1.1238a8.386,8.386,0,0,1-1.4838-3.0005,17.99,17.99,0,0,0-1.255-3.1977c-.3713-.7152-.6595-1.4844-1.0356-2.2085a1.3942,1.3942,0,0,1-.0665-.6886,3.0536,3.0536,0,0,0-.7294-2.3374c-.4684-.52-.664-1.2766-1.4-1.5738-.1337-.0539-.2019-.3033-.2726-.474-.368-.8874-.7271-1.7786-1.1741-2.8771v-.802a3.0221,3.0221,0,0,1,2.2027-.5349,3.2905,3.2905,0,0,0,2.4036-.8773,32.2477,32.2477,0,0,1,6.6972-.3254,6.5755,6.5755,0,0,1,2.0675.2126c.6119.1876,1.2791.0517,1.9463.2035a2.9218,2.9218,0,0,0,2.2914-.1687c.0568-.0367.1554-.01.2346-.01a8.082,8.082,0,0,0,2.2656-.0455,8.5006,8.5006,0,0,1,2.1941-.1867c.7581-.0363,1.5206-.0358,2.2785.0024.45.0227.8912.18,1.3415.2209a7.4775,7.4775,0,0,0,1.3181.0011,16.135,16.135,0,0,1,1.7-.2146c.8024.0178,1.602.1585,2.4235.2489l.9769,1.9941c-.0877.408.2531,1.1013-.1824,1.7171.5063.5381.4266,1.3152.6959,1.964a5.5468,5.5468,0,0,0,1.2,2.3375c-.0718.5158.1443,1.1039-.1876,1.6821a9.2526,9.2526,0,0,0,2.0268,2.8,1.9334,1.9334,0,0,1,.5779,1.2067,1.7248,1.7248,0,0,0,.4544.995,8.4776,8.4776,0,0,1,1.5629,2.6038l2.8831-.3225.3689.51h1.026l.7254-.9895,2.1748.2981.4991-.499h1.2187l.4045.4431h4.6571l.3282-3.2125.9267-.9185c.0135-2.6671.0307-2.7845.5639-3.7107h5.312l.4562-.4939h1.0487l.352.3514c-.0031.7416-.8244,1.3328-.4555,2.1621.194.4006.57.3348.9232.3347q3.539,0,7.078,0h1.4308l.36.36c0,.4234-.0076.8614.0018,1.2991a2.6291,2.6291,0,0,1-.4583,1.86,1.4807,1.4807,0,0,0-.2759,1.0831,4.2809,4.2809,0,0,1-.1147.9368l.6076.9038v.6388c.4105.9915,1.059,1.9363.5174,3.0982-.092.1975-.0138.469-.0424.7029a2.3661,2.3661,0,0,1-.1448.6584,5.95,5.95,0,0,0-.5743,2.6431c.02.5168.0036,1.0351.0036,1.4483l-.4176.789c.38.66-.008,1.5588.6288,2.2122a5.4014,5.4014,0,0,1,.4546.6358c.2384.3486.6445.5234.8128.9843.1055.2886.5878.44.8962.6491v1.4805l.7827,1.1571c-.0766.4276-.2155.9853-.2666,1.551-.05.5543-.0109,1.1168-.0109,1.6659-.2057.2066-.3927.4175-.6066.5961-.0723.06-.2129.0387-.3111.0529a1.9084,1.9084,0,0,0,.4364,1.7664,2.5037,2.5037,0,0,0,.3829,1.8067,3.1857,3.1857,0,0,0,1.8984-1.219,11.5076,11.5076,0,0,1,2.3356.038,13.8159,13.8159,0,0,0,1.8274.2087,3.36,3.36,0,0,0,2.3442-.9372,3.1691,3.1691,0,0,1,1.9473.2445,6.9332,6.9332,0,0,0,1.8852.2084l.5791.6849a5.9964,5.9964,0,0,0,.2009,1.2252,2.3292,2.3292,0,0,1-.2928,1.8843,4.25,4.25,0,0,0-.4005,2c-.0113.5282-.2117,1.054-.21,1.58a6.2564,6.2564,0,0,0,.1735,1.9558,2.8214,2.8214,0,0,1-.2435,2.1439,23.2961,23.2961,0,0,0-.9028,2.1992c.1483.3568.5237.7839-.1871,1.2038a22.2647,22.2647,0,0,1-3.9372-.0473,33.2547,33.2547,0,0,0-4.8281-.1806c-1.6313-.0544-3.2659-.0121-4.9513-.0121a2.3025,2.3025,0,0,0-.2487.6381,9.3742,9.3742,0,0,1-.035,1.6729c-.2545,1.0067-.0365,2.0521-.2568,3.0165a15.9609,15.9609,0,0,0-.1694,4.1077c.0412,1.3856-.374,2.723-.27,4.1-.4958,1.6262-.1509,3.2932-.2289,4.94a10.3628,10.3628,0,0,1-.4312,2.2248,1.0632,1.0632,0,0,0-.0578.2152c-.056,1.2068-.1081,2.4138-.1679,3.7752l.6443.9491v1.2759a4.1441,4.1441,0,0,0,1.1407,1.29,11.1088,11.1088,0,0,1,2.7221,3.0464,4.7053,4.7053,0,0,0,.9156,1.0581,10.6962,10.6962,0,0,1,2.2491,2.4093,4.6484,4.6484,0,0,0,.8986.9258c-.1238.6966-.4638,1.1037-1.1045,1.0565a15.8667,15.8667,0,0,0-3.6344.5453,11.4148,11.4148,0,0,0-1.9344.23,5.8262,5.8262,0,0,1-1.9529.1946c-.4677.0046-.8374.363-1.3433.2657a2.3178,2.3178,0,0,0-1.3457.1988c-.4029.1695-.94-.1352-1.33.2641C428.0922,451.4115,427.2418,451.6372,426.5245,450.9642Z"/>
</svg>
