<svg id="Benin" xmlns="http://www.w3.org/2000/svg" width="792" height="612" viewBox="0 0 792 612">
    <defs>
        <style>.cls-1{fill:#fff;}</style>
    </defs>
    <path class="cls-1"
          d="M281.5885,236.6112a18.1908,18.1908,0,0,1-4.3246-3.0291l.3248-2.4453.6347-.5181v-1.36l2.0668-1.7221c1.0872.0544,1.0745-1.3918,2.0144-1.754.41-.1073.5881.2657.8571.49a5.63,5.63,0,0,0,1.8289-.2085c.3187-.1323.7983.1228,1.1434.1907l2.6389-2.6392a.9206.9206,0,0,1,.0876-.4014,1.8463,1.8463,0,0,1,.4107-.4221v-2.6959l.8618-.5495h.7233l1.5654-.8382c1.1574,1.3425,2.6412,2.2575,3.3282,3.9082h1.0445l.8753.9476a2.59,2.59,0,0,1-.3119,1.4879,3.0181,3.0181,0,0,0-.2027.9968l1.7973,2.4822a13.436,13.436,0,0,0,.1779,1.6514,2.6152,2.6152,0,0,0,.6673,1.172v1.3279c-.4519.4713-1.2724.51-1.6365,1.1538a5.7969,5.7969,0,0,0-.3236.965l.63.34-.3008,1.7376c-.4627.9076-1.693.63-2.1628,1.5834v.8141l-1.194,1.403v2.042l-.685.5342-1.9867.2429c-.086.54-.1788.9808-.2228,1.4264-.111,1.1246-.2515,2.2435-.2921,3.3791-.0208.5836-.29,1.1252.0238,1.7355a1.1646,1.1646,0,0,1-.0718.9068c-.3078.6174-.0553,1.2444-.1363,1.8587.4168.3437.18.8123.2284,1.2245s-.1975.7955-.0223,1.2509c.1427.3707-.0632.853.2659,1.2109-.1314.8428.2524,1.7241-.22,2.5516-.1035.1812-.0195.47-.02.71,0,1.2,0,2.4,0,3.6118l-.8654.837c-.4989,0-1.019.0026-1.539-.0007a4.403,4.403,0,0,0-1.5881.22c-.4531.1654-.9845-.1058-1.4707.2355-.2116.1485-.6141.025-1.01.025l-.5917-1.31.0965-.0534-1.1933-1.1934c0-.6222.0137-1.2627-.0042-1.9023-.0152-.5451.3643-1.0038.2627-1.5842a5.7356,5.7356,0,0,1-.007-1.5559c.0548-.5333-.2337-1.1106.1847-1.6a1.7459,1.7459,0,0,1-.1936-1.2026c-.0053-2.24.0138-4.481-.0084-6.7212a13.21,13.21,0,0,0-.3505-4.4624c-.256-.209-.5062-.6785-1.037-.8321a.51.51,0,0,1-.2768-.3517,12.3341,12.3341,0,0,1-.4981-2.44C281.6152,238.5531,281.5885,237.6318,281.5885,236.6112Z"/>
</svg>
