<svg id="Botswana" xmlns="http://www.w3.org/2000/svg" width="792" height="612" viewBox="0 0 792 612">
    <defs>
        <style>.cls-1{fill:#fff;}</style>
    </defs>
    <path class="cls-1"
          d="M418.5155,519.8927l-.4056-.4389c-.7133-.44-1.4551.6638-2.1238-.1924v-2.2183l2.1033-2.1032a11.6561,11.6561,0,0,0-.1531-3.1952l-.8562-.6884a2.6727,2.6727,0,0,0-.4878-2.9614,3.8188,3.8188,0,0,1-.62-1.4146,3.6548,3.6548,0,0,0-1.7256-2.2046c-.2459-.1873-.4783-.3926-.6546-.5382a6.5876,6.5876,0,0,1-.2616-1.2986,13.5793,13.5793,0,0,1,.2167-1.461,13.8538,13.8538,0,0,1,.1969-1.4706,14.5816,14.5816,0,0,0,.0589-2.5084,4.3937,4.3937,0,0,1,.2447-1.2156c.0686-.2.2981-.3459.4546-.516-.0327-.0327-.079-.0568-.0867-.09a7.885,7.885,0,0,1-.0275-3.1332c.0248-.1455.1307-.29.1165-.4272a22.2263,22.2263,0,0,1,.2537-3.62c.0139-.2394.2293-.5685.1356-.6908a.8358.8358,0,0,1-.1328-.67c.0516-.49.1556-.9738.23-1.4615s-.0988-.9788.2093-1.48c.1767-.2872.032-.772.032-1.2248.2071-.0921.4178-.272.612-.2558.5687.0474,1.1832-.232,1.7087.2149.07.0593.2331.0067.353.0084a5.81,5.81,0,0,1,1.5413.0526c.5009.15.908-.1515,1.3827-.0716a8.6732,8.6732,0,0,0,1.4707.0188,5.4616,5.4616,0,0,0,.3816-2.5643,11.8147,11.8147,0,0,1,.2316-1.4606c.08-.449-.1624-.9223.1929-1.3677.138-.173.0681-.5394.0405-.8124-.1753-1.74.3538-3.445.245-5.18.3807-.7769.0514-1.6565.2856-2.406.2053-.6573-.0373-1.3962.4293-1.9793.039-.0487.0129-.1567.004-.2357-.1834-1.62.3147-3.2027.2584-4.8206-.0237-.6832.1752-1.3712.2138-2.06a10.85,10.85,0,0,1,.0447-2.15,13.0891,13.0891,0,0,0,.2122-2.702l.3859-.3413c.8115,0,1.6889.0308,2.5626-.012.49-.024.98.1552,1.4859-.1848.3862-.26,1.0175.1968,1.4419-.2764.0359-.04.1538-.0061.2336-.0068a5.8246,5.8246,0,0,0,1.7094-.21c.4936-.152,1.0832.0649,1.5713-.27,1.2915.1376,2.4771-.5552,3.7606-.48a2.7584,2.7584,0,0,1,1.6188-.2428l.3676-.442H441.36c.5546.7888.7561,1.9021,1.71,2.4111V456.23l.9365.2972,2.4366-2.1061c1.2516-.3506,2.01-1.3377,3.1153-1.5648l1.1489.8766c.7962-.7646,1.3306-1.6848,2.5367-2.0551h2.0052a3.6372,3.6372,0,0,1,.4394.75,5.9411,5.9411,0,0,0,1.1688,2.17,4.862,4.862,0,0,1,.5058,1.6575,2.9765,2.9765,0,0,1,1.0688,1.5166,7.5,7.5,0,0,1,1.5114,2.4933c.4759.956.4831.9524.1684,1.8913.037.6645.8864.993.72,1.7415.4257.5411.0409,1.3011.6778,1.927a6.1018,6.1018,0,0,1,2.7165,2.2329,4.2165,4.2165,0,0,0,1.9047,1.38q1.0422.38,2.0767.78c.0682.0263.1147.1091.2237.2181a3.0634,3.0634,0,0,1,.0506,2.6783l.3654.3823h2.1951l.4325.6827.1339-.11v1.4429l-.6954,1.3187v1.5323l1.3112,1.5983.5941,2.3122c.7338.5469,1.54.3087,2.3.37.6673.6851,1.5295.412,2.2751.4816l2.4184,1.5315-.2456.95a2.0311,2.0311,0,0,1,.4055,1.8024,2.6374,2.6374,0,0,0-1.4026,1.5086c-.2365.6949-.9792.79-1.6013.9024a8.2614,8.2614,0,0,1-1.4369.0167,3.5812,3.5812,0,0,0-2.7744,1.377c-.5778.6585-1.2409,1.2421-1.8492,1.8425.0942.8339-.7066,1.0161-1.0118,1.5553h-1.2791l-.8542,1.13a16.65,16.65,0,0,0-2.2892.8895,17.1831,17.1831,0,0,0-2.0019,1.5354l-1.6505,4.1757-3.3954,2.5878c-1.2045-.0527-2.3652.8825-3.6264.7483l-.8768.5919a2.336,2.336,0,0,1-.277,2.3688c-.3642.6506-.6606,1.3288-.999,1.9855-.4549.883-.7687,1.9281-1.8527,2.3412-.1364.0519-.2294.2178-.3895.3779-.99.0228-2.04.1485-2.8955-.6917l-.8753.9509c-1.0672-.0424-2.1486.1938-2.974-.7264h-.9481l-1.169-1.1691-1.5.2816c-.6839-1.5585-2.2922-2.0729-3.3148-3.1651l-2.6063-.3217a11.056,11.056,0,0,0-1.8556,2.0953c-.0553.1-.2357.1933-.2215.2609.1515.72-.4552,1.0993-.7074,1.6346a2.0009,2.0009,0,0,0-.2552.6109,3.0764,3.0764,0,0,1-1.769,2.3675c-.1248.0759-.3069.0813-.4016.1786a2.21,2.21,0,0,1-1.1592.6991,1.5672,1.5672,0,0,0-1.1053,1.0576,10.4411,10.4411,0,0,1-.63,1.2051H424.33l-1.3268,1.425h-1.5483l-.3649-.3649a12.4071,12.4071,0,0,1-1.249.1528c-.2361.0065-.4772-.1562-.7131-.1489A2.0673,2.0673,0,0,0,418.5155,519.8927Z"/>
</svg>
