<svg id="Burkina_Faso" data-name="Burkina Faso" xmlns="http://www.w3.org/2000/svg" width="792" height="612"
     viewBox="0 0 792 612">
    <defs>
        <style>.cls-1{fill:#fff;opacity:0.65;}</style>
    </defs>
    <path class="cls-1"
          d="M249.92,235.8046c.4868.9333.0773,1.8642.294,2.7773l-.7019.4505c-.4685-.3451-.9058-.6441-1.3166-.9761-.4182-.3379-.81-.7082-1.0867-.9523a11.6182,11.6182,0,0,0-3.307-.3077,3.3948,3.3948,0,0,0-2.4068.962,2.447,2.447,0,0,0-2.5514,1.1363,1.6083,1.6083,0,0,1-1.5383-.4227h-1.3886a18.0132,18.0132,0,0,1-1.287-1.5159c-.3967-.58-.6834-1.2347-1.0345-1.8474-.2433-.4246-.5144-.8333-.7465-1.2063h-2.2545l-.3378-.3378.31-2.2665a1.33,1.33,0,0,0,.1738-1.67c-.1424-.2229-.0222-.6134-.0222-.9461l1.3446-.77a8.7938,8.7938,0,0,1,.3479-1.3668,2.38,2.38,0,0,0-.011-2.0872,3.3266,3.3266,0,0,1-.2319-1.7251l.87-.8279c1.3278.1132,2.5445-.5363,3.8871-.7679v-.5376c.5182-.4175.8374-1.002,1.4719-1.21v-1.4454l.4575-.4386.048-.86,1.1225-.5924a1.7756,1.7756,0,0,0-.2836-2.3126,1.2972,1.2972,0,0,1-.2921-1.4479,5.3863,5.3863,0,0,0,2.0992-1.6059c.8567-.2624,1.3068.3827,1.844.7557a12.5629,12.5629,0,0,1,1.2367,1.0976h1.106l.6434-.7h1.0068c.0707-.0707.128-.1171.1232-.1247-.5288-.8487-.055-1.78-.2545-2.624l.3282-.3282c.7648-.3141,1.2231.4451,2.0088.4256l.2224-.4594c.2087-.3492.0878-.7947.2377-1.2789a4.8108,4.8108,0,0,1,2.7142-2.9264,1.0164,1.0164,0,0,1,.9786-.0284c.533.2632,1.0584.5418,1.6407.8416.3778-.0436.9018.2054,1.2412-.35v-1.6881l.6871-.5766h1.7121a18.2786,18.2786,0,0,1,3.0827-1.7688c2.2634-.7,2.288-1.1157,3.7589-2.5548H267.84l.4138.526c1.6526-.6627,3.0663-.1217,4.4666.705a5.1467,5.1467,0,0,1-.4864,3.0085l1.66,1.4052c.1757.4963-.0707,1.1581.2218,1.8067.21.4654.4376.94.6553,1.4061a18.3565,18.3565,0,0,0,1.0127,1.69,3.2574,3.2574,0,0,1,2.4077.58,1.33,1.33,0,0,1,.5256,1.23l-.5265.4919.2151,2.6777a6.9739,6.9739,0,0,1,2.4361,1.32,17.4534,17.4534,0,0,1,2.0824,1.8285h2.4239l.4413-.6779h1.2285l.7847.8889v.666c-.2933.5459-1.3411.1763-1.1563,1.1472.62.7948,1.31,1.5755,1.8668,2.4417a1.2088,1.2088,0,0,1,.0832,1.4819,7.4857,7.4857,0,0,1-.8911,1.3021c-.4611.4436-.9071.903-1.4452,1.4411l-1.1883-.1794c-.877.5729-1.8577-.0165-2.8607-.406l-1.43,1.6974c-.2845.0914-.6375.2048-.9906.3178-.2269.8954-1.2513.9863-1.6346,1.65-.8177.1169-1.6126-.1659-2.3627.2437-.1577.0861-.4547-.0178-.6618-.0994a3.8287,3.8287,0,0,0-2.058-.34l-.3914-.5026h-1.93l-.9454-.506a4.9223,4.9223,0,0,0-1.764.994c-.6.381-1.1664.746-1.8891.28-.1152-.0742-.3032-.0394-.4579-.048a2.3391,2.3391,0,0,1-1.3529-.2226.8167.8167,0,0,0-.7-.0037,5.7466,5.7466,0,0,1-2.5487.21c-.3219.0164-.6951-.2844-.9726-.2008a16.0678,16.0678,0,0,1-4.2279.2055c-1.4382.05-2.88.0211-4.3193.0045-.4083-.0047-.8156-.0874-1.3864-.1532l-.48.6918v.9079a2.5243,2.5243,0,0,0-.1281,2.9218,2.7581,2.7581,0,0,1,.5736,2.0381A3.3167,3.3167,0,0,1,249.92,235.8046Z"/>
</svg>
