<svg id="Burundi" xmlns="http://www.w3.org/2000/svg" width="792" height="612" viewBox="0 0 792 612">
    <defs>
        <style>.cls-1{fill:#fff;}</style>
    </defs>
    <path class="cls-1"
          d="M494.027,347.2132l-.5269-.8895v-1.5545l-1.2527-1.6092a13.6638,13.6638,0,0,0,.277-1.454,11.3035,11.3035,0,0,0,.0052-1.6766,3.9509,3.9509,0,0,0-.2122-1.951.7186.7186,0,0,1,.1323-.77c.1262-.15.0818-.4434.123-.735-.556-.6168-1.4192-.9918-1.7591-1.9855l.9047-1.4045,1.27.5742v.8283l.4284.4283,3.51-.3613c.3765-.0307.4357-.64.8911-.9815a3.2262,3.2262,0,0,1,.5067-2.02H499.86c.6588-.18,1.1263-1.2256,1.9508-.5229.405,1.5309-.4125,2.8056-.6883,4.1729l.71.6181h1.08l1.3815,1.0355v1.038c-.1346.1047-.2913.3285-.4361.321a.9421.9421,0,0,0-.9749.6974,2.2752,2.2752,0,0,1-1.0632,1.2351,1.9845,1.9845,0,0,0-.7538.988c-.27.8894-1.0208,1.4913-1.3128,2.3345a10.1326,10.1326,0,0,1-1.3516,2.1943,4.3908,4.3908,0,0,1-2.007,1.45Z"/>
</svg>
