<svg id="Cameroon" xmlns="http://www.w3.org/2000/svg" width="792" height="612" viewBox="0 0 792 612">
    <defs>
        <style>.cls-1{fill:#fff;}</style>
    </defs>
    <path class="cls-1"
          d="M372.1218,295.56a2.0855,2.0855,0,0,0-1.4137-.8549,3.6817,3.6817,0,0,1-1.5451.4257c-.5191-.02-1.04,0-1.56-.0056a2.6773,2.6773,0,0,1-.9945-.2035,4.4114,4.4114,0,0,0-1.6867-.2906c-2.4392.037-4.8793.0154-7.356.0154l-.7969.9266H346.5226l-.8333-.4838a15.4475,15.4475,0,0,1,1.0975-6.1874l-.24-1.6618c-.7264-.2561-1.002-1.0954-1.6438-1.6422l.2093-.7373-1.1346-.842c.1117-.7838.1117-.7838,1.0018-.9784-.2967-.2967-.5444-.5862-.835-.8231a9.3572,9.3572,0,0,0-.8541-.5707l-.0882-.8906c-.3077.31-.61.4729-.6287.6634a.8561.8561,0,0,1-.549.7969l-2.4811-.9513a2.9428,2.9428,0,0,0-.2911-1.0307c-.2164-.2689-.2-.6051-.345-.8184a1.5251,1.5251,0,0,1,.0517-1.653l-.8818-.764-.907.1761-.61-.713v-1.1165c1.3877-2.1292,1.78-1.7734,1.6653-4.8068l.549-.5895-.6368-1.5488c1.0266-.926,2.0925-1.7479,2.9819-2.73.86-.95,1.8651-1.7375,2.7222-2.6808.32-.1029.7307.14.9734-.2547l.4981-1.6111.77-.1144.9938-1.1519h.64l.4433.4433h2.5131l.5543-1.1732c1.3571-.03,1.6254,1.0608,2.1606,1.8885h.7673l.3929.3929a2.2409,2.2409,0,0,0,.5447,1.9794,6.4145,6.4145,0,0,1,.841.1345c.5811.1661,1.1409.1139,1.3776-.3569a10.0933,10.0933,0,0,1,1.2243-1.4459l.2678-.8315c-.3016-.2173-.1586-.5926-.1693-.9806.752-.5862,1.856-.7255,2.415-1.7539l-.7813-.9255a5.8207,5.8207,0,0,1,1.754-2.5816c-.3073-1.2562.4838-2.1407,1.1589-3.0778v-1.1864l.5575-.5866a3.7558,3.7558,0,0,1-.3016-.6808,2.7163,2.7163,0,0,1-.0112-.6531c.376-.5525,1.2365-.2762,1.4437-.9864v-.4732l.35-.35h1.2441c.2215-.2352.4841-.4823.7093-.76A3.1131,3.1131,0,0,0,368,243.8311a9.8248,9.8248,0,0,1,.172-2.3122c.1374-.6237.6005-.9574.7437-1.5389H369.99l.9277-1.0709-.3246-3.29,1.3047-.4068a1.9738,1.9738,0,0,0,.6239-1.7462A17.62,17.62,0,0,1,372.8,231.38l2.8729-4.8944c.3206,0,.638-.0989.7786.0169.6412.5281,1.0684.035,1.5016-.2823a8.8309,8.8309,0,0,0,.9475-.9285h.7225l1.0787-1.1246c-.0708-.3307.1475-.7789-.2165-1.2126a.8284.8284,0,0,1-.006-.699c.4224-.9893.1222-2.021.24-2.95l-1.4547-1.4534c-.5192-.0543-1.12-.4745-1.747-.1955l-.4114-.4114c0-.344.0031-.702-.0008-1.06a2.1514,2.1514,0,0,0-.222-1.2313,1.9112,1.9112,0,0,1-.2407-.97,4.2364,4.2364,0,0,0-.2359-.9852c-.0424-.1817.124-.4122.2014-.6357h1.8561l.7369.737.21,1.9393,2.1272.7833a8.492,8.492,0,0,1,.5786,3.8992c.24.1052.4443.1936.6475.2833.1694.0748.3382.151.5039.225a16.99,16.99,0,0,1,.3414,2.305,14.2138,14.2138,0,0,0,.2419,2.1475c-.7588.574-.2867,1.5039-.7006,2.1835a4.3343,4.3343,0,0,1,.649,3.0372c.7315.8174.7571,1.9872,1.5411,2.8445.72.7876,1.2715,1.7434,2.146,2.5458l-.2775.7336a1.7308,1.7308,0,0,1-1.6612-.4766c-.4536.0893-.9731.2-1.4959.2921a6.7964,6.7964,0,0,0-1.6017.1884,2.5641,2.5641,0,0,1-1.5918-.096,16.4166,16.4166,0,0,0-2.8443-.41c-.8454.7934-1.085,1.9874-2.0905,2.5088v.8034c.0474.0536.12.1442.2013.2259.5077.51,1.0311,1.006,1.5236,1.5307.9153.9753,1.78,2,2.7293,2.9408a5.7645,5.7645,0,0,0,2.29,1.4006,4.6714,4.6714,0,0,1,2.3444,1.9667,11.9771,11.9771,0,0,1,.9687,1.7547,11.624,11.624,0,0,1,.8133,1.8205,9.67,9.67,0,0,0,.8736,2.16c.1159.1977.258.38.4474.6557v1.13a3.0389,3.0389,0,0,0-.4034.7152,1.4793,1.4793,0,0,1-.7149.864,3.0407,3.0407,0,0,0-1.5311,2.0352c-.0984.4858-.3848.9491-.4622,1.4859a1.1906,1.1906,0,0,1-.7232,1.0594,1.7887,1.7887,0,0,0-.5515.4386l-1.2416,3.1729c-.8659.5784-2.05.8865-2.6775,1.9479.1218.9713,1.1672,1.1027,1.6807,1.8614l-.2575,3.1954-.4951.4951c.1714.5925.7944.7471,1.1707,1.2575-.156,1.0675.3606,2.1449.2653,3.2937a1.7184,1.7184,0,0,0,.4622.99,11.8637,11.8637,0,0,0,1.0424,1.0638l.5284.0484.7491.7492.2674,1.9813-.4912.5963a16.1016,16.1016,0,0,0,2.0821,2.8726c1.0864,1.1191,2.2059,2.2061,3.3014,3.3164a9.284,9.284,0,0,1,.6065.7643h.7836l1.2,1.2058v2.6322a7.62,7.62,0,0,0,.01.9587,1.7254,1.7254,0,0,0,.2407.7347,1.9043,1.9043,0,0,1,.22,1.2544c-.3482.6786-.7562,1.2249-.2811,1.9807a.7742.7742,0,0,1-.3,1.0684H391.4l-.7444-.8423a11.2958,11.2958,0,0,0-3.7852-.5585l-.651-.579-.63.5871-1.487-.3474-.3818-.3817h-.7516l-.3387-.4944a15.2129,15.2129,0,0,1-2.52-.0212C377.47,295.3551,374.8137,295.7784,372.1218,295.56Z"/>
</svg>
