<svg id="Central_African_Republic" data-name="Central African Republic" xmlns="http://www.w3.org/2000/svg" width="792"
     height="612" viewBox="0 0 792 612">
    <defs>
        <style>.cls-1{fill:#fff;}</style>
    </defs>
    <path class="cls-1"
          d="M431.6223,278.9712c-.6676-.4568-1.2577-.8731-1.863-1.2659-.15-.0972-.4028-.219-.5178-.1582-.9046.4786-1.8629.0639-2.73.26l-.3931-.3931v-.9519a12.8371,12.8371,0,0,0-4.4141-2.9867l-.8068-.9416-2.4174-.3465c-1.19.588-1.824,1.8147-3.0727,1.9953a7.85,7.85,0,0,1-1.5725,2.2943,2.1264,2.1264,0,0,0-.6837,1.4265l-.6167.58h-1.0216a2.6589,2.6589,0,0,0-.2589.6786c-.0176.1558.1317.3373.2233.4974a4.0571,4.0571,0,0,1-.1658,4.1947l-2.2394,1.0692c-.4313.1788-.5786-.25-.87-.44h-1.8941l-.4521-.4521h-1.7128l-.434-.6038a4.0671,4.0671,0,0,0-1.0685.4471,2.9954,2.9954,0,0,1-1.91.6249,25.5624,25.5624,0,0,0-3.135.2606c-.5223.09-1.1727.2731-1.1444,1.1253a3.7274,3.7274,0,0,1-.8214,2.1023c.11.6056-.1991,1.3079.2328,1.97a.7361.7361,0,0,1,.0034.587,14.1137,14.1137,0,0,1-1.4791,3.2678h-.83l-.3286-.3286c.0992-1.0634-.2224-2.1756.2979-3.2284-.7132-.9189-1.2233-2.01-2.6292-2.2223-1.2553-1.2556-2.5922-2.5732-3.9039-3.9155a8.55,8.55,0,0,1-1.1738-1.434,4.0421,4.0421,0,0,1-.3193-1.1367l.572-.572-.5078-.1855v-1.6967a5.404,5.404,0,0,0-1.8163-1.3763c-.4077-.14-.6906-.6437-1.0818-1.0348a16.4988,16.4988,0,0,0-.4265-4.2614l-.8451-.5412a6.814,6.814,0,0,0,.19-4.9c-.2321-.268-1.1464-.1076-1.0652-1.0978.4868-.4135.8635-1.1026,1.7695-1.0685l.838-.9691a3.9547,3.9547,0,0,1,.9635-2.4079,6.5057,6.5057,0,0,0,1.7106-3.2734,10.26,10.26,0,0,1,.3606-1.0377l2.2937-2.1306h1.0829l.4468.4468c1.2135.0076,1.2135.0076,2.4106-1.1895a5.0321,5.0321,0,0,0,1.1619-.02,5.18,5.18,0,0,0,1.0878-.5759c.254-.3282.1734-1.1684,1.1544-1.0749l1.5818,1.9012h.7968l.5795-.6911h1.09c.1726-.4479.3324-.8552.911-.7334l1.0421-1.1246,1.7625-.4205.4987-.62a1.223,1.223,0,0,1,.35.004,2.4192,2.4192,0,0,0,2.0876.0077,2.76,2.76,0,0,1,1.5744-.2493c1.0281.1662,1.9988-.3467,2.94-.25.9167-.2733.5116-1.7823,1.83-1.6651l1.2727-1.58c-.1013-.8169.89-1.0385.935-1.9352l-1.4079-1.16c-.0386-.4864.0786-.7359.5164-.8643a7.8306,7.8306,0,0,1,2.8047-.4807,14.0126,14.0126,0,0,0,2.5162-.0071,3.3981,3.3981,0,0,0,2.4247-.9341c.9771-.1605,2.0652.7377,3.1142-.2212l.5093-.9977c.0648-.0648.1113-.1476.1795-.1737a6.2824,6.2824,0,0,0,1.4409-.5583,7.3958,7.3958,0,0,0,1.0473-1.21c.2378-.2693.5058-.5118.7263-.7323l.383-1.3339,1.3064-1.229H431.6c.1741-.3776.3647-.74.51-1.12a1.2447,1.2447,0,0,1,.8414-.8367c.4309-.17.8729-.2358,1.1231-.8062a1.6283,1.6283,0,0,0,.0416-1.4112,4.3023,4.3023,0,0,1-.1072-1.1362,7.5308,7.5308,0,0,0,2.2718-1.1955c.7206-.4772,1.4657-.9174,2.3137-1.4445.4924,0,1.132-.0391,1.7644.0116.5669.0455,1.1259.19,1.7936.3094a8.2216,8.2216,0,0,0,2.0878,2.1187,14.0592,14.0592,0,0,1,3.2413,4.0411c.3382.553.7486,1.0618,1.23,1.7357l-.3366,4.6224-1.128,1.0569V242.37c.402.1762.87.3446.6749.995l-.414.414.512.892a11.3158,11.3158,0,0,0,2.0546-.2073A2.2432,2.2432,0,0,1,451.9,244.6c.2721.154.6854.0585,1.06.0775l.3264.5953-.7849,1.2863a1.54,1.54,0,0,0,1.5788,1.4368c1.1959.1535,2.4044.2082,3.2412.2753a1.5932,1.5932,0,0,1,1.4156,1.1013c.2222.554.745.7978,1.0506,1.26h.7331l.8594.9717v.6692l-.7358.5913.3516,1.0764a2.1873,2.1873,0,0,1,1.2052,1.221,14.3238,14.3238,0,0,1,1.7111.7972,3.8247,3.8247,0,0,0,1.1307.4737,6.1522,6.1522,0,0,1,2.5276,1.9513,4.8573,4.8573,0,0,0,1,1.0073c.3991.3.7812.6225,1.18.943.2492.6223-.4885.9872-.4292,1.6377.2026.646,1.0654.6636,1.4222,1.3559-.0624.298.19.7513-.2589,1.151l1.093.8068h1.4857l.8537,1.0379c.43.2493,1.2841.0943,1.8378.7187.459.5176,1.0514.9288,1.2,1.496l-.2761,2.2223-2.9454,1.49-.63-.2463a2.1793,2.1793,0,0,1-1.4453.5223L468.764,270.99a4.0347,4.0347,0,0,1-2.1783.2879l-2.5882-1.2137-1.1414.3637-.49.5463V272.38l-.758.5907c-1.1878-.3188-2.3232.5386-3.6666.7529a4.9876,4.9876,0,0,0-2.2647-1.6346c-.0726.0726-.3134.2009-.3611.38-.2127.8014-.9715.9677-1.54,1.1868-1.3788.5313-2.7442,1.1022-4.1323,1.6129a11.59,11.59,0,0,0-1.79,1.0729l-1.8752-.8109-.1287.1742-1.1859-1.3819a5.4649,5.4649,0,0,0-1.4909,1.7865c-.3055.4166-.4445.9392-1.0212,1.1219-.1692.0536-.287.2693-.4284.4107a2.6212,2.6212,0,0,1-.848,2.2881,6.8136,6.8136,0,0,1-1.4322-.0322,2.2033,2.2033,0,0,1-.6143-.2291,4.4332,4.4332,0,0,0-1.3505-.5252,6.2292,6.2292,0,0,0-2.966-.1916C433.5225,279.0492,432.5153,278.9712,431.6223,278.9712Z"/>
</svg>
