<svg id="Chad" xmlns="http://www.w3.org/2000/svg" width="792" height="612" viewBox="0 0 792 612">
    <defs>
        <style>.cls-1{fill:#fff;}</style>
    </defs>
    <path class="cls-1"
          d="M376.3775,238.7522v-.5493l1.7251-2.0827a7.4062,7.4062,0,0,1,3.1618.4,1.247,1.247,0,0,0,.9225.0234c.45-.3041.906-.1616,1.358-.2163a3.8058,3.8058,0,0,0,1.1255-.1777,1.3734,1.3734,0,0,1,1.4478.1665,1.74,1.74,0,0,0,1.3716.2415l1.4808-.8021c-.3158-.1724-.517-.286-.7216-.3932a6.33,6.33,0,0,1-1.7557-1.5376c-.3688-.4205-.5651-1.0037-.9626-1.3846a3.7866,3.7866,0,0,1-.756-1.4981c-.0994-.2407-.23-.4685-.4671-.9451a4.4063,4.4063,0,0,0-.8114-3.0768l.3186-.6341v-1.12l.4706-.4454-.5139-4.646-1.02-.7409-.6479-3.2933c-.5238-.8125-1.5764-.87-2.3521-1.3669v-1.577a6.0845,6.0845,0,0,0-1.6033-1.1987,6.707,6.707,0,0,0-2.0717-.048,7.8889,7.8889,0,0,1-2.25-2.9482,16.4043,16.4043,0,0,0-1.2618-1.5125,36.7787,36.7787,0,0,0-1.1236-4.215,6.6284,6.6284,0,0,1-.15-1.3881l1.2441-.3741.9643-1.8123a3.0952,3.0952,0,0,1,.2348-1.5691,3.9657,3.9657,0,0,1,.4514-.8855,22.4114,22.4114,0,0,0,2.1878-3.0616,3.1967,3.1967,0,0,0,.7852-1.5984,1.1592,1.1592,0,0,1,.3289-.5765q1.0452-1.194,2.1178-2.364c.9563-1.0464,1.99-2.03,2.8649-3.1405.9427-1.1965,2.0174-2.2686,2.9362-3.4475a12.2015,12.2015,0,0,1-.131-3.4715,14.2571,14.2571,0,0,1,.1267-3.66,15.1456,15.1456,0,0,1-.137-3.461c-.0338-1.1984-.0075-2.3986-.0075-3.5945.1449-.1449.2863-.2863.4282-.4278a2.166,2.166,0,0,1-.1-1.7649,2.7,2.7,0,0,0,.1458-.8944c.0167-1.04-.0225-2.0809.0192-3.1192.02-.4883-.247-1.0378.2182-1.4647-.4679-.4239-.1184-.9746-.24-1.3991a8.8546,8.8546,0,0,0,1.6143-3.5112L384.04,153.01l.1778-1.2647a15.1794,15.1794,0,0,0-3.2972-4.3585,15.5716,15.5716,0,0,1,.1621-2.9513l-.3833-.3833c.1624-1.6078-.7017-3.0312-.9983-4.5806-.0311-.1625-.268-.2857-.3731-.3908l-.3519-2.4871c1.2582-1.0489,2.825-1.5079,4.2833-2.3661.1637-.9341,1.2352-.8218,1.9836-1.34a3.6181,3.6181,0,0,1,2.4716.9379c.4835.3018.8565.77,1.4961.7451,1.3006.9009,2.8923,1.1224,4.2841,1.831a6.0381,6.0381,0,0,1,1.9668,1.0535c.7784-.1657,1.3874.3535,2.0108.6311a18.1974,18.1974,0,0,0,2.2033,1.0618,11.936,11.936,0,0,1,1.0931.5422c1.43.6014,2.88,1.16,4.28,1.8347a22.4483,22.4483,0,0,0,2.2432.9548c.7713.2727,1.4758.6938,2.2154,1.0225a21.6067,21.6067,0,0,1,2.6975,1.3182c.8177.5093,1.7566.7863,2.5684,1.3426a8.944,8.944,0,0,0,1.6568.6178,14.155,14.155,0,0,1,3.4186,1.6042c.1638.1255.4353.0994.6408.1831a31.0653,31.0653,0,0,1,4.38,2.1818,16.7164,16.7164,0,0,0,2.4467,1.0361c.48.1932.9736.3532,1.4532.5475.515.2087.8587.7724,1.4985.7273a3.5508,3.5508,0,0,0,1.3313.8433c.4531.25.9283.46,1.3962.6833a20.8606,20.8606,0,0,0,2.4269,1.09,14.27,14.27,0,0,0,2.4764.984,1.6306,1.6306,0,0,1,.59.3039c1.285.8261,2.7644,1.2725,4.0579,2.0825.3149.1972.6491.3634.9732.546.0978.055.197.1759.2861.1673.8577-.0823,1.344.4943,1.9487,1.11-.3077,1.5534.6185,3.1708.0534,4.85l.4092.4091c0,.467-.0194.9463.0036,1.4236a34.1139,34.1139,0,0,0,.2823,4.3322c.1608.9012.0331,1.8028.2222,2.6624.2139.9724.0461,1.9683.2574,2.8961a11.2827,11.2827,0,0,1,.1866,2.311,12.3829,12.3829,0,0,1,.2714,1.8229,2.2274,2.2274,0,0,0,.2114,1.7016c.0383.0513.0119.1568.0041.236-.1877,1.8974.3717,3.7635.2326,5.6627l-.3652.3651c-.6116-.1323-1.3046.2145-1.9256-.2327-1.12.85-2.4518.7095-3.8945.6858-.2332.2581-.5381.57-.8124.9064-.26.3193-.4883.6647-.714.9758l.7819,1.235-.3463,1.3938a6.8912,6.8912,0,0,0-1.9425,3.6843c-.5962.3671-1.4842.3569-1.8923,1.3148l.5469.2543V200.94l.9777,1.274a.6411.6411,0,0,1-.579.7644,3.5113,3.5113,0,0,0-2.5724,2.53,9.3493,9.3493,0,0,1,1.5084,3.3542c-.5943.1752-.425,1.2319-1.35,1.0635-1.2758,1.1937-2.1379,2.5072-1.1533,4.4029l.9387.3539,2.3147-.52.6432.7838c-.2355,1.418.6572,2.5441,1.4326,3.8536v3.4849c.8159.7261,1.4164,1.8315,2.7615,1.5542l.3663.3663a4.7557,4.7557,0,0,1-.5527,3.0181l-3.0825-.2879c-.8811.4535-1.4972.7277-2.0678,1.0762-.5811.3548-1.098.8146-1.6789,1.17-.5722.35-1.3391.37-1.7716,1.1544a8.7289,8.7289,0,0,1,.2669,1.0941,9.1734,9.1734,0,0,1,.011,1.18l-.3563.3563h-.7378a6.7962,6.7962,0,0,0-.813.8539,4.9984,4.9984,0,0,0-.4167.9428,3.5953,3.5953,0,0,0-2.7281,2.49,3.8818,3.8818,0,0,1-.5635.964c-.2169.3122-.5448.5139-.7059.9091a.9709.9709,0,0,1-.8173.59,2.4741,2.4741,0,0,0-1.1131.4692c-.3357.2356-.7392.4878-.6456,1.0414.0163.0966-.1933.2314-.3339.3878a4.5922,4.5922,0,0,1-2.1721-.2671,5.0469,5.0469,0,0,0-.698.27c-.2315.1278-.41.3936-.6494.4562a7.7654,7.7654,0,0,1-1.5766.2464,17.574,17.574,0,0,1-2.3981-.0041,5.5525,5.5525,0,0,0-2.6735.5148,9.1358,9.1358,0,0,0-1.4812.9733v.6566a4.988,4.988,0,0,0,1.0752.4908c.5033.1046.6369.3752.6162.6631-.4414.6916-.8525,1.2412-1.1562,1.8449a1.594,1.594,0,0,1-.8272.881,2.6136,2.6136,0,0,0-1.5611,1.5219,7.9884,7.9884,0,0,1-3.0269.3921,2.1623,2.1623,0,0,0-1.1107.2147,3.99,3.99,0,0,1-2.4769.13,4.9164,4.9164,0,0,1-1.4448.6472,4.5751,4.5751,0,0,0-2.8218,1.847h-1.3109l.048.1338-1.3148.6894-1.5312-1.5313v-.6878a1.8457,1.8457,0,0,0-1.3656.8132c-.1218.13-.1512.3441-.266.4844-.1765.2156-.39.4006-.5968.6071H392.59l-1.3729,1.4327a3.0428,3.0428,0,0,1-2.554-.7629V252.79a1.7836,1.7836,0,0,1-1.2143-1.4184,9.3729,9.3729,0,0,0-.7033-1.757c-.3561-.7183-.7093-1.4615-1.0159-2.2151a4.1427,4.1427,0,0,0-.4738-.7632,5.994,5.994,0,0,0-2.5334-2.1339,6.1663,6.1663,0,0,1-2.39-1.465C379.0339,241.6542,377.7576,240.25,376.3775,238.7522Z"/>
</svg>
