<svg xmlns="http://www.w3.org/2000/svg" width="792" height="612" viewBox="0 0 792 612">
    <defs>
        <style>
            .cls-1{fill:#fff;}.cls-2{fill:none;stroke:#b2b2b2;stroke-linecap:round;stroke-linejoin:round;stroke-width:1.9201px;}
        </style>
    </defs>
    <g id="bounds">
        <path class="cls-1"
              d="M372.49,358.918h-1.68a2.5,2.5,0,1,1,0-5h.1416a2.5307,2.5307,0,0,1,.065-.4756l.0063-.0244a2.5,2.5,0,0,1,.1914-1.7207l.24-.4795a2.5024,2.5024,0,0,1,1.1162-1.1153l.48-.24a2.4929,2.4929,0,0,1,1.0039-.2617,2.4538,2.4538,0,0,1,.4331-.1592c.0615-.0166.1235-.03.186-.042a2.5026,2.5026,0,0,1,1.4824-1.5566l.0943-.125a2.4966,2.4966,0,0,1,1.6889-.9805l1.6744-.21.4853-.1611a2.4758,2.4758,0,0,1,.791-.1289h.48c.0859,0,.1714.0049.2564.0127a2.5081,2.5081,0,0,1,.3759-.4805l.24-.24a2.5185,2.5185,0,0,1,.3964-.3232l.0108-.0157a2.5021,2.5021,0,0,1,.9619-.85l.1333-.0742.0537-.1611a7.1761,7.1761,0,0,1,2.42-2.0166l.1157-.2315a2.4914,2.4914,0,0,1,.4659-.6455l.24-.24a2.4905,2.4905,0,0,1,.8985-.5772,2.453,2.453,0,0,1,.56-.2685l.72-.24a2.46,2.46,0,0,1,.5616-.1181l.1543-.3086c.0283-.0576.059-.1133.0922-.168l.4258-.71a2.5,2.5,0,0,1,.916-1.4278l.0137-.0205a2.4865,2.4865,0,0,1-.0317-.3965v-3.84a2.5032,2.5032,0,0,1,.24-1.0684v-.3642l-.1914-.958a2.4986,2.4986,0,0,1-.0483-.4893v-1.44a2.5,2.5,0,0,1,.73-1.7657l.72-.72a2.4882,2.4882,0,0,1,.65-.47l.1181-.06.4458-.5049a2.53,2.53,0,0,1,.4195-.5986l.2993-.5986a7.553,7.553,0,0,0,.7719-1.4131,5.7573,5.7573,0,0,1,.897-1.6377l.3047-.3057.3428-.5127a2.4769,2.4769,0,0,1,.3144-.3838l.7188-.7177a2.4376,2.4376,0,0,1,.4795-.375l1.1992-.7207a2.4943,2.4943,0,0,1,1.1758-.3545c.0205-.0108.042-.02.0644-.03l1.4-1.4a2.3392,2.3392,0,0,1,.2461-.2158l.3789-.5684a2.4959,2.4959,0,0,1,1.2246-1.3642l.1182-.0586.5469-.5469.6133-.8184a2.452,2.452,0,0,1,.2343-.2695l.9805-.9805.4951-1.8378.19-1.14v-.5127a2.4979,2.4979,0,0,1,.24-1.0693v-1.0908a2.5007,2.5007,0,0,1,.5-1.5l.72-.96a2.3757,2.3757,0,0,1,.2324-.2681l1.6787-1.68a2.545,2.545,0,0,1,.2686-.2334l.8769-.6567,2.0821-1.8516a2.4754,2.4754,0,0,1,.2744-.2114l.72-.48a2.5326,2.5326,0,0,1,.5088-.2607l1.8418-.69,2.5625-1.1646a2.4858,2.4858,0,0,1,.3477-.1279l1.456-.416.752-.376a2.5,2.5,0,0,1,1.1181-.2642h.8926l1.6211-.4053a2.4907,2.4907,0,0,1,.6064-.0747h.7207c.0831,0,.1661.0039.2491.0122l1.9668.1968.5381-.1343a2.4827,2.4827,0,0,1,.6054-.0747h.4131l.3154-.0791a2.5006,2.5006,0,0,1,1.2608-.6069l1.44-.24a2.4622,2.4622,0,0,1,.4111-.0342h1.0342l.3369-.1118a2.4348,2.4348,0,0,1,.2979-.0791l1.1992-.24a2.48,2.48,0,0,1,.4912-.0488h2.4a2.4861,2.4861,0,0,1,.6065.0747l.96.24a2.5077,2.5077,0,0,1,.78.3452l.72.48c.0381.0254.0762.0523.1123.08l.961.72a2.3877,2.3877,0,0,1,.2558.22h.1651a2.5065,2.5065,0,0,1,1.12.2646l.4795.24a2.4071,2.4071,0,0,1,.2656.1548l.7207.48a2.4907,2.4907,0,0,1,.7578.7944l.6543,1.0894.5352.7153,1.0732,1.0728a2.4785,2.4785,0,0,1,.3135.3823l.5957.8926a2.6841,2.6841,0,0,1,.2383.1538,2.4984,2.4984,0,0,1,1.0839.2642l.0245.0122a2.5,2.5,0,0,1,1.2041.5659l.7422.2964c.0644.0259.1269.0542.1894.0854l.48.24a2.5,2.5,0,0,1,.6533.4716l.7041.7046h.1641a2.4988,2.4988,0,0,1,1.7636.7285l.31.3081.7275.4854,1.5557.1728a2.5023,2.5023,0,0,1,.9375.2994l2.16,1.2a2.5167,2.5167,0,0,1,.5537.4179l1.2,1.2a2.5011,2.5011,0,0,1,.6923,1.32l.48,2.64a2.5089,2.5089,0,0,1-.0078.9355l-.2392,1.2a2.5009,2.5009,0,0,1-.5,1.0733l-.2852.3564.0244.1651,2.9063,5.3671a2.4959,2.4959,0,0,1,.3017,1.19v2.16a2.5016,2.5016,0,0,1-.0488.49l-.65,3.2529.1973,2.3613.2256,1.0176a2.5,2.5,0,0,1,.9629,2.4092l-.6172,3.6982.8672,1.7344a2.493,2.493,0,0,1,.2041,1.6592l-.24,1.081,1.0283,1.1563,1.0088.5039a2.4967,2.4967,0,0,1,.8828.7363l.3.3994.5488.22a2.5,2.5,0,0,1,1.1513.9345l.96,1.44a2.4543,2.4543,0,0,1,.291.5957l.7207,2.16a2.4753,2.4753,0,0,1,.1289.791v.4473a2.5,2.5,0,0,1,.3291,2.3271l-.96,2.64a2.5,2.5,0,0,1-4.6992-1.709l.497-1.3672a2.5,2.5,0,0,1-.167-.8984v-1.0332l-.4863-1.458-.3437-.5166-.4795-.1914a2.5044,2.5044,0,0,1-1.0713-.8213l-.3653-.4873-.9121-.4561a2.5017,2.5017,0,0,1-.7509-.5752l-1.92-2.16a2.513,2.513,0,0,1-.3691-.545l-.2393-.4794a2.503,2.503,0,0,1-.2031-1.6583l.2871-1.2939-.5635-1.1279a2.43,2.43,0,0,1-.1347-.3252l-.24-.72a2.4925,2.4925,0,0,1-.0947-1.2032l.4785-2.8711a2.5051,2.5051,0,0,1-.4531-.9756l-.48-2.16a2.4249,2.4249,0,0,1-.0508-.334l-.24-2.8809a2.5006,2.5006,0,0,1,.04-.6982l.6709-3.3564V323.21l-2.8183-5.2041a2.47,2.47,0,0,1-.2764-.8379l-.2392-1.68a2.4993,2.4993,0,0,1,.5224-1.9141l.5791-.7246.0274-.1357-.2549-1.4024-.4-.4-1.4151-.7871-1.6611-.1845a2.4946,2.4946,0,0,1-1.11-.4043l-1.44-.96c-.0293-.0195-.0576-.0391-.0859-.06h-.6875a2.4987,2.4987,0,0,1-2.3711-1.709l-.0948-.1894-1.1035-.4414a2.5121,2.5121,0,0,1-.4228-.2173c-.0684-.0259-.1367-.0547-.2031-.0859a2.5047,2.5047,0,0,1-.6739-.1255l-.7207-.24a2.4977,2.4977,0,0,1-.93-.5566l-.1171-.0586a2.4948,2.4948,0,0,1-.9639-.8506l-.8223-1.2334-1.0254-1.0254a2.4475,2.4475,0,0,1-.2334-.2685l-.72-.9605c-.0508-.0683-.0986-.14-.1426-.2129l-.4238-.706h-.3125a2.498,2.498,0,0,1-1.3857-.4195l-.7207-.48a2.5157,2.5157,0,0,1-.3838-.3145l-.1123-.1128-1.0655-.7729-.24-.0606H438.26l-.8047.1611-.5742.191a2.4931,2.4931,0,0,1-.7891.1279h-1.2324l-.55.0918c-.07.0444-.1436.0859-.2178.1235l-.4795.24a2.5355,2.5355,0,0,1-.5137.19l-.96.24a2.4861,2.4861,0,0,1-.6065.0747h-.4131l-.6621.1651a2.4678,2.4678,0,0,1-.8545.0625l-2.5634-.2276-1.6211.4053a2.4922,2.4922,0,0,1-.6065.0747h-.61l-.4317.2158a2.4722,2.4722,0,0,1-.4316.168l-1.501.4287-2.4707,1.1231c-.0508.0234-.1035.0449-.1562.0649l-1.6514.6191-.3359.2237-2.03,1.8056c-.0518.0459-.1055.09-.1611.1314l-.8174.6128-1.542,1.58v.8466a2.498,2.498,0,0,1-.24,1.0694v.1308a2.5286,2.5286,0,0,1-.0341.4112l-.24,1.44c-.0107.0654-.0244.1309-.041.1953l-.24.96-.5,1.76a2.4993,2.4993,0,0,1-.6387,1.084l-1.3135,1.3125-.6123.8174a2.5249,2.5249,0,0,1-.2324.2676l-.96.96a2.3224,2.3224,0,0,1-.2568.2237,2.4279,2.4279,0,0,1-.2236.2568l-.0645.0654-.4277.7266a2.4993,2.4993,0,0,1-1.2285,1.168l-1.3994,1.4a4.345,4.345,0,0,1-2.2471.9716h-.0274l-.3652.2286-.3057.3056-.3408.5117a2.2921,2.2921,0,0,0-.459.6885c-.0312.0811-.0654.1621-.1045.24l-.2392.48-.0147.0283a2.5006,2.5006,0,0,1-.6962,1.3448l-.2627.333A2.5,2.5,0,0,1,398,328.17a2.4652,2.4652,0,0,1-.2207.253l-.9609.9609a2.4946,2.4946,0,0,1-.4668.3672v.0185l.19.958a2.4991,2.4991,0,0,1,.0488.4893v1.44a2.5023,2.5023,0,0,1-.2392,1.0683v2.1836a2.5028,2.5028,0,0,1,.2392,1.0684v.48a2.5125,2.5125,0,0,1-.2637,1.1182l-.24.48a2.4351,2.4351,0,0,1-.1553.2676l-.5654.9345a2.5051,2.5051,0,0,1-.4888.669l-.5131.8555-.6778,1.3544a4.2738,4.2738,0,0,0-3.5864,2.8067l-.4819.4824a2.4992,2.4992,0,0,1-1.7178.7315,2.3952,2.3952,0,0,1-.2.2265l-.7231.7236a2.5,2.5,0,0,1-.5308.4043l-.1157.1729a9.0758,9.0758,0,0,0-.793,1.1025l-.48.48a2.5129,2.5129,0,0,1-.6479.4668l-.6.3a2.4988,2.4988,0,0,1-1.7193.6856h-.24a2.5088,2.5088,0,0,1-1.1729-.292c-.0654.0137-.1308.0244-.1967.0322l-.8672.1084-.0835.1113a4.1553,4.1553,0,0,0-.9522,1.4678l-.96.96a2.4956,2.4956,0,0,1-1.149.6552c-.0127.0284-.0254.0577-.039.086v.1308a2.4992,2.4992,0,0,1-.732,1.7676l-1.44,1.44A2.5009,2.5009,0,0,1,372.49,358.918Z"/>
    </g>
    <g id="Congo_River" data-name="Congo River">
        <polyline class="cls-2"
                  points="370.81 356.418 371.29 356.418 372.49 356.418 373.93 354.978 373.93 354.498 373.45 354.018 374.17 353.778 373.45 352.818 373.69 352.338 374.17 352.098 374.89 352.338 375.13 351.858 375.85 352.338 376.81 351.378 377.05 350.177 377.53 350.177 378.25 349.217 380.171 348.977 380.891 348.737 381.371 348.737 381.611 348.977 381.851 349.217 382.091 349.217 382.331 348.977 383.291 348.497 383.771 348.017 383.771 347.537 384.011 347.297 384.251 347.297 384.731 346.577 385.211 346.337 385.451 346.097 385.691 345.857 385.931 345.617 386.171 344.897 386.411 344.897 386.891 344.657 387.131 344.417 387.371 344.417 387.611 344.657 387.851 344.657 388.091 344.417 388.331 344.177 388.331 343.937 388.331 343.697 388.331 343.457 388.571 342.977 388.811 342.737 389.051 342.737 389.291 342.497 390.011 342.257 390.491 342.257 390.971 342.017 391.211 342.017 391.451 342.017 391.691 341.537 392.171 340.577 392.891 339.377 392.891 339.137 393.131 339.137 393.371 338.657 393.851 337.937 394.091 337.457 394.091 337.217 394.091 336.977 393.851 336.737 393.851 335.777 393.851 335.537 393.851 334.817 393.851 334.337 393.851 334.097 393.851 333.857 393.851 332.897 394.091 332.657 394.091 332.417 394.091 331.217 393.851 330.016 393.851 329.776 393.851 329.536 393.851 329.056 393.851 328.816 393.851 328.576 394.091 328.336 394.331 328.096 394.571 327.856 395.051 327.616 395.291 327.376 395.531 327.136 396.011 326.656 396.251 326.176 396.491 326.176 396.491 325.936 396.971 324.976 397.211 324.736 397.451 324.496 397.451 324.016 397.691 323.776 397.931 323.296 397.931 323.056 398.171 322.816 398.171 322.576 398.651 322.096 399.131 321.376 399.611 320.896 399.851 320.656 401.051 319.936 401.291 319.936 401.771 319.936 402.011 319.696 402.251 319.696 402.491 319.456 402.971 318.976 404.171 317.776 404.411 317.776 404.651 317.296 405.131 316.576 405.371 316.336 405.371 316.096 405.851 315.856 406.811 314.896 407.531 313.936 408.011 313.456 408.491 312.976 408.971 312.496 409.451 310.816 409.691 309.855 409.931 308.415 409.931 307.695 410.171 307.215 410.171 306.735 410.171 305.535 410.891 304.575 411.851 303.615 412.571 302.895 413.531 302.175 415.692 300.255 416.412 299.775 418.332 299.055 420.972 297.855 422.652 297.375 423.612 296.895 424.812 296.895 426.732 296.415 427.452 296.415 429.852 296.655 430.812 296.415 431.532 296.415 432.492 296.175 432.972 295.935 433.212 295.695 434.652 295.455 435.372 295.455 436.092 295.455 436.812 295.215 438.012 294.975 438.732 294.975 439.452 294.975 440.412 294.975 441.372 295.215 442.092 295.695 443.052 296.415 443.292 296.655 444.012 297.135 444.732 297.135 444.972 297.135 445.452 297.375 446.172 297.855 446.892 299.055 447.612 300.015 448.332 300.735 448.812 301.215 449.772 302.655 450.253 302.895 450.492 303.135 451.213 303.375 451.693 303.375 452.173 303.615 452.413 303.615 452.653 303.855 453.853 304.335 454.333 304.575 454.573 304.815 455.053 305.295 455.293 306.015 455.533 306.015 455.773 306.015 456.253 306.015 456.973 306.015 457.213 306.255 457.453 306.495 458.893 307.455 461.053 307.695 463.213 308.895 464.413 310.095 464.893 312.736 464.653 313.936 463.693 315.136 463.933 316.816 467.053 322.576 467.053 324.736 466.333 328.336 466.573 331.217 467.053 333.377 467.773 333.857 467.053 338.177 467.293 338.897 468.253 340.817 467.773 342.977 468.013 343.457 469.933 345.617 471.373 346.337 472.093 347.297 473.293 347.777 474.253 349.217 474.973 351.378 474.973 352.818 475.453 353.298 474.493 355.938"/>
    </g>
</svg>
