<svg id="Congo" xmlns="http://www.w3.org/2000/svg" width="792" height="612" viewBox="0 0 792 612">
    <defs>
        <style>.cls-1{fill:#fff;}</style>
    </defs>
    <path class="cls-1"
          d="M362.1393,350.3141c-.8768-.071-.7977-1.26-1.6-1.48V347.396a3.7158,3.7158,0,0,0-1.3648-1.5052,4.9192,4.9192,0,0,1-1.5257-1.5065,25.88,25.88,0,0,0-1.9757-2.2073l.3426-1.2058a4.2289,4.2289,0,0,1,2.7368-1.5367c.1941.6151.7847.8067,1.1172,1.2095h1.5866a5.7349,5.7349,0,0,1-.1939-1.59,4.9888,4.9888,0,0,1,.7279-1.3681l-1.6789-1.1417v-.59l.4645-.4511-1.4581-1.745c.0647-.3853-.1427-.9034.1966-1.4392.1247-.1969-.1278-.6325-.2073-.9554.0758-.8063,1.164-.2638,1.2237-.9936h1.3234l.36.4615a21.8327,21.8327,0,0,0,3.2493-.5073l.6113-.6113-.3043-2.56.9423-.8337a3.0655,3.0655,0,0,1,1.7246,1.0508,2.1522,2.1522,0,0,0,.6467,1.8772,4.5565,4.5565,0,0,1,.5957,1.1133,5.3174,5.3174,0,0,0,.71-.0052,2.8965,2.8965,0,0,1,1.6836.28,3.6958,3.6958,0,0,0,1.25.2208l1.3538-1.4246c.4768-.0421.8833-.1377,1.1888.3559v1.233c.7274.5951,1.5524.1511,2.2155.3023a6.6045,6.6045,0,0,0,1.4272-3.7725l1.1256-.82c-.3849-.6455-.1044-1.318-.2519-2.0045l.525-.3779c0-1.0149.0178-1.9338-.0086-2.8514-.0107-.372.1365-.7618-.2083-1.1228a.855.855,0,0,1-.0023-.8044,2.664,2.664,0,0,0,.2105-1.4031l.5917-1.3192-1.9508-1.6133h-.6669l-1.1384-1.4339h-.8779l-.343-.7483.5616-.5905-.2969-2.1641a6.244,6.244,0,0,1,1.5981-2.012h.9546a6.7192,6.7192,0,0,0,1.8482-2.9442c-.2043-.2128-.4417-.4643-.6838-.7112-.252-.257-.5085-.51-.7754-.7765v-1.4875l-1.2748-1.0587c-.8711.6258-1.5471-.0446-2.45-.1548-.4574.2427-1.1078.53-1.6949.9145-.6752.4419-1.3932.0636-2.0346.23-.8517-.3364-.6157-1.47-1.4289-1.7551v-1.2574l.5093-.5353-.3045-1.0312,1.3625-1.6765c2.1978,0,4.4345.0062,6.6711-.0042.5825-.0027,1.09.3522,1.7029.2613a10.0712,10.0712,0,0,1,1.5566-.0171l1.5677.8657c.4757.2417,1.0893-.1879,1.4918.3779a1.5593,1.5593,0,0,1,1.4708-.2026c.104.0351.2074.1654.2921.15.9528-.1765,1.835.3333,2.7746.2484.5336.38,1.0219.9817,1.59,1.07.76.1178.8394.9336,1.595,1.0069l.5216-.6927c.0632-.87-.7246-1.8288-.4494-3.0018a3.27,3.27,0,0,0,1.7364-2.4142,26.5536,26.5536,0,0,1,.9962-2.4646c.1241-.308.2169-.6286.33-.9622-.4351-.7022-.1222-1.5065-.2354-2.249l.4388-.4388a20.3729,20.3729,0,0,1,.4882-2.2693l5.2594-.528.6742-.84,1.4239.4605-.0292.1065h1.491l.494.7609c.5732-.414,1.25-.2167,1.8809-.2733l.4518.4518c.6987.2433.927-.5709,1.4738-.6794h.97l.8331.8571v2.4134c-.9321.5555-1.0145,1.6351-1.4057,2.51a5.3685,5.3685,0,0,1-1.14,1.9276,1.435,1.435,0,0,0-.5652,1.2008c.0259.2792-.141.4171-.2765.6115a3.597,3.597,0,0,0-.6931,2.1112c.0072,1.36.0137,2.72-.0015,4.0795a5.4047,5.4047,0,0,1-1.09,3.2679,4.931,4.931,0,0,0-.3469.6621c.1164.395-.1092.8757.193,1.4008.1973.3429-.0631.9493-.1386,1.6154a3.4767,3.4767,0,0,0,.4407.9267,1.1127,1.1127,0,0,1-.1264,1.5528,3.4462,3.4462,0,0,0-1.1115,2.3222c-.0049.2567-.4388.5153-.4259.76.0242.4593-.28.8738-.0587,1.375a3.1736,3.1736,0,0,1,.028,1.1875,2.8441,2.8441,0,0,1-1.3826,2.6506,10.1528,10.1528,0,0,0-.9375.9276c-.3061.3135-.6054.6335-.8748.9163a1.92,1.92,0,0,0-1.0573.223c-.7582.4667-1.6941.6855-2.0539,1.6451-1.22,1.0084-1.6173,2.5264-2.3027,3.8488a7.1848,7.1848,0,0,1-2.1518,2.409,4.5605,4.5605,0,0,0-.9784,1.1412,1.5961,1.5961,0,0,0,.2191,1.2606c-.1228,1.0046.25,2.0409-.2172,3.03a1.81,1.81,0,0,0-.0224.71c-.0012.76-.0405,1.5225.0114,2.2789.047.6852.1942,1.3636.2808,1.9366a11.1874,11.1874,0,0,0-1.6527,2.4609,3.736,3.736,0,0,1-.9326,1.401l-2.6614.9225a2.4218,2.4218,0,0,1-1.62,1.7281c-.4409.1593-1.0613.36-1.1062,1.0441a15.4659,15.4659,0,0,1-2.1415,1.9675,1.9245,1.9245,0,0,1-2.0871,1.5089l-.2651-.3451-.9071-.2993-.413-1.72,1.0726-.92-.9079-1.3352a21.5878,21.5878,0,0,0-3.5594,1.5685l-1.1486-.6254-.6816.6816v1.6838l-.3584.3458h-.9875l-.3847.489h-.844l-1.7005-1.8972h-.866l-.601-.6009-.0387-.5668-.8365-.5155c-.3956.4867-1.2065.571-1.2754,1.4251a2.96,2.96,0,0,0-1.6941.3213c-.5239.326-.3744,1.0159-.85,1.3494h-.7074C362.9385,349.0394,362.9849,349.9721,362.1393,350.3141Z"/>
</svg>
