<svg id="Cote_d_Ivoire" data-name="Cote d’Ivoire" xmlns="http://www.w3.org/2000/svg" width="792" height="612"
     viewBox="0 0 792 612">
    <defs>
        <style>.cls-1{fill:#fff;}</style>
    </defs>
    <path class="cls-1"
          d="M237.6745,271.9336c-.1413.1413-.2822.283-.4505.4521h-1.6294c-.72.1039-.9359,1.1053-1.7613.9874l-.4073-.4073-2.3509-.3373-1.5646,1.1985H227.18c-.4406.3676-.8472.8023-1.49.7479-.0794-.0068-.2009-.0352-.2337.0042-.5555.6667-1.4337.6108-2.1433.9183-.6725.2913-1.365.5633-2.051.8384a2.8238,2.8238,0,0,1-.7747.154,2.5721,2.5721,0,0,0-1.7572.6944,1.9048,1.9048,0,0,1-.5735.343,6.0657,6.0657,0,0,1-1.3168.5738c-.4654.0956-.6364.653-1.2193.5948-.2815-.0281-.4971.6194-1.0406.384l-.3058-.3058c0-.5844.0233-1.1835-.0086-1.78-.02-.3723.1476-.7664-.208-1.124-.12-.1207.0154-.5164.0664-.78.05-.2569.1408-.5057.246-.87l1.4952-2.143-.7687-.28a3.5861,3.5861,0,0,1,.6281-1.7888c-.2883-.5589-.705-1.1019-.4483-1.752l-.4-.4h-.7244l-.4414-.4577-.7753-.0434-.3024-.3024v-1.42a3.5793,3.5793,0,0,0-3.47-1.11c-.6367-.6612-1.95-.5242-2.133-1.78a5.1947,5.1947,0,0,0,1.6687-2.2589l.3163-2.2529-.971-1.352v-1.3528c.3469-.6754.8152-.3724,1.2867-.0663l1.1022-1.7589v-1.6655l1.1093-.6637c-.1922-.3618-.1817-1.0206-.7195-1.2144a2.8664,2.8664,0,0,1-1.3263-.6438v-1.2353c.4819-.6149,1.1378-.345,1.6844-.3145a1.8891,1.8891,0,0,1,1.6935.8925h.8394c-.0555-.5582-.1213-1.0785-.1559-1.6009a1.9644,1.9644,0,0,0-1.4333-1.7231.9247.9247,0,0,1-.29-.1641,1.5454,1.5454,0,0,1-.1966-.2318,1.9068,1.9068,0,0,1,.8178-1.5024c.2689-.0148.5379-.0294.8336-.0455-.0423-.0986-.05-.1746-.0921-.2055-.3677-.2723-.7414-.5365-1.0839-.7821v-1.3655l-1.2684-.5967-.05.1006-.6344-.6589c.0844-.4289.2152-.9067.2636-1.3927a11.6329,11.6329,0,0,0,.01-1.2708l-.2658-.7231a.7408.7408,0,0,1,.9653-.4985l.6126-.7319.4437-.02a3.55,3.55,0,0,0,1.38-1.8993,3.531,3.531,0,0,1,2.6761.88,2.309,2.309,0,0,0,1.5117.5552l.6677.7974.9129-.4364V234.35l.3389-.3389h1.6869l.3922-.4148c-.2339-.4324-.5774-.9052.19-1.2922l.9687.3091.6215-.5c.3444-.0328.7493-.1247,1.0557.3645v2.3859c.5148.3575.5148.3575,1.8209.332.2659-.7437.9861-1.0911,1.386-1.6522h1.7257l.9465.9465h2.2453c.2692.5263.5654,1.083.8388,1.6506a4.6686,4.6686,0,0,0,.27.7237,6.8122,6.8122,0,0,0,.7519.7717c.1131.1127.2281.2237.3413.3345-.14.5491.3153.7641.5935,1.0809h1.9115c.2822.1987.5563.4017.8407.5891.3829.2524.9251.1484.9349-.252.0132-.5434.3613-.752.655-1.06h1.4258l.62-.62a10.0129,10.0129,0,0,1,5.2416,0c.42.2963.7421.9026,1.3891,1.2028a1.2167,1.2167,0,0,1,.5434,1.2088l1.6073,1.5523c.2754.8567-.3485,1.2394-.5835,1.8477.1208.5734.8343.6933,1.1419,1.2155v.8392l.6992,1.3563v3.34l-1.7694,2.0255-1.2648,2.9579a7.5186,7.5186,0,0,0-.2856,1.5582,6.9829,6.9829,0,0,1-.3416,1.639l-.869.869.0966.047-.6806,1.3973c-.3069.5342.1088,1.2177-.3907,1.7476a4.0372,4.0372,0,0,1,.4721,1.8424,1.4807,1.4807,0,0,0,.2476.8621,3.4209,3.4209,0,0,1,.5079,1.6014c-.0165.2945.25.6047.4307,1,.0372,1.3329.0372,1.3329.8447,2.1776a1.4345,1.4345,0,0,1,1.098.3662v2.2352l-1.4666.7529c-.2-.0026-.6261.1844-.9232-.4371v-1.107l-.6031-.298-.8446.7761c-.0253.3788.1014.7626-.3885,1.0742-.6695.2657-1.375-.4337-2.2133-.1754l-.3083-.7115-.6331-.8743-.4466.3367C240.7145,271.9339,239.1947,271.9339,237.6745,271.9336Z"/>
</svg>
