<svg id="Democratic_Republic_of_Congo" data-name="Democratic Republic of Congo" xmlns="http://www.w3.org/2000/svg"
     width="792" height="612" viewBox="0 0 792 612">
    <defs>
        <style>.cls-1{fill:#fff;}</style>
    </defs>
    <path class="cls-1"
          d="M485.4535,396.558c-.341.3957-.6232.7782-.9617,1.1019-.4042.3865-.1462.9379-.4311,1.3942-.2146.3437-.0425.9289-.0425,1.2463l-.563,1.2511c-.3055.5011-.8243.883-.8878,1.6489l.4919.962a1.7284,1.7284,0,0,0,.3918,1.4618c.4173.3687.5256.9358,1.141,1.234.68.3295,1.1351,1.1021,1.7293,1.6359a5.2283,5.2283,0,0,1,1.14,1.918l1.6661-.2983c.8258.8179.9317.8783,1.7382,1.0135l.32-.3546-.26-1.1723.6885-.6256c.3932.0384.9055-.2062,1.284.3717,0,.49.0312,1.0474-.009,1.599-.0386.53-.2062,1.0528-.22,1.5813-.0337,1.279,0,2.56-.02,3.8391a3.0444,3.0444,0,0,1-.1975.7345H490.716c-.2442.1833-.4413.4492-.674.4853-.931.1442-1.6473,1.0643-2.8692.6446l-.7305-.4256v-1.3354a10.0343,10.0343,0,0,1-.9523-1.6246c-.2007-.5785-.7411-.799-.9888-1.2057l-1.0383-.3947.3509-1.1717-1.8988-2.1378c-.3774-.1945-.9757.1222-1.5465-.1478-.6412-.3034-.9787-.8935-1.51-1.2818-.508.4346-1.1255.1138-1.6647.2344l-.557-.5561-.354-1.7942c-.2708-.2707-.5632-.604-.8986-.8862a10.4936,10.4936,0,0,0-.9554-.6463v-1.6082h-1.125c-.9713.6494-.7991,1.9366-1.3315,2.8522-1.2843-.1095-2.59.2972-3.6836-.7149h-3.347c-.7579-1.2147-2.2192-.9-3.3559-1.4167l-1.326-1.4814v-1.3306l.4359-.418c.0533-.3779.1523-.7666-.2934-1.0956a3.5157,3.5157,0,0,1-.7957.4237,4.298,4.298,0,0,1-.9556.0183c-.2355.004-.5209-.0616-.6975.0459-.7337.4469-1.7347-.1061-2.374.6587-.0584.07-.2363.031-.3131.0963-.2126.1808-.401.39-.6094.5984-.43.0971-.8413.1061-1.0949-.3089l.2849-2.2217c-.6188-.19-.9006-.8088-1.5618-.8087a.5911.5911,0,0,1-.4125-.3686c-.174-.6587-.7267-.6862-1.296-.8715l-.687.9581a4.2961,4.2961,0,0,1-2.6661-.2382,1.6318,1.6318,0,0,0-1.7543.3231c-.2136.151-.446.2752-.7444.457a8.8841,8.8841,0,0,1-2.4858-.1463c-.7719-.2983-1.6477.1978-2.3808-.3345-.73.0921-.8045.9517-1.4019,1.2-.4649.0289-.7226-.1273-.7785-.65a3.8892,3.8892,0,0,0-.4508-1.0119v-.8738l.8856-.8015c.21-1.0479-.1881-2.0572.37-3.0641l-.7046-1.1732-.3-2.0955a8.1233,8.1233,0,0,1-2.3708-2.3805c-.1818-.5311.19-1.0817-.2735-1.5277-.079-.076-.0227-.4161.0824-.5388a2.4316,2.4316,0,0,0,.3727-1.8857,6.9431,6.9431,0,0,1,.4946-2.8,1.1945,1.1945,0,0,1,.2272-.2839,6.5717,6.5717,0,0,1,.2049-1.5735c.1875-.5469-.1731-1.1643-.3853-1.7277-.175-.4644-.46-.9054-.2161-1.4409l-.8682-.7223a8.334,8.334,0,0,0,.3022-1.0394,4.8993,4.8993,0,0,0,.01-.8321l.7093-1.3767v-2.14l-1.05-.7748h-8.5207l-.3507-1.05.8081-.65V365.89a3.0423,3.0423,0,0,0-2.0222-.3673l-.5142.49H418.61l-.4912.4912-.5112,2.4536.2295.9605-1.0361.9212a6.5386,6.5386,0,0,1-.413,2.8132h-3.8015c-.5088-.5283-1.1823-.4521-1.9159-.4455l-.388.5205c-.5386-.159-1.0376.128-1.5371-.2546-.2942-.2253-.7272.12-1.0256.3312a7.9826,7.9826,0,0,0-.9087.8875,2.47,2.47,0,0,1-.9047-.3173.7851.7851,0,0,0-.8682-.1851c-.6026.3584-1.2146.1359-1.8627.2361l-.748-1.724-.9759-.7821a2.6,2.6,0,0,0-.6919-1.9094c-.42-.6032-.9667-1.1162-1.4221-1.6969-.3382-.4313-.7767-.8248-.31-1.5038.186-.2707.0306-.7761.0306-1.1931-.9912-.6433-1.0829-1.7852-1.3962-2.7629a8.0819,8.0819,0,0,0-.58-1.445,2.1374,2.1374,0,0,0-.3407-2.6656,1.3813,1.3813,0,0,1-.3091-.82c-.0428-.5852-.6451-.4779-.8863-.7983-.9735.1366-1.9471-.6916-2.9207,0-1.0849-.14-2.202.2717-3.2734-.2089a1.8552,1.8552,0,0,0-.7067-.03c-.88-.0022-1.761-.03-2.6392.0094-.5692.0253-1.1318.1824-1.7014.2208a6.6327,6.6327,0,0,0-1.785.0462,6.9284,6.9284,0,0,1-2.4348.1851,9.6921,9.6921,0,0,1-1.58-.2213c-.4886-.07-1.0043.1437-1.4744-.2229-.1492-.1163-.4658-.0182-.7057-.0182-1.92,0-3.84.0142-5.7591-.0087a3.8238,3.8238,0,0,1-1.72-.19c-.2867-.1345-.808.1-1.1654.2817a8.9856,8.9856,0,0,0-1.1917.8769c-.7738-.0587-1.7044.2373-2.4189-.5479-.2555-.549.221-.764.5266-1.116h1.3416c0-1.3478.0288-2.6564-.0119-3.9628a2.1644,2.1644,0,0,1,.6756-1.6485c.6174-.6515,1.1921-1.3435,1.785-2.018l2.1741-.3439a8.6888,8.6888,0,0,0,1.9781,1.691l.5315-.6572h1.1113l.8483-.8483v-1.2l.4276-.4275.9.27c1.052-.5161,1.9733-.9964,2.9234-1.41.1919-.0836.4932.084.6479.116.5409.9227-.3569,1.2621-.4492,1.9139l.3348,2.1821c.6852.2444,1.3689-.1684,1.9061.3353a5.0241,5.0241,0,0,0,2.1812-1.701,25.8557,25.8557,0,0,1,2.7777-2.8475h.9866l.57-.7334v-.5765l1.07-.878,2.0571-.5509a1.9786,1.9786,0,0,0,.2505-.3641,19.1925,19.1925,0,0,1,1.9253-3.2829c.3295-.4955.7825-.9889.2792-1.639a.3937.3937,0,0,1-.0387-.222,17.2865,17.2865,0,0,1,.0522-3.4684,9.4813,9.4813,0,0,0,.1424-2.7874,11.6654,11.6654,0,0,1-.1792-1.9428c.6881-.6187,1.401-1.2281,2.0739-1.879a3.5589,3.5589,0,0,0,.7569-1.0025,12.21,12.21,0,0,0,1.0716-2.0671,7.51,7.51,0,0,1,1.4334-2.2868,2.9725,2.9725,0,0,1,2.0813-1.2868,2.2074,2.2074,0,0,0,1.1984-.5948,18.4967,18.4967,0,0,1,1.9077-1.7379c.4534-.3109.664-.978.9782-1.4887.0777-.1264.1342-.2659.2413-.4815-.099-.6652.21-1.47-.24-2.1982.1438-.5.291-1,.43-1.5014a5.527,5.527,0,0,0,.3153-1.0779c.0573-.7022.6816-1.0891,1.1032-1.5414l.2783-.9517a2.5812,2.5812,0,0,0-.2126-.529c-.4011-.6292-.7649-1.2463-.242-1.99a.3788.3788,0,0,0,0-.3489c-.4451-.61-.11-1.3045-.2731-1.95a5.3956,5.3956,0,0,0,1.2294-2.3834,3.8345,3.8345,0,0,0,.2638-1.5766c-.0453-.9176-.03-1.84-.0071-2.7589.0224-.8884.0875-1.7758.1343-2.6726l.828-.6744V293.11c1.0633-.474,1.2079-1.5909,1.6626-2.4949a3.8832,3.8832,0,0,0,.3913-1.5742,4.8858,4.8858,0,0,0,.6458-.5188,1.2467,1.2467,0,0,0,.3931-.6653,25.2044,25.2044,0,0,0-.0982-2.715c-.0484-.5153-.27-1.0125-.3447-1.5279-.0277-.1912.1517-.4081.221-.6185a3.4911,3.4911,0,0,0-.1727-2.9683.5942.5942,0,0,1-.0633-.2128,3.356,3.356,0,0,1-.0024-.35l1.3886-.9642.3613-1.2411a14.6266,14.6266,0,0,0,1.8945-2.3718.8062.8062,0,0,1,.3458-.3152,6.7125,6.7125,0,0,0,2.1845-1.7375l2.4486.21.9562,1.009h.7879l3.214,2.329c.2474.8953.2118,1.7378,1.6006,2.0473l2.56-.2548,2.1165,1.4291c.6084,0,1.2884.028,1.9646-.01.41-.0233.811-.1781,1.2216-.2237a9.4053,9.4053,0,0,1,3.7608.762,4.6821,4.6821,0,0,0,.9075.4077,1.803,1.803,0,0,0,1.62-.3915c.2064-.1888.3973-.3944.595-.5925.1037-.4769.2-.9556.3178-1.4291a.5462.5462,0,0,1,.1947-.2753c.24-.1823.5686-.2955.7234-.5283a2.4217,2.4217,0,0,0,.2347-.73c.1212-.5056.6264-.6013.7614-1.0311h1.1c.724.8112,1.94.7206,2.7086,1.4453.5746-.2939.8156-.9025,1.4175-1.0844.5274-.16,1.0107-.4636,1.5372-.628a10.8566,10.8566,0,0,0,1.864-.7195,7.6516,7.6516,0,0,1,1.2274-.3855l.3245-.3245.7677-.0385.9411-.9411h.49l1.4472,1.4472,1.8883-.6037c1.037-.149,2.1768.0544,2.9935-.9564v-1.4565l.7168-.5931a2.9061,2.9061,0,0,1,2.195.6853,2.9768,2.9768,0,0,0,2.6221.3808,1.1677,1.1677,0,0,1,1.0749.0976c.748.475,1.57.834,2.4159,1.2695l1.2052-.5625,1.1628.5709c.5328-.7027.9534-1.6195,1.8773-1.4974l2.4,1.2044a1.7966,1.7966,0,0,0,1.3045,1.0408,4.2641,4.2641,0,0,1,1.025.6808v1.287l.9463.8331h.5874a6.218,6.218,0,0,0,3.7358,1.9673l2.4641-1.4708h2.2471l.9466.9467h1.0866l1.5071-2.3511h1.0286l.7319.4318.2766,1.78c.7185.4009,1.5043.5995,1.7471,1.4606.0379.1344.2022.2463.3294.3395a4.8815,4.8815,0,0,1,.6519.4372,2.6372,2.6372,0,0,1,.356.5728c.5275.2562,1.0847.3634,1.3614.7007.3885.4734,1.129-.1222,1.3275.6015.215.5443-.2748,1.2524.3854,1.7706h1.4107l.8974,1.0413a2.2869,2.2869,0,0,1-.3784,1.416,3.3433,3.3433,0,0,0-.5812,2.006l.6867.4038a2.8613,2.8613,0,0,1-.4174,2.0108,6.1712,6.1712,0,0,0-.5981,1.7476l1.06,1.2988,1.3793.2725,2.0011,1.1978a3.7763,3.7763,0,0,1-.8852,1.8349q-1.4925,1.4771-2.9682,2.9707c-.3321.3372-.77.55-1.0189.9937a4.7605,4.7605,0,0,1-.8462,1.0846,2.2045,2.2045,0,0,1-1.0265.6734,2.4975,2.4975,0,0,0-1.4539.8684v1.0546c-.3731.232-.7833.5-1.2061.747a1.5333,1.5333,0,0,0-.7893,1.9834,7.5893,7.5893,0,0,1,.1017,1.2118,3.74,3.74,0,0,0-1.0258,2.2445l-.6374.6252a1.51,1.51,0,0,0-.0451.2341,5.1013,5.1013,0,0,1-.2195,1.7085,5.6866,5.6866,0,0,0-.248,2.65c.09.7612-.3042,1.4409-.2542,2.182-.547.3682-.084,1.0126-.433,1.5137-.2439.35-.0867,1.011-.036,1.5259.0511.519.192,1.0292.2987,1.57-.558.4287-1.0652.786-1.5356,1.1866a11.3006,11.3006,0,0,0-2.2228,2.9135.647.647,0,0,0-.0615.7425A2.0593,2.0593,0,0,1,491.31,330l-.773.6866-.8569.28c-.7658.7885-.1513,1.6561-.1127,2.6168l.6909.5546v.7364l1.7094,2.092c.14.3151-.2111.7844-.0618,1.3055a6.2715,6.2715,0,0,1,.0324,1.6705v1.68a2.695,2.695,0,0,1-.0021.36,2.0808,2.0808,0,0,0,.4379,2.021c.1227.1868.2233.3881.3431.5769a1.448,1.448,0,0,0,.1937.1975c-.1822,1.038.3132,2.0394.25,3.11a5.0655,5.0655,0,0,1-.7275,2.4562,3.3315,3.3315,0,0,0,.47,2.2017,9.8711,9.8711,0,0,1,.7221,2.2223,7.9791,7.9791,0,0,0,.7073,1.7478v1.5143l-.9075,1.6a16.6436,16.6436,0,0,1,.1812,1.6641,2.144,2.144,0,0,0,.4836,1.49,3.048,3.048,0,0,1,.704,1.2572,3.0491,3.0491,0,0,0,1.968,2.2039,3.7775,3.7775,0,0,1,1.8029,1.6955,8.532,8.532,0,0,0,.6413.9375l.6478,1.484a4.95,4.95,0,0,0,.51,2.8334,28.4824,28.4824,0,0,0,1.62,2.8782v1.1259l-.2993.2993c-.5545.13-1.1123-.1367-1.6375.1853-.4652.2852-1.0878-.1465-1.5591.307-.1039.1-.3881.034-.5855.0112a7.9541,7.9541,0,0,0-2.3011.24,8.2553,8.2553,0,0,0-2.09.461.6761.6761,0,0,1-.35.0192c-1.2238-.1642-2.4042.3061-3.62.2431-.4571-.0238-.7662.28-1.1565.4978V381.37c-.4826.5958-.8685,1.1335-1.3188,1.61a10.37,10.37,0,0,1-1.3993,1.2527c-.5121.3748-1.0889.6613-1.6259.98v.9131h.6524c.178.4188.3807.8176.518,1.2377a10.819,10.819,0,0,0,.5422,1.8121,1.1362,1.1362,0,0,1-.0509,1.27c-.1671.288-.2932.6-.4844.9983a23.733,23.733,0,0,1-.0219,2.6375C485.1008,394.9616,485.5827,395.7546,485.4535,396.558Z"/>
</svg>
