<svg id="Djibouti" xmlns="http://www.w3.org/2000/svg" width="792" height="612" viewBox="0 0 792 612">
    <defs>
        <style>.cls-1{fill:#fff;}</style>
    </defs>
    <path class="cls-1"
          d="M585.2591,221.4081h-.9972l-.57-.6661c-.168-.95.3347-2.1061-.4908-3.0711v-2.1677a10.3841,10.3841,0,0,0,.83-.8215,2.9855,2.9855,0,0,0,.5917-.9482,9.7314,9.7314,0,0,1,1.0127-2.1,6.1608,6.1608,0,0,0,.879-1.9,1.9146,1.9146,0,0,1,.6541-1.04h.7153l.9459.946h.5042l.8191-.8867v-.9045l.8832-.8374h.9466c.2041.2109.41.4584.6519.6636a8.4269,8.4269,0,0,0,.7435.5124q.3794,1.04.76,2.0793l.0935-.0326v1.77l-.7334.3731-.1184-.1625c-.2632.2943-.6551.5489-.761.8918a1.2314,1.2314,0,0,1-1.0886.8426,2.7355,2.7355,0,0,0-1.8029,1.3621,1.6929,1.6929,0,0,1-1.1991.8994c-.0986.0216-.1714.16-.262.2511l.4919.8345a1.5517,1.5517,0,0,0,1.36-.51,3.8681,3.8681,0,0,1,2.4861-.9043l.9208,1.0062a7.49,7.49,0,0,1-1.7543,3.771h-.638l-1.4017-.7016a8.6787,8.6787,0,0,1-3.2224.99A4.8473,4.8473,0,0,0,585.2591,221.4081Z"/>
</svg>
