<svg id="Egypt" xmlns="http://www.w3.org/2000/svg" width="792" height="612" viewBox="0 0 792 612">
    <defs>
        <style>.cls-1{fill:#fff;}</style>
    </defs>
    <path class="cls-1"
          d="M451.26,140.3975l-.3363-.3363c0-.3764.1431-.8613-.0338-1.15a2.1737,2.1737,0,0,1-.1975-1.2413,2.0236,2.0236,0,0,0-.2374-1.1073c-.0721-.1146-.0016-.3135-.0129-.4727a23.9271,23.9271,0,0,0-.2769-3.252c-.1392-.6577-.1077-1.3072-.2168-1.9458a27.65,27.65,0,0,1-.477-5.4433,5.3179,5.3179,0,0,0-.22-.8613,8.7478,8.7478,0,0,0-.2055-.87,7.6931,7.6931,0,0,1-.2571-2.4076,21.6946,21.6946,0,0,0-.3-3.6182c-.11-1.0933-.2992-2.1909-.483-3.2777a15.0494,15.0494,0,0,0-.2434-2.0533c-.23-.7068-.0371-1.4141-.2228-2.0668-.2992-1.0522-.3049-2.1513-.6646-3.1988a11.6663,11.6663,0,0,1-.2763-2.2889c-.0522-.41-.1625-.8129-.2329-1.2214s.1619-.8587-.2271-1.2355c-.1-.0968.01-.3881-.02-.5837-.0854-.5729.1813-1.16-.1629-1.7336-.2747-.4575-.025-1.0208-.2656-1.5683a4.7271,4.7271,0,0,1-.2585-2.1577c.05-.7259-.3266-1.3594-.2684-2.0623-.3961-.2978-.2139-.7257-.2343-1.1007a4.6287,4.6287,0,0,0-.2238-1.5889c-.1818-.444.1725-1.02-.2565-1.4567-.04-.0407-.0179-.1571-.0034-.2343a9.6853,9.6853,0,0,0-.2577-2.42c-.0447-.747-.322-1.4786-.4177-2.2078a3.4129,3.4129,0,0,0-.7549-1.865,4.4041,4.4041,0,0,1-.7317-1.9718,8.4948,8.4948,0,0,0-1.68-3.7434,7.627,7.627,0,0,1,.763-2.4444,2.8051,2.8051,0,0,0,.4341-1.378c.0128-.56.0029-1.12.0029-1.7008-.8406-.6642-.8267-1.8125-1.4367-2.6682V67.646l.8139-1.1633,2.3835.2973c.7061-.7436,1.9154-.305,2.3857-1.2373.6982,0,1.3377,0,1.9772.0006a1.7528,1.7528,0,0,0,1.4824.4824,8.0067,8.0067,0,0,1,1.6764.0132,15.7891,15.7891,0,0,1,2.5806.4188A3.826,3.826,0,0,0,454.85,66.5c.48.0041.96.001,1.5048.001.0979.1595.2271.3412.3264.538a1.4065,1.4065,0,0,0,1.0153.6446c.3593.0961.7756-.07,1.1041.2488a.3634.3634,0,0,0,.3462.001c.8036-.5755,1.3489-.0413,2.0285.4865a13.6738,13.6738,0,0,0,1.9352-.184,2.32,2.32,0,0,1,2.3444.4345,2.7544,2.7544,0,0,1,2.2019.6854,2.504,2.504,0,0,0,2.1389.2026,3.8261,3.8261,0,0,0,1.8428-1.0632c1.0079-.9939,2.1007-1.9018,3.3927-3.0548.3773-.2081,1.1161.8435,1.7937-.0116V64.2493l.4431-.458,1.0929.4408,1.9434-.47,1.5716-.8239.2941-.4987h.7623c.6226.5614,1.2039.7691,2.9185.7076.6974.646,1.0755,1.7281,2.3936,1.6748l.7123.7114c.8455.0591,1.2322-.5357,1.798-1.047l1.5672.8068h1.6889l1.1172-1.1673c.6944.0557.6944.0557,1.0917.798l1.48-.8175c1.8354.2129,3.44-.7131,5.03-1.8148a3.351,3.351,0,0,1,.6285.62,20.1591,20.1591,0,0,1,1.5826,2.7034,4.8875,4.8875,0,0,0,.8146,1.337,2.12,2.12,0,0,1,.62,1.3119.8424.8424,0,0,0,.2335.4958,28.677,28.677,0,0,1,2.6777,4.1774,10.6646,10.6646,0,0,1,.9049,2.14,1.456,1.456,0,0,1,.0046.7142,7.94,7.94,0,0,1-.2924,1.1976,4.4606,4.4606,0,0,1-.42.7317c0,.3749-.0253.8159.0057,1.2528a7.727,7.727,0,0,0,.1986,2.1933,4.2127,4.2127,0,0,1-.3153,2.3622c-.1065.4328-.2564.8549-.3662,1.2871a2.0839,2.0839,0,0,0,.3416,1.53,3.3173,3.3173,0,0,1,.3686,1.8831L508.67,89.2752h-1.2339c-.54-.3138-1.1453-.68-1.7647-1.0222a3.8285,3.8285,0,0,1-1.4819-1.4049,3.0217,3.0217,0,0,0-1.1026-.9839,5.7576,5.7576,0,0,1-2.1893-1.9132c-.112-.191-.18-.4082-.2965-.596-.3149-.5088-.11-1.2279-.7008-1.6463-.1127-.08-.0161-.4552-.0161-.7407a23.2055,23.2055,0,0,1-2.6643-2.1854,21.605,21.605,0,0,1-1.8951-2.7733v-.7484l-.8437-.8378-.3313-.9131-.9759.9766a3.4376,3.4376,0,0,1-.456,1.9863,4.2871,4.2871,0,0,0,1.27,1.362,4.135,4.135,0,0,1,1.7252,2.1338c.1279.38.2027.7462-.0874,1.01l.2722.8545c.3863.2838.6569.8582,1.2672,1.0437a.5447.5447,0,0,1,.3083.3406c.1839.7763.8148,1.2023,1.3047,1.7422a15.2939,15.2939,0,0,0,1.8081,1.9879c.6276.4813,1.1563,1.0468,1.5777,1.4016l1.56.7372a1.2939,1.2939,0,0,1-.0035.3388,2.376,2.376,0,0,0,.717,2.6254c.2991.3223.62.624.9489.9527v.5921c.174.1446.4083.36.6639.545.211.1531.4473.2713.7007.4217l.3934,1.3571c.9.9684.9.9684.9,2.5368a2.6057,2.6057,0,0,0,.9207,1.0689,3.304,3.304,0,0,1,1.2613,1.7262,7.7054,7.7054,0,0,0,1.0612,1.7167c.7306.9489,1.5117,1.8594,2.2834,2.776.5512.6547,1.1217,1.2931,1.6734,1.9271,0,.14-.0481.2925.0074.3753.589.8789,1.1739,1.7619,1.8,2.6142a18.3981,18.3981,0,0,1,2.7482,4.1422,2.3486,2.3486,0,0,0,1.5243,1.6573c.44.1372.79.6534,1.1119,1.0535.2778.3453.4649.7622.968.7888,0,.3554.0909.6494-.0165.8141a1.5969,1.5969,0,0,0,0,1.6181,4.1841,4.1841,0,0,1,.28,1.5741,2.3933,2.3933,0,0,0,.3488,1.2785,6.9409,6.9409,0,0,1,.4186.9118,3.9868,3.9868,0,0,0,.6212,1.1991,3.61,3.61,0,0,1,.7521,1.5937.9959.9959,0,0,0,.2233.5011c1.06.8871,2.1287,1.775,3.7808,1.5579.4346.3849.9548.7874,1.4022,1.259.4225.4453.7684.9634,1.111,1.4021.9407-.021,1.3973.7091,2.065.99-.0161.7011-.2592,1.04-.8213,1.1766a1.4538,1.4538,0,0,1-.2393.0032,28.8342,28.8342,0,0,0-3.6137.2721,23.029,23.029,0,0,1-3.5817.2138l-.3627.4734a11.0742,11.0742,0,0,1-1.1623-.006c-1.3432-.1517-2.6423.36-3.9806.246-.7362.3734-1.5626.0765-2.2924.27-1.0931.29-2.2.0465-3.2621.2418-1.0136.1862-2.0342.0793-3.0192.2481-.734.1258-1.4816.0685-2.1788.2347a8.8943,8.8943,0,0,1-2.0684.205c-.76.0028-1.521-.0245-2.2792.0114a6.8775,6.8775,0,0,0-1.1009.2292c-.3328.0723-.7181-.1645-1.0093.1772a.33.33,0,0,1-.2112.0609c-1.799.102-3.5982.2009-5.4951.3058l-.3526-1.2492-.642-.4875-.6771.5673v.7337a2.17,2.17,0,0,1-1.9387.8652,24.0127,24.0127,0,0,0-2.6384-.0059,18.1357,18.1357,0,0,0-3.4893.2777,15.8346,15.8346,0,0,1-2.7914.1916,37.4792,37.4792,0,0,1-5.06.2432c-.9.388-1.8737.0843-2.7737.2712-.9338.194-1.8971.0285-2.7757.2519-1.1041.2806-2.2033.0129-3.2669.218a40.0248,40.0248,0,0,1-5.6634.2273c-.4895.0248-.9718.17-1.4613.2264-.4919.0564-1.0173-.1184-1.464.24-.0487.039-.1558.0058-.2357.0052-1.8507-.014-3.6823.4154-5.54.24C455.0452,140.0016,453.181,140.6,451.26,140.3975Z"/>
</svg>
