<svg id="Equatorial_Guinea" data-name="Equatorial Guinea" xmlns="http://www.w3.org/2000/svg" width="792" height="612"
     viewBox="0 0 792 612">
    <defs>
        <style>.cls-1{fill:#fff;}</style>
    </defs>
    <path class="cls-1"
          d="M347.2231,304.5265c-.1711.1622-.3418.3247-.4957.4713h-.5038c-.38-.4456-.572-1.0959-1.3944-1.1371-.81.3659-1.0905.2876-2.0775-.681a5.3253,5.3253,0,0,1,1.7066-2.8893V299.6c.4022-.4022.7971-.7971,1.1922-1.192,0-.718,0-1.4359,0-2.2745.245-.0753.6352-.3189.78-.2162a1.9,1.9,0,0,0,1.2384.2044c2.5929.0109,5.1858.0055,7.7788.0055h.8829c.1373.1373.2865.2146.2971.3076a49.4019,49.4019,0,0,1,.2751,7.7327c-.2157.4283-.5916.36-.9436.36h-7.0608Q348.0612,304.5268,347.2231,304.5265Z"/>
</svg>
