<svg id="Eritrea" xmlns="http://www.w3.org/2000/svg" width="792" height="612" viewBox="0 0 792 612">
    <defs>
        <style>.cls-1{fill:#fff;}</style>
    </defs>
    <path class="cls-1"
          d="M588.7924,209.238l-1.1-1.1358-1.1625.2061a2.576,2.576,0,0,1-.3726-.4152,3.64,3.64,0,0,0-2.6373-2.2615c-.1714-.0643-.4089-.19-.4475-.3334a6.0972,6.0972,0,0,0-2.0568-2.984,21.0749,21.0749,0,0,0-2.9107-1.9465c-.116-.0713-.3136-.01-.4467-.01l-.8657-.8657c0-.1071.0516-.2716-.0077-.34-1.1016-1.2774-2.2165-2.5434-3.3588-3.8463a4.1652,4.1652,0,0,1-2.8233-.7064c-.1244-.0811-.298-.1163-.382-.2246a4.4016,4.4016,0,0,0-1.72-1.16,2.3949,2.3949,0,0,1-2.4914.1055,2.2122,2.2122,0,0,0-.8891-.16c-.447-.0547-.8959-.0938-1.4522-.15l-.9144.6256h-.9165l-1.7466-1.5688-.8663,1.4479-.8025.5588c-.48.0945-.96.2256-1.4472.2744-.4735.0474-.9554.01-1.4255.01l-1.4838-2.0438-1.3774.1512-1.2286-1.5826-.1471.52a11.8774,11.8774,0,0,1-.7995,2.7164c-.2069.6747-.4449,1.3444-.5857,2.0334a.6429.6429,0,0,1-.7639.609l-1.9977-2.2094c-.74.2663-1.3383.63-1.4692,1.31-.72.45-1.2354-.115-1.79-.0547-.5228.0568-1.0364.1981-1.4938.29l-.5757-.5757-1.1126-6.0725c.6211-.2862.62-.9023.7573-1.379a19.0528,19.0528,0,0,0,.2815-2.1688,5.9516,5.9516,0,0,1,.3721-1.1626,7.2837,7.2837,0,0,0,.8268-3.02c-.0067-.1291.133-.2607.1842-.3988a4.0889,4.0889,0,0,0,.2747-.8427,9.3937,9.3937,0,0,0,.0113-1.17l-.7134-.5758v-1.3l.4727-.4727v-2.16l.3355-.3354c.7071-.1188,1.5206.1725,2.1136-.2591l.9114-1.1694v-1.4775a9.7568,9.7568,0,0,0,1.5857-.533,12.3722,12.3722,0,0,0,1.5-1.1151H551.22l.614-.7838.9227-2.8237h1.0049l.3591.9342a7.6974,7.6974,0,0,1,1.5542,2.2064c.222.3511.5107.6647.6991,1.0312a5.1141,5.1141,0,0,1,.7472,1.7313,1.6822,1.6822,0,0,0,.2362.6184,2.4932,2.4932,0,0,1,.4948,1.364,1.5224,1.5224,0,0,0,.3149.7,3.4132,3.4132,0,0,1,.4113,1.2765c.1113.7279.4134,1.4245.5957,2.1443.1673.66.283,1.3329.4492,2.1342.535.9559.9061,2.2135,2.0448,2.93.03.711-.137,1.4481.5852,2.0727l.791.06,1.0281,1.3233a6.82,6.82,0,0,0,.0123,1.0223,5.1422,5.1422,0,0,0,.3234.913l.6658.3543c.2471-.2357.647-.3909.67-.8351.0271-.5285.3091-.6789.8605-.6378a9.3317,9.3317,0,0,0,2.2245,2.4251c.6619-.3014,1.1178-1.1135,2.0461-.582.6639.38,1.4241.5815,1.4279,1.4519a1.8021,1.8021,0,0,0,1.4206.5516c.5685.0286,1.1319.1582,1.8407.2655,1.0052,1.0977,2.0982,2.2817,3.1772,3.4785a5.7321,5.7321,0,0,1,.5121.7455,8.8579,8.8579,0,0,0,.67,1.0365,6.1758,6.1758,0,0,0,.8806.7076h1.3935c.98.8564,1.4145,2.2919,2.8433,2.493l.73,2.2816.5285.464a3.34,3.34,0,0,1,3.0244,2.63l1.6276.5284v.5973l-1.1892,1.1819c-.049.453.1038.9434-.25,1.337Z"/>
</svg>
