<svg id="Ethiopia" xmlns="http://www.w3.org/2000/svg" width="792" height="612" viewBox="0 0 792 612">
    <defs>
        <style>.cls-1{fill:#fff;}</style>
    </defs>
    <path class="cls-1"
          d="M541.8709,270.74l-.2207-1.3953c-.6409-.7375-1.7638-.4337-2.5215-1.0064l-.806.2884c-.609-.478-.9875-1.1017-1.66-1.4-.1939-.0861-.446-.34-.4447-.5148.0058-.7692-.5641-1.1526-.9828-1.62v-1.5462a7.0508,7.0508,0,0,0-.7978-1.1369c-.3564-.3435.0937-.9085-.4022-1.1616a6.424,6.424,0,0,0-1.2854-2.706,1.5736,1.5736,0,0,0-1.1315-.6106l-.6876-1.2775-1.4645-.4324c-.1175-.1842-.2743-.4423-.4437-.6919a3.5535,3.5535,0,0,0-.6017-.8231c-.7144-.571-.8082-.6828-.8618-1.49-1.8466-2.5064-4.22-3.7827-7.2772-3.31l-.3674-.3674V248.26l.9689-.969-.3162-1.8518.6627-.62a12.6058,12.6058,0,0,0,1.3864-.0119,8.3727,8.3727,0,0,0,1.1635-.2835l.7558.7558h.781l.3287-.4552h.8235l1.3265-1.3609a12.0629,12.0629,0,0,0-.0322-2.3956,22.0637,22.0637,0,0,1-.2257-3.0254,1.8549,1.8549,0,0,0-.5372-1.0241,13.7282,13.7282,0,0,0,.2951-1.9187,5.7131,5.7131,0,0,1,.4226-1.8714,4.8309,4.8309,0,0,0,.1088-1.2805l.7137-.7138-.3339-4.3176,1.3136-1.5139H530.3c.471.2179.6483.9616,1.3353.9478l1.2-1.3775c0-.4553.0085-1.2487-.0055-2.0417a1.9078,1.9078,0,0,0-.1211-.6676,1.1708,1.1708,0,0,1,.0747-1.0773c.3105-.6272.7643-1.3548.4927-2.0414a8.4623,8.4623,0,0,1-.2205-1.7817c.1555-.1568.248-.3254.3839-.3748a2.1364,2.1364,0,0,0,1.3171-1.602c.3643-1.2852.968-2.4786,1.4427-3.7217A2.5306,2.5306,0,0,1,538.4419,210a8.5165,8.5165,0,0,1,1.3433-.2378c.1565.0038.3178-.1893.5009-.3078-.1656-1.7807.3893-3.5175.251-5.3991-.0121-.1646.4728-.4029.6236-.5239a4.9029,4.9029,0,0,1,.1934-.7042,5.6622,5.6622,0,0,0,.6032-2.5107c-.0072-1.04-.0017-2.08-.0017-3.12a2.5918,2.5918,0,0,1,2.3615-.8617l1.1495.526c.6834-.2336.5561-.71.5678-1.1211.2029-.2029.4009-.4008.5988-.5994.16-.0006.3193-.0006.4892-.0006a5.7033,5.7033,0,0,1,1.6214,2.0827c.0688.2316.37.3941.5318.5561a1.2439,1.2439,0,0,0,.4174-.0087,1.6041,1.6041,0,0,0,.3332-.2494,27.3542,27.3542,0,0,1,1.38-4.7526c.202-.2021.23-.2541.2587-.2549.2383-.0066.4769-.0038.7518-.0038l.4.4453h1.2556a6.1871,6.1871,0,0,1,.8241,1.15,1.2859,1.2859,0,0,0,1.3677.7929,4.9853,4.9853,0,0,0,3.7908-1.6544h.7644l.914.914a2.1544,2.1544,0,0,0,.936-.1282,3.4843,3.4843,0,0,1,1.902-.34c.4746.05.9588.01,1.533.01l.4042.5928,2.077-.6075c.2243.1254.6044.22.7884.4637a5.7612,5.7612,0,0,0,1.8766,1.3073,8.6972,8.6972,0,0,0,2.2418.5594c.7241.81,1.644,1.8291,2.5507,2.86a2.7,2.7,0,0,1,.3419.5763,2.56,2.56,0,0,0,1.7751,1.472c.4316.1016.99.24,1.0427.8729,1.321.0562,3.23,2.3932,3.6322,3.9105.9472.5193,2.1131.8247,2.7883,1.8125a13.2226,13.2226,0,0,1,.82,1.6446l-.8655.6857a.6214.6214,0,0,1,.1965.8839c-.6256,1.178-1.1822,2.3937-1.834,3.5564a10.5894,10.5894,0,0,1-1.1475,1.4127c-.0765,1.7285-.0765,1.7285.4307,2.5843.0159,1.21.0159,1.21-.2261,1.6945.3424.2145.1877.5641.2457.86a8.1946,8.1946,0,0,0,.2756.8822l1.9445.3481.5346-.5346a5.6121,5.6121,0,0,1,1.5333.12l.394-.48,2.3018-.6739.942,1.0809c.2777.8891-.6679,1.5237-1.0072,2.4413.0815.1686.1738.37.2748.566.2375.4618.4849.9186.7176,1.3827s.4423.9374.68,1.3976a2.5124,2.5124,0,0,0,.4291.6573c.2126.2076.5659.2967.7247.5285a13.5473,13.5473,0,0,1,.759,1.3637l1.2508.767c-.0116.788.0553,1.37.8382,1.68.6336.2514.6048,1.0077.8822,1.5453a14.8377,14.8377,0,0,1,3.134,1.945,8.6418,8.6418,0,0,0,1.4291,1.1812,4.4809,4.4809,0,0,0,1.1353.4359c1.3417.4255,2.6228,1.0122,3.9848,1.4.743.2117,1.5139.4506,2.2517.6068,1,.2117,1.8968.69,2.8869.8775a10.28,10.28,0,0,1,2.3712.9384c.61.2822,1.3445.1877,1.8946.64a14.669,14.669,0,0,1,3.6439,1.0509,9.53,9.53,0,0,0,.9744.2534c1.1762.2292,2.2059.8655,3.3458,1.1944.0682.02.1208.1349.181.1352,1.64.0077,3.2795.0061,4.9192.0061.5611-.4281,1.2-.16,1.85-.261l.3188.6857a1.3681,1.3681,0,0,1-.1471.2758,13.4968,13.4968,0,0,0-2.1379,2.5914,13.4652,13.4652,0,0,1-1.4236,1.6935,39.319,39.319,0,0,0-3.1039,3.6426c-.9756,1.4557-2.1259,2.7712-3.1261,4.2049-.5863.84-1.29,1.6258-1.9114,2.4591a11.4478,11.4478,0,0,0-1.419,2.05,7.9829,7.9829,0,0,1-1.1278,1.454c-.5688.723-1.1208,1.4595-1.7,2.1741-1.0691,1.319-2.072,2.69-3.2081,3.9577a9.0892,9.0892,0,0,0-.9072,1.4724,15.0224,15.0224,0,0,1-3.2381-.0478,20.1885,20.1885,0,0,0-3.3917-.1853,2.4482,2.4482,0,0,0-1.35.2125,5.403,5.403,0,0,1-1.2089.2643,2.7761,2.7761,0,0,0-1.0572.3258,7.3886,7.3886,0,0,1-1.8947.9467,5.15,5.15,0,0,0-1.7713,1.235,4.08,4.08,0,0,1-1.1883,1.0116l-.3963,1.3445c-.41.5875-1.3516.6-2.15.8733a6.7561,6.7561,0,0,1-1.6943.2507c-.5542.04-1.1135.0087-1.7289.0087a7.5849,7.5849,0,0,1-1.1252.9356c-.4155.2343-.5852.6478-.97.9925a28.7684,28.7684,0,0,0-5.2678.5148c-.4781-.4935-.9361-.994-1.4248-1.4625-.47-.4505-.9716-.8677-1.4855-1.3227-1.02.7238-2.2174.9371-3.08,1.7655-.0428.0411-.1533.0055-.23.0179a5.7,5.7,0,0,0-2.2088,1.0263c-.3456.23-.6862.46-1.0533.6554a1.1842,1.1842,0,0,0-.7441.9512,2.039,2.039,0,0,1-.5717.9507c-.4509.5073-.953.9691-1.4393,1.4553-.5936,0-1.1931-.0123-1.7918.0047a1.3624,1.3624,0,0,1-.9768-.2491,1.3821,1.3821,0,0,0-.9842-.2367,5.8362,5.8362,0,0,1-2.3026-.2331c-.4077-.17-.84-.2806-1.3172-.4363-1.0956.6779-2.2647-.348-3.42-.0242a12.69,12.69,0,0,0-3.2217-2.4346c-1.0637-.6536-2.0794-1.3854-3.2323-2.1608a4.0246,4.0246,0,0,1-1.8257-1.3026l-1.3313-.5207c-.3734-.1772-.8506.0838-1.2084-.2958-.4994.4927-1.2059-.0124-1.7588.302a2.1,2.1,0,0,1-1.72.096,17.7293,17.7293,0,0,0-1.9277-.2491,3.8709,3.8709,0,0,0-1.4456-2.1828A15.8353,15.8353,0,0,1,541.8709,270.74Z"/>
</svg>
