<svg id="Gabon" xmlns="http://www.w3.org/2000/svg" width="792" height="612" viewBox="0 0 792 612">
    <defs>
        <style>.cls-1{fill:#fff;}</style>
    </defs>
    <path class="cls-1"
          d="M359.66,339.9357c-.311-.3109-.622-.6219-.9416-.9416-.8494-.1869-1.2626.5784-1.8959.8621a3.7441,3.7441,0,0,0-1.3958,1.458.6474.6474,0,0,1-.9341-.4118,3.3538,3.3538,0,0,0-1.5742-1.7463,2.1748,2.1748,0,0,1-.8056-.9673,10.8636,10.8636,0,0,0-3.531-3.7717c-.211-.1591-.5469-.2565-.6289-.461-.1723-.43-.6075-.5181-.8474-.8131-.34-1.0471.8019-.7019,1.1181-1.2318l-.4641-.814h-1.2582l-.4939-.4939h-1.4893l-.3962-.6847-.1629.12V328.889l-.4991-.3232a1.5143,1.5143,0,0,1,.0031-.3427c.3994-1.2393.3338-1.407-.8268-2.21a.6922.6922,0,0,1-.3719-.8,1.1415,1.1415,0,0,1,1.2063-.63c-.2736-.5237-.363-1.0336-1.098-1.0044-.3251.0129-.4314-.44-.2785-.8717a2.2436,2.2436,0,0,1,.21-.368l-.4462-.4444-.5857.7611h-.6938l-.9463-1.0419v-.7445c-.63-.6507-1.3742-1.1731-1.194-2.1915l.3846-.3846.7639.219c.1405-.2144.4648-.4892.4865-.7861a2.4665,2.4665,0,0,1,.9679-1.6461,2.4248,2.4248,0,0,0,.7668-1.733,23.1811,23.1811,0,0,1,.5113-2.9c.0194-.0978.1609-.1714.3308-.3413.6767.0975,1.4258.202,2.1732.3176.09.0139.2329.1416.2461.1262.3472-.4045.8543-.0008,1.2215-.2493a2.0391,2.0391,0,0,0,.264-.2593c-.5676-.5329-1.2739-.3552-1.892-.3873l-1.7431-1.0684.2716-.8243.8964-.0416a11.1051,11.1051,0,0,0,.3258-1.0816,3.0029,3.0029,0,0,0-.353-1.769.869.869,0,0,1,.2148-1.1806h.9585l1.3992.73.5609-.5254H357.38v-1.0343c0-1.4.048-2.8014-.0158-4.1981-.0478-1.0466-.2856-2.0786-.2392-3.1411a1.97,1.97,0,0,1,.6172-1.4641c2.61,0,5.2458-.0035,7.8818.0062a2.21,2.21,0,0,1,.6591.1409,5.2343,5.2343,0,0,0,4.2251-.1407c.0945-.0491.2366-.0064.4671-.0064l.535.7735v.8162l-.6868.6868c-.0369.7449.1623,1.5586-.4835,2.1812a3.1657,3.1657,0,0,0,.4384,1.3777c.1963.3556.4089.702.6409,1.0979l-.7641.8223.9261.3542a2.9413,2.9413,0,0,1,2.1687-.3814c.6433-.3941,1.2746-.7912,1.9187-1.1666a.7482.7482,0,0,1,.4437-.073,5.2144,5.2144,0,0,1,.5273.1678c.6.1453,1.191.6006,1.8228-.0559l.6632.6171.3136,1.64,1.3,1.6838a6.1722,6.1722,0,0,1-1.39,2.1785h-1.3082l-1.7538,2.5329c.0953.581.2172,1.1783.2856,1.7816.07.6214-.5555.9629-.6072,1.6609l.373.6489,1.18-.1851c.799.3744.6966,1.2132,1.1487,1.7459l.7462-.3292L380.86,316.68a1.5844,1.5844,0,0,1-.4046,1.5052c-.15.5131.2,1.0646-.2672,1.5011-.06.0559-.0462.2477-.0024.3486.5134,1.1811.1351,2.417.2111,3.6236a1.7765,1.7765,0,0,1-.4722,1.01v2.0093l-.8683.5542-.3678,2.5681-.7.993h-1.2931c-.3642-.2033-.333-.5166-.3667-.84a2.101,2.101,0,0,0-.8868-1.7734c-.4277.9658-1.4978,1.3-2.0366,2.1243a2.9345,2.9345,0,0,1-1.8382-.22,2.6463,2.6463,0,0,0-1.3436-.2254L368.91,328.21c.1788-1.4058-1.1121-1.7759-1.9673-2.3507l-1.9883,1.0191.5576,1.2809v1.4055a2.736,2.736,0,0,1-.78.4779c-.7893.1585-1.5946.2372-2.4082.3493l-.3993-.4975h-1.1039l-.4167.4167h-.7463l-.6-.538-.51.4681c.1509.8185.6705,1.5176.5042,2.294l-.7293,1.0876.31.7211.9847.2068c.4519.7569-.3151,1.2928.0083,2.0121.3783.4573,1.3.4254,1.6361,1.2892l-.77,2.0832C360.14,339.9355,359.9,339.9355,359.66,339.9357Z"/>
</svg>
