<svg id="Ghana" xmlns="http://www.w3.org/2000/svg" width="792" height="612" viewBox="0 0 792 612">
    <defs>
        <style>.cls-1{fill:#fff;}</style>
    </defs>
    <path class="cls-1"
          d="M251.0252,274.3875c-.6876-1.4429-.42-2.9436-.4816-4.3527-.4335-.77-1.4016-.3972-1.9106-.98a2.9025,2.9025,0,0,0-.39-1.8854c-.2965-.3746-.0285-.9475-.292-1.4367a4.7962,4.7962,0,0,0-.5249-.7931,3.74,3.74,0,0,0-.3787-2.0686.8037.8037,0,0,1-.08-.6647c.3353-.51.1724-1.0592.228-1.5473.5037-.6824.6919-1.5942,1.5837-1.816.1961-1.307.3759-2.5514.5757-3.7925a2.1,2.1,0,0,1,.2371-.62,5.1283,5.1283,0,0,0,.7547-1.7339c.0339-.2669.299-.5171.4906-.7486a6.2336,6.2336,0,0,0,1.0382-1.25c.11-.2326.4813-.3416.7932-.5454a1.8691,1.8691,0,0,1-.1922-.4322,3.6061,3.6061,0,0,1-.0081-.5985,13.3557,13.3557,0,0,0-.0188-1.7972,4.1174,4.1174,0,0,0-.4822-1.4714,2.4946,2.4946,0,0,1-.2218-1.2092l-.9187-.86v-.9532l.4175-.4175V240.423l-.35-.2124a16.4435,16.4435,0,0,1-.3341-1.6553c-.0541-.5546.0029-1.1193-.02-1.6783a6.315,6.315,0,0,0-.1529-.6526c-.04-.2654-.17-.6405-.0468-.7841.3464-.4036.1423-.8249.1881-1.1044l-.9724-1.6135a11.65,11.65,0,0,1,.1313-1.6906,13.3847,13.3847,0,0,1,.6113-1.722h2.2962c2,0,4,.0084,5.9992-.0068.413-.0032.8542.1426,1.2349-.218.1054-.1.407-.0719.5819-.0057a4.5024,4.5024,0,0,0,2.8144.03,2.5234,2.5234,0,0,1,1.6.13c.56.2352,1.2939.0439,1.7276.5734A21.3086,21.3086,0,0,1,269.61,228.07l1.5613.8045c.1451,1.0823-.7265,1.7908-.8858,2.7666l3.2879,2.5367c.0743.6549-.1264,1.2874.2426,1.8726.1315.2086-.1761.4258-.2029.616a11.2371,11.2371,0,0,0-.0246,1.5563,5.6705,5.6705,0,0,0-.9606,2.8095l.7895.0544.57-.4967c.4158,0,.4158,0,1.0279.5868a2.8044,2.8044,0,0,1-.37,1.8782,1.1,1.1,0,0,0-.0515,1.0051c.2725.3862.1341.7568.211,1.1933l-.7421.7431a1.5567,1.5567,0,0,0,.7691,1.438,9.3,9.3,0,0,1,1.397,1.1855v.6386l-.72,1.0635c0,1-.0284,2.0379.0124,3.0729a2.61,2.61,0,0,1-.3291,1.309c-.4858.9692-.4895.9673-.1478,1.834l.6933.4264v2.0639l-.8175.6561a6.9807,6.9807,0,0,1,.3433.7576c.1671.5313.6338.9732.4854,1.5993.544.6322.533,1.6657,1.4871,2.0148.2044.0748.3445.3255.5566.5376h.82l.78,1.5454-1.2742,2.252H276.55l-.3141-.3142v-.8176l-1.7618-1.2516c-.5743.7814-1.2439-.29-1.9139.16.3441.6535,1.0766.4839,1.5081.808l.6638-.2493,1.0432,1.0294-.2733.688a4.87,4.87,0,0,1-1.8535-.2049l-.1644.5232c-.9326-.2785-1.3638.2533-1.8586.57a4.9,4.9,0,0,1-2.9553,1.0175l-1.1525,1.1891h-.9731a4.2086,4.2086,0,0,1-2.864,1.2219,1.8429,1.8429,0,0,0-.9694.2455,5.33,5.33,0,0,1-3.34.9489l-3.0889,2.1541h-1.1879a4.4618,4.4618,0,0,0-4.0694-1.721Z"/>
</svg>
