<svg id="Guinea" xmlns="http://www.w3.org/2000/svg" width="792" height="612" viewBox="0 0 792 612">
    <defs>
        <style>.cls-1{fill:#fff;}</style>
    </defs>
    <path class="cls-1"
          d="M202.6332,257.1718a9.1578,9.1578,0,0,0-.9416-.9212,7.7428,7.7428,0,0,0-1.108-.5817,2.9775,2.9775,0,0,1,.0722-.8238,2.7134,2.7134,0,0,0-.1527-2.427.882.882,0,0,1,.0917-1.1614,4.091,4.091,0,0,1-.4243-2.3792l-1.8924-1.5716c-1.876.1472-3.78-.19-5.7647.25l-.3167-.59a2.1236,2.1236,0,0,0,.2252-.513,2.9186,2.9186,0,0,0,.0113-.6812l-.7292-.7291c.07-.5035-.1469-1.07.3372-1.6546l-.9643-.4889.178-.2033v-1.2512c-.3153-.3822-.6538-.7961-.9967-1.2063-.15-.18-.3786-.3269-.453-.5318a5.1863,5.1863,0,0,0-1.4916-2.1456,1.17,1.17,0,0,1-.2-.3932,2.2874,2.2874,0,0,0-1.4971-1.3545h-4.388l-.6792.6957h-3.2821a2.1032,2.1032,0,0,0-1.4425,1.668.7232.7232,0,0,1-.226.3813,1.6393,1.6393,0,0,0-.48,1.4477l-1.0644,1.0644h-.8l-1.104,1.6736h-1.1228l-.3532-.8834a1.3841,1.3841,0,0,0-.471-.2638c-.5282-.0984-.7863-.5305-1.0674-.8755a1.0726,1.0726,0,0,1,.0393-1.4314c-1.25-.321-1.1867-.5454-.7791-1.2992l-.8706-1.66-.4663.4411h-.6409c-1.6616-1.2675-3.5563-2.274-4.9659-3.9916v-.6236l-.7258-.4937c-.0792-.9331.5991-1.5187.9844-2.2257-.5566-.2893-.6207.3048-1.0532.4006l-.6325-.26v-.8377l.599-.75a2.8015,2.8015,0,0,0-.3693.0021c-.2925.0576-.5834.123-.8043.17l-.461-.421c.27-.8818.5218-1.7775.8276-2.6545.0711-.2039.3247-.3443.515-.5345h1.63l1.586-1.2045c.2752.085.7211-.2089,1.0845.184,1.1011-.0236,2.2661.3555,3.2565-.4986v-2.5229l-.8454-.5375c-.059-.8183-.059-.8183.7661-.9709l.8731-.9725-.2914-1.7807.36-.3453h3.208l.9339,1.4283a.9186.9186,0,0,0,.46-.0116,1.5118,1.5118,0,0,1,1.88.2322c.0877.079.3077.011.5727.011l.6834.7255.8811-.3109.5129.79h1.1969l.7-.7287c.8449.1021,1.7513-.2005,2.6538.2973l1.0573-.5223h1.185l.3848.8044-.9486.7817a4.7767,4.7767,0,0,0,2.0233,1.7894,2.2372,2.2372,0,0,0,1.7473-1.4363h.69l1.168,1.1736v.4891l.6146.7355c.1487-.0391.241-.0358.29-.08.8674-.79,1.7294-1.5857,2.59-2.3781a5.5344,5.5344,0,0,1,2.782.9345,2.1675,2.1675,0,0,0,1.8808.497l.4854-1.0918a3.6113,3.6113,0,0,0,2.6545-1.1682v-1.0134l.6551-.3391,1.2164.8243v1.1474l1.5109,1.8463-.3215,2.3251c.9282.7063.9282.7063,1.2523,1.4608.3818.3917,1.05.2172,1.3794.6885.0791.113.0554.2978.0883.51a6.1771,6.1771,0,0,0-1.8931,2.6872.5955.5955,0,0,0,.9191.2135,15.1511,15.1511,0,0,1,1.4646-.686l.4418.4418c0,.6567.05,1.3382-.0121,2.01a3.4978,3.4978,0,0,0,.724,2.3282,4.58,4.58,0,0,1,1.8833.8826v1.0669c-.4266.5181-1.3407.5759-1.5845,1.4481a4.4621,4.4621,0,0,1-.0527,2.8435l.3244.9937c.1078.0559.2732.14.4366.2271.1966.1052.3893.2177.5877.3191.165.0843.3359.1572.48.2239l.322,2.1194-.7282,1.4716.5052.9528.8813.0545.565.801a.87.87,0,0,1-.4263.8831l-2.7025-.3132c-1.04.9519-1.04.9519-.7231,2.5293.34.5573,1.4876.0948,1.4535,1.1275-.2427.3589-.475.7023-.7075,1.0456a3.976,3.976,0,0,1-.5595,2.4653l-2.2408.2914c-.2049-.0424-.3842-.2678-.3419-.6347a.7779.7779,0,0,0-.4733-.82l-.5777.4916c-.6091,1.3915-.7345,2.8143-2.3322,3.3922C203.2738,257.1715,202.9536,257.1715,202.6332,257.1718Z"/>
</svg>
