<svg id="Guinea-Bissau" xmlns="http://www.w3.org/2000/svg" width="792" height="612" viewBox="0 0 792 612">
    <defs>
        <style>.cls-1{fill:#fff;opacity:0.83;}</style>
    </defs>
    <path class="cls-1"
          d="M160.0018,226.6466h-1.7166l-1.1771-.8212.2532-.962-.5345-.5941.3448-.8,2.0785.2654c-.1213-.3079-.3006-.5642-.1068-.923.2113-.3912.6-.1247.865-.346l-.7986-.8373.4828-.9016-.7825-.3764-1.1487.5822a2.1269,2.1269,0,0,0-2.8012.5242l-.7062-.3788v-.7834c-.0632-.0434-.12-.11-.1867-.1233-.3654-.07-.7334-.1257-1.1811-.2l-.8068.8893h-1.5206l-.8367-.4926v-1.04c.5229-.7869,1.6457-.9546,1.8792-2.0027h3.1813l3.444-1.9586a9.8052,9.8052,0,0,1,1.9468.02c2.76.4941,5.5367.0275,8.4216.2831a2.6552,2.6552,0,0,1,.7587,2.4756l-.3135.3135h-1.2179l-.6.7194v.4l1.3911,1.08v2.0673l-.3218.3218c-.5442,0-1.102-.0048-1.66.0013a2.4183,2.4183,0,0,1-1.5311-.2867L163.2552,224h-1.4229C160.5943,224.409,160.5579,225.6841,160.0018,226.6466Z"/>
</svg>
