<svg id="Kenya" xmlns="http://www.w3.org/2000/svg" width="792" height="612" viewBox="0 0 792 612">
    <defs>
        <style>.cls-1{fill:#fff;}</style>
    </defs>
    <path class="cls-1"
          d="M528.5526,311.1881l1.498-2.12v-1.42l.7753-.3516a8.1436,8.1436,0,0,0,2.0243-3.2139l1.2615-1.2613.6174,0,.3711-.3712c-.2562-1.3908.6846-2.3138,1.4285-3.4406,0-.326.0055-.7633-.0012-1.2a6.5219,6.5219,0,0,0-.43-2.7018,6.173,6.173,0,0,1-.52-3.1248l-.9741-1.3486V289.505l-.504-.5039-.9268-.3116a2.0294,2.0294,0,0,0-.7452-1.859c-.3995-.3561-.35-.8945-.5-1.3523a1.4633,1.4633,0,0,1,.0012-1.2729,3.5961,3.5961,0,0,0,.0376-1.4184l-.8278-.8376c-.4251-.0784-.9059.1938-1.2949-.3613a6.1552,6.1552,0,0,0-.7014-2.1082c-.16-.4689-.4535-.9051-.2179-1.4518l2.57-2.57c2.7443.15,5.6122-.41,8.5042-.2437.7971.0459,1.5989.007,2.4292.007l.8891,1.212a12.6469,12.6469,0,0,1,3.4939.3895l.3354-.37h3.0062c1.79,1.1686,3.62,2.3516,5.4359,3.5556.7218.4785,1.4861.8854,2.1921,1.3994a3.3443,3.3443,0,0,1,.9472.818,1.3264,1.3264,0,0,0,1.28.68c.495.01,1.0176-.1278,1.4642.23.0487.039.1608-.0127.2349.0081.5926.166,1.1-.5528,1.766-.0964a4.0772,4.0772,0,0,0,1.5591.5541,7.3572,7.3572,0,0,0,1.5556.0154,1.7733,1.7733,0,0,1,1.4959.48c.7854.0456,1.6439-.1976,2.34.6935l.3124-.6678.109.1053v-.72l1.6274-1.6084a1.7628,1.7628,0,0,1,1.0644-1.58,4.1084,4.1084,0,0,0,1.151-.6815,3.0479,3.0479,0,0,1,1.8455-.6093c.604-.8473,1.6793-1.0364,2.54-1.568a2.03,2.03,0,0,1,.7943-.099c.4625.6722,1.1646,1.0663,1.5781,1.7794.2336.4031.8308.6057,1.2835.8648a.5169.5169,0,0,0,.463.0044c.5721-.4543,1.2813-.0111,1.8136-.2607a6.6606,6.6606,0,0,1,1.9335-.24l.2458.8926c-.4714.8227-.83,1.4815-1.22,2.1209-.6631,1.087-1.3876,2.1387-2.0062,3.25a11.0156,11.0156,0,0,1-1.6283,1.8412c-.2116.2392-.4464.4583-.677.68a1.5831,1.5831,0,0,0-.49,1.239,21.1039,21.1039,0,0,0,.0236,2.6359,69.8842,69.8842,0,0,1,.2091,8.9c.0528,3.0378.0117,6.0772.0117,9.1159v9.1029c.7388,1.0365,1.5385,2.1368,2.3136,3.2541.4492.6474.8281,1.3451,1.2959,1.9779a2.1353,2.1353,0,0,1,.4662,1.6333l-1.4718,2.1043a3.2327,3.2327,0,0,0-1.9542.3814c-.3014.2131-.8333.1-1.3161.1395v1.5479l-.7837.63v1.0358l-1.0225,1.0224c-.4458.252-.8684-.13-1.3606.0025-.4842.13-.84.5136-1.3307.5394l-1.3391,2.0351a8.4458,8.4458,0,0,1-.6067,3.9672,1.59,1.59,0,0,0-.4088.23,1.647,1.647,0,0,0-.68,1.0212,21.2766,21.2766,0,0,0-.711,2.3454,4.1526,4.1526,0,0,1-.5706,1.1936,4.7958,4.7958,0,0,0-.1846.6593,3.9476,3.9476,0,0,0-.9429,1.5169,19.8114,19.8114,0,0,1-1.5139,3.087,1.7925,1.7925,0,0,1-.3832.3945l-1.7974.3537a26.6971,26.6971,0,0,0-2.5633-2.318c-1.0341-.731-1.7849-1.7876-2.9743-2.3518-.5985-.2839-1.0149-.934-1.601-1.34-.7008-.4855-1.2944-1.1233-1.9531-1.6728-.3517-.2934-.7425-.54-1.0855-.7856v-.9046l-.69-.5778c-.152-.5248.1966-.7191.4414-.9764v-2.0244c-.4552-.3555-.9656-.7673-1.4918-1.1579a3.7728,3.7728,0,0,0-.5906-.3081,7.7383,7.7383,0,0,1-2.1447-1.21,2.77,2.77,0,0,0-.98-.5121c-.3454-.1268-.2182-.5609-.6431-.7194a12.0008,12.0008,0,0,1-1.801-1.1528c-.8282-.499-1.6817-.9563-2.5256-1.4291-.1616-.0905-.3746-.1316-.4859-.262a4.0121,4.0121,0,0,0-1.5933-1.0889,31.9844,31.9844,0,0,1-3.0557-1.8854c-1.0189-.551-1.9794-1.21-2.966-1.8206-1.1137-.6894-2.1959-1.4386-3.3513-2.0493-1.0567-.5586-2.0583-1.2045-3.1021-1.7771-.9291-.51-1.7677-1.1724-2.7354-1.6187h.24v-.24h-.24l.24-.24h-.24l.24-.24.24.24v-.48l.24-.48-.24-.48-.48-.24v-1.92l.96-.96.24-.24.24.24.24.24.96.48h.48v-.24l.24-.24v-.24h-.24v-.24h-.24v-.24l.24-.24.48-.24h.24v.24h1.44l.72-.24v-.24l-.48-.72-.48-.48-.48-.24-.48.24-.72.48-.24-.24h-.72l-.24.24v.24h.24l.24.48-.24.24-.48.48v.24h-.24v-.24l-.24-.48v-.72l-.48-.24h-.48l-.24-.24v-.24h.24l.24-.24v-.48h-.48l-.24.24v.24l-.48-.48-.24-.72.059-.354"/>
</svg>
