<svg id="Lake_Victoria" data-name="Lake Victoria" xmlns="http://www.w3.org/2000/svg" width="792" height="612"
     viewBox="0 0 792 612">
    <defs>
        <style>.cls-1{fill:#fff;fill-rule:evenodd;}</style>
    </defs>
    <polygon class="cls-1"
             points="522.734 308.415 522.734 308.655 523.695 308.895 524.655 309.135 524.895 309.135 524.895 309.375 525.135 309.375 525.135 309.615 524.895 309.855 524.895 309.615 524.655 309.615 524.415 309.615 524.175 309.615 524.415 310.095 525.135 310.576 525.375 310.576 525.615 310.576 525.615 310.336 525.855 310.095 525.855 309.855 525.855 309.615 525.855 309.375 526.095 309.375 526.575 309.135 526.815 309.375 527.055 309.375 526.815 309.375 526.575 309.615 526.575 309.855 526.575 310.336 527.295 310.576 528.015 310.576 528.255 310.095 528.735 309.855 528.735 309.615 528.735 309.855 528.735 310.095 528.495 311.536 528.735 312.256 529.215 312.736 529.215 312.496 529.455 312.256 529.935 312.256 529.935 312.496 529.935 312.736 529.695 312.976 529.455 312.976 529.455 313.216 529.695 313.456 529.935 313.456 530.175 313.456 530.655 313.696 530.655 313.936 530.655 314.176 530.655 314.416 530.895 314.896 530.895 315.136 531.135 315.136 531.135 314.896 531.615 314.416 531.855 314.176 531.615 313.696 531.375 313.696 531.375 313.456 531.615 313.216 532.095 313.216 532.335 313.216 532.575 313.456 533.295 312.976 533.775 312.736 534.255 312.976 534.735 313.456 535.215 314.176 535.215 314.416 534.495 314.656 534.255 314.656 533.775 314.656 533.535 314.656 533.295 314.656 533.055 314.656 533.055 314.416 532.815 314.416 532.335 314.656 532.095 314.896 532.095 315.136 532.335 315.136 532.335 315.376 532.575 315.376 532.575 315.616 532.335 315.856 532.335 316.096 532.095 316.096 531.855 316.096 530.895 315.616 530.655 315.376 530.415 315.136 530.175 315.376 529.215 316.336 529.215 317.296 529.215 317.776 529.215 318.256 529.695 318.496 529.935 318.976 529.695 319.456 529.695 319.936 529.455 319.696 529.215 319.936 528.975 319.936 529.215 319.936 529.455 319.936 529.215 320.176 529.455 320.176 529.455 320.416 529.215 320.416 528.975 320.656 528.735 320.656 528.495 320.896 528.735 320.896 528.495 321.136 528.255 321.376 528.015 321.376 527.775 321.616 527.295 322.576 527.295 323.296 527.775 323.536 527.775 323.776 528.015 323.776 528.255 323.776 528.495 324.016 528.255 324.016 528.015 324.016 527.535 324.016 527.295 323.776 526.815 323.776 526.335 323.536 526.095 323.536 526.095 323.776 526.335 324.016 526.575 324.976 526.575 325.216 525.615 325.936 525.375 326.416 524.895 326.656 524.655 326.656 524.655 326.416 524.415 326.416 524.415 326.176 524.175 326.176 523.935 326.176 523.695 326.656 523.215 327.136 523.215 327.376 523.455 327.376 523.695 327.376 523.935 327.136 524.175 326.896 524.655 327.136 525.375 327.616 525.375 327.856 525.375 328.096 525.135 328.096 524.895 328.096 524.655 327.856 524.415 327.616 524.175 327.616 522.975 328.096 522.734 328.336 522.734 328.576 522.734 328.816 522.734 329.056 522.734 328.816 522.975 328.816 522.975 328.576 523.455 328.816 524.415 329.056 525.615 329.296 525.855 329.296 526.335 328.816 526.575 328.576 526.815 328.576 527.055 328.576 527.295 328.816 527.295 329.056 527.535 329.536 527.295 329.776 527.055 329.776 527.055 330.016 525.375 330.737 525.135 330.737 525.135 330.977 524.895 330.977 524.655 331.697 524.175 332.177 522.734 331.937 522.495 331.937 522.014 331.457 522.014 331.217 522.014 330.977 521.774 330.977 521.534 330.977 521.054 330.737 520.814 330.977 520.334 331.217 520.094 331.697 520.094 332.897 520.094 333.377 520.574 334.337 519.614 335.537 519.374 335.537 519.134 335.777 518.894 334.577 519.374 334.577 519.374 334.337 519.614 334.577 519.614 334.337 519.854 334.337 520.094 333.857 520.094 333.617 519.614 332.657 519.614 332.417 519.854 332.177 519.854 331.937 519.614 331.697 519.374 331.697 518.894 331.697 518.654 331.457 518.654 330.977 518.414 330.737 518.414 331.217 518.174 331.457 517.694 332.177 517.454 332.177 517.214 332.177 516.734 331.457 516.494 331.217 516.254 331.217 516.014 330.737 516.014 330.496 516.014 330.257 516.014 330.016 515.774 330.016 515.774 329.776 515.294 330.016 515.294 330.257 514.814 330.737 514.574 330.977 514.574 330.737 514.334 330.737 514.094 330.737 513.854 330.977 514.094 331.217 514.334 331.457 514.574 331.457 514.574 331.697 514.814 331.697 514.814 332.177 514.574 332.177 513.854 331.697 513.854 331.457 513.614 331.457 513.614 331.697 513.374 331.697 513.134 332.657 512.894 332.897 512.654 332.897 512.174 333.137 512.174 333.377 512.174 333.617 512.174 333.857 512.174 334.097 512.174 334.337 511.934 334.337 511.934 334.097 511.694 333.377 511.694 332.897 511.694 332.657 511.454 331.937 511.214 331.937 511.454 331.697 511.694 331.697 511.934 331.697 511.934 331.457 511.934 331.217 511.934 330.496 511.694 330.257 511.454 330.257 511.214 330.257 510.974 330.016 511.214 328.816 511.454 327.856 511.214 327.856 510.974 327.856 510.974 328.096 510.734 328.096 510.494 327.856 510.734 327.616 510.734 327.376 510.734 327.136 510.974 327.136 511.214 326.896 511.454 325.216 511.694 323.776 511.694 323.536 511.934 323.536 512.174 323.056 512.414 322.336 512.414 322.096 512.654 321.856 512.654 321.136 512.654 320.176 512.414 319.936 512.414 319.696 512.174 319.696 512.174 320.176 511.934 320.176 511.934 319.936 511.934 319.696 511.454 318.496 511.454 318.256 511.934 316.816 512.174 316.336 512.414 315.616 512.654 315.616 512.894 315.376 513.134 315.376 513.134 315.136 513.374 314.896 513.614 314.416 513.614 313.456 513.374 313.456 513.374 313.216 513.134 313.456 513.134 312.976 513.854 312.256 514.334 312.256 514.574 312.256 514.814 312.496 515.054 312.496 515.774 312.016 516.254 311.776 516.734 311.296 516.974 310.816 517.214 311.056 516.974 311.296 516.734 311.536 516.974 311.536 518.174 311.056 518.174 310.336 518.414 309.615 518.654 309.615 518.654 309.855 518.654 310.576 518.654 310.816 518.654 311.056 518.894 311.296 518.894 311.056 520.094 310.576 520.334 310.576 520.334 310.816 520.334 311.056 520.574 311.296 521.054 311.056 521.294 311.056 521.534 310.816 522.255 310.095 522.495 309.855 522.975 308.895 522.734 308.415"/>
</svg>
