<svg id="Lesotho" xmlns="http://www.w3.org/2000/svg" width="792" height="612" viewBox="0 0 792 612">
    <defs>
        <style>.cls-1{fill:#fff;}</style>
    </defs>
    <path class="cls-1"
          d="M462.6761,552.8275h-1.72c-.5576-.5877-1.266-1.0655-1.3472-1.9642l-1.1407-1.1383v-1.4431l-.6539-.9586-.3416-2.5888a6.4163,6.4163,0,0,1,.584-.2977,3.01,3.01,0,0,0,1.94-1.3958,7.5246,7.5246,0,0,1,1.2455-1.522c.338-.3851.7616-.6752,1.11-1.0665a3.1175,3.1175,0,0,1,2.1387-.8437l1.1484-1.1508h1.4376l1.084-.74h1.194c.2717.3067.7491.5007.6265.9745.3348.483.6569.9093.9371,1.3615a3.8467,3.8467,0,0,0,1.5493,1.5049c.6132.3056.6359.3545,1.0936,1.073,0,.479,0,.9581,0,1.5179-.2494.1588-.5471.3273-.82.5293a1.3977,1.3977,0,0,0-.5015.4987,3.5993,3.5993,0,0,1-.95,1.1629,1.7659,1.7659,0,0,0-.5872,1.5937,4.5836,4.5836,0,0,1-3.0428,1.299c-.7171.0041-1.4342.0008-2.0657.0008C464.2261,550.1845,463.6964,551.7279,462.6761,552.8275Z"/>
</svg>
