<svg id="Liberia" xmlns="http://www.w3.org/2000/svg" width="792" height="612" viewBox="0 0 792 612">
    <defs>
        <style>.cls-1{fill:#fff;}</style>
    </defs>
    <path class="cls-1"
          d="M209.4892,264.9379c.9147.0241,1.8735-.1466,2.58.5014l.3787,1.9414a9.32,9.32,0,0,0,1.124.4311c1.033.2569,1.3753,1.1145,1.6959,1.953.1773.4638-.1849.864-.3915,1.2681l.4591,1.3577c-.3542.4544-.7145.897-1.0521,1.3562a1.7614,1.7614,0,0,0-.45,1.1376,1.6041,1.6041,0,0,1-.19.5343c.021.021.1264.0772.1269.1342.01,1.068.0072,2.1361.0072,3.2543l-.2913.2913h-.7372a4.0048,4.0048,0,0,0-2.3556-1.2256,3.9052,3.9052,0,0,1-2.24-.9682,1.9094,1.9094,0,0,0-.6578-.4266c-.7045-.3253-1.4276-.6109-2.1286-.9431-.67-.3175-1.317-.6822-1.9815-1.0112a9.06,9.06,0,0,1-1.8831-1.2175,8.6409,8.6409,0,0,1-2.4148-2.3179,3.0823,3.0823,0,0,0-1.3936-1.2124,3.3307,3.3307,0,0,1-.8328-.5908c-.89-.8627-1.7479-1.7593-2.64-2.62-.4563-.44-1.0863-.7046-1.3033-1.4057a3.3093,3.3093,0,0,1-2.6243-.6333c-.1532-.1164-.1831-.395-.3751-.8457l-1.4667-1.206-2.6144-1.0721c-.11-.5175-.2446-.9886-.3029-1.469a1.8157,1.8157,0,0,1,.3031-1.43c.2984-.3734.3769-.9617,1.0055-1.0031.8958-1.1647,2.3057-1.73,3.2757-2.8029.4676-.5173.8836-1.0813,1.3844-1.7v-1.5747l.9932-.8644h.8076l.8963-1.0586c.0972-.3563-.29-1.0449.2756-1.5753h3.9266l1.1439.8684a9.6217,9.6217,0,0,0,.48,1.9286,1.27,1.27,0,0,1-.0954,1.2722,3.4719,3.4719,0,0,1,.0029,3.6991,6.8961,6.8961,0,0,0-.1509,1.159l.3943-.5511h.8277a4.1857,4.1857,0,0,1,1.708,1.7247c.609-.2753,1.1855-.7233,1.809-.5327l1.1567-1.9871.0319-.641.6419-.277,1.2358,1.2419a2.6876,2.6876,0,0,0,.5734,1.6448,1.6966,1.6966,0,0,1,.4089,1.2693,15.7244,15.7244,0,0,0-.2837,1.9416c.0122.3027-.3467.6632-.6094.925-.4857.4841-1.0247.9148-1.618,1.4348A28.7843,28.7843,0,0,0,209.4892,264.9379Z"/>
</svg>
