<svg id="Libya" xmlns="http://www.w3.org/2000/svg" width="792" height="612" viewBox="0 0 792 612">
    <defs>
        <style>.cls-1{fill:#fff;}</style>
    </defs>
    <path class="cls-1"
          d="M445.0694,159.6634a14.5488,14.5488,0,0,1-1.816-.6022c-1.67-.8007-3.3086-1.6675-4.97-2.4868a13.1458,13.1458,0,0,0-2.4314-1.0694c-.8812-.2277-1.5851-.7851-2.4592-1.0413a15.1723,15.1723,0,0,1-2.7509-1.4553,14.9035,14.9035,0,0,0-2.5655-1.3293,43.2632,43.2632,0,0,1-5.655-2.5763c-1.54-.7258-3.0466-1.5274-4.6151-2.1831-1.0551-.4411-2.1486-.7957-3.1866-1.2861-1.2041-.569-2.4264-1.1022-3.6093-1.7121a45.5453,45.5453,0,0,0-4.35-1.9564c-.9971-.3886-1.9346-.9273-2.9134-1.3663-.775-.3475-1.5586-.6862-2.3633-.9542-.8115-.27-1.4545-.9083-2.3551-.9945a1.9208,1.9208,0,0,1-.8789-.4634,13.4047,13.4047,0,0,0-3.0107-1.4276,22.3022,22.3022,0,0,0-2.9765-1.2182,7.1982,7.1982,0,0,0-1.2925-.4191l-.5145-.64a32.87,32.87,0,0,1-4.8-2.1164c-.7659.4143-1.579.8569-2.3949,1.2942-.2938.1576-.6051.2851-.889.4582-.3224.1966-.6171.4382-.9347.6435a8.0618,8.0618,0,0,1-1.2465.7549,23.9955,23.9955,0,0,0-4.5254,2.6694c-.2918.2035-.5817.1626-.8382.3125a2.3552,2.3552,0,0,0-.6537.4318c-.2579.3124-.5774.1822-.8619.2328-1.1265-.8153-2.1193-1.7768-3.2976-2.5026a8.8217,8.8217,0,0,1-1.3443-1.0977,1.7846,1.7846,0,0,0-1.4629-.4917l-.3563-.3563a7.5792,7.5792,0,0,1-1.5136-.3791c-.71-.3484-1.4882-.1764-2.2238-.4189-.5876-.1937-1.2379-.2763-1.8527-.457a7.8377,7.8377,0,0,0-.9327-.0733,4.1187,4.1187,0,0,1-.86-.2377,6.656,6.656,0,0,0-2.3835-.2372,27.3838,27.3838,0,0,1-1.4953-2.5637c-.48-1.0613-1.1683-1.9906-1.7041-3.0124-.365-.6959-1.1358-.7638-1.7537-.8673-1.1181-.1872-2.1859-.5527-3.2907-.7776a6.238,6.238,0,0,1-1.4226-.7,4.8059,4.8059,0,0,1-1.0225.628,5.368,5.368,0,0,1-1.2431.12c-.542-.56-1.163-1.014-1.1276-1.8792a1.7136,1.7136,0,0,1-1.426-1.9972c.0554-.6744.01-1.357.01-1.9975a62.6947,62.6947,0,0,0-5.04-6.3092c-.0508-.7881.5733-1.2378,1.0012-1.6812a8.2218,8.2218,0,0,0,2.2876-1.0585l.2442-1.2748c-.3171-.3674-.245-.901.1358-1.4423a1.43,1.43,0,0,1-1.0405-1.4934,4.346,4.346,0,0,0-.2327-1.0995,2.7742,2.7742,0,0,1,.3109-2.7974,4.2533,4.2533,0,0,0,.4066-1.1481c.1033-.4.15-.8141.248-1.3761-.3053-.5222-.7111-1.1481-1.0466-1.81a2.5414,2.5414,0,0,1-.32-2.0852,2.3583,2.3583,0,0,0,.1594-.8908c.0153-1.16.028-2.32-.0048-3.4791a5.0784,5.0784,0,0,0-.2382-1.3378,12.7915,12.7915,0,0,0-.7625-2.5547c-.3685-.6453-.6532-1.3489-1.0838-1.9567-.5314-.75-1.116-1.4628-1.717-2.2428V83.059l.63-.3639-.119-.1212a.8208.8208,0,0,1,.2147-.0577,1.3723,1.3723,0,0,0,.87-.2287,5.4551,5.4551,0,0,1,1.38-.71.8552.8552,0,0,0,.595-.4712c.5006-1.1311,1.4486-1.9452,2.144-3.148a5.9415,5.9415,0,0,0-.9271-3.9671,1.3889,1.3889,0,0,1-.0252-1.5976,14.3184,14.3184,0,0,0,.678-1.3743h1.2343a3.6533,3.6533,0,0,0,.5942-.7435,7.2206,7.2206,0,0,1,1.283-1.5088c.1973-.23.343-.5053.546-.7293a2.9465,2.9465,0,0,1,.5263-.4036c.4377-.3029.88-.6,1.3628-.9278a4.222,4.222,0,0,0,2.6614-1.59c.0322-.8-.4712-1.1968-.9314-1.657V60.5741l.3237-.3852,2.054.3561c.28.1735.7648.4569,1.2313.7679s1.0535.3225,1.5133.7289a2.3724,2.3724,0,0,0,1.2971.3,12.4194,12.4194,0,0,0,1.7982.0022,5.7794,5.7794,0,0,0,1.5736-.2509,14.77,14.77,0,0,0,1.7845-.935,6.96,6.96,0,0,1,1.7746.5823,3.4308,3.4308,0,0,0,1.7717.3787c.8878.0625,1.7728.1647,2.753.259l2.4575,1.6281,4.7925.5295,1.0063,1.3439c-.2212,1.5856.7,2.962,1.5124,4.2617a6.662,6.662,0,0,0,3.8695,2.7129c.8816.1,1.7617.2564,2.6454.28.6441.0172,1.2946-.2152,1.9393-.2012a19.5433,19.5433,0,0,1,2.2254.2934,1.6364,1.6364,0,0,0,1.3163.409,6.9909,6.9909,0,0,1,2.2008.4778c.1551.4085.5569.2228.83.3086.8168.2567,1.5379.7369,2.3663.9549.6154.162,1.2276.3366,1.9537.5366a2.1439,2.1439,0,0,0,1.099,1.025A23.4386,23.4386,0,0,0,399.7,78.5729l.3582.4462a5.73,5.73,0,0,0,1.3062.3535,2.8766,2.8766,0,0,0,1.4927-.1514c.377-.1979.9246-.0752,1.2095-.546a4.7578,4.7578,0,0,0,2.336-1.6077,6.6842,6.6842,0,0,0,1.1518-1.5643,4.4432,4.4432,0,0,1,.4652-.5729v-.675l.4838-.5085v-1.99c-.2912-.8783-.983-1.33-1.1947-2.0806-1.0871-1.12-.9887-2.54-.9375-3.9209a2.6586,2.6586,0,0,1,.4746-1.35,14.3155,14.3155,0,0,1,2.4423-2.9534c.092-.0762.1566-.2166.2576-.2461,1.2341-.36,2.0377-1.4065,3.1191-1.9026a8.6112,8.6112,0,0,0,2.1872-.3495,9.3822,9.3822,0,0,0,1.826-1.418,2.2264,2.2264,0,0,1,.6728.1167,1.9631,1.9631,0,0,0,1.4591.0371c.1052-.0318.2428-.1582.2973-.1259.8893.527,1.9751-.0462,2.8885.5832a8.807,8.807,0,0,0,1.794.5695,9.2862,9.2862,0,0,0,2.1522.31c.17.1695.3394.3392.5514.5512V61.38l1.0089.4069.5469.5469c.0991.0059.2146.0184.33.0187.76.0018,1.5227.0426,2.2789-.01a3.0488,3.0488,0,0,1,2.2095.75,1.929,1.929,0,0,0,1.3737.4644,11.4356,11.4356,0,0,1,1.4389.005,3.21,3.21,0,0,0,1.5752-.2624,3.2371,3.2371,0,0,1,2.3329-.0073c.4853.1427.6324.38.5916.95l1.06.8708-.6383,1.6207.1226.0819-.7656.6145v1.7257c.4719.9851.9279,1.916,1.36,2.8582a1.4606,1.4606,0,0,1,.0676.57c.0078.6.0028,1.2.0028,1.7031l-1.2576,2.8611c.2624.4586.4939.9267.7833,1.3557a7.5332,7.5332,0,0,1,.96,2.6043,5.9173,5.9173,0,0,0,1.388,2.9332,9.2514,9.2514,0,0,0,.4958,2.4046.7733.7733,0,0,1,.03.2274c.08.9267.1471,1.8548.2464,2.7795.0441.4106.1632.8127.2312,1.2215.0618.3714-.1394.7858.2312,1.1131.0793.07.0251.3082.0092.4665a4.7873,4.7873,0,0,0,.2655,2.1717,8.0285,8.0285,0,0,1,.232,1.7067,11.1635,11.1635,0,0,0,.436,2.3348c.1081.2778-.0048.634.0375.9471.04.2923.2478.5866.2143.86a10.939,10.939,0,0,0,.3017,3.1348,23.5059,23.5059,0,0,0,.6538,3.7958,7.172,7.172,0,0,1,.2493,1.9336c.0227.4653.3271.839.28,1.3424a2.2417,2.2417,0,0,0,.1718,1.4814c.2095.357-.0849.9823.0708,1.4049.2121.5759.071,1.1751.2417,1.7011.1876.5776.017,1.2225.2487,1.6905.3625.7323.11,1.4959.3835,2.2415a8.4516,8.4516,0,0,1,.0663,2.3788,12.1965,12.1965,0,0,0,.2251,1.2215,7.6027,7.6027,0,0,0,.2,1.1131,11.4786,11.4786,0,0,1,.2809,2.4072,28.3322,28.3322,0,0,0,.2885,3.61,12.2109,12.2109,0,0,0,.2335,2.0535c.39.9306-.1064,1.9489.4367,2.82.0359.0576,0,.1574.0055.237a24.7908,24.7908,0,0,0,.2727,3.1332,19.5858,19.5858,0,0,1,.2249,2.0654,3.5515,3.5515,0,0,0,.4277.966,36.9517,36.9517,0,0,0,.318,4.2488c.1556.86.036,1.7245.2261,2.5411.2081.8941.063,1.8034.2464,2.6594.2009.9369.02,1.8975.2488,2.7761a19.1326,19.1326,0,0,1,.217,2.4179c-.7238.5519-1.5665.063-2.2077.34a5.9936,5.9936,0,0,1-2.1968.1924c-.7509.05-1.5077.0111-2.2245.0111l-.3565.3757C445.589,158.4512,445.5826,158.8211,445.0694,159.6634Z"/>
</svg>
