<svg id="Madagascar" xmlns="http://www.w3.org/2000/svg" width="792" height="612" viewBox="0 0 792 612">
    <defs>
        <style>.cls-1{fill:#fff;}</style>
    </defs>
    <path class="cls-1"
          d="M602.7508,523.4209c-1.3451.3989-2.4342,1.2134-3.78,1.0509-.1459-.1459-.2874-.2874-.4288-.429a3.4685,3.4685,0,0,0-2.1521.2375c-.6186.3072-1.3172.2265-1.9134.6118a6.7228,6.7228,0,0,1-1.962.7811l-.6733.7372a11.51,11.51,0,0,1-2.4-.1672l-.7416.2186a13.7326,13.7326,0,0,1-1.7225-1.9482c-.1638-.3032-.5824-.4752-.8977-.6881-.2492-.1683-.5178-.3076-.94-.5548h-.8617a6.4789,6.4789,0,0,0-2.3781-2.3924l-.372-4.25a4.4249,4.4249,0,0,1-.6105-.6254c-.3005-.44-.7816-.7935-.3231-1.5028a4.6417,4.6417,0,0,0,.312-1.6858l.5992-.5992a12.6008,12.6008,0,0,1-.1761-2.7332,1.5583,1.5583,0,0,1,.3577-.3136,2.2111,2.2111,0,0,1,.59-.0572l.3693-1.5039-.8391-.5781.3234-2.5179-.5564-.5564-.7043-1.3574c0-.9047.0524-1.9882-.0244-3.0624-.0332-.4641.2121-.8691.0681-1.3753a2.6183,2.6183,0,0,1,.2531-1.4255,6.9033,6.9033,0,0,1,.46-1.36c.473-.7241.6316-1.6584,1.3944-2.1887a2.2349,2.2349,0,0,1,.4024-.1775,5.6933,5.6933,0,0,0,.3144-.9442,7.3439,7.3439,0,0,0,.0124-1.104l1.0474-1.3118,1.2624.2437,1.2545-1.3477.5874-2.1714a10.5591,10.5591,0,0,0,1.1165-1.0268,6.7929,6.7929,0,0,0,1.0687-1.5911,7.4108,7.4108,0,0,1,1.0724-1.3577,6.278,6.278,0,0,1,.6057-.8218c.3833-.3461.43-.979,1.0718-1.13.2156-.0509.4014-.4491.4972-.7246a4.603,4.603,0,0,0,.0918-1.0366l-.2968-.1593v-1.1635a2.943,2.943,0,0,0,.928-2.3369,3.94,3.94,0,0,0-.9881-2.2958c.0914-1.2.226-2.4434.2668-3.69a6.4529,6.4529,0,0,0-.6794-2.49c.1014-.5851-.2782-1.4638.2115-2.2731a.1412.1412,0,0,0,0-.1176,1.96,1.96,0,0,1-.01-1.7269,17.0735,17.0735,0,0,0,.4907-1.7169,1.2237,1.2237,0,0,0,.0013-.2121l-.48-.33a11.17,11.17,0,0,1,.01-1.1773,1.958,1.958,0,0,1,.2439-.8525,5.9514,5.9514,0,0,1,1.1015-1.3364,15.6626,15.6626,0,0,0,1.7543-2.2891c.0789-.0912.0108-.31.0108-.4236.336-.3813.6547-.73.9581-1.091.3-.3571.5842-.7271.9545-1.19v-3.0334l.5778-.5778a6.5264,6.5264,0,0,1,2.8358.4878l.8174-.7617c.6223.1665.77-.4561,1.2265-.7035h.7125l.45.7081c.6413.157.8244-.4992,1.0616-.6379.6962-.2733.8273.3093,1.1753.407.8412-.3959.1747-1.42.8541-1.9051h1.4651l.6333.7667,1.5805-.348.6479,1.21h1.2961v-.8465a2.4768,2.4768,0,0,1-.4034-.4129,1.5066,1.5066,0,0,1,.1943-1.967,3.0577,3.0577,0,0,1,1.5166-.9791,17.8328,17.8328,0,0,0,2.5753-1.5012h.6922l.3571.7455a2.6051,2.6051,0,0,0-1.0616,1.9937l.9351-.595h1.0564l.4779-.4458-.7858-1.2435v-1.13l.9853-1.2415h.9631l.3135,1.1405.4875.0429,1.0586-1.1745a5.9885,5.9885,0,0,1,1.8275-2.65h.8207l.6468,1.1717.285-.0212v-1.3592l-.6311-.5594h-.8964l-.3191-.3191v-1.2444c.3806-.2446.5506-.9015,1.35-.8074l.64.81c.59-.9215,1.2349-1.7065.6429-2.7926-.0636-.1167.08-.3463.1213-.5014l-.8483-.84a4.7388,4.7388,0,0,1,.4812-2.17h1.1153c.6039.448.1243,1.4689,1.0373,1.8771h.6453l.788-2.155h.8676c.4426-.8636.4426-.8636,1.21-.4661l1.2166-.966.4028-2.1174a5.6332,5.6332,0,0,0,1.1873-1.8637,2.235,2.235,0,0,0,.1149-1.3436,5.2761,5.2761,0,0,1-.2167-1.5264c.79-.4424.5357-1.5843,1.3858-2.03h1.4022l.4719.472h.9553c1.0122.9174.4927,1.9558.3192,2.9554.4707.47.9293.91,1.3672,1.37a3.1546,3.1546,0,0,1,.7424,3.09c-.0158.0674-.0936.12-.1418.1786.0806.2489.1605.4958.24.7427a2.4,2.4,0,0,1,.2274.74c-.05,1.4022.7427,2.7212.4746,4.1182-.3083,1.6064-.0543,3.2323-.2678,4.8178a19.14,19.14,0,0,0-.1787,3.0264,19.8289,19.8289,0,0,0,.2985,2.19,4.4207,4.4207,0,0,1,.8741,3.39c-.4081.9081-.8177,1.6638-1.0887,2.4663-.28.8292-1.0189,1.316-1.3028,2.069a1.3716,1.3716,0,0,1-1.3928-.5082l-.3669-3.781-1.0861-.5559c-.477.512-1.2612.6146-1.4561,1.8054l.28,2.632c-.6506,1.06-.6506,1.06-.2556,2.0542a2.8151,2.8151,0,0,1,.4067.1746,1.58,1.58,0,0,1,.2575.25,1.648,1.648,0,0,1-.3911,1.3887l.2193,1.8549-1.5213,1.5214a.6689.6689,0,0,1-.3482.8789c-.44.21-.8527.3915-.822.9766.002.04.0153.1-.0046.116a7.2336,7.2336,0,0,0-1.5306,2.4873,1.9331,1.9331,0,0,1-.3557.3645c.0678.1083.2.2218.2017.3377.0171.92.0112,1.84.0074,2.76-.0005.1133.01.2616-.0529.3343-.5086.5866-.5161,1.38-.86,2.0509a12.3432,12.3432,0,0,0-1.2544,3.4383,1.9034,1.9034,0,0,1-.3488.81,21.7558,21.7558,0,0,0-1.29,2.3549c-.3879.6466-.7669,1.283-1.2015,1.905a6.1233,6.1233,0,0,0-1.088,2.1857,3.9484,3.9484,0,0,1-.8492,1.6887,10.2125,10.2125,0,0,0-1.4556,3.2318,6.73,6.73,0,0,1-1.1386,2.173,5.8111,5.8111,0,0,0-1,1.5008,28.9536,28.9536,0,0,0-1.7132,3.8527,13.9622,13.9622,0,0,1-.6882,1.6325c-.4929,1.236-.9857,2.4836-1.5681,3.6675a19.4552,19.4552,0,0,1-2.6731,4.4177,3.9107,3.9107,0,0,0-.4266.6616c-.2951.5168-.57,1.0454-.8716,1.5582a8.1288,8.1288,0,0,0-1.1191,1.9289,20.2891,20.2891,0,0,1-.7656,1.9688,7.3107,7.3107,0,0,0-.7527,2.09c-.795,1.1332-1.0261,2.534-1.8775,3.6763a17.3012,17.3012,0,0,0-1.4875,3.21,2.63,2.63,0,0,1-.52.8581,15.5269,15.5269,0,0,0-2.1132,2.8952v.6722c-.2235.2633-.497.4491-.5137.8831-.0113.2926-.3235.5743-.503.86a2.8559,2.8559,0,0,1-.4314.656A5.57,5.57,0,0,0,602.7508,523.4209Z"/>
</svg>
