<svg id="Malawi" xmlns="http://www.w3.org/2000/svg" width="792" height="612" viewBox="0 0 792 612">
    <defs>
        <style>.cls-1{fill:#fff;}</style>
    </defs>
    <path class="cls-1"
          d="M529.2489,447.851c-.7022-.6623-1.4527-1.2817-2.0912-2.0006a10.1134,10.1134,0,0,1-1.2548-1.8747c-.279-.51-.5163-1.0108-1.0744-1.1219-.3932-.5861.1381-1.01.1112-1.3731l-1.3156-1.3156a1.0507,1.0507,0,0,1,.62-1.0749,2.3061,2.3061,0,0,0,1.1637-1.3025v-1.1589l1.441-1.1553c0-.1491-.0193-.4174.0037-.6821.07-.8077.1871-1.6125.2276-2.4213.04-.798.0087-1.5995.0087-2.2159l-1.24-2.202a3.3358,3.3358,0,0,0-1.7516.4186c-.5952.2474-1.2689-.0666-1.9459.23a5.2215,5.2215,0,0,1-1.9237.0473c-.5783-.742-1.208-1.4719-1.738-2.2683a4.9029,4.9029,0,0,1-.3547-1.3853l-.6346-.6046-.0619-.5854-.872.31c-.5824-.2188-.7294-.7349-.99-1.143-.24-.3755-.4128-.7932-.7025-1.3644.0078-.117-.1652-.4941.2076-.7608.0382-.0273-.0249-.2016.0116-.2249.7266-.4617.7888-1.4143,1.445-1.9381a3.9873,3.9873,0,0,1,.4023-2.3441.8039.8039,0,0,0,.0515-.6794c-.5805-.935.0053-1.5071.6112-2.1284.2887,0,.6047-.01.92.0024a1.5514,1.5514,0,0,0,1.2447-.4773c.5248-.5407,1.0637-1.0677,1.5733-1.5773-.1073-.6839-.5854-.588-1.0485-.5857a2.38,2.38,0,0,1-.9086-2.0592l.3991-.2434a16.4612,16.4612,0,0,0,.3335-1.6548c.054-.5548.0121-1.1188.0121-1.69l-.45-.4318v-.906l1.4213-2.0352-1.1413-2.0952.9414-.4614-.1766-.1828h.9483c.6794-.51.8051-1.5631,1.8506-1.64-.0692-1.1535-1.1383-1.93-.7067-3.0291l-1.7379-1.4047.2958-1.6517-.7317-1.0767v-1.0479l.7525-.3065.723.8675a7.4542,7.4542,0,0,1,1.04-.3022,7.9938,7.9938,0,0,1,1.0786-.0114c.4264.32.8527.64,1.3111.9837l.6411-.959h.75a.5146.5146,0,0,1,.1491.0986,20.8528,20.8528,0,0,1,1.8114,2.0019,4.3716,4.3716,0,0,1,.8319,2.5431c-.0107.76.0073,1.52-.0063,2.28a1.3779,1.3779,0,0,0,.2471.9781,1.3647,1.3647,0,0,1,.2383.9831c-.0051.48-.0013.96-.0013,1.5276a2.2323,2.2323,0,0,0-.2724.28,1.4657,1.4657,0,0,0,.1227,2.2192c.4968.5462.9667,1.1171,1.4448,1.68.2962.3488.1777.6424-.1859.946h-1.52a4.7324,4.7324,0,0,0-.5723,2.0753l-2.1145,2.8737a6.4636,6.4636,0,0,1,.1954,1.53c-.0986.7282.3259,1.36.2623,2.0636.4043.2962.2291.7276.2327,1.1007.0166,1.7193.0073,3.4388.0073,5.0813l.7333,1.3631h1.0195a7.5783,7.5783,0,0,1,2.6947,2.8889c.4386.9052,1.0605,1.7211,1.5888,2.584a7.3981,7.3981,0,0,1,.3459.7966,16.0693,16.0693,0,0,1,1.8038,2.7463,1.6866,1.6866,0,0,1,.2086.9974,3.3878,3.3878,0,0,0,.318,1.946l-1.0325,1.6819c0,1.1148.0641,2.2794-.0189,3.4334-.0762,1.0594-.3111,2.1074-.4864,3.2265l-1.0113.8627-1.2188.2886-.4991-.6349-1.48,1.2834-.3983,1.4-.8579.76v.8792l.7677.7687-.3172.7623Z"/>
</svg>
