<svg id="Mali" xmlns="http://www.w3.org/2000/svg" width="792" height="612" viewBox="0 0 792 612">
    <defs>
        <style>.cls-1{fill:#fff;}</style>
    </defs>
    <path class="cls-1"
          d="M302.42,178.4728v6.24c-.3308.0034-.2351.2569-.2364.43-.0073,1.0326-.0036,2.0653-.0036,3.1145l-.9083.8424c-.26,1.3752-1.12,2.5048-1.003,3.9843a7.69,7.69,0,0,0-3.1556,2.8587,6.0888,6.0888,0,0,1-3.1369-.4188l-.4689.4688c-.7241,0-1.3664.04-2.0013-.011-.6729-.0546-1.3016.26-1.9386.2311-2.7318-.1234-5.4353.47-8.0221.2389-1.23.5939-1.8506,1.66-2.79,2.4129a5.58,5.58,0,0,0-2.034.2238,1.19,1.19,0,0,1-1.0409-.0111,1.4738,1.4738,0,0,0-1.1245-.1915c-1.0017.0524-2,.1678-2.9661.2552-.462-.5825-1.15-.5431-1.6912-.68a4.8422,4.8422,0,0,0-1.8216.2312,2.2936,2.2936,0,0,0-1.8779-.509l-2.7578,2.3637c-.319.0651-.6113.0508-.9222.14a8.4867,8.4867,0,0,0-1.9578,1.0667,3.6763,3.6763,0,0,1-2.223.73,2.1713,2.1713,0,0,0-2.0156.8754v1.3668c-.4259.68-1.0434.2677-1.517.4l-1.0534-.7175c-1.5423-.2255-2.2728,1.098-3.3933,1.8316-.416.7149-.4,1.7278-1.118,2.525l-1.6072-.2177-.6842.5371v2.2164c-.504.369-1.2347.3669-1.4849,1.0107h-1.1032l-2.4486-1.9092c-.74.4257-1.0331,1.2013-1.7965,1.4676a1.3894,1.3894,0,0,0-1.0025.9754l.9034,1.6358v1.3144l-.3438.3438a6.2126,6.2126,0,0,0-1.6695.1375c.8024,1.1011-.0438,2.13.0714,3.0654l-1.5663,1.823-3.2591.6453-1.4738,1.2234a5.0528,5.0528,0,0,1-.1789,5.0724c-.4308.1289-.9656-.1449-1.1637.4708l.2844,2.5156a2.0752,2.0752,0,0,0-.5358,1.7379l-.3547.3546h-1.3755a4.9023,4.9023,0,0,0-1.8719,1.6875h-1.44a2.89,2.89,0,0,1-.229-.7364c-.029-.8342-.011-1.67-.011-2.5036l-.6156-.6156-1.3427,1.03-1.6128-.2461v1.4831l-.383.383h-1.2446l-1.0414,1.206h-1.2c-.1618-.51-.6293-.0816-.9261-.2532l-.7478-.8153-1.7384-.6009-.5634.2832-.6006,1.1161h-1.0943a3.4877,3.4877,0,0,0-1.8409-1.2088l-.8984-.8069v-3.6535a3.401,3.401,0,0,0-.8548-.52c-.3645-.0964-.808.0761-1.0165-.3608V227.24c.2768-.8693,1.1866-.1812,1.39-1.0244l-2.0655-1.2652-.37-.7186-.6966-.5029c.1416-.6523-.1991-1.3456.2482-1.9886l-1.4312-2.004v-1.3747c-.3488-.1727-.71-.3631-1.0812-.5322-.3967-.1808-.8024-.3414-1.1316-.48l-.3871.32.2577,1.456a3.7024,3.7024,0,0,1-2.1477.6524l-1.1391,1.1713h-1.1761a6.4812,6.4812,0,0,0-2.8916-1.35l-2.3381,1.814H191.156l-1.4942-1.9166c-.9853-.016-.9446,1.1507-1.6149,1.4419H186.74l-.94-.826V219.06c.266-.7117.8183-1.1985.2208-1.826a6.9976,6.9976,0,0,1,.1386-1.62,10.4481,10.4481,0,0,0,.3692-2.0019l-1.2363-1.1865v-1.0914l-1.1936-1.2h-1.0978l-1.2962-1.2962v-1.1927l.691-.7406c-.0868-.6022-.1777-1.0489-.2087-1.5-.0324-.4716-.0072-.9472-.0072-1.43l-1.44-1.2617v-1.68c.5105-.1618.0806-.63.3506-.9654l2.09-.8095.7063-1.3741-.2659-.3609a7.4753,7.4753,0,0,1,.9834-3.6633l.9635-.0532.2865-.4293h1.3709l.7739,1.231c.48.3512.9268.6339,1.32.9775.4509.3937.8533.8428,1.2815,1.2631.036.0354.1078.0343.1789.0548l.0676-.5773,1.5328-1.5334,3.0942,0c1.0624.85,2.2811.3308,3.514.5083l.26-.4292c1.3453-.1169,2.51-.3,3.6745-.3055q9.18-.0439,18.3594-.0006a10.2312,10.2312,0,0,1,3.74.2269h5.6048l.8414-4.5246a1.545,1.545,0,0,0,.3392-1.4434l-1.8505-1.5443a9.3385,9.3385,0,0,0-.2184-1.7187c-.1813-.6909.0714-1.4731-.2795-2.17.1071-1.5764-.4208-3.1195-.2451-4.7011.0305-.2739.1022-.6328-.0315-.8177a1.3719,1.3719,0,0,1-.0921-1.3157.4809.4809,0,0,0-.0034-.2528,13.1367,13.1367,0,0,1-.3522-3.9354,2.5723,2.5723,0,0,0-.0893-1.0405,2.2059,2.2059,0,0,1-.0589-1.4637.8165.8165,0,0,0,.0461-.254c-.0359-.3022-.0764-.6048-.1367-.9028-.0666-.33-.179-.6508-.2321-.982-.0969-.6041-.1833-1.2112-.2407-1.82-.0987-1.0451.2051-2.1215-.2441-3.14.1739-1.6988-.3558-3.364-.2427-5.0606a1.9829,1.9829,0,0,0-.0114-.834,10.9815,10.9815,0,0,1-.4673-4.2469c-.0021-.2353.0689-.542-.05-.6923-.348-.44-.1447-.9166-.169-1.3693-.009-.1666.3268-.3437-.0127-.523.0835-.862-.42-1.6647-.2527-2.5387.0367-.1914.081-.4577-.0157-.5852-.4117-.5427-.1751-1.1456-.2056-1.7149a3.2245,3.2245,0,0,1,.1551-1.72l-.416-.416c.1557-1.9832-.5989-3.9893-.083-6.0011-.1226-.317-.3955-.6746-.3646-1.0037.1264-1.3483-.3728-2.6438-.2694-3.9832a1.2321,1.2321,0,0,0-.185-.7667.7.7,0,0,1,.0907-.89,5.9173,5.9173,0,0,1-.1349-.8049,10.9168,10.9168,0,0,0-.06-2.3841c-.19-.7369-.2177-1.491-.4112-2.2208a1.1989,1.1989,0,0,1,.0517-.9175c.33-.3905-.3542-.588-.0759-.9273a2.2147,2.2147,0,0,0,.2493-.6129h.96l.079.199.161-.199h4.56c.1036.08.2038.2234.3113.229a5.2486,5.2486,0,0,1,1.4272.0435c.4653.1684.8306-.0842,1.2541-.0595,1.2753.0747,2.5577.027,3.7556.027.9131.5843,1.7741,1.1244,2.6234,1.6821a27.4856,27.4856,0,0,1,2.5216,1.7184c1.147.9517,2.3755,1.7772,3.5939,2.6259a20.3393,20.3393,0,0,0,2.385,1.4791,16.7786,16.7786,0,0,1,2.6273,2.07c.2655.2133.5554.3961.8314.5967.308.2237.6207.442.9172.68.4825.3876.9452.8,1.4316,1.1824a17.98,17.98,0,0,0,1.56,1.1579,34.2349,34.2349,0,0,1,3.6127,2.5732c.68.5583,1.3774,1.0978,2.0935,1.6085.4543.324.9745.5551,1.4335.8733.4114.2852.7354.7972,1.1768.9162.7629.2055,1.1935.8152,1.7718,1.2171,1.4752,1.0253,2.9079,2.1189,4.3114,3.25.7439.5994,1.6872.9583,2.4716,1.5448.2293.1715.5711.19.8065.3567.6858.485,1.3328,1.0248,2.0159,1.5139.6687.4789,1.4252.8237,2.1029,1.2847a9.9,9.9,0,0,1,2.1766,1.5726c-.0664.7431.1377,1.4629-.262,2.1069a2.7306,2.7306,0,0,0,1.43.8939,16.5465,16.5465,0,0,1,2.08.8624,6.1457,6.1457,0,0,0,.2022.77,2.9335,2.9335,0,0,0,2.631,1.6893,17.8587,17.8587,0,0,0,2.0343.0137l.7228,1.167.7031.5133a10.4681,10.4681,0,0,1,3.631.508,7.3738,7.3738,0,0,1,1.6161.9637l.3325,3.8166-.9834,1.3021a2.8139,2.8139,0,0,0,.4425.4328c.6136.3775,1.25.8756,1.9944.622a5.4229,5.4229,0,0,1,1.1111-.2125c.3709-.0479.7321-.2042,1.1017-.22a1.6643,1.6643,0,0,0,1.24-.4931c.48,0,.96,0,1.4129,0l.8668.8361v2.2949c0,.76.0425,1.5226-.0118,2.2784-.0557.7755.2393,1.5779-.1647,2.3271a5.6962,5.6962,0,0,1,.173,2.1538c.0206.3186-.01.6407.0144.9586C302.1962,178.3509,302.34,178.4094,302.42,178.4728Z"/>
</svg>
