<svg id="Mauritania" xmlns="http://www.w3.org/2000/svg" width="792" height="612" viewBox="0 0 792 612">
    <defs>
        <style>.cls-1{fill:#fff;}</style>
    </defs>
    <path class="cls-1"
          d="M165.4746,184.8176a12.5719,12.5719,0,0,1-2.3258-.2278c-.7-.25-1.5447.0986-2.3523-.1951l-.636.636c-.6873,0-1.404.0173-2.1194-.0055a1.7715,1.7715,0,0,0-1.4811.486c-.96,0-1.9219.037-2.8792-.0127-.7238-.0376-1.4419-.1864-2.2183-.2935l-.58.58-.6508-.2713v-.936a10.3249,10.3249,0,0,0,.4441-.9427A3.8223,3.8223,0,0,1,152.08,181.39c.0366-.2369.0041-.4712.1049-.6056a10.7916,10.7916,0,0,0,1.1834-2.8731,4.6626,4.6626,0,0,0,.4239-2.1,10.5936,10.5936,0,0,1,.2371-1.9422,12.8059,12.8059,0,0,0,.0008-1.9181c-.0376-.5367.1657-1.0873-.1506-1.6155-.2786-.4651.0739-1.0452-.2891-1.5669-.2368-.3405-.0138-.8715-.1836-1.3526a10.24,10.24,0,0,0-.5591-1.572c-.05-.0925-.0072-.2361-.0072-.3727l-1.1879-1.15v-.542l1.2581-1.1565a1.1966,1.1966,0,0,1,.0034-1.5525,2.2843,2.2843,0,0,0,.4278-1.27c.015-.3942.2774-.774.326-1.1729.0744-.61.0593-1.2314.0822-1.8479-.8837-1.0446-1.0945-2.4432-1.8961-3.634l-.8936-.0611a9.59,9.59,0,0,1-.6383-.9435c-.4183-.7839-.8089-1.5833-1.1908-2.3859-.2248-.4723-.195-.5644.2125-1.2159a6.131,6.131,0,0,1,2.3542.2392c.1595.08.3941.0116.5941.0116a38.2691,38.2691,0,0,1,4.077.0238c3.3659.3628,6.75-.0249,10.0972.2724,2.4582.2183,4.9.0513,7.3445.1906.6094.0347,1.212.1838,1.8214.2245.5973.04,1.1993.0087,1.8838.0087.0147-.2968.042-.5989.0426-.9011.0038-2.08-.0559-4.1618.0248-6.2385.0447-1.15-.3316-2.2438-.2628-3.3811-.5762-1.1319.2212-1.6669.9779-2.1932.4586-.319.9785-.55,1.435-.8715.5375-.3785,1.0362-.812,1.5683-1.2349a6.66,6.66,0,0,0,1.7872-.2292c.8867-.363,2.0279-.29,2.6316-1.6027,0-.1951-.0165-.6681.0029-1.1395a48.6756,48.6756,0,0,1,.2853-5.2929c.1732-1.1408.0208-2.2784.22-3.3825.204-1.1318.0127-2.2957.2549-3.3757.3814-1.701.0044-3.3884.2585-5.1416l.3165-.2956a28.8643,28.8643,0,0,1,4.2589.0407,46.3642,46.3642,0,0,0,5.9063.19c1.9589.0432,3.9195.0156,5.8792.0064a19.9649,19.9649,0,0,0,2.3025.2613,20.2963,20.2963,0,0,1,2.2777-.0182h2.4013a11.98,11.98,0,0,0,.3378-4.2916c-.0988-1.5062.4888-2.958.2147-4.4267.6382-.5067.6312-.4931,1.1142-.1754,1.476.9708,2.9648,1.9221,4.4386,2.8962,1.1329.7487,2.2452,1.5285,3.3764,2.28,1.7551,1.1658,3.5273,2.306,5.2744,3.4836.7888.5316,1.5386,1.1217,2.2986,1.6951.8491.6406,1.7677,1.1771,2.6156,1.8288.6577.5057,1.529.7382,2.2281,1.26,1.0566.7892,2.1622,1.5127,3.2838,2.29l-.327.7632a1.6407,1.6407,0,0,1-.3.0746,23.4606,23.4606,0,0,1-4.0717-.0423,50.2373,50.2373,0,0,0-5.6681-.1929.9228.9228,0,0,0-.2222.04l-.292.2922a11.043,11.043,0,0,0,.4431,4.181,2.1771,2.1771,0,0,1,.008.8358c-.1674,1.7789.2789,3.5285.2437,5.3.3677.7783.0928,1.6349.2656,2.4147.33,1.4881.05,2.9925.2541,4.46a23.4228,23.4228,0,0,0,.2432,2.5348,10.6511,10.6511,0,0,1,.1931,2.3116,7.891,7.891,0,0,0,.2194,2.0678c.1877.612-.1707,1.3295.2622,1.9346.0189.0264.0063.0787.0018.1182-.1773,1.54.325,3.0418.2579,4.5809a2.6485,2.6485,0,0,0,.1416,1.6146c.2822.4679-.1643,1.1038.3158,1.5512.04.0372.013.1552.0041.2342-.1818,1.62.31,3.203.2586,4.8208-.0231.7235.175,1.4513.2136,2.18.04.7578-.04,1.5236.0252,2.2779a11.3136,11.3136,0,0,0,.3767,1.6386,1.061,1.061,0,0,1,.0818.3232,32.7942,32.7942,0,0,0,.2558,4.34,29.05,29.05,0,0,0,.2724,4.4528,30.1027,30.1027,0,0,1,.2,3.5077,9.4876,9.4876,0,0,1,.2576,1.5825,2.0327,2.0327,0,0,0,.2174,1.5805c.0195.0245.0079.0789.0017.1179-.1816,1.1456.3846,2.2378.22,3.4319l1.9334,1.6122V189.85c-.7709,1.4822-.6355,3.1085-1.1824,4.541a46.3431,46.3431,0,0,1-5.5983-.0443,70.2662,70.2662,0,0,0-7.2256-.184c-2.4387-.0527-4.8793-.0117-7.3191-.0117h-7.4441l-.5142-1.4564-.9238.5325-.0427.8218-.3408.3407h-1.2035l-.44.4521h-3.6182c-.973-.822-2.2052-.2833-3.3532-.4946l-1.6349,1.9574h-.5406c-1.0957-1.14-2.4657-2.0171-3.3322-3.4211l-1.8589.63c-1.1041.7814-1.1729,2.1325-1.66,3.2807.396.4788.1792,1.0447.2472,1.5349a2.1186,2.1186,0,0,1-2.55,1.069,4.6078,4.6078,0,0,1-1.0094-.4544c-.2632-.1511-.6923-.364-.6959-.5562-.0162-.8483-.7279-1.0222-1.2131-1.4067a1.4485,1.4485,0,0,0-1.35-.4008l-.3788-.3788v-1.0352l-.7418-.6418v-.8047h-1.09a8.3347,8.3347,0,0,0-.4814-.7808,5.7672,5.7672,0,0,0-.5428-.5535,4.96,4.96,0,0,0-1.8631-3.468h-.872l-.5353-.5081-1.1805.2945C167.9711,187.28,167.0289,185.7424,165.4746,184.8176Z"/>
</svg>
