<svg id="Morocco" xmlns="http://www.w3.org/2000/svg" width="792" height="612" viewBox="0 0 792 612">
    <defs>
        <style>.cls-1{fill:#fff;}</style>
    </defs>
    <path class="cls-1"
          d="M194.2184,94.2239a2.1754,2.1754,0,0,1,1.8444-1.5286,5.8557,5.8557,0,0,0,2.4473-1.3137c.8956-.7949,1.7206-1.6716,2.55-2.5381a3.2353,3.2353,0,0,0,.8044-1.1007,3.4559,3.4559,0,0,1,1.1608-1.5549,11.6268,11.6268,0,0,0,1.8425-2.3665c.2681-.3817.3666-.8824.6877-1.3112l-.26-2.3584L204.29,79.146c0-1.0905-.002-2.2067.0014-3.323a2.1728,2.1728,0,0,1,.1935-.7576,3.5694,3.5694,0,0,0,.25-2.1146,3.0841,3.0841,0,0,0,1.02-1.6867c.0393-.301.35-.5693.5467-.8454a2.1982,2.1982,0,0,1,.2519-.2563c.4807-.4808.9369-.99,1.4491-1.4341.4938-.4284.3576-1.1621.8442-1.5771V64.6937a3.84,3.84,0,0,0,.737-.4589c.3677-.3568,1.0178-.433,1.0967-1.08.65-.3143,1.029-.982,1.6149-1.3273a2.8933,2.8933,0,0,0,1.362-1.5978c.0486-.1377.1939-.2413.3248-.3965h.74l1.2148-1.2148a4.7566,4.7566,0,0,0,2.46-.488c.4482-.1538.84-.4661,1.2969-.6321a7.7976,7.7976,0,0,0,2.6283-1.1847c.5913.09.88-.5142,1.4367-.6113.4367-.0763.78-.5878,1.2132-.8154a1.4,1.4,0,0,0,.7658-.7542c.1056-.264.4486-.433.56-.5327.0878-.3548.0768-.5882.188-.7119a4.0591,4.0591,0,0,0,1.1266-1.8237c.0925-.4061.5325-.7328.8145-1.0961a6.1658,6.1658,0,0,0,.9525-1.6457,8.5946,8.5946,0,0,1,.83-1.3872V46.18c.2019-.3828.3476-.6442.4795-.9125.2122-.4315.4413-.8574.6154-1.3044a5.82,5.82,0,0,0,.6255-1.6736,4.0525,4.0525,0,0,1,.6618-1.3453l3.1433-.6217c.7892,2.8495,2.7248,4.4086,5.5762,5.2847l.3476.3475a4.3945,4.3945,0,0,0,1.5869-.3278c.4576-.2934,1.035.0121,1.3893-.438.0153-.0194.078-.0089.1166-.0015a4.4009,4.4009,0,0,0,1.2176.2125c.4032-.0429.791-.3108,1.2215-.2071a8.5268,8.5268,0,0,1,1.1364.3879c1.1409.4042,2.0447-.3276,3.0675-.75l.9418,1.2432c.6275.1033,1.26.2508,1.9005.3007.6733.0526,1.3539.0118,2.0717.0118.5248,1.3232,1.94,1.6115,2.885,2.4631.2809.5285-.2061.7608-.52,1.12l.8615.9206-.2885.9062c.0141.1076-.0048.2158.0385.2544a2.2151,2.2151,0,0,1,.6743,1.6391,3.0579,3.0579,0,0,1-.3771,2.1254c-.1761.2405-.0829.6782-.1085.9777l.7242,1.0657a2.16,2.16,0,0,1-.4865,1.8765c.3044.7541.4434,1.6127,1.2739,2.1356l-.2548,1.1279c.5878,1.27,1.8138,2.0082,2.8049,2.8782a.8262.8262,0,0,1-.48,1.0343,1.227,1.227,0,0,0-.6972,1.15,2.2361,2.2361,0,0,1-.2438.6451c-1.6436,0-3.2367.023-4.8284-.0138-.4854-.0112-.936-.3152-1.462-.2358a3.5671,3.5671,0,0,0-1.3518.2257c-.3819.2089-.897-.1263-1.3553.2223a.6487.6487,0,0,1-.9327-.2122c-.6116.6116-1.1889,1.2233-1.8058,1.7921a10.2039,10.2039,0,0,1-1.0483.9057c-.422.2957-.9855-.0534-1.2716.4361-.7666-.0806-1.5729.2189-2.3116-.2743l-.8979,1.0429.3088,3.1239c.14.42.2506,1.2671-.0088,1.5262a14.7963,14.7963,0,0,1-3.5,2.234,4.2337,4.2337,0,0,1-1.62.5283c-.4681.0727-.9419.2172-1.4135.3328-.2578.0632-.5174.1189-.9277.2127a5.7484,5.7484,0,0,0-1.46,1.9786,20.344,20.344,0,0,1-1.3256,1.72c-.2138.3-.7193.3761-1.0417.6207-.4636.3519-1.11-.0955-1.52.394q-1.33.12-2.66.24c-.2639.0237-.5278-.0619-.7653.1952-.2742.2967-.5574-.1282-.8985-.0787-.53.077-.832.5146-1.31.64l-.62,1.1868-4.0967-.3307-2.1021,1.5c-.4359-.0976-1.0532.2216-1.5724-.2181-.3642.3641-.7513.7145-1.0953,1.1029a7.857,7.857,0,0,1-2.5792,1.8858,3.7384,3.7384,0,0,0-1.8666,1.5229l-1.91,1.1671c-.2633.8676.1892,1.6551-.3176,2.33.4856.9739.1159,2.0107.2178,3.0136a3.1405,3.1405,0,0,1-.5033,1.6829q-5.4344,0-10.8757-.01c-.0866,0-.1727-.1476-.2436-.2123-.5336.4173-1.1481.1751-1.7177.2126-.637.0419-1.279.01-1.9188.01-.6,0-1.2031.04-1.7986-.0114-.5743-.0494-1.187.2366-1.7232-.1752a3.601,3.601,0,0,1-1.7983.18c-.5985.0284-1.1994.0062-1.7992.0062H181.14a.9167.9167,0,0,1-.269-1.19,1.417,1.417,0,0,1,1.1433-.9686.3784.3784,0,0,1,.12,0,16.2685,16.2685,0,0,0,3.4971-.2793,5.8338,5.8338,0,0,0,3.1247-.8365,4.1757,4.1757,0,0,1,1.7155-.7477,2.8143,2.8143,0,0,0,1.6491-.9655c.476-.4859.9541-.97,1.4458-1.44A5.6971,5.6971,0,0,1,194.2184,94.2239Z"/>
</svg>
