<svg id="Mozambique" xmlns="http://www.w3.org/2000/svg" width="792" height="612" viewBox="0 0 792 612">
    <defs>
        <style>.cls-1{fill:#fff;}</style>
    </defs>
    <path class="cls-1"
          d="M501.4033,517.3751a4.0922,4.0922,0,0,1-1.4618,2.1821,7.0826,7.0826,0,0,0,1.6016,2.8715c.3023,1.042-.4315,1.8772-.4542,2.95l-.6793.56h-3.75c-.1231-.1231-.2362-.2362-.3495-.3493q0-2.1594,0-4.3228l.4511-.445c0-.3235,0-.6719,0-1.02-.2257-.2263-.4519-.4525-.685-.6857v-1.7061c.978-.7112.6706-1.7913.7034-2.5433a17.5883,17.5883,0,0,0,.7114-2.1037,9.538,9.538,0,0,0,.2293-2.4147,7.137,7.137,0,0,1,.3037-2.1733,5.8613,5.8613,0,0,0,.0023-2.8176,12.0877,12.0877,0,0,1-.037-2.5706l-.7854-.6565c-.3551-1.0632.0576-2.3131-.8669-3.1588a3.7075,3.7075,0,0,1,.2859-2.0179,1.3163,1.3163,0,0,0,.1543-.53,11.7782,11.7782,0,0,0-.2293-1.2213c-.0875-.4105.1964-.8763-.1861-1.243a.1681.1681,0,0,1-.0507-.0977c-.0908-1.1981-.1791-2.3964-.2555-3.43.6605-.611,1.1967-1.1176,1.7444-1.6114a33.9572,33.9572,0,0,1,3.2779-2.8015.8777.8777,0,0,0,.0855-.0839c1.1275-1.045,2.2551-2.09,3.4333-3.1814h.7815a1.1217,1.1217,0,0,0,.0443-.3664,1.5477,1.5477,0,0,0-.2648-.7194c-.2942-.2756-.1737-.5839-.2079-.876l1.2088-1.5656V477.099l.5606-.5607h.8183c.5174-.63,1.0488-1.2527,1.55-1.8992a1.8765,1.8765,0,0,0,.406-.7852,2.34,2.34,0,0,1,.7873-1.3581,3.823,3.823,0,0,0,.9571-2.2995l-1.1666-1.1666-.3426-1.9182a3.6707,3.6707,0,0,0,.9922-2.4724l-.9513-.95c.0167-.37-.1919-.8047.4633-1.0955h.8313l.5937-.5936v-1.4961a2.239,2.239,0,0,0,1.249-1.4136l-.4389-.1219a11.634,11.634,0,0,0-.29-2.4583c-.1912-.45.2051-.93.3663-1.3851a5.029,5.029,0,0,1,.6039-1.3031.8605.8605,0,0,0,.1417-.9684c-.32-.4269-.07-.83-.1874-1.1779l.5427-.5427c-.6035-.47-.1352-1.1983-.4449-1.8149a2.81,2.81,0,0,1-.32-1.8465l.9045-1.5379-.7087-.1732.18-.1992h-.9505a3.4619,3.4619,0,0,1-.2627-.2423,8.09,8.09,0,0,0-2.9118-1.9512,2.6087,2.6087,0,0,0-1.51-.2186,1.6388,1.6388,0,0,1-1.2674-.41c-.6948-.5639-1.3543-1.1713-1.9319-1.6764l-1.6746-.361c-.6687-.1713-.5546-.9277-1.028-1.3934a7.8923,7.8923,0,0,0-.8642.0045c-1.579.1637-3.1164-.3657-4.66-.2386l-.3659-.3659a3.8633,3.8633,0,0,0-.0031-.4848,11.1167,11.1167,0,0,0-.1353-2.0984,9.89,9.89,0,0,1-.1371-2.2186l-.7959-.5575.16-.1434-.3379-1.6924c.113-.0959.1939-.2218.2961-.2425,1.2122-.2456,2.2553-.9471,3.434-1.2677a4.8586,4.8586,0,0,1,1.68-.3121c.8486.0641,1.6663-.2825,2.54-.2647a3.76,3.76,0,0,0,1.5211-.6272,13.1636,13.1636,0,0,0,2.4612-1.0108,2.8573,2.8573,0,0,0,1.7352-.4543,4.08,4.08,0,0,1,1.6-.4369,14.9039,14.9039,0,0,0,2.9258-.7939c.927-.265,1.8366-.5907,2.7639-.8543.5787-.1645,1.176-.2633,1.7288-.3837l.6423.6423a8.797,8.797,0,0,0,2.3615,3.5466,16.9263,16.9263,0,0,1,2.5918-.2764c.9191.0332,1.6717-.5438,2.6648-.5423l1.0227,1.5683c0,1.0135.0227,2.0127-.0109,3.01-.0138.409-.1821.8108-.22,1.2215-.04.4356-.0091.8778-.0091,1.3412-.5468.385-1.218.6655-1.4358,1.4036v1.1769c-.4406.7019-1.538.7281-1.5628,1.9351l1.0893,1.2974c-.0186.1713-.0347.44-.0808.7043-.0383.2193-.213.4717-.1479.64.1194.3084.312.7068.5784.8181.87.3634,1.0868,1.2223,1.5864,1.8633a8.02,8.02,0,0,0,.858,1.0775,16.9643,16.9643,0,0,0,1.6647,1.7044c.0934.0633.0821.2809.0919.32l-.7993.795c.0408.51-.0017.8954.4189,1.2065H530.39c0-.4572-.0241-.9275.0076-1.3941a2.1634,2.1634,0,0,1,.1944-1.1233c.2564-.4333-.04-.9989-.4041-1.3449-.3192-.3035-.2658-.6283-.281-1.0431,1.0548-.5522.8042-1.9972,1.857-2.7684l1.4888.193a3.7435,3.7435,0,0,0,2.0748-1.3983,24.1018,24.1018,0,0,0,.5587-6.8742l.9846-1.6414c-.4143-.7223-.1724-1.5226-.26-2.38-.9882-1.7088-2.0544-3.4695-3.2237-5.1681a8.0409,8.0409,0,0,1-.8257-1.456,7.6293,7.6293,0,0,0-1.7137-2.2957,5.1982,5.1982,0,0,0-1.6246-1.0206c-.5733-.2745-.6041-.2142-.9934-.6165,0-1.5985-.022-3.2339.01-4.8682a6.81,6.81,0,0,0-.3988-2.2385c-.0225-.07-.0857-.1346-.0867-.2023a7.5024,7.5024,0,0,0-.0293-1.5538,2.9482,2.9482,0,0,1-.1708-1.4563l.8573-.8573c.7206-.0327.98.7854,1.7315.8566l.4052-.5068-.989-.1189-.6089-.5638v-.7311a1.7025,1.7025,0,0,0,.6955-1.6789l.6781-.5514a4.6774,4.6774,0,0,1,1.4216.0408,3.04,3.04,0,0,0,.7735.1471,5.9278,5.9278,0,0,1,1.8752.11c.5911.247,1.2426-.1045,1.783.3524.1628.1376.54.0213.808.0213.7025-.6659,1.3009-1.482,2.3834-1.4617a13.4746,13.4746,0,0,1,1.1215,1.1416,11.0636,11.0636,0,0,1,.7578,1.28,6.2322,6.2322,0,0,1,1.7866.0355,6.7679,6.7679,0,0,0,1.8088.2063l1.29-.9327h1.208a3.3888,3.3888,0,0,0,1.9611,1.0553,3.6784,3.6784,0,0,0,2.24-.1476,16.7012,16.7012,0,0,0,2.1122-.9832,3.173,3.173,0,0,1,.789-2.0689,2.7331,2.7331,0,0,1,2.1105.4354c.1271.0795.248.1714.3814.2381,1.359.68,1.515.5926,2.8741-.2185a5.5067,5.5067,0,0,1,2.949-.9829c.6795.0174,1.36.0032,2.0328.0032a6.4833,6.4833,0,0,1,3.3888-1.6865,1.855,1.855,0,0,0,.5012-.2346c1.38-.7435,2.75-1.5049,4.0526-2.3819a7.1818,7.1818,0,0,1,.6657-.4209c.3159-.1652.604-.1256.8637.3046v.9772l-.4336.4568c0,1.3257,0,1.3257-.1709,1.6323l.2445,1.5792-1.3236,1.3091.52.8584c0,.1395.051.3093-.0083.3683a1.5782,1.5782,0,0,0-.4557,1.3727c.058.4921-.1966,1.0161.1894,1.4851.1.1217.0418.38.0434.5757.0042.52-.0138,1.04.0045,1.56a8.465,8.465,0,0,1-.6006,3.8867l.4775.2122.3505,1.9025a3.9763,3.9763,0,0,1-1.6419,1.2041v.5342l1.2809.6779a2.397,2.397,0,0,0-.3331.749c-.02.5805-.3718,1.09-.2695,1.7018.116.6935-.3954,1.3388-.239,2.0606.0221.1018-.2046.3067-.1709.3494.3982.5055-.0456,1.1532.2131,1.591.3452.584.099,1.1556.25,1.7973l-.7292.5859c-.19.7646.5431.9034.732,1.4653l-.5615,1.2376,1.4336.6075a3.3844,3.3844,0,0,1-.2873,2.111c-.0783.1713-.3477.2552-.5958.4245v1.21l-.6536.4135.0922.1275h-.6361l-.7783.7165c.0542.1172.0794.239.117.243.3506.0366.7185.0227.878.5486a3.2424,3.2424,0,0,1-1.4344,2.13,1.44,1.44,0,0,0-.5378.4174,5.3908,5.3908,0,0,1-1.7717,1.7711,4.0492,4.0492,0,0,0-1.3167,1.9667,1.5584,1.5584,0,0,1-1.7863,1.1092l-.8392.9117v.6385a4.5078,4.5078,0,0,1-2.3411,1.5916,14.4122,14.4122,0,0,0-2.8761,1.7333,10.0339,10.0339,0,0,0-.581.8367c-.9747.1016-1.9337.19-2.889.308a3.29,3.29,0,0,0-.8588.2392,8.1572,8.1572,0,0,1-1.6885.5708,1.7854,1.7854,0,0,0-1.3224.8632c-.3247,0-.64.01-.9541-.0023a1.3667,1.3667,0,0,0-1.2365.479,2.9146,2.9146,0,0,1-1.4369.8858,9.2144,9.2144,0,0,0-1.4889.7673,11.6707,11.6707,0,0,1-1.6833.85,12.757,12.757,0,0,0-2.3526,1.6112,1.8075,1.8075,0,0,1-1.2273-.5c-.1131.1133-.2263.2264-.3607.3608l.8514,1.5777a15.0984,15.0984,0,0,1-3.0726,2.6314,2.3975,2.3975,0,0,0-.8743.9219,8.1529,8.1529,0,0,1-1.8249,2.149c-.5585.2191-.69-.3633-.9641-.44l-.8729.8983c-1.35.08-2.0246.9931-2.9092,1.2625a10.66,10.66,0,0,1-2.3149,2.6358c-.6017.4094-1.1426.9069-1.7254,1.3454-.5451.41-1.1013.8072-1.6709,1.1822a1.8788,1.8788,0,0,1-.583.1394l-1.7059-2.051a1.5363,1.5363,0,0,0,.3992,1.6535.7543.7543,0,0,1,.1256,1.05,2.8677,2.8677,0,0,0-.3636,1.8929,2.4027,2.4027,0,0,1-.7817,1.9157l.3311,1.7214,1.3625,1.0622c.1016,1.0948,1.0829,2.2046.0675,3.3931a4.7794,4.7794,0,0,0,.539,2.9814,1.4012,1.4012,0,0,1,.1521.6529c.0129,1.48.0537,2.9615-.0138,4.4381a13.6538,13.6538,0,0,1-.45,2.16c.073.6613.709.9266,1.2422,1.3134-.1019.3463-.2126.665-.2868.9921-.0664.2922.03.58-.1763.8954a1.16,1.16,0,0,0,.0039,1.01,1.5145,1.5145,0,0,1-.2513,1.7946,2.6307,2.6307,0,0,0-.5648,1.4593,5.7946,5.7946,0,0,1-.4328,1.2522c-.1047.318-.1805.646-.2607.9716-.0186.0754.0311.2026-.0077.2329-.8346.6517-.6593,1.732-1.0935,2.5506-.0179.0338-.0552.0573-.1182.12l.9469.6365v.7285a7.7352,7.7352,0,0,1-.9407,1.2435,26.0851,26.0851,0,0,1-2.8406,2.3927,3.88,3.88,0,0,1-2.8071.8621l-.3958.4747a7.0318,7.0318,0,0,0-2.0315.217c-.3961.1372-.5821.5474-1.11.555-.55.008-1.115.21-1.701.2079a1.49,1.49,0,0,0-.9606.2458c-.4829.4657-1.1309.3761-1.6664.6413-.4931.2442-1.0559.3433-1.5729.5448a11.9414,11.9414,0,0,1-1.2062.558,4.4662,4.4662,0,0,0-2.0705,1.1045c-.0816.08-.3086.011-.4666.011Z"/>
</svg>
