<svg id="Namibia" xmlns="http://www.w3.org/2000/svg" width="792" height="612" viewBox="0 0 792 612">
    <defs>
        <style>.cls-1{fill:#fff;}</style>
    </defs>
    <path class="cls-1"
          d="M421.95,482.1785a41.5369,41.5369,0,0,1-4.392-.0451c-.7264-.0789-1.4516-.1758-2.2556-.2l-.5454.7007a20.54,20.54,0,0,1-.313,3.2147,14.6123,14.6123,0,0,0-.192,3.15c-.0158.5442-.3646,1.0053-.2685,1.583a3.3047,3.3047,0,0,1-.0107,1.5472,10.4934,10.4934,0,0,0-.22,2.6693,9.4153,9.4153,0,0,1-.2315,1.1013c-.07.3319.095.671-.1711,1.0183-.1569.2048-.0966.6126-.0624.9211.1576,1.423-.3543,2.8036-.2471,4.2209-.4969.5036-.1412,1.18-.3559,1.77-.205.5639.0112,1.271-.1487,1.8636-.2508.9291-.0389,1.895-.2582,2.7763a25.309,25.309,0,0,0-.21,3.0293,13.88,13.88,0,0,1-.4661,3.043.468.468,0,0,0-.002.1193c-.08,1.1268-.1475,2.2546-.2446,3.38-.0525.6092-.17,1.2125-.2307,1.8213a5.702,5.702,0,0,1-.2087,1.7143,9.8615,9.8615,0,0,0-.141,1.51,4.1907,4.1907,0,0,0-.3556,1.1565,12.9461,12.9461,0,0,1-.4671,3.53,7.6146,7.6146,0,0,0-.0321,2.0306v1.448a2.9083,2.9083,0,0,1-2.1527.82c-.9541.1323-1.5811.4612-1.7773,1.4391-.0131.0653-.1075.1143-.2172.224h-1.0629a8.6014,8.6014,0,0,0-.7729,1.2417.7192.7192,0,0,1-.8389.49l-.8448-.9273h-6.07c-.5412-.472-1.0132-1.0447-1.8584-1.0177-.2883.0092-.5838-.2985-.8807-.452-.4957-.2564-.9952-.5052-1.5856-.804l.2816-2.658c-.2594-.2781-.4628-.6673-.9991-.6461-.1342.0053-.4028-.3145-.4-.4808.01-.4974-.4087-.64-.6783-.9983l-1.3949.2805c-.2728.8317-1.3462,1.2209-1.0226,2.2516a4.7071,4.7071,0,0,1-2.7734,1.4136c-1.2531-1.3369-2.4791-2.6239-3.6751-3.9382a3.7259,3.7259,0,0,1-.5536-.9664c-.1849-.4022-.3061-.834-.4952-1.2339a2.3967,2.3967,0,0,0-.4443-.4843v-.9156c-.2063-.247-.4848-.43-.48-.6058a.9889.9889,0,0,0-.41-.8018,1.9564,1.9564,0,0,1-.59-1.561,4.2551,4.2551,0,0,0-.2007-2.073,3.1854,3.1854,0,0,0-.306-.5932,1.5577,1.5577,0,0,1-.3966-1.4391l.404-.3562v-1.1224l-1.177-1.7731.3-2.1738c-.496-.4673-.4338-1.0378-.6053-1.5262a1.8624,1.8624,0,0,1,.02-1.411,2.0869,2.0869,0,0,0-.0875-1.6017,2.6364,2.6364,0,0,1-.1166-.9363,2.0209,2.0209,0,0,0,.3023-2.2222.8074.8074,0,0,1-.0385-.4605,2.6094,2.6094,0,0,0-.7456-1.9682,1.9,1.9,0,0,1-.4595-1.3748,4.1733,4.1733,0,0,0-.7171-2.2957v-1.8487a1.7781,1.7781,0,0,0,.4805-1.478,5.0818,5.0818,0,0,0-.2279-2.0676.8949.8949,0,0,1-.0006-.7053,2.9959,2.9959,0,0,0-.0072-2.45,1.7315,1.7315,0,0,1-.007-.5087l.9374-.8737v-3.0031l-.3723-.1991a3.1862,3.1862,0,0,0-.1686-1.0181c-.4083-.6761-.5182-1.4971-.9444-2.1243a24.2539,24.2539,0,0,0-2.051-2.3473v-.696c-.7859-.9181-.69-2.2654-1.73-2.9208v-.5141a4.1,4.1,0,0,1-1.4747-2.3963c-.0614-.3418-.4032-.6331-.6657-1.02V470.196a6.6888,6.6888,0,0,1-1.0172-3.388l-1.0713-1.2963a7.4509,7.4509,0,0,0-.3709-1.2477c-.5036-1.0337-1.0691-2.0371-1.5983-3.0586a19.2616,19.2616,0,0,1-.9848-2.5909,19.8578,19.8578,0,0,0-1.4788-2.7474c-.5457-1.0243-1.6335-1.5135-2.3585-2.3625.0386-.5444-.425-1.0071-.2583-1.5768.016-.0548-.0427-.14-.0825-.2012-.2883-.4412-.6006-.868-.8656-1.3226-.2412-.4137-.4323-.8566-.7172-1.4312v-4.2035l1.7773-1.4629a2.1774,2.1774,0,0,1,1.6341.3782,1.8735,1.8735,0,0,0,1.3.3375c.5964-.0456,1.1989-.0109,1.9275-.0109l2.2669-1.6721a2.7766,2.7766,0,0,1,2.3485-.0081c.2408-.095.4816-.19.6773-.2675a1.9987,1.9987,0,0,1,.2662.1154,7.7532,7.7532,0,0,1,1.3619,1.3247,17.9591,17.9591,0,0,0,2.1,1.8686,1.5786,1.5786,0,0,0,.9417.3c.6085-.0106,1.2606.2143,1.8205-.2212,1.0065.1174,2.04-.2323,3.0354.2036a2.1932,2.1932,0,0,0,.8244.0354c1.64.0021,3.2822.0632,4.9183-.013,2.6964-.1256,5.3665.4012,8.06.2541a11.0374,11.0374,0,0,0,3.5.2348c1.1993.0238,2.3994.0052,3.5992.0052,1.12,0,2.2414-.04,3.3587.0118,1.0449.0487,2.0852.1955,3.183.3046l2.2147,2.8042c.27,0,.5432-.0517.57.0079.3093.6835,1.1049.2839,1.5271.704a.3574.3574,0,0,0,.3453,0c.6247-.5,1.2358-.1135,1.8457.0146.1759.0369.3287.2023.503.225.7641.1,1.532.1715,2.2992.246.1575.0152.3767.0654.4678-.0143.6483-.5678,1.124-.0217,1.881.2568a9.1547,9.1547,0,0,0,.9513-.0079,11.211,11.211,0,0,0,1.1346-.2238,13.7364,13.7364,0,0,0,1.736.9317,15.2563,15.2563,0,0,0,2.0913.4816c.8373-.6524,1.9437-.4473,3.0171-.4546l.5109.5111a5.4242,5.4242,0,0,0,1.5123-.19c.5161-.2108,1.1207.1888,1.5566-.3048.0371-.042.1494-.0177.2268-.0236a24.1115,24.1115,0,0,0,3.1342-.2672,24.6255,24.6255,0,0,0,3.9193-.66,10.18,10.18,0,0,1,2.2867-.2788,4.7823,4.7823,0,0,0,1.0974-.2438,14.7284,14.7284,0,0,1,2.0018-.3686,14.0512,14.0512,0,0,1,2.0014-.1105c.4107-.0346.8119-.169,1.2218-.2268a9.7717,9.7717,0,0,0,1.2316-.2,17.77,17.77,0,0,1,2.8118-.3291l.1717.2648c.7791.6,1.2635-.1984,1.8553.0969a9.3017,9.3017,0,0,0,1.613.4633l.79.9817-.1907.6091h-1.2928l-2.362,1.4412h-.5878l-.5617-.5078a9.9873,9.9873,0,0,0-2.8047,1.6935,15.6224,15.6224,0,0,0-2.6131,1.9535h-.505c-.1227-.1228-.2359-.2359-.3493-.349,0-.16,0-.32,0-.5115a6.1427,6.1427,0,0,1-1.7542-2.6687c-.5274-.2171-1.0971-.6044-1.7476-.0727-.0959.0784-.3117.0009-.4709.0125a17.2845,17.2845,0,0,0-3.7963.68,2.3877,2.3877,0,0,1-.4646.0387,14.9044,14.9044,0,0,0-2.53.2761,6.797,6.797,0,0,1-1.6063.2052l-.3448.3646a27.505,27.505,0,0,1-6.1313.3575l-.3564.3564c0,.2013-.01.4724.0017.7424.0791,1.814-.42,3.602-.2417,5.42-.3881.9822-.0769,2.0342-.2716,3.0139a22.1958,22.1958,0,0,0-.22,3.2659c-.0208.4082-.2716.7712-.25,1.2221a10.27,10.27,0,0,1-.2094,1.34,5.4319,5.4319,0,0,1-.0332,1.3091c-.3163.8465-.0363,1.7336-.2458,2.5416a20.6286,20.6286,0,0,0-.217,3.7475c-.0347.45-.1735.8917-.2269,1.3416a5.75,5.75,0,0,1-.2059,1.354,6.2211,6.2211,0,0,0-.0493,1.6651A3.819,3.819,0,0,1,421.95,482.1785Z"/>
</svg>
