<svg id="Namib_Desert" data-name="Namib Desert" xmlns="http://www.w3.org/2000/svg" width="792" height="612"
     viewBox="0 0 792 612">
    <defs>
        <style>.cls-1{fill:#fff;}</style>
    </defs>
    <path class="cls-1"
          d="M370.2553,408.7926c.8112.3315.8861,1.7467.9149,2.2925.1028,1.9443-.7143,3.2557-1.5532,5a24.7245,24.7245,0,0,0-2.16,5.8088,16.11,16.11,0,0,0,.33,7.3827c.47,1.7059.677,1.3429,1.7766,4.4362.82,2.3076.8939,3.0411,1.7341,5.5851,0,0,.7183,2.175,1.7659,4.7447,2.2033,5.4041,4.3453,10.6579,8.17,14.9361.9161,1.0247,2.1577,2.2494,2.2341,4.0532.0625,1.4763-.7061,2.1419-.5745,4.117a4.872,4.872,0,0,0,.8936,2.9362c1.4112,1.7011,4.2082,1.435,5.8724,1.2766a7.3431,7.3431,0,0,0,3.83-1.0213c2.7027-1.86,3.5564-6.2685,3.6064-6.5425.1794-.9819.2922-2.3177.9894-2.5213a1.0363,1.0363,0,0,1,.9574.3191c.5946.6127.081,1.5873.0639,3.2873a4.8915,4.8915,0,0,0,.5106,2.9042c.9993,1.4182,2.796.3842,4.5958,1.66,1.7821,1.2629.8454,2.8614,2.8085,4.9787,1.0979,1.1842,2.3177,1.6839,4.5957,2.6171,1.2182.499,1.457.4807,4.7234,1.468.712.2152,2.9064.88,5.2341,1.66,3.9889,1.3358,3.9213,1.5187,5.8723,2.0426a28.0935,28.0935,0,0,0,6.0319,1.0212c4.1027.2131,4.8673-.7731,7.5,0a7.1875,7.1875,0,0,1,4.1809,2.5851c1.3237,1.9462.196,3.27,1.5638,5.8405.9411,1.7686,1.5962,1.3613,2.9362,3.4468,1.32,2.0548.7794,2.5783,2.17,5.617,1.3523,2.9547,2.2963,3.4052,2.17,4.9787-.12,1.5-1.1465,3.2276-2.2979,3.3192-1.8191.1447-3.1-3.8626-4.4681-3.4787a1.17,1.17,0,0,0-.734.9574c-.173,1.37,2.6189,1.8257,3.4149,3.5426,1.5109,3.2589-5.4608,8.2778-4.0851,10.7234.721,1.2818,2.7933.1819,5.1064,2.0744,1.602,1.3108,2.9939,3.7906,2.17,5.617-.45.9967-1.6011,1.8928-2.2979,1.6277-1.2246-.4659-.0281-4.1322-1.7234-5.1383a2.5461,2.5461,0,0,0-2.7128.383,3.1861,3.1861,0,0,0-.9255,2.7128c.2624,1.8655,2.0434,2.0927,3.5745,4.3723a11.7039,11.7039,0,0,1,1.5319,4.4362c.6956,3.1291.2187,4.1064.766,7.0212.6056,3.2259,1.3891,3.09,1.6595,5.1064.4684,3.492-1.8239,4.3241-5.3617,12.766-2.6036,6.2128-2.2459,7.8713-2.0425,8.5532.1919.6433.7056,1.9564.1276,2.5532-.4855.5013-1.4573.2036-2.2978.0425-2.9254-.5607-3.5067.6772-7.149.7234-1.0983.0139-.9462-.1-6.383-1.0213-3.5392-.6-5.3088-.9-5.617-.8936-4.9274.0975-5.8561,3.35-10.34,3.1915-2.5949-.0917-2.418-1.1855-5.7447-1.5319-4.6762-.487-7.242,1.4435-8.0425.383-.9653-1.2787,2.8689-3.9468,2.6808-8.649a7.86,7.86,0,0,0-2.17-5.3936c-1.7842-1.6216-3.2428-.7609-5.3617-2.5532-.9414-.7963-1.5638-1.9776-2.8085-4.34a37.4847,37.4847,0,0,1-2.2979-5.2979c-.3721-1.09-.7658-2.6626-1.5532-5.8085-.7711-3.081-.8275-3.4914-1.2553-4.851a17.0557,17.0557,0,0,0-1.851-4.5958c-1.3131-1.9645-2.0831-1.6354-3.766-3.7021a21.4275,21.4275,0,0,1-2.8085-5.3617,28.8262,28.8262,0,0,1-1.9149-5.3617,40.5427,40.5427,0,0,1-.6383-6c-.2827-4.1516-.1232-4.2575-.383-6.5107-.3443-2.9858-.6208-2.7681-1.0213-6a48.9217,48.9217,0,0,1-.383-7.0212c.0191-.8614.0564-2.3727.2873-4.3405.1894-1.6145.3067-1.8106.3191-2.4893.0366-2.0019-.9263-3.4514-2.0106-5.17-3.0416-4.8216-4.5624-7.2325-5.3617-9.7022-.5885-1.8182-.4478-2.2368-1.2128-4.1489-1.0025-2.5059-1.6-2.6751-2.6808-5.234-1.3813-3.2685-.7019-3.69-1.8511-4.9149-1.0392-1.1081-2.2534-1.4659-3.0638-3.1915a8.7487,8.7487,0,0,1-.4468-1.3724,38.0416,38.0416,0,0,1-1.4522-5.7606c-.0118-.1707.1037-1.3927.3352-3.83.4146-4.3655.4112-4.25.4148-4.3564.0972-2.873-.2979-3.6686.4342-4.8009.5474-.8465.97-.7142,1.5127-1.6937.5916-1.0685.3605-1.7172.7021-3.1437.3461-1.4455.7065-1.2937,1.3085-2.9681.9508-2.6446.0975-3.1508,1.0851-5.0744.6318-1.2307,1.2168-1.4826,1.4681-2.7447.2393-1.2021-.216-1.3527.0478-2.2819.4371-1.5393,1.7576-1.3763,2.6969-3.2553.48-.96.2935-1.32.8936-2.0107C368.5168,409.2434,369.5123,408.4889,370.2553,408.7926Z"/>
</svg>
