<svg id="Niger" xmlns="http://www.w3.org/2000/svg" width="792" height="612" viewBox="0 0 792 612">
    <defs>
        <style>.cls-1{fill:#fff;}</style>
    </defs>
    <path class="cls-1"
          d="M360.5131,211.6563c-1.1969-.8688-2.7931-1.0934-4.4194-1.8273a20.816,20.816,0,0,1-2.2826.2076,4.3953,4.3953,0,0,1-2.4375-.2308c-.1551.08-.3346.2568-.4808.2326-.4211-.07-.7216.2257-1.0941.285-.1378.022-.27.2152-.3883.2a7.1011,7.1011,0,0,0-2.2741.3424,6.6906,6.6906,0,0,0-1.7526.8719l-2.5867,2.8344h-3.8261l-.358-.3673-2.263-.2189-1.5087-1.5094h-1.1658l-2.3548-1.7007a2.2673,2.2673,0,0,1-.4289-.0036c-1.791-.3232-2.9935.8721-4.4983,1.68h-1.54l-.6552.6994h-1.4869a4.1038,4.1038,0,0,1-1.18-1.5828,3.2206,3.2206,0,0,0-1.0954-1.3265,15.2455,15.2455,0,0,1-1.8251-1.648c-.9418-.5544-1.7931-.3223-2.57-.49a5.6081,5.6081,0,0,1-2.8128-1.0239,1.391,1.391,0,0,0-1.7771-.1434c-.3237.1953-.6386.4053-1.13.7186-.51,0-1.2217.017-1.9327-.0043a6.0763,6.0763,0,0,0-2.7.4388,1.14,1.14,0,0,1-.58.0392,1.482,1.482,0,0,0-1.0292.41,3.3357,3.3357,0,0,0-.928.9276c-.2748.43-.8331.1952-1.0943.5808a2.9451,2.9451,0,0,1-.3611.3677c0,.7706.0448,1.57-.0093,2.363a4.5709,4.5709,0,0,1-2.322,3.82c-.46.2754-.8706.6346-1.29.9452a3.1076,3.1076,0,0,1,.0917,2.4138.9326.9326,0,0,0-.04.5592c.27,1.0809.2776,1.079-.3558,1.9924H297.23l-.4335-.4335-.76-.043a22.6578,22.6578,0,0,0-3.7247-3.8191,6.7238,6.7238,0,0,1-2.9951.9815l-.9032.9123c-.8231-.0648-.8755-.1234-1.13-1.3026l.929-.6329a1.6,1.6,0,0,0-.473-1.5535,1.9538,1.9538,0,0,0-2.0844-.7322l-.4958.6475h-2.3025a7.7837,7.7837,0,0,0-2.4348-1.9578.2909.2909,0,0,1-.1655-.167c-.162-.7723-.9435-.7863-1.4187-1.1726-.0309-.0251-.0569-.0561-.1332-.1323v-1.5324a.6184.6184,0,0,1,.938-.19.807.807,0,0,0,1.1535-.23c-.4338-.7152-1.5581-.4177-1.8856-1.2477l-.0632-.63c-.3834-.15-.73-.2773-1.0707-.42-.3081-.1291-.6093-.2748-1.0905-.4936h-.9148c-.1708-1.0087-1.1137-1.571-1.3255-2.5927-.124-.5978-.0081-1.1718-.16-1.8946l-1.4149-1.1258.343-3.4485.29-.29a10.53,10.53,0,0,1,2.8047.2c.6155-.434,1.4694-.0722,2.2582-.2232l2.37-2.3695c.3139,0,.7059-.0132,1.0967.0021,2.4129.0942,4.8049-.4257,7.22-.2421a4.5943,4.5943,0,0,1,2.0605-.239c.68-.0046,1.36-.001,2.1308-.001l.3471-.5c1.2379.0442,2.2938.7491,3.5315.4332v-.7129l1.6667-1.6033.7154-.0348.7855-1.154c-.1673-1.1254.443-2.2111.8212-3.3471a1.456,1.456,0,0,1,1.1041-1.0793c0-.6892.0268-1.3669-.0106-2.041-.02-.37-.2425-.7447-.2029-1.0982a4.1715,4.1715,0,0,1,.4469-1.0069.9957.9957,0,0,0,.0066-.3572,27.3785,27.3785,0,0,0-.0414-4.1934,43.5212,43.5212,0,0,1-.1883-5.7872c-.0465-1.9588-.01-3.92-.01-5.9936l.6194-.422c.75-.3276,1.6406-.2682,2.4622-.6046.274-.1122.6366.0129.9514-.0274.253-.0323.4908-.1684.7426-.2269.7315-.17,1.4621-.3506,2.2017-.4756a9.771,9.771,0,0,1,2.0631-.5281c.3168-.3777.7435-.1767,1.1176-.1887a1.7819,1.7819,0,0,0,1.2453-.4857c.9445-.89,1.8619-1.8181,2.8771-2.621,1.6245-1.2849,2.9435-2.8809,4.4835-4.2429,1.3158-1.1636,2.6823-2.2675,3.9568-3.482a32.6853,32.6853,0,0,1,3.3391-2.3654,16.5851,16.5851,0,0,1,1.6764-1.17c.59-.33,1.13-.7347,1.722-1.0466a9.5548,9.5548,0,0,0,1.9357-1.4321,10.15,10.15,0,0,1,1.8057-1.1213,24.6808,24.6808,0,0,0,5.2572-3.551,10.1558,10.1558,0,0,1,1.859-1.2878c1.5641-.9572,3.1655-1.85,4.7053-2.8519a6.66,6.66,0,0,1,1.6054-1.0412c.5813-.1862,1.0066-.8185,1.5449-1.19.8647-.5962,1.7657-1.1395,2.6514-1.7052.6642-.4242,1.3274-.85,1.994-1.2708a2.9578,2.9578,0,0,1,.3574-.1579,1.2579,1.2579,0,0,1,1.3395-.9024c1.004.0349,2.0065.1118,2.8968.1641l.4906.4906a7.0938,7.0938,0,0,1,1.954.3425c.4012.1937.8022.0437,1.1085.2193a2.5,2.5,0,0,0,1.1128.2252c.2173.0213.4226.1494.64.1826a10.6258,10.6258,0,0,0,1.5612.3121,3.11,3.11,0,0,1,2.0761.7327c1.3613,1.2761,3.0239,2.1765,4.3389,3.5838.841-.04,1.45-.68,2.1868-1.0045a18.5352,18.5352,0,0,0,2.2453-1.3914h.972a15.38,15.38,0,0,1,.6854,1.9667c.2164,1.0263.5993,2.0013.8305,3.02a2.6366,2.6366,0,0,1,.1411.4188,32.874,32.874,0,0,1,.2634,3.9816,4.8075,4.8075,0,0,0,.23,1.2348c1.5056.8306,1.9949,2.534,3.19,3.7136a3.0619,3.0619,0,0,0-.293.6267,1.4811,1.4811,0,0,0,.65,1.6179,25.7339,25.7339,0,0,1,2.43,2.1885c.1768,1.5563-.6215,2.717-1.4245,3.9153,0,1.7627.0245,3.5619-.0152,5.36-.0116.5243.1645,1.055-.1934,1.6014-.2484.3792.1336.9739-.2457,1.46-.1552.1989-.0257.62-.0257.94v13.9015c-.68.753-1.459,1.524-2.13,2.38a45.1088,45.1088,0,0,1-3.738,4.2112,10.98,10.98,0,0,0-.9378,1.1685c-.2808.3679-.7032.5852-.89,1.0713a24.0679,24.0679,0,0,1-2.393,4.0464c-.2651.4219-.682.7493-.9412,1.1739a4.1243,4.1243,0,0,0-.73,2.4253c-.348,1.3244-1.5245,1.4668-2.1475,2.2233a2.713,2.713,0,0,0,.2068,1.3412c.33.7014.36,1.5071.667,2.2426a4.7073,4.7073,0,0,1,.033,1.6115c-.8829.3481-2.1111.2986-2.2906,1.6462-1.61-.0516-2.9178.3166-3.6383,1.8l-1.1163.3922-.5811,1.1061A9.8469,9.8469,0,0,1,360.5131,211.6563Z"/>
</svg>
