<svg id="Nigeria" xmlns="http://www.w3.org/2000/svg" width="792" height="612" viewBox="0 0 792 612">
    <defs>
        <style>.cls-1{fill:#fff;}</style>
    </defs>
    <path class="cls-1"
          d="M300.596,263.3934c-.4355-.3732-.5491-.6963-.11-1.0939l-.9141-.3944c-.6769.37-1.2319,1.2027-2.1546.5294-.7964-.0228-.828.8908-1.4606,1.1951h-3.55l-.34-.3994c0-1.3169-.0177-2.7124.011-4.107.0084-.4082.2307-.8181.2088-1.2193-.0288-.5271.1831-1.0579-.1849-1.6034-.2554-.3787.1873-1.0058-.2634-1.45a.4924.4924,0,0,1,.0077-.4581,1.5813,1.5813,0,0,0,.0373-1.6347,1.1967,1.1967,0,0,1-.0514-.5756,5.9406,5.9406,0,0,1,.1877-1.7181c.1632-.4378-.3064-1.0028-.196-1.5632a12.6728,12.6728,0,0,0,.2342-1.46c.04-.5168-.1457-1.1071.046-1.5426a6.7335,6.7335,0,0,0,.2237-1.8438l.3337-.3337h1.3462c1.3472-.7844,1.2431-2.0291,1.1631-3.2293l1.3844-1.3844a.6233.6233,0,0,0,.0561-.0817c-.3839-.3554-.3068-.6815.1073-1.0343h.952l.5028-.5028.733-2.0438-.5983-.5651c0-.4069,0-.6465,0-.8862.1136-.1131.2267-.2262.3492-.3487h.9757l.5811-.6609v-1.7l-.6089-.5074-.3255-2.3708-1.675-2.2494v-1.2636l1.201-1.5735a1.9056,1.9056,0,0,1-.0338-1.7849.5824.5824,0,0,0-.0632-.5506.8989.8989,0,0,1-.1321-1.0052,2.6051,2.6051,0,0,0-.0734-2.2118c.553-.8173,1.6352-.93,2.1567-1.7265.4745-.7247.9394-1.4557,1.4649-2.2715v-3.0208l2.3055-2.0025a28.7363,28.7363,0,0,1,2.85-.5291c1.0312-.0936,2.0775-.021,3.1571-.021a2.21,2.21,0,0,1,2.48-.874,7.11,7.11,0,0,0,4.9638,1.34c.3719.3061.7841.6463,1.1973.9853a11.0422,11.0422,0,0,0,.98.7995,2.7844,2.7844,0,0,1,1.14,1.3014,3.9627,3.9627,0,0,0,1.1668,1.6812,1.6514,1.6514,0,0,1,.2779.5041h1.3986l.7424-.9391h1.4l2.8364-1.6458h2.3255a13.1349,13.1349,0,0,1,1.4661,1.0162,2.13,2.13,0,0,0,1.9753.5814,2.4082,2.4082,0,0,1,.4125.5972,2.17,2.17,0,0,0,2.1823,1.3227c.9354.0527,1.84.31,2.777.2934.9595-.0168,1.92-.0038,2.8254-.0038l2.8355-3.36a1.6443,1.6443,0,0,0,.578-.0142,1.9435,1.9435,0,0,0,.4595-.4086l2.18-.3266c.8312-.2647,1.4994-.4788,2.1685-.69.3371-.1064.5776.1894.8622.2226a7.734,7.734,0,0,0,1.5567.0069c.4893-.0427.9683.12,1.4852-.19.3519-.2107.9319-.04,1.1514-.04.9881.3786,1.7458.6723,2.5062.9586.3117.1173.6368.2009.9427.3308a4.549,4.549,0,0,0,1.6577.65,12.7191,12.7191,0,0,0,1.7017.2311c.2943-.0273.6474-.13.8731.23.2258-.3.6214-.4425.6305-.934a.8353.8353,0,0,1,.47-.6151c.7816-.2471,1.1592-.91,1.6612-1.449.1089-.117.2256-.2268.22-.2209a9.5088,9.5088,0,0,1,1.2117-.37,7.5218,7.5218,0,0,1,1.1285-.0121l1.111-1.4294h1.9418a7.2708,7.2708,0,0,1,1.88,2.55,3.565,3.565,0,0,0,.68.9133,3.5284,3.5284,0,0,1,1.1882,2.6325c.0027.08-.0321.1821.0052.2366.6436.9406.4462,2.01.4776,3.0658l.5115.8811h1.7781l1.308,1.0421c0,.81.0022,1.6036-.0016,2.3969-.0009.1952.054.4548-.0473.5732-.2914.341-.19.5651-.0055.9329a3.236,3.236,0,0,1,.0331,1.259c-.7665.7622-2.0755.9121-2.6979,2.04l-1.54-.2289a2.5442,2.5442,0,0,0-1.3039,1.4916,17.7124,17.7124,0,0,1-1.8565,3.0644,5.0215,5.0215,0,0,0-.7244,2.2227,7.6765,7.6765,0,0,0-.0166,1.4364l-.5969.5969h-.4839l-.89.9241c.089.497.2281,1.056.28,1.623.05.5531.0109,1.1144.0109,1.69-.1594.11-.3127.3059-.4739.3125-1.29.053-1.7879,1.009-2.1365,1.99a4.6068,4.6068,0,0,0-.2735,2.17,2.425,2.425,0,0,1-1.1537,2.5739c-.1442,0-.3829.0139-.6195-.0027a1.5079,1.5079,0,0,0-1.4633.7648,12.0453,12.0453,0,0,1-1.285,1.4989l.2655,1.41-.5092.4791v1.4639a2.9884,2.9884,0,0,0-1.2052,2.87,8.0665,8.0665,0,0,0-1.7716,2.5114l.5183.6647V258.5c-.6241.6873-1.8582.5151-2.0529,1.7026.4563.4245.0347.906-.1029,1.345l-1.2988,1.5868a1.8529,1.8529,0,0,1-1.7713-.5552v-1.2751l-1.6252-1.0774a1.6253,1.6253,0,0,0-.2016-.642,2.27,2.27,0,0,0-.7408-.5037c-.3616-.1836-.7438-.327-1.1186-.484a.3915.3915,0,0,0-.13-.0019c-.6222.1146-.6673.7869-1.1,1.1649h-1.8379l-.3268-.8774c-.8271.2942-1.2869,1.0549-1.9809,1.65h-.9172c-.5378.3475-.3143.8272-.3777,1.3084a13.4555,13.4555,0,0,1-2.5407,2.0739,1.4156,1.4156,0,0,0-.422.4225,8.6083,8.6083,0,0,1-2.3528,2.3756,15.42,15.42,0,0,0-1.6725,1.6409c.4128.7394.8994,1.5249.0386,2.3519,0,.4081-.0124.8436.003,1.2781a2.23,2.23,0,0,1-.4581,1.6181c-.4443.5449-.7251,1.22-1.1292,1.8021a1.8776,1.8776,0,0,1-1.3488.7466l-1.0071-.9381a2.6064,2.6064,0,0,0-.1246.754,2.9124,2.9124,0,0,0,.3037.5908c.2176.4647.2131.4668-.1983,1-.5219-.0476-1.0865.1451-1.4585-.1566l-3.4628.42c-.7571-.3776-.3077-1.02-.5732-1.4713l-.84.94h-1.47l-1.1393-1.1416-1.8575.4915-.5033-.8017-.4938,1.549-.5706.478v1.0186l-.35.35h-1.4872l-.4715-.718c-.13.0257-.4078-.0013-.5385.1247a4.6765,4.6765,0,0,0-.57.82,4.2728,4.2728,0,0,1-3.325-1.3133,9.6912,9.6912,0,0,1-2.1612-3.2792l.2874-1.4931-.8033-.81c.0957-.214.1329-.5253.2852-.599a8.7706,8.7706,0,0,0,1.7071-1.48,2.9718,2.9718,0,0,1-.782-.335,2.9115,2.9115,0,0,1-.4561-.7429l-2.4793.2851c-.3275-.514-.6131-1-.9351-1.46a16.3858,16.3858,0,0,0-3.7193-3.7141,4.46,4.46,0,0,0-1.6528-.636c-.5553-.1363-1.1459-.1717-1.6873-.2954A8.4523,8.4523,0,0,0,300.596,263.3934Z"/>
</svg>
