<svg xmlns="http://www.w3.org/2000/svg" width="792" height="612" viewBox="0 0 792 612">
    <defs>
        <style>
            .cls-1{fill:#fff;}.cls-2{fill:none;stroke:#b2b2b2;stroke-linecap:round;stroke-linejoin:round;stroke-width:1.9201px;}
        </style>
    </defs>
    <g id="bounds">
        <path class="cls-1"
              d="M510.9775,190.4292a2.5714,2.5714,0,0,1-.2783-.0151,2.5,2.5,0,0,1-2.209-2.76l.2061-1.8672-.2022-1.6284a2.5051,2.5051,0,0,1,.0547-.9136l.2393-.96a2.4994,2.4994,0,0,1,.9258-1.3955l.706-.53.7617-.9522a2.4979,2.4979,0,0,1,.835-.6743l.9609-.48a2.4919,2.4919,0,0,1,.9219-.2558l.7539-.628a2.4983,2.4983,0,0,1,.4834-.3164l1.1455-.5727a2.4951,2.4951,0,0,1-.0136-1.5366l1.2-3.84c.0068-.0244.0146-.0488.0234-.0727l-.57-3.1363a2.4946,2.4946,0,0,1-.9873-.7861l-.72-.96a2.4678,2.4678,0,0,1-.4033-.812l-.1435-.5014a2.4945,2.4945,0,0,1-1.1407-1.8574l-.2177-2.1724a2.5135,2.5135,0,0,1-.88-.8711l-.2637-.4131-.9687,1.6138a2.4986,2.4986,0,0,1-1.4883,1.1264l-.2344.626a2.5031,2.5031,0,0,1-1.7607,1.5537,2.5046,2.5046,0,0,1-.7315,1.7349l-.4795.48a2.5071,2.5071,0,0,1-.747.5146l-.1641.3828a2.4957,2.4957,0,0,1-.2979.5157l-2.16,2.88a8.6418,8.6418,0,0,1-3.75,1.2207l-1.9209-.24a16.0175,16.0175,0,0,1-2.84-1.6377l-.9609-1.2a2.4975,2.4975,0,0,1-.5488-1.5625v-.3428l-1.1533-1.4829a2.5106,2.5106,0,0,1-.3243-.55l-.72-1.68a2.4941,2.4941,0,0,1-.2021-.9848v-1.33l-.6963-1.3921a2.5965,2.5965,0,0,1-.1133-.2637l-.96-2.64a2.5,2.5,0,0,1-.15-.8545v-.72a2.498,2.498,0,0,1,1.0264-2.019,2.4659,2.4659,0,0,1-.3672-.4346l-.96-1.44a2.5006,2.5006,0,0,1-.42-1.3863v-.72a27.9824,27.9824,0,0,1,.2637-2.0781l.24-.48a2.5013,2.5013,0,0,1,1.2549-1.1811,24.784,24.784,0,0,1,1.0157-2.462l1.1074-.9687a2.4949,2.4949,0,0,1,.3154-.8364l.8682-1.5127.4785-.958a2.4792,2.4792,0,0,1,.4111-.5918l.0459-.1372v-.314a2.4968,2.4968,0,0,1,.2627-1.1152l.0117-.0245a2.5168,2.5168,0,0,1,.23-.7l.24-.48a2.4815,2.4815,0,0,1,.4677-.6485l.9727-1.0317a2.4933,2.4933,0,0,1,.8486-.961l.2119-.1416a2.4991,2.4991,0,0,1,.6065-.9853l.3047-.3052.3437-.5151a2.5306,2.5306,0,0,1,.3115-.38l.48-.48a2.5009,2.5009,0,0,1,1.7686-.7329h.72a2.4326,2.4326,0,0,1,.2735.0151c.02-.06.0439-.1206.0693-.18l.72-1.68c.0195-.0454.04-.09.0625-.1348l.24-.48a2.5946,2.5946,0,0,1,.1728-.2944l-.1738-.3491a2.4934,2.4934,0,0,1-.2637-1.1172v-.96c0-.0659.0029-.1313.0078-.1958a2.49,2.49,0,0,1-.4883-1.4843v-.7413L501.792,117.8a2.4964,2.4964,0,0,1,.0107-.9248l.13-.6479-.0371-.1495-.3574-.7148a2.5114,2.5114,0,0,1-.2461-.8174l-.9336-.415a2.4974,2.4974,0,0,1-1.3555-1.4937l-.3525-1.0561-.4766-.6358a2.5,2.5,0,0,1-.5-1.4995v-.24a2.4914,2.4914,0,0,1,.1553-.8672,2.4945,2.4945,0,0,1-1.583-.7256l-.23-.2285a2.5,2.5,0,0,1-2.2939-1.708l-.0157-.0459-.8935-.7447a30.1232,30.1232,0,0,0-1.6533-1.8852l-.5332-.355a2.5026,2.5026,0,0,1-.5479-.4976l-1.8066-2.207a2.5011,2.5011,0,0,1-2.1123-1.4131l-.2325-.14a2.48,2.48,0,0,1-.4814-.376l-.96-.96a2.4979,2.4979,0,0,1-.72-1.5185l-.1943-1.9419-.2744-.5479a2.4609,2.4609,0,0,1-.19-.5126l-.1182-.4708-.417-.5566a2.4653,2.4653,0,0,1-.2353-.38l-.24-.48a2.5042,2.5042,0,0,1-.2608-1.2662l.24-4.08a2.536,2.536,0,0,1,.0713-.46l.1661-.665a2.5077,2.5077,0,0,1,.3134-1.1426l1.0069-1.8115a2.4991,2.4991,0,0,1-.2862-1.9014l.1651-.7236a2.5048,2.5048,0,0,1-.2061-.6578l-.3271-1.685-.5772-.1157a2.496,2.496,0,0,1-1.5888-1.063l-.1172-.1753a2.4979,2.4979,0,0,1-1.2295-1.7612l-.0723-.4312a2.506,2.506,0,0,1-.2637-.4927l-.4795-1.2c-.0185-.0454-.0351-.0908-.05-.1367l-.5341-1.6006-.3682-.3676-.5137-.3428a2.5,2.5,0,0,1-.9345-1.1524l-.2188-.5478-.3994-.2988a2.5,2.5,0,0,1,2.998-4.002l.961.72a2.5,2.5,0,0,1,.8222,1.0733l.2647.5278a2.4372,2.4372,0,0,1,.3808.3125l.8516.8516.6416-.8018.4209-.63a2.4978,2.4978,0,0,1,.6924-.6919l.0371-.0249.68-1.87a2.5,2.5,0,0,1,4.6992,1.709l-.96,2.64a2.5054,2.5054,0,0,1-.9628,1.2256l-.3047.2031-.2032.3047c-.04.06-.082.1172-.1269.1734l-.2559.32.3.6006a2.4989,2.4989,0,0,1,.1045,1.9951l-.3857,1.0293a2.5013,2.5013,0,0,1,1.17,1.4878l.4795,1.68a2.6454,2.6454,0,0,1,.0615.2745l.25,1.2124a2.5,2.5,0,0,1,.2647,1.1191v.96a2.4833,2.4833,0,0,1-.0733.6c.0088.0361.0176.0727.0244.1093l.24,1.2a2.4872,2.4872,0,0,1-.08,1.2823l-.24.72a2.4709,2.4709,0,0,1-.1856.4228l-.9355,1.6836c-.0078.0367-.0157.0733-.0254.1094l-.1836.7334-.1807,3.0806.419.5595a2.4774,2.4774,0,0,1,.4248.8931l.1738.6939.3574.7138a2.4938,2.4938,0,0,1,.252.87l.1513,1.5122.1114.1114.9365.562a2.4362,2.4362,0,0,1,.2861.2,2.5,2.5,0,0,1,1.1563.6567l.4795.48a2.3651,2.3651,0,0,1,.166.1841l1.9238,2.35,1.1289.7524a6.7894,6.7894,0,0,1,1.7578,1.9541l.043.169.6191.5161c.0645.0254.128.0542.1914.0859l.48.24a2.5053,2.5053,0,0,1,.458.2954l.7383-.4434a2.501,2.501,0,0,1,2.4043-.0918l.96.48a2.4959,2.4959,0,0,1,1.2529,1.4448l.24.72a2.4851,2.4851,0,0,1,.08,1.2817l-.0029.0176a2.5022,2.5022,0,0,1-.7373,3.1924,2.5943,2.5943,0,0,1-.0772.2592c.0059.0161.0118.0327.0166.0489l.1319.3945,1.1533.5122a2.4979,2.4979,0,0,1,1.4092,1.6777l.24.96a2.4645,2.4645,0,0,1,.0723.4922l.2187.4375a2.5014,2.5014,0,0,1,.1885.5107l.24.96a2.4749,2.4749,0,0,1,.0264,1.0971l-.1474.7383.6376,3.6172a2.4768,2.4768,0,0,1,.0352.3179l.2188.437a32.9947,32.9947,0,0,1,.5048,2.0791v.24a2.4854,2.4854,0,0,1-.0908.67l.126.2515a2.5019,2.5019,0,0,1,.6846,1.7188v.24a2.4994,2.4994,0,0,1-.99,1.9927,2.5286,2.5286,0,0,1-.2217.2544l-.22.2451-.4883,1.1406v.6875a2.4916,2.4916,0,0,1-.8584,1.8853,2.5288,2.5288,0,0,1-.5029.44,2.5009,2.5009,0,0,1-2.3389,1.6143h-.4794a2.4976,2.4976,0,0,1-.9922-.2056l-.1328.2646a2.4841,2.4841,0,0,1-.4678.6485l-.24.24a2.4372,2.4372,0,0,1-.3808.3125l-.1738.1157a2.4967,2.4967,0,0,1-.4053.5318l-.791.7915a2.5087,2.5087,0,0,1-.1563.4287v.1323a2.4726,2.4726,0,0,1-.1289.791l-.1182.3565a2.5,2.5,0,0,1-.7255,1.58l-.1934.1938-.5391,1.0781c-.0283.0567-.0586.1123-.0918.167l-.3632.6338a2.5019,2.5019,0,0,1-.8536,1.8814l-.5869.5131a2.5013,2.5013,0,0,1-.72,1.7618v.164a2.4965,2.4965,0,0,1-.7861,1.82,2.5405,2.5405,0,0,1,.2949.253l.48.48a2.4971,2.4971,0,0,1,.7158,1.4908l.24,2.16a2.4913,2.4913,0,0,1-.1132,1.0679l-.24.72a2.4961,2.4961,0,0,1-1.0547,1.3335l.2647.7261.8955,1.791a2.5106,2.5106,0,0,1,.2637,1.1182v1.4072l.3906.9121,1.4824,1.9063a2.5031,2.5031,0,0,1,.5264,1.5346v.0386a1.2307,1.2307,0,0,0,1.93.37l1.0713-1.4282.6015-1.4043a2.5079,2.5079,0,0,1,.52-.7729,2.4991,2.4991,0,0,1,.7294-1.689l.2393-.24a2.3585,2.3585,0,0,1,.208-.186l1.2-.96a2.4824,2.4824,0,0,1,.7373-.4078l.1641-.4389a2.5013,2.5013,0,0,1,1.8506-1.5733l.1152-.0229.8711-1.4517a2.4983,2.4983,0,0,1,.8574-.8579l1.2-.72a2.5018,2.5018,0,0,1,2.0762-.2276l2.16.72a2.5013,2.5013,0,0,1,1.3545,1.0859l.3448.5757.3085.1543a2.5,2.5,0,0,1,1.3331,1.7451l.24,1.2a2.2508,2.2508,0,0,1,.0361.2417l.0987.979.1416.1426a2.49,2.49,0,0,1,.6357,1.08l.376,1.2666.55.22a2.5,2.5,0,0,1,1.5312,1.874l.96,5.28a2.5025,2.5025,0,0,1-.2246,1.5664l-.1494.2993-.8994,2.8775a2.4987,2.4987,0,0,1,.1132.7441v.48a2.4931,2.4931,0,0,1-.2636,1.1172l-.72,1.44a2.5018,2.5018,0,0,1-1.1191,1.1191l-1.66.83-1.2168,1.0137a2.4972,2.4972,0,0,1-1.6005.58H514.72l-.5937.7417a2.51,2.51,0,0,1-.4522.4379l-.1279.0962.1484,1.1953a2.4843,2.4843,0,0,1,.0039.5845l-.2392,2.16A2.4994,2.4994,0,0,1,510.9775,190.4292Zm-7.6836-58.1826h0Zm1.2-2.16h0Z"/>
    </g>
    <g id="Nile_River" data-name="Nile River">
        <path class="cls-2"
              d="M484.0934,73.9237l.96.48.48,1.68.24,1.44.24.48v.96l-.24.96.24.24.24,1.2-.24.72-1.2,2.16v.24l-.24.96-.24,4.08.24.48.72.96.24.96.48.96.24,2.4.96.96,1.2.72v.48h.96l.48.48,2.16,2.64,1.44.96v.48h.72l.24.96,1.44,1.2.24.72h.24v-.48l.48.24,1.2,1.2,2.4-1.44.96.48.24.72-.24,1.2.48.48-.72.24-.24,1.2-.72.48v.24l.72.96.48,1.44,2.16.96.24.96v.48l.48.96.24.96-.24,1.2.72,4.08v.96h.24l.24.48v.48l.24.48v.24h-.24v.96l.48.96.24.48.24.24v.24l-.48.24v.24l-.48.48-.24.48-.72,1.68v1.2h-.24v.24h-.24l-.24.24h-.24l-.24.48v.48h-.48l-.24-.24-.48-.48-.24-.24h-.72l-.48.48-.48.72-.48.48v.24l-.24.48-.24.24-.72.48-.24.48-.24.24-.48.48-.24.24-.24.24-.24.48v.24l-.24.48v.72l-.24.72v.24l-.24.24-.24.24-.48.96-.24.48-.72,1.2v.72l-1.92,1.68.48.72-.72.48v1.44l-1.44.24-.24.48.24.48-.24.48v.72l.96,1.44h.96l.48.48.24,2.16-.24.72h-.72l-.96.48v.72l.96,2.64.96,1.92v1.92l.72,1.68,1.68,2.16v1.2l.96,1.2h.72l.48.72,1.92.24.72-.48.72.24,2.16-2.88.72-1.68h.72l.48-.48-.24-.72-.24-.48.24-.24,1.2-.96h.96l.72-1.92,1.2-.24,1.44-2.4,1.2-.72,2.16.72.72,1.2.96.48.24,1.2.24,2.4h.48l.24.24.48,1.68.72.96,1.2.48.96,5.28-.24.48-1.2,3.84.24.72v.48l-.72,1.44-1.92.96-1.44,1.2h-.72l-.96.48-.96,1.2-.96.72-.24.96.24,1.92-.24,2.16M477.1332,64.5632l.96.72.48,1.2.72.48.96.96.72,2.16.48,1.2h.24l.24,1.44.48.24.48.72,1.2.24-.24-.96-.48-.48.24-.24.72-1.92-.72-1.44v-.96l.96-1.2.48-.72.72-.48.96-2.64"/>
    </g>
</svg>
