<svg id="Rwanda" xmlns="http://www.w3.org/2000/svg" width="792" height="612" viewBox="0 0 792 612">
    <defs>
        <style>.cls-1{fill:#fff;}</style>
    </defs>
    <path class="cls-1"
          d="M491.6726,332.613l-1.3753.5839-.3932-.4417v-1.3445a3.0273,3.0273,0,0,0,2.2672-2.4118l-.444-1.9007,1.976-2.6029.5749-.0267.6411-.8733,2.0325-.3535.7633,1.0749a8.3876,8.3876,0,0,0,3.2392-2.92h.6332l1.2661,2.0813h.571a3.2434,3.2434,0,0,1,.8421,2.0911c.0491.7947.011,1.5949.011,2.3078l.5285,1.0054c-.4192.6432-.3919,1.5262-1.1181,2.0583h-1.6755l-.5867-.5076a3.4241,3.4241,0,0,1-2.6053.7067l-.775-.774-.4862.4647a7.0112,7.0112,0,0,1-.25,2.6128,5.2864,5.2864,0,0,1-.4936.7967l-3.0368.3715c-.1047-.2493-.203-.483-.3011-.7168-.1-.2381-.2-.4762-.3058-.7292Z"/>
</svg>
