<svg id="Sahara_Desert" data-name="Sahara Desert" xmlns="http://www.w3.org/2000/svg" width="792" height="612"
     viewBox="0 0 792 612">
    <defs>
        <style>.cls-1{fill:#fff;opacity:0.71;}</style>
    </defs>
    <path class="cls-1"
          d="M337.8617,53.0851c-1.1186-1.2517-3.0681-.4453-6.83-.4468a20.1225,20.1225,0,0,1-6.2234-.7978c-1.2651-.3931-1.0151-.4853-4.5638-2.0426-3.9416-1.73-5.1884-2.028-6.2234-1.4681-.4853.2625-1.1468.8341-1.117,1.4681.0707,1.5068,4.0012,2.3908,4.7234,2.5532,2.2815.513,3.0514.1933,6.7978.351,3.7177.1565,6.2912.288,6.67,1.4362.274.83-.7118,1.8462-1.1808,2.33-.8638.8907-2.5648,1.9746-3.9894,1.5-1.6811-.56-1.1063-2.6673-2.7447-3.67-2.22-1.3591-4.52,1.7482-8.4574.8936-2.2347-.4851-2.2367-1.6472-4.7553-2.4256-1.8394-.5685-3.8933-.5838-7.4043.383-6.61,1.82-7.8346,4.2165-14.5213,6.8936-4.6606,1.866-4.1082.7189-9.5744,2.8086-3.0238,1.1559-4.0389,1.83-12.5106,5.7127-4.9869,2.2854-7.2354,3.2433-9.5745,2.33-1.9132-.7471-1.9908-2.0056-3.8617-2.8085-3.1138-1.3363-6.684.5251-9.7979,2.2021-10.1348,5.4585-15.2022,8.1877-15.3191,8.266-10.93,7.3139-12.4121,9.2978-21.3192,14.7127a47.0186,47.0186,0,0,1-12.7659,5.84c-4.22,1.1115-6.33,1.6673-8.5213,1.5957-2.334-.0762-3.779-.5631-5.0107.4468-.4269.35-.5024.6129-2.4255,4.5958a8.1415,8.1415,0,0,1-1.2128,2.17c-.1993.2167-.7765.806-3.4787,2.0426-1.896.8676-2.0955.7988-2.5851,1.2765-.775.7564-.6772,1.3213-1.4362,3.032-.9415,2.1221-1.39,1.9249-1.9787,3.4787-.7994,2.1114-.0376,2.6529-.7021,4.3723-.4406,1.14-.9423,1.3336-3.5426,3.7979-2.5863,2.451-3.8794,3.6766-4.5638,4.8191-1.24,2.07-.7939,2.6769-2.312,4.7923-.918,1.2791-1.4582,1.5828-1.8369,2.7716-.37,1.1627-.2078,1.9842-.9141,2.7-.5263.5336-1.0375.5043-1.6072.7464-2.0832.8851-3.029,4.585-2.5532,7.4042a8.1818,8.1818,0,0,0,2.17,4.34c.9718.9627,1.3847.829,1.9149,1.66,1.2885,2.0185.1469,4.9917-.0319,5.4575-.7659,1.9947-1.8344,2.5672-1.5,3.6064.28.8711,1.1171.7362,1.66,1.9149.3173.6894.1269.9441.3829,2.6489.15.9989.2482,1.13.4149,2.0426.4786,2.6193.0137,3.4214.3511,3.67,1.6962,1.2505,15.28-17.6717,21.9574-15.0957,1.61.6211,2.1419,2.2309,4.8511,2.7766,2.824.5689,4.1669-.7933,6.1277.2553,1.3034.6971.89,1.3955,3.0638,3.7979,1.4065,1.5547,1.6593,1.3505,3.8936,3.5426,1.9277,1.8911,1.775,2.0779,3.1277,3.2553a18.2472,18.2472,0,0,0,4.4681,2.9362,16.1883,16.1883,0,0,0,6.1276,1.2765c9.416.5262,7.9387,1.1489,13.4043,1.1171,6.874-.04,7.016-1.0122,14.617-.9575,1.5553.0112,3.45.0656,7.4683.0765,3.8168.01,5.7556.013,7.2445-.1084,4.1643-.34,4.3737-.9146,8.2021-1.1489,3.57-.2185,3.5756.27,6.766.0319,1.8593-.1388,2.3527-.3417,8.4574-1.6915a74.6582,74.6582,0,0,1,9.2872-1.66c3.6719-.3734,4.9037-.146,6,.383,1.671.8062,1.58,1.6146,3.9575,3.2234a34.1622,34.1622,0,0,0,4.9468,2.4255,45.2172,45.2172,0,0,0,4.883,2.0107c1.9183.51,2.8895.3823,7.0806.43,6.7243.076,6.1752.4274,7.1215.1448,5.1751-1.5458,7.9269-7.9717,8.0843-8.3522,1.11-2.6823.9069-4.3548,2.7668-6.0415.196-.1778,2.5866-2.2953,4.4361-1.5,1.9337.8315,2.0224,4.3077,2.0452,5.201.1232,4.8277-2.8848,7.3251-1.79,8.7139.899,1.14,3.7234.4677,5.2341-.1276,4.3772-1.7249,5.5685-5.8918,6.9574-5.4575,1.3931.4356,1.2522,4.958,1.2128,6.2234-.1316,4.2237-1.3718,5.3854-.4468,7.4043.7928,1.73,2.4838,2.5792,4.0851,3.383a15.493,15.493,0,0,0,5.6489,1.4361,44.0581,44.0581,0,0,0,7.1171.0319c3.2913-.1011,1.495.0128,6.9893-.1276,3.81-.0974,8.5548-.222,14.6489-.5426,2.9216-.1537,4.7719-.251,7.34-.4468,7.35-.56,11.48-.875,16.851-2.1064,7.41-1.6988,5.2644-2.41,10.7873-3.67,1.0482-.2392,3.2543-.6993,4.2127-2.4255.3675-.6619.2561-.9777.5107-2.6809.4366-2.9215.6555-4.4069,1.66-5.4893,1.101-1.187,3.231-1.984,4.4361-1.2447,1.5471.9491.1293,3.5461,1.9149,5.617,1.4966,1.7357,3.231.7678,4.7234,2.5532,1.6222,1.9406.4,4.0726,1.77,4.9958,1.3595.9161,4.0943-.1515,5.7941-1.7086,2.8605-2.62,2.0744-5.97,4.2128-6.6382,1.7021-.5318,3.71,1.1189,4.2128,1.5318,1.2814,1.0533,1.378,1.9086,2.5532,3.4468a15.7952,15.7952,0,0,0,4.1808,3.6064,22.3931,22.3931,0,0,0,8.0745,3.67c5.4057,1.0569,9.9845-1.14,12-2.1064,6.4466-3.0926,6.1636-6.46,14.17-10.7873a47.2615,47.2615,0,0,1,7.0532-3.0638c3.7034-1.2619,5.8133-1.4638,10.2766-2.4574a97.7792,97.7792,0,0,0,10.2128-2.7447c11.25-4.0213,19.3223-13.9508,19.4361-19.5639a27.9636,27.9636,0,0,0-.5744-5.5532,15.5384,15.5384,0,0,0-1.2128-3.8936c-.6658-1.3493-.895-1.2031-1.5-2.4255-1.2389-2.5029-.4474-3.4581-1.5638-4.7234-.9478-1.0741-1.6344-.5174-3.2234-1.9149-1.2429-1.093-.9782-1.57-2.0426-2.33-1.5379-1.0976-2.3938-.3181-3.734-1.2766-.5335-.3815-1.0685-1.616-2.1383-4.0851-.901-2.0792-1.1025-2.894-.8991-3.8037.168-.7512.4508-.8455.42-1.3665-.0738-1.2653-1.8027-1.755-3.3192-2.9681-1.2831-1.0264-.8378-1.31-3.383-5.2978-1.2509-1.96-2.3337-3.42-3.7978-5.3936-1.2453-1.6788-1.868-2.5182-2.7447-3.5745a21.2592,21.2592,0,0,1-2.2021-2.7128c-1.1715-1.986-.5287-2.4683-1.5958-4.117-1.1575-1.7882-2.2016-1.6655-2.6809-3.2553-.3441-1.1415.0773-1.5927-.4468-2.4575-.5189-.8562-1.1533-.7792-2.4255-1.66-1.0587-.7326-.78-.8974-2.7447-2.8724-1.6244-1.6333-2.0314-1.7385-2.4255-2.6489-.4932-1.1394-.0309-1.38-.5107-2.4256-.7431-1.62-2.0718-1.5219-2.4893-2.8723-.3683-1.1915.2351-2.6614.766-2.7128.5889-.0569.6382,1.6759,2.17,3.7021,1.6529,2.1863,2.9148,1.914,3.9574,3.9575.7,1.3729.237,1.7039,1.0213,2.9362.6849,1.0761,1.1717,1.0333,3.2234,2.6808,2.24,1.7991,2.6291,2.6285,3.67,2.5532a2.2637,2.2637,0,0,0,1.883-1.34c.2736-.7357-.1652-1.2812-.4149-2.33-.2091-.8781-.0769-1.2322.28-3.9266a43.6173,43.6173,0,0,0,.5183-5.01,14.1127,14.1127,0,0,0-.4149-3.9574c-.884-3.226-2.5754-3.2394-4.6277-7.2766-1.1547-2.2718-1.2891-3.5854-2.2979-3.766-1.0857-.1943-1.4169,1.24-3.4787,1.6915-1.5556.34-2.09-.3184-3.7384.23-1.1153.3707-1.0679.7375-2.0063.9192a6.03,6.03,0,0,1-3.3829-.6382c-1.7809-.67-1.6734-.9955-2.8405-1.2766-1.2613-.3039-1.4126.07-3.351-.0958-1.92-.1647-2.1548-.5649-3.3229-.4932a6.4626,6.4626,0,0,0-3.3155,1.3549c-5.5133,3.7235-5.65,5.2529-7.8829,5.5851-1.6351.2433-1.4227-.5976-5.9043-1.2446-2.4649-.3559-2.721-.1293-4.9468-.4788-3.4565-.5428-3.1969-1.1458-6.0319-1.5638a20.1907,20.1907,0,0,0-7.9149-.0638,3.9307,3.9307,0,0,1-2.84.0638c-1.2456-.66-.84-1.9725-1.9788-2.7447-1.3913-.9435-2.6571.5687-5.5531-.0319-1.5277-.3168-1.338-.7712-2.9043-1.0213-2.214-.3535-3.23.4528-4.0851-.2872-.808-.699-.2-1.6762-1.0513-2.649-.524-.5985-1.0607-.5787-3.4168-1.0213-3.6877-.6926-4.0484-1.0557-5.2659-.7659-1.0381.2471-.8487.5284-2.649,1.2447-2.1106.84-2.61.548-3.9574,1.1809a8.3811,8.3811,0,0,0-3.383,3.0957c-.6442.9713-2.0076,3.0271-1.4681,5.17.3656,1.452,1.21,1.3773,1.66,2.8085a6.31,6.31,0,0,1-2.0106,6.16,6.7109,6.7109,0,0,1-5.3936,1.6276c-2.0292-.2969-2.2-1.3762-5.3618-3.0638a17.6208,17.6208,0,0,0-6.5675-2.2924c-2.04-.2287-2.94.1267-6.4291-.2833a8.8863,8.8863,0,0,1-2.9728-.7207A8.2016,8.2016,0,0,1,376,69.617c-1.7614-2.5061-.7391-4.0152-2.17-5.1064-1.2874-.9815-2.1517.2113-4.8511-.7659-1.8455-.6681-1.8784-1.3838-3.67-1.7234-1.1446-.2169-1.4871.0076-3.1277-.3192-1.5029-.2993-1.5252-.55-2.33-.5426-1.4294.0124-1.7969.8061-3.2234,1.0852a6.5264,6.5264,0,0,1-3.4788-.5426c-2.7183-.8823-2.7979-1.8859-4.7553-2.0744-1.2883-.1241-1.9085.2476-2.5213-.2872-.8223-.7179-.5544-2.1287-1.1489-2.266-.3872-.09-.5629.495-1.1489.5425-.6737.0546-.894-.6811-1.9788-1.4681-1.2017-.8719-1.7267-.5458-2.6384-1.4027C338.2146,54.048,338.3494,53.6308,337.8617,53.0851Z"/>
</svg>
