<svg id="Senegal" xmlns="http://www.w3.org/2000/svg" width="792" height="612" viewBox="0 0 792 612">
    <defs>
        <style>.cls-1{fill:#fff;}</style>
    </defs>
    <path class="cls-1"
          d="M178.3521,217.74l-.7911.2245-.452-.8611c-1.1969.2889-1.7956-.6488-2.73-.666l-.6176-.6388c-.5465-.1019-1.0627-.2388-1.5868-.2848-.5554-.0487-1.129.06-1.6763-.0225-3.1579-.4737-6.3336-.0891-9.4956-.2463a18.9338,18.9338,0,0,0-2.0608-.2343,2.255,2.255,0,0,0-1.5146.417c-.0985.0872-.2909.0684-.4045.0912-1.0228-.4093-.1036-1.0759-.2831-1.6415h-.8658a9.831,9.831,0,0,0-1.1134,1.88l-2.281-.3391-.4-.6276-.6806.6806a12.7005,12.7005,0,0,0-1.5749.2262,1.75,1.75,0,0,1-1.9486-.5735v-1.0285c-.4221.2049-.8045.4-1.1517-.14v-1.9533l.5591-.58c1.3714,0,2.7317-.0324,4.0894.0122.8038.0265,1.6037.1746,2.497.2788v-1.1126l.2976-.2976,3.7407-.34c.2527-.3368.5495-.7322.8463-1.1274.6521-.2655.99.3346,1.3721.6072a1.686,1.686,0,0,0,1.04.2955c.8569.7839,2.0988.699,2.9273,1.4436.36,0,.7212-.022,1.0789.0051a3.0143,3.0143,0,0,0,1.6877-.2672,3.033,3.033,0,0,1,1.3529-.2309l.568-.8789c.0292-.5546-.5833-.97-1.1177-1.54l-1.7356.339-.2929.41h-1.6619a3.3469,3.3469,0,0,0-.3312-.8932,2.8732,2.8732,0,0,0-.749-.533h-1.2219l-.4864-.6925c-.596-.2361-1.2236-.7889-2.0594-.5109l-.9368.4948c-1.0632-.3605-1.2593-.4738-2.234.9145h-7.69c-.528-.2739-.3348-.7067-.3967-1.16l.9478-.3874a1.9367,1.9367,0,0,0,.25-.6852,3.3453,3.3453,0,0,0-.2862-.9494l1.26-.9842-.6428-.3376-1.4649,1.1337h-.91c-.864-.7157-.7416-1.9264-1.4766-2.8226a2.2115,2.2115,0,0,1-1.2869-1.7709l-.9364-.7317c.1039-.7568.1039-.7568.7827-.8763,2.2381-1.8281,3.6268-4.2911,5.1918-6.65l.3469-2.4318a2.8834,2.8834,0,0,1,.3562-.35,2.9439,2.9439,0,0,0,1.0176-1.741,8.7751,8.7751,0,0,1,.47-1.107,21.3549,21.3549,0,0,0,4.9786.2123,1.7379,1.7379,0,0,1,1.44-.4225c.4389.0182.88-.0117,1.3188.0075a1.7984,1.7984,0,0,0,1.5054-.4839,12.1224,12.1224,0,0,1,2.6041.0413,13.3247,13.3247,0,0,0,2.445.2c.5261.5293,1.0611,1.0677,1.5963,1.6058.141.1417.3727.2631.4086.4274a3.86,3.86,0,0,0,1.2815,1.7441l2.7569.364c.2131.3036.7107.5126.8415,1.0649.1464.6181.3443,1.224.5658,1.9957.6525.4928,1.0252,1.5885,2.0811,1.8218l1.0415,2.3305c.55.1854,1.0226.5272,1.6281.6859a1.413,1.413,0,0,1,1.1076,1.517c.5572.3448,1.2479.4753,1.5285,1.2415a1.7265,1.7265,0,0,1,.1368.8921c-.1978,1.0652-.22,1.061-.0373,1.5507l1.2523,1.0745c0,.6232-.04,1.224.012,1.8168a15.22,15.22,0,0,0,.3,1.5833l-.7716.507c-.2221.9383.523,1.46,1.1631,2.121-.0835.53.2957.8363.71,1.1185l1.01-.6283.6259.7086.3646,1.5524.9042.8579a13.7379,13.7379,0,0,1-.6217,3.8233l-1.6508.4841.026.15-2.8717-.3167a1.8649,1.8649,0,0,1-1.8731.7838Z"/>
</svg>
