<svg id="Sierra_Leone" data-name="Sierra Leone" xmlns="http://www.w3.org/2000/svg" width="792" height="612"
     viewBox="0 0 792 612">
    <defs>
        <style>.cls-1{fill:#fff;}</style>
    </defs>
    <path class="cls-1"
          d="M185.0662,259.2158a1.492,1.492,0,0,1-1.4554-.3811,9.1451,9.1451,0,0,0-3.6345-1.9454c-.4894-.1648-.8786-.6228-1.4715-.5272-.1421.0229-.2832-.3316-.372-.7815.3273-.5418.9442-.5495,1.5328-.7684l-.449-.6428c-.6031.44-1.28.2394-1.9087.2975-.4673-.3551-.4971-1.06-1.1783-1.2283a10.9354,10.9354,0,0,1-1.5968-.6727c0-.4711-.02-.9.0049-1.3268a1.9424,1.9424,0,0,0-.4878-1.4838,4.2274,4.2274,0,0,1-.8667-1.5563.9339.9339,0,0,1,.2889-1.1887h1.0266c-.6318-.7093-.6318-.7093-2.252-.72l-.3466-.3465v-1.0613l.9132-.3733-.3771-.2144c-.1167-.724-.0359-1.0494.5636-1.1376a4.1213,4.1213,0,0,0,1.0249-.4576v-.8152l.3847-.3847h.7407c.3232-.33.6707-.661.9878-1.0189a2.0441,2.0441,0,0,0,.34-.5761,5.0612,5.0612,0,0,1,.9348-1.8914c-.1336-.5419.319-.7583.5993-1.077h1.0737c.32,0,.74-.1277.9377.0276.369.29.6062-.0634.9029-.0344.3138.0306.633.0068.9264.0068l.7106-.7106h4.6481c.1281.1461.4118.3282.4753.5685a4.0031,4.0031,0,0,0,1.2012,1.6664,1.8615,1.8615,0,0,1,.2829.48,5.9646,5.9646,0,0,0,1.74,2.2079l-.328,1.8919.7666.44a3.9168,3.9168,0,0,0,.7766,2.58,3.69,3.69,0,0,0-1.259,3.0992h1.4123l.3231.8041-1.5051,1.1782v1.79l-.6789.4553c-.27,1.02-1.18,1.5669-2.0053,2.1776a12.5961,12.5961,0,0,1-1.1535.6848c.025.6371-.6219.6055-.9332.9025a6.0376,6.0376,0,0,0-.9944,1.6362C185.2589,258.9211,185.1724,259.046,185.0662,259.2158Z"/>
</svg>
