<svg id="Somalia" xmlns="http://www.w3.org/2000/svg" width="792" height="612" viewBox="0 0 792 612">
    <defs>
        <style>.cls-1{fill:#fff;}</style>
    </defs>
    <path class="cls-1"
          d="M581.62,288.7258c.3515-.3516.667-.72,1.0346-1.0251a13.705,13.705,0,0,0,2.7108-3.68c.8758-1.4372,1.8182-2.8391,2.6039-4.3239a8.8311,8.8311,0,0,1,1.6943-2.1311c.2161,0,.4894-.0115.7615.0019a10.4442,10.4442,0,0,0,4.435-.8821c.3095-.1241.75-.03.8943-.4277a12.8024,12.8024,0,0,0,.3242-1.34l2.3648-2.0587a8.7982,8.7982,0,0,0,2.0712-.8645,1.3881,1.3881,0,0,1,.5788-.3269c.8383-.0581,1.5918-.5014,2.4051-.56a14.1578,14.1578,0,0,1,3.5892.0247,35.6129,35.6129,0,0,0,3.6206.2086,4.2731,4.2731,0,0,0,1.1664-1.4161,7.9846,7.9846,0,0,1,1.16-1.5564c1.4841-1.5283,2.6079-3.3392,3.9545-4.9761,1.2977-1.5773,2.3755-3.3337,3.5962-4.977.7137-.9606,1.5156-1.8559,2.2826-2.7766.4473-.5369.9163-1.0562,1.3479-1.6051a2.1473,2.1473,0,0,0,.1865-.6521c1.0751-1.2271,2.2745-2.5108,3.3618-3.8832.3874-.4889.8157-.9339,1.2028-1.416.352-.4383.5925-.9673.9521-1.3978.4085-.4892.9168-.894,1.3405-1.3721.3492-.3941.6381-.8417.9549-1.267a1.8914,1.8914,0,0,0-1.4-.3165c-.4958.06-1.01-.153-1.4973.156a1.3871,1.3871,0,0,1-.6835.0775c-1.32.0061-2.6411-.033-3.9588.02a3.124,3.124,0,0,1-1.5678-.2819,40.3852,40.3852,0,0,0-4.0879-1.4359c-1.42-.5728-2.9137-.8812-4.3658-1.3235-.7245-.2207-1.3738-.5583-2.0691-.81-.7315-.2648-1.4739-.5032-2.2206-.7216-1.2549-.3671-2.5026-.7461-3.7953-.9927a15.8053,15.8053,0,0,1-2.4939-.9157,11.8251,11.8251,0,0,0-1.3571-.4855,3.7178,3.7178,0,0,1-1.7835-.9378,29.7956,29.7956,0,0,0-2.4271-1.9046c-.6885-.2327-1.3854-.3273-1.57-1.2776-.07-.3591-.6278-.6257-.9684-.9285-.1146-.102-.2454-.1858-.3413-.2574l-.3966-1.662a3.24,3.24,0,0,0-.8073-.4647.9877.9877,0,0,1-.7652-.6462,1.2054,1.2054,0,0,0-.8818-1.08c-.2378-.0972-.5931-.4184-.5626-.5719.1315-.66-.8578-.9228-.498-1.5422a9.2347,9.2347,0,0,1-.8776-1.2694,3.1187,3.1187,0,0,1-.1246-1.0053,3.44,3.44,0,0,0,1.0666-1.8432l.64-.5137V220.32c1.0919-.65.9-2.1442,1.8733-3.0693l1.1891.51c.049.9691.826,1.4648,1.1689,2.2049.6743.0644.6264.8089,1.0612,1.1345a2.7947,2.7947,0,0,1,.9848,1.1351,2.4111,2.4111,0,0,0,.9446.8434c1.1247.7423,2.27,1.4537,3.2907,2.103.6959.1853,1.3233-.1471,1.8489.2786a1.8448,1.8448,0,0,1,2.24-.4943c.6532.2854,1.3033-.2808,1.8324-.6973a17.2064,17.2064,0,0,0,1.41-1.3871h.8785l1.9763-1.6852h1.4556l.9876.6714a1.8485,1.8485,0,0,1,1.4844-.4356l.658.658a3.468,3.468,0,0,0,2.5067-.5488,15.0334,15.0334,0,0,0,1.6132-1.3323c.3789-.3021.79-.5634,1.2881-.9141.2572-.7832,1.1913-1.0838,1.826-1.7116a3.9649,3.9649,0,0,1,2.3252.377.5748.5748,0,0,0,.4378.0741c.8956-.4839,1.8621-.077,2.512-.21l2.8881-2.002c1.0531.0994,2.1313.2094,3.2112.2983a3.9843,3.9843,0,0,0,1.0765-.0107,3.3675,3.3675,0,0,0,.9125-.3944c.2656-.1439.6561.059.832-.31.9693.1437,1.4735-.56,2.1369-1.2089.9526-.1473,1.9988-.3145,3.048-.4609.083-.0116.1862.1218.2214.1465.4457-.4511.8175-1.0657,1.3584-1.3182a8.1426,8.1426,0,0,0,1.8844-1.5135c.1393-.6271.1393-.6271,1.63-2.1177,1.3266-.1231,2.4569.5359,3.6315.8088.3335,1.2684-.4707,2.0038-.8136,2.8842-.1274.5546.0739,1.1623-.2243,1.8052l.7449,1.5846c.3479.3921-.0654.8155.114,1.3078.147.4032.0959.888.259,1.3335a9.0178,9.0178,0,0,1,.291,1.3934l-.7463.7463c.6245.488-.1735.9621-.015,1.4551l-.721.7209v5.52l-.47.47c.6965.7055.4243,1.5936.477,2.3318l-1.2379,1.4817c.462.3863.2093.8453.2787,1.2287a4.9581,4.9581,0,0,1-.6239.613,3.709,3.709,0,0,0-1.2824,2.3511,14.7528,14.7528,0,0,0-.27,1.8513l-1.1828,1.1374c.6429.6018-.2987,1.1556.025,1.6883-.7751.8771-1.7836,1.4983-2.1865,2.6424,0,.5952.04,1.1938-.0119,1.7844a16.3847,16.3847,0,0,1-.3118,1.6472,3.7106,3.7106,0,0,0-.6165.9616,5.7715,5.7715,0,0,1-1.3035,2.4676,2.5756,2.5756,0,0,0-.3914.7924c-.0429.102,0,.242-.0478.34a11.7591,11.7591,0,0,1-.7706,1.4779c-.3239.477.0905,1.1008-.3785,1.5315-.0921.0845-.051.2986-.1233.4227a4.8935,4.8935,0,0,0-.6089,2.87,2.3879,2.3879,0,0,1-.4579,1.8559c-.1972.2307-.1366.6648-.2974.947a4.1852,4.1852,0,0,1-1.313,1.7711c.0416.3431.2014.6987.0863.8785a25.9192,25.9192,0,0,1-1.3894,2.4409c-.6968.8748-1.1493,1.9429-1.8975,2.8018-.011.8485-.7985,1.3311-.9822,2.1157a12.5449,12.5449,0,0,1-.7212,2.0979c-.1325.3068-.5253.5013-.6573.8081a9.61,9.61,0,0,1-2.3084,3.0014,2.4363,2.4363,0,0,0-.6886,1.4147L625.7858,283.2c-2.8564,2.8564-5.7216,5.704-8.5633,8.5749a15.2756,15.2756,0,0,0-2.2311,2.4279c-.3146.494-.886.8188-1.2378,1.2963-.3754.51-.9754.5821-1.4456.8967a31.6167,31.6167,0,0,0-5.0928,3.921,16.818,16.818,0,0,0-1.6469,1.4705,16.299,16.299,0,0,1-1.3884,1.5738,3.9651,3.9651,0,0,1-1.4615,1.1054,1.9721,1.9721,0,0,0-.7895.6848c-.87,1.1492-1.8927,2.1726-2.7784,3.297a37.5322,37.5322,0,0,0-3.29,3.8991,11.9871,11.9871,0,0,1-1.9993,2.0582,3.338,3.338,0,0,0-.9684,1.2791.8117.8117,0,0,1-.3111.46,2.1188,2.1188,0,0,0-1.0359,1.1173c-.1785.5132-.6954.681-.8525,1.2149-.14.4756-.6688.8227-1.0062,1.246a33.262,33.262,0,0,0-2.303,3.8581c-.1513.2526-.2175.5616-.3906.7942a6.16,6.16,0,0,1-.6695.6865.6907.6907,0,0,1-.863-.3934,29.0772,29.0772,0,0,0-2.9235-4.3089c-.2252-.3045-.4279-.6256-.6771-.9922,0-8.2842-.0081-16.6417.0111-24.9992.0022-.9412-.3445-1.8286-.2679-2.7816S581.62,289.6717,581.62,288.7258Z"/>
</svg>
