<svg id="South_Sudan" data-name="South Sudan" xmlns="http://www.w3.org/2000/svg" width="792" height="612"
     viewBox="0 0 792 612">
    <defs>
        <style>.cls-1{fill:#fff;}</style>
    </defs>
    <path class="cls-1"
          d="M482.697,276.6827l-1.4315-.64v-1.2311c-.5951-.9795-1.6365-1.1348-2.3972-1.7251l-.0606-.558a8.2389,8.2389,0,0,1-1.6554-1.9526c.0757-.4774-.165-1.0718.1857-1.6226l-.5453-1.0875a4.4074,4.4074,0,0,0-2.5965-1.6955l-1.3524-1.1538c-.9348-.0353-.9348-.0353-1.444-.3711v-1.0433l-1.6641-1.3973v-.726l.8138-.815c-.2722-.2734-.4511-.591-.7137-.6928a6.7071,6.7071,0,0,1-2.3769-2.09,6.6078,6.6078,0,0,0-2.9567-1.7892,5.2,5.2,0,0,1-3.1842-2.5807c-.05-.0931-.0066-.2364-.0066-.4353l.5489-.4041-.38-1.6639-1.9436-.88-.6071-.6072c.1071-1.0757-.9663-1.0576-1.5393-1.515l-3.9412-.3559-.5226-.6178v-.71l.7111-.5711v-1.1329c.7259-.4054,1.696-.5112,2.1536-1.4693a6.1305,6.1305,0,0,1,.0456-1.9318,9.2384,9.2384,0,0,0,.2173-1.803,2.5807,2.5807,0,0,0,.7334-1.53,3.4864,3.4864,0,0,1,1.0549-1.9522c.3379-.3409.6785-.6791,1.022-1.0225.2092-.6591-.215-1.4132.2868-2.0352-.0889-.7857.6-.9731,1.0669-1.1915a5.57,5.57,0,0,1,1.6742-.2962c.9623-.1151,1.9277-.2052,2.8137-.2977l.8563.8233.3779,1.7763,2.314,2.0521c.03,1.3259.03,1.3259,1.3566,2.5911h1.4252c.2946-.2094.5781-.4.85-.6063.5332-.4046,1.2218-.3106,1.8033-.5729a2.4547,2.4547,0,0,1,.9761-.2323c.3268,0,.6522.2042.9807.2114,1.2392.0274,2.48.011,3.8177.011l.2471.4712h4.9975l1.829-1.882h4.8649l.3854-.3854v-3.1114l2.3017-2.2909h.7169a11.4225,11.4225,0,0,0,2.8346,2.114,18.6566,18.6566,0,0,1,2.3381,1.6073c.7748.6877,1.641,1.2724,2.5969,2.0009h2.9212c.4336-.6052.9086-1.3013,1.4192-1.97.4221-.5532.8683-1.0907,1.3357-1.6062.7954-.8771.8059-.8675.8357-1.7846.98-2.681,3.06-4.1714,4.83-6.0587-.2538-.7525-.7062-1.5046-.9093-2.3047a11.38,11.38,0,0,1-.0462-2.6757l-.6259-.41.3247-.9136h2.7507c.6556-.45.2466-1.0776.4085-1.5891l.2891-.2891h2.0042c.0716.0715.1847.1847.2982.2978a2.9982,2.9982,0,0,1-.2023,1.4591c-.1758.4521.2119,1.0307-.258,1.4534a9.6885,9.6885,0,0,0,.1439,1.6175c.3081.9225.3159,1.9429.6,2.8764a10.4665,10.4665,0,0,1,.2294,2.5217,39.2635,39.2635,0,0,1,3.3142,2.2785c1.0089.9932,2.1023,1.9006,3.1062,2.7987a19.74,19.74,0,0,1-.2707,4.9491l2.0033,1.41c-.1293,1.9259.4445,3.833.1985,5.7751-.0379.299-.5335.549-.8373.8407-.1287,0-.2886,0-.4484,0l-.4518.4519h-.9249l-1-.6552c-.4475.0819-.7752.1676-1.1078.1959-.357.03-.7186.0068-1.15.0068l-1.2594,1.047.3073,1.5608c-.5425.9341-1.3342,1.6737-.9588,2.783.769.73,1.7552.5868,2.7155.6153a4.919,4.919,0,0,1,3.6873,1.5253c.3771.4131.7888.7947,1.1921,1.198a1.8476,1.8476,0,0,0,1.0608,1.8485,1.4349,1.4349,0,0,1,.72.8635,5.2194,5.2194,0,0,0,.6973,1.0537h1.12l.7386,1.6385.9044.0447a8,8,0,0,1,1.5459,3.3333,6.5286,6.5286,0,0,0,.8582,1.7919l.3294,1.8045.6781.5444a1.8628,1.8628,0,0,0,1.3227,1.79c.2693.6691.2219,1.5313,1.3371,1.6353l.64-.6393c.6332.1859,1.21.3372,1.7743.5265a1.5012,1.5012,0,0,1,.6974,1.5613,4.5008,4.5008,0,0,0,.0065,2.9236,1.5964,1.5964,0,0,1-.3325,1.03c-1.1466,0-2.3372.0043-3.5279-.001-2.09-.0092-4.1613.4728-6.2831.1844-1.0572,1.0573-2.1678,2.039-3.1212,3.1549-1.1161,1.3062-2.1788,2.6562-3.4166,3.86h-2.6052l-1.4835-.9453a5.9091,5.9091,0,0,1-.8844.6225,2.3256,2.3256,0,0,1-1.1858.3417,5.12,5.12,0,0,0-1.6275.1127,5.4146,5.4146,0,0,0-2.53,1.547,1.4664,1.4664,0,0,1-1.6272-.8627c-.19-.4088-.6523-.691-1-1.0383-.5871.3939-1.1651.8072-1.7728,1.171-.1472.0881-.3921.0131-.4942.0131l-2.2251-1.2325-2.6482,1.7383-.6864-.2484c-.4642.23-.9632.476-1.4176-.152V281.919a1.9436,1.9436,0,0,0-1.2873-.6388c-.348-.0423-.6556-.3569-1.0073-.4433a1.9925,1.9925,0,0,1-1.064-.8787c-.2817-.3656-.8559-.2938-1.0124-.8782-.0945-.3529-.5666-.6141-.889-.8935-.2309-.2-.4948-.3619-.7361-.5352v-1.3386l-1.5465-1.0062h-1l-.5991.6336c.2022.714-.4387,1.1173-.72,1.7169H491.625l-.8778-.8982h-1.4879l-.43-.563-.8107.3784c-.2885.4376-.2874,1.2481-1.2027,1.203-.1341-.0066-.2818.2622-.4232.404-.48,0-.9594,0-1.3541,0A6.3754,6.3754,0,0,1,482.697,276.6827Z"/>
</svg>
