<svg id="South_Africa" data-name="South Africa" xmlns="http://www.w3.org/2000/svg" width="792" height="612"
     viewBox="0 0 792 612">
    <defs>
        <style>.cls-1{fill:#fff;}</style>
    </defs>
    <path class="cls-1"
          d="M399.6,578.9471v-1.01c-.4746-.2084-.9955-.4063-1.4868-.6615-.4648-.2416-.8985-.5431-1.359-.8263v-.9058c-.62-1.062-1.6178-.9912-2.67-.9543l-.2911-.7947.4959-.496c.3149-1.93-.5543-3.4648-1.6478-4.9545.0782-.3411.3494-.8422.2045-1.043-.2547-.3529-.1383-.8134-.5214-1.1346-.3219-.27-.8051-.0735-1.079-.6137a.8594.8594,0,0,1,.3423-1.0569c.4244.0944.95-.1967,1.4033.2095l1.3448-1.1794c-.0675.1556-.0478.0813-.0072.021a5.0341,5.0341,0,0,0,.731-3.1825c-.0556-1.1971-.0124-2.3988-.0124-3.4679-.3593-.698-.6628-1.2942-.9731-1.8869a2.1537,2.1537,0,0,0-.3448-.5727c-.3666-.3514-.79-.7319-.81-1.2165-.0224-.5494-.6058-.7019-.6278-1.1927a6.8517,6.8517,0,0,0-.8291-2.0545c-.2578-.6921-.5656-1.3655-.789-2.0786-.2162-.69-.5716-1.3678-.7423-2.0845-.311-1.3054-.7593-2.5685-1.1054-3.86a18.5315,18.5315,0,0,1-.2648-2.1741c-.0747-.5242-.203-1.0408-.3243-1.6454l-.3922-.3922c.17-1.5515-.7311-2.6892-1.667-3.9073v-1.104l-.4871-.513v-.48a1.7674,1.7674,0,0,1,1.5844-.5847c.3833-.6392.922-1.2159.8023-2.0388l1.0632-1.0632h.8341l.7446,1.318.804.2487c.4572.6959-.1673,1.1874-.093,1.7666a15.3727,15.3727,0,0,1,.0168,1.88l1.1064.0666.4452.4452a4.2468,4.2468,0,0,1,3.37,1.2084h5.4659l1.3259.9709a1.7305,1.7305,0,0,0,1.6491-1.6371c1.17.1221,1.4649-.93,2.1246-1.4946a3.6092,3.6092,0,0,0,1.9626-.4987c.6105-.3214,1.294-.4943,1.4873-1.2779a.5844.5844,0,0,0,.0217-.1106c.0011-1.08.0009-2.1595.0009-3.2557l.4743-.5021c-.6428-.5766.0652-1.1448.0175-1.7241-.0519-.631-.0118-1.27-.0118-1.87l.4081-.4081.3513-3.7169.391-.3548c-.5488-1.39-.0332-2.7541.08-4.1079a15.4276,15.4276,0,0,1,.59-3.8743,7.0668,7.0668,0,0,1,.0761-3.0736,28.3221,28.3221,0,0,0,.21-3.0915l1.209-.3165a3.5652,3.5652,0,0,0,.5567.7159,2.328,2.328,0,0,1,.8858,1.43,3.0782,3.0782,0,0,0,.5457,1.3362,3.7834,3.7834,0,0,1,.6984,2.5983c-.0132.1991-.0019.4-.0019.6082.8978.81.7024,1.888.7172,2.9051l-2.3326,2.3326c.4568,1.136-.1822,2.3869.6065,3.5238l.4548.2262c1.0722-.5215,1.1488-.621,2.0535-.1811.6743.328,1.3124.0991,1.9555.2083.4169-.5381.9324-.1715,1.2132.0415.5435.4123,1.0982-.0071,1.6241.2977l.6035-.743.2993-.8138c.6355.1022,1.2548-.1832,1.8333.2293.607-.607.7406-1.5511,1.34-2.15.6416-.6416,1.7473-.9367,2.3445-1.534,1.1824-.39,1.4864-1.424,2.1408-2.09-.5131-.9417.1848-1.4062.739-1.9964-.1514-1.204.8841-1.7489,1.5576-2.52a5.8059,5.8059,0,0,1,2.1923.2192,2.58,2.58,0,0,1,.7333.2694,8.7407,8.7407,0,0,1,2.7629,2.5431,2.1177,2.1177,0,0,0,.2739.334h1.7379a2.2126,2.2126,0,0,0,1.772.9653c.121-.0081.243.1837.3813.2217a4.6138,4.6138,0,0,0,2.3673.4524l1.3607-.7086c.8229.1794,1.6048.7155,2.7122.4114l2.0762-1.6067c0-.2609-.067-.5047.0108-.5668a3.3264,3.3264,0,0,0,.8391-1.5811,3.3938,3.3938,0,0,1,.4326-.8958,4.1008,4.1008,0,0,0,.6814-1.2847,6.11,6.11,0,0,0,.21-1.3791,4.1358,4.1358,0,0,1,1.1213-.4911,5.0782,5.0782,0,0,0,1.617-.4612.7357.7357,0,0,1,.9631.1929c.1875-.2526.6782-.1982.664-.6554.68-.58,1.3393-1.1859,2.0491-1.7263a3.4579,3.4579,0,0,1,.9825-.34c.4-1.3064,1.0837-2.5486,1.4673-3.9054.01-.037-.016-.0976.004-.1168a3.4,3.4,0,0,1,.7488-.6731c.3266-.1593.362-.4619.5416-.688a1.1477,1.1477,0,0,1,.8491-.5589,4.1485,4.1485,0,0,0,1.1168-.4666c.2749-.1134.56-.2018,1.1012-.3936l.7522-.9941h.8876a7.0952,7.0952,0,0,0,2.42-2.4238,17.125,17.125,0,0,1,2.0313-2.1551,1.5179,1.5179,0,0,1,.8456-.2483,6.7542,6.7542,0,0,1,1.1983-.0052,4.9733,4.9733,0,0,0,3.084-1.0224l.0359-.7975c.1879-.188.3576-.3576.5272-.5275a.9194.9194,0,0,1,.2162-.0549,11.3,11.3,0,0,1,1.5577.0116,5.87,5.87,0,0,0,1.5818-.256,7.682,7.682,0,0,1,3.2537.5449c.9782.2987,1.7389.9985,2.7262,1.3914.5569-.0823,1.1588-.5961,1.7976-.03.0876.0776.3669-.0278.5434-.0891a2.4418,2.4418,0,0,1,2.3424.3313h1.1589l.84.9869c0,.2455-.146.7359.0341,1.0186a2.0828,2.0828,0,0,1,.1959,1.2422,8.4566,8.4566,0,0,0,.2151,1.1051,13.6523,13.6523,0,0,0,.2555,1.8206,2.8709,2.8709,0,0,1-.2177,1.6957c-.0969.2809-.2828.6044-.2169.8524a9.031,9.031,0,0,0,.6877,1.4588,3.7107,3.7107,0,0,0,.951,2.92,13.115,13.115,0,0,0,.0386,2.0071,13.9917,13.9917,0,0,1,.2311,1.8234,5.7014,5.7014,0,0,1-.2887,2.2868,4.3433,4.3433,0,0,0-.1972,1.7138,30.0367,30.0367,0,0,1-.5063,3.3983c-.0316.2725-.285.5193-.4619.8216v1.8627l-.72.7164v1.0592l-.6351.29-2.1858-2.1858a3.3877,3.3877,0,0,0-1.154.1928c-.5689.2356-1.006.6453-1.54.9125a1.1407,1.1407,0,0,0-.5163.7332,3.0345,3.0345,0,0,1-1.3183,1.861,3.3532,3.3532,0,0,0-1.577,2.69c-.0382.5116-.1843,1.0461-.1945,1.5878.9842.9919,1.1741,2.3928,1.8074,3.5543,2.4862,1.4479,2.63,1.4816,6.1158,1.4061-.6481-.6677.2806-1.2608-.0024-1.9171.3473-.5236.2579-1.2763.9638-1.7189l1.2712.5462h3.394c.6111.4225.2673.9964.38,1.4313-.6131,1.1578-1.23,2.263-1.8916,3.3487a12.3468,12.3468,0,0,0-1.0255,2.69,13.3434,13.3434,0,0,1-.9311,2.7311,7.2594,7.2594,0,0,1-1.445,2.1582v.515c-.5367.4967-1.0585,1.0457-1.6489,1.5069-.56.4374-1.1921.7828-1.8289,1.1922h-1.1682c-.895.8114-1.7886,1.6318-2.6962,2.4365a7.1329,7.1329,0,0,1-.6589.43,18.6107,18.6107,0,0,0-3.0013,3.2911c-.1854.5595-.9873.7473-.8026,1.47-.4241.4242-.8616.8362-1.2669,1.2777a8.2575,8.2575,0,0,0-.5161.7426c-.248.3392-.5177.6629-.759,1.0067s-.7562.4807-.7691,1c-1.4167,1.1982-2.1587,3.0037-3.6552,4.115a24.71,24.71,0,0,0-2.1859,1.9595,1.5546,1.5546,0,0,1-.7462.4914c-.7164.073-1.105.637-1.6591.9407-.4859.2663-.8057.8638-1.4527.7814-.4528.3227-.7112.8372-1.2728,1.0359-.2248.0795-.3688.3891-.548.5953-.3576.4114-.6421.9654-1.0922,1.1943a4.5216,4.5216,0,0,0-.9746.8136,6.6961,6.6961,0,0,1-1.4027.959,14.8938,14.8938,0,0,0-2.1088,1.5784c-.4249.3322-.8375.68-1.26,1.0149-.1171.0927-.256.24-.3771.2323-.7444-.0446-1.1736.4513-1.6963.8564a5.93,5.93,0,0,1-2.7051,1.5825,2.0378,2.0378,0,0,0-.9216.6453,4.6415,4.6415,0,0,1-2.083,1.3535.7461.7461,0,0,0-.4021.1728c-.6033.809-1.5848.8135-2.402,1.1658-.24.1036-.46.2546-.8478.4733a2.0674,2.0674,0,0,0-1.35.3044c-.0906.0659-.1916.1714-.2855.1691a3.3755,3.3755,0,0,0-.9879.2225,4.5963,4.5963,0,0,1-1.2315.0268,5.0375,5.0375,0,0,0-2.4215-.7411,2.7483,2.7483,0,0,0-2.1751.7765l-.8718,1.3661c-1.188.222-1.9385-.536-2.7843-.8933l-1.275.305-.4639.5762-.259.7508a4.1594,4.1594,0,0,1-2.8832-.6947,21.6205,21.6205,0,0,0-3.0767-.97,4.84,4.84,0,0,1-1.0966-.2459,5.8282,5.8282,0,0,0-2.19-.2314l-.5786.5506-2.94-.3072-1.0618-.7213c-.3792,0-.8806-.151-1.1518.0346-.4283.2931-.8316.1679-1.2444.1989-.3975.03-.799.0065-1.1969.0065a2.8215,2.8215,0,0,1-1.5195.99c-.2809.0448-.5236.4062-.7554.65a2.9249,2.9249,0,0,0-.3168.5411c-.6766-.1272-1.381.1841-2.0432-.248a.6786.6786,0,0,0-.5846-.0014,3.2506,3.2506,0,0,1-2.7689-.1081c-.32-.1058-.5234-.1859-.8335.0195a2.1827,2.1827,0,0,1-1.8629.2216,2.5855,2.5855,0,0,0-.9818.1206,11.3063,11.3063,0,0,1-1.8794,1.3828,15.3761,15.3761,0,0,1-2.2634,1.0818l-.377-.5607h-1.5622Zm74.1827-36.58-.1429-.01-.6485-.8221c-.9712-.1542-1.2581-.975-1.8511-1.3581-.1542-.94-.5195-1.5026-1.788-2.7711a2.0238,2.0238,0,0,0-1.3243.2048,2.6569,2.6569,0,0,1-2.0251.4762c-.2893.1936-.5552.3425-.7858.5338a7.199,7.199,0,0,0-.5608.5514c-.5963.2155-1.05.379-1.5029.5431a4.0219,4.0219,0,0,0-1.9118,1.4184c-.3912.5265-.9224.9179-1.284,1.502-.8332,1.3457-1.042,1.4094-2.7278,1.7147a1.609,1.609,0,0,0-.4786.2884v.8061l.4242.4243c.139.4714-.12.9417.18,1.3974a3.6642,3.6642,0,0,1,.5926,2.397,2.5806,2.5806,0,0,0,.289.9206h.6083c.6247,1.0661,1.0339,2.3755,2.3948,2.855h1.5255c.3967-.5938.7944-1.2428,1.2466-1.8513.4585-.617.9709-1.1939,1.4406-1.7651a19.1955,19.1955,0,0,0,2.7087-.028c.8315-.123,1.51-.7611,2.3691-.9246.2272-.0433.4-.3712.5966-.5669v-1.188l.8817-.8989h.5393l.0448-.9253.7933-.2948.6818-.911Z"/>
</svg>
