<svg id="Sudan" xmlns="http://www.w3.org/2000/svg" width="792" height="612" viewBox="0 0 792 612">
    <defs>
        <style>.cls-1{fill:#fff;}</style>
    </defs>
    <path class="cls-1"
          d="M448.5417,242.5119c-.2759-.4986-1.1824-.394-.9412-1.2844l1.1639-.8584c0-.4381-.0251-.8731.0053-1.3042.0625-.888.155-1.7739.2347-2.6608a2.0359,2.0359,0,0,0-.5412-1.46,22.1181,22.1181,0,0,1-1.84-2.7155,17.1741,17.1741,0,0,0-2.5008-2.8014c-.7314-.2185-1.0318-.9442-1.5951-1.3346-.123-1.2347.7418-2.3123.3439-3.9388-.1855-.5674-.8917-.871-1.8848-.7463l-1.1021-1.32c0-.7095-.0217-1.6668.0118-2.6222a1.5312,1.5312,0,0,0-.2515-.8611c-.3931-.677-.785-1.3547-1.2062-2.0821.0863-.5554-.1829-1.2.2514-1.7682l-.269-.5419-1.7121-.8731c-.5752.1239-1.1183.8234-2.0144.6766l-.5536-.7446v-1.49a7.1618,7.1618,0,0,0,.4591-.6284c.221-.3767.4313-.7.9483-.7472.2243-.02.46-.2786.6274-.4813.29-.3516.53-.744.8348-1.1818-.0615-.6922-.61-1.262-.8743-1.9514-.2117-.5524-.6841-1.0208-.5642-1.6928.574-.771.9822-1.79,2.2661-1.6139l.8419-.9079V202.14l-.8888-.848-.3375-2.0951,1.9676-1.0534c-.6243-.7561.0056-1.2963.2278-1.8878a1.8584,1.8584,0,0,1,1.291-1.3377c.3429-.5991-.1282-1.23.3495-1.6427l-.7588-1.6188,1.26-1.1567a5.1842,5.1842,0,0,0,3.5365-.6957l2.957.5105a14.6431,14.6431,0,0,0-.04-2.962,18.1444,18.1444,0,0,1-.1922-3.3893,11.767,11.767,0,0,1-.2714-1.8229,2.1992,2.1992,0,0,0-.214-1.7c-.0193-.0253-.0072-.0787-.0018-.118.1807-1.3031-.3521-2.5683-.2235-3.8587.0646-.6486-.2959-1.1955-.2638-1.8225a5.09,5.09,0,0,0-.0279-1.7881,18.32,18.32,0,0,1-.2259-2.3076c-.2705-1.2858-.0648-2.5962-.266-3.8572-.15-.938-.1269-1.86-.2036-2.787a9.4342,9.4342,0,0,1-.2452-1.5824,2.1336,2.1336,0,0,0-.2248-1.5793v-3.7116l.36-.36a3.1361,3.1361,0,0,1,.3389.0016c1.977.1642,3.9221-.4443,5.9937-.1966-.0684-.96.2853-1.8859-.1878-2.7855a.4042.4042,0,0,1-.0225-.2291c.1706-1.224-.26-2.4072-.2427-3.6206s-.41-2.397-.24-3.62c-.3807-.777-.05-1.6555-.279-2.4085a13.1505,13.1505,0,0,1-.211-2.6109l.37-.37c.1209,0,.3121-.01.5021.0017,1.2573.0773,2.4734-.3457,3.7417-.26,1.2342.0836,2.4786.0232,3.7185.0158.5364-.0032,1.0092-.322,1.5829-.26a2.0256,2.0256,0,0,0,1.5821-.2127c.05-.0388.1578-.0164.2356-.0035,1.0274.1712,1.9972-.3061,3.0213-.2529.9972.0518,2,.0411,2.9988.0013.7288-.0291,1.4523-.1825,2.1813-.2211a11.357,11.357,0,0,0,2.2689-.0479c.8611-.2317,1.7306-.0325,2.5433-.232.9749-.2393,1.9717-.03,2.8994-.2458,1.2182-.2836,2.4429-.0148,3.6236-.2325a28.05,28.05,0,0,1,4.3456-.2108c.7131-.4182,1.5419-.0728,2.2652-.3269a8.2182,8.2182,0,0,1,2.4561-.1447c.7981-.0386,1.6014.0255,2.3987-.02a13.9327,13.9327,0,0,0,1.6016-.2746l.4334-.4335a1.0949,1.0949,0,0,1,.424.0079,5.1882,5.1882,0,0,0,2.3034.225c1.3279-.0542,2.6608-.0975,3.977-.2618a12.3009,12.3009,0,0,0,1.4556-.245,5.2812,5.2812,0,0,1,1.349-.2071c.52.0046,1.04.001,1.56.001.48,0,.9626.0312,1.4392-.0086.49-.041.973-.1616,1.4616-.2285s1.0236.1591,1.4649-.2375c.0442-.04.1554-.002.2352-.0059,1.6467-.0793,3.2943-.1462,4.94-.2464.6094-.0371,1.2128-.1655,1.8213-.2294.57-.06,1.1768.1446,1.7-.2437,1.0263.1656,2.0069-.2824,3.02-.2345,1.7361.0822,3.4416-.4271,5.18-.2455.821-.353,1.73-.0673,2.5282-.2849.7472-.2036,1.5148.0041,2.1786-.2342a8.9813,8.9813,0,0,1,2.0656-.2123,3.8167,3.8167,0,0,1,.8588,2.4683l1.8862,2.8563a2.5516,2.5516,0,0,0,.5242,1.7293,5.3243,5.3243,0,0,1,.7338,2.2266,1.8068,1.8068,0,0,0,.715,1.413c-.1464.459.2148.998-.2464,1.4452a.4653.4653,0,0,0-.0046.4525c.47.3639.11.8947.3033,1.3246a6.5426,6.5426,0,0,1,.2575,1.4536,3.22,3.22,0,0,1,.5109.747,3.2772,3.2772,0,0,1,.3683,1.533,2.9554,2.9554,0,0,0,.5593,2.0491,4.0662,4.0662,0,0,1,.389,1.2723,15.5578,15.5578,0,0,0,1.699,3.8528,6.1637,6.1637,0,0,0,1.1283,1.0763h1.1016a2.4591,2.4591,0,0,0,1.8287,1.017,13.0077,13.0077,0,0,1,1.1772,1.6983c.2133.4252.6718.3577.8881.6763,1.1565-.1052,1.8015.8643,2.82,1.2329a4.8415,4.8415,0,0,1-.3336,1.0157,5.8009,5.8009,0,0,0-.7358,1.9833,5.36,5.36,0,0,1-.7037,1.3413l-1.3165-.2449-1.783,1.6507a2.0474,2.0474,0,0,0-1.9172.5707v1.6977l-.6988.59c-.7635-.1189-1.6823.2713-2.446-.2534l-.4.29c.0656.7974.1256,1.4453.17,2.0942a1.8031,1.8031,0,0,1-.3185,1.425c-.3182.3542-.0793.76-.1658,1.1132l.7045,1.0383a3.7334,3.7334,0,0,1-.3645,2.2461.6369.6369,0,0,0-.0884.32,6.7672,6.7672,0,0,1-.7784,2.92,5.52,5.52,0,0,0-.4414,1.6217c-.0413.6454-.1961,1.2837-.3291,2.0936l-.6107.91a4.79,4.79,0,0,0,.2709,1.6406c.3489.6509-.0546,1.41.4435,1.9806.0064,1.2733.5849,2.4609.4985,3.7622-.0847,1.2743.0738,2.5674-.0475,3.8357a4.8721,4.8721,0,0,1-1,2.9436,1.2985,1.2985,0,0,0-.4136,1.0228c.1876,1.4182-.3568,2.79-.2287,4.1876a6.09,6.09,0,0,1-2.6136.9057,6.4932,6.4932,0,0,0-1.7545,2.8172c-.4,1.0342-.8666,2.04-1.1794,3.1125a1.1111,1.1111,0,0,1-.6109.6689,1.4888,1.4888,0,0,0-.9037.9607,1.7337,1.7337,0,0,0,.0164,1.308,3.6685,3.6685,0,0,1-.6259,2.9483c.0335.03.1424.0827.1429.1361.01,1.148.0074,2.2961.0074,3.4886-.2461.17-.3837.6607-.75.5769l-.9818-.9819h-.9371a5.3488,5.3488,0,0,0-1.8047,2.4807,7.2531,7.2531,0,0,0,.1937,2.1653,5.2107,5.2107,0,0,1,.0331,1.6762,1.9332,1.9332,0,0,0-.7156,1.6128,2.0834,2.0834,0,0,1-.24.9827c-.2768.8268-.4666.8838-1.2007.3168v-2.6472c-1.0326-.96-1.9954-1.994-3.0983-2.9013a14.1338,14.1338,0,0,0-3.3858-2.2469,8.8135,8.8135,0,0,0-.0186-1.5266,4.2594,4.2594,0,0,1-.2214-1.464c-.4894-.2863.0094-.9547-.48-1.2411a13.3213,13.3213,0,0,1-.2082-2.4176,12.3231,12.3231,0,0,1,.3968-2.5823,5.57,5.57,0,0,0,.0255-1.5475h-3.0306l-.3866.5915L515.27,216v1.0039l-.3834.3834H511.764l-.6776.3695,1.2782,1.1218a7.7145,7.7145,0,0,1-.004.8586,6.1681,6.1681,0,0,0,.762,3.525,2.6935,2.6935,0,0,1,.2095.9592c-.635.635-1.2794,1.34-1.9874,1.9737a10.744,10.744,0,0,0-2.5829,3.7342,2.1257,2.1257,0,0,1-.2239.3149v.8028l-3.2166,4.0806H502.5c-1.7466-1.1673-3.1962-2.7187-5.1348-3.5985a5.9287,5.9287,0,0,1-1.491-1.0189c-.3541-.321-.9027-.5656-.8069-1.2258.0143-.0981-.1987-.2293-.3517-.3935-.3483.2773-.7189.5326-1.0418.8381-.61.577-1.1892,1.1863-1.7876,1.7758a1.91,1.91,0,0,0-.6491,1.535c.0337.5934.0072,1.19.0072,1.7491l-.3324.3325h-4.1057l-2.2459,1.9475c-1.1917,0-2.5066-.01-3.8211.0048a1.706,1.706,0,0,1-1.44-.56c-1.4739,0-3.0221.0017-4.57-.0067-.0567,0-.1129-.1005-.128-.1149-1.1637.439-2.5191.37-3.3862,1.3931h-1.6943l-.81-.8094V236.1a7.5278,7.5278,0,0,0-1.7432-2.0591,2.4492,2.4492,0,0,1-.952-1.78c.0035-.2868-.2875-.5992-.4939-.8606a9.3341,9.3341,0,0,0-.7562-.77,8.8041,8.8041,0,0,0-2.1632.1667,9.06,9.06,0,0,0-2.0531.3023,3.2568,3.2568,0,0,0-1.9352,1.3274l-.35,2.4619a5.32,5.32,0,0,0-2.0716,3.6762l-.6642.98-.3671,3.7407c-.5058.6881-1.4619.7712-2.3192.95a2.7108,2.7108,0,0,1-1.5951-.1527,1.9049,1.9049,0,0,0-1.596.1047,2.3417,2.3417,0,0,1-.958.0937C447.8589,243.7266,448.5121,243.1293,448.5417,242.5119Z"/>
</svg>
