<svg id="Swaziland" xmlns="http://www.w3.org/2000/svg" width="792" height="612" viewBox="0 0 792 612">
    <defs>
        <style>.cls-1{fill:#fff;}</style>
    </defs>
    <path class="cls-1"
          d="M493.6737,529.0272a6.6452,6.6452,0,0,1-5.0327-1.0986,14.8376,14.8376,0,0,1-.659-1.3978c-.1608-.4588-.2342-.9482-.3832-1.5836l-.6027-.8887a10.4225,10.4225,0,0,1,.2873-2.0462,2.8,2.8,0,0,1,1.3534-1.5424,2.0285,2.0285,0,0,0,.892-.9771c.2341-.4571.4961-.9.8463-1.5294.5948-.3257,1.2223-1.1262,2.309-.8453.4236.4236.8887.8627,1.3233,1.33a1.9476,1.9476,0,0,0,1.76.7926l.5632.5632a1.9569,1.9569,0,0,1-.4291,1.7361v3.3689c-.1688.1041-.3666.2069-.5426.3388a1.9307,1.9307,0,0,0-.709.9863,6.4187,6.4187,0,0,0-.6937,2.4718C493.9614,528.8162,493.757,528.9371,493.6737,529.0272Z"/>
</svg>
