<svg id="Tanzania" xmlns="http://www.w3.org/2000/svg" width="792" height="612" viewBox="0 0 792 612">
    <defs>
        <style>.cls-1{fill:#fff;}</style>
    </defs>
    <path class="cls-1"
          d="M541.5174,406.7227a6.7348,6.7348,0,0,0-2.4865-2.4862l-2.22,1.5334-4.2484-.6078a11.3957,11.3957,0,0,0-2.615-3.3244V400.86c.5478-.6108.7925-1.2777.6982-2.9172a1.767,1.767,0,0,1-.4841-1.4814c.022-.7191-.0267-1.4412.013-2.1587a4.8077,4.8077,0,0,0-.8932-2.7512A21.8918,21.8918,0,0,0,526.46,388.46c-.69.0426-.8568.6162-1.25,1.0435a5.8687,5.8687,0,0,0-1.4466-.5289,6.5429,6.5429,0,0,0-1.5965.2335l-.816-.9573h-1.5973l-.9864-.9864a7.8188,7.8188,0,0,1-.9427-.0107.94.94,0,0,1-.4952-.238c-.8678-.8154-2.2009-1.0035-2.81-2.1711a3.4234,3.4234,0,0,1-2.7238-.6972c-.1763-.1359-.3949-.2168-.5715-.3524-.3635-.2789-.7118-.5776-.9523-.7747l-.9209.2c-.1427-.0664-.2328-.08-.2731-.1317a6.0942,6.0942,0,0,1-.7383-1.0133,2.4694,2.4694,0,0,0-1.74-1.3185,9.369,9.369,0,0,0-2.2512-.22l-.6979-.8471a7.1725,7.1725,0,0,1-.5895-1.0777c-.1473-.4229-.07-.9625-.3036-1.3069-.2858-.4215-.0856-.8411-.2418-1.226-.3854-.8406-1.2006-1.4817-1.1474-2.627l-.5-.355a7.0173,7.0173,0,0,1-.4957-2.3789,4.992,4.992,0,0,0-.98-2.3429c-.1217-.1566-.3611-.2622-.4082-.43-.348-1.239-1.3692-1.7382-2.3761-2.2959a8.4739,8.4739,0,0,1-1.23-.9967,5.2761,5.2761,0,0,0-1.1976-2.4549,9.5753,9.5753,0,0,0-.2168-2.0676c-.2964-.8235.2915-1.465.8918-1.9851a4.7492,4.7492,0,0,0-.5238-2.7728,10.3636,10.3636,0,0,1-.4059-1.391,4.4718,4.4718,0,0,0-.2437-.7383,5.1392,5.1392,0,0,1-.7358-2.9979l.9772-2.5511h2.4337a3.723,3.723,0,0,1,.65-.5008,3.0444,3.0444,0,0,0,1.7363-1.5708c.0693-.1707.3177-.2636.405-.4328.2551-.4944.6937-.8487.8235-1.4667a1.3912,1.3912,0,0,1,1.0738-1.1623l.3843-1.62a4.6453,4.6453,0,0,1,1.274-.9174c.5648-.1811.5448-.5592.659-.9936l1.3414-.7658v-2.3214h-1.26l-.5087-.5087H501.99a.86.86,0,0,1-.2823-1.1844,5.7643,5.7643,0,0,0,.6319-2.3829c.0026-.1641.1747-.3255.2834-.5139h1.7248c.679-.5374.2352-1.2365.4476-1.97l.4684-.33-.5373-1.04c0-.5722-.0375-1.2527.009-1.9274a5.6677,5.6677,0,0,0-.7712-2.5641c-.0611-.1486-.294-.2278-.45-.3362a4.16,4.16,0,0,1-1.3211-1.4265c-.233-.4239-.0921-.656.2394-.9558h.9452a2,2,0,0,1,1.5434-.5044,51.6276,51.6276,0,0,1,5.3939.044c2.971.3428,5.9361.1406,8.9023.1911,2.9981.0511,5.9979.0119,8.9969.01a1.7086,1.7086,0,0,1,.9865.231c1.3261.8406,2.6713,1.6516,4.0187,2.458.67.4012,1.37.7523,2.0395,1.1552,1.5058.9068,2.969,1.89,4.5085,2.734,1.7074.9364,3.1947,2.228,4.9847,3.0208.0672.03.1746.0066.2159.0516a14.8878,14.8878,0,0,0,3.7014,2.3607c.5223.3114.9545.77,1.4643,1.1069a29.9214,29.9214,0,0,0,4.2118,2.57,11.8271,11.8271,0,0,1,1.7406,1.1532V339.27l-.6885.6244v.9708c1.3483,1.0533,2.4823,2.286,3.7807,3.3462,1.3454,1.0987,2.7929,2.068,4.0639,3.2661,1.2478,1.1763,2.5892,2.2531,3.8727,3.359v1.1057l-.7554.6422c.3083,1.46-.4885,2.7-.6815,4.0492-.0194.1355-.1515.2551-.2319.3816a17.0578,17.0578,0,0,0-1.7712,4.0646,1.309,1.309,0,0,0-.1341.6542c.313,1.0864.0829,2.288.8718,3.4329l1.0792.4207a4.6379,4.6379,0,0,1,1.41,2.2508.6926.6926,0,0,0,.4536.4464,1.6449,1.6449,0,0,1,1.45,1.23v.7811c-.3685.59-.9546.9587-1.248,1.5506-.2618.528-.4478,1.0934-.6728,1.64-.1273.3092-.2657.6139-.5051,1.1641l.2066,1.4663.9784.3071v2.2091l-1.3826,1.9375a17.2,17.2,0,0,1,.21,1.8,4.9519,4.9519,0,0,0,.4331,1.8658,3.2148,3.2148,0,0,1,.0746,1.1076l1.4264,1.94c0,.4983.0235.9348-.0051,1.3679a5.9754,5.9754,0,0,0,.3931,2.239c.0225.07.0971.1409.0866.2008-.1657.95.2953,1.8413.247,2.8615l1.11,1.3089.301,1.1084h.9115l.59.7339h.8161l.5859.8026v.8147c-.488.3149-1.0182.6117-1.4975.9757-1.0495.797-2.3356,1.1718-3.3954,1.9444a8.04,8.04,0,0,0-2.5881.9912,10.7989,10.7989,0,0,0-1.147.7115,16.6633,16.6633,0,0,0-2.3938.0262c-.7608.1071-1.4158.6653-2.36.771a2.1549,2.1549,0,0,1-2.1714.88l-2.3222-1.1954h-.67l-.88.6658c-.39.6346-.5672,1.6141-1.3657,2.1546a5.4932,5.4932,0,0,1-4.34.1957l-1.178-.9044-1.383.2407-.3834.6894C543.9991,407.2157,542.7943,406.55,541.5174,406.7227Z"/>
</svg>
