<svg id="Togo" xmlns="http://www.w3.org/2000/svg" width="792" height="612" viewBox="0 0 792 612">
    <defs>
        <style>.cls-1{fill:#fff;}</style>
    </defs>
    <path class="cls-1"
          d="M283.1585,259.0711l-.45.3555c.4976.9686.13,1.9742.3122,2.9682.8084.4446,1.5618.9708,1.3565,2.1386a3.7488,3.7488,0,0,1-2.0561.8076,6.67,6.67,0,0,0-1.6828.4752c-.4834-.3906-1.2914-.328-1.6109-1.1635a1.1911,1.1911,0,0,0-1.2241-.5392l-.8258-.9349v-.6057l-.6918-.4173v-.6243l-.8834-1.4484.8413-.9017v-2.5891l-.9036-.6647a1.4731,1.4731,0,0,1,.2825-1.3548,2.3571,2.3571,0,0,0,.3925-1.5236c-.0135-.9172-.0037-1.8347-.0037-2.7375l.7065-.7065v-.9168l-1.9053-1.9051c0-.3149,0-.5545.0006-.794.1419-.1413.2832-.2826.4843-.4837l-.29-2.59.5182-.5182v-1.0925c-.4541-.959-1.42-1.07-2.1316-1.45-.1042-.7628.4162-1.1878.64-1.7317.2361-.5724-.2209-1.2652.2064-1.6809a14.9081,14.9081,0,0,1-.1378-1.5741c.01-.5328-.4413-.868-.5-1.2409l-2.5308-1.803a2.1421,2.1421,0,0,1,.2623-1.8081,4.2637,4.2637,0,0,0,.3509-.9321c.1181-.4325.4166-.5207.8737-.4873l.3664.4734h1.569l.4983.76.9549-.4917h1.4194a1.3344,1.3344,0,0,1,.3231.964l-.6726.9856c-.1752.53.1122,1.0272-.2525,1.5342-.2311.3215.0949.8552.4064,1.1015a9.8677,9.8677,0,0,0,2.951,2.1305c.3435.11.6.492.9286.7776,0,.7423.0456,1.4988-.0121,2.2473a5.4458,5.4458,0,0,0,.494,2.32c.1012.2773.2234.5468.3687.8989,1.1738.4164,1.32,1.446,1.3143,2.5824q-.0216,4.5567.0026,9.1137c.0017.3725-.1587.7914.2117,1.1143a.3844.3844,0,0,1,.0144.3423C282.92,256.59,283.3769,257.7911,283.1585,259.0711Z"/>
</svg>
