<svg id="Tunisia" xmlns="http://www.w3.org/2000/svg" width="792" height="612" viewBox="0 0 792 612">
    <defs>
        <style>.cls-1{fill:#fff;}</style>
    </defs>
    <path class="cls-1"
          d="M338.9066,80.917l-1.738.6728c-.1392-.2343-.3669-.4442-.372-.6594a1.9752,1.9752,0,0,0-.7465-1.4585,5.2171,5.2171,0,0,0-.5018-2.8316,16.4277,16.4277,0,0,0-.7725-2.3184,13.771,13.771,0,0,1-.7765-2.1943,4.7521,4.7521,0,0,1-.2484-1.2125,8.672,8.672,0,0,0-.691-2.3727c-.39-.324-.9256-.8251-1.5184-1.2464a14.5858,14.5858,0,0,1-1.708-1.0508A10.5343,10.5343,0,0,0,327.97,65.1c-.0961-.5265-.1984-1.1221-.3175-1.7143a1.2967,1.2967,0,0,0-.1743-.406c-.2541-.4159-.4994-.84-.7856-1.2329a3.6744,3.6744,0,0,0-2.225-1.5189,1.7537,1.7537,0,0,1-1.1422-.723V58.028L322.2,56.6633c-.1307-.9651-.8386-1.9151-.42-3.2469l1.7811-1.4834v-.8246a9.43,9.43,0,0,0,1.5281-.813,12.5636,12.5636,0,0,0,1.3673-1.49,4.3373,4.3373,0,0,0-.0078-.7888c-.1256-.91.293-1.7556.2712-2.803l.48-.48-.75-.8032V41.27c-.3367-.7963-1.0443-1.2878-.4882-2.1011.0849-1.2442.1945-2.4875.2375-3.7331a3.4811,3.4811,0,0,0-.3164-1.0216c.69-.4715.9106-1.3191,1.6913-1.6932.2129-.1021.2857-.4964.4162-.7442a10.6,10.6,0,0,0,1.2529-.9084,4.05,4.05,0,0,1,2.5437-1.4265c.4408-.0323.8552-.4248,1.3415-.6855h.8879l1.0318,1.3262c.3433-.322.6237-.5851.9041-.8483a.6967.6967,0,0,1,.8435.5807,8.9417,8.9417,0,0,0,.6917,1.4325l-.2638.93c.4578.6294,1.2746.4523,1.8195.8531,1.0123-.8227,1.0549-.8719,1.1632-1.3726l.8319-.0448,1.1721-1.1721h.5133v1.0646c-.4235.775-1.3025,1.3688-1.1441,2.4725l-1.2355.4129-1.1439,1.3021a3.175,3.175,0,0,0,.6859,2.584c.3763.4156.59.9838.984,1.3763.363.362.9822.4017,1.3128.86,1.2241.2511,1.3862,1.1426,1.3147,2.1769-.0081.1177-.0011.2365-.0011.3431l.4358.4358c-.0261.5448-.0261.5448-.4494,1.0215.2766,1.255-.843,2.0059-1.2077,3.0738a2.4062,2.4062,0,0,0-1.2245,1.2713c-.3654.3-1.0622.1983-1.17.8962-.012.077-.2464.1229-.38.177a4.6929,4.6929,0,0,0-2.1755,2.1763,6.13,6.13,0,0,0,3.9783,4.5056l.9611-.3337.03.5026,1.0029.9941,1.4517-.5077c.1515.1512.41.2949.401.4188a2.4139,2.4139,0,0,0,1.0945,2.0209h1.5109c.2123,1.3413-.1915,2.6984.4414,4.2055l.6624.5336c-.1093.2486-.1471.5651-.2968.6324-.4719.2119-.7715.7773-1.4095.6739-.1391-.0226-.3155.1794-.4734.28-.443.282-.887.5626-1.3274.8486a3.3686,3.3686,0,0,0-.7406.5154c-.7333.8437-1.4321,1.7173-2.189,2.6346h-.829c-1.27.7762-1.5111,2.0122-1.9852,3.1485a5.6047,5.6047,0,0,1,1.228,4.4125,2.2666,2.2666,0,0,1-.4811.9922c-.4282.6285-.9006,1.2269-1.3456,1.8444A1.08,1.08,0,0,0,338.9066,80.917Z"/>
</svg>
