<svg id="Uganda" xmlns="http://www.w3.org/2000/svg" width="792" height="612" viewBox="0 0 792 612">
    <defs>
        <style>.cls-1{fill:#fff;}</style>
    </defs>
    <path class="cls-1"
          d="M497.8945,323.3722l-.5747-.7136h-1.3962l-.6285-.9574a15.8089,15.8089,0,0,1,.35-3.3453,14.4219,14.4219,0,0,0,.443-4.0136,2.7943,2.7943,0,0,1,.2567-1.3236c.303-.4983.1447-.9879.24-1.584l.6725-.5415a2.6727,2.6727,0,0,1,1.0107-2.2829l-.3227-2.3385a2.3079,2.3079,0,0,1,1.6141-.9016l.5959-.5959v-1.3036l1.7418-.6648c1.485-1.9552,3.56-3.6979,5.3913-5.6738a11.56,11.56,0,0,0,1.1524-1.8365c-.2273-.2274-.3614-.4727-.5554-.5369-.975-.3223-1.3863-1.2517-2.1354-1.9067l-1.12.3371-.6413-.9035a3.4013,3.4013,0,0,1,.9536-2.4039,1.8757,1.8757,0,0,0-.7354-1.9233,4.0687,4.0687,0,0,1,.9881-2.4358v-1.9385c.5634-.4651,1.163-.96,1.7631-1.4551a1.2231,1.2231,0,0,1,1.0741.242,12.1148,12.1148,0,0,0,1.6649.9159l1.0063-.3533.5006-.6h.9353l.5626,1.3533,2.0066.7035c.0512-1.1527.902-1.4279,1.6213-1.8126a2.9331,2.9331,0,0,1,1.6959-.2418,2.9519,2.9519,0,0,0,2.294-.8408,1.7641,1.7641,0,0,1,.34-.1743,9.0467,9.0467,0,0,1,1.0494.6168,2.0143,2.0143,0,0,0,1.3994.3993c.556-.0238,1.1137-.0054,1.7193-.0054l2.9565-3.2944c.4488-.1828.8835-.0066.8992.321.0323.6714.6936,1.1274.5327,1.8425-.0289.1282.1749.3087.2469.48.4631.5973,1.2742.5382,1.9106.9494-.1023.6115.19,1.248-.2553,1.8074.1285.5064.2283,1.0225.3931,1.5169a2.89,2.89,0,0,0,.9538,1.44l.3669,1.5433,1.0565.5434a5.73,5.73,0,0,0,1.0876,2.379,6.8187,6.8187,0,0,0,.9421,3.9236c0,.5865-.0344,1.3434.0086,2.0959a2.28,2.28,0,0,1-.9836,2.299c.1652.689-.779.9872-.3951,1.7008l-2.4674,1.8825a4.6754,4.6754,0,0,1-1.1119,2.8186c-.1105.1675-.3777.2285-.5664.3483-.3208.2036-.6367.415-.9417.6146v1.475c-.6683.668-.796,1.7173-1.6848,2.14a3.2575,3.2575,0,0,0,.1661,1.051,2.8022,2.8022,0,0,1,.0562,2.5394,29.74,29.74,0,0,0-.2475,3.62,11.7226,11.7226,0,0,1,.0075,1.2822l-.36.36h-.4867c-4.9176,0-9.8353.0112-14.7528-.0108-.8468-.0038-1.6914-.1815-2.54-.22-.8778-.04-1.7588-.0089-2.6383-.0089h-2.5988c-.9532.7966-2.06.3536-3.2307.5228a8.38,8.38,0,0,0-.6237.9188,5.5277,5.5277,0,0,1-2.3327,2.1539C498.1338,323.4022,498.0365,323.3722,497.8945,323.3722Z"/>
</svg>
