<svg id="Western_Sahara" data-name="Western Sahara" xmlns="http://www.w3.org/2000/svg" width="792" height="612"
     viewBox="0 0 792 612">
    <defs>
        <style>.cls-1{fill:#fff;}</style>
    </defs>
    <path class="cls-1"
          d="M210.3523,101.5011a3.54,3.54,0,0,1,.2294.7415c.0381.4347.0106.8751.0106,1.2984l-.445.445c.0675.1178.1948.237.196.3575.014,1.4.009,2.8.009,4.2-.6181.8983.1193,2.0183-.3854,2.859a10.1249,10.1249,0,0,1,.1529,2.451l-.6193.6192c-.7193-.12-1.5393.1882-2.3289-.1924a4.6176,4.6176,0,0,1-2.1558.1657c-.808-.0148-1.6143-.1422-2.4207-.2258a9.9953,9.9953,0,0,1-2.3489-.1194c-.23-.0785-.5392.1122-.8124.114-1.84.0119-3.68.0031-5.52.01-.2761.001-.544.021-.735-.23a.5289.5289,0,0,1-.625.2214c-1.8735-.4349-3.775-.153-5.6614-.2425a2.02,2.02,0,0,1-.54-.2159c0,1.6314.0225,3.2234-.011,4.8143-.0136.6482-.1816,1.292-.22,1.9413a8.7261,8.7261,0,0,1-.0471,2.0273,9.4092,9.4092,0,0,0-.1962,2.5529,26.3514,26.3514,0,0,0-.2456,4.1c-.4875,1.2615-.1094,2.5768-.2685,3.8989l-.51.4935c-1.11.18-2.0745.8751-3.1195.52-.8387.6874-1.3372,1.6906-2.3937,1.7451a18.433,18.433,0,0,0-1.5215,1.2043,11.6781,11.6781,0,0,0-.9907,1.2147c.0652.5412.1024.9511.1667,1.3566.0649.4093.1868.8112.2281,1.222.04.396.0086.7991.0086,1.1991,0,.44.0257.8819-.0075,1.3194-.0312.4111.196.8793-.2272,1.2189.0565.0566.1621.1128.1625.17.0092,1.3881.0072,2.7762.0072,4.21-.068.0679-.1811.1811-.2943.2946-.36,0-.7215.0234-1.0793-.0041-.926-.0712-1.85-.1647-2.7752-.2493-.3017-.3876-.5822.0518-.8879.04-1.5178-.0578-3.06.1332-4.5547-.06-3.09-.3985-6.1913.0429-9.26-.2517-2.0157-.1935-4.0284-.0242-6.02-.2388-.93-.1-1.854-.1635-2.79-.2038l-.3624-.3623a7.0909,7.0909,0,0,1,.2082-1.8c.2119-.5363-.0288-1.2245.2781-1.8059a5.0171,5.0171,0,0,1,.3628-.8056c.5338-.67,1.1115-1.305,1.6614-1.9414H152.72c.189-.3673.3889-.7672.5995-1.1614.1926-.36.3246-.7868.8529-.8337v-1.1066l1.9913-1.9912a.9065.9065,0,0,1-.2007-1.1142,13.7769,13.7769,0,0,1,1.3991-2.91,22.1188,22.1188,0,0,0,1.49-2.1328c.2136-.4433.5169-.8518.3773-1.2653l4.7467-4.28h.4227c.3336-.336.6631-.6853,1.0111-1.0151a3.3177,3.3177,0,0,0,1.02-2.4575,9.3436,9.3436,0,0,1,.2288-2.9189l1.4355-1.4355c-.408-.8721-.16-1.4758,1.1437-2.78l.383-1.793.8749-.7651c.496.1063.7217-.46,1.1544-.6581a13.0362,13.0362,0,0,1,2.094-1.0111c.7-.2025,1.24-1.0775,2.1079-.64l1.002-1.002c-.029-.2608-.2135-.6833-.0753-.9.4927-.7718.5639-1.693.9881-2.4764a4.6815,4.6815,0,0,1,.9295-1.4742l.9358-1.9543h3.84l.079.199.161-.199h6.72l.079.199.161-.199h6.96l.079.199.161-.199h6.72l.079.199.161-.199Z"/>
</svg>
