<svg id="Zambia" xmlns="http://www.w3.org/2000/svg" width="792" height="612" viewBox="0 0 792 612">
    <defs>
        <style>.cls-1{fill:#fff;}</style>
    </defs>
    <path class="cls-1"
          d="M484.7065,438.0531l-1.2035,1.2221-.3436,2.9819-.7136.5447a4.3229,4.3229,0,0,0-2.0918.5637,7.8784,7.8784,0,0,0-2.35,1.32,5.9717,5.9717,0,0,1-1.9441.7686,2.1161,2.1161,0,0,0-.8977.689,7.552,7.552,0,0,0-1.348,1.9642,2.2884,2.2884,0,0,1-.43.5411c-.3313.347-.6818.6757-1.0146,1.0213-1.0935,1.1359-2.1826,2.2759-3.3217,3.4648h-1.0962l-1.0423.6993h-1.1969l-.388-.6323c-.7872-.3066-1.54-1.0141-2.6592-.7413a2.3389,2.3389,0,0,1-1.6751.4367l-1.3325-1.4326a11.1278,11.1278,0,0,1-1.6585.2139,10.9933,10.9933,0,0,1-1.6285-.2719c-.4322-.4322-.9366-.8919-1.3882-1.3986a3.5294,3.5294,0,0,0-2.5093-1.1939.4725.4725,0,0,1-.2068-.0763,1.2626,1.2626,0,0,1-.1713-.1553c-.34.441-.8133.1226-1.1052.2272-.7029-.3483-1.2292-.7228-2.007-.2882-.462.2582-1.15-.0588-1.6724.2953-1.4484.0251-2.8746.4652-4.4121.1524a3.7467,3.7467,0,0,1-1.748-1.2855,13.8612,13.8612,0,0,0-1.9688-2.1793,25.1161,25.1161,0,0,1-1.91-2.3144,7.6041,7.6041,0,0,0-2.4781-2.335,2.8963,2.8963,0,0,1-.5562-.5422v-1.68l-.736-.736c0-.4628-.169-1.0415.0413-1.3939a2.6981,2.6981,0,0,0,.1889-1.3658,6.1355,6.1355,0,0,1,.0325-1.4306c.6623-1.8248.4235-3.706.4441-5.5686a11.4865,11.4865,0,0,1,.2449-1.9415c.1089-.601-.1573-1.2449.2346-1.828.0926-.1377.0137-.3907.0137-.5907,0-.92-.027-1.8406.0059-2.7592.059-1.6474.0722-3.3035.2747-4.9349a18.35,18.35,0,0,0,.2-1.9488l.3645-.3581h8.3628c1.99.483,4.0149.1128,6.1033.2742l.0727-.8464-.7436-.6225a2.7661,2.7661,0,0,1,.0121-.8392c.35-.8946.7447-1.7718,1.196-2.8254.0856-.9443-.446-2.037-.2509-3.1822a11.9114,11.9114,0,0,0,.2284-1.7,4.5683,4.5683,0,0,1,.2561-1.6992c.1291-.3081.2753-.609.5109-1.1264l-.5156-2.6726.68-.4875.6565.6073h.7426l.4152.7525.2077-.1371-.3271,2.368a2.0838,2.0838,0,0,0,1.5361.3712l1.3264-1.13,3.4706-.3614.424.427a3.0593,3.0593,0,0,0,1.1652,2.8277,3.61,3.61,0,0,0,1.0547.63c.6267.2371,1.2834.3947,2.073.6289l1.0476.8047h3.3541c.9124.9246,2.0708.7241,3.0224.7327a1.5593,1.5593,0,0,0,1.254-1.7561c.3169-.54.7118-.3631,1.0837-.4012a3.5563,3.5563,0,0,0,1.5667,1.593c.541.2029.3014.8611.6786,1.1589a2.37,2.37,0,0,0,1.1187,2.057h1.7148l1.8407,1.1939h.8345l1.7162,1.7165a1.8875,1.8875,0,0,0,.3593,2.3709l.8576-.3067a4.3547,4.3547,0,0,1,1.41,2.6158,7.2848,7.2848,0,0,0,.25,1.0965,1.8766,1.8766,0,0,0,2.1616.7722c.4057-.18.79-.41,1.2006-.5774a10.4927,10.4927,0,0,1,1.068-.3055l.9088,1.4955h.8159l.4939-.7626c.1047-1.1105.2425-2.152.29-3.1977a22.2439,22.2439,0,0,1,.0539-3.23,26.5264,26.5264,0,0,0,.2054-3.5136,2.5535,2.5535,0,0,0-3.2155,1.6672l-1.6183-.5355-.71.2662c-.1254-.1027-.2424-.1571-.2961-.2487a9.6515,9.6515,0,0,0-3.034-3.2888,8.046,8.046,0,0,1-.9769-1.2286,1.9141,1.9141,0,0,0-.4766-1.6429v-.99c.8788-.5285.912-1.5969,1.3626-2.3863l.3314-2.4037,1.2322-1.2291c-.5227-1.782-.1888-3.6432-.2879-5.2661l.7024-1.4291-1.0463-3.23.1419-.0689-.88-.8813c.17-.2582.2616-.5764.4593-.67a9.7722,9.7722,0,0,0,3.3439-3.1509,1.4789,1.4789,0,0,0,.408-1.1512,5.8207,5.8207,0,0,1-.0089-.9055l.3639-.3639c1.18.1414,2.3761-.4185,3.6415-.2492.2.0268.4185-.1475.6358-.1828a24.6143,24.6143,0,0,1,3.3842-.4887,14.4019,14.4019,0,0,0,2.7659-.3366c.8709-.1911,1.7038-.0662,2.5934-.2a19.6178,19.6178,0,0,1,.957,1.7829,2.7283,2.7283,0,0,0,1.4659,1.3587,11.5747,11.5747,0,0,1,1.32.0119,10.5488,10.5488,0,0,1,1.32.3212,4.7411,4.7411,0,0,1,1.0217,1.3543c.1989.4081.6727.6822,1.0369,1.0287.46-.22.8846-.6144,1.3151.0747l.0358.7067.6626.3409h1.1228l.4365.452h1.4872l.8747,1.1459a3.7991,3.7991,0,0,1,.96.2649,7.8018,7.8018,0,0,1,1.7784,1.3721l.6557,1.5683h1.0173l1.059,1.3925v2.0761l1.208,1.15-.113.0676,1.1314,2.4812L521.7,398.6287c-.7744-.1562-1.3314.5071-2.0577.8717a14.8878,14.8878,0,0,0,1.0246,2.477l-1.5724,2.2306.5619,1.1444c-.0017,1.2389.193,2.6171-.7171,3.7737l.6388,1.8492.5526.4436v.7989c-.7024.8409-1.6588.5367-2.6472.6211l-1.1417,1.9706a2.07,2.07,0,0,1,.1058,1.7857,4.0753,4.0753,0,0,0-.3751,1.99,11.998,11.998,0,0,1-.6261,1.19,1.9044,1.9044,0,0,1-.7173.5991l-1.0709.6027a2.1185,2.1185,0,0,0,.69.8593,3.5924,3.5924,0,0,1,.9448,1.1461c.2806.4347.49.9155.8,1.51-.0845.1233-.1921.4744-.38.5245-1.6164.4315-3.19,1.0046-4.7994,1.443a13.3885,13.3885,0,0,0-2.177.5457c-.8872.4167-1.8593.48-2.7556.8864-.8294.3758-1.7228.662-2.5818,1.0043-.1372.0546-.2722.1147-.4342.1832a23.8537,23.8537,0,0,0-3.6454.4106,8.9553,8.9553,0,0,0-3.3151,1.3208h-1.1867l-.6281.6727c.1085.5179.193,1.1186.37,1.69a4.845,4.845,0,0,0,.6.9684v1.6149l-.3413.3413c-.3388-.1-.7773.183-1.1474-.1932-1.0164.0234-2.033.0423-3.0491.0749-.1445.0046-.285.1-.4306.1108-.3921.03-.8554-.09-1.1659.0781-.8885.4823-1.91.6141-2.7742,1.1294-.3227.1923-.6157.436-.9436.6177A2.3268,2.3268,0,0,1,484.7065,438.0531Z"/>
</svg>
