<svg id="Zimbabwe" xmlns="http://www.w3.org/2000/svg" width="792" height="612" viewBox="0 0 792 612">
    <defs>
        <style>.cls-1{fill:#fff;}</style>
    </defs>
    <path class="cls-1"
          d="M495.6339,490.1286a3.0508,3.0508,0,0,0-1.9224-.8334,2.2658,2.2658,0,0,1-1.1324-.4889l-2.1693.265c-.639-.7277-1.3072.5129-1.686.1137a10.0173,10.0173,0,0,0-6.6816-2.0106c-.4889-.4384-.8739-.9891-1.64-1.0043-.32-.0063-.496-.35-.4121-.8027l.4507-.5092c.0742-.4043-.07-.7517-.3851-.8051a6.0746,6.0746,0,0,1-2.3084-1.1178,3.2111,3.2111,0,0,0-2.1875-.32c-.5988-.6779-1.4542-.4724-2.3345-.5069-.4759-1.3037-.6548-2.7676-1.8762-3.6592v-1.9616a3.1373,3.1373,0,0,0,.6942-2.6527l-.5865-.5991-2.0144-.3316c-.0411-.041-.1542-.1542-.2676-.2673a4.6374,4.6374,0,0,0-.2241-1.707,1.86,1.86,0,0,0-1.0323-1.2349c-.7284-.2692-1.4464-.5669-2.3932-.9409-.2588-.234-.7229-.6212-1.1487-1.0468a11.896,11.896,0,0,1-1.3483-1.4832c-.39-.5522-1.26-.3058-1.4825-1.0373-.2362-.8789-.18-1.8809-1.046-2.66l.2062-1.5159c-.3736-.71-.85-1.6738-1.3819-2.6063a12.0056,12.0056,0,0,0-1.2475-1.8774,3.1345,3.1345,0,0,1-.6883-1.9294,2.7071,2.7071,0,0,1-1.18-2.247l.3943-.5753c.9747.6125,1.9083.2289,2.81.0537l.7224.7472.4077.9682h1.3345l.3459-.4344h1.8625l2.2517,1.4185a2.6684,2.6684,0,0,1,1.9554-.7347,1.645,1.645,0,0,0,1.6151-1.0452,5.5253,5.5253,0,0,1,.904-1.1839,19.0361,19.0361,0,0,1,1.5273-1.5257,12.34,12.34,0,0,0,2.3429-2.8757,3.347,3.347,0,0,1,1.9915-1.58,4.2641,4.2641,0,0,0,1.9415-1.1017c.5572-.6062,1.41-.6473,2.1106-.983a7.3034,7.3034,0,0,1,1.7128-.3611l1.1076-1.1177.3361-2.8212c.2672-.592,1.0579-.663,1.5747-1.1013.968-.8212,2.27-.9213,3.3078-1.5815.0285-.0181.0787,0,.1185-.0026a28.9605,28.9605,0,0,1,4.5793-.2308,10.9469,10.9469,0,0,1,1.3692.3294l.5026.6344v2.03l.3693.3693c1.778-.1946,3.59.3851,5.4427.2307a2.68,2.68,0,0,1,.3691.0216c.1609.2537.315.5136.4857.7622a1.63,1.63,0,0,0,1.0516.6343,5.7294,5.7294,0,0,1,1.7688.6808,4.45,4.45,0,0,1,1.3728,1.4989,3.2138,3.2138,0,0,1,.617.01,1.8246,1.8246,0,0,1,.4556.2078c.3285-.0783.7072-.2919.8855-.1817.26.1611.5232.1235.7561.2193a5.8865,5.8865,0,0,1,2.4567,1.5524c.3229.3991.4866.8054,1.0921.8588.3072.0272.4581.3947.3728.8575l-.42.229a2.4181,2.4181,0,0,0,.2763,1.7385,1.1225,1.1225,0,0,1,.1554.6484,8.4661,8.4661,0,0,1-.1911,2.5557,4.6641,4.6641,0,0,0,.1373,1.7419c-.1636.33-.4143.8259-.655,1.3261a2.5766,2.5766,0,0,0-.2456,1.6212c.0233.5991.0045,1.2.0045,1.8864l.43.2505c.114.58.015.99-.3876,1.0119-.5293.0293-.7248.3859-1.0479.6959l.3361,1.0218c-.4425.7346-1.5718.4566-1.9457,1.4059v1.1685l.8933.57a2.1746,2.1746,0,0,1-.406,1.7081c-.2518.39-.6079.758-.4929,1.2264a3.9274,3.9274,0,0,0,.646,1.6471c.2284.2761.5043.513.8259.8346l-.2935,1.6371a4.2935,4.2935,0,0,0-1.4654,2.267,3.1879,3.1879,0,0,1-.7432,1.1241,9.9907,9.9907,0,0,1-.7732.7846h-.7635l-1.0116,1.2093a8.4642,8.4642,0,0,1-.1556,2.1093,6.1323,6.1323,0,0,1-1.0879,1.4937l.2991,1.3032c-1.28,1.1863-2.4822,2.3893-3.7795,3.4791-1.4693,1.2345-2.928,2.4742-4.2972,3.8208A4.9394,4.9394,0,0,1,495.6339,490.1286Z"/>
</svg>
