<svg id="Bahamas" xmlns="http://www.w3.org/2000/svg" width="2754" height="1398" viewBox="0 0 2754 1398">
    <defs>
        <style>.cls-1{fill:#fff;}</style>
    </defs>
    <path class="cls-1"
          d="M724.5745,458.1489c7.965-.6125,13.1494,7.116,13.4468,7.5745,2.8643,4.4152.9171,6.3,3.9149,10.8085,2.7642,4.1572,5.0321,3.4755,9.8723,8.2553,2.2093,2.1817,5.9452,5.8711,7.617,11.66,1.4756,5.1092.5677,9.1686-.8936,15.7021-1.5433,6.9006-3.2443,7.9495-3.9574,8.2979-2.493,1.218-5.91.2241-7.8724-1.617-1.8649-1.75-1.6669-3.56-2.8936-6.8936a25.1906,25.1906,0,0,0-5.8723-9.1064c-5.5322-5.2762-10.651-1.3123-16.6809-5.7447-4.9444-3.6345-6.2273-9.6839-7.4042-16.2128-1.2168-6.75-2.33-12.9254,1.5319-17.7446A13.82,13.82,0,0,1,724.5745,458.1489Z"/>
</svg>
