<svg id="Chechnya" xmlns="http://www.w3.org/2000/svg" width="2754" height="1398" viewBox="0 0 2754 1398">
    <defs>
        <style>.cls-1{fill:none;stroke:#000;stroke-miterlimit:10;stroke-width:0.5px;fill-rule:evenodd;}</style>
    </defs>
    <polygon class="cls-1"
             points="1624.407 319.437 1624.64 319.525 1624.568 319.364 1624.728 319.292 1624.889 319.219 1625.122 319.307 1625.428 319.556 1626.055 319.66 1626.127 319.821 1625.967 319.893 1626.039 320.054 1625.878 320.126 1626.023 320.448 1626.257 320.536 1626.184 320.375 1626.345 320.303 1626.272 320.142 1626.505 320.23 1626.899 320.246 1627.06 320.173 1627.148 319.94 1627.076 319.78 1627.164 319.546 1627.485 319.401 1627.646 319.329 1627.573 319.168 1627.734 319.096 1628.128 319.111 1628.2 319.272 1628.273 319.433 1628.257 319.827 1628.33 319.987 1628.563 320.075 1628.723 320.003 1628.884 319.93 1628.957 320.091 1629.19 320.179 1629.102 320.412 1629.335 320.501 1629.495 320.428 1629.568 320.589 1629.407 320.661 1629.246 320.734 1629.086 320.806 1628.925 320.879 1628.749 321.345 1628.588 321.417 1628.427 321.49 1628.5 321.651 1628.323 322.117 1628.235 322.35 1628.308 322.511 1628.38 322.671 1628.131 322.977 1627.971 323.049 1628.043 323.21 1627.722 323.355 1627.794 323.516 1627.634 323.588 1627.706 323.749 1627.867 323.676 1627.939 323.837 1628.012 323.998 1627.851 324.07 1628.084 324.158 1628.157 324.319 1628.229 324.48 1628.302 324.64 1628.125 325.107 1628.358 325.195 1628.431 325.355 1628.503 325.516 1628.343 325.589 1628.254 325.822 1628.094 325.894 1628.166 326.055 1628.399 326.143 1628.472 326.304 1628.793 326.159 1628.954 326.086 1629.026 326.247 1628.866 326.319 1628.938 326.48 1628.778 326.553 1628.617 326.625 1628.689 326.786 1628.762 326.946 1628.834 327.107 1628.995 327.035 1629.067 327.195 1628.907 327.268 1628.746 327.34 1628.585 327.413 1628.497 327.646 1628.337 327.718 1628.176 327.791 1627.943 327.703 1627.87 327.542 1627.71 327.614 1627.782 327.775 1627.621 327.848 1627.461 327.92 1627.388 327.759 1627.316 327.599 1627.083 327.511 1627.155 327.671 1626.994 327.744 1626.906 327.977 1626.745 328.049 1626.818 328.21 1626.89 328.371 1626.963 328.531 1627.035 328.692 1627.108 328.853 1626.947 328.925 1627.02 329.086 1626.859 329.158 1626.626 329.07 1626.465 329.143 1626.304 329.215 1626.377 329.376 1626.289 329.609 1626.201 329.842 1626.273 330.003 1626.112 330.075 1626.04 329.915 1625.967 329.754 1625.807 329.826 1625.879 329.987 1625.952 330.148 1625.791 330.22 1625.381 330.598 1625.293 330.831 1625.133 330.904 1624.972 330.976 1624.811 331.049 1624.506 330.8 1624.039 330.624 1623.573 330.447 1623.252 330.592 1622.858 330.577 1622.697 330.649 1622.464 330.561 1622.391 330.4 1622.319 330.24 1622.246 330.079 1621.635 329.581 1621.49 329.26 1621.33 329.332 1621.257 329.172 1621.169 329.405 1621.096 329.244 1621.594 328.633 1621.522 328.472 1621.682 328.4 1621.61 328.239 1621.377 328.151 1621.465 327.918 1621.392 327.757 1621.408 327.363 1621.569 327.291 1621.496 327.13 1621.336 327.203 1621.263 327.042 1621.424 326.97 1621.351 326.809 1621.279 326.648 1621.367 326.415 1621.455 326.182 1621.383 326.021 1621.544 325.949 1621.471 325.788 1621.399 325.628 1621.326 325.467 1621.254 325.306 1621.181 325.146 1621.052 324.431 1620.979 324.27 1620.907 324.109 1620.995 323.876 1620.85 323.555 1621.011 323.482 1620.938 323.322 1620.866 323.161 1620.255 322.663 1620.022 322.575 1619.861 322.648 1619.788 322.487 1619.716 322.326 1619.659 321.772 1619.892 321.86 1620.214 321.715 1620.374 321.643 1620.463 321.409 1620.623 321.337 1620.478 321.016 1620.639 320.943 1620.8 320.871 1620.872 321.031 1620.8 320.871 1620.96 320.798 1620.904 320.244 1620.831 320.083 1620.759 319.922 1620.847 319.689 1620.935 319.456 1621.562 319.56 1621.634 319.721 1621.546 319.954 1621.619 320.114 1621.779 320.042 1622.8 320.161 1622.961 320.089 1622.888 319.928 1622.832 319.374 1622.992 319.301 1622.92 319.141 1623.241 318.996 1623.474 319.084 1623.547 319.245 1624.101 319.188 1624.174 319.348 1624.246 319.509 1624.407 319.437"/>
</svg>
