<svg id="Tibetan_Plateau" data-name="Tibetan Plateau" xmlns="http://www.w3.org/2000/svg" width="2754" height="1398"
     viewBox="0 0 2754 1398">
    <defs>
        <style>.cls-1{fill:#fff;stroke:#6e6e6e;stroke-width:0.5px;fill-rule:evenodd;}</style>
    </defs>
    <path class="cls-1"
          d="M1888.83,391.6556c6.383-6.6471,24.6963-3.4014,27.412-4.0823s5.0909-4.7659,6.4526-6.468,7.0048-3.97,11.8375-4.6585,16.4166,1.6532,20.3826,4.3023c2.143,1.4314-1.8023,13.2652,1.6032,17.1445,4.2339,4.8231,25.4887,9.5106,28.6169,10.34a60.2266,60.2266,0,0,0,15.2092,2.6383c2.7759.0768,13.3583-5.6607,15.5073-5.0638,4.5957,1.2766,5.3617,8.9362,5.8831,13.1915.4445,3.6273,1.4782,8.6834,0,14.4681-1.8173,7.1113-3.8328,6.6744-6.9609,8.17-2.4761,1.184-4.874,2.2857-4.874,2.2857-.71-.51-2.81,1.07-3.4,1.479-.6.4209-.3,1.354-.88,1.747-.51.352-1.45-.1-1.9-.2851-.17-.07-2.31-1.381-1.43-.3239a13.2661,13.2661,0,0,0-2.38-1.3681c-.82-.219-1.45.463-2.24.932-1.15.674-1.76,1.938-2.6,2.913-1.06,1.237-2.09,1.2081-3.58,1.468-1.64.287-1,1.398-1.72,2.413-.66.932-2.27,1.351-2.56,2.457-.37,1.444-.39,2.501-2.34,2.571-1.26.04-2.18.82-3.41.655-.46-.06-1.21.111-1.5-.05-.28-.162-.1-.66-.12-1.1579,0-.8871-2.28-1.396-3.05-1.38-1.19.02-.81,1.43-2.54.2689-2.12-.07-3.28-.1049-4.01-.4719-1.13-.568,0-1.42-1.15-1.757a4.3445,4.3445,0,0,0-3.92.64c-1.33.887-2.13,2.97-2.82,4.399-.52,1.086-1.85,2.129-1.94,3.32-2.72-2.093-.72-3.726-1.26-5.265-.84-2.444-3.52-.559-5.39-.432a5.42,5.42,0,0,0,.14.792c-1.62-.471-3.92.1339-5.64.1a8.5818,8.5818,0,0,1-3.99-1.358c-.51-.254-1.36-.7981-1.96-.538-.54.231-.19,1.092-.76,1.196a2.95,2.95,0,0,1-2.63-1.99c-.2.17-.25,3.128-.98,1.9-.75-1.25-2.36-1.987-2.84-3.412-.25,1.163-4.16.677-4.44-.35-.15-.549.41-1.516,0-1.97-.46-.47-1.84.586-2.64.109-1.26-.759-4.11-1.713-4.61-3.198-.62-1.828-2.5-3.829-4.43-1.906-.69.693-2.92-2.281-3.28-2.709-.98-1.178-2.93-1.425-4.39-2.314a42.6569,42.6569,0,0,1-6.26-4.674c-.74-.669-1.77-.57-2.67-.859-.96-.3121-.97.918-2.02.519.4,2.62-1.08,2.951-2.6,1.276a9.86,9.86,0,0,0-4.99-2.717c-.4-.11-1.34-.228-1.63-.574-.44-.5351.38-1.3971-.58-1.7771a4.3437,4.3437,0,0,1-1.71-.95c-1.08-.9909-1.79-.278-2.94-.6179-1.74-.5121-2.45-2.3871-3.61-3.53-1.17-1.154-2.44,2.119-3.18-.185-.26-.811.1-1.633-.43-2.391a5.5184,5.5184,0,0,1-.83-2.28c-.16-.9521-1.11-1.5321-1.77-2.1191-.97-.8679-.75-2.2009-1.57-3.143,1.96-1.4619,2.34-.396,3.47.9551.56.6659,1.4.7829,1.85.04.56-.9329,1.52-.859,2.12-1.67.73-1-.26-1.977-.84-2.6691-.47-.55-.23-2.059-.8-2.231-2.35-.708-2.2-.544-3.87-2.239-1.89-1.912-2.12-5.35-2.05-5.82,0-.235,2.53-.973.42-1.652Z"/>
</svg>
