<svg id="Australia" xmlns="http://www.w3.org/2000/svg" width="792" height="612" viewBox="0 0 792 612">
    <defs>
        <style>.cls-1{fill:#fff;}</style>
    </defs>
    <path class="cls-1"
          d="M321.6656,419.0985v2.9826a21.7483,21.7483,0,0,1-4.5734.8325c-4.3952-.1085-6.7751,2.6188-5.8253,6.0408-1.1044,1.3354-1.7526,2.734-2.6175,3.78a2.3745,2.3745,0,0,0-.4074,2.3081l1.254,4.1723a.5283.5283,0,0,1-.6037.6632l-1.9774-1.0267c-1.7055-1.1435-3.6713-.9074-4.2766,1.101-.4515,1.498-1.3395,2.51-1.9149,2.2341-.71-.34.2482-3.185.3156-4.1856a2.3613,2.3613,0,0,0-.7305-1.8942c-1.4121-1.7012-1.7695-1.8272-3.1142-3.4341a1.253,1.253,0,0,0-1.4635-.3407c-1.3.5724-2.261.7956-3.6716,1.5158-.2558,1.0337-.5622,2.8323-2.3959,2.5819a1.3484,1.3484,0,0,0-1.3414.7012,22.2069,22.2069,0,0,0-2.2155,3.9865,14.6283,14.6283,0,0,0-.4255,3.3724c-.01.8154.1881,1.5916.0982,2.0491a1.2175,1.2175,0,0,1-1.6532.9355c-.5431-.1945-1.4474-1.8516-2.3387-2.24-.8233.8884.4974,2.2587.4974,3.9147,0,.4944-.0173,2.4663-.0506,3.0215-.05.8362-.8736,1.3382-1.2709.6008l-1.3968-3.59a.7609.7609,0,0,0-.0984-.1778l-.5374-.7225a.91.91,0,0,0-1.1885-.2425,4.2371,4.2371,0,0,0-1.8992,2.89c-.013,1.8595.4976,2.54.7742,5.8383a14.068,14.068,0,0,0-1.9574,2.1489c-1.0107,1.7373-.9362,4.0425-2.5107,5.3617-2.1046,1.7633-4.5319,2.4042-8.6062,3.1765-2.7357.8074-5.8431,3.7925-10.1062,3.2564a2.4083,2.4083,0,0,0-1.9147.6544c-1.0086.9284-2.4039,2.5474-4.0963,4.0191-.7446.6475-1.773.9935-2.4681,1.7021a36.3174,36.3174,0,0,0-2.2553,3.1489,6.4229,6.4229,0,0,0-1.5146,3.6758c.0269.59.3082,1.2247.2964,1.7439-.0356,1.5721-.8053,2.6949-.6541,4.0059a18.2741,18.2741,0,0,0,1.4255,4.4468c1.17,3.1276,3.0851,3.3191,3.4894,6.234a3.2874,3.2874,0,0,1-.35,1.1586l-.7038,1.2312-.8582,1.0016a99.6279,99.6279,0,0,1,8.6266,18.16c1.0145,2.6406,1.9263,5.2036,3.6473,7.3426a10.3319,10.3319,0,0,1,2.2979,6.7341c-.02,1.4723.5425,3.0638.5344,4.6338-.003.5766-.5571,1.0428-.8457,1.3335-.7929.799-.2353,2.1658.3361,3.1357a7.2992,7.2992,0,0,0,2.0431,1.9214c5.3763,2.968,8.8867,1.4228,14.7735-1.4864,3.1431-3.0708,6.2264-2.8962,9.6836-2.9435,2.45-.0336,4.9049.2732,7.2.418,2.7433-6.5514,7.515-8.86,13.9113-9.0014a17.1062,17.1062,0,0,0,6.6637-2.0577c4.3638-2.0992,8.7157-2.4948,13.0207-.2533,2.864,1.4911,6.5892.9174,8.8342,3.8131a10.322,10.322,0,0,1,1.6538,2.2338c3.0385,1.9474,4.8861,6.01,5.6029,9.5139.4224.3245,1.0925-.05,1.45-.3141,2.6489-4.2766,3.2218-3.5167,5.7446-6.9894l2.3067-3.25c2.4455,4.2571-1.009,7.4066-.717,11.5637.0318.4524-1.4073,1.008-2.1641,1.5157l.1591.7633c1.173,0,1.5962-.5718,2.33-1.242,0,0,.2234-4.5319,1.9788-4.7553s2.3617,4.4681,1.6276,7.6276c1.451-.3181,2.32-.521,4.2128-.9361.7661,2.6363,1.3542,7.0841,2.5164,9.695.8232,1.8493,2.4226,1.8306,3.8907,3.294a5.656,5.656,0,0,0,3.7108,1.47l8.4479,3.0821c1.4168-1.316,3.1859-2.9592,4.4767-4.1583l6.543,4.5782,1.0557-.7036c3.3737-3.4658,6.3116-5.0855,11.1035-5.2788.2436-.01.659-1.0421.8936-1.2766a102.4449,102.4449,0,0,1,4.5957-16.4681c1.1269-3.0071,3.1935-5.6626,4.838-8.4755a47.9408,47.9408,0,0,0,2.311-4.5458c1.3357-5.1475,2.0572-7.4752,3.3473-12.6345.7708-3.0827,1.2888-6.1431-.3134-9.1664-.1684-.3177.1962-.9177.3135-1.3867l-.352-.7035A52.6084,52.6084,0,0,1,415.121,502.2a42.9842,42.9842,0,0,0-.2061-4.53l-.42-1.215c-1.76-2.1106-3.157-4.7832-5.3619-6.2024-3.2275-4.8711-2.6478.7324-3.5895-9.3979a12.5529,12.5529,0,0,0-2.5558-.0171,3.0524,3.0524,0,0,1-2.9933-1.6666c-.6179-1.32-.0337-2.1688-.3989-3.4265-.7-2.41-2.1435-5.1289-2.8969-7.1424-2.4726-2.1038-4.2736-4.8148-6.5883-5.3647-5.0975-1.2112-5.0758-4.8507-5.6376-8.6348-.2681-1.8061.044-3.0909-.9623-4.6454-.6752-1.0431-2.0115-2.293-2.234-3.1276-.6636-2.4892-.7527-6.1883-1.4043-8.6809.1883-.0336-.6492-1.4256-1.8146-2.76a2.08,2.08,0,0,0-2.6719-.3651h0a1.2047,1.2047,0,0,1-1.8209-.7659c-.6636-3.144-1.2439-6.2117-2.1055-9.1983-.5638-1.9541-1.7109-2.3885-2.4381-4.4641-.4374-1.2482-.4116-4.0924-.891-5.399a.6218.6218,0,0,0-1.1474-.0212c-1.2535,2.8545-1.6363,4.9776-2.8127,7.6543-1.0445,9.6081,1.257,20.6769-3.5534,29.9988a2.0363,2.0363,0,0,1-1.4168,1.0451l-1.5317.3062a1.9775,1.9775,0,0,1-1.71-.5047L351.284,449.29l-11.2709-6.7621c.5717-2.1567-2.4478-2.44-3.6949-3.8576.5432-3.1747,1.0438-6.1,1.6137-9.4306,2.7453-.5677.7508-2.6472,1.8334-5.0012-1.1669.0673-2.0407-.2428-2.0407.4556l.7533-1.8157c-1.4076-2.177-2.8152-.9773-4.1316-.0288L318.42,417.602Z"/>
</svg>
