<svg id="Cambodia" xmlns="http://www.w3.org/2000/svg" width="792" height="612" viewBox="0 0 792 612">
    <defs>
        <style>.cls-1{fill:#fff;}</style>
    </defs>
    <path class="cls-1"
          d="M178.5065,262.1592a.6153.6153,0,0,0-.6368-.5881,34.0839,34.0839,0,0,0-4.742.2161c-.508.301-.1915,2.2979-.9256,2.4894-2.7606,1.1808-5.1384-.5079-6.9688-1.8344-2.3824.0267-6.5586.1365-8.3822.1748-1.7471.9538-2.527,1.1308-3.5426,2.6809a7.8962,7.8962,0,0,0-.6705,5.9681c.35,1.1646,1.3839,1.4665,1.9471,2.7446.6268,1.4226.4029,4.0038,1.1809,5.33a19.4762,19.4762,0,0,0,2.6806,3.674,5.2747,5.2747,0,0,0,3.3194,1.092c3.8028-.077,8.67-3.0925,8.1276-6.0426-.1347-.7327.4326-1.0194,1.1277-1.0638,1.8454-.1179,1.7607-.5407,3.16-1.3617.7077-.4153,2.3117-1.1665,3.5988-1.8918a1.5391,1.5391,0,0,0,.7807-1.1564,49.0905,49.0905,0,0,0,.0727-7.388C178.6227,264.4934,178.55,263.0069,178.5065,262.1592Z"/>
</svg>
