<svg id="China" xmlns="http://www.w3.org/2000/svg" width="792" height="612" viewBox="0 0 792 612">
    <defs>
        <style>.cls-1{fill:#fff;}</style>
    </defs>
    <path class="cls-1"
          d="M138.73,180.2006c0,2.3488,0,4.6408,0,6.9328a9.5,9.5,0,0,1-3.3364,7.3589,7.5508,7.5508,0,0,0-2.5889,6.7941h4.82c.0476.4709.1068.7821.1058,1.0931a6.7713,6.7713,0,0,0,2.1414,5.31,2.2544,2.2544,0,0,1,.8205,2.4228,12.84,12.84,0,0,1-.9171,2.4617c1.3653.7169,3.2444.75,3.1615,2.9151-.0057.1492.2676.3.3928.4645,1.1092,1.4534,2.1378.2164,3.0428-.2144,1.93-.9182,2.7739-.4791,2.9564,1.7364a4.65,4.65,0,0,0,.4079,1.1408l.5027-.1141c0-1.803-.0139-3.6062.0037-5.409.0193-1.9671.53-2.4179,2.5155-2.3827.6195.0109,1.24-.1248,1.8623-.1644,1.1522-.0733,2.3053-.1422,3.4591-.1756.3384-.01.7034.214,1.0173.1474,2.1668-.46,4.34-.9089,6.4762-1.4879a9.75,9.75,0,0,0,3.06-1.3168,3.1836,3.1836,0,0,1,3.9385-.011,7.0534,7.0534,0,0,0,3.34,1.2281c1.4452.071,2.4964.2058,2.5707,1.91a2.7156,2.7156,0,0,1-.04.8877c-.2514.8248.444,3.6081,1.2109,3.963a11.1047,11.1047,0,0,0,7.4426.5786,7.83,7.83,0,0,1,2.3847-.1645,24.06,24.06,0,0,1,3.07.5083c.7777.163,2.1368.3087,2.1944.6423a10.99,10.99,0,0,1-.2551,3.3173c-.038.2648-.4956.5782-.4314.7313.4313,1.0282.9513,2.0192,1.5847,3.3126a20.0134,20.0134,0,0,1,.0555-3.8824,4.844,4.844,0,0,1,1.4648-2.9081,11.7157,11.7157,0,0,1,4.0794-1.2261c3.0167-.5988,6.0531-1.0977,8.8543-1.5971a23.8049,23.8049,0,0,0,1.1992-3.3164c.2845-1.49.5773-1.6842,1.9247-.9149a2.0769,2.0769,0,0,0,.7452.0917c.105-.6478.1959-1.2083.3652-2.2527.813.5149,1.3837.9018,1.9786,1.2472.8548.4963,1.5991,1.3556,2.7471.3357a4.3833,4.3833,0,0,1,2.3305-1.04,34.6025,34.6025,0,0,1,5.587-.1144,3.2556,3.2556,0,0,0,3.0318-1.6478c1.3433-1.9558,2.6915-3.7406,4.9145-3.2888a27.7005,27.7005,0,0,0,2.0918-1.9854c.5008-.5931,1.2018-1.2916,1.2214-1.9612.0449-1.5264.85-1.7276,2.0583-1.7809.5-.0221,1.2932-.253,1.428-.5956.817-2.0768,2.5991-3.3373,3.9978-4.8994a7.1985,7.1985,0,0,0,2.0635-6.13c-.0811-.5794.5823-1.819.7959-1.7952,1.6558.1853,2.3741-.72,3.0695-1.9979.9788-1.7992,2.1027-3.5236,3.2366-5.2321a5.4317,5.4317,0,0,1,1.6937-1.8436c1.8507-.9961,2.1986-2.459,2.3679-4.4465.13-1.5228-.9236-3.7329,1.605-4.5215-1.8238-1.534-1.8242-1.553-3.9034-1.5148-.9244.0171-1.781-.0146-2.2805-.9692-.208-.3974-.4542-.7747-.683-1.1612a5.9815,5.9815,0,0,1,1.2543-.6284c.5607-.1356,1.2724.0788,1.723-.1884,1.6984-1.0073,3.3174-2.1488,4.8672-3.1745a24.6309,24.6309,0,0,0-2.8444-3.1114,11.0668,11.0668,0,0,0-3.0663-1.3578c-.2192-.08-.5682.1953-.78.2768a33.98,33.98,0,0,1,1.8957,3.2855c.1012.2242-.46.8593-.8348,1.1536a3.707,3.707,0,0,1-1.26.4564c-.5618.1619-1.2865.5744-1.66.3687a2.0183,2.0183,0,0,1-.94-1.58c.25-1.9019.7212-3.7755,1.1409-5.6527a.65.65,0,0,1,.464-.3763c1.3714-.1435,2.7455-.2949,4.1221-.34a5.84,5.84,0,0,1,1.548.379l.4-.4053c-.41-.7772-.798-1.5669-1.2412-2.3245-.1382-.2364-.5753-.3572-.6184-.5806-.39-2.0241-.6267-4.0827-1.11-6.0822a7.2531,7.2531,0,0,0-1.4931-3.3886,18.06,18.06,0,0,0-4.1228-2.639,1.8829,1.8829,0,0,1-.8939-2.64c.7489-1.05,1.5975-2.0278,2.3929-3.0447.5336-.6823,1.03-1.3942,1.5792-2.0635.6391-.779,1.3174-1.5259,1.9786-2.2867l-.32-.2178c.97-1.5056,2.3464.0249,3.494-.4927a7.1952,7.1952,0,0,1,.2256-1.7718,1.8725,1.8725,0,0,1,.97-1.0527c2.5479-.7734,5.1252-1.45,7.7536-2.175v-1.7792a13.59,13.59,0,0,1-2.2438.691,4.48,4.48,0,0,1-2.1533-.1481c-.8652-.352-1.5466-1.2212-2.4207-1.4722-1.566-.45-2.7556.3985-3.6413,1.6631-1.651,2.3574-3.9182,2.4193-6.2059,1.3744a3.28,3.28,0,0,1-1.7378-3.1948,1.1115,1.1115,0,0,0-.4307-.77c-.7716-.5782-1.5924-1.09-2.3893-1.6355a4.0955,4.0955,0,0,1-1.8836-4.74c.1688-.6273.8134-1.134.9538-1.76.3086-1.3766,1.2209-1.5906,2.3858-1.5547a8.6227,8.6227,0,0,0,2.554-.0382c.8948-.256,2.2973-.7611,2.4118-1.3614.4367-2.29,2.5452-2.5129,3.9333-3.1828a15.1212,15.1212,0,0,0,5.2522-4.081c.8367-1.0076,1.7124-2.1538,3.3765-1.9578.4584.054.9671-.4184,1.4685-.6073.7471-.2814,1.4854-.8924,1.9941.4627a23.31,23.31,0,0,0,1.6288,2.4162,1.5791,1.5791,0,0,1,0,1.4267c-1.3578,1.3811-2.8391,2.64-4.2465,3.9739-.2106.2-.4359.6621-.3438.8538a25.6956,25.6956,0,0,0,1.31,2.2118c2.6488-2.2985,5.4655-3.902,9.1651-3.948a5.7462,5.7462,0,0,0,4.0608-2.1756c1.0744-1.3077,2.0823-2.8023,4.128-2.89a4.5361,4.5361,0,0,0,2.4534-.8467,53.3254,53.3254,0,0,0,3.9782-3.6283c1.1057-1.0531,3.6879-1.84,4.3677-1.034,1.0424,1.2355,2.1677.6057,3.3511.7146a7.1116,7.1116,0,0,1,.3131-1.646c.4979-1.0773.842-2.228,2.5333-2.13,3.3214.1924,5.1923-2.1262,6.7909-4.5424.9039-1.366,2.41-1.6686,3.3792-.43.2951-.2521.6164-.4975.9043-.7772,1.3584-1.32,3.0608-2.4381,2.7875-4.7286a.7677.7677,0,0,1,.147-.5971c.82-.6439.7361-1.1189.0427-1.9157-.91-1.0458-.4724-3.641.4222-4.1776a22.7594,22.7594,0,0,0,3.84-2.5757c.8812-.8149,1.25-.3549,2.0967-.05a5.0622,5.0622,0,0,0,3.7023.0615c1.7966-.9971,2.64-3.0135,3.425-4.896.5688-1.3631.93-2.8182,1.5594-4.1491.64-1.3535,1.2237-2.95,2.3233-3.8169a4.265,4.265,0,0,0,1.69-4.31,17.3717,17.3717,0,0,0-3.0124.4588c-1.4626.4912-2.848,1.208-4.281,1.7929a20.9168,20.9168,0,0,1-4.09,1.5212,20.992,20.992,0,0,1-4.9091.0966c-.4145-.0259-.9937-.6589-1.144-1.1265-.7669-2.3867-1.418-4.8106-2.11-7.2214a7.5168,7.5168,0,0,1-2.17-.938,13.3046,13.3046,0,0,0-3.1986-1.28c-2.022-.3666-4.0874-.5076-6.1392-.692-2.1721-.1952-2.9619-.918-2.8945-3.0526.133-4.2093-.9673-8.2033-1.9888-12.2155-.0451-.1773-.2639-.3041-.377-.4712-1.0207-1.5082-2.0357-3.02-3.1408-4.6623a18.681,18.681,0,0,1-2.6633-.1979c-1.1929-.2422-2.6878-.33-3.4463-1.09a5.1247,5.1247,0,0,0-4.6918-1.37c-3.3531.44-6.6823,1.0605-10.0229,1.5967-1.1753.1886-2.5557,1.7405-1.9973,2.4492.824,1.0457.5853,1.7438.29,2.9177-.4536,1.8049-1.7273,2.5306-2.9645,3.4565-.6286.47-1.47.7959-1.8663,1.4115a36.4005,36.4005,0,0,0-3.6676,6.4078c-.83,2.1615-2.6637,2.1695-4.2377,2.8672-.3978.1763-.7678.417-1.1692.5829-1.1374.47-2.2926,1.288-3.4253,1.2632-1.0253-.0225-1.9766-1.19-3.0584-1.46a7.0234,7.0234,0,0,0-3.78-.1119c-.8583.299-1.4734,1.5287-2.0076,2.4537a11.4248,11.4248,0,0,0-.8924,2.5592c-.1158.4.0631,1.0193-.1706,1.2307-1.6267,1.4721-.9959,3.1859-.7935,4.9909,3.4791-.0989,6.98,1.0581,9.8487-1.9047a1.9045,1.9045,0,0,1,2.76.48,41.59,41.59,0,0,0,2.9292,3.3707,6.3708,6.3708,0,0,1,.7755,1.3494,7.3642,7.3642,0,0,1,.71,1.7168c.11.5612.1882,1.5378-.0814,1.69a7.9118,7.9118,0,0,1-3.0961,1.1054,24.5546,24.5546,0,0,1-6.4026.0155c-3.4683-.6449-5.32,1.703-7.5352,3.45-1.6,1.2621-3.0271,3.0309-5.182,3.03-1.9451,0-3.0739.96-4.3947,2.0925-1.1485.9851-2.7959,1.38-3.9728,2.3424-1.3685,1.1185-2.49.8445-3.7976.0789a16.8544,16.8544,0,0,0-2.7641-1.2951,1.3518,1.3518,0,0,0-1.0719.3659c-.4866.4386-.77,1.1518-1.3041,1.48-1.6311,1-.9838,2.5515-.552,3.5616.8652,2.0241.8943,2.13-1.1331,3.04A16.1363,16.1363,0,0,0,217.3,84.5628c-2.6614,2.2723-5.34,4.4167-9.0976,4.3918a1.4094,1.4094,0,0,0-.8967.2141c-1.2652,1.1919-2.437,1.0227-3.7614.0336a2.6639,2.6639,0,0,0-1.8206-.1792c-1.3642.23-2.7077.5881-4.0549.9135-1.4769.3566-2.9491.7322-4.4207,1.11-.0851.0218-.1337.1621-.22.2063-1.1557.5913-2.2809,1.2612-3.4821,1.74-1.608.6407-3.512.336-4.9782,1.5462-.189.156-.7552-.0835-1.1186-.2164a14.2051,14.2051,0,0,0-1.2906-.5977c-.9727-.244-1.9788-.3554-2.9512-.6005a31.4044,31.4044,0,0,1-3.9117-1.14,17.61,17.61,0,0,1-3.6149-1.8645c-2.1592-1.512-4.3192-2.9535-7.0888-2.8636-5.11.1658-10.2174.4532-15.3284.53-1.5462.0232-3.78.0648-4.5168-.8521-1.8219-2.266-3.6682-4.7248-4.1114-7.8121a1.1353,1.1353,0,0,0-.3944-.7583,41.9957,41.9957,0,0,0-3.9019-2.08c-1.5929-.7009-3.4755-.9446-4.8269-1.9384a2.9035,2.9035,0,0,0-3.8472-.1734c-.2994.1951-.9178.045-1.3308-.106-1.25-.4572-2.4556-1.0371-3.7084-1.4856-1.2614-.4515-2.5586-.8028-3.8858-1.2122a17.5822,17.5822,0,0,1,.6929-1.98c1.1615-2.2869,2.1072-4.6146,1.8522-7.2652a7.4927,7.4927,0,0,1-.003-2.082c.3759-1.9779-1.2455-2.713-2.3132-3.7441-.2439-.2355-1.0693-.1062-1.485.1183-1.2991.7016-2.3219.2562-3.0047-1.0682-.942-1.8272-1.6836-3.9808-4.2861-4.1609-.1568-.0109-.2885-.361-.447-.3743a2.33,2.33,0,0,0-1.196.0847c-1.2885.6711-2.46,1.79-3.8119,2.0644a6.4929,6.4929,0,0,0-4.6428,4.5032c-.3246,1.3565-.6063,2.9921-2.1486,3.7637-1.0644.5326-2.1252,1.0734-3.2049,1.5731a.6689.6689,0,0,1-.6072-.1139c-1.0939-1.1567-2.4287-1.01-3.8039-.7935a1.0374,1.0374,0,0,1-.6912-.2759,3.7022,3.7022,0,0,0-5.1029.6095c-1.3572,2.0282-2.668,4.0876-3.9906,6.1389-.308.4778-.7982.9608-.8366,1.4692-.1971,2.61-.161,2.62-2.81,2.6961a11.2924,11.2924,0,0,0-1.4426.032c-2.0255.3233-4.0464.6758-6.0639,1.0451-.16.0294-.2936.259-.4207.4112-1.4117,1.6916-1.1751,3.9121-1.8611,5.8375a.3921.3921,0,0,0,.0595.3079c1.581,2.1911.3651,3.8449-1.0171,5.4969a15.9639,15.9639,0,0,0-3.05,4.6849c-.4187,1.1249-1.9193,1.9908-3.1154,2.6369-.9675.5227-2.2616.4042-3.3107.8217a12.876,12.876,0,0,0-3.6267,1.98c-1.3816,1.1824-2.6344,2.1591-4.6332,2.1432a19.0063,19.0063,0,0,0-4.5.9869,1.4614,1.4614,0,0,0-.6709.4,9.3241,9.3241,0,0,1-3.02,2.4906,5.13,5.13,0,0,1-5.0955-.09,3.2942,3.2942,0,0,0-2.7023.03c-1.99.9633-3.8447,2.2064-5.9009,3.4256l-2.6532,6.1986c.5717.098,1.6559.5825,1.9573.2819,1.0965-1.0937,1.4622.3846,2.1635.5073.3925.0687.88,1.0618.8776,1.6366a42.435,42.435,0,0,1-.4169,4.5165c-.0527.4712-.0044,1.1652-.2833,1.3651-1.7609,1.2621-.0235,2.047.5468,2.211,2.6719.7689,3.1609,2.5758,2.8192,4.9593a1.8215,1.8215,0,0,0,.0416.5683c.8429.4907,1.5363.8883,2.2238,1.2959a13.2162,13.2162,0,0,0,2.977,1.7,5.2136,5.2136,0,0,0,3.0987-.1963c1.4083-.5643,2.58-1.8149,4.0077-2.2108,1.75-.485,3.7017-.7248,5.35.6226,1.0291.8412,2.07,1.6676,3.4324,2.763a8.59,8.59,0,0,1-.9885,1.7392c-1.211,1.4291-1.6053,3.514-3.52,4.3876-.1689.0771-.1492.4972-.3045.6859-1.0135,1.2315-1.6658,2.8317-3.6041,3.0891a1.87,1.87,0,0,0-1.0709,1.48c.1457,1.7593.5548,3.4961.8464,5.2445a1.8438,1.8438,0,0,1-.0127.8673c-.809,2.3255-2.9111,2.6958-4.875,3.214v6.1563c1.961.48,4.0764-.4794,4.8548,2.0889.153.5048.9573.8645,1.5228,1.1809,1.2383.6927,2.5161,1.3147,3.79,1.972.6406-.9859,1.3831-1.2789,2.3456-.2234a1.22,1.22,0,0,0,.9771.3388c2.3237-.5279,3.6993,1.3,5.4209,2.1974a3.98,3.98,0,0,1,1.3838,1.8156c.5684,1.1732,1.163,2.11,2.7113,1.8324a13.3929,13.3929,0,0,1,2.1845-.0194v3.726h4.6259l.2114,2.58c.8539.1629,1.7245.071,2.1647.4628,1.1613,1.0336,2.4214.8086,3.7381.725a2.8162,2.8162,0,0,1,1.6678.2642c1.5929,1.1119,4.5785,1.0961,6.3723.2683a7.8676,7.8676,0,0,1,3.704-.3936c.321.0221.5527,1.1647.8567,1.7771.0536.1081.2618.1395.07.0458,1.6447-1.2138,3.085-2.37,4.6219-3.3781a3.2659,3.2659,0,0,1,3.6194.6185,2.4887,2.4887,0,0,0,1.2933.7414c1.5939.28,3.3933-.584,4.7784.9775.2068.2331.9673.1454,1.3893-.0131a26.188,26.188,0,0,0,4.8871-2.0567c2.474-1.5686,4.7479-3.4505,7.13-5.1668,1.0073-.7258,1.7783-1.7191,3.4358-1.2869a6.4575,6.4575,0,0,0,4.2963-.3c1.69-.9,3.1892-1.0262,4.2334.617a6.487,6.487,0,0,1,.9954,2.2989,5.8135,5.8135,0,0,1-.3433,1.9777c2.16.4995,4.0982.9432,6.0336,1.4012a4.1277,4.1277,0,0,1,.7166.2911,3.65,3.65,0,0,1,2.2445,4.2719Z"/>
</svg>
