<svg id="French_Polynesia" data-name="French Polynesia" xmlns="http://www.w3.org/2000/svg" width="792" height="612"
     viewBox="0 0 792 612">
    <defs>
        <style>.cls-1{fill:#fff;}</style>
    </defs>
    <path class="cls-1"
          d="M732.1985,397.6862c15.17,5.2556,21.81,20.0549,24.9717,27.101,10.8476,24.1755,10.502,61.8154-12.9361,82.7235-13.6164,12.1464-29.6987,13.8934-45.9575,15.66-14.8588,1.6141-34.1042,3.7046-51.0638-8.17-13.5073-9.4576-19.0678-23.2244-21.7873-29.9575-5.5763-13.8062-5.5409-25.4878-5.4468-32.6808.1546-11.8143.2662-20.3388,6.4681-27.5745,6.7775-7.9071,16.6-9.3421,18.0426-9.5319,14.8263-1.95,19.4292-2.3345,30.9787-4.4255,11.91-2.1563,10.7628-3.1819,26.8936-10.8936C704.1951,399.06,717.9188,392.739,732.1985,397.6862Z"/>
</svg>
