<svg id="Great_Barrier_Reef" data-name="Great Barrier Reef" xmlns="http://www.w3.org/2000/svg" width="792" height="612"
     viewBox="0 0 792 612">
    <defs>
        <style>.cls-1{fill:#fff;}</style>
    </defs>
    <path class="cls-1"
          d="M416.0707,497.4334c-1.76-2.1106-3.157-4.7833-5.3619-6.2025-3.4589-2.2263-4.8271-5.082-4.59-9.3979l-4.477-.5791c-1.4589-3.8989-3.0313-8.1014-4.3679-11.6734-2.4726-2.1039-4.2735-4.8148-6.5883-5.3648-5.0975-1.2111-5.0758-4.8507-5.6376-8.6348-.2681-1.806-1.191-3.5055-1.689-5.289-.9249-3.313-1.7558-6.6521-2.6258-9.98l.7539-.1348-4.2412-4.9979-2.7419,1.7419c-.83-3.7349-1.4546-7.3651-2.4695-10.8827-1.0253-3.5536-2.4373-6.9957-3.9006-11.1068,0,0,21.121,28.4851,29.1636,41.2511S416.0707,497.4334,416.0707,497.4334Z"/>
</svg>
