<svg xmlns="http://www.w3.org/2000/svg" width="792" height="612" viewBox="0 0 792 612">
    <defs>
        <style>.cls-1{fill:#fff;}.cls-2{fill:none;stroke:#231f20;stroke-miterlimit:10;}</style>
    </defs>
    <g id="bounds">
        <path class="cls-1"
              d="M113.76,252.5654l-2.7959-1.0879c.0307-.0786,3.0605-7.8686,3.9326-10.4838.5073-1.522-.4624-4.48-.9834-6.0684a11.0341,11.0341,0,0,1-.4849-1.7271l-.1147-.833c-.9116-6.5483-1.0518-8.9926-.5777-10.0595a4.6282,4.6282,0,0,1,1.7046-2.0943,3.767,3.767,0,0,1,1.7139-.7622,4.6488,4.6488,0,0,0,.4551-.1162,3.1292,3.1292,0,0,0,.956-1.291c.022-.16.0459-.41.0786-.7222a25.3116,25.3116,0,0,1,1.2784-6.4316c.6772-1.5928,2.6084-6.8233,2.6279-6.876l2.8144,1.0391c-.0805.2177-1.976,5.352-2.6816,7.0107a23.6836,23.6836,0,0,0-1.0552,5.5693,4.9747,4.9747,0,0,1-.2544,1.4825c-.3315.7553-1.2724,2.5669-2.8427,3.0742-.2715.0874-.5083.1416-.729.19-.3384.0747-.38.09-.4878.1763-.63.5039-.6343.5127-.8365.9692-.1406.625.12,3.4907.8072,8.4278l.1172.85c.0263.164.2124.7324.3623,1.1889.7163,2.1856,1.7988,5.4888.978,7.9517C116.8467,244.6274,113.8853,252.2427,113.76,252.5654Z"/>
    </g>
    <g id="Irrawaddy_River" data-name="Irrawaddy River">
        <path class="cls-2"
              d="M112.3617,252.0213s3.0638-7.8724,3.9574-10.5532-1.2591-7.38-1.4042-8.4681c-.2553-1.9149-1.3192-8.9362-.8085-10.0851a3.1953,3.1953,0,0,1,1.2713-1.5319c.57-.4564.9963-.398,1.6914-.6224a4.0569,4.0569,0,0,0,1.9309-2.25c.1353-.308.3191-4.7234,1.3026-7.0355.7-1.6444,2.6548-6.9432,2.6548-6.9432"/>
    </g>
</svg>
