<svg id="Japan" xmlns="http://www.w3.org/2000/svg" width="792" height="612" viewBox="0 0 792 612">
    <defs>
        <style>.cls-1{fill:#fff;}</style>
    </defs>
    <path class="cls-1"
          d="M369.5957,70.4894c2.0814.0863,2.4243,2.5721,6,5.617,1.8425,1.569,3.8476,3.2764,6.2554,3.0638,2.1351-.1885,2.7166-1.7217,4.2127-1.4042,2.1377.4536,3.9968,4.23,2.9362,6-1.3864,2.314-6.7914-.4183-9.4468,2.5531-1.8016,2.016-.58,4.6909-2.0425,5.3618-1.7632.8087-3.6535-3.0267-8.4256-4.0852-3.239-.7184-6.8664.051-7.1489,1.2766-.1621.7029.8529,1.2221,2.0425,2.5532,1.0169,1.1379,1.5352,2.1684,3.3192,7.66,2.5958,7.99,2.4727,8.8072,2.2978,9.4468-.4281,1.5661-1,1.461-3.3191,5.3617a29.45,29.45,0,0,0-2.8085,5.3617c-1.6524,4.8339.4816,6.81-1.5319,11.2341-.5932,1.3034-1.4074,3.0291-3.0639,3.5744-1.5414.5075-2.4692-.4493-4.2928.057-1.8141.5038-1.5778,1.64-3.3059,2.5108-3.1385,1.5815-5.77-1.2324-8.8268.5812a7.7339,7.7339,0,0,0-1.9575,1.8723c-2.0619,2.4128-2.1643,4.2647-3.7446,4.6809a3.4578,3.4578,0,0,1-1.8724-.17c-2.0207-.5442-2.2168-1.7963-3.28-1.8383-1.7766-.07-2.298,3.3821-4.3792,3.5405-1.5379.117-2.4363-1.7115-3.3192-1.2766s-.1087,2.3246-1.3924,3.519a2.2526,2.2526,0,0,1-2.3735.5661c-.2922-.1752-.2528-.3677-1-1.8724-.4531-.9123-.6627-1.2344-1.0426-1.3829a1.4793,1.4793,0,0,0-1,.0212c-1.3635.453-2.025,3.23-2.4681,4.8511-1.2215,4.47-1.9432,7.11-3.7447,7.83a3.84,3.84,0,0,1-4.2127-1.2766c-.443-.6706-.0921-.9406-.5745-2.8723-.3559-1.4254-.5886-1.4452-1-3.0851-.3371-1.344-.1927-1.3782-.5173-2.3924-.4607-1.44-.8285-1.6111-.782-2.3232a3.4631,3.4631,0,0,1,1.4806-2.249c1.3818-1.1451,2.1216-.671,3.3719-1.5674,1.4142-1.0139,1.0595-2.0447,2.3617-3.5106,1.2037-1.3551,2.048-1.0835,4.22-2.2849,3.846-2.1276,3.3848-4.1893,6.2484-5.0555.97-.2934.6109.0943,5.4886.0653,3.1329-.0186,1.9735-.1092,5.6816-.193,3.5619-.0805,4.1755.0134,4.7234-.5745,1.1049-1.1856-.1683-2.88,1.1125-4.5015.8881-1.1246,1.8131-.7049,2.5258-1.8814.7335-1.2109-.0749-1.95.6808-3.4043.477-.9175,1.5276-2.0247,2.6384-1.8723a1.52,1.52,0,0,1,1.1063.6808c.6149,1.2458-1.8962,3.1988-1.617,3.5745.52.699,10.7935-3.9361,13.2766-10.4681a37.9434,37.9434,0,0,0,1.66-6.383c.2139-1.332.1307-1.33.383-2.8085.6113-3.5844,1.18-4.0708,1.0575-5.8693-.1091-1.5966-.5654-1.3261-.866-3.5775a11.99,11.99,0,0,1,.1276-4.5957,8.869,8.869,0,0,1,1.4043-3.2554,5.5859,5.5859,0,0,1,1.66-1.7234c1.759-1.0732,3.0224-.0362,4.2127-1.0212.295-.2442.3163-.39,1.2128-3a24.0065,24.0065,0,0,0,1.1489-3.5745c.1625-.995.54-3.3088-.5106-4.0213-.8615-.584-2.18.249-2.2979,0C366.1342,72.2309,367.7781,70.414,369.5957,70.4894Z"/>
</svg>
