<svg id="Kiribati" xmlns="http://www.w3.org/2000/svg" width="792" height="612" viewBox="0 0 792 612">
    <defs>
        <style>.cls-1{fill:#fff;}</style>
    </defs>
    <path class="cls-1"
          d="M615.8936,301.8936c5.6727-1.1839,12.8384,3.2924,39.66,42.2979,34.9354,50.8059,33.0586,58.1618,30.8085,60.851-4.1017,4.9023-12.3657-2.2108-30.2979,1.7022-18.3311,4-20.674,13.8288-32,13.2766C610.01,419.336,608.9393,403.9751,589,390.5745c-9.06-6.0887-23.9786-9.3051-53.4468-15.4894-35.8826-7.53-47.8422-7.4388-50.5532-15.3191-2.8532-8.2937,6.1817-20.6392,16.34-26.0426,9.5006-5.0533,16.33-2.0914,42.8937.5106,27.147,2.6592,40.8933,3.8784,49.3617-1.5319C609.097,322.7987,605.6466,304.0323,615.8936,301.8936Z"/>
</svg>
