<svg id="Laos" xmlns="http://www.w3.org/2000/svg" width="792" height="612" viewBox="0 0 792 612">
    <defs>
        <style>.cls-1{fill:#fff;}</style>
    </defs>
    <path class="cls-1"
          d="M169.9159,252.2324l-.8943-.2039-.2332-1.82-1.6375-.2562.1063-.1322-.9231-.8632-.2745.1354V241.415l-.9619-.2466a6.9423,6.9423,0,0,0-.2112-1.0994,4.0477,4.0477,0,0,0-.4678-.6648c-.18-.29-.3327-.5959-.4583-.8243l-1.8455-1.4569c.0228.0965-.0141-.0119-.0273-.1232-.1907-1.6113-.19-1.6142-1.7725-1.6138-.6919,0-1.3849.0432-2.0752.0143-.6487-.0271-1.0561.163-1.0047.91l-.8783.1556c-.478,1.5359-1.0559,1.8867-2.7789,1.6009-.3184-.229-.6394-.4546-.954-.6888-.1054-.0784-.28-.1808-.2776-.269.0176-.8118-.57-.606-1.0281-.6489-.6027-.0565-1.04.069-.964.8353a9.6474,9.6474,0,0,0-1.21.2344c-.2235.0723-.3951.2932-.6052.4226-.312.192-.6375.3621-1.0618.6-.0086.0513.0251.3393-.0882.42-.2007.1422-.564.29-.728.1988-.317-.1761-.0223-1.5751.2789-1.8118a1.03,1.03,0,0,0,.3736-.64c.0866-1.0594.1183-2.1232.1727-3.25.7666.0226.8932-.4169.8714-1.0912-.049-1.5185-.0154-3.04-.0154-4.6363l-2.8753-.2112v-3.6427l-.6285-.1679-1.0017-1.1546-.1612.1055V221.82l1.7094-.1716.1714-.9566.829-.1608.22-1.6734,1.7254-.08.2169.99h1.5805l.2344-.8751.96-.1041.1538-.9666.8407-.1658V211.964h1.8883l.2179,1.6748c.7759-.0542,1.0512.3472.9416,1.0735l.7573.22.1393,1.5732.136-.0985a9.3505,9.3505,0,0,1,.7665.8893c.0581.0847-.0625.4344-.1388.4479-1.3736.2426-.5232,1.24-.688,1.6529l1.1093,1.028-.1375.1855.868.1711.1958.9723c.9946,0,2.0176.0017,3.0406-.0007.49-.0011.9807-.022,1.4706-.0121.5838.0119,1.3033-.2614,1.3558.7876.0133.2656.5543.47.6838.7739a4.5846,4.5846,0,0,1,.1627,1.2254l.7319.1577a1.7155,1.7155,0,0,1-.2824,1.9959c-.2711.1453-.4454.4713-.6632.7162l.1084.2088h-2.7989c-.0606.5212-.1.9417-.1623,1.3586-.0288.1916-.07.5207-.1624.5419-.9366.2157-.4931.9712-.5875,1.4937-.0254.1408.1948.3458.3356.4883.0687.07.3.0432.3122.0947.2844,1.2014,1.38.6812,2.0816.9853l-.1453.2044a7.0775,7.0775,0,0,1,.9505.7673,1.8829,1.8829,0,0,1,.2688.6677l1.8653,1.2214-.102.0919c.2939.3.7025.5509.8541.9106a8.7773,8.7773,0,0,1,.3582,1.7133c.59.0472,1.0857.2581.931,1.0585l.8863.19a5.2,5.2,0,0,0,.1846,1.0114,6.3914,6.3914,0,0,0,.5111.748c.173.3021.3032.6287.4866,1.0184l.766.1353.178.8328c2.2386.4462,1.6844,2.2933,1.8668,3.7918l.8486.2163.1922,1.945,1.701.0892.1943.765.8651.1266.1569,2.7487.9033.1894v6.8866h-5.6082l-.1572.9362-.9854.0931-.2.7789-.8249.1309-.1685.907h-1.78v-1.7613l.92-.2308Z"/>
</svg>
