<svg id="Malaysia" xmlns="http://www.w3.org/2000/svg" width="792" height="612" viewBox="0 0 792 612">
    <defs>
        <style>.cls-1{fill:#fff;}</style>
    </defs>
    <path class="cls-1"
          d="M200.7893,334.0849c.0276-.04.0432-.0531.0462-.0685.1723-.8772.1719-.892,1.1054-.9129.8839-.02,1.7686-.0043,2.6609-.0043l.0968-.9017c.6955,0,1.3883.01,2.0808-.0026.7044-.0124.7031-.0217.75-.7047a2.167,2.167,0,0,1,.0495-.2584,1.0136,1.0136,0,0,1,.2558-.0494c.4618.0363.8125-.0127.734-.6343-.0432-.3418.2651-.2746.4768-.2916.223-.0179.5464.0739.5061-.313-.0627-.6027.1276-.9233.803-.767a9.0478,9.0478,0,0,0,.1274-1.2671c-.017-.4469.113-.6451.5747-.5773a2.2476,2.2476,0,0,0,.4134-.0237c.1043-.4825-.2056-1.3651.8687-.9793a2.1457,2.1457,0,0,0,.0568-.4255c-.0394-.3862.0868-.5922.5089-.53.4.059.4922-.1476.4851-.51-.0082-.4244.0448-.85.0737-1.3157h.83l.086.823.9367.0727a1.333,1.333,0,0,1,.0388.2824c-.0484.4748.0315.8074.64.73.0778-.01.2743.2656.2727.4073-.0045.4024.2116.431.5229.4343s.5076-.0679.4595-.425c-.054-.4.1457-.5283.5082-.48.4068.0547.5378-.1218.5246-.5226-.0253-.7673-.0073-1.536-.0073-2.3506h.8837l.0612.9909c.5643,0,1.123.0186,1.6779-.0185.091-.0061.234-.2559.2367-.3953.0178-.89.0028-1.7805-.0009-2.6709-.001-.2365,0-.4731,0-.7089a.8.8,0,0,1,.2436-.0646c.5944.0872.8435-.1435.7792-.7576-.01-.0926.2465-.3.3843-.3043.3438-.01.4485-.1495.4371-.47-.0158-.441-.004-.8829-.004-1.3756l1.0238-.0737a1.3345,1.3345,0,0,0,.0458-.3269c-.0681-.52.0637-.827.6763-.7461.0841.0111.2612-.1833.2841-.3037a3.8115,3.8115,0,0,0,.0738-.9674c-.03-.4351.0922-.6572.563-.5884a1.2568,1.2568,0,0,0,.2959-.039l.0823-1.8216.9078-.0766a.6858.6858,0,0,0,.0626-.162c.0687-.8875.068-.8869.9477-.8569.1711.0058.3432-.0057.5133.0089.3315.0284.4486-.1122.46-.4445.0052-.1461.1931-.4169.2733-.408.565.0626.6868-.2154.6281-.6947a1.2887,1.2887,0,0,1,.0495-.3225h.9357c.0025.5895-.0768,1.3.9705.9866-.22.9131.3086.972.9948.888v3.958c.484,0,.8887.0262,1.2886-.0068.4651-.0385.7328.0756.6476.6055a1.5777,1.5777,0,0,0,.0374.3366c.78,0,1.5621.0208,2.3422-.0082.44-.0163.6931.0726.62.5788-.0414.2857.1114.3824.3936.3881.4762.01.9515.0595,1.488.0966-.03.5461.0283,1.0576.8316.7787v1.175c-1.0194,0-2.0246.0176-3.0288-.0077-.4777-.012-.8085.0364-.7339.6449.0117.095-.195.2656-.3323.3169a1.8971,1.8971,0,0,1-.5753.0126c0,.6642-.0308,1.29.007,1.9125.0624,1.0288-.0209,1.1-1.06.9625a9.1169,9.1169,0,0,0-1.5853-.032c-.1115.0049-.2644.198-.3081.3335a2.5249,2.5249,0,0,0-.0424.62h-.9957l-.0637-.9317c-.3888-.0212-.7735-.06-1.1582-.06-2.3112-.0018-4.6225.0145-6.9337.0008-.4294-.0026-.6052.1394-.5514.56.0471.3688-.0909.5491-.4842.5036-.3132-.0361-.4219.1317-.4134.4314.01.3418-.03.6856-.0115,1.0265.0187.35-.1012.5261-.4652.4755-.4155-.0577-.5293.1342-.5172.5271.0241.7837.0071,1.5688.0071,2.3687a2.0724,2.0724,0,0,1-.4272.0766c-.3417-.0252-.4352.1293-.438.4557-.0039.44-.0709.88-.1137,1.3521a1.0708,1.0708,0,0,1-.33.0608c-.4789-.0656-.6922.0987-.6552.6107.0076.1054-.2417.33-.3676.326-.411-.0118-.478.1784-.479.5312-.0013.4236-.0682.8471-.1058,1.2617-.0368.0292-.0612.0654-.09.069-.8191.1043-.8307.1035-.8534.9355-.0181.663-.0036,1.3268-.0036,1.9638-.9807.229-.9816.2289-1.0262,1.2045-.0148.3248-.0237.65-.0352.9748-.028.7878-.028.7878-.77.87-.0219.0365-.0725.0812-.0689.1209.0489.5362-.1.8582-.7283.751-.2933-.05-.3479.173-.314.3953.0774.5072-.1775.5846-.6167.5881-1.038.0082-2.0755.07-3.1257.11l-.0863.7416h-1.9257a1.2493,1.2493,0,0,1-.0565-.3372c.0433-.4039-.1578-.522-.5171-.4753-.3682.0479-.5613-.0865-.5056-.4816.0594-.4207-.11-.5678-.5418-.5576-1.2146.0284-2.43.0286-3.6453.0124-.3829-.005-.5437.1223-.493.5024.0524.3928-.0973.5875-.5138.53-.359-.0494-.564.0707-.5123.4747.0387.3028-.0944.4652-.4075.4219-.4524-.0627-.5133.1947-.49.5526.0149.2243.0233.5059-.31.4564-.6467-.096-.8215.2209-.7143.825h-2.0044l-.0922-.79c-.8261,0-1.641-.01-2.4551.0122-.1.0027-.2387.156-.2821.2692a1.9968,1.9968,0,0,0-.0539.5195h-.9541c.1789-.8345-.355-.7924-.9222-.8184-.89-.0408-.8886-.0742-1.0147-1.0045l-.9726-.0859c0-.5336-.0208-1.0445.0158-1.5511a.4663.4663,0,0,1,.3311-.31c.7864-.028,1.5743-.0109,2.3617-.0165.2661-.0019.3677.1165.35.3765-.0106.1509.0111.3041.0229.5564h3.7a1.7836,1.7836,0,0,0,.0267-.3589c-.0444-.4265.0455-.6934.5669-.6478.0835.0074.27-.2639.2753-.4113.0282-.7652.0131-1.532.0131-2.33l1.029-.0808v-2.8481Z"/>
    <path class="cls-1"
          d="M154.3911,339.0721c-.9466-.1613-.9466-.1613-1.078-1.02a1.8,1.8,0,0,0-.3814-.0444c-.3631.0319-.5592-.0832-.5113-.4838.0367-.3076-.15-.3584-.4119-.369-.4565-.0185-.9115-.0731-1.4047-.1158l-.0735-.9293a1.6867,1.6867,0,0,0-.3725-.0386c-.4752.0625-.7011-.0961-.6549-.6127.0107-.1192-.19-.3756-.2673-.3657-.6676.0857-.8465-.2518-.74-.8548a1.241,1.241,0,0,0-.3327-.063c-.465.06-.6222-.1539-.563-.5908.0451-.3331-.11-.4841-.4411-.4387-.44.06-.644-.1026-.5873-.5654.0411-.3355-.2017-.3392-.4363-.3333-.2371.006-.4927-.0082-.4407-.3321.1021-.6365-.2207-.7743-.7566-.7119a1.0637,1.0637,0,0,1-.2454-.0625c0-.6036.02-1.2306-.0049-1.8558-.0318-.8106-.0469-.81-.8495-.96l-.1711-1.9077c-.7044.1082-1.09-.1477-.9288-.8559-.0612-.0553-.0723-.0742-.0862-.0766-.8717-.15-.8874-.1493-.9046-1.0849-.0251-1.3661-.024-2.7326-.0366-4.099-.0017-.1836-.018-.3671-.0269-.5388-.8014-.1511-.801-.1511-.8442-.97a3.3682,3.3682,0,0,1-.03-.5624c.0533-.4492-.1155-.6191-.5732-.5925-.1256.0073-.378-.2-.3793-.311-.0291-2.4124-.031-4.8252-.0359-7.2379,0-.0293.03-.0587.0611-.1173h.9249c.17.7923.1694.7967,1.0242.8438.286.0157.5735.0025.9584.0025,0,.9206-.0024,1.7711.0008,2.6215.0023.6161.0189,1.2322.0148,1.8482-.0017.26.0955.374.3614.3654.7137-.0231,1.4288-.02,2.1408-.0659a.4614.4614,0,0,0,.3118-.3277c-.026-.4445.2-.508.5653-.4993.7307.0175,1.4621.0052,2.28.0052-.2159-1.0025.2884-1.1668,1.04-.9875l.0751-.87h.977l.06.8194c.78-.1363,1.0222.2652.8538,1.0324.6471-.0265,1.2843-.052,1.0475.84.81.1709.81.1709.8772,1.004a1.5232,1.5232,0,0,1,.03.3055c-.0649.4952.0947.7383.6417.684.1072-.0106.3174.209.3434.348a4.3194,4.3194,0,0,1,.0619,1.0712c-.03.4374.1042.6536.5677.5946a1.0338,1.0338,0,0,1,.2574.052c0,.2025,0,.4024,0,.6024q.0129,5.6994.0272,11.3988c.0006.2048.0406.411.027.6141-.0356.5294.0523.9093.7317.8141.0782-.011.2819.266.28.4077-.0052.409.0652.6555.5582.6243.1086-.0068.2662.2172.34.3655a1.2344,1.2344,0,0,1,.0456.4339c.9184.1919.9212.1918.9545,1.15.0105.3049.0016.6106.0016.9566l.9813.0795v2.7569c-.2281.0108-.4457.0168-.6626.0324-.2643.019-.3928-.1009-.3575-.3614.0591-.4364-.1705-.536-.5424-.4976a3.42,3.42,0,0,1-.6132.0364c-.4333-.0342-.7461.0245-.6817.5832.0085.0739-.1875.2421-.2931.246a10.2462,10.2462,0,0,1-1.383-.0366c-.1082-.0108-.2363-.1867-.2869-.3138A1.6127,1.6127,0,0,1,154.3911,339.0721Z"/>
</svg>
