<svg xmlns="http://www.w3.org/2000/svg" width="792" height="612" viewBox="0 0 792 612">
    <defs>
        <style>.cls-1{fill:#fff;}.cls-2{fill:none;stroke:#231f20;stroke-miterlimit:10;}</style>
    </defs>
    <g id="bounds">
        <path class="cls-1"
              d="M169.5054,290.8281l-.55-6.5283a2.8012,2.8012,0,0,1-.563-2.103,7.6988,7.6988,0,0,0-.4-3.7256,3.0429,3.0429,0,0,1-1.7808-1.2114c-1.125-1.5743-.7793-3.9883-.6982-4.4566l.1079-.6255,2.0762-1.417.6738.19a9.1377,9.1377,0,0,0,2.5942-.3716,24.5,24.5,0,0,0-.2924-5.5229L168.481,256.3l-.7207-2.5937-3.2862-2.875a2.8054,2.8054,0,0,1-.96-2.18l.1445-6.5039-3.5884-4.5191a5.2326,5.2326,0,0,0-1.5.8159,7.9834,7.9834,0,0,0-.7329.9375c-.6289.8833-1.3413,1.8848-2.54,1.8848-.5333,0-1.233-.1523-3.876-1.9726a2.81,2.81,0,0,1-3.836-1.4624l-.7324-1.79a2.8065,2.8065,0,0,1,.2476-2.602,37.0913,37.0913,0,0,0,3.18-5.5528,39.07,39.07,0,0,0-6.063-2.4394,2.8116,2.8116,0,0,1-1.251-4.47l3.3476-3.9966-4.333-7.2676a2.8117,2.8117,0,0,1-.0078-2.8672l.64-1.0889a2.6663,2.6663,0,0,1-.1812-1.2124c.0625-.7578.7817-5.1728.9346-6.1069a2.4362,2.4362,0,0,0-.89-1.0239l-.458-.2027-2.1245-3.8081-.4863-3.4038-.7114-4.4179-.49-5.4488-2.0161-4.8047-2.7676-3.91-2.6928-2.6929-.88-2.3467-3.0825-7.7671-6.1016-6.8056c-4.5591-.7364-6.8691-2.0655-6.8691-3.9541h3a.7.7,0,0,0-.1294-.4258c.42.4624,2.791,1.1748,4.9736,1.4946l.5371.0791,7.18,8.0073,3.9526,10.0562,2.4873,2.5176,3.0947,4.435,2.26,5.3848.5269,5.86.6938,4.2876.4111,2.88,1.4068,2.521c1.1982.7911,2.4546,2.5015,2.1313,4.001-.3169,1.9365-.8174,5.0811-.893,5.7676l.02.0464a2.1954,2.1954,0,0,1-.0928,2.2451l-.7427,1.2632,4.3443,7.2871a2.8138,2.8138,0,0,1-.2613,3.248l-3.2573,3.8882c7.41,2.5371,7.6787,3.4771,7.8945,4.2339.1831.6406.4888,1.7119-3.6684,8.0679l.6216,1.5185a2.8279,2.8279,0,0,1,2.7456.2466c.9765.6748,1.6416,1.083,2.0483,1.3086.1065-.1416.2192-.3008.31-.4282a10.2485,10.2485,0,0,1,1.0571-1.32,7.8064,7.8064,0,0,1,2.6606-1.5415,2.7918,2.7918,0,0,1,3.2222.8725l3.7168,4.6807a2.8167,2.8167,0,0,1,.6094,1.812l-.1441,6.4849,3.2622,2.854a2.815,2.815,0,0,1,.858,1.3623l.746,2.6875,2.2056,8.82a2.75,2.75,0,0,1,.0562.2827c.916,6.6694-.03,7.6147-.4336,8.0186-.7935.7944-2.41,1.2275-4.8037,1.2866a2.6574,2.6574,0,0,0,.2758,1.6074c2.6612.43,2.962,4.7832,2.6973,6.9409l3.6978,2.7022-1.77,2.4218-1.1309-.8261.3193,3.7871Zm1.4106-20.0527Zm-28.123-65.3223-.0078.0137Z"/>
    </g>
    <g id="Mekong_River" data-name="Mekong River">
        <path class="cls-2"
              d="M174.1915,286.4043l-3.7871-2.7675a1.3067,1.3067,0,0,1-.5265-1.2356c.2658-1.9373-.145-5.16-1.3885-5.3586-2.1277-.3405-1.4989-3.9838-1.4989-3.9838l.9735-.6641a1.2745,1.2745,0,0,0,.382.0492c.7025-.0165,3.0805-.1257,3.8029-.8482.7989-.7988.0981-6.0964.0091-6.7437a1.1812,1.1812,0,0,0-.0262-.1331l-2.1956-8.7827-.746-2.6856a1.3134,1.3134,0,0,0-.4006-.6368l-3.3278-2.9119a1.3133,1.3133,0,0,1-.4482-1.0175l.1461-6.5718a1.3136,1.3136,0,0,0-.2845-.8458l-3.7167-4.68a1.3068,1.3068,0,0,0-1.4989-.41,6.973,6.973,0,0,0-2.149,1.2061c-.851.851-1.5319,2.383-2.2127,2.383a12.3869,12.3869,0,0,1-3.116-1.77,1.308,1.308,0,0,0-1.33-.0917l-.0746.0373a1.3133,1.3133,0,0,1-1.8027-.6774l-.7326-1.7907a1.3015,1.3015,0,0,1,.1136-1.2115c1.0331-1.5758,3.8159-5.9488,3.5381-6.9212-.24-.84-4.6263-2.4417-7.1927-3.3134a1.3122,1.3122,0,0,1-.5842-2.0867l3.4333-4.0978a1.3132,1.3132,0,0,0,.1214-1.5159l-4.4008-7.382a1.3133,1.3133,0,0,1-.004-1.3383l.8192-1.3925c.3929-.6287-.2184-.804-.1574-1.5461s.9227-6.0081.9227-6.0081c.2142-.8381-.9253-2.2447-1.7658-2.617l-1.7449-3.1277-.4468-3.1277-.7021-4.34-.5106-5.6808-2.17-5.17-2.9361-4.1489-2.5532-2.5532-.766-2.0425-3.1915-8.0426-6.6383-7.4042s-6.1276-.8937-6.1276-2.5532m55.1065,135.7857L171,290.7021"/>
    </g>
</svg>
