<svg id="Mongolia" xmlns="http://www.w3.org/2000/svg" width="792" height="612" viewBox="0 0 792 612">
    <defs>
        <style>.cls-1{fill:#fff;}</style>
    </defs>
    <path class="cls-1"
          d="M121.2712,70.2586c.273-.9447.5753-1.7741.742-2.63.1617-.8305-.2851-1.8166.8027-2.3805.1937-.1.1952-.68.19-1.0371a41.6056,41.6056,0,0,0-.1613-4.7852,24.5678,24.5678,0,0,0-1.0393-3.7584.6314.6314,0,0,0-.3323-.3886c-1.4417-.4227-2.8966-.8012-4.3362-1.2307a3.7076,3.7076,0,0,1-1.2132-.584,13.1234,13.1234,0,0,1-1.9156-1.7241c-1.2939-1.51-1.24-2.3161.2824-3.4473,1.1515-.8559,2.174-1.7979,3.8537-1.9326,1.347-.1079,2.593-1.2117,3.9329-1.7518,1.225-.4937,2.5422-.7577,3.7708-1.244,1.4074-.5572,2.712-1.422,4.1524-1.8359a22.94,22.94,0,0,1,5.3817-.9365c2.7317-.1064,5.4765.0623,8.2134.1737,1.52.0618,2.5847,1.0334,3.6273,2.02.3059.2894.7148.6649,1.0791.6678,4.4758.0352,8.9521-.0023,13.4283.0049,1.2626.002,1.8507-.5182,2.0246-1.8222.0914-.6851.7506-1.2863,1.1172-1.9454a5.9856,5.9856,0,0,0,.7814-1.6641c.1437-.7515-.0265-1.5607.0974-2.3191a2.2523,2.2523,0,0,1,1.5222-1.9138,17.9178,17.9178,0,0,0,4.2-2.4719,1.4512,1.4512,0,0,1,1.9821-.1524c.1792.1176.3155.3385.5061.3949,1.51.4468,3.0554.7882,4.5355,1.315a31.3348,31.3348,0,0,1,4.0439,1.8108,1.709,1.709,0,0,1,.568,1.2022c.0943.8581-.0642,1.7533.0986,2.591.0871.4484.5993.8352.9672,1.2022a3.4517,3.4517,0,0,0,1.22.9912,12.5639,12.5639,0,0,0,3.9026.8058,54.0905,54.0905,0,0,0,6.4343-.923c.2525-.0421.45-.51.688-.5249a10.4585,10.4585,0,0,1,2.1514.0951c.3033.0445.55.4394.857.4982A10.2056,10.2056,0,0,1,203.7513,42.2c1.0033.7239,2.4744.76,3.6332,1.3185a12.2627,12.2627,0,0,1,3.63,2.3076A3.9266,3.9266,0,0,0,213.8073,47.2c1.2972.0945,2.6083-.2349,3.8621.7394.6281.4881,1.8505.2546,2.8054.2695,1.5063.0236,3.1923.4082,4.48-.1306,2.0329-.8508,4.2074-.6371,6.2043-1.3761a2.7422,2.7422,0,0,1,1.0634-.1587c1.6312.0838,2.7527-.8969,3.9565-1.7708a13.5436,13.5436,0,0,1,2.01-1.0264c.8848-.4367,1.7691-.8747,2.6611-1.2963a.5516.5516,0,0,1,.4048-.0061c1.3113.5611,2.6095,1.1534,3.9271,1.6989.4092.1695.8747.1984,1.2981.34a.7629.7629,0,0,1,.47.384c.0388.1426-.1232.3892-.2616.5221a12.5289,12.5289,0,0,0-1.7049,1.6078,7.0462,7.0462,0,0,0-.8765,2.1252c-.2432.8551.2193,1.9646-.9936,2.4582-.1389.0565-.1629.5032-.165.77-.011,1.4151-.0169,2.8308.0134,4.2454a1.3643,1.3643,0,0,0,1.5477,1.48c2.3745.0022,4.7561.1249,7.12-.029a5.8565,5.8565,0,0,0,2.6468-1.1575c1.7425-1.1758,1.964-1.2,3.3573.4333.1124.1317.1119.4424.225.4785,2.17.6925,1.363,2.4125,1.44,4.0958-1.3431,0-2.6045-.0187-3.8651.0044a38.9846,38.9846,0,0,0-5.4644.2136,9.3631,9.3631,0,0,0-2.9583,1.5282,39.0182,39.0182,0,0,0-3.304,2.1426,8.4615,8.4615,0,0,0-2.332,2.1813,1.3591,1.3591,0,0,1-1.3955.7327q-.89.0321-1.7808.0373a2.4321,2.4321,0,0,0-2.2284.928,7.7633,7.7633,0,0,1-2.8466,2.5872c-1.5529.6338-3.14,1.8163-4.978,1.14a19.08,19.08,0,0,1-2.7076-1.5456c-.25-.1428-.66-.4138-.77-.33-1.2355.9456-3.2944.9408-3.72,2.7468a3.28,3.28,0,0,1-1.5755,1.94c-.9594.7-.6371,1.2118-.097,1.8634.1629.1965.4665.4628.422.6131-.2149.7253,1.9625.5712.5916,1.6367-.5208.4048-1.1.7336-1.6378,1.1174a47.4918,47.4918,0,0,1-4.8774,3.4335c-1.6937.91-2.9326,2.7735-5.3175,2.4242-1.1327-.1658-2.3589.4316-3.5551.5234a8.3076,8.3076,0,0,1-1.9477-.3765,3.7884,3.7884,0,0,0-1.0758-.0759c-1.1962.1377-2.3859.331-3.581.48-1.04.13-2.1833-.2227-3.0064.8435-.1757.2276-.7836.2008-1.1808.1644a3.8769,3.8769,0,0,0-3.4765,1.7341c-.057.07-.1045.2186-.15.216a6.6078,6.6078,0,0,0-3.4032,1.0747c-.7523.3819-1.8617-.1133-2.507.9225-.1015.1629-.9568-.0883-1.4354-.2378-.2618-.0819-.4869-.5336-.6909-.5089a8.0834,8.0834,0,0,1-5.4512-1.2784c-1.3259-.9183-2.97-.3857-4.1223-1.6518a20.3824,20.3824,0,0,0-3.675-2.6849,2.0336,2.0336,0,0,0-.7678-.2311c-.8394-.1582-1.8518.1766-2.3623-.9129-.0641-.1368-.51-.1329-.7789-.13-3.1493.0347-6.4366-.4636-9.4061.2891-2.617.6635-5.1475.32-7.6817.7019a2.8389,2.8389,0,0,1-2.85-1.2377c-.82-1.1527-2.24-1.8847-2.48-3.4544a6.7233,6.7233,0,0,0-.3149-.8555c-.3961-1.3146-.7618-2.6389-1.1919-3.942-.0607-.1839-.401-.3248-.6383-.3923-.9694-.2759-1.9845-.4264-2.9143-.7955a20.3109,20.3109,0,0,1-2.279-1.3167,12.5663,12.5663,0,0,0-1.391-.6542,18.726,18.726,0,0,1-3.2879-1.3554,2.3664,2.3664,0,0,0-2.9928-.0283c-.4939.3185-1.7815.3449-1.9448.0622-.4964-.859-1.2121-.5819-1.857-.7816A29.425,29.425,0,0,1,121.2712,70.2586Z"/>
</svg>
