<svg id="Myanmar" xmlns="http://www.w3.org/2000/svg" width="792" height="612" viewBox="0 0 792 612">
    <defs>
        <style>.cls-1{fill:#fff;}</style>
    </defs>
    <path class="cls-1"
          d="M134.5392,271.1275a26.0067,26.0067,0,0,0,.0241,2.6354c.0508.4732-.133,1.1906.7372,1.2777.1062.0106.234.4268.2448.66a17.06,17.06,0,0,1,.01,2.4649c-.0335.3376-.43.6242-.5893.9676-.2483.5356-.4351,1.1-.704,1.7973-.4964.1645-.8375.0629-.853-.767-.0156-.8353.4927-1.8605-.7013-2.4033-.1344-.0611-.0929-.5588-.0947-.8543-.0135-2.2083.0146-4.4176-.05-6.6242a4.3381,4.3381,0,0,0-.5531-1.368l-.3176.1078-.189-3.6471a2.4379,2.4379,0,0,1-1.856-2.3319c-.0441-.6481.3861-1.5583-.7926-1.7737-.119-.0218-.1715-.6723-.1731-1.0314-.0171-3.7052-.0132-7.41-.0271-11.1156-.0019-.5147-.0683-1.0292-.1078-1.5855-1.428.05-2.0807-.938-3.0207-1.6265-.9247-.6773-.6275-1.838-1.5868-2.3284-.2813-.1438-.1964-.9652-.3273-1.4635a.7749.7749,0,0,0-.3712-.4366c-.073-.037-.2862.1413-.4.2574-.2848.2916-.5489.6034-.8213.9072l-.3422-.1491c0,1.0372.0106,2.0745-.0041,3.1115-.0085.6021-1.0042,1.7467-1.5578,1.6314-1.2316-.2566-1.6082.8614-2.1248,1.4242-.5578.6077-1.2679.9761-1.7991,1.567-.4243.4719-.8309.96-1.25,1.4365-.1659.1889-.3344.4989-.5189.512-.1715.0122-.3533-.3144-.5535-.46a1.7961,1.7961,0,0,0-.74-.4357c-.6617-.0621-1.333-.0207-2.0713-.0207l-.1293-.8941L109.9,250.123a6.01,6.01,0,0,0,.7289-.7232,1.4155,1.4155,0,0,0,.23-.7025c.0711-.9692.1091-1.9409.1592-2.9118l.2886.0844a5.6553,5.6553,0,0,0,.5914-1.6508c.058-2.1314.0038-4.2659-.0122-6.3992-.0036-.4776.089-1-.6329-1.0986-.1152-.0157-.2472-.33-.27-.5193-.0781-.6334.125-1.39-.882-1.5148-.1063-.0132-.17-.5053-.2235-.781-.1476-.7665.3468-1.758-.7923-2.1833-.0868-.0324-.0736-.3422-.1-.524-.0849-.5749.2114-1.3349-.7608-1.4805-.0892-.0134-.1659-.3781-.1788-.584-.04-.6373.0637-1.1-.843-1.4983-.9357-.4111-1.5068-1.6072-2.303-2.3936-.7938-.7839-1.6706-1.4835-2.5064-2.2252a2.5668,2.5668,0,0,1-.339-.381,2.63,2.63,0,0,0-.9259-.887v-2.6908l1.9159-.1068c.0458-.6839-.1171-1.7147.1668-1.8575.9439-.4751.4983-1.2966.7359-1.9078.6242-.226,1.4416-1.3111,2.1972-1.92.8207-.6611.6375-.7.0416-1.4154-.4371-.5249-.0857-1.7068-.0857-2.6516l1.7865-.1951c.0508-.6447.1008-1.2707.1493-1.8967.0375-.4847-.1735-1.0879.65-1.1739.1054-.011.2275-.4231.24-.6548.0332-.6252.0113-1.2533.0113-2.0211h3.67c.1968-1.1845,1.9865-1.4316,1.1669-2.9609l.4545.2172a7.4363,7.4363,0,0,1,.731-1.2993c.7913-.9254.4358-2.4175,1.6736-3.1694.2936-.1784.1729-1.0388.451-1.4851.2428-.4049.4661-.8231.7325-1.2119.5307-.7748,1.0851-1.5335,1.63-2.2988l.2942.1609v-3.227c.7947-.859,1.38-1.4927,1.9667-2.1251.0928-.1.1977-.2824.2877-.2769,1.4152.0868,1.936-1.0107,2.7876-1.8212.5331-.5074,1.0492-1.6263,2.2173-1.3.1266.0354.3354-.11.4646-.2208.26-.2217.49-.4769.7332-.7183l.7738.9314h1.3869c.3579-.7031-.2533-1.8627,1.02-2.0575.0509-.0078.1-.2766.0863-.4176-.1208-1.2391.9261-1.6386,1.5814-2.36a5.5012,5.5012,0,0,0,.6467-1.89c.32-.0175.5728-.1593,1.049.4545a8.5476,8.5476,0,0,1,1.7878,3.9348c.0174.1046.06.277.1217.2918,1.3659.3277.8929,1.4478.9075,2.2666.03,1.68-.0787,3.3619-.13,5.0431-.0023.0748.0246.1658-.0084.2221-.496.8463-.9823,1.6991-1.5065,2.5278-.5477.866-1.1337,1.7079-1.8569,2.7909-1.6352.0662-1.3586,2.1451-2.1425,3.2238-.7728,1.0634-.3446,3-.4347,4.4183-.5563.52-1.3088.9121-1.48,1.48-.1418.4708.4011,1.148.6646,1.7923.7418-.1441,1.745.6211,2.0613-.7676.0261-.1146.4836-.0984.71-.207.4522-.2167.8832-.4778,1.323-.7206l-.1062-.3511c.581.0375,1.5414-.1136,1.6714.1481.3851.7747,1.4848,1.1994,1.1329,2.4009a8.2183,8.2183,0,0,0-.0385,2.2706,2.8518,2.8518,0,0,1,1.8944,3.7537c-.1638.3553-.6555.599-.7283.95a1.9132,1.9132,0,0,0,1.9147,2.3378,2.4524,2.4524,0,0,1,1.8369,1.7751c.0567.5143.0191,1.0351.7915,1.11.1954.0188.34.5675.5482.9466.1766.018.4327.046.6891.07s.5162.0436,1.157.0972c-.4625.7939-.7216,1.8378-1.2133,1.9622-1.1522.2916-.8129,1.157-1.188,1.689-.5436.6064-1.07,1.23-1.64,1.81-.1955.199-.5356.4522-.7485.405-1.1485-.255-1.3569.9872-2.1434,1.297-.1234.0486-.1019.4653-.1527.7407a2.8687,2.8687,0,0,0-2.9187,1.7165c-.0755.1539-.4561.2026-.7011.22-.634.045-1.273.0213-1.9064.0708-.54.0422-1.1315-.183-1.405.71-.1092.3568-1.1118.3532-1.2741,1.1263-.0771.3672-.4246.67-.5541,1.0359-.1676.4737.1309,1.18-.758,1.261-.11.01-.241.4974-.2512.7677-.0323.8577-.0119,1.7174-.0119,2.6675-1.2264-.01-1.2091.8417-1.0864,1.6077.1511.9441-.564,2.1914.9355,2.7611.2052.078.0917.9775.1384,1.4955.0492.5461-.18,1.1464.7508,1.343.4338.0915.7125.8488,1.0958,1.2733.2651.2935.589.5338,1.1114.9974,0,1.292-.0335,2.8941.0279,4.4925.0125.3251.4466.6131.5735.9595.2168.5922.3444,1.217.5089,1.8262-1.9814.553-.69,2.0563-1.2706,2.982a2.4033,2.4033,0,0,0-1.8148,2.6116c.0609.8928-.6617,2.1586.8891,2.6142.0971.0285.0339.6092.0419.9331a2.1349,2.1349,0,0,0,.7551,1.9016c1.1025.986,2.6506,2.0161,2.16,4.05a12.0455,12.0455,0,0,0-.0152,2.5743C133.4461,270.5834,133.5479,271.164,134.5392,271.1275Z"/>
</svg>
