<svg id="New_Zealand" data-name="New Zealand" xmlns="http://www.w3.org/2000/svg" width="792" height="612"
     viewBox="0 0 792 612">
    <defs>
        <style>.cls-1{fill:#fff;}</style>
    </defs>
    <path class="cls-1"
          d="M481.0854,600.9188a6.557,6.557,0,0,0-.1044.8488c.0018.36-.01.6549-.5.5925-.0573-.0073-.17.1045-.19.1788a3.0016,3.0016,0,0,0-.113.6817c-.0064.2878-.0041.5266-.4061.5075-.07-.0033-.2067.2113-.2139.3313-.0165.274-.1071.414-.3957.3792-.2478-.03-.3248.0905-.34.3285-.021.3312-.0858.66-.1371,1.0267-.431-.0188-.5871.2158-.5537.6393.0055.0691-.1738.2255-.2532.2162-.3965-.046-.5253.1487-.49.5562-.62-.12-.8651.1519-.7525.7222-.3354.0489-.62.114-.9057.1259-.3267.0136-.5867.0259-.62.4663-.0066.0885-.3875.1491-.6285.2341.0082-.0135-.0171.01-.02.0359-.0662.5961-.0651.6242-.7034.6382-1.1186.0245-2.2382.0055-3.3572.0168-.2879.0028-.3529-.1464-.3323-.3852.0229-.264-.0954-.3622-.3576-.3623-.4815,0-.963-.0357-1.4446-.0363-.2437,0-.4037-.0511-.3772-.3357.0235-.2531-.1073-.3413-.3426-.3216-.23.0193-.377-.0666-.3475-.32.0432-.3719-.1546-.46-.4708-.4217-.2575.0315-.5146.0657-.7881.1008l-.0651.59h-.8462v-2.2288l.621-.0789a2.8221,2.8221,0,0,0,.1039-.6919c-.0484-.4879.1079-.7306.7052-.6061,0-.4018.0144-.7474-.0044-1.0913-.016-.2924.1061-.3708.384-.3781,1.0474-.0273,1.0469-.0361,1.0808-1.0955.0028-.0859.0142-.1716.025-.2971a3.8785,3.8785,0,0,0,.428-.0451c.0906-.0192.2165-.0552.25-.1221.0737-.1466.0509-.3758.1567-.4627.1126-.0926.3281-.06.5138-.0839a.91.91,0,0,0,.0342-.2235c-.0417-.37.0535-.5978.4907-.5322.2343.0352.28-.11.3034-.3179.0162-.14.1255-.3778.207-.3838.3055-.0226.3441-.1751.3514-.4305a4.111,4.111,0,0,1,.1217-.8556.3649.3649,0,0,1,.263-.201,10.8687,10.8687,0,0,1,1.35-.0988c.3628.0033.572-.0863.4934-.5071l2.0345-.1761a1.112,1.112,0,0,0,.0392-.25c-.0368-.3387.1018-.4958.4475-.4615.2571.0256.4146-.0457.4216-.3524.0021-.0888.1561-.2286.26-.2506.337-.0711.6833-.0983,1.0561-.1463a1.396,1.396,0,0,1,.0491-.3928c.0495-.1132.1684-.2878.2454-.282.4373.0328.6608-.13.6157-.5977l.6284-.0635.0673-.7088a7.2284,7.2284,0,0,0,.7433-.0586c.2891-.0518.6869.01.64-.5014-.0037-.04.1737-.1222.2751-.1414a4.1659,4.1659,0,0,1,.5337-.03c-.2228-.802.3692-.7466.8169-.8109.2931-.0421.598.0061.577-.4453-.0025-.0518.2266-.1094.3435-.1731.1113-.0607.3159-.1464.3089-.1979-.08-.5845.2644-.6621.7489-.5931a3.2622,3.2622,0,0,1,.0575-.4089c.0248-.09.0894-.2458.1315-.2442.511.0191.4767-.3331.4952-.6728.0141-.2585.0655-.515.1037-.7979a2.1808,2.1808,0,0,1,.3414-.0331c.2349.0132.2941-.1062.3077-.3177.0373-.58.0935-1.1584.1451-1.7712l.56-.0883c-.1339-.9371.6971-.447,1.0366-.7069.058-.0444.1683-.0206.2776-.03a1.3493,1.3493,0,0,0,.0434-.2969c-.0219-.2838.1067-.4217.3818-.3937.3593.0367.4954-.1059.4878-.4674a7.23,7.23,0,0,1,.0923-.9034l.5484-.099c.0188-.3441.0554-.7031.0521-1.0616-.0023-.2564.07-.3928.3445-.3652.2957.03.37-.1256.3733-.3953.004-.3036.0569-.6065.0942-.9636h2.0336c0,.5122,0,.9623,0,1.4124q0,.11,0,.2193c.0018,1.0435.3149,1.3265,1.3593,1.229a3.6723,3.6723,0,0,0,.5637-.06c.1009-.0258.26-.1386.257-.2056-.0218-.4481.2786-.385.5574-.3976.3473-.0157.3079.2256.3239.4411a.59.59,0,0,0,.0462.1329h1.0278v1.9251l-1.0009.6479-.1836,1.1351-.6794.0595-.0692.5786a.5952.5952,0,0,1-.2017.0528c-.4111-.0484-.5962.1091-.5418.5369.01.0813-.0756.2522-.1085.25-.4367-.0289-.5136.2415-.5635.5877-.0094.065-.2474.0835-.3647.15s-.31.1731-.3038.25c.0334.4513-.2.5977-.6238.5778.0369.4523-.1581.6309-.59.6008-.0814-.0056-.2463.19-.2524.3-.0157.2814-.0812.4543-.4034.4189-.2216-.0244-.3326.0762-.3091.3034.0285.2758-.113.376-.3643.3439-.36-.046-.4609.1262-.4347.4564.0173.217-.0228.4381-.015.6565.0085.2383-.0382.3823-.3247.4032-.0912.0066-.2219.1937-.2421.3139-.0529.3136-.0547.6358-.08,1.001-.2125.0135-.41.0235-.6066.0391-.6992.0553-.6992.056-.8174.73-.3643.0293-.7407.04-1.1089.1009a.4163.4163,0,0,0-.2861.2691c-.02.2789-.1533.34-.3967.336-.482-.0078-.9649.0178-1.4461-.0021-.3136-.013-.4691.0707-.4341.4119.0268.2617.0117.5052-.37.4929-.06-.0019-.1717.1748-.1826.2771-.0525.4921-.0974.9866-.1068,1.481-.0052.2769-.0827.4175-.373.39-.2662-.0248-.3655.1025-.3579.362.0046.1584-.06.32-.0483.4767C481.6409,600.6431,481.6214,600.9754,481.0854,600.9188Z"/>
    <path class="cls-1"
          d="M499.688,583.0421c-.0294-.1963-.0431-.2528-.0457-.31-.0456-1.0139-.0242-1.0388.955-1.2789.0853-.0209.2269-.1063.2231-.1518-.0476-.5714.3639-.5313.73-.535a6.6516,6.6516,0,0,0,.1686-.8693c.0186-.2924-.0154-.5695.4137-.5428.0475.0029.149-.1423.15-.22.0112-1.0043.0108-2.0088.0052-3.0131,0-.0759-.0638-.2177-.0965-.2173-.5062.0059-.5325-.3351-.4693-.7362a4.0647,4.0647,0,0,0-.48-.0285c-.279.0185-.4152-.0877-.3868-.3775.0238-.2416-.0873-.3406-.3316-.3411-.2171,0-.4342-.0585-.6513-.0581-.2605,0-.4709-.0176-.4583-.3616.0025-.0684-.0794-.2013-.12-.2-.511.0107-.6711-.2626-.5507-.7243a2.0467,2.0467,0,0,0-.23-.0519c-.5508-.0441-.6333-.1434-.5571-.6733.0372-.2583-.0128-.5949.1324-.753.136-.1481.478-.1051.7286-.15.1705-.0306.34-.068.5391-.1083-.0069-.409.1962-.5757.62-.5325.0892.009.23-.18.2917-.3044a1.1869,1.1869,0,0,0,.0354-.4062l.6-.0681a1.7552,1.7552,0,0,0,.04-.3369c-.02-.2756.0758-.42.3712-.3886.2512.0271.3244-.1039.3319-.3388.0162-.51.0558-1.0192.0863-1.5286.0043-.0728.0142-.2091.0161-.209.5946.03.4691-.9675,1.15-.8079.0343.008.0792-.0287.1974-.0757.0265-1.0041.0571-2.0369.0794-3.07.0094-.4385-.0251-.8794.0088-1.3154.0341-.4393-.1467-.583-.5553-.5246a1.5609,1.5609,0,0,1-.2388.0018c-.0872-.64-.1546-1.2815-.2761-1.9124-.0268-.139-.2454-.241-.4627-.44a11.8472,11.8472,0,0,0-.0167-1.5006,8.146,8.146,0,0,0-.3681-1.07,5.5977,5.5977,0,0,1-.0971-.8468c-.1459-.0093-.287-.0243-.4282-.0261-.6012-.0076-.6012-.0061-.5791-.6056.0256-.6955.0256-.6955-.61-.8532-.1159-.7055-.1159-.7055-.7228-.712v-2.06a3.2516,3.2516,0,0,1,.38-.054c.311-.0042.287-.2214.2921-.4307.0054-.227-.0705-.3682-.3246-.3571a1.8476,1.8476,0,0,1-.3068-.0049c-.2646-.033-.7276-.02-.756-.1231a4.0924,4.0924,0,0,1-.0532-1.17c.0014-.0515.147-.1407.227-.1421.6663-.0115,1.3329-.0065,2.0053-.0065v1.4221l.6193.0715c-.1025.5783.18.8238.7794.7244.0423,1.1156.0911,2.176.1171,3.2369.007.2858.0281.4809.3923.4682.0886-.003.2017.169.2686.2814.0387.0648.0076.1713.0077.259.0013.6787.0013.6787.7118.6721.0895,1.2215-.2977,2.4619.1574,3.7023a7.088,7.088,0,0,0,.7407-.0049c.3969-.04.545.0977.5223.5109a7.3086,7.3086,0,0,0,.07,1.2482c.0118.1.1579.1843.2423.2759.0793-.0815.2241-.1612.2262-.2447.0072-.2835.1561-.36.3946-.3356.3331.034.3839-.15.38-.4267-.01-.8315-.0037-1.6631-.0037-2.4847.6889-.1783.7339-.1445.7341.5228.0006,1.2868-.0091,2.5736.006,3.86a7.7534,7.7534,0,0,0,.1284,1.1178.2944.2944,0,0,0,.19.1846,2.7383,2.7383,0,0,0,.6863.0973c.356-.0094.6079.0378.5543.489-.0072.0606.1336.19.2176.2014.4025.0549.8085.0965,1.2144.1113.3992.0145.8763-.1107.684.6l1.5023.0945a1.1572,1.1572,0,0,0,.0458.3776c.0507.1036.1794.2456.2621.2383.1151-.01.3139-.1464.3118-.2243-.01-.3632.1613-.432.4824-.44a5.9421,5.9421,0,0,0,.9189-.1659c.0073-.3447.1335-.5927.5639-.5481.0556.0058.19-.157.1822-.23-.054-.4746.2133-.5379.5847-.4988a.96.96,0,0,0,.1977-.0251,2.36,2.36,0,0,0,.0524-.2868c.0278-.4519.1454-.5431.6006-.4415.126.0281.2441.0934.37.1173a3.3311,3.3311,0,0,0,.4186.0257v1.1726c-.7382.1685-.7385.1685-.7525.9457a2.2752,2.2752,0,0,1-.0125.48c-.024.1-.1392.2537-.2109.2523-.33-.0066-.3973.1678-.3827.4425a1.65,1.65,0,0,1-.0345.26c-.0746.6761-.0743.6761-.7219.77l-.1014.5786c-.7895-.2048-.6263.3777-.6412.8442a2.0993,2.0993,0,0,0-.436.0577c-.09.0315-.2227.1355-.22.2029.0131.3578-.1873.4055-.4744.3957-.2032-.0069-.4079.04-.6114.0351-.2472-.0058-.4011.0607-.3709.3423s-.1292.3337-.3723.3473c-.5921.0331-1.1827.0925-1.7865.1423l-.2318,1.28-.5277.05a1.3808,1.3808,0,0,0-.044.2994c.0192.2571-.073.3976-.3454.3642-.342-.042-.4458.1266-.4076.4369a4.1724,4.1724,0,0,1,.054.5654c-.0035.2509.1125.3493.347.3273.4138-.0389.3251.2561.3423.4942.0191.2633-.0449.4084-.3532.4106-.1291.001-.3713.1457-.3672.2131.025.4076-.1623.56-.55.5341-.0374.23-.0751.441-.1053.6528-.055.3863-.0579.812-.6555.71-.0309-.0053-.131.1973-.1421.3088-.0489.49-.0413.4913-.5508.5685l-.2183,1.26c-.3688.0138-.9005-.09-.7109.6259l-.65.0947c.1354.61-.1245.8809-.7375.7622-.0511.3594.0437.7736-.498.7323-.0406-.0031-.14.2073-.1385.3172.0056.3155-.1124.4718-.4384.4375-.2717-.0286-.3746.1087-.3534.3625.0248.2968-.13.3793-.3995.3679C501.2489,583.09,500.4777,583.0685,499.688,583.0421Z"/>
</svg>
