<svg id="Northern_Mariana_Islands" data-name="Northern Mariana Islands" xmlns="http://www.w3.org/2000/svg" width="792"
     height="612" viewBox="0 0 792 612">
    <defs>
        <style>.cls-1{fill:#fff;opacity:0.82;}</style>
    </defs>
    <path class="cls-1"
          d="M378.6621,233.2638c1.9911-.7307,4.8975,1.8428,6.423,4.0341,1.5941,2.29,2.2054,4.9158,1.1915,17.5319-.5622,6.9962-1.1224,10.82-2.2979,15.1489-1.5706,5.7848-3.0994,8.2719-5.4468,9.617a9.9624,9.9624,0,0,1-5.0976,1.2377,11.1258,11.1258,0,0,1-3.9236-1.2377,41.2008,41.2008,0,0,1-5.7873-3.4042c-3.3288-2.122-3.7407-2.4316-3.83-3.0638-.2279-1.6173,1.9148-3.5085,4-4.2554,3.093-1.1077,4.41.8927,6.8511.1277,3.7064-1.1617,5.0133-7.1368,6.2606-12.8392.8753-4.002,1.313-6.003.9309-8.82-.5323-3.924-2.1387-5.7122-1.5745-9.4893C376.53,236.7275,376.9533,233.8909,378.6621,233.2638Z"/>
</svg>
