<svg id="North_Korea" data-name="North Korea" xmlns="http://www.w3.org/2000/svg" width="792" height="612"
     viewBox="0 0 792 612">
    <defs>
        <style>.cls-1{fill:#fff;}</style>
    </defs>
    <path class="cls-1"
          d="M283.4166,105.3143a1.4834,1.4834,0,0,0-.0484-.5221.5513.5513,0,0,0-.373-.2946.49.49,0,0,0-.3627.2954c-.1308.5184-.5033.8142-.9514.5381-.5525-.34-.1584-.9855-.2315-1.4889-.0153-.1053.2158-.2976.37-.3622a2.041,2.041,0,0,1,.6093-.0486,2.1123,2.1123,0,0,1,.0523-.5912c.0625-.1578.2346-.4.3407-.3915.5784.0482.7662-.2051.6975-.74a.8677.8677,0,0,1,.0562-.2519c.4669-.0411.93-.0548,1.381-.1368.1523-.0277.3785-.22.3886-.3515.03-.3861.236-.4313.544-.4231.2507.0067.5046-.05.7532-.03.4735.0383.7358-.0835.6888-.6319-.01-.1118.2286-.3324.3742-.3534.4192-.06.8532-.0165,1.2733-.0735.1511-.02.4083-.2272.3968-.3222-.0793-.6527.2939-.7492.8454-.6942l.106-.7813c.4937-.0679.98-.16,1.4711-.1932.3219-.0215.4663-.1322.43-.4559-.04-.3555.0976-.5693.4787-.5514.332.0157.4623-.1457.4361-.4564-.0339-.4025.1477-.5523.5456-.5441.83.0172,1.6608.0052,2.4028.0052.1118.1383.1579.1693.1557.1964-.0555.6786.29.8636.9071.7839a6.472,6.472,0,0,1,.9878-.0058c.4735.012.9733.0857.8881-.6694-.0072-.0634.27-.2149.4248-.2309.6867-.0713,1.3787-.0935,2.0648-.1692.1437-.0159.2708-.1829.4055-.28-.1233-.1045-.2532-.2021-.3681-.3152-.1171-.1154-.2755-.23-.3148-.3734a2.4706,2.4706,0,0,1-.0152-.6361c0-1.2966,0-1.2987,1.32-1.3183.4631-.0069.9263-.0011,1.4371-.0011-.073-.7363.3559-.749.8707-.7465a14.9762,14.9762,0,0,0,1.7828-.14c.1212-.014.3349-.1638.3261-.2251-.1093-.7568.4336-.7182.8973-.7369.2-.9315.2-.9315,1.0875-1.0237a1.4612,1.4612,0,0,0,.0611-.3683c-.03-.3708.1089-.5528.4945-.5107.3791.0415.5107-.1355.5076-.5074-.0036-.4437.0464-.888.0764-1.3318a.33.33,0,0,1,.0464-.1038c.7173-.1578.7173-.1578.8967.8654.421.096,1.0827-.1356,1.0051.7536-.06.6852-.5571.4267-.9212.5649-.0427.4922-.1153,1.0027-.9136.78.0836.7928-.1738,1.24-.9939,1.0706l-.2829,1.7116a.9144.9144,0,0,1-.2773.0475c-.5673-.0826-.7576.1629-.7137.7153a.5282.5282,0,0,1-.3216.4075c-.3846.0386-.4122.2524-.4171.5544-.0157.9678-.062,1.9352-.07,2.903-.0031.3755-.0926.5718-.5192.58a.5764.5764,0,0,0-.4274.3611.3936.3936,0,0,1-.5107.3962c-.5333-.0692-.6987.1762-.6367.6659a1.1784,1.1784,0,0,1-.0412.2937l-1.6875.2611a1.8281,1.8281,0,0,0-.0457.3963c.0411.3983-.1665.5211-.5174.5008-.362-.0209-.5976.0222-.6656.4969-.028.1954-.4834.33-.818.5375-.1571.7861-.1574.78-1.1437.823-.7711.0335-1.5411.0951-2.3123.1215-.2967.01-.5059.0676-.4657.417.05.432-.1818.5469-.555.5137-.3754-.0333-.6412.0272-.6209.5137.0045.1083-.2506.32-.39.3237-.365.0089-.4625.16-.4592.4966.0065.6781-.0285,1.3565-.0262,2.0347.0011.3319-.0422.5841-.4623.5479-.3289-.0284-.4505.14-.4274.4564a3.8,3.8,0,0,1-.0012.6392c-.0473.4879.0152.8106.6521.7944.1824-.0047.3752.3976.5632.6133l-.1177.1466,1.649.27a9.0486,9.0486,0,0,1,.1673,1.0563c.0236.5028.06.9318.7522.8448a1.0522,1.0522,0,0,1,.1968.5706.51.51,0,0,1-.2967.3714,7.3517,7.3517,0,0,1-.85.1278c-.74.1435-.7385.1493-.89.9159h-3.7786l-.1209,1.0058-.9555.0864-.1081.8245h-4.712c-.2266-.8676-.226-.838-1.1355-.82-.8507.017-1.7028-.0482-2.5544-.0564-.3957-.0038-.36-.2625-.3595-.5167s-.0353-.554.3558-.5137c.4918.0508.721-.1038.6756-.638-.01-.1149.21-.2868.36-.3663.1252-.0666.3048-.0219.4549-.0527.3115-.0638.8374-.0745.8885-.2323a5.9065,5.9065,0,0,0,.189-1.5845c.0352-.9394.0212-1.8809.0721-2.819.0052-.0951.3237-.1579.4769-.2643.1591-.1105.4156-.253.4189-.3866a18.256,18.256,0,0,0-.0793-2.07c-.01-.1076-.2455-.2634-.39-.2792C285.0952,105.4378,284.27,105.3833,283.4166,105.3143Z"/>
</svg>
