<svg id="Papa_New_Guinea" data-name="Papa New Guinea" xmlns="http://www.w3.org/2000/svg" width="792" height="612"
     viewBox="0 0 792 612">
    <defs>
        <style>.cls-1{fill:#fff;opacity:0.84;}</style>
    </defs>
    <path class="cls-1"
          d="M361.4154,366.7884c1.2205-4.092,9.7468-3.8794,19.4144-5.9161,15.26-3.2147,16.9523-8.5762,23.4894-6.5531,3.4188,1.058,3.8069,2.7878,13.1783,14.8569,10.9822,14.1435,14.6439,17.17,13.5895,21.7118-.8972,3.8644-3.9233,3.2888-8.13,9.4738-5.5718,8.193-2.6106,12.6569-6.8937,16.4255-5.59,4.919-17.8784,3.6871-25.2766-1.8723-6.1155-4.5956-8.0955-11.5514-12.2553-10.9787-2.4571.3382-2.5675,2.8754-6.4681,3.83-2.5922.6342-6.2023.4087-8.2127-1.7235a6.7143,6.7143,0,0,1-1.0851-1.5957,9.2008,9.2008,0,0,1-.766-4.9787c.012-.22.008-3.0191,0-8.617-.0033-2.339-.0629-4.1834-.1277-6.1915-.0871-2.702-.1294-2.7147-.2553-6.1277-.06-1.6328-.1434-4.15-.1915-7.1915C361.38,368.4369,361.3567,366.9852,361.4154,366.7884Z"/>
</svg>
