<svg id="Philippines" xmlns="http://www.w3.org/2000/svg" width="792" height="612" viewBox="0 0 792 612">
    <defs>
        <style>.cls-1{fill:#fff;}</style>
    </defs>
    <path class="cls-1"
          d="M248.9149,228.5319c-3.4721,2.1685-4.0641,6.7518-5.1064,15.83-1.415,12.3241.5617,14.24-1.5319,22.9787-1.3225,5.52-2.3417,9.774-5.7872,14.1277-3.5942,4.5414-6.705,5.2445-7.83,9.5319a13.1407,13.1407,0,0,0,2.0425,10.5532c2.3042,3.2116,4.1838,2.2615,8.3614,6.6383,2.4716,2.5895,4.1735,4.3726,4.5748,7.1489.4259,2.9468-.8854,5.1315.5106,6.6383A3.9268,3.9268,0,0,0,247.0426,323c6.9382.24,10.46-9.07,16-8.34,2.95.3885,2.7567,3.1336,6.6383,4.4255,4.2873,1.4269,9.4588-.2791,12.4256-2.7234,6.454-5.3172,4.9688-16.1826,3.5744-26.383-.8924-6.5286-2.259-16.526-9.58-25.1756-4.5535-5.38-6.132-4.002-8.8028-8.3563-6.3223-10.3076,1.336-19.965-4.5958-26.0425C259.2156,226.8321,252.6785,226.1813,248.9149,228.5319Z"/>
</svg>
