<svg id="Solomon_Islands" data-name="Solomon Islands" xmlns="http://www.w3.org/2000/svg" width="792" height="612"
     viewBox="0 0 792 612">
    <defs>
        <style>.cls-1{fill:#fff;opacity:0.85;}</style>
    </defs>
    <path class="cls-1"
          d="M433.8511,386.8085c4.2619-3.4095,13.7127,2.0857,18.2127,4.7022,7.4241,4.3166,6.9766,6.3093,14.8085,11.234,9.2128,5.7929,13.7155,5.4775,14.4256,8.9787.9343,4.6073-5.8613,10.0916-10.8561,12.4036-5.02,2.3235-9.5717,2.0683-13.187,1.8657-5.6252-.3154-11.6815-.6548-14.8931-4.78-2.9647-3.808-.1913-6.585-3.83-11.7447-2.0937-2.969-3.95-3.38-5.66-7.0638a16.672,16.672,0,0,1-1.5256-6.1936C431.274,394.6649,431.0117,389.08,433.8511,386.8085Z"/>
</svg>
