<svg id="South_Korea" data-name="South Korea" xmlns="http://www.w3.org/2000/svg" width="792" height="612"
     viewBox="0 0 792 612">
    <defs>
        <style>.cls-1{fill:#fff;opacity:0.86;}</style>
    </defs>
    <path class="cls-1"
          d="M289.0576,131.69c.7306.1084.83-.2894.79-.8309-.0173-.2309.0441-.4667.0424-.7-.0022-.3044.0936-.49.4344-.4749.2781.0122.4859-.0319.4917-.4042.0064-.4072-.2242-.4085-.5217-.4434-.1433-.0169-.3815-.1949-.3833-.3032-.0253-1.52-.0172-3.04-.0172-4.6957.4686,0,1.0268-.0188,1.5831.0064.3923.0178.516-.139.4978-.514-.0235-.4853-.0057-.9727-.0057-1.4838a2.9869,2.9869,0,0,0-.4449-.078c-.3052-.0029-.5808.0218-.5849-.4336-.0037-.4141.1473-.5741.5492-.5325.2944.0306.4739-.1113.4051-.4054-.0429-.1836-.21-.4928-.301-.4856-.6372.0507-.7169-.3017-.6685-.797a.7916.7916,0,0,0-.0273-.222c-.3057-.318-1.0072.2067-.9869-.5786.0195-.7526.677-.1993.9882-.5678a.7571.7571,0,0,0,.0331-.2763c-.0675-.5075.1685-.63.6379-.6176a6.602,6.602,0,0,0,1.1562-.1779c-.1735-.9219.409-.934,1.0766-.912.7215.0238,1.4458-.0437,2.1677-.0252.5224.0134.9694.0072.8545-.765.3244-.0144.6115-.0078.8933-.0436.5574-.0709,1.192-.078.9533-.9916h1.0973c.0464.4553.0731.9362.1569,1.4069.0251.1409.22.3691.3194.36.5985-.0544.6924.2678.6469.7482a1.9189,1.9189,0,0,0,.0612.4042c.8172-.217.8269.2954.7962.858-.0106.1935.0431.39.0338.5842-.0153.32.1048.4915.4375.4488.4887-.0628.5727.1867.5794.617.0145.9359.103,1.87.1272,2.8065.0094.3621.0985.5619.4953.5259.4747-.043.4116.3035.4075.59-.004.2793.0825.6536-.39.611-.51-.0459-.56.2267-.5624.6378-.0133,1.8569-.0591,3.7135-.0736,5.57-.0032.412-.06.6774-.5687.6526-.1256-.0061-.3461.2145-.3788.3627a4.2968,4.2968,0,0,0-.0924,1.1036c.0184.4265-.16.53-.5539.5219-1.0526-.0214-2.1059-.0073-3.1276-.0073-.2972.942-.2972.942-1.27.9419H293.97l-.0868.9363a9.3124,9.3124,0,0,1-1.2242.0951c-.5284-.0258-.7081.1971-.65.69a.9212.9212,0,0,1-.0437.2446c-.3918.2322-1.3788-.3041-1.0109.8847H289.05a8.4189,8.4189,0,0,1-.0744-1.1366c.0309-.5038-.1308-.7407-.657-.672a1.09,1.09,0,0,1-.3079-.0588v-.9774l.9593-.1083Z"/>
</svg>
