<svg id="Taiwan" xmlns="http://www.w3.org/2000/svg" width="792" height="612" viewBox="0 0 792 612">
    <defs>
        <style>.cls-1{fill:#fff;opacity:0.8;}</style>
    </defs>
    <path class="cls-1"
          d="M255.0426,196.8085A19.9454,19.9454,0,0,0,252.1064,201a8.4738,8.4738,0,0,0-1.0107,1.92c-.2348.7684-.1613,1.12-.1595,3.5585a8.9764,8.9764,0,0,0,.1276,2.7128,3.6308,3.6308,0,0,0,1.7022,2.234,1.128,1.128,0,0,0,.9361.1277c.3179-.1584.3286-.5333.66-1.234a8.706,8.706,0,0,1,.5957-1,19.06,19.06,0,0,0,1.3618-2.9788c.4424-1.1027.6689-1.6674.9361-2.5106.1122-.3539.1976-.65.766-3a17.19,17.19,0,0,0,.6383-3.1915c.0647-1.1671.122-2.2-.4043-2.5106C257.378,194.61,255.4431,196.4314,255.0426,196.8085Z"/>
</svg>
