<svg id="Thailand" xmlns="http://www.w3.org/2000/svg" width="792" height="612" viewBox="0 0 792 612">
    <defs>
        <style>.cls-1{fill:#fff;opacity:0.76;}</style>
    </defs>
    <path class="cls-1"
          d="M137.7481,298.4812l.8127.9375.2057-.1192.1121,1.9448.9213.12v3.4379l.7544.1193c.1006.4539.2243.861.2739,1.2769.0545.4573.0006.9221.695.9284.1123.001.2209.426.3584.7114l3.6.242-.1029.1649.8387.9293.1415-.1217.4348,1.6137,1.42.433a.49.49,0,0,1,.07.1452c.1531,1.6082.1526,1.6082-1.4469,1.6092-.1884,0-.3768.0016-.5652,0-.5081-.0048-1.1769.18-1.4776-.0723-.28-.2351-.1539-.9391-.2359-1.4318a.9038.9038,0,0,0-.2286-.4552c-.23-.2362-.496-.4364-.7473-.6515l.1372-.23-1.7158-.1037c.0756-.93-.4729-1.0629-1.2094-1.0135-.587.0394-1.1787.0079-1.8349.0079.0722-1.442-1.0126-.881-1.7248-1.0611a3.7565,3.7565,0,0,1-.2441-.96c.0046-.646-.1308-1.0782-.6625-.9446a7.7207,7.7207,0,0,1-.89-1.0086,2.3128,2.3128,0,0,1-.3392-1.0377c-.0233-.5374-.1049-.9242-.8122-.7851.0493-.7462-.2063-1.1645-.9778-1.0439l-.3605-1.7244c-.6814.0341-.8741-.4034-.8246-1.0766l-2.7478-.1273c-.0128-1.83-.0261-3.6389-.0353-5.448,0-.0772.0241-.2153.06-.2231,1.1265-.2484.6-1.2344.84-1.916l.84-.1535v-4.51c.9777.05,1.18-.4183,1.1081-1.1558a5.2023,5.2023,0,0,1,.045-1.3666c.038-.2217.2735-.4112.4247-.6115a5.4626,5.4626,0,0,0,.8907-1.2107,27.02,27.02,0,0,0,.707-2.647l.6184-.09c.0678-.3608.1609-.7195.1963-1.0838a.8251.8251,0,0,1,.4823-.7892c.284-.16.37-.83.385-1.2773.0411-1.1982.0058-2.3994-.0174-3.5991-.0129-.67-.0689-1.34-.0922-2.01-.0117-.3374-.0036-.629-.4789-.6812-.1123-.0123-.2527-.4184-.2582-.6463-.037-1.5331-.0352-3.0672-.06-4.6008-.0068-.4242-.061-.8476-.0948-1.29l-.8081-.1355-.1382-1.0164-.8522-.1206c-.09-.4948-.0573-1.1015-.8361-1.08-.063.0018-.1378-.4181-.2189-.68l-.8723-.1186c-.1085-.5326.144-1.3136-.8355-1.2365v-2.3483c.9319.0281,1.0123-.6039.9879-1.3128l.2071.138a5.6842,5.6842,0,0,0,.9432-1.3138,19.73,19.73,0,0,0,.5561-2.4892l.9089-.17v-2.7329l-.94-.1623c0-1.2823.0056-2.5662-.003-3.85-.0031-.4539.168-1.0142-.6011-1.0707-.0862-.0063-.13-.31-.2322-.4463a4.2486,4.2486,0,0,0-.4935-.532c-.1027-.0967-.3323-.1549-.3387-.2426-.0516-.7025-.5289-.79-1.14-.7806-.0352-.3788-.0576-.7486-.1086-1.1143-.0246-.1762-.0659-.4684-.1627-.4975-.8069-.2418-.6358-.89-.638-1.4553-.006-1.5318.0186-3.0638.0019-4.5953-.0057-.5323.0414-.9506.7611-.79l.1214-1.0712.8049-.1716.2283-2.702c1.1067,0,2.2277.0351,3.3449-.0156.5111-.0232,1.2214.25,1.3841-.6667.0237-.1336.5615-.1759.9075-.2734l.1333-.8469.8671-.1153.1556-.8844.7287-.1258.211-.7337c.6867-.0307,1.3553-.0836,2.0239-.083.5114,0,.7191-.1884.6983-.7158a8.5363,8.5363,0,0,1,.1309-1.2463h1.8674v4.805c.561.1041,1.0232.2287,1.4927.2691,1.0807.0931,1.4745.5078,1.4622,1.58-.0114.9905-.0025,1.9812-.0025,3.0106l-.8832.1248-.187,3.7138-.8691.2038v4.5686h1.8845l.0986-.8107.156.1283a9.5243,9.5243,0,0,1,.94-.93,1.7329,1.7329,0,0,1,.74-.2114c.2886-.05.5837-.0613.9109-.0928l.1516-.8426.7585-.1763.0993-.8407h1.74c.0443.5226.0971,1.0871.8923.9883-.1049.7947.2695.9968.94.9487.6373-.0456,1.2805-.01,1.9358-.01l.2078-.9374.977-.1251a1.33,1.33,0,0,1,.8178-1.1762c.4425-.2477.7812-.6659,1.3835-.6459.5588.0186,1.1187.004,1.7077.004a6.5273,6.5273,0,0,0,.1807,1.2151,3.5071,3.5071,0,0,0,.5356.7753l.18-.1065.1241.9073.8335.15c.0374.5789.2859.9934,1.0614.8288.0268.37.0391.6812.0741.99.05.441-.1649.9942.5284,1.1773.0877.0232.12.3794.1222.5821.0125.9418-.0239,1.885.0128,2.8255.0511,1.3075.1519,2.6132.2349,3.9776.7526-.0169,1.1852.2591,1.0677,1.0031a2.925,2.925,0,0,1,1.8439,1.4868c.1123.1865.42.2553.7061.4166v3.5877c-.7488,0-.8176.4886-.7775,1.1127.0448.6946.01,1.3943.01,1.87l-1.05.9823.1053.1586H166l-.2236-.7606c-.5435,0-1.0777-.0063-1.6117.0046-.1277.0026-.3472.0344-.3673.1005-.2423.7957-.8925.495-1.3971.5188a20.4059,20.4059,0,0,1-2.1788-.0031c-.4365-.0261-1.0747.3078-1.1968-.5175-.0074-.05-.2383-.0953-.3656-.0962-1.0426-.0077-2.0854-.0044-3.1282-.0044l.1106.2619-1.0072.8453c-.2265.4308-.3366.9994-1.1727.822l-.2011.9063-.7641.1329-.1038,1.49c-.6952.0347-1.2384.2523-1.249,1.1028-.0014.1156-.4215.226-.7318.3807,0,1.0463-.0369,2.1486.0273,3.245.0151.2571.3722.4942.6445.689a2.5277,2.5277,0,0,0,.729,1.3c.43.5295.3674,1.4588.5376,2.313h-1.52l-.3418-1.2132-.8194-.0788c-.243-1.265-.7222-1.6567-1.9917-1.6576-.9894-.0006-1.9787,0-3.078,0,0-1.1153.0059-2.1306-.0016-3.1458a1.6063,1.6063,0,0,0-1.8306-1.8c-1.0227-.0017-2.0454,0-3.0681-.0007a1.7894,1.7894,0,0,0-1.1661.5683c-.8025.635-.52,1.3254-.5231,2.0254-.0128,2.709-.0052,5.4181-.0052,8.1318l-.9125.1665c-.0561.4067-.1249.8228-.1679,1.2416-.038.3713.12.7562-.5112.894-.22.048-.2753.7839-.4357,1.1939a6.3764,6.3764,0,0,1-.4028.7757c-.0493.0879-.1974.174-.1839.2354.23,1.05-.7153,1.3919-1.1738,2.0351a3.3149,3.3149,0,0,0-.27,1.1248c-.8218-.08-.9263.46-.9215,1.15.017,2.47.0066,4.94.0066,7.5422h3.91v4.7668l.9171.1789Z"/>
</svg>
