<svg id="Tibetan_Plateau" data-name="Tibetan Plateau" xmlns="http://www.w3.org/2000/svg" width="792" height="612"
     viewBox="0 0 792 612">
    <defs>
        <style>.cls-1{fill:#fff;}</style>
    </defs>
    <path class="cls-1"
          d="M151.8936,172.1915c2.6352-1.7,6.0837-5.8654,5.2621-9.065l.1235-19.4882c-.2553-7.5319-1.9152-9.381-2.0345-14.7719l-.5-3.0366c-.9933-16.9079-21.3389-17.8755-30.5958-18.66-10.1763-.862-12.2553-3.7566-26.7234,1.5319-3.0152,1.1022,1.0213,5.617-7.1489,5.9575-2.3209.0967-6.8085.34-17.0213,1.0213-4.3912.2927-11.5467,1.3533-16.0261,2.0613a7.2045,7.2045,0,0,0-5.569,4.4572l-2.01,5.0527a2.762,2.762,0,0,0,.5551,2.9182c.4254.4513.8814.9454,1.2773,1.41a1.5815,1.5815,0,0,1,.3076,1.4677c-1.2882,4.4214-6.9354,6.7881-9.02,11.2908-.4355,1.9231,2.8916,2.0705,1.6509,4.556a1.54,1.54,0,0,1-.831.7491,6.4987,6.4987,0,0,1-2.1328.4492,2.6524,2.6524,0,0,0-2.5359,2.5793c-.0543,2.1849-.3545,4.5313.8658,5.3276,2.3519,1.5347,5.8122,2.2847,8.6448,4.64a1.6731,1.6731,0,0,0,1.3118.3748c5.3387-.7726,8.8184,1.3452,10.7473,6.17a1.59,1.59,0,0,0,1.4045,1.0412c.13.0033.2605.0016.391-.0061a2.39,2.39,0,0,1,2.1519,1.0387,4.6405,4.6405,0,0,0,3.1317,1.952,3.1918,3.1918,0,0,1,2.2177,1.7663c2.154,4.4918,6.7209,1.236,10.0041,2.66a3.6854,3.6854,0,0,0,1.892.3342c1.294-.15,2.8573-.2987,4.0441-.3435a1.3326,1.3326,0,0,1,1.2967.8962l.5071,1.9118s3.5532-4.4149,5.6809-4.5319a8.2323,8.2323,0,0,1,1.9307.0614,1.5014,1.5014,0,0,1,.2222.0623l5.523,1.9707a4.8886,4.8886,0,0,0,3.2864,0l4.6047-1.6434a1.5907,1.5907,0,0,0,.4085-.2172l7.4636-5.4921a6.3544,6.3544,0,0,1,3.0589-1.1968l3.5718-.4q.0577-.0065.115-.0171l2.81-.5246a1.6684,1.6684,0,0,0,.5537-.1945c1.2072-.7223,6.7645,3.3116,8.6214,4.5595l6.9787,1.3617C146.11,175.4042,147.5636,174.9841,151.8936,172.1915Z"/>
</svg>
