<svg id="Tuvalu" xmlns="http://www.w3.org/2000/svg" width="792" height="612" viewBox="0 0 792 612">
    <defs>
        <style>.cls-1{fill:#fff;}</style>
    </defs>
    <path class="cls-1"
          d="M552.83,413.2128c.5011-3.7258-4.0054-4.6624-6.2128-11.2341-1.5357-4.572.1032-5.7333-1.8723-9.3617-.4625-.85-3.2846-6.0327-8.2553-6.1277a7.8927,7.8927,0,0,0-6.2979,2.8937c-2.2567,2.9882.1154,5.4394-1.8723,9.7021-1.7438,3.7394-4.32,3.4643-4.8511,6.383-.6092,3.35,2.1067,7.4463,5.4468,8.7659,2.7146,1.0725,3.5894-.5787,7.1489.0852,5.21.9716,5.9764,5.0018,9.7021,4.9361C548.9031,419.2,552.4184,416.271,552.83,413.2128Z"/>
</svg>
