<svg id="Vietnam" xmlns="http://www.w3.org/2000/svg" width="792" height="612" viewBox="0 0 792 612">
    <defs>
        <style>.cls-1{fill:#fff;}</style>
    </defs>
    <path class="cls-1"
          d="M178.42,246.4133l.1072.7513.75.1124c-.14.8777.3549,1.064,1.2216.8741-.5225.9446.4173,1.23.6447,1.8251.0412.1079.4233.0666.635.1348.1682.0542.4583.1841.4514.2572-.0682.7133.3418.8522.9625.7933-.0032.5859.08,1.0882.8346,1.0007.0622-.0072.1916.1758.2127.2853a3.2342,3.2342,0,0,1,.0414.6806c-.012.5464-.1018,1.1415.8435.9007-.1721.8687.2435,1.1029,1.09.985,0,.9668.0064,1.8667-.0023,2.7664-.0058.59.1,1.0625.9717.908a11.3639,11.3639,0,0,1-.0074,1.1926c-.0735.664.1344,1.0208.8572.8886v12.3577l-.8517.1271v5.762c-.8139-.1133-1.1423.2279-1.05.9868-.7887-.0958-1.1089.2478-.9519,1.0885a6.1375,6.1375,0,0,1-1.0043-.0092c-.63-.1128-.9743.0758-.92.8353h-1.8235c.018.6521-.0511,1.1609-.8456,1.1188-.087-.0046-.2022.5248-.3131.8307-.8357.2019-.8357.2019-.9692.8961-.247.0227-.5115.0649-.7765.0682-1.0008.0129-1.0008.0082-1.0067,1.0053-1.0627,0-2.1274.0434-3.1862-.0175-.5661-.0326-.81.0831-.7648.68a9.2453,9.2453,0,0,1-.0542,1.14c-.5839-.0191-.8969.2152-.82.8373.0106.0858-.2171.263-.3562.2915-.2384.0488-.494.0135-.6425.1412a8.8088,8.8088,0,0,0-.7676.8446,1.48,1.48,0,0,0-.1563.6206c-.0573.38-.0957.763-.1475,1.19-.5236.0684-.9976.2248-.7339,1.0382h-2.0389l-.1226.8038-.7511.1577-.101.9123c-.6776-.041-1.186.1412-.9543,1.0131h-1.0552v-8.5961h-1.8355V285.79c.4394,0,.8655-.0279,1.2862.0076.4427.0374.5614-.1548.538-.5563-.0234-.4031-.0051-.8086-.0051-1.329,1.0265,0,2.0189-.0273,3.0089.01.6462.0241,1.0034-.1735.908-.8575,1.007-.28,1.007-.28,1.1007-1.0655l.7955-.14v-2.78c.5827-.0423,1.07-.11.97-.871h1.8829l.1-1.0029,1.8542-.1484.1472-.83c.3346-.0449.6659-.1071,1-.13.4076-.0278.8424.04.8521-.5927.0011-.0762.36-.2016.5579-.2111,1.2312-.0589,1.234-.05,1.34-1.2467a3.7729,3.7729,0,0,0,.0067-.6143c-.08-1.0706-.0832-1.07.8941-1.26a2.0621,2.0621,0,0,0,.07-.38c.0083-2.3693.0074-4.7385.0177-7.1078.0025-.5689-.1-1.0118-.95-.84v-4.0981c.9545-.1881.96-.1881.9586-1.2149-.0016-1.2757-.0194-2.5514-.0168-3.8271.0008-.3729-.08-.594-.5242-.6157a.6259.6259,0,0,1-.4091-.4381,8.9913,8.9913,0,0,1-.059-1.636c.0344-.5873-.1348-.9285-.8525-.8643v-1.877l-.9153-.0948c-.1622-.9374-.1622-.9374-1.05-1.069-.0784-.4634.0046-1.1183-.89-.916-.0119-.2712-.0241-.4911-.031-.7111-.0317-1.0178-.0312-1.0178-1.0959-1.1343,0-.3884-.02-.79.0056-1.1888.0249-.3906-.08-.5755-.5168-.6038-.1981-.0129-.5462-.2792-.54-.4182.0231-.5393-.224-.7386-.7521-.7315.0748-.7607-.2209-1.1258-1.0447-.9193a4.04,4.04,0,0,1-.038-.9875c.1645-.7469-.0743-1.0877-.8869-.9546-.0962-.5359.0323-1.2372-.8867-1.045l-.1305-1.77c-1.6314.1086-.6152-1.2476-1.109-1.8882l-.8037-.1139-.106-.9059c-.5413-.0026-.97-.1139-.8935-.7919.0068-.0609-.2651-.2006-.4194-.2233a3.9963,3.9963,0,0,1-1.29-.2906l-.8575-.8292-.1984.2029c.0414-.719-.2265-1.1283-.9936-1.018v-.9733c.5636-.0146,1.0419-.1613.8823-.9426h2.91l.1422-.9387.75-.1433c0-.82.0354-1.6366-.028-2.4456-.0137-.1745-.3834-.3211-.725-.3863-.02-.31-.0371-.6194-.0592-.9289-.0337-.4708.0264-1.0058-.7384-.915-.0766.0091-.252-.2733-.2726-.4343-.063-.49-.0726-.9874-.104-1.4988-.4882-.0742-1.0687.0426-1.0289-.7067.0032-.0614-.2806-.1867-.4373-.1985-.4537-.0341-.9131.0016-1.3657-.04-.6365-.0585-1.0457.086-.881.8854h-2.71l-.9548-1.1143-.2088.116v-4.7247l-.9493-.155c-.0256-.3151-.0332-.6079-.0765-.8953-.0653-.4338-.0431-.9484-.7419-.8736-.0814.0088-.2766-.2117-.2654-.3082.0689-.5974-.2854-.7433-.8056-.75v-.9577l.183.1054a2.9622,2.9622,0,0,1,.5654-.7834,4.4491,4.4491,0,0,1,1.0584-.4052c.0882,1.0087.0881.9853,1.0166.9839,1.6617-.0025,3.3235.0257,4.9853.042.4114.0041.852.0831.8527-.5692,0-.1.2687-.2712.425-.2864.4512-.0436.9084-.0279,1.3632-.0291.9574-.0024.9574-.0007,1.0518-1.0056h1.81l.1337-.9058c.9007-.2067.9007-.2067.94-.9667h1.928c-.053.6447.1639,1.0708.9542.8567l.1493.9875h2.8849c-.1507.9216.315,1.072.9727,1,.5411-.0594.8477.1135.8321.7322-.0187.7449.0352,1.4915.042,2.2375a7.1279,7.1279,0,0,1-.0593.8786c-.0773.67.0746,1.1335.9215.9879.0708.5627-.05,1.27.8811.988l.1658.79,1.921.1274v1.9636c-.68-.0186-1.1928.0974-.9984.9289-.5366.1052-1.2057.0447-1.0245.96h-1.78l-.1279.9641-.9489.0979-.0861,1.7892c-.713-.048-.899.3731-.83,1.01-.6125-.0129-1.1719.0129-1.05.8348.0084.0562-.199.2165-.288.2036-.641-.0931-.7784.2818-.7453.8185l-.7811.1026v2.0022c-1.6608-.1292-.7551,1.2189-1.2011,1.8635-.7747-.1064-.8561.4086-.8434,1.0464.0172.8651-.0123,1.7311-.0154,2.5967-.0037,1.0051-.0007,1.0051,1.0665,1.1365v1.9394c.5282.1032,1.1991-.0219,1.0311.839l.7605.1668a8.7819,8.7819,0,0,1,.0564,1.1117c-.0371.5485.1417.8212.7243.7461a1.1466,1.1466,0,0,1,.3261.0808c0,.2708.0047.5387-.0008.8065-.0207,1.0036-.022,1.0036,1.0279,1.0839.0138.518-.116,1.1752.8143,1.0183a3.66,3.66,0,0,1,.0626.8381c-.1154.7079-.0752,1.2541.8976,1.0661l.1025.9853Z"/>
</svg>
