<svg xmlns="http://www.w3.org/2000/svg" width="792" height="612" viewBox="0 0 792 612">
    <defs>
        <style>.cls-1{fill:#fff;}.cls-2{fill:none;stroke:#231f20;stroke-miterlimit:8;}</style>
    </defs>
    <g id="bounds">
        <path class="cls-1"
              d="M153.7246,185.1035c-5.2363,0-12.0185-6.0371-16.4985-11.5791-3.8907-4.8125-3.3179-11.8481-2.812-18.0556.2749-3.3765.5346-6.5655-.0435-8.5245-1.1894-4.0288-3.0039-5.5654-5.3013-7.5112-.7934-.6714-1.6137-1.3662-2.4589-2.2036-4.0791-4.0391-8.0806-7.1768-10.7037-8.3921a15.2249,15.2249,0,0,0-8.13-.7676c-1.439.4419-9.0289,2.2-10.9825,2.647a24.49,24.49,0,0,0-4.8144,1.8813c-1.0122.4751-2.0591.9664-3.2476,1.4537l-1.5176-3.7012c1.0967-.45,2.0982-.9194,3.0665-1.3735a27.745,27.745,0,0,1,5.6215-2.16c3.1753-.7261,9.5747-2.2256,10.7012-2.5718a18.9609,18.9609,0,0,1,10.9844.9624c4.354,2.0176,9.728,7.0918,11.8364,9.18.7349.7275,1.4946,1.3711,2.23,1.9932,2.47,2.0918,5.0244,4.2548,6.5522,9.4306.79,2.6739.5,6.2237.1944,9.982-.4448,5.46-.9488,11.6479,1.9355,15.2163,5.6333,6.9692,11.4756,10.5859,13.8491,10.0478,1.1358-.2544,2.4205-5.2339,3.0376-7.6269a30.0714,30.0714,0,0,1,2.4678-7.2383c.4077-.69.7593-1.3252,1.0855-1.9146,1.6255-2.935,2.9091-5.2534,7.42-7.5786,4.8271-2.4883,14.1128-6.6274,22.11-6.3447,4.2657.1475,9.0835,2.3184,13.7427,4.4175,3.5933,1.6191,7.2691,3.2929,9.4024,3.2368,1.7465-.0484,2.7275-1.6553,4.0249-4.1011,1.0893-2.0547,2.3242-4.3833,4.82-4.4311,2.6186-.084,4.8711,2.6152,7.04,5.1963a18.3126,18.3126,0,0,0,2.8408,2.978,8.9527,8.9527,0,0,0,1.1954-1.8487,14.3541,14.3541,0,0,1,2.3125-3.3593,19.4266,19.4266,0,0,0,1.7592-2.25c1.7871-2.502,4.0122-5.6163,7.52-5.6163h.0044c3.6982.002,6.8378,2.2413,12.04,5.9507.752.5362,1.5513,1.1065,2.4063,1.7085l-2.3028,3.27c-.8618-.6069-1.668-1.1816-2.4263-1.7221-4.5522-3.2466-7.3-5.2061-9.7192-5.2076h-.001c-1.4507,0-2.9463,2.0938-4.2661,3.9415a21.8232,21.8232,0,0,1-2.1889,2.7553,11.2394,11.2394,0,0,0-1.6348,2.4595c-1.0147,1.84-2.4053,4.3589-5.3272,3.89-1.8486-.2988-3.436-2.1884-5.2744-4.3769-.9707-1.1553-2.956-3.519-3.831-3.7544a10.6861,10.6861,0,0,0-1.4326,2.29c-1.3672,2.5782-3.24,6.11-7.4493,6.2251-3.0024.0821-6.7841-1.6181-11.1547-3.5879-4.106-1.85-8.7593-3.9467-12.2374-4.0664-7.3315-.2553-16.5317,4.0435-20.14,5.9024-3.4326,1.769-4.208,3.17-5.7534,5.96-.3433.62-.7124,1.2857-1.1406,2.0113a28.7356,28.7356,0,0,0-2.0391,6.2031c-1.2925,5.01-2.5127,9.7432-6.0376,10.5312A6.0848,6.0848,0,0,1,153.7246,185.1035Z"/>
    </g>
    <g id="Yangtze_River" data-name="Yangtze River">
        <path class="cls-2"
              d="M258.2634,153.8714c-6.466-4.552-9.7688-7.2921-13.2962-7.2944s-5.6852,5.1026-7.8688,7.2807-2.7712,6.1877-5.2318,5.7905-6.4705-8.233-9.5309-8.1724-3.4793,8.3853-8.8295,8.5318-15.8684-7.3986-23.2682-7.6539-16.3208,3.6478-21.1248,6.1236-5.2853,4.6436-7.7,8.7321-3.0191,14.9563-6.791,15.8-10.3653-3.9682-15.8405-10.7419-.6992-19.814-2.4931-25.8895-5.0139-7.3436-8.2709-10.5691-7.8-7.1777-11.27-8.7859a16.9458,16.9458,0,0,0-9.5566-.8653c-1.26.3869-8.1046,1.9836-10.8422,2.61s-5.1178,2.098-8.3749,3.4338"/>
    </g>
</svg>
