<svg xmlns="http://www.w3.org/2000/svg" width="792" height="612" viewBox="0 0 792 612">
    <defs>
        <style>.cls-1{fill:#fff;}.cls-2{fill:none;stroke:#000;stroke-miterlimit:8;}</style>
    </defs>
    <g id="bounds">
        <path class="cls-1"
              d="M203.68,139.748a2.9587,2.9587,0,0,1-2.1611-.8422c-1.7544-1.72-2.2027-5.6329-1.37-11.9634a46.9683,46.9683,0,0,1,2.4786-8.2861c1.5615-4.3555,3.5043-9.7759,2.6933-11.7989a6.2257,6.2257,0,0,0-3.5268-2.9951,12.864,12.864,0,0,0-9.4937-.1055c-2.3257.9893-5.22,4.64-8.0185,8.1695-3.336,4.2075-6.7857,8.5586-10.3409,9.94-8.3676,3.25-15.1567,1.8247-20.1792-4.2368-2.6465-3.1953-4.3633-3.5147-4.9033-3.2383a.7914.7914,0,0,0-.3423.8765c.2969.6948,2.9175,3.3935,4.8316,5.3637,5.5942,5.7593,7.5044,7.9332,6.9687,9.7115a1.9352,1.9352,0,0,1-1.479,1.3252c-1.9092.4209-5.96-1.2207-15.4429-5.34-4.9545-2.1523-10.0781-4.3779-13.7353-5.542l-.1387-.0517c-2.5713-1.1069-4.2934-.063-5.7715,1.2319a1.96,1.96,0,0,1-1.769.6714l-.74-.1621-.333-.7124,1.37-.6118.395-1.4321a1.3955,1.3955,0,0,0-1.12.18c.0566-.0434.1294-.1093.22-.1889a8.0261,8.0261,0,0,1,8.8657-1.7608c3.7964,1.2154,8.9585,3.458,13.9522,5.627,3.9575,1.7192,9.0371,3.9258,11.8242,4.791-1.3223-1.6343-3.646-4.0269-5.2183-5.6455-3.72-3.83-5.2666-5.5064-5.5791-6.6826a3.7731,3.7731,0,0,1,1.8672-4.314c1.3828-.7134,4.3374-1.1406,8.5884,3.9907,4.1636,5.0264,9.6533,6.1236,16.7822,3.3545,2.7964-1.0864,5.9888-5.1133,9.0767-9.0073,3.1714-4,6.1665-7.7783,9.1948-9.0664a15.7822,15.7822,0,0,1,11.8188.0957,9.0359,9.0359,0,0,1,5.1607,4.6494c1.2344,3.08-.6543,8.3491-2.6538,13.9273a45.7257,45.7257,0,0,0-2.3282,7.665c-.7695,5.8477-.2138,8.7344.4952,9.4292.6069.1977,3.0464-1.0825,4.2172-1.6992.6216-.3277,1.2164-.64,1.7476-.8858a13.5642,13.5642,0,0,0,2.668-1.9565c1.52-1.3,3.0654-2.6343,4.8579-2.6191,1.7588.0253,2.7939,1.4213,3.707,2.6528.6646.8955,1.3511,1.8218,2.1328,1.9917l.3482.0762a10.8282,10.8282,0,0,0,8.8037-1.1333c1.3774-.732,3.3535-3.2344,5.2651-5.6543,4.2124-5.335,9.4566-11.9732,14.8023-8.3013l-1.6983,2.4726c-2.8071-1.9287-6.3774,2.1514-10.75,7.688-2.2954,2.9068-4.2778,5.417-6.2119,6.4444a13.7911,13.7911,0,0,1-10.855,1.414l-.34-.0747c-1.8838-.4092-3.0049-1.9214-3.9062-3.1362-.3721-.502-1.065-1.436-1.34-1.44h-.0078c-.6357,0-1.92,1.0971-2.8579,1.8994a15.5557,15.5557,0,0,1-3.3565,2.3979c-.49.2271-1.0376.5166-1.6108.8184C207.39,138.689,205.3784,139.748,203.68,139.748Z"/>
    </g>
    <g id="Yellow_River" data-name="Yellow River">
        <path class="cls-2"
              d="M251.3188,120.47c-6.409-4.4031-13.7339,11.5037-18.5144,14.0438s-7.554,1.7668-10.1738,1.1981-3.4728-4.58-5.5427-4.61-4.4552,3.3145-6.8747,4.4364-6.2154,3.6951-7.6448,2.2956-1.6241-5.44-.9326-10.696,6.7309-16.7122,5.0769-20.8388-9.4469-6.284-15-3.923-12.1829,15.7087-18.3164,18.0917-13.0535,2.7548-18.48-3.7958-8.45-3.2736-7.85-1.0189,14.2761,13.932,11.4505,14.5493-19.65-8.0607-28.4028-10.8464c-4.8634-2.0965-7.6757,2.1562-7.8372,1.7945"/>
    </g>
</svg>
